G04 #@! TF.GenerationSoftware,KiCad,Pcbnew,8.0.1*
G04 #@! TF.CreationDate,2024-10-28T21:29:32-04:00*
G04 #@! TF.ProjectId,GHOUL-CloudCruiser,47484f55-4c2d-4436-9c6f-756443727569,rev?*
G04 #@! TF.SameCoordinates,Original*
G04 #@! TF.FileFunction,Legend,Top*
G04 #@! TF.FilePolarity,Positive*
%FSLAX46Y46*%
G04 Gerber Fmt 4.6, Leading zero omitted, Abs format (unit mm)*
G04 Created by KiCad (PCBNEW 8.0.1) date 2024-10-28 21:29:32*
%MOMM*%
%LPD*%
G01*
G04 APERTURE LIST*
G04 Aperture macros list*
%AMRoundRect*
0 Rectangle with rounded corners*
0 $1 Rounding radius*
0 $2 $3 $4 $5 $6 $7 $8 $9 X,Y pos of 4 corners*
0 Add a 4 corners polygon primitive as box body*
4,1,4,$2,$3,$4,$5,$6,$7,$8,$9,$2,$3,0*
0 Add four circle primitives for the rounded corners*
1,1,$1+$1,$2,$3*
1,1,$1+$1,$4,$5*
1,1,$1+$1,$6,$7*
1,1,$1+$1,$8,$9*
0 Add four rect primitives between the rounded corners*
20,1,$1+$1,$2,$3,$4,$5,0*
20,1,$1+$1,$4,$5,$6,$7,0*
20,1,$1+$1,$6,$7,$8,$9,0*
20,1,$1+$1,$8,$9,$2,$3,0*%
G04 Aperture macros list end*
%ADD10C,0.508000*%
%ADD11C,0.150000*%
%ADD12C,0.125000*%
%ADD13C,0.100000*%
%ADD14C,0.120000*%
%ADD15C,0.127000*%
%ADD16C,7.500000*%
%ADD17C,0.182463*%
%ADD18C,0.002645*%
%ADD19C,0.000100*%
%ADD20R,0.980000X3.400000*%
%ADD21R,1.700000X1.700000*%
%ADD22O,1.700000X1.700000*%
%ADD23RoundRect,0.237500X-0.250000X-0.237500X0.250000X-0.237500X0.250000X0.237500X-0.250000X0.237500X0*%
%ADD24RoundRect,0.237500X-0.237500X0.300000X-0.237500X-0.300000X0.237500X-0.300000X0.237500X0.300000X0*%
%ADD25RoundRect,0.237500X0.237500X-0.250000X0.237500X0.250000X-0.237500X0.250000X-0.237500X-0.250000X0*%
%ADD26R,1.905000X2.000000*%
%ADD27O,1.905000X2.000000*%
%ADD28R,2.259800X1.362800*%
%ADD29C,2.000000*%
%ADD30R,1.500000X1.050000*%
%ADD31O,1.500000X1.050000*%
%ADD32RoundRect,0.237500X-0.300000X-0.237500X0.300000X-0.237500X0.300000X0.237500X-0.300000X0.237500X0*%
%ADD33R,0.950000X0.550000*%
%ADD34RoundRect,0.237500X0.237500X-0.300000X0.237500X0.300000X-0.237500X0.300000X-0.237500X-0.300000X0*%
%ADD35RoundRect,0.062500X0.062500X-0.350000X0.062500X0.350000X-0.062500X0.350000X-0.062500X-0.350000X0*%
%ADD36RoundRect,0.062500X0.350000X-0.062500X0.350000X0.062500X-0.350000X0.062500X-0.350000X-0.062500X0*%
%ADD37R,1.680000X1.680000*%
%ADD38RoundRect,0.175000X0.175000X-0.725000X0.175000X0.725000X-0.175000X0.725000X-0.175000X-0.725000X0*%
%ADD39RoundRect,0.200000X0.200000X-0.700000X0.200000X0.700000X-0.200000X0.700000X-0.200000X-0.700000X0*%
%ADD40RoundRect,0.250000X-0.337500X-0.475000X0.337500X-0.475000X0.337500X0.475000X-0.337500X0.475000X0*%
%ADD41RoundRect,0.250000X0.300000X-0.300000X0.300000X0.300000X-0.300000X0.300000X-0.300000X-0.300000X0*%
%ADD42C,1.524000*%
%ADD43RoundRect,0.102000X-0.850000X2.050000X-0.850000X-2.050000X0.850000X-2.050000X0.850000X2.050000X0*%
%ADD44RoundRect,0.250000X-2.050000X-0.300000X2.050000X-0.300000X2.050000X0.300000X-2.050000X0.300000X0*%
%ADD45RoundRect,0.250002X-4.449998X-5.149998X4.449998X-5.149998X4.449998X5.149998X-4.449998X5.149998X0*%
%ADD46R,2.000000X1.905000*%
%ADD47O,2.000000X1.905000*%
%ADD48RoundRect,0.250000X2.050000X0.300000X-2.050000X0.300000X-2.050000X-0.300000X2.050000X-0.300000X0*%
%ADD49RoundRect,0.250002X4.449998X5.149998X-4.449998X5.149998X-4.449998X-5.149998X4.449998X-5.149998X0*%
%ADD50RoundRect,0.237500X-0.237500X0.250000X-0.237500X-0.250000X0.237500X-0.250000X0.237500X0.250000X0*%
%ADD51RoundRect,0.250000X0.337500X0.475000X-0.337500X0.475000X-0.337500X-0.475000X0.337500X-0.475000X0*%
G04 APERTURE END LIST*
D10*
X195420831Y-95609599D02*
X195541784Y-95730551D01*
X195541784Y-95730551D02*
X195662736Y-96093409D01*
X195662736Y-96093409D02*
X195662736Y-96335313D01*
X195662736Y-96335313D02*
X195541784Y-96698170D01*
X195541784Y-96698170D02*
X195299879Y-96940075D01*
X195299879Y-96940075D02*
X195057974Y-97061028D01*
X195057974Y-97061028D02*
X194574164Y-97181980D01*
X194574164Y-97181980D02*
X194211307Y-97181980D01*
X194211307Y-97181980D02*
X193727498Y-97061028D01*
X193727498Y-97061028D02*
X193485593Y-96940075D01*
X193485593Y-96940075D02*
X193243688Y-96698170D01*
X193243688Y-96698170D02*
X193122736Y-96335313D01*
X193122736Y-96335313D02*
X193122736Y-96093409D01*
X193122736Y-96093409D02*
X193243688Y-95730551D01*
X193243688Y-95730551D02*
X193364641Y-95609599D01*
X195662736Y-94158170D02*
X195541784Y-94400075D01*
X195541784Y-94400075D02*
X195299879Y-94521028D01*
X195299879Y-94521028D02*
X193122736Y-94521028D01*
X195662736Y-92827694D02*
X195541784Y-93069599D01*
X195541784Y-93069599D02*
X195420831Y-93190552D01*
X195420831Y-93190552D02*
X195178926Y-93311504D01*
X195178926Y-93311504D02*
X194453212Y-93311504D01*
X194453212Y-93311504D02*
X194211307Y-93190552D01*
X194211307Y-93190552D02*
X194090355Y-93069599D01*
X194090355Y-93069599D02*
X193969403Y-92827694D01*
X193969403Y-92827694D02*
X193969403Y-92464837D01*
X193969403Y-92464837D02*
X194090355Y-92222933D01*
X194090355Y-92222933D02*
X194211307Y-92101980D01*
X194211307Y-92101980D02*
X194453212Y-91981028D01*
X194453212Y-91981028D02*
X195178926Y-91981028D01*
X195178926Y-91981028D02*
X195420831Y-92101980D01*
X195420831Y-92101980D02*
X195541784Y-92222933D01*
X195541784Y-92222933D02*
X195662736Y-92464837D01*
X195662736Y-92464837D02*
X195662736Y-92827694D01*
X193969403Y-89803885D02*
X195662736Y-89803885D01*
X193969403Y-90892457D02*
X195299879Y-90892457D01*
X195299879Y-90892457D02*
X195541784Y-90771504D01*
X195541784Y-90771504D02*
X195662736Y-90529599D01*
X195662736Y-90529599D02*
X195662736Y-90166742D01*
X195662736Y-90166742D02*
X195541784Y-89924838D01*
X195541784Y-89924838D02*
X195420831Y-89803885D01*
X195662736Y-87505790D02*
X193122736Y-87505790D01*
X195541784Y-87505790D02*
X195662736Y-87747695D01*
X195662736Y-87747695D02*
X195662736Y-88231504D01*
X195662736Y-88231504D02*
X195541784Y-88473409D01*
X195541784Y-88473409D02*
X195420831Y-88594362D01*
X195420831Y-88594362D02*
X195178926Y-88715314D01*
X195178926Y-88715314D02*
X194453212Y-88715314D01*
X194453212Y-88715314D02*
X194211307Y-88594362D01*
X194211307Y-88594362D02*
X194090355Y-88473409D01*
X194090355Y-88473409D02*
X193969403Y-88231504D01*
X193969403Y-88231504D02*
X193969403Y-87747695D01*
X193969403Y-87747695D02*
X194090355Y-87505790D01*
X195420831Y-82909600D02*
X195541784Y-83030552D01*
X195541784Y-83030552D02*
X195662736Y-83393410D01*
X195662736Y-83393410D02*
X195662736Y-83635314D01*
X195662736Y-83635314D02*
X195541784Y-83998171D01*
X195541784Y-83998171D02*
X195299879Y-84240076D01*
X195299879Y-84240076D02*
X195057974Y-84361029D01*
X195057974Y-84361029D02*
X194574164Y-84481981D01*
X194574164Y-84481981D02*
X194211307Y-84481981D01*
X194211307Y-84481981D02*
X193727498Y-84361029D01*
X193727498Y-84361029D02*
X193485593Y-84240076D01*
X193485593Y-84240076D02*
X193243688Y-83998171D01*
X193243688Y-83998171D02*
X193122736Y-83635314D01*
X193122736Y-83635314D02*
X193122736Y-83393410D01*
X193122736Y-83393410D02*
X193243688Y-83030552D01*
X193243688Y-83030552D02*
X193364641Y-82909600D01*
X195662736Y-81821029D02*
X193969403Y-81821029D01*
X194453212Y-81821029D02*
X194211307Y-81700076D01*
X194211307Y-81700076D02*
X194090355Y-81579124D01*
X194090355Y-81579124D02*
X193969403Y-81337219D01*
X193969403Y-81337219D02*
X193969403Y-81095314D01*
X193969403Y-79160076D02*
X195662736Y-79160076D01*
X193969403Y-80248648D02*
X195299879Y-80248648D01*
X195299879Y-80248648D02*
X195541784Y-80127695D01*
X195541784Y-80127695D02*
X195662736Y-79885790D01*
X195662736Y-79885790D02*
X195662736Y-79522933D01*
X195662736Y-79522933D02*
X195541784Y-79281029D01*
X195541784Y-79281029D02*
X195420831Y-79160076D01*
X195662736Y-77950553D02*
X193969403Y-77950553D01*
X193122736Y-77950553D02*
X193243688Y-78071505D01*
X193243688Y-78071505D02*
X193364641Y-77950553D01*
X193364641Y-77950553D02*
X193243688Y-77829600D01*
X193243688Y-77829600D02*
X193122736Y-77950553D01*
X193122736Y-77950553D02*
X193364641Y-77950553D01*
X195541784Y-76861981D02*
X195662736Y-76620076D01*
X195662736Y-76620076D02*
X195662736Y-76136267D01*
X195662736Y-76136267D02*
X195541784Y-75894362D01*
X195541784Y-75894362D02*
X195299879Y-75773410D01*
X195299879Y-75773410D02*
X195178926Y-75773410D01*
X195178926Y-75773410D02*
X194937022Y-75894362D01*
X194937022Y-75894362D02*
X194816069Y-76136267D01*
X194816069Y-76136267D02*
X194816069Y-76499124D01*
X194816069Y-76499124D02*
X194695117Y-76741029D01*
X194695117Y-76741029D02*
X194453212Y-76861981D01*
X194453212Y-76861981D02*
X194332260Y-76861981D01*
X194332260Y-76861981D02*
X194090355Y-76741029D01*
X194090355Y-76741029D02*
X193969403Y-76499124D01*
X193969403Y-76499124D02*
X193969403Y-76136267D01*
X193969403Y-76136267D02*
X194090355Y-75894362D01*
X195541784Y-73717220D02*
X195662736Y-73959124D01*
X195662736Y-73959124D02*
X195662736Y-74442934D01*
X195662736Y-74442934D02*
X195541784Y-74684839D01*
X195541784Y-74684839D02*
X195299879Y-74805791D01*
X195299879Y-74805791D02*
X194332260Y-74805791D01*
X194332260Y-74805791D02*
X194090355Y-74684839D01*
X194090355Y-74684839D02*
X193969403Y-74442934D01*
X193969403Y-74442934D02*
X193969403Y-73959124D01*
X193969403Y-73959124D02*
X194090355Y-73717220D01*
X194090355Y-73717220D02*
X194332260Y-73596267D01*
X194332260Y-73596267D02*
X194574164Y-73596267D01*
X194574164Y-73596267D02*
X194816069Y-74805791D01*
X195662736Y-72507696D02*
X193969403Y-72507696D01*
X194453212Y-72507696D02*
X194211307Y-72386743D01*
X194211307Y-72386743D02*
X194090355Y-72265791D01*
X194090355Y-72265791D02*
X193969403Y-72023886D01*
X193969403Y-72023886D02*
X193969403Y-71781981D01*
X193122736Y-69362934D02*
X195662736Y-68516267D01*
X195662736Y-68516267D02*
X193122736Y-67669600D01*
X193122736Y-66339124D02*
X193122736Y-66097219D01*
X193122736Y-66097219D02*
X193243688Y-65855315D01*
X193243688Y-65855315D02*
X193364641Y-65734362D01*
X193364641Y-65734362D02*
X193606545Y-65613410D01*
X193606545Y-65613410D02*
X194090355Y-65492457D01*
X194090355Y-65492457D02*
X194695117Y-65492457D01*
X194695117Y-65492457D02*
X195178926Y-65613410D01*
X195178926Y-65613410D02*
X195420831Y-65734362D01*
X195420831Y-65734362D02*
X195541784Y-65855315D01*
X195541784Y-65855315D02*
X195662736Y-66097219D01*
X195662736Y-66097219D02*
X195662736Y-66339124D01*
X195662736Y-66339124D02*
X195541784Y-66581029D01*
X195541784Y-66581029D02*
X195420831Y-66701981D01*
X195420831Y-66701981D02*
X195178926Y-66822934D01*
X195178926Y-66822934D02*
X194695117Y-66943886D01*
X194695117Y-66943886D02*
X194090355Y-66943886D01*
X194090355Y-66943886D02*
X193606545Y-66822934D01*
X193606545Y-66822934D02*
X193364641Y-66701981D01*
X193364641Y-66701981D02*
X193243688Y-66581029D01*
X193243688Y-66581029D02*
X193122736Y-66339124D01*
X195420831Y-64403886D02*
X195541784Y-64282933D01*
X195541784Y-64282933D02*
X195662736Y-64403886D01*
X195662736Y-64403886D02*
X195541784Y-64524838D01*
X195541784Y-64524838D02*
X195420831Y-64403886D01*
X195420831Y-64403886D02*
X195662736Y-64403886D01*
X193122736Y-62710552D02*
X193122736Y-62468647D01*
X193122736Y-62468647D02*
X193243688Y-62226743D01*
X193243688Y-62226743D02*
X193364641Y-62105790D01*
X193364641Y-62105790D02*
X193606545Y-61984838D01*
X193606545Y-61984838D02*
X194090355Y-61863885D01*
X194090355Y-61863885D02*
X194695117Y-61863885D01*
X194695117Y-61863885D02*
X195178926Y-61984838D01*
X195178926Y-61984838D02*
X195420831Y-62105790D01*
X195420831Y-62105790D02*
X195541784Y-62226743D01*
X195541784Y-62226743D02*
X195662736Y-62468647D01*
X195662736Y-62468647D02*
X195662736Y-62710552D01*
X195662736Y-62710552D02*
X195541784Y-62952457D01*
X195541784Y-62952457D02*
X195420831Y-63073409D01*
X195420831Y-63073409D02*
X195178926Y-63194362D01*
X195178926Y-63194362D02*
X194695117Y-63315314D01*
X194695117Y-63315314D02*
X194090355Y-63315314D01*
X194090355Y-63315314D02*
X193606545Y-63194362D01*
X193606545Y-63194362D02*
X193364641Y-63073409D01*
X193364641Y-63073409D02*
X193243688Y-62952457D01*
X193243688Y-62952457D02*
X193122736Y-62710552D01*
D11*
X177033333Y-80254819D02*
X176557143Y-80254819D01*
X176557143Y-80254819D02*
X176557143Y-79254819D01*
X177890476Y-80254819D02*
X177319048Y-80254819D01*
X177604762Y-80254819D02*
X177604762Y-79254819D01*
X177604762Y-79254819D02*
X177509524Y-79397676D01*
X177509524Y-79397676D02*
X177414286Y-79492914D01*
X177414286Y-79492914D02*
X177319048Y-79540533D01*
X185016666Y-116419819D02*
X185016666Y-117134104D01*
X185016666Y-117134104D02*
X184969047Y-117276961D01*
X184969047Y-117276961D02*
X184873809Y-117372200D01*
X184873809Y-117372200D02*
X184730952Y-117419819D01*
X184730952Y-117419819D02*
X184635714Y-117419819D01*
X185969047Y-116419819D02*
X185492857Y-116419819D01*
X185492857Y-116419819D02*
X185445238Y-116896009D01*
X185445238Y-116896009D02*
X185492857Y-116848390D01*
X185492857Y-116848390D02*
X185588095Y-116800771D01*
X185588095Y-116800771D02*
X185826190Y-116800771D01*
X185826190Y-116800771D02*
X185921428Y-116848390D01*
X185921428Y-116848390D02*
X185969047Y-116896009D01*
X185969047Y-116896009D02*
X186016666Y-116991247D01*
X186016666Y-116991247D02*
X186016666Y-117229342D01*
X186016666Y-117229342D02*
X185969047Y-117324580D01*
X185969047Y-117324580D02*
X185921428Y-117372200D01*
X185921428Y-117372200D02*
X185826190Y-117419819D01*
X185826190Y-117419819D02*
X185588095Y-117419819D01*
X185588095Y-117419819D02*
X185492857Y-117372200D01*
X185492857Y-117372200D02*
X185445238Y-117324580D01*
X166595833Y-103904819D02*
X166262500Y-103428628D01*
X166024405Y-103904819D02*
X166024405Y-102904819D01*
X166024405Y-102904819D02*
X166405357Y-102904819D01*
X166405357Y-102904819D02*
X166500595Y-102952438D01*
X166500595Y-102952438D02*
X166548214Y-103000057D01*
X166548214Y-103000057D02*
X166595833Y-103095295D01*
X166595833Y-103095295D02*
X166595833Y-103238152D01*
X166595833Y-103238152D02*
X166548214Y-103333390D01*
X166548214Y-103333390D02*
X166500595Y-103381009D01*
X166500595Y-103381009D02*
X166405357Y-103428628D01*
X166405357Y-103428628D02*
X166024405Y-103428628D01*
X167452976Y-102904819D02*
X167262500Y-102904819D01*
X167262500Y-102904819D02*
X167167262Y-102952438D01*
X167167262Y-102952438D02*
X167119643Y-103000057D01*
X167119643Y-103000057D02*
X167024405Y-103142914D01*
X167024405Y-103142914D02*
X166976786Y-103333390D01*
X166976786Y-103333390D02*
X166976786Y-103714342D01*
X166976786Y-103714342D02*
X167024405Y-103809580D01*
X167024405Y-103809580D02*
X167072024Y-103857200D01*
X167072024Y-103857200D02*
X167167262Y-103904819D01*
X167167262Y-103904819D02*
X167357738Y-103904819D01*
X167357738Y-103904819D02*
X167452976Y-103857200D01*
X167452976Y-103857200D02*
X167500595Y-103809580D01*
X167500595Y-103809580D02*
X167548214Y-103714342D01*
X167548214Y-103714342D02*
X167548214Y-103476247D01*
X167548214Y-103476247D02*
X167500595Y-103381009D01*
X167500595Y-103381009D02*
X167452976Y-103333390D01*
X167452976Y-103333390D02*
X167357738Y-103285771D01*
X167357738Y-103285771D02*
X167167262Y-103285771D01*
X167167262Y-103285771D02*
X167072024Y-103333390D01*
X167072024Y-103333390D02*
X167024405Y-103381009D01*
X167024405Y-103381009D02*
X166976786Y-103476247D01*
X114983333Y-86359580D02*
X114935714Y-86407200D01*
X114935714Y-86407200D02*
X114792857Y-86454819D01*
X114792857Y-86454819D02*
X114697619Y-86454819D01*
X114697619Y-86454819D02*
X114554762Y-86407200D01*
X114554762Y-86407200D02*
X114459524Y-86311961D01*
X114459524Y-86311961D02*
X114411905Y-86216723D01*
X114411905Y-86216723D02*
X114364286Y-86026247D01*
X114364286Y-86026247D02*
X114364286Y-85883390D01*
X114364286Y-85883390D02*
X114411905Y-85692914D01*
X114411905Y-85692914D02*
X114459524Y-85597676D01*
X114459524Y-85597676D02*
X114554762Y-85502438D01*
X114554762Y-85502438D02*
X114697619Y-85454819D01*
X114697619Y-85454819D02*
X114792857Y-85454819D01*
X114792857Y-85454819D02*
X114935714Y-85502438D01*
X114935714Y-85502438D02*
X114983333Y-85550057D01*
X115935714Y-86454819D02*
X115364286Y-86454819D01*
X115650000Y-86454819D02*
X115650000Y-85454819D01*
X115650000Y-85454819D02*
X115554762Y-85597676D01*
X115554762Y-85597676D02*
X115459524Y-85692914D01*
X115459524Y-85692914D02*
X115364286Y-85740533D01*
X120983333Y-93754819D02*
X120650000Y-93278628D01*
X120411905Y-93754819D02*
X120411905Y-92754819D01*
X120411905Y-92754819D02*
X120792857Y-92754819D01*
X120792857Y-92754819D02*
X120888095Y-92802438D01*
X120888095Y-92802438D02*
X120935714Y-92850057D01*
X120935714Y-92850057D02*
X120983333Y-92945295D01*
X120983333Y-92945295D02*
X120983333Y-93088152D01*
X120983333Y-93088152D02*
X120935714Y-93183390D01*
X120935714Y-93183390D02*
X120888095Y-93231009D01*
X120888095Y-93231009D02*
X120792857Y-93278628D01*
X120792857Y-93278628D02*
X120411905Y-93278628D01*
X121316667Y-92754819D02*
X121935714Y-92754819D01*
X121935714Y-92754819D02*
X121602381Y-93135771D01*
X121602381Y-93135771D02*
X121745238Y-93135771D01*
X121745238Y-93135771D02*
X121840476Y-93183390D01*
X121840476Y-93183390D02*
X121888095Y-93231009D01*
X121888095Y-93231009D02*
X121935714Y-93326247D01*
X121935714Y-93326247D02*
X121935714Y-93564342D01*
X121935714Y-93564342D02*
X121888095Y-93659580D01*
X121888095Y-93659580D02*
X121840476Y-93707200D01*
X121840476Y-93707200D02*
X121745238Y-93754819D01*
X121745238Y-93754819D02*
X121459524Y-93754819D01*
X121459524Y-93754819D02*
X121364286Y-93707200D01*
X121364286Y-93707200D02*
X121316667Y-93659580D01*
X111509580Y-93166666D02*
X111557200Y-93214285D01*
X111557200Y-93214285D02*
X111604819Y-93357142D01*
X111604819Y-93357142D02*
X111604819Y-93452380D01*
X111604819Y-93452380D02*
X111557200Y-93595237D01*
X111557200Y-93595237D02*
X111461961Y-93690475D01*
X111461961Y-93690475D02*
X111366723Y-93738094D01*
X111366723Y-93738094D02*
X111176247Y-93785713D01*
X111176247Y-93785713D02*
X111033390Y-93785713D01*
X111033390Y-93785713D02*
X110842914Y-93738094D01*
X110842914Y-93738094D02*
X110747676Y-93690475D01*
X110747676Y-93690475D02*
X110652438Y-93595237D01*
X110652438Y-93595237D02*
X110604819Y-93452380D01*
X110604819Y-93452380D02*
X110604819Y-93357142D01*
X110604819Y-93357142D02*
X110652438Y-93214285D01*
X110652438Y-93214285D02*
X110700057Y-93166666D01*
X110700057Y-92785713D02*
X110652438Y-92738094D01*
X110652438Y-92738094D02*
X110604819Y-92642856D01*
X110604819Y-92642856D02*
X110604819Y-92404761D01*
X110604819Y-92404761D02*
X110652438Y-92309523D01*
X110652438Y-92309523D02*
X110700057Y-92261904D01*
X110700057Y-92261904D02*
X110795295Y-92214285D01*
X110795295Y-92214285D02*
X110890533Y-92214285D01*
X110890533Y-92214285D02*
X111033390Y-92261904D01*
X111033390Y-92261904D02*
X111604819Y-92833332D01*
X111604819Y-92833332D02*
X111604819Y-92214285D01*
X171904761Y-111405859D02*
X171809523Y-111358240D01*
X171809523Y-111358240D02*
X171714285Y-111263002D01*
X171714285Y-111263002D02*
X171571428Y-111120144D01*
X171571428Y-111120144D02*
X171476190Y-111072525D01*
X171476190Y-111072525D02*
X171380952Y-111072525D01*
X171428571Y-111310621D02*
X171333333Y-111263002D01*
X171333333Y-111263002D02*
X171238095Y-111167763D01*
X171238095Y-111167763D02*
X171190476Y-110977287D01*
X171190476Y-110977287D02*
X171190476Y-110643954D01*
X171190476Y-110643954D02*
X171238095Y-110453478D01*
X171238095Y-110453478D02*
X171333333Y-110358240D01*
X171333333Y-110358240D02*
X171428571Y-110310621D01*
X171428571Y-110310621D02*
X171619047Y-110310621D01*
X171619047Y-110310621D02*
X171714285Y-110358240D01*
X171714285Y-110358240D02*
X171809523Y-110453478D01*
X171809523Y-110453478D02*
X171857142Y-110643954D01*
X171857142Y-110643954D02*
X171857142Y-110977287D01*
X171857142Y-110977287D02*
X171809523Y-111167763D01*
X171809523Y-111167763D02*
X171714285Y-111263002D01*
X171714285Y-111263002D02*
X171619047Y-111310621D01*
X171619047Y-111310621D02*
X171428571Y-111310621D01*
X172238095Y-110405859D02*
X172285714Y-110358240D01*
X172285714Y-110358240D02*
X172380952Y-110310621D01*
X172380952Y-110310621D02*
X172619047Y-110310621D01*
X172619047Y-110310621D02*
X172714285Y-110358240D01*
X172714285Y-110358240D02*
X172761904Y-110405859D01*
X172761904Y-110405859D02*
X172809523Y-110501097D01*
X172809523Y-110501097D02*
X172809523Y-110596335D01*
X172809523Y-110596335D02*
X172761904Y-110739192D01*
X172761904Y-110739192D02*
X172190476Y-111310621D01*
X172190476Y-111310621D02*
X172809523Y-111310621D01*
D12*
X99626178Y-65214898D02*
X99626178Y-64857756D01*
X99840464Y-65286327D02*
X99090464Y-65036327D01*
X99090464Y-65036327D02*
X99840464Y-64786327D01*
X99447607Y-64536327D02*
X99447607Y-64286327D01*
X99840464Y-64179184D02*
X99840464Y-64536327D01*
X99840464Y-64536327D02*
X99090464Y-64536327D01*
X99090464Y-64536327D02*
X99090464Y-64179184D01*
X99840464Y-63464899D02*
X99840464Y-63893470D01*
X99840464Y-63679185D02*
X99090464Y-63679185D01*
X99090464Y-63679185D02*
X99197607Y-63750613D01*
X99197607Y-63750613D02*
X99269035Y-63822042D01*
X99269035Y-63822042D02*
X99304750Y-63893470D01*
D11*
X182738095Y-77354819D02*
X183309523Y-77354819D01*
X183023809Y-78354819D02*
X183023809Y-77354819D01*
X183642857Y-78354819D02*
X183642857Y-77354819D01*
X183642857Y-77354819D02*
X184023809Y-77354819D01*
X184023809Y-77354819D02*
X184119047Y-77402438D01*
X184119047Y-77402438D02*
X184166666Y-77450057D01*
X184166666Y-77450057D02*
X184214285Y-77545295D01*
X184214285Y-77545295D02*
X184214285Y-77688152D01*
X184214285Y-77688152D02*
X184166666Y-77783390D01*
X184166666Y-77783390D02*
X184119047Y-77831009D01*
X184119047Y-77831009D02*
X184023809Y-77878628D01*
X184023809Y-77878628D02*
X183642857Y-77878628D01*
X185166666Y-78354819D02*
X184595238Y-78354819D01*
X184880952Y-78354819D02*
X184880952Y-77354819D01*
X184880952Y-77354819D02*
X184785714Y-77497676D01*
X184785714Y-77497676D02*
X184690476Y-77592914D01*
X184690476Y-77592914D02*
X184595238Y-77640533D01*
X181333333Y-80454819D02*
X181000000Y-79978628D01*
X180761905Y-80454819D02*
X180761905Y-79454819D01*
X180761905Y-79454819D02*
X181142857Y-79454819D01*
X181142857Y-79454819D02*
X181238095Y-79502438D01*
X181238095Y-79502438D02*
X181285714Y-79550057D01*
X181285714Y-79550057D02*
X181333333Y-79645295D01*
X181333333Y-79645295D02*
X181333333Y-79788152D01*
X181333333Y-79788152D02*
X181285714Y-79883390D01*
X181285714Y-79883390D02*
X181238095Y-79931009D01*
X181238095Y-79931009D02*
X181142857Y-79978628D01*
X181142857Y-79978628D02*
X180761905Y-79978628D01*
X181809524Y-80454819D02*
X182000000Y-80454819D01*
X182000000Y-80454819D02*
X182095238Y-80407200D01*
X182095238Y-80407200D02*
X182142857Y-80359580D01*
X182142857Y-80359580D02*
X182238095Y-80216723D01*
X182238095Y-80216723D02*
X182285714Y-80026247D01*
X182285714Y-80026247D02*
X182285714Y-79645295D01*
X182285714Y-79645295D02*
X182238095Y-79550057D01*
X182238095Y-79550057D02*
X182190476Y-79502438D01*
X182190476Y-79502438D02*
X182095238Y-79454819D01*
X182095238Y-79454819D02*
X181904762Y-79454819D01*
X181904762Y-79454819D02*
X181809524Y-79502438D01*
X181809524Y-79502438D02*
X181761905Y-79550057D01*
X181761905Y-79550057D02*
X181714286Y-79645295D01*
X181714286Y-79645295D02*
X181714286Y-79883390D01*
X181714286Y-79883390D02*
X181761905Y-79978628D01*
X181761905Y-79978628D02*
X181809524Y-80026247D01*
X181809524Y-80026247D02*
X181904762Y-80073866D01*
X181904762Y-80073866D02*
X182095238Y-80073866D01*
X182095238Y-80073866D02*
X182190476Y-80026247D01*
X182190476Y-80026247D02*
X182238095Y-79978628D01*
X182238095Y-79978628D02*
X182285714Y-79883390D01*
X144238095Y-68454819D02*
X144238095Y-69264342D01*
X144238095Y-69264342D02*
X144285714Y-69359580D01*
X144285714Y-69359580D02*
X144333333Y-69407200D01*
X144333333Y-69407200D02*
X144428571Y-69454819D01*
X144428571Y-69454819D02*
X144619047Y-69454819D01*
X144619047Y-69454819D02*
X144714285Y-69407200D01*
X144714285Y-69407200D02*
X144761904Y-69359580D01*
X144761904Y-69359580D02*
X144809523Y-69264342D01*
X144809523Y-69264342D02*
X144809523Y-68454819D01*
X145714285Y-68788152D02*
X145714285Y-69454819D01*
X145476190Y-68407200D02*
X145238095Y-69121485D01*
X145238095Y-69121485D02*
X145857142Y-69121485D01*
X138833333Y-97454819D02*
X139499999Y-98454819D01*
X139499999Y-97454819D02*
X138833333Y-98454819D01*
X140214285Y-97931009D02*
X140357142Y-97978628D01*
X140357142Y-97978628D02*
X140404761Y-98026247D01*
X140404761Y-98026247D02*
X140452380Y-98121485D01*
X140452380Y-98121485D02*
X140452380Y-98264342D01*
X140452380Y-98264342D02*
X140404761Y-98359580D01*
X140404761Y-98359580D02*
X140357142Y-98407200D01*
X140357142Y-98407200D02*
X140261904Y-98454819D01*
X140261904Y-98454819D02*
X139880952Y-98454819D01*
X139880952Y-98454819D02*
X139880952Y-97454819D01*
X139880952Y-97454819D02*
X140214285Y-97454819D01*
X140214285Y-97454819D02*
X140309523Y-97502438D01*
X140309523Y-97502438D02*
X140357142Y-97550057D01*
X140357142Y-97550057D02*
X140404761Y-97645295D01*
X140404761Y-97645295D02*
X140404761Y-97740533D01*
X140404761Y-97740533D02*
X140357142Y-97835771D01*
X140357142Y-97835771D02*
X140309523Y-97883390D01*
X140309523Y-97883390D02*
X140214285Y-97931009D01*
X140214285Y-97931009D02*
X139880952Y-97931009D01*
X141261904Y-98407200D02*
X141166666Y-98454819D01*
X141166666Y-98454819D02*
X140976190Y-98454819D01*
X140976190Y-98454819D02*
X140880952Y-98407200D01*
X140880952Y-98407200D02*
X140833333Y-98311961D01*
X140833333Y-98311961D02*
X140833333Y-97931009D01*
X140833333Y-97931009D02*
X140880952Y-97835771D01*
X140880952Y-97835771D02*
X140976190Y-97788152D01*
X140976190Y-97788152D02*
X141166666Y-97788152D01*
X141166666Y-97788152D02*
X141261904Y-97835771D01*
X141261904Y-97835771D02*
X141309523Y-97931009D01*
X141309523Y-97931009D02*
X141309523Y-98026247D01*
X141309523Y-98026247D02*
X140833333Y-98121485D01*
X142119047Y-98407200D02*
X142023809Y-98454819D01*
X142023809Y-98454819D02*
X141833333Y-98454819D01*
X141833333Y-98454819D02*
X141738095Y-98407200D01*
X141738095Y-98407200D02*
X141690476Y-98311961D01*
X141690476Y-98311961D02*
X141690476Y-97931009D01*
X141690476Y-97931009D02*
X141738095Y-97835771D01*
X141738095Y-97835771D02*
X141833333Y-97788152D01*
X141833333Y-97788152D02*
X142023809Y-97788152D01*
X142023809Y-97788152D02*
X142119047Y-97835771D01*
X142119047Y-97835771D02*
X142166666Y-97931009D01*
X142166666Y-97931009D02*
X142166666Y-98026247D01*
X142166666Y-98026247D02*
X141690476Y-98121485D01*
X143119047Y-98454819D02*
X142547619Y-98454819D01*
X142833333Y-98454819D02*
X142833333Y-97454819D01*
X142833333Y-97454819D02*
X142738095Y-97597676D01*
X142738095Y-97597676D02*
X142642857Y-97692914D01*
X142642857Y-97692914D02*
X142547619Y-97740533D01*
X105816666Y-94454819D02*
X105816666Y-95169104D01*
X105816666Y-95169104D02*
X105769047Y-95311961D01*
X105769047Y-95311961D02*
X105673809Y-95407200D01*
X105673809Y-95407200D02*
X105530952Y-95454819D01*
X105530952Y-95454819D02*
X105435714Y-95454819D01*
X106816666Y-95454819D02*
X106245238Y-95454819D01*
X106530952Y-95454819D02*
X106530952Y-94454819D01*
X106530952Y-94454819D02*
X106435714Y-94597676D01*
X106435714Y-94597676D02*
X106340476Y-94692914D01*
X106340476Y-94692914D02*
X106245238Y-94740533D01*
X182266666Y-110724819D02*
X182266666Y-111439104D01*
X182266666Y-111439104D02*
X182219047Y-111581961D01*
X182219047Y-111581961D02*
X182123809Y-111677200D01*
X182123809Y-111677200D02*
X181980952Y-111724819D01*
X181980952Y-111724819D02*
X181885714Y-111724819D01*
X182695238Y-110820057D02*
X182742857Y-110772438D01*
X182742857Y-110772438D02*
X182838095Y-110724819D01*
X182838095Y-110724819D02*
X183076190Y-110724819D01*
X183076190Y-110724819D02*
X183171428Y-110772438D01*
X183171428Y-110772438D02*
X183219047Y-110820057D01*
X183219047Y-110820057D02*
X183266666Y-110915295D01*
X183266666Y-110915295D02*
X183266666Y-111010533D01*
X183266666Y-111010533D02*
X183219047Y-111153390D01*
X183219047Y-111153390D02*
X182647619Y-111724819D01*
X182647619Y-111724819D02*
X183266666Y-111724819D01*
X182333333Y-69359580D02*
X182285714Y-69407200D01*
X182285714Y-69407200D02*
X182142857Y-69454819D01*
X182142857Y-69454819D02*
X182047619Y-69454819D01*
X182047619Y-69454819D02*
X181904762Y-69407200D01*
X181904762Y-69407200D02*
X181809524Y-69311961D01*
X181809524Y-69311961D02*
X181761905Y-69216723D01*
X181761905Y-69216723D02*
X181714286Y-69026247D01*
X181714286Y-69026247D02*
X181714286Y-68883390D01*
X181714286Y-68883390D02*
X181761905Y-68692914D01*
X181761905Y-68692914D02*
X181809524Y-68597676D01*
X181809524Y-68597676D02*
X181904762Y-68502438D01*
X181904762Y-68502438D02*
X182047619Y-68454819D01*
X182047619Y-68454819D02*
X182142857Y-68454819D01*
X182142857Y-68454819D02*
X182285714Y-68502438D01*
X182285714Y-68502438D02*
X182333333Y-68550057D01*
X183190476Y-68454819D02*
X183000000Y-68454819D01*
X183000000Y-68454819D02*
X182904762Y-68502438D01*
X182904762Y-68502438D02*
X182857143Y-68550057D01*
X182857143Y-68550057D02*
X182761905Y-68692914D01*
X182761905Y-68692914D02*
X182714286Y-68883390D01*
X182714286Y-68883390D02*
X182714286Y-69264342D01*
X182714286Y-69264342D02*
X182761905Y-69359580D01*
X182761905Y-69359580D02*
X182809524Y-69407200D01*
X182809524Y-69407200D02*
X182904762Y-69454819D01*
X182904762Y-69454819D02*
X183095238Y-69454819D01*
X183095238Y-69454819D02*
X183190476Y-69407200D01*
X183190476Y-69407200D02*
X183238095Y-69359580D01*
X183238095Y-69359580D02*
X183285714Y-69264342D01*
X183285714Y-69264342D02*
X183285714Y-69026247D01*
X183285714Y-69026247D02*
X183238095Y-68931009D01*
X183238095Y-68931009D02*
X183190476Y-68883390D01*
X183190476Y-68883390D02*
X183095238Y-68835771D01*
X183095238Y-68835771D02*
X182904762Y-68835771D01*
X182904762Y-68835771D02*
X182809524Y-68883390D01*
X182809524Y-68883390D02*
X182761905Y-68931009D01*
X182761905Y-68931009D02*
X182714286Y-69026247D01*
X165045833Y-98724819D02*
X164712500Y-98248628D01*
X164474405Y-98724819D02*
X164474405Y-97724819D01*
X164474405Y-97724819D02*
X164855357Y-97724819D01*
X164855357Y-97724819D02*
X164950595Y-97772438D01*
X164950595Y-97772438D02*
X164998214Y-97820057D01*
X164998214Y-97820057D02*
X165045833Y-97915295D01*
X165045833Y-97915295D02*
X165045833Y-98058152D01*
X165045833Y-98058152D02*
X164998214Y-98153390D01*
X164998214Y-98153390D02*
X164950595Y-98201009D01*
X164950595Y-98201009D02*
X164855357Y-98248628D01*
X164855357Y-98248628D02*
X164474405Y-98248628D01*
X165379167Y-97724819D02*
X166045833Y-97724819D01*
X166045833Y-97724819D02*
X165617262Y-98724819D01*
X123238095Y-74454819D02*
X123238095Y-75264342D01*
X123238095Y-75264342D02*
X123285714Y-75359580D01*
X123285714Y-75359580D02*
X123333333Y-75407200D01*
X123333333Y-75407200D02*
X123428571Y-75454819D01*
X123428571Y-75454819D02*
X123619047Y-75454819D01*
X123619047Y-75454819D02*
X123714285Y-75407200D01*
X123714285Y-75407200D02*
X123761904Y-75359580D01*
X123761904Y-75359580D02*
X123809523Y-75264342D01*
X123809523Y-75264342D02*
X123809523Y-74454819D01*
X124190476Y-74454819D02*
X124809523Y-74454819D01*
X124809523Y-74454819D02*
X124476190Y-74835771D01*
X124476190Y-74835771D02*
X124619047Y-74835771D01*
X124619047Y-74835771D02*
X124714285Y-74883390D01*
X124714285Y-74883390D02*
X124761904Y-74931009D01*
X124761904Y-74931009D02*
X124809523Y-75026247D01*
X124809523Y-75026247D02*
X124809523Y-75264342D01*
X124809523Y-75264342D02*
X124761904Y-75359580D01*
X124761904Y-75359580D02*
X124714285Y-75407200D01*
X124714285Y-75407200D02*
X124619047Y-75454819D01*
X124619047Y-75454819D02*
X124333333Y-75454819D01*
X124333333Y-75454819D02*
X124238095Y-75407200D01*
X124238095Y-75407200D02*
X124190476Y-75359580D01*
X132238095Y-78954819D02*
X132238095Y-79764342D01*
X132238095Y-79764342D02*
X132285714Y-79859580D01*
X132285714Y-79859580D02*
X132333333Y-79907200D01*
X132333333Y-79907200D02*
X132428571Y-79954819D01*
X132428571Y-79954819D02*
X132619047Y-79954819D01*
X132619047Y-79954819D02*
X132714285Y-79907200D01*
X132714285Y-79907200D02*
X132761904Y-79859580D01*
X132761904Y-79859580D02*
X132809523Y-79764342D01*
X132809523Y-79764342D02*
X132809523Y-78954819D01*
X133714285Y-78954819D02*
X133523809Y-78954819D01*
X133523809Y-78954819D02*
X133428571Y-79002438D01*
X133428571Y-79002438D02*
X133380952Y-79050057D01*
X133380952Y-79050057D02*
X133285714Y-79192914D01*
X133285714Y-79192914D02*
X133238095Y-79383390D01*
X133238095Y-79383390D02*
X133238095Y-79764342D01*
X133238095Y-79764342D02*
X133285714Y-79859580D01*
X133285714Y-79859580D02*
X133333333Y-79907200D01*
X133333333Y-79907200D02*
X133428571Y-79954819D01*
X133428571Y-79954819D02*
X133619047Y-79954819D01*
X133619047Y-79954819D02*
X133714285Y-79907200D01*
X133714285Y-79907200D02*
X133761904Y-79859580D01*
X133761904Y-79859580D02*
X133809523Y-79764342D01*
X133809523Y-79764342D02*
X133809523Y-79526247D01*
X133809523Y-79526247D02*
X133761904Y-79431009D01*
X133761904Y-79431009D02*
X133714285Y-79383390D01*
X133714285Y-79383390D02*
X133619047Y-79335771D01*
X133619047Y-79335771D02*
X133428571Y-79335771D01*
X133428571Y-79335771D02*
X133333333Y-79383390D01*
X133333333Y-79383390D02*
X133285714Y-79431009D01*
X133285714Y-79431009D02*
X133238095Y-79526247D01*
X195666666Y-124954819D02*
X195666666Y-125669104D01*
X195666666Y-125669104D02*
X195619047Y-125811961D01*
X195619047Y-125811961D02*
X195523809Y-125907200D01*
X195523809Y-125907200D02*
X195380952Y-125954819D01*
X195380952Y-125954819D02*
X195285714Y-125954819D01*
X196190476Y-125954819D02*
X196380952Y-125954819D01*
X196380952Y-125954819D02*
X196476190Y-125907200D01*
X196476190Y-125907200D02*
X196523809Y-125859580D01*
X196523809Y-125859580D02*
X196619047Y-125716723D01*
X196619047Y-125716723D02*
X196666666Y-125526247D01*
X196666666Y-125526247D02*
X196666666Y-125145295D01*
X196666666Y-125145295D02*
X196619047Y-125050057D01*
X196619047Y-125050057D02*
X196571428Y-125002438D01*
X196571428Y-125002438D02*
X196476190Y-124954819D01*
X196476190Y-124954819D02*
X196285714Y-124954819D01*
X196285714Y-124954819D02*
X196190476Y-125002438D01*
X196190476Y-125002438D02*
X196142857Y-125050057D01*
X196142857Y-125050057D02*
X196095238Y-125145295D01*
X196095238Y-125145295D02*
X196095238Y-125383390D01*
X196095238Y-125383390D02*
X196142857Y-125478628D01*
X196142857Y-125478628D02*
X196190476Y-125526247D01*
X196190476Y-125526247D02*
X196285714Y-125573866D01*
X196285714Y-125573866D02*
X196476190Y-125573866D01*
X196476190Y-125573866D02*
X196571428Y-125526247D01*
X196571428Y-125526247D02*
X196619047Y-125478628D01*
X196619047Y-125478628D02*
X196666666Y-125383390D01*
X183833333Y-72859580D02*
X183785714Y-72907200D01*
X183785714Y-72907200D02*
X183642857Y-72954819D01*
X183642857Y-72954819D02*
X183547619Y-72954819D01*
X183547619Y-72954819D02*
X183404762Y-72907200D01*
X183404762Y-72907200D02*
X183309524Y-72811961D01*
X183309524Y-72811961D02*
X183261905Y-72716723D01*
X183261905Y-72716723D02*
X183214286Y-72526247D01*
X183214286Y-72526247D02*
X183214286Y-72383390D01*
X183214286Y-72383390D02*
X183261905Y-72192914D01*
X183261905Y-72192914D02*
X183309524Y-72097676D01*
X183309524Y-72097676D02*
X183404762Y-72002438D01*
X183404762Y-72002438D02*
X183547619Y-71954819D01*
X183547619Y-71954819D02*
X183642857Y-71954819D01*
X183642857Y-71954819D02*
X183785714Y-72002438D01*
X183785714Y-72002438D02*
X183833333Y-72050057D01*
X184166667Y-71954819D02*
X184833333Y-71954819D01*
X184833333Y-71954819D02*
X184404762Y-72954819D01*
X143666666Y-84454819D02*
X143666666Y-85169104D01*
X143666666Y-85169104D02*
X143619047Y-85311961D01*
X143619047Y-85311961D02*
X143523809Y-85407200D01*
X143523809Y-85407200D02*
X143380952Y-85454819D01*
X143380952Y-85454819D02*
X143285714Y-85454819D01*
X144571428Y-84454819D02*
X144380952Y-84454819D01*
X144380952Y-84454819D02*
X144285714Y-84502438D01*
X144285714Y-84502438D02*
X144238095Y-84550057D01*
X144238095Y-84550057D02*
X144142857Y-84692914D01*
X144142857Y-84692914D02*
X144095238Y-84883390D01*
X144095238Y-84883390D02*
X144095238Y-85264342D01*
X144095238Y-85264342D02*
X144142857Y-85359580D01*
X144142857Y-85359580D02*
X144190476Y-85407200D01*
X144190476Y-85407200D02*
X144285714Y-85454819D01*
X144285714Y-85454819D02*
X144476190Y-85454819D01*
X144476190Y-85454819D02*
X144571428Y-85407200D01*
X144571428Y-85407200D02*
X144619047Y-85359580D01*
X144619047Y-85359580D02*
X144666666Y-85264342D01*
X144666666Y-85264342D02*
X144666666Y-85026247D01*
X144666666Y-85026247D02*
X144619047Y-84931009D01*
X144619047Y-84931009D02*
X144571428Y-84883390D01*
X144571428Y-84883390D02*
X144476190Y-84835771D01*
X144476190Y-84835771D02*
X144285714Y-84835771D01*
X144285714Y-84835771D02*
X144190476Y-84883390D01*
X144190476Y-84883390D02*
X144142857Y-84931009D01*
X144142857Y-84931009D02*
X144095238Y-85026247D01*
X140833333Y-69454819D02*
X140500000Y-68978628D01*
X140261905Y-69454819D02*
X140261905Y-68454819D01*
X140261905Y-68454819D02*
X140642857Y-68454819D01*
X140642857Y-68454819D02*
X140738095Y-68502438D01*
X140738095Y-68502438D02*
X140785714Y-68550057D01*
X140785714Y-68550057D02*
X140833333Y-68645295D01*
X140833333Y-68645295D02*
X140833333Y-68788152D01*
X140833333Y-68788152D02*
X140785714Y-68883390D01*
X140785714Y-68883390D02*
X140738095Y-68931009D01*
X140738095Y-68931009D02*
X140642857Y-68978628D01*
X140642857Y-68978628D02*
X140261905Y-68978628D01*
X141404762Y-68883390D02*
X141309524Y-68835771D01*
X141309524Y-68835771D02*
X141261905Y-68788152D01*
X141261905Y-68788152D02*
X141214286Y-68692914D01*
X141214286Y-68692914D02*
X141214286Y-68645295D01*
X141214286Y-68645295D02*
X141261905Y-68550057D01*
X141261905Y-68550057D02*
X141309524Y-68502438D01*
X141309524Y-68502438D02*
X141404762Y-68454819D01*
X141404762Y-68454819D02*
X141595238Y-68454819D01*
X141595238Y-68454819D02*
X141690476Y-68502438D01*
X141690476Y-68502438D02*
X141738095Y-68550057D01*
X141738095Y-68550057D02*
X141785714Y-68645295D01*
X141785714Y-68645295D02*
X141785714Y-68692914D01*
X141785714Y-68692914D02*
X141738095Y-68788152D01*
X141738095Y-68788152D02*
X141690476Y-68835771D01*
X141690476Y-68835771D02*
X141595238Y-68883390D01*
X141595238Y-68883390D02*
X141404762Y-68883390D01*
X141404762Y-68883390D02*
X141309524Y-68931009D01*
X141309524Y-68931009D02*
X141261905Y-68978628D01*
X141261905Y-68978628D02*
X141214286Y-69073866D01*
X141214286Y-69073866D02*
X141214286Y-69264342D01*
X141214286Y-69264342D02*
X141261905Y-69359580D01*
X141261905Y-69359580D02*
X141309524Y-69407200D01*
X141309524Y-69407200D02*
X141404762Y-69454819D01*
X141404762Y-69454819D02*
X141595238Y-69454819D01*
X141595238Y-69454819D02*
X141690476Y-69407200D01*
X141690476Y-69407200D02*
X141738095Y-69359580D01*
X141738095Y-69359580D02*
X141785714Y-69264342D01*
X141785714Y-69264342D02*
X141785714Y-69073866D01*
X141785714Y-69073866D02*
X141738095Y-68978628D01*
X141738095Y-68978628D02*
X141690476Y-68931009D01*
X141690476Y-68931009D02*
X141595238Y-68883390D01*
X175238095Y-69954819D02*
X175238095Y-70764342D01*
X175238095Y-70764342D02*
X175285714Y-70859580D01*
X175285714Y-70859580D02*
X175333333Y-70907200D01*
X175333333Y-70907200D02*
X175428571Y-70954819D01*
X175428571Y-70954819D02*
X175619047Y-70954819D01*
X175619047Y-70954819D02*
X175714285Y-70907200D01*
X175714285Y-70907200D02*
X175761904Y-70859580D01*
X175761904Y-70859580D02*
X175809523Y-70764342D01*
X175809523Y-70764342D02*
X175809523Y-69954819D01*
X176761904Y-69954819D02*
X176285714Y-69954819D01*
X176285714Y-69954819D02*
X176238095Y-70431009D01*
X176238095Y-70431009D02*
X176285714Y-70383390D01*
X176285714Y-70383390D02*
X176380952Y-70335771D01*
X176380952Y-70335771D02*
X176619047Y-70335771D01*
X176619047Y-70335771D02*
X176714285Y-70383390D01*
X176714285Y-70383390D02*
X176761904Y-70431009D01*
X176761904Y-70431009D02*
X176809523Y-70526247D01*
X176809523Y-70526247D02*
X176809523Y-70764342D01*
X176809523Y-70764342D02*
X176761904Y-70859580D01*
X176761904Y-70859580D02*
X176714285Y-70907200D01*
X176714285Y-70907200D02*
X176619047Y-70954819D01*
X176619047Y-70954819D02*
X176380952Y-70954819D01*
X176380952Y-70954819D02*
X176285714Y-70907200D01*
X176285714Y-70907200D02*
X176238095Y-70859580D01*
X136903333Y-71454819D02*
X136570000Y-70978628D01*
X136331905Y-71454819D02*
X136331905Y-70454819D01*
X136331905Y-70454819D02*
X136712857Y-70454819D01*
X136712857Y-70454819D02*
X136808095Y-70502438D01*
X136808095Y-70502438D02*
X136855714Y-70550057D01*
X136855714Y-70550057D02*
X136903333Y-70645295D01*
X136903333Y-70645295D02*
X136903333Y-70788152D01*
X136903333Y-70788152D02*
X136855714Y-70883390D01*
X136855714Y-70883390D02*
X136808095Y-70931009D01*
X136808095Y-70931009D02*
X136712857Y-70978628D01*
X136712857Y-70978628D02*
X136331905Y-70978628D01*
X137760476Y-70788152D02*
X137760476Y-71454819D01*
X137522381Y-70407200D02*
X137284286Y-71121485D01*
X137284286Y-71121485D02*
X137903333Y-71121485D01*
X191666666Y-124954819D02*
X191666666Y-125669104D01*
X191666666Y-125669104D02*
X191619047Y-125811961D01*
X191619047Y-125811961D02*
X191523809Y-125907200D01*
X191523809Y-125907200D02*
X191380952Y-125954819D01*
X191380952Y-125954819D02*
X191285714Y-125954819D01*
X192047619Y-124954819D02*
X192714285Y-124954819D01*
X192714285Y-124954819D02*
X192285714Y-125954819D01*
X113388095Y-83454819D02*
X113388095Y-84264342D01*
X113388095Y-84264342D02*
X113435714Y-84359580D01*
X113435714Y-84359580D02*
X113483333Y-84407200D01*
X113483333Y-84407200D02*
X113578571Y-84454819D01*
X113578571Y-84454819D02*
X113769047Y-84454819D01*
X113769047Y-84454819D02*
X113864285Y-84407200D01*
X113864285Y-84407200D02*
X113911904Y-84359580D01*
X113911904Y-84359580D02*
X113959523Y-84264342D01*
X113959523Y-84264342D02*
X113959523Y-83454819D01*
X114959523Y-84454819D02*
X114388095Y-84454819D01*
X114673809Y-84454819D02*
X114673809Y-83454819D01*
X114673809Y-83454819D02*
X114578571Y-83597676D01*
X114578571Y-83597676D02*
X114483333Y-83692914D01*
X114483333Y-83692914D02*
X114388095Y-83740533D01*
X179833333Y-65859580D02*
X179785714Y-65907200D01*
X179785714Y-65907200D02*
X179642857Y-65954819D01*
X179642857Y-65954819D02*
X179547619Y-65954819D01*
X179547619Y-65954819D02*
X179404762Y-65907200D01*
X179404762Y-65907200D02*
X179309524Y-65811961D01*
X179309524Y-65811961D02*
X179261905Y-65716723D01*
X179261905Y-65716723D02*
X179214286Y-65526247D01*
X179214286Y-65526247D02*
X179214286Y-65383390D01*
X179214286Y-65383390D02*
X179261905Y-65192914D01*
X179261905Y-65192914D02*
X179309524Y-65097676D01*
X179309524Y-65097676D02*
X179404762Y-65002438D01*
X179404762Y-65002438D02*
X179547619Y-64954819D01*
X179547619Y-64954819D02*
X179642857Y-64954819D01*
X179642857Y-64954819D02*
X179785714Y-65002438D01*
X179785714Y-65002438D02*
X179833333Y-65050057D01*
X180738095Y-64954819D02*
X180261905Y-64954819D01*
X180261905Y-64954819D02*
X180214286Y-65431009D01*
X180214286Y-65431009D02*
X180261905Y-65383390D01*
X180261905Y-65383390D02*
X180357143Y-65335771D01*
X180357143Y-65335771D02*
X180595238Y-65335771D01*
X180595238Y-65335771D02*
X180690476Y-65383390D01*
X180690476Y-65383390D02*
X180738095Y-65431009D01*
X180738095Y-65431009D02*
X180785714Y-65526247D01*
X180785714Y-65526247D02*
X180785714Y-65764342D01*
X180785714Y-65764342D02*
X180738095Y-65859580D01*
X180738095Y-65859580D02*
X180690476Y-65907200D01*
X180690476Y-65907200D02*
X180595238Y-65954819D01*
X180595238Y-65954819D02*
X180357143Y-65954819D01*
X180357143Y-65954819D02*
X180261905Y-65907200D01*
X180261905Y-65907200D02*
X180214286Y-65859580D01*
X142357142Y-78454819D02*
X142023809Y-77978628D01*
X141785714Y-78454819D02*
X141785714Y-77454819D01*
X141785714Y-77454819D02*
X142166666Y-77454819D01*
X142166666Y-77454819D02*
X142261904Y-77502438D01*
X142261904Y-77502438D02*
X142309523Y-77550057D01*
X142309523Y-77550057D02*
X142357142Y-77645295D01*
X142357142Y-77645295D02*
X142357142Y-77788152D01*
X142357142Y-77788152D02*
X142309523Y-77883390D01*
X142309523Y-77883390D02*
X142261904Y-77931009D01*
X142261904Y-77931009D02*
X142166666Y-77978628D01*
X142166666Y-77978628D02*
X141785714Y-77978628D01*
X143309523Y-78454819D02*
X142738095Y-78454819D01*
X143023809Y-78454819D02*
X143023809Y-77454819D01*
X143023809Y-77454819D02*
X142928571Y-77597676D01*
X142928571Y-77597676D02*
X142833333Y-77692914D01*
X142833333Y-77692914D02*
X142738095Y-77740533D01*
X143928571Y-77454819D02*
X144023809Y-77454819D01*
X144023809Y-77454819D02*
X144119047Y-77502438D01*
X144119047Y-77502438D02*
X144166666Y-77550057D01*
X144166666Y-77550057D02*
X144214285Y-77645295D01*
X144214285Y-77645295D02*
X144261904Y-77835771D01*
X144261904Y-77835771D02*
X144261904Y-78073866D01*
X144261904Y-78073866D02*
X144214285Y-78264342D01*
X144214285Y-78264342D02*
X144166666Y-78359580D01*
X144166666Y-78359580D02*
X144119047Y-78407200D01*
X144119047Y-78407200D02*
X144023809Y-78454819D01*
X144023809Y-78454819D02*
X143928571Y-78454819D01*
X143928571Y-78454819D02*
X143833333Y-78407200D01*
X143833333Y-78407200D02*
X143785714Y-78359580D01*
X143785714Y-78359580D02*
X143738095Y-78264342D01*
X143738095Y-78264342D02*
X143690476Y-78073866D01*
X143690476Y-78073866D02*
X143690476Y-77835771D01*
X143690476Y-77835771D02*
X143738095Y-77645295D01*
X143738095Y-77645295D02*
X143785714Y-77550057D01*
X143785714Y-77550057D02*
X143833333Y-77502438D01*
X143833333Y-77502438D02*
X143928571Y-77454819D01*
X121411905Y-90454819D02*
X121411905Y-89454819D01*
X121411905Y-89454819D02*
X121650000Y-89454819D01*
X121650000Y-89454819D02*
X121792857Y-89502438D01*
X121792857Y-89502438D02*
X121888095Y-89597676D01*
X121888095Y-89597676D02*
X121935714Y-89692914D01*
X121935714Y-89692914D02*
X121983333Y-89883390D01*
X121983333Y-89883390D02*
X121983333Y-90026247D01*
X121983333Y-90026247D02*
X121935714Y-90216723D01*
X121935714Y-90216723D02*
X121888095Y-90311961D01*
X121888095Y-90311961D02*
X121792857Y-90407200D01*
X121792857Y-90407200D02*
X121650000Y-90454819D01*
X121650000Y-90454819D02*
X121411905Y-90454819D01*
X122935714Y-90454819D02*
X122364286Y-90454819D01*
X122650000Y-90454819D02*
X122650000Y-89454819D01*
X122650000Y-89454819D02*
X122554762Y-89597676D01*
X122554762Y-89597676D02*
X122459524Y-89692914D01*
X122459524Y-89692914D02*
X122364286Y-89740533D01*
X173590476Y-97284819D02*
X173590476Y-96284819D01*
X173590476Y-96284819D02*
X173923809Y-96999104D01*
X173923809Y-96999104D02*
X174257142Y-96284819D01*
X174257142Y-96284819D02*
X174257142Y-97284819D01*
X174876190Y-97284819D02*
X174780952Y-97237200D01*
X174780952Y-97237200D02*
X174733333Y-97189580D01*
X174733333Y-97189580D02*
X174685714Y-97094342D01*
X174685714Y-97094342D02*
X174685714Y-96808628D01*
X174685714Y-96808628D02*
X174733333Y-96713390D01*
X174733333Y-96713390D02*
X174780952Y-96665771D01*
X174780952Y-96665771D02*
X174876190Y-96618152D01*
X174876190Y-96618152D02*
X175019047Y-96618152D01*
X175019047Y-96618152D02*
X175114285Y-96665771D01*
X175114285Y-96665771D02*
X175161904Y-96713390D01*
X175161904Y-96713390D02*
X175209523Y-96808628D01*
X175209523Y-96808628D02*
X175209523Y-97094342D01*
X175209523Y-97094342D02*
X175161904Y-97189580D01*
X175161904Y-97189580D02*
X175114285Y-97237200D01*
X175114285Y-97237200D02*
X175019047Y-97284819D01*
X175019047Y-97284819D02*
X174876190Y-97284819D01*
X175495238Y-96618152D02*
X175876190Y-96618152D01*
X175638095Y-96284819D02*
X175638095Y-97141961D01*
X175638095Y-97141961D02*
X175685714Y-97237200D01*
X175685714Y-97237200D02*
X175780952Y-97284819D01*
X175780952Y-97284819D02*
X175876190Y-97284819D01*
X176352381Y-97284819D02*
X176257143Y-97237200D01*
X176257143Y-97237200D02*
X176209524Y-97189580D01*
X176209524Y-97189580D02*
X176161905Y-97094342D01*
X176161905Y-97094342D02*
X176161905Y-96808628D01*
X176161905Y-96808628D02*
X176209524Y-96713390D01*
X176209524Y-96713390D02*
X176257143Y-96665771D01*
X176257143Y-96665771D02*
X176352381Y-96618152D01*
X176352381Y-96618152D02*
X176495238Y-96618152D01*
X176495238Y-96618152D02*
X176590476Y-96665771D01*
X176590476Y-96665771D02*
X176638095Y-96713390D01*
X176638095Y-96713390D02*
X176685714Y-96808628D01*
X176685714Y-96808628D02*
X176685714Y-97094342D01*
X176685714Y-97094342D02*
X176638095Y-97189580D01*
X176638095Y-97189580D02*
X176590476Y-97237200D01*
X176590476Y-97237200D02*
X176495238Y-97284819D01*
X176495238Y-97284819D02*
X176352381Y-97284819D01*
X177114286Y-97284819D02*
X177114286Y-96618152D01*
X177114286Y-96808628D02*
X177161905Y-96713390D01*
X177161905Y-96713390D02*
X177209524Y-96665771D01*
X177209524Y-96665771D02*
X177304762Y-96618152D01*
X177304762Y-96618152D02*
X177400000Y-96618152D01*
X178257143Y-97284819D02*
X177685715Y-97284819D01*
X177971429Y-97284819D02*
X177971429Y-96284819D01*
X177971429Y-96284819D02*
X177876191Y-96427676D01*
X177876191Y-96427676D02*
X177780953Y-96522914D01*
X177780953Y-96522914D02*
X177685715Y-96570533D01*
X127833333Y-82359580D02*
X127785714Y-82407200D01*
X127785714Y-82407200D02*
X127642857Y-82454819D01*
X127642857Y-82454819D02*
X127547619Y-82454819D01*
X127547619Y-82454819D02*
X127404762Y-82407200D01*
X127404762Y-82407200D02*
X127309524Y-82311961D01*
X127309524Y-82311961D02*
X127261905Y-82216723D01*
X127261905Y-82216723D02*
X127214286Y-82026247D01*
X127214286Y-82026247D02*
X127214286Y-81883390D01*
X127214286Y-81883390D02*
X127261905Y-81692914D01*
X127261905Y-81692914D02*
X127309524Y-81597676D01*
X127309524Y-81597676D02*
X127404762Y-81502438D01*
X127404762Y-81502438D02*
X127547619Y-81454819D01*
X127547619Y-81454819D02*
X127642857Y-81454819D01*
X127642857Y-81454819D02*
X127785714Y-81502438D01*
X127785714Y-81502438D02*
X127833333Y-81550057D01*
X128690476Y-81788152D02*
X128690476Y-82454819D01*
X128452381Y-81407200D02*
X128214286Y-82121485D01*
X128214286Y-82121485D02*
X128833333Y-82121485D01*
D13*
X154249999Y-64409800D02*
X154392856Y-64457419D01*
X154392856Y-64457419D02*
X154630951Y-64457419D01*
X154630951Y-64457419D02*
X154726189Y-64409800D01*
X154726189Y-64409800D02*
X154773808Y-64362180D01*
X154773808Y-64362180D02*
X154821427Y-64266942D01*
X154821427Y-64266942D02*
X154821427Y-64171704D01*
X154821427Y-64171704D02*
X154773808Y-64076466D01*
X154773808Y-64076466D02*
X154726189Y-64028847D01*
X154726189Y-64028847D02*
X154630951Y-63981228D01*
X154630951Y-63981228D02*
X154440475Y-63933609D01*
X154440475Y-63933609D02*
X154345237Y-63885990D01*
X154345237Y-63885990D02*
X154297618Y-63838371D01*
X154297618Y-63838371D02*
X154249999Y-63743133D01*
X154249999Y-63743133D02*
X154249999Y-63647895D01*
X154249999Y-63647895D02*
X154297618Y-63552657D01*
X154297618Y-63552657D02*
X154345237Y-63505038D01*
X154345237Y-63505038D02*
X154440475Y-63457419D01*
X154440475Y-63457419D02*
X154678570Y-63457419D01*
X154678570Y-63457419D02*
X154821427Y-63505038D01*
X155107142Y-63457419D02*
X155678570Y-63457419D01*
X155392856Y-64457419D02*
X155392856Y-63457419D01*
X156011904Y-64457419D02*
X156011904Y-63457419D01*
X156011904Y-63457419D02*
X156345237Y-64171704D01*
X156345237Y-64171704D02*
X156678570Y-63457419D01*
X156678570Y-63457419D02*
X156678570Y-64457419D01*
X157488094Y-63933609D02*
X157154761Y-63933609D01*
X157154761Y-64457419D02*
X157154761Y-63457419D01*
X157154761Y-63457419D02*
X157630951Y-63457419D01*
X158392856Y-64409800D02*
X158297618Y-64457419D01*
X158297618Y-64457419D02*
X158107142Y-64457419D01*
X158107142Y-64457419D02*
X158011904Y-64409800D01*
X158011904Y-64409800D02*
X157964285Y-64314561D01*
X157964285Y-64314561D02*
X157964285Y-63933609D01*
X157964285Y-63933609D02*
X158011904Y-63838371D01*
X158011904Y-63838371D02*
X158107142Y-63790752D01*
X158107142Y-63790752D02*
X158297618Y-63790752D01*
X158297618Y-63790752D02*
X158392856Y-63838371D01*
X158392856Y-63838371D02*
X158440475Y-63933609D01*
X158440475Y-63933609D02*
X158440475Y-64028847D01*
X158440475Y-64028847D02*
X157964285Y-64124085D01*
X159297618Y-64457419D02*
X159297618Y-63933609D01*
X159297618Y-63933609D02*
X159249999Y-63838371D01*
X159249999Y-63838371D02*
X159154761Y-63790752D01*
X159154761Y-63790752D02*
X158964285Y-63790752D01*
X158964285Y-63790752D02*
X158869047Y-63838371D01*
X159297618Y-64409800D02*
X159202380Y-64457419D01*
X159202380Y-64457419D02*
X158964285Y-64457419D01*
X158964285Y-64457419D02*
X158869047Y-64409800D01*
X158869047Y-64409800D02*
X158821428Y-64314561D01*
X158821428Y-64314561D02*
X158821428Y-64219323D01*
X158821428Y-64219323D02*
X158869047Y-64124085D01*
X158869047Y-64124085D02*
X158964285Y-64076466D01*
X158964285Y-64076466D02*
X159202380Y-64076466D01*
X159202380Y-64076466D02*
X159297618Y-64028847D01*
X159630952Y-63790752D02*
X160011904Y-63790752D01*
X159773809Y-63457419D02*
X159773809Y-64314561D01*
X159773809Y-64314561D02*
X159821428Y-64409800D01*
X159821428Y-64409800D02*
X159916666Y-64457419D01*
X159916666Y-64457419D02*
X160011904Y-64457419D01*
X160345238Y-64457419D02*
X160345238Y-63457419D01*
X160773809Y-64457419D02*
X160773809Y-63933609D01*
X160773809Y-63933609D02*
X160726190Y-63838371D01*
X160726190Y-63838371D02*
X160630952Y-63790752D01*
X160630952Y-63790752D02*
X160488095Y-63790752D01*
X160488095Y-63790752D02*
X160392857Y-63838371D01*
X160392857Y-63838371D02*
X160345238Y-63885990D01*
X161630952Y-64409800D02*
X161535714Y-64457419D01*
X161535714Y-64457419D02*
X161345238Y-64457419D01*
X161345238Y-64457419D02*
X161250000Y-64409800D01*
X161250000Y-64409800D02*
X161202381Y-64314561D01*
X161202381Y-64314561D02*
X161202381Y-63933609D01*
X161202381Y-63933609D02*
X161250000Y-63838371D01*
X161250000Y-63838371D02*
X161345238Y-63790752D01*
X161345238Y-63790752D02*
X161535714Y-63790752D01*
X161535714Y-63790752D02*
X161630952Y-63838371D01*
X161630952Y-63838371D02*
X161678571Y-63933609D01*
X161678571Y-63933609D02*
X161678571Y-64028847D01*
X161678571Y-64028847D02*
X161202381Y-64124085D01*
X162107143Y-64457419D02*
X162107143Y-63790752D01*
X162107143Y-63981228D02*
X162154762Y-63885990D01*
X162154762Y-63885990D02*
X162202381Y-63838371D01*
X162202381Y-63838371D02*
X162297619Y-63790752D01*
X162297619Y-63790752D02*
X162392857Y-63790752D01*
X163250000Y-64457419D02*
X162678572Y-64457419D01*
X162964286Y-64457419D02*
X162964286Y-63457419D01*
X162964286Y-63457419D02*
X162869048Y-63600276D01*
X162869048Y-63600276D02*
X162773810Y-63695514D01*
X162773810Y-63695514D02*
X162678572Y-63743133D01*
D11*
X114048237Y-96906396D02*
X114248557Y-96973170D01*
X114248557Y-96973170D02*
X114315331Y-97039943D01*
X114315331Y-97039943D02*
X114382104Y-97173490D01*
X114382104Y-97173490D02*
X114382104Y-97373811D01*
X114382104Y-97373811D02*
X114315331Y-97507358D01*
X114315331Y-97507358D02*
X114248557Y-97574132D01*
X114248557Y-97574132D02*
X114115010Y-97640905D01*
X114115010Y-97640905D02*
X113580822Y-97640905D01*
X113580822Y-97640905D02*
X113580822Y-96238661D01*
X113580822Y-96238661D02*
X114048237Y-96238661D01*
X114048237Y-96238661D02*
X114181784Y-96305435D01*
X114181784Y-96305435D02*
X114248557Y-96372208D01*
X114248557Y-96372208D02*
X114315331Y-96505755D01*
X114315331Y-96505755D02*
X114315331Y-96639302D01*
X114315331Y-96639302D02*
X114248557Y-96772849D01*
X114248557Y-96772849D02*
X114181784Y-96839623D01*
X114181784Y-96839623D02*
X114048237Y-96906396D01*
X114048237Y-96906396D02*
X113580822Y-96906396D01*
X114782746Y-96238661D02*
X115584028Y-96238661D01*
X115183387Y-97640905D02*
X115183387Y-96238661D01*
X116785951Y-97640905D02*
X115984669Y-97640905D01*
X116385310Y-97640905D02*
X116385310Y-96238661D01*
X116385310Y-96238661D02*
X116251763Y-96438982D01*
X116251763Y-96438982D02*
X116118216Y-96572529D01*
X116118216Y-96572529D02*
X115984669Y-96639302D01*
X112256639Y-97533825D02*
X112256639Y-96466175D01*
X112790464Y-97000000D02*
X111722813Y-97000000D01*
X166238095Y-119454819D02*
X166238095Y-120264342D01*
X166238095Y-120264342D02*
X166285714Y-120359580D01*
X166285714Y-120359580D02*
X166333333Y-120407200D01*
X166333333Y-120407200D02*
X166428571Y-120454819D01*
X166428571Y-120454819D02*
X166619047Y-120454819D01*
X166619047Y-120454819D02*
X166714285Y-120407200D01*
X166714285Y-120407200D02*
X166761904Y-120359580D01*
X166761904Y-120359580D02*
X166809523Y-120264342D01*
X166809523Y-120264342D02*
X166809523Y-119454819D01*
X167238095Y-119550057D02*
X167285714Y-119502438D01*
X167285714Y-119502438D02*
X167380952Y-119454819D01*
X167380952Y-119454819D02*
X167619047Y-119454819D01*
X167619047Y-119454819D02*
X167714285Y-119502438D01*
X167714285Y-119502438D02*
X167761904Y-119550057D01*
X167761904Y-119550057D02*
X167809523Y-119645295D01*
X167809523Y-119645295D02*
X167809523Y-119740533D01*
X167809523Y-119740533D02*
X167761904Y-119883390D01*
X167761904Y-119883390D02*
X167190476Y-120454819D01*
X167190476Y-120454819D02*
X167809523Y-120454819D01*
X178444761Y-105280057D02*
X178349523Y-105232438D01*
X178349523Y-105232438D02*
X178254285Y-105137200D01*
X178254285Y-105137200D02*
X178111428Y-104994342D01*
X178111428Y-104994342D02*
X178016190Y-104946723D01*
X178016190Y-104946723D02*
X177920952Y-104946723D01*
X177968571Y-105184819D02*
X177873333Y-105137200D01*
X177873333Y-105137200D02*
X177778095Y-105041961D01*
X177778095Y-105041961D02*
X177730476Y-104851485D01*
X177730476Y-104851485D02*
X177730476Y-104518152D01*
X177730476Y-104518152D02*
X177778095Y-104327676D01*
X177778095Y-104327676D02*
X177873333Y-104232438D01*
X177873333Y-104232438D02*
X177968571Y-104184819D01*
X177968571Y-104184819D02*
X178159047Y-104184819D01*
X178159047Y-104184819D02*
X178254285Y-104232438D01*
X178254285Y-104232438D02*
X178349523Y-104327676D01*
X178349523Y-104327676D02*
X178397142Y-104518152D01*
X178397142Y-104518152D02*
X178397142Y-104851485D01*
X178397142Y-104851485D02*
X178349523Y-105041961D01*
X178349523Y-105041961D02*
X178254285Y-105137200D01*
X178254285Y-105137200D02*
X178159047Y-105184819D01*
X178159047Y-105184819D02*
X177968571Y-105184819D01*
X179349523Y-105184819D02*
X178778095Y-105184819D01*
X179063809Y-105184819D02*
X179063809Y-104184819D01*
X179063809Y-104184819D02*
X178968571Y-104327676D01*
X178968571Y-104327676D02*
X178873333Y-104422914D01*
X178873333Y-104422914D02*
X178778095Y-104470533D01*
X178366666Y-117884819D02*
X178366666Y-118599104D01*
X178366666Y-118599104D02*
X178319047Y-118741961D01*
X178319047Y-118741961D02*
X178223809Y-118837200D01*
X178223809Y-118837200D02*
X178080952Y-118884819D01*
X178080952Y-118884819D02*
X177985714Y-118884819D01*
X179271428Y-118218152D02*
X179271428Y-118884819D01*
X179033333Y-117837200D02*
X178795238Y-118551485D01*
X178795238Y-118551485D02*
X179414285Y-118551485D01*
X192404761Y-111550057D02*
X192309523Y-111502438D01*
X192309523Y-111502438D02*
X192214285Y-111407200D01*
X192214285Y-111407200D02*
X192071428Y-111264342D01*
X192071428Y-111264342D02*
X191976190Y-111216723D01*
X191976190Y-111216723D02*
X191880952Y-111216723D01*
X191928571Y-111454819D02*
X191833333Y-111407200D01*
X191833333Y-111407200D02*
X191738095Y-111311961D01*
X191738095Y-111311961D02*
X191690476Y-111121485D01*
X191690476Y-111121485D02*
X191690476Y-110788152D01*
X191690476Y-110788152D02*
X191738095Y-110597676D01*
X191738095Y-110597676D02*
X191833333Y-110502438D01*
X191833333Y-110502438D02*
X191928571Y-110454819D01*
X191928571Y-110454819D02*
X192119047Y-110454819D01*
X192119047Y-110454819D02*
X192214285Y-110502438D01*
X192214285Y-110502438D02*
X192309523Y-110597676D01*
X192309523Y-110597676D02*
X192357142Y-110788152D01*
X192357142Y-110788152D02*
X192357142Y-111121485D01*
X192357142Y-111121485D02*
X192309523Y-111311961D01*
X192309523Y-111311961D02*
X192214285Y-111407200D01*
X192214285Y-111407200D02*
X192119047Y-111454819D01*
X192119047Y-111454819D02*
X191928571Y-111454819D01*
X192690476Y-110454819D02*
X193309523Y-110454819D01*
X193309523Y-110454819D02*
X192976190Y-110835771D01*
X192976190Y-110835771D02*
X193119047Y-110835771D01*
X193119047Y-110835771D02*
X193214285Y-110883390D01*
X193214285Y-110883390D02*
X193261904Y-110931009D01*
X193261904Y-110931009D02*
X193309523Y-111026247D01*
X193309523Y-111026247D02*
X193309523Y-111264342D01*
X193309523Y-111264342D02*
X193261904Y-111359580D01*
X193261904Y-111359580D02*
X193214285Y-111407200D01*
X193214285Y-111407200D02*
X193119047Y-111454819D01*
X193119047Y-111454819D02*
X192833333Y-111454819D01*
X192833333Y-111454819D02*
X192738095Y-111407200D01*
X192738095Y-111407200D02*
X192690476Y-111359580D01*
X136666666Y-118354819D02*
X136666666Y-119069104D01*
X136666666Y-119069104D02*
X136619047Y-119211961D01*
X136619047Y-119211961D02*
X136523809Y-119307200D01*
X136523809Y-119307200D02*
X136380952Y-119354819D01*
X136380952Y-119354819D02*
X136285714Y-119354819D01*
X137047619Y-118354819D02*
X137666666Y-118354819D01*
X137666666Y-118354819D02*
X137333333Y-118735771D01*
X137333333Y-118735771D02*
X137476190Y-118735771D01*
X137476190Y-118735771D02*
X137571428Y-118783390D01*
X137571428Y-118783390D02*
X137619047Y-118831009D01*
X137619047Y-118831009D02*
X137666666Y-118926247D01*
X137666666Y-118926247D02*
X137666666Y-119164342D01*
X137666666Y-119164342D02*
X137619047Y-119259580D01*
X137619047Y-119259580D02*
X137571428Y-119307200D01*
X137571428Y-119307200D02*
X137476190Y-119354819D01*
X137476190Y-119354819D02*
X137190476Y-119354819D01*
X137190476Y-119354819D02*
X137095238Y-119307200D01*
X137095238Y-119307200D02*
X137047619Y-119259580D01*
X133833333Y-74454819D02*
X133500000Y-73978628D01*
X133261905Y-74454819D02*
X133261905Y-73454819D01*
X133261905Y-73454819D02*
X133642857Y-73454819D01*
X133642857Y-73454819D02*
X133738095Y-73502438D01*
X133738095Y-73502438D02*
X133785714Y-73550057D01*
X133785714Y-73550057D02*
X133833333Y-73645295D01*
X133833333Y-73645295D02*
X133833333Y-73788152D01*
X133833333Y-73788152D02*
X133785714Y-73883390D01*
X133785714Y-73883390D02*
X133738095Y-73931009D01*
X133738095Y-73931009D02*
X133642857Y-73978628D01*
X133642857Y-73978628D02*
X133261905Y-73978628D01*
X134738095Y-73454819D02*
X134261905Y-73454819D01*
X134261905Y-73454819D02*
X134214286Y-73931009D01*
X134214286Y-73931009D02*
X134261905Y-73883390D01*
X134261905Y-73883390D02*
X134357143Y-73835771D01*
X134357143Y-73835771D02*
X134595238Y-73835771D01*
X134595238Y-73835771D02*
X134690476Y-73883390D01*
X134690476Y-73883390D02*
X134738095Y-73931009D01*
X134738095Y-73931009D02*
X134785714Y-74026247D01*
X134785714Y-74026247D02*
X134785714Y-74264342D01*
X134785714Y-74264342D02*
X134738095Y-74359580D01*
X134738095Y-74359580D02*
X134690476Y-74407200D01*
X134690476Y-74407200D02*
X134595238Y-74454819D01*
X134595238Y-74454819D02*
X134357143Y-74454819D01*
X134357143Y-74454819D02*
X134261905Y-74407200D01*
X134261905Y-74407200D02*
X134214286Y-74359580D01*
X192404761Y-102050057D02*
X192309523Y-102002438D01*
X192309523Y-102002438D02*
X192214285Y-101907200D01*
X192214285Y-101907200D02*
X192071428Y-101764342D01*
X192071428Y-101764342D02*
X191976190Y-101716723D01*
X191976190Y-101716723D02*
X191880952Y-101716723D01*
X191928571Y-101954819D02*
X191833333Y-101907200D01*
X191833333Y-101907200D02*
X191738095Y-101811961D01*
X191738095Y-101811961D02*
X191690476Y-101621485D01*
X191690476Y-101621485D02*
X191690476Y-101288152D01*
X191690476Y-101288152D02*
X191738095Y-101097676D01*
X191738095Y-101097676D02*
X191833333Y-101002438D01*
X191833333Y-101002438D02*
X191928571Y-100954819D01*
X191928571Y-100954819D02*
X192119047Y-100954819D01*
X192119047Y-100954819D02*
X192214285Y-101002438D01*
X192214285Y-101002438D02*
X192309523Y-101097676D01*
X192309523Y-101097676D02*
X192357142Y-101288152D01*
X192357142Y-101288152D02*
X192357142Y-101621485D01*
X192357142Y-101621485D02*
X192309523Y-101811961D01*
X192309523Y-101811961D02*
X192214285Y-101907200D01*
X192214285Y-101907200D02*
X192119047Y-101954819D01*
X192119047Y-101954819D02*
X191928571Y-101954819D01*
X193214285Y-101288152D02*
X193214285Y-101954819D01*
X192976190Y-100907200D02*
X192738095Y-101621485D01*
X192738095Y-101621485D02*
X193357142Y-101621485D01*
X172833333Y-71859580D02*
X172785714Y-71907200D01*
X172785714Y-71907200D02*
X172642857Y-71954819D01*
X172642857Y-71954819D02*
X172547619Y-71954819D01*
X172547619Y-71954819D02*
X172404762Y-71907200D01*
X172404762Y-71907200D02*
X172309524Y-71811961D01*
X172309524Y-71811961D02*
X172261905Y-71716723D01*
X172261905Y-71716723D02*
X172214286Y-71526247D01*
X172214286Y-71526247D02*
X172214286Y-71383390D01*
X172214286Y-71383390D02*
X172261905Y-71192914D01*
X172261905Y-71192914D02*
X172309524Y-71097676D01*
X172309524Y-71097676D02*
X172404762Y-71002438D01*
X172404762Y-71002438D02*
X172547619Y-70954819D01*
X172547619Y-70954819D02*
X172642857Y-70954819D01*
X172642857Y-70954819D02*
X172785714Y-71002438D01*
X172785714Y-71002438D02*
X172833333Y-71050057D01*
X173404762Y-71383390D02*
X173309524Y-71335771D01*
X173309524Y-71335771D02*
X173261905Y-71288152D01*
X173261905Y-71288152D02*
X173214286Y-71192914D01*
X173214286Y-71192914D02*
X173214286Y-71145295D01*
X173214286Y-71145295D02*
X173261905Y-71050057D01*
X173261905Y-71050057D02*
X173309524Y-71002438D01*
X173309524Y-71002438D02*
X173404762Y-70954819D01*
X173404762Y-70954819D02*
X173595238Y-70954819D01*
X173595238Y-70954819D02*
X173690476Y-71002438D01*
X173690476Y-71002438D02*
X173738095Y-71050057D01*
X173738095Y-71050057D02*
X173785714Y-71145295D01*
X173785714Y-71145295D02*
X173785714Y-71192914D01*
X173785714Y-71192914D02*
X173738095Y-71288152D01*
X173738095Y-71288152D02*
X173690476Y-71335771D01*
X173690476Y-71335771D02*
X173595238Y-71383390D01*
X173595238Y-71383390D02*
X173404762Y-71383390D01*
X173404762Y-71383390D02*
X173309524Y-71431009D01*
X173309524Y-71431009D02*
X173261905Y-71478628D01*
X173261905Y-71478628D02*
X173214286Y-71573866D01*
X173214286Y-71573866D02*
X173214286Y-71764342D01*
X173214286Y-71764342D02*
X173261905Y-71859580D01*
X173261905Y-71859580D02*
X173309524Y-71907200D01*
X173309524Y-71907200D02*
X173404762Y-71954819D01*
X173404762Y-71954819D02*
X173595238Y-71954819D01*
X173595238Y-71954819D02*
X173690476Y-71907200D01*
X173690476Y-71907200D02*
X173738095Y-71859580D01*
X173738095Y-71859580D02*
X173785714Y-71764342D01*
X173785714Y-71764342D02*
X173785714Y-71573866D01*
X173785714Y-71573866D02*
X173738095Y-71478628D01*
X173738095Y-71478628D02*
X173690476Y-71431009D01*
X173690476Y-71431009D02*
X173595238Y-71383390D01*
D14*
X175046000Y-74646000D02*
X179354000Y-74646000D01*
X179354000Y-78954000D02*
X175046000Y-78954000D01*
X181270000Y-118595000D02*
X182600000Y-118595000D01*
X181270000Y-119925000D02*
X181270000Y-118595000D01*
X181270000Y-121195000D02*
X181270000Y-123795000D01*
X181270000Y-121195000D02*
X183930000Y-121195000D01*
X181270000Y-123795000D02*
X183930000Y-123795000D01*
X183930000Y-121195000D02*
X183930000Y-123795000D01*
X163845276Y-102677500D02*
X164354724Y-102677500D01*
X163845276Y-103722500D02*
X164354724Y-103722500D01*
X112740000Y-87153733D02*
X112740000Y-87446267D01*
X113760000Y-87153733D02*
X113760000Y-87446267D01*
X118327500Y-93554724D02*
X118327500Y-93045276D01*
X119372500Y-93554724D02*
X119372500Y-93045276D01*
X110540000Y-90353733D02*
X110540000Y-90646267D01*
X111560000Y-90353733D02*
X111560000Y-90646267D01*
X166206676Y-111855802D02*
X166206676Y-116496802D01*
X166206676Y-111855802D02*
X176446676Y-111855802D01*
X166206676Y-113365802D02*
X176446676Y-113365802D01*
X166206676Y-116496802D02*
X176446676Y-116496802D01*
X169476676Y-111855802D02*
X169476676Y-113365802D01*
X173177676Y-111855802D02*
X173177676Y-113365802D01*
X176446676Y-111855802D02*
X176446676Y-116496802D01*
D11*
X101768100Y-63072719D02*
X101768100Y-68001879D01*
X104231900Y-68001879D02*
X104231900Y-63072719D01*
X103076200Y-70519598D02*
G75*
G02*
X102923800Y-70519598I-76200J0D01*
G01*
X102923800Y-70519598D02*
G75*
G02*
X103076200Y-70519598I76200J0D01*
G01*
X185400000Y-75400000D02*
G75*
G02*
X182600000Y-75400000I-1400000J0D01*
G01*
X182600000Y-75400000D02*
G75*
G02*
X185400000Y-75400000I1400000J0D01*
G01*
D14*
X180577500Y-76854724D02*
X180577500Y-76345276D01*
X181622500Y-76854724D02*
X181622500Y-76345276D01*
X146710000Y-74300000D02*
X146710000Y-70700000D01*
X142260000Y-72500000D02*
G75*
G02*
X146698478Y-70661522I2600000J0D01*
G01*
X146698478Y-74338478D02*
G75*
G02*
X142260000Y-72500000I-1838478J1838478D01*
G01*
X143670000Y-103020000D02*
X143670000Y-95340000D01*
X146330000Y-95340000D02*
X143670000Y-95340000D01*
X146330000Y-103020000D02*
X143670000Y-103020000D01*
X146330000Y-103020000D02*
X146330000Y-95340000D01*
X146330000Y-104290000D02*
X146330000Y-105620000D01*
X146330000Y-105620000D02*
X145000000Y-105620000D01*
X101990000Y-90420000D02*
X101990000Y-93080000D01*
X107130000Y-90420000D02*
X101990000Y-90420000D01*
X107130000Y-90420000D02*
X107130000Y-93080000D01*
X107130000Y-93080000D02*
X101990000Y-93080000D01*
X108400000Y-90420000D02*
X109730000Y-90420000D01*
X109730000Y-90420000D02*
X109730000Y-91750000D01*
X181270000Y-112270000D02*
X182600000Y-112270000D01*
X181270000Y-113600000D02*
X181270000Y-112270000D01*
X181270000Y-114870000D02*
X181270000Y-117470000D01*
X181270000Y-114870000D02*
X183930000Y-114870000D01*
X181270000Y-117470000D02*
X183930000Y-117470000D01*
X183930000Y-114870000D02*
X183930000Y-117470000D01*
X178753733Y-68590000D02*
X179046267Y-68590000D01*
X178753733Y-69610000D02*
X179046267Y-69610000D01*
X164045276Y-99177500D02*
X164554724Y-99177500D01*
X164045276Y-100222500D02*
X164554724Y-100222500D01*
X122625000Y-76375000D02*
X123125000Y-76375000D01*
X122625000Y-76875000D02*
X122625000Y-76375000D01*
X122625000Y-81575000D02*
X122625000Y-81075000D01*
X123125000Y-81575000D02*
X122625000Y-81575000D01*
X125425000Y-76375000D02*
X125925000Y-76375000D01*
X125625000Y-81575000D02*
X124875000Y-81575000D01*
X125925000Y-76375000D02*
X125925000Y-76875000D01*
X125825000Y-81935000D02*
X125825000Y-81575000D01*
X126185000Y-81575000D01*
X125825000Y-81935000D01*
G36*
X125825000Y-81935000D02*
G01*
X125825000Y-81575000D01*
X126185000Y-81575000D01*
X125825000Y-81935000D01*
G37*
X139210000Y-81300000D02*
X139210000Y-77700000D01*
X134760000Y-79500000D02*
G75*
G02*
X139198478Y-77661522I2600000J0D01*
G01*
X139198478Y-81338478D02*
G75*
G02*
X134760000Y-79500000I-1838478J1838478D01*
G01*
X194670000Y-121270000D02*
X194670000Y-118670000D01*
X197330000Y-118670000D02*
X194670000Y-118670000D01*
X197330000Y-121270000D02*
X194670000Y-121270000D01*
X197330000Y-121270000D02*
X197330000Y-118670000D01*
X197330000Y-122540000D02*
X197330000Y-123870000D01*
X197330000Y-123870000D02*
X196000000Y-123870000D01*
X181590000Y-72046267D02*
X181590000Y-71753733D01*
X182610000Y-72046267D02*
X182610000Y-71753733D01*
X143670000Y-86340000D02*
X145000000Y-86340000D01*
X143670000Y-87670000D02*
X143670000Y-86340000D01*
X143670000Y-88940000D02*
X143670000Y-94080000D01*
X143670000Y-88940000D02*
X146330000Y-88940000D01*
X143670000Y-94080000D02*
X146330000Y-94080000D01*
X146330000Y-88940000D02*
X146330000Y-94080000D01*
X140477500Y-71754724D02*
X140477500Y-71245276D01*
X141522500Y-71754724D02*
X141522500Y-71245276D01*
X177490000Y-70702500D02*
X177965000Y-70702500D01*
X177490000Y-71177500D02*
X177490000Y-70702500D01*
X177490000Y-73447500D02*
X177490000Y-73622500D01*
X177965000Y-73922500D02*
X177730000Y-73922500D01*
X180710000Y-70702500D02*
X180235000Y-70702500D01*
X180710000Y-71177500D02*
X180710000Y-70702500D01*
X180710000Y-73447500D02*
X180710000Y-73922500D01*
X180710000Y-73922500D02*
X180235000Y-73922500D01*
X177490000Y-73922500D02*
X177160000Y-74162500D01*
X177160000Y-73682500D01*
X177490000Y-73922500D01*
G36*
X177490000Y-73922500D02*
G01*
X177160000Y-74162500D01*
X177160000Y-73682500D01*
X177490000Y-73922500D01*
G37*
X137977500Y-74254724D02*
X137977500Y-73745276D01*
X139022500Y-74254724D02*
X139022500Y-73745276D01*
X190670000Y-121270000D02*
X190670000Y-118670000D01*
X193330000Y-118670000D02*
X190670000Y-118670000D01*
X193330000Y-121270000D02*
X190670000Y-121270000D01*
X193330000Y-121270000D02*
X193330000Y-118670000D01*
X193330000Y-122540000D02*
X193330000Y-123870000D01*
X193330000Y-123870000D02*
X192000000Y-123870000D01*
X101840000Y-77790000D02*
X101990000Y-77790000D01*
X101840000Y-87710000D02*
X101840000Y-77790000D01*
X101840000Y-87710000D02*
X101990000Y-87710000D01*
X112010000Y-77790000D02*
X112160000Y-77790000D01*
X112010000Y-87710000D02*
X112160000Y-87710000D01*
X112160000Y-87710000D02*
X112160000Y-77790000D01*
X101990000Y-88180000D02*
X101660000Y-88420000D01*
X101660000Y-87940000D01*
X101990000Y-88180000D01*
G36*
X101990000Y-88180000D02*
G01*
X101660000Y-88420000D01*
X101660000Y-87940000D01*
X101990000Y-88180000D01*
G37*
X178538748Y-66465000D02*
X179061252Y-66465000D01*
X178538748Y-67935000D02*
X179061252Y-67935000D01*
X139977500Y-78754724D02*
X139977500Y-78245276D01*
X141022500Y-78754724D02*
X141022500Y-78245276D01*
X118150000Y-91510000D02*
X118150000Y-87650000D01*
X118150000Y-91510000D02*
X120150000Y-91510000D01*
X120150000Y-91510000D02*
X120150000Y-87650000D01*
X174570000Y-93230000D02*
X174570000Y-83010000D01*
X177230000Y-83010000D02*
X174570000Y-83010000D01*
X177230000Y-93230000D02*
X174570000Y-93230000D01*
X177230000Y-93230000D02*
X177230000Y-83010000D01*
X177230000Y-94500000D02*
X177230000Y-95830000D01*
X177230000Y-95830000D02*
X175900000Y-95830000D01*
X126440000Y-79746267D02*
X126440000Y-79453733D01*
X127460000Y-79746267D02*
X127460000Y-79453733D01*
D13*
X147410000Y-60160000D02*
X147410000Y-110960000D01*
X147410000Y-110960000D02*
X170270000Y-110960000D01*
X170270000Y-60160000D02*
X147410000Y-60160000D01*
X170270000Y-110960000D02*
X170270000Y-60160000D01*
D15*
X113260001Y-90750000D02*
G75*
G02*
X117300000Y-92560000I1645136J-1741712D01*
G01*
X115117000Y-94910000D02*
G75*
G02*
X114070000Y-94760000I-98151J3043933D01*
G01*
D14*
X153775000Y-112500000D02*
X153775000Y-114310000D01*
X153775000Y-122900000D02*
X153775000Y-121090000D01*
X155275000Y-112500000D02*
X153775000Y-112500000D01*
X155275000Y-122900000D02*
X153775000Y-122900000D01*
X151212500Y-114310000D02*
X150972500Y-113980000D01*
X151452500Y-113980000D01*
X151212500Y-114310000D01*
G36*
X151212500Y-114310000D02*
G01*
X150972500Y-113980000D01*
X151452500Y-113980000D01*
X151212500Y-114310000D01*
G37*
X173420000Y-105730000D02*
X173420000Y-110371000D01*
X173420000Y-105730000D02*
X183660000Y-105730000D01*
X173420000Y-107240000D02*
X183660000Y-107240000D01*
X173420000Y-110371000D02*
X183660000Y-110371000D01*
X176690000Y-105730000D02*
X176690000Y-107240000D01*
X180391000Y-105730000D02*
X180391000Y-107240000D01*
X183660000Y-105730000D02*
X183660000Y-110371000D01*
X177370000Y-114830000D02*
X177370000Y-112230000D01*
X180030000Y-112230000D02*
X177370000Y-112230000D01*
X180030000Y-114830000D02*
X177370000Y-114830000D01*
X180030000Y-114830000D02*
X180030000Y-112230000D01*
X180030000Y-116100000D02*
X180030000Y-117430000D01*
X180030000Y-117430000D02*
X178700000Y-117430000D01*
X186730000Y-107340000D02*
X191371000Y-107340000D01*
X186730000Y-110609000D02*
X188240000Y-110609000D01*
X186730000Y-114310000D02*
X188240000Y-114310000D01*
X186730000Y-117580000D02*
X186730000Y-107340000D01*
X186730000Y-117580000D02*
X191371000Y-117580000D01*
X188240000Y-117580000D02*
X188240000Y-107340000D01*
X191371000Y-117580000D02*
X191371000Y-107340000D01*
X140325000Y-107050000D02*
X141825000Y-107050000D01*
X140325000Y-117450000D02*
X141825000Y-117450000D01*
X141825000Y-107050000D02*
X141825000Y-108860000D01*
X141825000Y-117450000D02*
X141825000Y-115640000D01*
X144627500Y-115970000D02*
X144147500Y-115970000D01*
X144387500Y-115640000D01*
X144627500Y-115970000D01*
G36*
X144627500Y-115970000D02*
G01*
X144147500Y-115970000D01*
X144387500Y-115640000D01*
X144627500Y-115970000D01*
G37*
X135977500Y-73745276D02*
X135977500Y-74254724D01*
X137022500Y-73745276D02*
X137022500Y-74254724D01*
X186629000Y-96420000D02*
X186629000Y-106660000D01*
X189760000Y-96420000D02*
X189760000Y-106660000D01*
X191270000Y-96420000D02*
X186629000Y-96420000D01*
X191270000Y-96420000D02*
X191270000Y-106660000D01*
X191270000Y-99690000D02*
X189760000Y-99690000D01*
X191270000Y-103391000D02*
X189760000Y-103391000D01*
X191270000Y-106660000D02*
X186629000Y-106660000D01*
X175161252Y-72665000D02*
X174638748Y-72665000D01*
X175161252Y-74135000D02*
X174638748Y-74135000D01*
D16*
X175000000Y-55000000D03*
X175000000Y-133000000D03*
X118000000Y-133000000D03*
X118000000Y-55000000D03*
%LPC*%
D17*
X188500721Y-64986092D02*
X188507524Y-64991864D01*
X188507524Y-64991864D02*
X188527270Y-65007484D01*
X188527270Y-65007484D02*
X188541686Y-65018194D01*
X188541686Y-65018194D02*
X188558964Y-65030413D01*
X188558964Y-65030413D02*
X188578980Y-65043824D01*
X188578980Y-65043824D02*
X188601610Y-65058109D01*
X188601610Y-65058109D02*
X188626730Y-65072951D01*
X188626730Y-65072951D02*
X188654214Y-65088032D01*
X188654214Y-65088032D02*
X188668805Y-65095563D01*
X188668805Y-65095563D02*
X188683940Y-65103035D01*
X188683940Y-65103035D02*
X188699604Y-65110407D01*
X188699604Y-65110407D02*
X188715781Y-65117641D01*
X188715781Y-65117641D02*
X188732457Y-65124696D01*
X188732457Y-65124696D02*
X188749615Y-65131533D01*
X188749615Y-65131533D02*
X188767240Y-65138113D01*
X188767240Y-65138113D02*
X188785316Y-65144395D01*
X188785316Y-65144395D02*
X188803829Y-65150339D01*
X188803829Y-65150339D02*
X188822761Y-65155907D01*
X188822761Y-65155907D02*
X188842098Y-65161058D01*
X188842098Y-65161058D02*
X188861824Y-65165752D01*
X188861824Y-65165752D02*
X188861824Y-65165752D01*
X188861824Y-65165752D02*
X188889945Y-65170904D01*
X188889945Y-65170904D02*
X188923706Y-65175253D01*
X188923706Y-65175253D02*
X189005318Y-65182173D01*
X189005318Y-65182173D02*
X189205029Y-65193285D01*
X189205029Y-65193285D02*
X189311777Y-65199983D01*
X189311777Y-65199983D02*
X189415554Y-65209113D01*
X189415554Y-65209113D02*
X189464555Y-65214982D01*
X189464555Y-65214982D02*
X189510685Y-65221930D01*
X189510685Y-65221930D02*
X189553233Y-65230111D01*
X189553233Y-65230111D02*
X189591492Y-65239685D01*
X189591492Y-65239685D02*
X189591492Y-65239685D01*
X189591492Y-65239685D02*
X189613267Y-65246914D01*
X189613267Y-65246914D02*
X189635413Y-65256101D01*
X189635413Y-65256101D02*
X189657861Y-65267100D01*
X189657861Y-65267100D02*
X189680542Y-65279770D01*
X189680542Y-65279770D02*
X189703385Y-65293965D01*
X189703385Y-65293965D02*
X189726321Y-65309544D01*
X189726321Y-65309544D02*
X189772194Y-65344278D01*
X189772194Y-65344278D02*
X189817601Y-65382824D01*
X189817601Y-65382824D02*
X189861987Y-65424035D01*
X189861987Y-65424035D02*
X189904792Y-65466764D01*
X189904792Y-65466764D02*
X189945459Y-65509865D01*
X189945459Y-65509865D02*
X189983430Y-65552190D01*
X189983430Y-65552190D02*
X190018148Y-65592593D01*
X190018148Y-65592593D02*
X190075593Y-65663044D01*
X190075593Y-65663044D02*
X190126903Y-65730415D01*
D18*
X188631478Y-64836126D02*
X188485296Y-65171859D01*
X188186105Y-64941743D01*
X188259209Y-64773875D01*
X188631478Y-64836126D01*
G36*
X188631478Y-64836126D02*
G01*
X188485296Y-65171859D01*
X188186105Y-64941743D01*
X188259209Y-64773875D01*
X188631478Y-64836126D01*
G37*
X186957518Y-63181794D02*
X187011926Y-63186574D01*
X187066333Y-63194051D01*
X187120644Y-63204263D01*
X187174766Y-63217244D01*
X187228604Y-63233030D01*
X187282064Y-63251657D01*
X187335052Y-63273161D01*
X187439981Y-63324845D01*
X187546035Y-63388659D01*
X187651709Y-63463424D01*
X187755499Y-63547957D01*
X187855901Y-63641078D01*
X187951411Y-63741605D01*
X188040525Y-63848357D01*
X188121739Y-63960152D01*
X188193550Y-64075809D01*
X188225458Y-64134717D01*
X188254452Y-64194147D01*
X188280342Y-64253952D01*
X188302942Y-64313984D01*
X188322062Y-64374096D01*
X188337516Y-64434140D01*
X188349114Y-64493967D01*
X188356669Y-64553432D01*
X188359994Y-64612385D01*
X188358899Y-64670680D01*
X188353197Y-64728168D01*
X188342701Y-64784701D01*
X188327221Y-64840134D01*
X188306570Y-64894316D01*
X188280974Y-64946344D01*
X188250940Y-64995438D01*
X188216705Y-65041636D01*
X188178505Y-65084973D01*
X188136576Y-65125487D01*
X188091155Y-65163215D01*
X188042477Y-65198195D01*
X187990779Y-65230462D01*
X187936297Y-65260055D01*
X187879267Y-65287010D01*
X187758507Y-65333154D01*
X187630389Y-65369191D01*
X187496803Y-65395416D01*
X187359637Y-65412127D01*
X187220782Y-65419618D01*
X187082125Y-65418187D01*
X186945557Y-65408129D01*
X186812967Y-65389741D01*
X186686245Y-65363318D01*
X186567278Y-65329157D01*
X186457958Y-65287553D01*
X186380864Y-65250474D01*
X186307828Y-65208312D01*
X186238979Y-65161383D01*
X186174444Y-65110003D01*
X186114351Y-65054484D01*
X186058830Y-64995144D01*
X186008008Y-64932296D01*
X185962012Y-64866255D01*
X185920971Y-64797338D01*
X185885014Y-64725857D01*
X185854268Y-64652129D01*
X185828861Y-64576468D01*
X185808922Y-64499190D01*
X185794578Y-64420609D01*
X185785957Y-64341040D01*
X185783189Y-64260798D01*
X185783588Y-64233956D01*
X185784655Y-64207087D01*
X185786395Y-64180200D01*
X185788812Y-64153310D01*
X185791912Y-64126426D01*
X185795700Y-64099561D01*
X185800180Y-64072726D01*
X185805358Y-64045933D01*
X185811238Y-64019194D01*
X185817826Y-63992520D01*
X185825126Y-63965923D01*
X185833144Y-63939415D01*
X185841883Y-63913007D01*
X185851350Y-63886711D01*
X185861549Y-63860538D01*
X185872486Y-63834501D01*
X185896307Y-63783457D01*
X185922482Y-63734218D01*
X185950917Y-63686817D01*
X185981517Y-63641292D01*
X186014189Y-63597678D01*
X186048837Y-63556010D01*
X186085369Y-63516326D01*
X186123689Y-63478659D01*
X186163704Y-63443047D01*
X186205319Y-63409524D01*
X186248440Y-63378128D01*
X186292973Y-63348892D01*
X186338823Y-63321854D01*
X186385897Y-63297049D01*
X186434101Y-63274512D01*
X186483339Y-63254280D01*
X186533518Y-63236388D01*
X186584544Y-63220872D01*
X186636322Y-63207768D01*
X186688759Y-63197111D01*
X186741760Y-63188938D01*
X186795230Y-63183284D01*
X186849076Y-63180185D01*
X186903204Y-63179676D01*
X186957518Y-63181794D01*
G36*
X186957518Y-63181794D02*
G01*
X187011926Y-63186574D01*
X187066333Y-63194051D01*
X187120644Y-63204263D01*
X187174766Y-63217244D01*
X187228604Y-63233030D01*
X187282064Y-63251657D01*
X187335052Y-63273161D01*
X187439981Y-63324845D01*
X187546035Y-63388659D01*
X187651709Y-63463424D01*
X187755499Y-63547957D01*
X187855901Y-63641078D01*
X187951411Y-63741605D01*
X188040525Y-63848357D01*
X188121739Y-63960152D01*
X188193550Y-64075809D01*
X188225458Y-64134717D01*
X188254452Y-64194147D01*
X188280342Y-64253952D01*
X188302942Y-64313984D01*
X188322062Y-64374096D01*
X188337516Y-64434140D01*
X188349114Y-64493967D01*
X188356669Y-64553432D01*
X188359994Y-64612385D01*
X188358899Y-64670680D01*
X188353197Y-64728168D01*
X188342701Y-64784701D01*
X188327221Y-64840134D01*
X188306570Y-64894316D01*
X188280974Y-64946344D01*
X188250940Y-64995438D01*
X188216705Y-65041636D01*
X188178505Y-65084973D01*
X188136576Y-65125487D01*
X188091155Y-65163215D01*
X188042477Y-65198195D01*
X187990779Y-65230462D01*
X187936297Y-65260055D01*
X187879267Y-65287010D01*
X187758507Y-65333154D01*
X187630389Y-65369191D01*
X187496803Y-65395416D01*
X187359637Y-65412127D01*
X187220782Y-65419618D01*
X187082125Y-65418187D01*
X186945557Y-65408129D01*
X186812967Y-65389741D01*
X186686245Y-65363318D01*
X186567278Y-65329157D01*
X186457958Y-65287553D01*
X186380864Y-65250474D01*
X186307828Y-65208312D01*
X186238979Y-65161383D01*
X186174444Y-65110003D01*
X186114351Y-65054484D01*
X186058830Y-64995144D01*
X186008008Y-64932296D01*
X185962012Y-64866255D01*
X185920971Y-64797338D01*
X185885014Y-64725857D01*
X185854268Y-64652129D01*
X185828861Y-64576468D01*
X185808922Y-64499190D01*
X185794578Y-64420609D01*
X185785957Y-64341040D01*
X185783189Y-64260798D01*
X185783588Y-64233956D01*
X185784655Y-64207087D01*
X185786395Y-64180200D01*
X185788812Y-64153310D01*
X185791912Y-64126426D01*
X185795700Y-64099561D01*
X185800180Y-64072726D01*
X185805358Y-64045933D01*
X185811238Y-64019194D01*
X185817826Y-63992520D01*
X185825126Y-63965923D01*
X185833144Y-63939415D01*
X185841883Y-63913007D01*
X185851350Y-63886711D01*
X185861549Y-63860538D01*
X185872486Y-63834501D01*
X185896307Y-63783457D01*
X185922482Y-63734218D01*
X185950917Y-63686817D01*
X185981517Y-63641292D01*
X186014189Y-63597678D01*
X186048837Y-63556010D01*
X186085369Y-63516326D01*
X186123689Y-63478659D01*
X186163704Y-63443047D01*
X186205319Y-63409524D01*
X186248440Y-63378128D01*
X186292973Y-63348892D01*
X186338823Y-63321854D01*
X186385897Y-63297049D01*
X186434101Y-63274512D01*
X186483339Y-63254280D01*
X186533518Y-63236388D01*
X186584544Y-63220872D01*
X186636322Y-63207768D01*
X186688759Y-63197111D01*
X186741760Y-63188938D01*
X186795230Y-63183284D01*
X186849076Y-63180185D01*
X186903204Y-63179676D01*
X186957518Y-63181794D01*
G37*
D19*
X117700000Y-95300000D02*
X114900000Y-95300000D01*
X117700000Y-92500000D01*
X117700000Y-95300000D01*
G36*
X117700000Y-95300000D02*
G01*
X114900000Y-95300000D01*
X117700000Y-92500000D01*
X117700000Y-95300000D01*
G37*
D16*
X175000000Y-55000000D03*
X175000000Y-133000000D03*
X118000000Y-133000000D03*
X118000000Y-55000000D03*
D20*
X178385000Y-76800000D03*
X176015000Y-76800000D03*
D21*
X182600000Y-119925000D03*
D22*
X182600000Y-122465000D03*
D23*
X163187500Y-103200000D03*
X165012500Y-103200000D03*
D24*
X113250000Y-86437500D03*
X113250000Y-88162500D03*
D25*
X118850000Y-94212500D03*
X118850000Y-92387500D03*
D24*
X111050000Y-89637500D03*
X111050000Y-91362500D03*
D26*
X168786676Y-115125802D03*
D27*
X171326676Y-115125802D03*
X173866676Y-115125802D03*
D28*
X103000000Y-69000000D03*
X103000000Y-62074598D03*
D29*
X184000000Y-75400000D03*
D25*
X181100000Y-77512500D03*
X181100000Y-75687500D03*
D30*
X144860000Y-73770000D03*
D31*
X144860000Y-72500000D03*
X144860000Y-71230000D03*
D21*
X145000000Y-104290000D03*
D22*
X145000000Y-101750000D03*
X145000000Y-99210000D03*
X145000000Y-96670000D03*
D21*
X108400000Y-91750000D03*
D22*
X105860000Y-91750000D03*
X103320000Y-91750000D03*
D21*
X182600000Y-113600000D03*
D22*
X182600000Y-116140000D03*
D32*
X178037500Y-69100000D03*
X179762500Y-69100000D03*
D23*
X163387500Y-99700000D03*
X165212500Y-99700000D03*
D33*
X125350000Y-80850000D03*
X125350000Y-79600000D03*
X125350000Y-78350000D03*
X125350000Y-77100000D03*
X123200000Y-77100000D03*
X123200000Y-78350000D03*
X123200000Y-79600000D03*
X123200000Y-80850000D03*
D30*
X137360000Y-80770000D03*
D31*
X137360000Y-79500000D03*
X137360000Y-78230000D03*
D21*
X196000000Y-122540000D03*
D22*
X196000000Y-120000000D03*
D34*
X182100000Y-72762500D03*
X182100000Y-71037500D03*
D21*
X145000000Y-87670000D03*
D22*
X145000000Y-90210000D03*
X145000000Y-92750000D03*
D25*
X141000000Y-72412500D03*
X141000000Y-70587500D03*
D35*
X178350000Y-73775000D03*
X178850000Y-73775000D03*
X179350000Y-73775000D03*
X179850000Y-73775000D03*
D36*
X180562500Y-73062500D03*
X180562500Y-72562500D03*
X180562500Y-72062500D03*
X180562500Y-71562500D03*
D35*
X179850000Y-70850000D03*
X179350000Y-70850000D03*
X178850000Y-70850000D03*
X178350000Y-70850000D03*
D36*
X177637500Y-71562500D03*
X177637500Y-72062500D03*
X177637500Y-72562500D03*
X177637500Y-73062500D03*
D37*
X179100000Y-72312500D03*
D25*
X138500000Y-74912500D03*
X138500000Y-73087500D03*
D21*
X192000000Y-122540000D03*
D22*
X192000000Y-120000000D03*
D38*
X102600000Y-87500000D03*
D39*
X103700000Y-87500000D03*
X104800000Y-87500000D03*
X105900000Y-87500000D03*
X107000000Y-87500000D03*
X108100000Y-87500000D03*
X109200000Y-87500000D03*
X110300000Y-87500000D03*
D38*
X111400000Y-87500000D03*
X111400000Y-78000000D03*
D39*
X110300000Y-78000000D03*
X109200000Y-78000000D03*
X108100000Y-78000000D03*
X107000000Y-78000000D03*
X105900000Y-78000000D03*
X104800000Y-78000000D03*
X103700000Y-78000000D03*
D38*
X102600000Y-78000000D03*
D40*
X177762500Y-67200000D03*
X179837500Y-67200000D03*
D25*
X140500000Y-79412500D03*
X140500000Y-77587500D03*
D41*
X119150000Y-90700000D03*
X119150000Y-87900000D03*
D21*
X175900000Y-94500000D03*
D22*
X175900000Y-91960000D03*
X175900000Y-89420000D03*
X175900000Y-86880000D03*
X175900000Y-84340000D03*
D34*
X126950000Y-80462500D03*
X126950000Y-78737500D03*
D42*
X148680000Y-66510000D03*
X148680000Y-69050000D03*
X148680000Y-71590000D03*
X148680000Y-74130000D03*
X148680000Y-76670000D03*
X148680000Y-79210000D03*
X148680000Y-81750000D03*
X148680000Y-84290000D03*
X148680000Y-86830000D03*
X148680000Y-89370000D03*
X148680000Y-91910000D03*
X148680000Y-94450000D03*
X148680000Y-96990000D03*
X148680000Y-99530000D03*
X148680000Y-102070000D03*
X148680000Y-104610000D03*
X169000000Y-104610000D03*
X169000000Y-102070000D03*
X169000000Y-99530000D03*
X169000000Y-96990000D03*
X169000000Y-94450000D03*
X169000000Y-91910000D03*
X169000000Y-89370000D03*
X169000000Y-86830000D03*
X169000000Y-84290000D03*
X169000000Y-81750000D03*
X169000000Y-79210000D03*
X169000000Y-76670000D03*
D43*
X113050000Y-93150000D03*
D44*
X150950000Y-115160000D03*
X150950000Y-117700000D03*
D45*
X160100000Y-117700000D03*
D44*
X150950000Y-120240000D03*
D26*
X176000000Y-109000000D03*
D27*
X178540000Y-109000000D03*
X181080000Y-109000000D03*
D21*
X178700000Y-116100000D03*
D22*
X178700000Y-113560000D03*
D46*
X190000000Y-115000000D03*
D47*
X190000000Y-112460000D03*
X190000000Y-109920000D03*
D48*
X144650000Y-114790000D03*
D49*
X135500000Y-112250000D03*
D48*
X144650000Y-109710000D03*
D50*
X136500000Y-73087500D03*
X136500000Y-74912500D03*
D46*
X188000000Y-99000000D03*
D47*
X188000000Y-101540000D03*
X188000000Y-104080000D03*
D51*
X175937500Y-73400000D03*
X173862500Y-73400000D03*
%LPD*%
M02*
