G04 #@! TF.GenerationSoftware,KiCad,Pcbnew,8.0.1*
G04 #@! TF.CreationDate,2024-10-28T21:29:32-04:00*
G04 #@! TF.ProjectId,GHOUL-CloudCruiser,47484f55-4c2d-4436-9c6f-756443727569,rev?*
G04 #@! TF.SameCoordinates,Original*
G04 #@! TF.FileFunction,Paste,Top*
G04 #@! TF.FilePolarity,Positive*
%FSLAX46Y46*%
G04 Gerber Fmt 4.6, Leading zero omitted, Abs format (unit mm)*
G04 Created by KiCad (PCBNEW 8.0.1) date 2024-10-28 21:29:32*
%MOMM*%
%LPD*%
G01*
G04 APERTURE LIST*
G04 Aperture macros list*
%AMRoundRect*
0 Rectangle with rounded corners*
0 $1 Rounding radius*
0 $2 $3 $4 $5 $6 $7 $8 $9 X,Y pos of 4 corners*
0 Add a 4 corners polygon primitive as box body*
4,1,4,$2,$3,$4,$5,$6,$7,$8,$9,$2,$3,0*
0 Add four circle primitives for the rounded corners*
1,1,$1+$1,$2,$3*
1,1,$1+$1,$4,$5*
1,1,$1+$1,$6,$7*
1,1,$1+$1,$8,$9*
0 Add four rect primitives between the rounded corners*
20,1,$1+$1,$2,$3,$4,$5,0*
20,1,$1+$1,$4,$5,$6,$7,0*
20,1,$1+$1,$6,$7,$8,$9,0*
20,1,$1+$1,$8,$9,$2,$3,0*%
G04 Aperture macros list end*
%ADD10C,0.000100*%
%ADD11R,0.980000X3.400000*%
%ADD12RoundRect,0.237500X-0.250000X-0.237500X0.250000X-0.237500X0.250000X0.237500X-0.250000X0.237500X0*%
%ADD13RoundRect,0.237500X-0.237500X0.300000X-0.237500X-0.300000X0.237500X-0.300000X0.237500X0.300000X0*%
%ADD14RoundRect,0.237500X0.237500X-0.250000X0.237500X0.250000X-0.237500X0.250000X-0.237500X-0.250000X0*%
%ADD15R,2.259800X1.362800*%
%ADD16RoundRect,0.237500X-0.300000X-0.237500X0.300000X-0.237500X0.300000X0.237500X-0.300000X0.237500X0*%
%ADD17R,0.950000X0.550000*%
%ADD18RoundRect,0.237500X0.237500X-0.300000X0.237500X0.300000X-0.237500X0.300000X-0.237500X-0.300000X0*%
%ADD19RoundRect,0.182500X0.182500X-0.182500X0.182500X0.182500X-0.182500X0.182500X-0.182500X-0.182500X0*%
%ADD20RoundRect,0.062500X0.062500X-0.350000X0.062500X0.350000X-0.062500X0.350000X-0.062500X-0.350000X0*%
%ADD21RoundRect,0.062500X0.350000X-0.062500X0.350000X0.062500X-0.350000X0.062500X-0.350000X-0.062500X0*%
%ADD22RoundRect,0.175000X0.175000X-0.725000X0.175000X0.725000X-0.175000X0.725000X-0.175000X-0.725000X0*%
%ADD23RoundRect,0.200000X0.200000X-0.700000X0.200000X0.700000X-0.200000X0.700000X-0.200000X-0.700000X0*%
%ADD24RoundRect,0.250000X-0.337500X-0.475000X0.337500X-0.475000X0.337500X0.475000X-0.337500X0.475000X0*%
%ADD25RoundRect,0.250000X0.300000X-0.300000X0.300000X0.300000X-0.300000X0.300000X-0.300000X-0.300000X0*%
%ADD26R,1.700000X4.100000*%
%ADD27RoundRect,0.250000X-2.050000X-0.300000X2.050000X-0.300000X2.050000X0.300000X-2.050000X0.300000X0*%
%ADD28RoundRect,0.250000X-2.025000X-2.375000X2.025000X-2.375000X2.025000X2.375000X-2.025000X2.375000X0*%
%ADD29RoundRect,0.250000X2.050000X0.300000X-2.050000X0.300000X-2.050000X-0.300000X2.050000X-0.300000X0*%
%ADD30RoundRect,0.250000X2.025000X2.375000X-2.025000X2.375000X-2.025000X-2.375000X2.025000X-2.375000X0*%
%ADD31RoundRect,0.237500X-0.237500X0.250000X-0.237500X-0.250000X0.237500X-0.250000X0.237500X0.250000X0*%
%ADD32RoundRect,0.250000X0.337500X0.475000X-0.337500X0.475000X-0.337500X-0.475000X0.337500X-0.475000X0*%
G04 APERTURE END LIST*
D10*
X117600000Y-95200000D02*
X115200000Y-95200000D01*
X117600000Y-92800000D01*
X117600000Y-95200000D01*
G36*
X117600000Y-95200000D02*
G01*
X115200000Y-95200000D01*
X117600000Y-92800000D01*
X117600000Y-95200000D01*
G37*
D11*
X178385000Y-76800000D03*
X176015000Y-76800000D03*
D12*
X163187500Y-103200000D03*
X165012500Y-103200000D03*
D13*
X113250000Y-86437500D03*
X113250000Y-88162500D03*
D14*
X118850000Y-94212500D03*
X118850000Y-92387500D03*
D13*
X111050000Y-89637500D03*
X111050000Y-91362500D03*
D15*
X103000000Y-69000000D03*
X103000000Y-62074598D03*
D14*
X181100000Y-77512500D03*
X181100000Y-75687500D03*
D16*
X178037500Y-69100000D03*
X179762500Y-69100000D03*
D12*
X163387500Y-99700000D03*
X165212500Y-99700000D03*
D17*
X125350000Y-80850000D03*
X125350000Y-79600000D03*
X125350000Y-78350000D03*
X125350000Y-77100000D03*
X123200000Y-77100000D03*
X123200000Y-78350000D03*
X123200000Y-79600000D03*
X123200000Y-80850000D03*
D18*
X182100000Y-72762500D03*
X182100000Y-71037500D03*
D14*
X141000000Y-72412500D03*
X141000000Y-70587500D03*
D19*
X178680000Y-72732500D03*
X179520000Y-72732500D03*
X178680000Y-71892500D03*
X179520000Y-71892500D03*
D20*
X178350000Y-73775000D03*
X178850000Y-73775000D03*
X179350000Y-73775000D03*
X179850000Y-73775000D03*
D21*
X180562500Y-73062500D03*
X180562500Y-72562500D03*
X180562500Y-72062500D03*
X180562500Y-71562500D03*
D20*
X179850000Y-70850000D03*
X179350000Y-70850000D03*
X178850000Y-70850000D03*
X178350000Y-70850000D03*
D21*
X177637500Y-71562500D03*
X177637500Y-72062500D03*
X177637500Y-72562500D03*
X177637500Y-73062500D03*
D14*
X138500000Y-74912500D03*
X138500000Y-73087500D03*
D22*
X102600000Y-87500000D03*
D23*
X103700000Y-87500000D03*
X104800000Y-87500000D03*
X105900000Y-87500000D03*
X107000000Y-87500000D03*
X108100000Y-87500000D03*
X109200000Y-87500000D03*
X110300000Y-87500000D03*
D22*
X111400000Y-87500000D03*
X111400000Y-78000000D03*
D23*
X110300000Y-78000000D03*
X109200000Y-78000000D03*
X108100000Y-78000000D03*
X107000000Y-78000000D03*
X105900000Y-78000000D03*
X104800000Y-78000000D03*
X103700000Y-78000000D03*
D22*
X102600000Y-78000000D03*
D24*
X177762500Y-67200000D03*
X179837500Y-67200000D03*
D14*
X140500000Y-79412500D03*
X140500000Y-77587500D03*
D25*
X119150000Y-90700000D03*
X119150000Y-87900000D03*
D18*
X126950000Y-80462500D03*
X126950000Y-78737500D03*
D26*
X113050000Y-93150000D03*
D27*
X150950000Y-115160000D03*
X150950000Y-117700000D03*
D28*
X157675000Y-114925000D03*
X157675000Y-120475000D03*
X162525000Y-114925000D03*
X162525000Y-120475000D03*
D27*
X150950000Y-120240000D03*
D29*
X144650000Y-114790000D03*
D30*
X137925000Y-115025000D03*
X137925000Y-109475000D03*
X133075000Y-115025000D03*
X133075000Y-109475000D03*
D29*
X144650000Y-109710000D03*
D31*
X136500000Y-73087500D03*
X136500000Y-74912500D03*
D32*
X175937500Y-73400000D03*
X173862500Y-73400000D03*
M02*
