G04 #@! TF.GenerationSoftware,KiCad,Pcbnew,8.0.1*
G04 #@! TF.CreationDate,2024-10-28T21:29:32-04:00*
G04 #@! TF.ProjectId,GHOUL-CloudCruiser,47484f55-4c2d-4436-9c6f-756443727569,rev?*
G04 #@! TF.SameCoordinates,Original*
G04 #@! TF.FileFunction,Profile,NP*
%FSLAX46Y46*%
G04 Gerber Fmt 4.6, Leading zero omitted, Abs format (unit mm)*
G04 Created by KiCad (PCBNEW 8.0.1) date 2024-10-28 21:29:32*
%MOMM*%
%LPD*%
G01*
G04 APERTURE LIST*
G04 #@! TA.AperFunction,Profile*
%ADD10C,0.100000*%
G04 #@! TD*
G04 #@! TA.AperFunction,Profile*
%ADD11C,0.050000*%
G04 #@! TD*
G04 APERTURE END LIST*
D10*
X115000000Y-50000000D02*
X121000000Y-50000000D01*
D11*
X170000000Y-58000000D02*
G75*
G02*
X168000000Y-60000000I-2000000J0D01*
G01*
D10*
X172000000Y-138000000D02*
G75*
G02*
X170000000Y-136000000I0J2000000D01*
G01*
X115000000Y-138000000D02*
G75*
G02*
X113000000Y-136000000I0J2000000D01*
G01*
X113000000Y-58000000D02*
X113000000Y-52000000D01*
X123000000Y-52000000D02*
X123000000Y-58000000D01*
X178000000Y-50000000D02*
G75*
G02*
X180000000Y-52000000I0J-2000000D01*
G01*
X182000000Y-128000000D02*
X197000000Y-128000000D01*
X100000000Y-62000000D02*
X100000000Y-126000000D01*
X102000000Y-60000000D02*
X111000000Y-60000000D01*
X182000000Y-60000000D02*
X197000000Y-60000000D01*
D11*
X199000000Y-126000000D02*
G75*
G02*
X197000000Y-128000000I-2000000J0D01*
G01*
D10*
X170000000Y-52000000D02*
G75*
G02*
X172000000Y-50000000I2000000J0D01*
G01*
X180000000Y-130000000D02*
X180000000Y-136000000D01*
X111000000Y-128000000D02*
X102000000Y-128000000D01*
D11*
X180000000Y-130000000D02*
G75*
G02*
X182000000Y-128000000I2000000J0D01*
G01*
D10*
X170000000Y-58000000D02*
X170000000Y-52000000D01*
X113000000Y-52000000D02*
G75*
G02*
X115000000Y-50000000I2000000J0D01*
G01*
X121000000Y-50000000D02*
G75*
G02*
X123000000Y-52000000I0J-2000000D01*
G01*
X102000000Y-128000000D02*
G75*
G02*
X100000000Y-126000000I0J2000000D01*
G01*
X180000000Y-136000000D02*
G75*
G02*
X178000000Y-138000000I-2000000J0D01*
G01*
X113000000Y-136000000D02*
X113000000Y-130000000D01*
X123000000Y-136000000D02*
G75*
G02*
X121000000Y-138000000I-2000000J0D01*
G01*
D11*
X168000000Y-128000000D02*
X125000000Y-128000000D01*
D10*
X121000000Y-138000000D02*
X115000000Y-138000000D01*
X100000000Y-62000000D02*
G75*
G02*
X102000000Y-60000000I2000000J0D01*
G01*
X111000000Y-128000000D02*
G75*
G02*
X113000000Y-130000000I0J-2000000D01*
G01*
X125000000Y-60000000D02*
X168000000Y-60000000D01*
X197000000Y-60000000D02*
G75*
G02*
X199000000Y-62000000I0J-2000000D01*
G01*
X123000000Y-130000000D02*
X123000000Y-136000000D01*
X178000000Y-138000000D02*
X172000000Y-138000000D01*
X113000000Y-58000000D02*
G75*
G02*
X111000000Y-60000000I-2000000J0D01*
G01*
D11*
X182000000Y-60000000D02*
G75*
G02*
X180000000Y-58000000I0J2000000D01*
G01*
D10*
X125000000Y-60000000D02*
G75*
G02*
X123000000Y-58000000I0J2000000D01*
G01*
D11*
X168000000Y-128000000D02*
G75*
G02*
X170000000Y-130000000I0J-2000000D01*
G01*
D10*
X199000000Y-126000000D02*
X199000000Y-62000000D01*
X123000000Y-130000000D02*
G75*
G02*
X125000000Y-128000000I2000000J0D01*
G01*
D11*
X180000000Y-52000000D02*
X180000000Y-58000000D01*
X170000000Y-136000000D02*
X170000000Y-130000000D01*
D10*
X172000000Y-50000000D02*
X178000000Y-50000000D01*
M02*
