G04 #@! TF.GenerationSoftware,KiCad,Pcbnew,8.0.1*
G04 #@! TF.CreationDate,2024-10-28T21:29:32-04:00*
G04 #@! TF.ProjectId,GHOUL-CloudCruiser,47484f55-4c2d-4436-9c6f-756443727569,rev?*
G04 #@! TF.SameCoordinates,Original*
G04 #@! TF.FileFunction,Soldermask,Bot*
G04 #@! TF.FilePolarity,Negative*
%FSLAX46Y46*%
G04 Gerber Fmt 4.6, Leading zero omitted, Abs format (unit mm)*
G04 Created by KiCad (PCBNEW 8.0.1) date 2024-10-28 21:29:32*
%MOMM*%
%LPD*%
G01*
G04 APERTURE LIST*
%ADD10C,7.500000*%
%ADD11R,1.700000X1.700000*%
%ADD12O,1.700000X1.700000*%
%ADD13R,1.905000X2.000000*%
%ADD14O,1.905000X2.000000*%
%ADD15C,2.000000*%
%ADD16R,1.500000X1.050000*%
%ADD17O,1.500000X1.050000*%
%ADD18C,1.524000*%
%ADD19R,2.000000X1.905000*%
%ADD20O,2.000000X1.905000*%
G04 APERTURE END LIST*
D10*
X175000000Y-55000000D03*
X175000000Y-133000000D03*
X118000000Y-133000000D03*
X118000000Y-55000000D03*
D11*
X182600000Y-119925000D03*
D12*
X182600000Y-122465000D03*
D13*
X168786676Y-115125802D03*
D14*
X171326676Y-115125802D03*
X173866676Y-115125802D03*
D15*
X184000000Y-75400000D03*
D16*
X144860000Y-73770000D03*
D17*
X144860000Y-72500000D03*
X144860000Y-71230000D03*
D11*
X145000000Y-104290000D03*
D12*
X145000000Y-101750000D03*
X145000000Y-99210000D03*
X145000000Y-96670000D03*
D11*
X108400000Y-91750000D03*
D12*
X105860000Y-91750000D03*
X103320000Y-91750000D03*
D11*
X182600000Y-113600000D03*
D12*
X182600000Y-116140000D03*
D16*
X137360000Y-80770000D03*
D17*
X137360000Y-79500000D03*
X137360000Y-78230000D03*
D11*
X196000000Y-122540000D03*
D12*
X196000000Y-120000000D03*
D11*
X145000000Y-87670000D03*
D12*
X145000000Y-90210000D03*
X145000000Y-92750000D03*
D11*
X192000000Y-122540000D03*
D12*
X192000000Y-120000000D03*
D11*
X175900000Y-94500000D03*
D12*
X175900000Y-91960000D03*
X175900000Y-89420000D03*
X175900000Y-86880000D03*
X175900000Y-84340000D03*
D18*
X148680000Y-66510000D03*
X148680000Y-69050000D03*
X148680000Y-71590000D03*
X148680000Y-74130000D03*
X148680000Y-76670000D03*
X148680000Y-79210000D03*
X148680000Y-81750000D03*
X148680000Y-84290000D03*
X148680000Y-86830000D03*
X148680000Y-89370000D03*
X148680000Y-91910000D03*
X148680000Y-94450000D03*
X148680000Y-96990000D03*
X148680000Y-99530000D03*
X148680000Y-102070000D03*
X148680000Y-104610000D03*
X169000000Y-104610000D03*
X169000000Y-102070000D03*
X169000000Y-99530000D03*
X169000000Y-96990000D03*
X169000000Y-94450000D03*
X169000000Y-91910000D03*
X169000000Y-89370000D03*
X169000000Y-86830000D03*
X169000000Y-84290000D03*
X169000000Y-81750000D03*
X169000000Y-79210000D03*
X169000000Y-76670000D03*
D13*
X176000000Y-109000000D03*
D14*
X178540000Y-109000000D03*
X181080000Y-109000000D03*
D11*
X178700000Y-116100000D03*
D12*
X178700000Y-113560000D03*
D19*
X190000000Y-115000000D03*
D20*
X190000000Y-112460000D03*
X190000000Y-109920000D03*
D19*
X188000000Y-99000000D03*
D20*
X188000000Y-101540000D03*
X188000000Y-104080000D03*
M02*
