%TF.GenerationSoftware,KiCad,Pcbnew,(6.0.5)*%
%TF.CreationDate,2023-01-08T16:18:02-05:00*%
%TF.ProjectId,GHOUL2,47484f55-4c32-42e6-9b69-6361645f7063,rev?*%
%TF.SameCoordinates,Original*%
%TF.FileFunction,Copper,L1,Top*%
%TF.FilePolarity,Positive*%
%FSLAX46Y46*%
G04 Gerber Fmt 4.6, Leading zero omitted, Abs format (unit mm)*
G04 Created by KiCad (PCBNEW (6.0.5)) date 2023-01-08 16:18:02*
%MOMM*%
%LPD*%
G01*
G04 APERTURE LIST*
G04 Aperture macros list*
%AMRoundRect*
0 Rectangle with rounded corners*
0 $1 Rounding radius*
0 $2 $3 $4 $5 $6 $7 $8 $9 X,Y pos of 4 corners*
0 Add a 4 corners polygon primitive as box body*
4,1,4,$2,$3,$4,$5,$6,$7,$8,$9,$2,$3,0*
0 Add four circle primitives for the rounded corners*
1,1,$1+$1,$2,$3*
1,1,$1+$1,$4,$5*
1,1,$1+$1,$6,$7*
1,1,$1+$1,$8,$9*
0 Add four rect primitives between the rounded corners*
20,1,$1+$1,$2,$3,$4,$5,0*
20,1,$1+$1,$4,$5,$6,$7,0*
20,1,$1+$1,$6,$7,$8,$9,0*
20,1,$1+$1,$8,$9,$2,$3,0*%
G04 Aperture macros list end*
%TA.AperFunction,ComponentPad*%
%ADD10C,1.524000*%
%TD*%
%TA.AperFunction,ComponentPad*%
%ADD11C,4.318000*%
%TD*%
%TA.AperFunction,ComponentPad*%
%ADD12R,1.600000X1.600000*%
%TD*%
%TA.AperFunction,ComponentPad*%
%ADD13C,1.600000*%
%TD*%
%TA.AperFunction,SMDPad,CuDef*%
%ADD14R,4.600000X1.100000*%
%TD*%
%TA.AperFunction,SMDPad,CuDef*%
%ADD15R,9.400000X10.800000*%
%TD*%
%TA.AperFunction,ComponentPad*%
%ADD16C,2.540000*%
%TD*%
%TA.AperFunction,ComponentPad*%
%ADD17C,2.550000*%
%TD*%
%TA.AperFunction,ComponentPad*%
%ADD18C,3.000000*%
%TD*%
%TA.AperFunction,SMDPad,CuDef*%
%ADD19R,1.100000X4.600000*%
%TD*%
%TA.AperFunction,SMDPad,CuDef*%
%ADD20R,10.800000X9.400000*%
%TD*%
%TA.AperFunction,ComponentPad*%
%ADD21RoundRect,0.250000X0.750000X-0.600000X0.750000X0.600000X-0.750000X0.600000X-0.750000X-0.600000X0*%
%TD*%
%TA.AperFunction,ComponentPad*%
%ADD22O,2.000000X1.700000*%
%TD*%
%TA.AperFunction,SMDPad,CuDef*%
%ADD23R,3.500000X3.300000*%
%TD*%
%TA.AperFunction,SMDPad,CuDef*%
%ADD24C,10.200000*%
%TD*%
%TA.AperFunction,ComponentPad*%
%ADD25C,2.000000*%
%TD*%
%TA.AperFunction,ComponentPad*%
%ADD26C,3.500000*%
%TD*%
%TA.AperFunction,ComponentPad*%
%ADD27R,3.500000X3.500000*%
%TD*%
%TA.AperFunction,ComponentPad*%
%ADD28C,1.400000*%
%TD*%
%TA.AperFunction,ViaPad*%
%ADD29C,0.800000*%
%TD*%
%TA.AperFunction,Conductor*%
%ADD30C,1.000000*%
%TD*%
%TA.AperFunction,Conductor*%
%ADD31C,0.250000*%
%TD*%
%TA.AperFunction,Conductor*%
%ADD32C,2.000000*%
%TD*%
G04 APERTURE END LIST*
D10*
%TO.P,U10,1,VIN*%
%TO.N,3v3 pwr*%
X145955000Y-90075000D03*
%TO.P,U10,2,GND*%
%TO.N,GND*%
X145955000Y-87535000D03*
%TO.P,U10,3,3VO*%
%TO.N,unconnected-(U10-Pad3)*%
X145955000Y-84995000D03*
%TO.P,U10,4,I1*%
%TO.N,unconnected-(U10-Pad4)*%
X145955000Y-82455000D03*
%TO.P,U10,5,I2*%
%TO.N,unconnected-(U10-Pad5)*%
X145955000Y-79915000D03*
%TO.P,U10,6,SCL*%
%TO.N,SCL*%
X145955000Y-77375000D03*
%TO.P,U10,7,SDA*%
%TO.N,SDA*%
X145955000Y-74835000D03*
%TO.P,U10,8,A*%
%TO.N,unconnected-(U10-Pad8)*%
X145955000Y-72295000D03*
D11*
%TO.P,U10,9*%
%TO.N,N/C*%
X133255000Y-88805000D03*
%TO.P,U10,10*%
X133255000Y-73565000D03*
%TD*%
D12*
%TO.P,U1,1,GND*%
%TO.N,GND*%
X152400000Y-74930000D03*
D13*
%TO.P,U1,2,0_RX1_MOSI1_Touch*%
%TO.N,unconnected-(U1-Pad2)*%
X152400000Y-77470000D03*
%TO.P,U1,3,1_TX1_MISO1_Touch*%
%TO.N,unconnected-(U1-Pad3)*%
X152400000Y-80010000D03*
%TO.P,U1,4,2_PWM*%
%TO.N,Servo PWM*%
X152400000Y-82550000D03*
%TO.P,U1,5,3_PWM_CAN0TX_SCL2*%
%TO.N,unconnected-(U1-Pad5)*%
X152400000Y-85090000D03*
%TO.P,U1,6,4_PWM_CAN0RX_SDA2*%
%TO.N,unconnected-(U1-Pad6)*%
X152400000Y-87630000D03*
%TO.P,U1,7,5_PWM_TX1_MISO1*%
%TO.N,unconnected-(U1-Pad7)*%
X152400000Y-90170000D03*
%TO.P,U1,8,6_PWM*%
%TO.N,unconnected-(U1-Pad8)*%
X152400000Y-92710000D03*
%TO.P,U1,9,7_RX3_MOSI0_SCL0*%
%TO.N,SCL*%
X152400000Y-95250000D03*
%TO.P,U1,10,8_TX3_MISO0_SDA0*%
%TO.N,SDA*%
X152400000Y-97790000D03*
%TO.P,U1,11,9_PWM_RX2_CS0*%
%TO.N,Net-(U1-Pad11)*%
X152400000Y-100330000D03*
%TO.P,U1,12,10_PWM_TX2_CS0*%
%TO.N,Net-(U1-Pad12)*%
X152400000Y-102870000D03*
%TO.P,U1,13,11_MOSI0*%
%TO.N,unconnected-(U1-Pad13)*%
X152400000Y-105410000D03*
%TO.P,U1,14,12_MISO0*%
%TO.N,unconnected-(U1-Pad14)*%
X152400000Y-107950000D03*
%TO.P,U1,15,3.3V*%
%TO.N,3v3 pwr*%
X152400000Y-110490000D03*
%TO.P,U1,16,24*%
%TO.N,unconnected-(U1-Pad16)*%
X152400000Y-113030000D03*
%TO.P,U1,17,25*%
%TO.N,unconnected-(U1-Pad17)*%
X152400000Y-115570000D03*
%TO.P,U1,18,26_TX1_SCL2*%
%TO.N,Xbee DIn*%
X152400000Y-118110000D03*
%TO.P,U1,19,27_RX1_SCK0*%
%TO.N,Xbee DOut*%
X152400000Y-120650000D03*
%TO.P,U1,20,28_MOSI0*%
%TO.N,unconnected-(U1-Pad20)*%
X152400000Y-123190000D03*
%TO.P,U1,21,29_PWM_CAN0TX_Touch*%
%TO.N,unconnected-(U1-Pad21)*%
X152400000Y-125730000D03*
%TO.P,U1,22,30_PWM_CAN0RX_Touch*%
%TO.N,unconnected-(U1-Pad22)*%
X152400000Y-128270000D03*
%TO.P,U1,23,31_A12_RX4_CS1*%
%TO.N,unconnected-(U1-Pad23)*%
X152400000Y-130810000D03*
%TO.P,U1,24,32_A13_TX4_SCK1*%
%TO.N,unconnected-(U1-Pad24)*%
X152400000Y-133350000D03*
%TO.P,U1,25,VBat*%
%TO.N,Net-(U1-Pad25)*%
X154940000Y-120650000D03*
%TO.P,U1,26,3.3V*%
%TO.N,unconnected-(U1-Pad26)*%
X157480000Y-120650000D03*
%TO.P,U1,27,GND*%
%TO.N,unconnected-(U1-Pad27)*%
X160020000Y-120650000D03*
%TO.P,U1,28,Program*%
%TO.N,unconnected-(U1-Pad28)*%
X162560000Y-120650000D03*
%TO.P,U1,29,Reset*%
%TO.N,unconnected-(U1-Pad29)*%
X165100000Y-120650000D03*
%TO.P,U1,30,33_A14_TX5_CAN1TX_SCL0*%
%TO.N,unconnected-(U1-Pad30)*%
X167640000Y-133350000D03*
%TO.P,U1,31,34_A15_RX5_CAN1RX_SDA0*%
%TO.N,unconnected-(U1-Pad31)*%
X167640000Y-130810000D03*
%TO.P,U1,32,35_A16_PWM*%
%TO.N,Nic2*%
X167640000Y-128270000D03*
%TO.P,U1,33,36_A17_PWM*%
%TO.N,Nic1*%
X167640000Y-125730000D03*
%TO.P,U1,34,37_A18_PWM_SCL1*%
%TO.N,unconnected-(U1-Pad34)*%
X167640000Y-123190000D03*
%TO.P,U1,35,38_A19_PWM_SDA1*%
%TO.N,unconnected-(U1-Pad35)*%
X167640000Y-120650000D03*
%TO.P,U1,36,39_A20*%
%TO.N,unconnected-(U1-Pad36)*%
X167640000Y-118110000D03*
%TO.P,U1,37,A21_DAC0*%
%TO.N,unconnected-(U1-Pad37)*%
X167640000Y-115570000D03*
%TO.P,U1,38,A22_DAC1*%
%TO.N,unconnected-(U1-Pad38)*%
X167640000Y-113030000D03*
%TO.P,U1,39,GND*%
%TO.N,unconnected-(U1-Pad39)*%
X167640000Y-110490000D03*
%TO.P,U1,40,13_SCK0_LED*%
%TO.N,unconnected-(U1-Pad40)*%
X167640000Y-107950000D03*
%TO.P,U1,41,14_A0_PWM_SCK0*%
%TO.N,unconnected-(U1-Pad41)*%
X167640000Y-105410000D03*
%TO.P,U1,42,15_A1_CS0_Touch*%
%TO.N,unconnected-(U1-Pad42)*%
X167640000Y-102870000D03*
%TO.P,U1,43,16_A2_SCL0_Touch*%
%TO.N,unconnected-(U1-Pad43)*%
X167640000Y-100330000D03*
%TO.P,U1,44,17_A3_SDA0_Touch*%
%TO.N,unconnected-(U1-Pad44)*%
X167640000Y-97790000D03*
%TO.P,U1,45,18_A4_SDA0_Touch*%
%TO.N,unconnected-(U1-Pad45)*%
X167640000Y-95250000D03*
%TO.P,U1,46,19_A5_SCL0_Touch*%
%TO.N,unconnected-(U1-Pad46)*%
X167640000Y-92710000D03*
%TO.P,U1,47,20_A6_PWM_CS0_SCK1*%
%TO.N,unconnected-(U1-Pad47)*%
X167640000Y-90170000D03*
%TO.P,U1,48,21_A7_PWM_CS0_MOSI1*%
%TO.N,unconnected-(U1-Pad48)*%
X167640000Y-87630000D03*
%TO.P,U1,49,22_A8_PWM_Touch*%
%TO.N,unconnected-(U1-Pad49)*%
X167640000Y-85090000D03*
%TO.P,U1,50,23_A9_PWM_Touch*%
%TO.N,Feedback*%
X167640000Y-82550000D03*
%TO.P,U1,51,3.3V*%
%TO.N,unconnected-(U1-Pad51)*%
X167640000Y-80010000D03*
%TO.P,U1,52,AGND*%
%TO.N,unconnected-(U1-Pad52)*%
X167640000Y-77470000D03*
%TO.P,U1,53,Vin*%
%TO.N,5v pwr*%
X167640000Y-74930000D03*
%TO.P,U1,54,VUSB*%
%TO.N,unconnected-(U1-Pad54)*%
X165100000Y-77470000D03*
%TO.P,U1,55,AREF*%
%TO.N,unconnected-(U1-Pad55)*%
X165100000Y-82550000D03*
%TO.P,U1,56,A10*%
%TO.N,unconnected-(U1-Pad56)*%
X165100000Y-85090000D03*
%TO.P,U1,57,A11*%
%TO.N,unconnected-(U1-Pad57)*%
X165100000Y-87630000D03*
%TO.P,U1,58,not_used*%
%TO.N,unconnected-(U1-Pad58)*%
X155400000Y-81280000D03*
%TO.P,U1,59,A26*%
%TO.N,unconnected-(U1-Pad59)*%
X155400000Y-83820000D03*
%TO.P,U1,60,A25*%
%TO.N,unconnected-(U1-Pad60)*%
X155400000Y-86360000D03*
%TO.P,U1,61,GND*%
%TO.N,unconnected-(U1-Pad61)*%
X155400000Y-88900000D03*
%TO.P,U1,62,GND*%
%TO.N,unconnected-(U1-Pad62)*%
X155400000Y-91440000D03*
%TO.P,U1,63,G*%
%TO.N,unconnected-(U1-Pad63)*%
X160020000Y-90170000D03*
%TO.P,U1,64,Debug_DE*%
%TO.N,unconnected-(U1-Pad64)*%
X160020000Y-92710000D03*
%TO.P,U1,65,Debug_DC*%
%TO.N,unconnected-(U1-Pad65)*%
X160020000Y-95250000D03*
%TO.P,U1,66,Debug_DD*%
%TO.N,unconnected-(U1-Pad66)*%
X160020000Y-97790000D03*
%TO.P,U1,67,40*%
%TO.N,unconnected-(U1-Pad67)*%
X160020000Y-113030000D03*
%TO.P,U1,68,41*%
%TO.N,unconnected-(U1-Pad68)*%
X160020000Y-115570000D03*
%TO.P,U1,69,42*%
%TO.N,unconnected-(U1-Pad69)*%
X160020000Y-118110000D03*
%TO.P,U1,70,43_CS2*%
%TO.N,unconnected-(U1-Pad70)*%
X160020000Y-123190000D03*
%TO.P,U1,71,44_MOSI2*%
%TO.N,unconnected-(U1-Pad71)*%
X160020000Y-125730000D03*
%TO.P,U1,72,45_MISO2*%
%TO.N,unconnected-(U1-Pad72)*%
X160020000Y-128270000D03*
%TO.P,U1,73,46_SCK2*%
%TO.N,unconnected-(U1-Pad73)*%
X160020000Y-130810000D03*
%TO.P,U1,74,GND*%
%TO.N,unconnected-(U1-Pad74)*%
X160020000Y-133350000D03*
%TO.P,U1,75,3.3V*%
%TO.N,unconnected-(U1-Pad75)*%
X162560000Y-133350000D03*
%TO.P,U1,76,47_RX6_SCL0*%
%TO.N,unconnected-(U1-Pad76)*%
X162560000Y-130810000D03*
%TO.P,U1,77,48_TX6_SDA0*%
%TO.N,unconnected-(U1-Pad77)*%
X162560000Y-128270000D03*
%TO.P,U1,78,49_A23*%
%TO.N,unconnected-(U1-Pad78)*%
X162560000Y-125730000D03*
%TO.P,U1,79,50_A24*%
%TO.N,unconnected-(U1-Pad79)*%
X162560000Y-123190000D03*
%TO.P,U1,80,51_MISO2*%
%TO.N,unconnected-(U1-Pad80)*%
X162560000Y-118110000D03*
%TO.P,U1,81,52_MOSI2*%
%TO.N,unconnected-(U1-Pad81)*%
X162560000Y-115570000D03*
%TO.P,U1,82,53_SCK2*%
%TO.N,unconnected-(U1-Pad82)*%
X162560000Y-113030000D03*
%TO.P,U1,83,54_CS2*%
%TO.N,unconnected-(U1-Pad83)*%
X162560000Y-97790000D03*
%TO.P,U1,84,55*%
%TO.N,unconnected-(U1-Pad84)*%
X162560000Y-95250000D03*
%TO.P,U1,85,56*%
%TO.N,unconnected-(U1-Pad85)*%
X162560000Y-92710000D03*
%TO.P,U1,86,57*%
%TO.N,unconnected-(U1-Pad86)*%
X162560000Y-90170000D03*
%TO.P,U1,87,D-*%
%TO.N,unconnected-(U1-Pad87)*%
X161030000Y-76200000D03*
%TO.P,U1,88,D+*%
%TO.N,unconnected-(U1-Pad88)*%
X159010000Y-76200000D03*
%TD*%
D14*
%TO.P,Q1,1,G*%
%TO.N,Nic2*%
X183885000Y-126765000D03*
D15*
%TO.P,Q1,2,D*%
%TO.N,Net-(Q1-Pad2)*%
X193035000Y-129305000D03*
D14*
%TO.P,Q1,3,S*%
%TO.N,GND*%
X183885000Y-131845000D03*
%TD*%
D16*
%TO.P,U3,11*%
%TO.N,N/C*%
X145955000Y-96520000D03*
D17*
%TO.P,U3,10*%
X145955000Y-116840000D03*
D18*
%TO.P,U3,9*%
X133255000Y-116840000D03*
%TO.P,U3,8*%
X133255000Y-96520000D03*
D10*
%TO.P,U3,7,CS*%
%TO.N,unconnected-(U3-Pad7)*%
X145955000Y-99060000D03*
%TO.P,U3,6,SDI*%
%TO.N,unconnected-(U3-Pad6)*%
X145955000Y-101600000D03*
%TO.P,U3,5,SDO*%
%TO.N,SDA*%
X145955000Y-104140000D03*
%TO.P,U3,4,SCK*%
%TO.N,SCL*%
X145955000Y-106680000D03*
%TO.P,U3,3,GND*%
%TO.N,GND*%
X145955000Y-109220000D03*
%TO.P,U3,2,3Vo*%
%TO.N,unconnected-(U3-Pad2)*%
X145955000Y-111760000D03*
%TO.P,U3,1,Vin*%
%TO.N,5v pwr*%
X145955000Y-114300000D03*
%TD*%
%TO.P,C1,1*%
%TO.N,5v pwr*%
X162465000Y-71215000D03*
%TO.P,C1,2*%
%TO.N,GND*%
X157385000Y-71215000D03*
%TD*%
D19*
%TO.P,U2,3,VO*%
%TO.N,5v pwr*%
X172720000Y-72130000D03*
%TO.P,U2,2,GND*%
%TO.N,GND*%
X175260000Y-72130000D03*
D20*
X175260000Y-81280000D03*
D19*
%TO.P,U2,1,VI*%
%TO.N,Vin*%
X177800000Y-72130000D03*
%TD*%
D10*
%TO.P,U4,1,PWM*%
%TO.N,Servo PWM*%
X108045000Y-73565000D03*
%TO.P,U4,2,+*%
%TO.N,5v pwr*%
X110585000Y-73565000D03*
%TO.P,U4,3,-*%
%TO.N,GND*%
X113125000Y-73565000D03*
%TO.P,U4,4,FEEBACK*%
%TO.N,Feedback*%
X115665000Y-73565000D03*
%TD*%
D21*
%TO.P,U6,1,In*%
%TO.N,Net-(R1-Pad1)*%
X195810000Y-104140000D03*
D22*
%TO.P,U6,2,Out*%
%TO.N,Net-(Q2-Pad2)*%
X195810000Y-101640000D03*
%TD*%
D23*
%TO.P,BT1,1,+*%
%TO.N,Net-(U1-Pad25)*%
X131800000Y-129540000D03*
X147600000Y-129540000D03*
D24*
%TO.P,BT1,2,-*%
%TO.N,GND*%
X139700000Y-129540000D03*
%TD*%
D10*
%TO.P,U8,1,Ground*%
%TO.N,GND*%
X127310000Y-125825000D03*
%TO.P,U8,2,5V*%
%TO.N,5v pwr*%
X127310000Y-123285000D03*
%TO.P,U8,3,Dout*%
%TO.N,Xbee DOut*%
X127310000Y-120745000D03*
%TO.P,U8,4,Din*%
%TO.N,Xbee DIn*%
X127310000Y-118205000D03*
%TO.P,U8,5*%
%TO.N,N/C*%
X127310000Y-128365000D03*
%TO.P,U8,6*%
X127310000Y-115665000D03*
%TO.P,U8,19*%
X99370000Y-115665000D03*
%TO.P,U8,32*%
X99370000Y-128365000D03*
%TD*%
D16*
%TO.P,U7,11*%
%TO.N,N/C*%
X97187000Y-81185000D03*
%TO.P,U7,10*%
X97187000Y-101505000D03*
D25*
%TO.P,U7,9,PPS*%
%TO.N,unconnected-(U7-Pad9)*%
X126651000Y-81185000D03*
%TO.P,U7,8,VIN*%
%TO.N,5v pwr*%
X126651000Y-83725000D03*
%TO.P,U7,7,GND*%
%TO.N,GND*%
X126651000Y-86265000D03*
%TO.P,U7,6,RX*%
%TO.N,Net-(U1-Pad12)*%
X126651000Y-88805000D03*
%TO.P,U7,5,TX*%
%TO.N,Net-(U1-Pad11)*%
X126651000Y-91345000D03*
%TO.P,U7,4,FIX*%
%TO.N,unconnected-(U7-Pad4)*%
X126651000Y-93885000D03*
%TO.P,U7,3,VBAT*%
%TO.N,unconnected-(U7-Pad3)*%
X126651000Y-96425000D03*
%TO.P,U7,2,EN*%
%TO.N,unconnected-(U7-Pad2)*%
X126651000Y-98965000D03*
%TO.P,U7,1,3.3V*%
%TO.N,unconnected-(U7-Pad1)*%
X126651000Y-101505000D03*
%TD*%
D14*
%TO.P,R1,1*%
%TO.N,Net-(R1-Pad1)*%
X187065000Y-119380000D03*
D15*
%TO.P,R1,2*%
%TO.N,N/C*%
X177915000Y-116840000D03*
D14*
%TO.P,R1,3*%
%TO.N,Net-(R1-Pad3)*%
X187065000Y-114300000D03*
%TD*%
%TO.P,Q2,1,G*%
%TO.N,Nic1*%
X183890000Y-88665000D03*
D15*
%TO.P,Q2,2,D*%
%TO.N,Net-(Q2-Pad2)*%
X193040000Y-91205000D03*
D14*
%TO.P,Q2,3,S*%
%TO.N,GND*%
X183890000Y-93745000D03*
%TD*%
%TO.P,U5,3,VI*%
%TO.N,Vin*%
X187065000Y-101600000D03*
D15*
%TO.P,U5,2,VO*%
%TO.N,Net-(R1-Pad3)*%
X177915000Y-104140000D03*
D14*
X187065000Y-104140000D03*
%TO.P,U5,1,ADJ*%
%TO.N,Net-(R1-Pad1)*%
X187065000Y-106680000D03*
%TD*%
D22*
%TO.P,U9,1,In*%
%TO.N,Net-(R1-Pad1)*%
X195810000Y-114575000D03*
D21*
%TO.P,U9,2,Out*%
%TO.N,Net-(Q1-Pad2)*%
X195810000Y-117075000D03*
%TD*%
D26*
%TO.P,J1,2,Pin_2*%
%TO.N,Vin*%
X185775000Y-78700000D03*
D27*
%TO.P,J1,1,Pin_1*%
%TO.N,GND*%
X185775000Y-73700000D03*
D28*
%TO.P,J1,*%
%TO.N,*%
X195775000Y-81700000D03*
X195775000Y-70700000D03*
%TD*%
D29*
%TO.N,Vin*%
X186370000Y-100905000D03*
X187960000Y-101600000D03*
X190500000Y-101600000D03*
X190500000Y-99060000D03*
X187960000Y-99060000D03*
X187165000Y-97315000D03*
X185895000Y-98585000D03*
X185775000Y-96520000D03*
%TO.N,GND*%
X177800000Y-88900000D03*
X175260000Y-88900000D03*
X172720000Y-88900000D03*
X180340000Y-93980000D03*
X180340000Y-96520000D03*
X177800000Y-96520000D03*
X175260000Y-96520000D03*
X175260000Y-93980000D03*
X177800000Y-93980000D03*
X180340000Y-134620000D03*
X177800000Y-134620000D03*
X175260000Y-134620000D03*
X175260000Y-132080000D03*
X177800000Y-132080000D03*
X180340000Y-132080000D03*
%TD*%
D30*
%TO.N,5v pwr*%
X116745000Y-83725000D02*
X124951489Y-91931489D01*
X116138110Y-83725000D02*
X116745000Y-83725000D01*
X124951489Y-91931489D02*
X124951489Y-104631489D01*
D31*
%TO.N,Servo PWM*%
X149860000Y-76200000D02*
X149860000Y-80010000D01*
X137311489Y-76048511D02*
X139700000Y-73660000D01*
X149860000Y-80010000D02*
X152400000Y-82550000D01*
X110528511Y-76048511D02*
X137311489Y-76048511D01*
X139700000Y-73660000D02*
X147320000Y-73660000D01*
X147320000Y-73660000D02*
X149860000Y-76200000D01*
X108045000Y-73565000D02*
X110528511Y-76048511D01*
%TO.N,SDA*%
X143835959Y-76200000D02*
X145200959Y-74835000D01*
X145200959Y-74835000D02*
X145955000Y-74835000D01*
X145955000Y-104140000D02*
X143835959Y-102020959D01*
X143835959Y-102020959D02*
X143835959Y-76200000D01*
%TO.N,Net-(U1-Pad12)*%
X151275489Y-106534511D02*
X151275489Y-103994511D01*
X151275489Y-103994511D02*
X152400000Y-102870000D01*
X147136511Y-110673489D02*
X151275489Y-106534511D01*
X128425031Y-95130873D02*
X143967647Y-110673489D01*
X143967647Y-110673489D02*
X147136511Y-110673489D01*
X128425031Y-90579031D02*
X128425031Y-95130873D01*
X126651000Y-88805000D02*
X128425031Y-90579031D01*
D32*
%TO.N,Vin*%
X185775000Y-98465000D02*
X185895000Y-98585000D01*
X185775000Y-96520000D02*
X185775000Y-98465000D01*
X186370000Y-96520000D02*
X185775000Y-96520000D01*
X187165000Y-97315000D02*
X186370000Y-96520000D01*
X187960000Y-101600000D02*
X187065000Y-101600000D01*
X190500000Y-99060000D02*
X189605000Y-99060000D01*
X185895000Y-98585000D02*
X186370000Y-99060000D01*
%TO.N,GND*%
X183655000Y-93980000D02*
X183890000Y-93745000D01*
X180340000Y-93980000D02*
X183655000Y-93980000D01*
X180340000Y-96520000D02*
X181115000Y-96520000D01*
X181115000Y-96520000D02*
X183890000Y-93745000D01*
X183650000Y-132080000D02*
X183885000Y-131845000D01*
X180340000Y-132080000D02*
X183650000Y-132080000D01*
X181110000Y-134620000D02*
X180340000Y-134620000D01*
X183885000Y-131845000D02*
X181110000Y-134620000D01*
D30*
X135985000Y-125825000D02*
X127310000Y-125825000D01*
X139700000Y-129540000D02*
X135985000Y-125825000D01*
X175260000Y-72130000D02*
X175260000Y-81280000D01*
D31*
%TO.N,Nic1*%
X170180000Y-123190000D02*
X167640000Y-125730000D01*
X175260000Y-91440000D02*
X170180000Y-96520000D01*
X179365000Y-91440000D02*
X175260000Y-91440000D01*
X182140000Y-88665000D02*
X179365000Y-91440000D01*
X170180000Y-96520000D02*
X170180000Y-123190000D01*
X183890000Y-88665000D02*
X182140000Y-88665000D01*
D32*
%TO.N,GND*%
X172720000Y-86360000D02*
X177800000Y-86360000D01*
X175260000Y-86360000D02*
X172720000Y-86360000D01*
X177800000Y-86360000D02*
X177800000Y-83820000D01*
X177800000Y-88900000D02*
X177800000Y-86360000D01*
X175260000Y-88900000D02*
X177800000Y-86360000D01*
X172720000Y-86360000D02*
X172720000Y-83820000D01*
X175260000Y-88900000D02*
X172720000Y-86360000D01*
X172720000Y-88900000D02*
X172720000Y-86360000D01*
X175260000Y-86360000D02*
X177800000Y-88900000D01*
X172720000Y-88900000D02*
X175260000Y-86360000D01*
X175260000Y-88900000D02*
X175260000Y-81280000D01*
X172720000Y-88900000D02*
X175260000Y-88900000D01*
X177800000Y-88900000D02*
X175260000Y-88900000D01*
X177800000Y-93980000D02*
X180340000Y-96520000D01*
X175260000Y-93980000D02*
X177800000Y-96520000D01*
X180340000Y-93980000D02*
X180340000Y-96520000D01*
X180340000Y-96520000D02*
X177800000Y-96520000D01*
X175260000Y-96520000D02*
X177800000Y-96520000D01*
X175260000Y-93980000D02*
X175260000Y-96520000D01*
X177800000Y-93980000D02*
X175260000Y-93980000D01*
X180340000Y-93980000D02*
X177800000Y-93980000D01*
X177800000Y-132080000D02*
X180340000Y-134620000D01*
X175260000Y-132080000D02*
X177800000Y-134620000D01*
X180340000Y-134620000D02*
X180340000Y-132080000D01*
X177800000Y-134620000D02*
X180340000Y-134620000D01*
X175260000Y-134620000D02*
X177800000Y-134620000D01*
X175260000Y-132080000D02*
X175260000Y-134620000D01*
X177800000Y-132080000D02*
X175260000Y-132080000D01*
X180340000Y-132080000D02*
X177800000Y-132080000D01*
D30*
%TO.N,5v pwr*%
X116138110Y-83725000D02*
X126651000Y-83725000D01*
X106583489Y-74170379D02*
X116138110Y-83725000D01*
X106583489Y-72959621D02*
X106583489Y-74170379D01*
X109789621Y-69753489D02*
X106583489Y-72959621D01*
X114396511Y-69753489D02*
X109789621Y-69753489D01*
X134620000Y-114300000D02*
X145955000Y-114300000D01*
X124951489Y-104631489D02*
X134620000Y-114300000D01*
X124951489Y-104631489D02*
X124951489Y-120926489D01*
D31*
%TO.N,SDA*%
X147491031Y-81771331D02*
X147491031Y-76371031D01*
X151934211Y-86214511D02*
X147491031Y-81771331D01*
X152862573Y-86214511D02*
X151934211Y-86214511D01*
X153974031Y-87325969D02*
X152862573Y-86214511D01*
X153974031Y-96215969D02*
X153974031Y-87325969D01*
X147491031Y-76371031D02*
X145955000Y-74835000D01*
X152400000Y-97790000D02*
X153974031Y-96215969D01*
%TO.N,SCL*%
X147041511Y-78461511D02*
X145955000Y-77375000D01*
X147041511Y-86401811D02*
X147041511Y-78461511D01*
X152079700Y-91440000D02*
X147041511Y-86401811D01*
X152720300Y-91440000D02*
X152079700Y-91440000D01*
X153524511Y-92244211D02*
X152720300Y-91440000D01*
X153524511Y-94125489D02*
X153524511Y-92244211D01*
X152400000Y-95250000D02*
X153524511Y-94125489D01*
%TO.N,3v3 pwr*%
X147624521Y-91744521D02*
X145955000Y-90075000D01*
X149860000Y-99060000D02*
X147624521Y-96824521D01*
X152720300Y-99060000D02*
X149860000Y-99060000D01*
X154940000Y-101279700D02*
X152720300Y-99060000D01*
X154940000Y-107950000D02*
X154940000Y-101279700D01*
X147624521Y-96824521D02*
X147624521Y-91744521D01*
X152400000Y-110490000D02*
X154940000Y-107950000D01*
%TO.N,SCL*%
X147041511Y-105593489D02*
X145955000Y-106680000D01*
X147041511Y-100782973D02*
X147041511Y-105593489D01*
X146405049Y-100146511D02*
X147041511Y-100782973D01*
X144285479Y-98927039D02*
X145504951Y-100146511D01*
X144285479Y-79044521D02*
X144285479Y-98927039D01*
X145955000Y-77375000D02*
X144285479Y-79044521D01*
X145504951Y-100146511D02*
X146405049Y-100146511D01*
D32*
%TO.N,Net-(Q1-Pad2)*%
X195810000Y-117075000D02*
X193035000Y-119850000D01*
X193035000Y-119850000D02*
X193035000Y-129305000D01*
D31*
%TO.N,Nic2*%
X167640000Y-128270000D02*
X182380000Y-128270000D01*
X182380000Y-128270000D02*
X183885000Y-126765000D01*
D32*
%TO.N,Net-(Q2-Pad2)*%
X195810000Y-101640000D02*
X195810000Y-93975000D01*
D31*
X195810000Y-93975000D02*
X193040000Y-91205000D01*
D32*
%TO.N,Net-(R1-Pad1)*%
X187065000Y-119380000D02*
X191322500Y-115122500D01*
X195810000Y-110635000D02*
X195810000Y-104140000D01*
D30*
X187065000Y-106680000D02*
X187065000Y-108090000D01*
D32*
X192710000Y-113735000D02*
X195810000Y-110635000D01*
D30*
X187065000Y-108090000D02*
X192710000Y-113735000D01*
D31*
X191870000Y-114575000D02*
X191322500Y-115122500D01*
D32*
X195810000Y-114575000D02*
X191870000Y-114575000D01*
X191322500Y-115122500D02*
X192710000Y-113735000D01*
D30*
%TO.N,5v pwr*%
X172720000Y-72130000D02*
X172720000Y-72390000D01*
X133253489Y-69753489D02*
X114396511Y-69753489D01*
X163925000Y-71215000D02*
X167640000Y-74930000D01*
X172720000Y-72390000D02*
X170180000Y-74930000D01*
X162465000Y-71215000D02*
X161003489Y-69753489D01*
X161003489Y-69753489D02*
X133253489Y-69753489D01*
X162465000Y-71215000D02*
X163925000Y-71215000D01*
X170180000Y-74930000D02*
X167640000Y-74930000D01*
X114396511Y-69753489D02*
X110585000Y-73565000D01*
X124951489Y-120926489D02*
X127310000Y-123285000D01*
D31*
%TO.N,Feedback*%
X157043533Y-77324511D02*
X150800511Y-71081489D01*
X118148511Y-71081489D02*
X115665000Y-73565000D01*
X167640000Y-82550000D02*
X162414511Y-77324511D01*
X150800511Y-71081489D02*
X118148511Y-71081489D01*
X162414511Y-77324511D02*
X157043533Y-77324511D01*
%TO.N,Net-(U1-Pad11)*%
X148453189Y-112846511D02*
X152079700Y-109220000D01*
X154490480Y-107449820D02*
X154490480Y-102420480D01*
X145504951Y-112846511D02*
X148453189Y-112846511D01*
X127975511Y-95317071D02*
X145504951Y-112846511D01*
X152079700Y-109220000D02*
X152720300Y-109220000D01*
X152720300Y-109220000D02*
X154490480Y-107449820D01*
X127975511Y-92669511D02*
X127975511Y-95317071D01*
X126651000Y-91345000D02*
X127975511Y-92669511D01*
X154490480Y-102420480D02*
X152400000Y-100330000D01*
%TO.N,Net-(U1-Pad25)*%
X147600000Y-131800000D02*
X147600000Y-129540000D01*
X150140000Y-132080000D02*
X152720300Y-132080000D01*
X152720300Y-132080000D02*
X154940000Y-129860300D01*
X154940000Y-129860300D02*
X154940000Y-120650000D01*
X147600000Y-129540000D02*
X150140000Y-132080000D01*
X134964511Y-134964511D02*
X144435489Y-134964511D01*
X131800000Y-129540000D02*
X131800000Y-131800000D01*
X144435489Y-134964511D02*
X147600000Y-131800000D01*
X131800000Y-131800000D02*
X134964511Y-134964511D01*
D32*
%TO.N,Vin*%
X190500000Y-101600000D02*
X187960000Y-101600000D01*
X191450000Y-101600000D02*
X190500000Y-101600000D01*
X185775000Y-78700000D02*
X185380000Y-78700000D01*
X186370000Y-99060000D02*
X187960000Y-99060000D01*
D30*
X178810000Y-72130000D02*
X177800000Y-72130000D01*
X185380000Y-78700000D02*
X178810000Y-72130000D01*
D32*
X190755000Y-101600000D02*
X188910000Y-99755000D01*
X187960000Y-99060000D02*
X190500000Y-99060000D01*
X191450000Y-101600000D02*
X191450000Y-99060000D01*
X186370000Y-100905000D02*
X187065000Y-101600000D01*
X187165000Y-97315000D02*
X188910000Y-99060000D01*
X191450000Y-101600000D02*
X190755000Y-101600000D01*
X188910000Y-99060000D02*
X188910000Y-99755000D01*
X186370000Y-99060000D02*
X186370000Y-100905000D01*
X188910000Y-99755000D02*
X187065000Y-101600000D01*
X191450000Y-99060000D02*
X190500000Y-99060000D01*
X190500000Y-99060000D02*
X191450000Y-99060000D01*
%TO.N,Net-(R1-Pad3)*%
X177915000Y-104140000D02*
X187065000Y-113290000D01*
X187065000Y-104140000D02*
X177915000Y-104140000D01*
X187065000Y-113290000D02*
X187065000Y-114300000D01*
D31*
%TO.N,Xbee DIn*%
X127310000Y-118205000D02*
X128071999Y-118966999D01*
X128071999Y-118966999D02*
X151543001Y-118966999D01*
X151543001Y-118966999D02*
X152400000Y-118110000D01*
%TO.N,Xbee DOut*%
X127310000Y-120745000D02*
X152305000Y-120745000D01*
X152305000Y-120745000D02*
X152400000Y-120650000D01*
%TD*%
M02*
