%TF.GenerationSoftware,KiCad,Pcbnew,(6.0.5)*%
%TF.CreationDate,2023-01-08T16:18:02-05:00*%
%TF.ProjectId,GHOUL2,47484f55-4c32-42e6-9b69-6361645f7063,rev?*%
%TF.SameCoordinates,Original*%
%TF.FileFunction,Soldermask,Bot*%
%TF.FilePolarity,Negative*%
%FSLAX46Y46*%
G04 Gerber Fmt 4.6, Leading zero omitted, Abs format (unit mm)*
G04 Created by KiCad (PCBNEW (6.0.5)) date 2023-01-08 16:18:02*
%MOMM*%
%LPD*%
G01*
G04 APERTURE LIST*
G04 Aperture macros list*
%AMRoundRect*
0 Rectangle with rounded corners*
0 $1 Rounding radius*
0 $2 $3 $4 $5 $6 $7 $8 $9 X,Y pos of 4 corners*
0 Add a 4 corners polygon primitive as box body*
4,1,4,$2,$3,$4,$5,$6,$7,$8,$9,$2,$3,0*
0 Add four circle primitives for the rounded corners*
1,1,$1+$1,$2,$3*
1,1,$1+$1,$4,$5*
1,1,$1+$1,$6,$7*
1,1,$1+$1,$8,$9*
0 Add four rect primitives between the rounded corners*
20,1,$1+$1,$2,$3,$4,$5,0*
20,1,$1+$1,$4,$5,$6,$7,0*
20,1,$1+$1,$6,$7,$8,$9,0*
20,1,$1+$1,$8,$9,$2,$3,0*%
G04 Aperture macros list end*
%ADD10C,1.524000*%
%ADD11C,4.318000*%
%ADD12R,1.600000X1.600000*%
%ADD13C,1.600000*%
%ADD14C,2.540000*%
%ADD15C,2.550000*%
%ADD16C,3.000000*%
%ADD17RoundRect,0.250000X0.750000X-0.600000X0.750000X0.600000X-0.750000X0.600000X-0.750000X-0.600000X0*%
%ADD18O,2.000000X1.700000*%
%ADD19C,2.000000*%
%ADD20C,3.500000*%
%ADD21R,3.500000X3.500000*%
%ADD22C,1.400000*%
G04 APERTURE END LIST*
D10*
%TO.C,U10*%
X145955000Y-90075000D03*
X145955000Y-87535000D03*
X145955000Y-84995000D03*
X145955000Y-82455000D03*
X145955000Y-79915000D03*
X145955000Y-77375000D03*
X145955000Y-74835000D03*
X145955000Y-72295000D03*
D11*
X133255000Y-88805000D03*
X133255000Y-73565000D03*
%TD*%
D12*
%TO.C,U1*%
X152400000Y-74930000D03*
D13*
X152400000Y-77470000D03*
X152400000Y-80010000D03*
X152400000Y-82550000D03*
X152400000Y-85090000D03*
X152400000Y-87630000D03*
X152400000Y-90170000D03*
X152400000Y-92710000D03*
X152400000Y-95250000D03*
X152400000Y-97790000D03*
X152400000Y-100330000D03*
X152400000Y-102870000D03*
X152400000Y-105410000D03*
X152400000Y-107950000D03*
X152400000Y-110490000D03*
X152400000Y-113030000D03*
X152400000Y-115570000D03*
X152400000Y-118110000D03*
X152400000Y-120650000D03*
X152400000Y-123190000D03*
X152400000Y-125730000D03*
X152400000Y-128270000D03*
X152400000Y-130810000D03*
X152400000Y-133350000D03*
X154940000Y-120650000D03*
X157480000Y-120650000D03*
X160020000Y-120650000D03*
X162560000Y-120650000D03*
X165100000Y-120650000D03*
X167640000Y-133350000D03*
X167640000Y-130810000D03*
X167640000Y-128270000D03*
X167640000Y-125730000D03*
X167640000Y-123190000D03*
X167640000Y-120650000D03*
X167640000Y-118110000D03*
X167640000Y-115570000D03*
X167640000Y-113030000D03*
X167640000Y-110490000D03*
X167640000Y-107950000D03*
X167640000Y-105410000D03*
X167640000Y-102870000D03*
X167640000Y-100330000D03*
X167640000Y-97790000D03*
X167640000Y-95250000D03*
X167640000Y-92710000D03*
X167640000Y-90170000D03*
X167640000Y-87630000D03*
X167640000Y-85090000D03*
X167640000Y-82550000D03*
X167640000Y-80010000D03*
X167640000Y-77470000D03*
X167640000Y-74930000D03*
X165100000Y-77470000D03*
X165100000Y-82550000D03*
X165100000Y-85090000D03*
X165100000Y-87630000D03*
X155400000Y-81280000D03*
X155400000Y-83820000D03*
X155400000Y-86360000D03*
X155400000Y-88900000D03*
X155400000Y-91440000D03*
X160020000Y-90170000D03*
X160020000Y-92710000D03*
X160020000Y-95250000D03*
X160020000Y-97790000D03*
X160020000Y-113030000D03*
X160020000Y-115570000D03*
X160020000Y-118110000D03*
X160020000Y-123190000D03*
X160020000Y-125730000D03*
X160020000Y-128270000D03*
X160020000Y-130810000D03*
X160020000Y-133350000D03*
X162560000Y-133350000D03*
X162560000Y-130810000D03*
X162560000Y-128270000D03*
X162560000Y-125730000D03*
X162560000Y-123190000D03*
X162560000Y-118110000D03*
X162560000Y-115570000D03*
X162560000Y-113030000D03*
X162560000Y-97790000D03*
X162560000Y-95250000D03*
X162560000Y-92710000D03*
X162560000Y-90170000D03*
X161030000Y-76200000D03*
X159010000Y-76200000D03*
%TD*%
D14*
%TO.C,U3*%
X145955000Y-96520000D03*
D15*
X145955000Y-116840000D03*
D16*
X133255000Y-116840000D03*
X133255000Y-96520000D03*
D10*
X145955000Y-99060000D03*
X145955000Y-101600000D03*
X145955000Y-104140000D03*
X145955000Y-106680000D03*
X145955000Y-109220000D03*
X145955000Y-111760000D03*
X145955000Y-114300000D03*
%TD*%
%TO.C,C1*%
X162465000Y-71215000D03*
X157385000Y-71215000D03*
%TD*%
%TO.C,U4*%
X108045000Y-73565000D03*
X110585000Y-73565000D03*
X113125000Y-73565000D03*
X115665000Y-73565000D03*
%TD*%
D17*
%TO.C,U6*%
X195810000Y-104140000D03*
D18*
X195810000Y-101640000D03*
%TD*%
D10*
%TO.C,U8*%
X127310000Y-125825000D03*
X127310000Y-123285000D03*
X127310000Y-120745000D03*
X127310000Y-118205000D03*
X127310000Y-128365000D03*
X127310000Y-115665000D03*
X99370000Y-115665000D03*
X99370000Y-128365000D03*
%TD*%
D14*
%TO.C,U7*%
X97187000Y-81185000D03*
X97187000Y-101505000D03*
D19*
X126651000Y-81185000D03*
X126651000Y-83725000D03*
X126651000Y-86265000D03*
X126651000Y-88805000D03*
X126651000Y-91345000D03*
X126651000Y-93885000D03*
X126651000Y-96425000D03*
X126651000Y-98965000D03*
X126651000Y-101505000D03*
%TD*%
D18*
%TO.C,U9*%
X195810000Y-114575000D03*
D17*
X195810000Y-117075000D03*
%TD*%
D20*
%TO.C,J1*%
X185775000Y-78700000D03*
D21*
X185775000Y-73700000D03*
D22*
X195775000Y-81700000D03*
X195775000Y-70700000D03*
%TD*%
M02*
