%TF.GenerationSoftware,KiCad,Pcbnew,7.0.5-0*%
%TF.CreationDate,2024-02-07T21:38:44-05:00*%
%TF.ProjectId,GHOUL-2024-0,47484f55-4c2d-4323-9032-342d302e6b69,rev?*%
%TF.SameCoordinates,Original*%
%TF.FileFunction,Profile,NP*%
%FSLAX46Y46*%
G04 Gerber Fmt 4.6, Leading zero omitted, Abs format (unit mm)*
G04 Created by KiCad (PCBNEW 7.0.5-0) date 2024-02-07 21:38:44*
%MOMM*%
%LPD*%
G01*
G04 APERTURE LIST*
%TA.AperFunction,Profile*%
%ADD10C,0.100000*%
%TD*%
G04 APERTURE END LIST*
D10*
X139630000Y-82970000D02*
G75*
G03*
X138130000Y-81470000I-1500000J0D01*
G01*
X178130000Y-146970000D02*
X169630000Y-146970000D01*
X178630000Y-81470000D02*
X175130000Y-81470000D01*
X139630000Y-85470000D02*
G75*
G03*
X141130000Y-86970000I1500000J0D01*
G01*
X180130000Y-82970000D02*
G75*
G03*
X178630000Y-81470000I-1500000J0D01*
G01*
X134630000Y-81470000D02*
G75*
G03*
X133130000Y-82970000I0J-1500000D01*
G01*
X138630000Y-152470000D02*
G75*
G03*
X140130000Y-150970000I0J1500000D01*
G01*
X141630000Y-147366400D02*
G75*
G03*
X140130000Y-148866447I0J-1500000D01*
G01*
X139630000Y-85470000D02*
X139630000Y-82970000D01*
X180130000Y-144970000D02*
X180130000Y-82970000D01*
X178130000Y-146970000D02*
G75*
G03*
X180130000Y-144970000I0J2000000D01*
G01*
X161130000Y-148970000D02*
X161130000Y-150970000D01*
X168130000Y-148470000D02*
X168130000Y-150970000D01*
X159526447Y-147366447D02*
X141630000Y-147366447D01*
X173630000Y-82970000D02*
X173630000Y-85470000D01*
X161130000Y-150970000D02*
G75*
G03*
X162630000Y-152470000I1500000J0D01*
G01*
X134630000Y-81470000D02*
X138130000Y-81470000D01*
X140130000Y-148866447D02*
X140130000Y-150970000D01*
X166630000Y-152470000D02*
G75*
G03*
X168130000Y-150970000I0J1500000D01*
G01*
X133130000Y-82970000D02*
X133130000Y-150970000D01*
X175130000Y-81470000D02*
G75*
G03*
X173630000Y-82970000I0J-1500000D01*
G01*
X133130000Y-150970000D02*
G75*
G03*
X134630000Y-152470000I1500000J0D01*
G01*
X172130000Y-86970000D02*
G75*
G03*
X173630000Y-85470000I0J1500000D01*
G01*
X166630000Y-152470000D02*
X162630000Y-152470000D01*
X172130000Y-86970000D02*
X141130000Y-86970000D01*
X161129953Y-148970000D02*
G75*
G03*
X159526447Y-147366447I-1603553J0D01*
G01*
X169630000Y-146970000D02*
G75*
G03*
X168130000Y-148470000I0J-1500000D01*
G01*
X138630000Y-152470000D02*
X134630000Y-152470000D01*
M02*
