%TF.GenerationSoftware,KiCad,Pcbnew,7.0.5-0*%
%TF.CreationDate,2024-02-07T21:38:44-05:00*%
%TF.ProjectId,GHOUL-2024-0,47484f55-4c2d-4323-9032-342d302e6b69,rev?*%
%TF.SameCoordinates,Original*%
%TF.FileFunction,Copper,L1,Top*%
%TF.FilePolarity,Positive*%
%FSLAX46Y46*%
G04 Gerber Fmt 4.6, Leading zero omitted, Abs format (unit mm)*
G04 Created by KiCad (PCBNEW 7.0.5-0) date 2024-02-07 21:38:44*
%MOMM*%
%LPD*%
G01*
G04 APERTURE LIST*
G04 Aperture macros list*
%AMRoundRect*
0 Rectangle with rounded corners*
0 $1 Rounding radius*
0 $2 $3 $4 $5 $6 $7 $8 $9 X,Y pos of 4 corners*
0 Add a 4 corners polygon primitive as box body*
4,1,4,$2,$3,$4,$5,$6,$7,$8,$9,$2,$3,0*
0 Add four circle primitives for the rounded corners*
1,1,$1+$1,$2,$3*
1,1,$1+$1,$4,$5*
1,1,$1+$1,$6,$7*
1,1,$1+$1,$8,$9*
0 Add four rect primitives between the rounded corners*
20,1,$1+$1,$2,$3,$4,$5,0*
20,1,$1+$1,$4,$5,$6,$7,0*
20,1,$1+$1,$6,$7,$8,$9,0*
20,1,$1+$1,$8,$9,$2,$3,0*%
%AMFreePoly0*
4,1,12,0.600035,0.600035,0.600050,0.600000,0.600050,-1.800000,0.600036,-1.800036,0.600000,-1.800050,0.599965,-1.800036,-1.800035,0.599965,-1.800050,0.600000,-1.800035,0.600035,-1.800000,0.600050,0.600000,0.600050,0.600035,0.600035,0.600035,0.600035,$1*%
G04 Aperture macros list end*
%TA.AperFunction,SMDPad,CuDef*%
%ADD10RoundRect,0.200000X0.275000X-0.200000X0.275000X0.200000X-0.275000X0.200000X-0.275000X-0.200000X0*%
%TD*%
%TA.AperFunction,SMDPad,CuDef*%
%ADD11R,0.399999X1.050000*%
%TD*%
%TA.AperFunction,SMDPad,CuDef*%
%ADD12R,0.599999X0.200000*%
%TD*%
%TA.AperFunction,SMDPad,CuDef*%
%ADD13RoundRect,0.225000X0.225000X0.250000X-0.225000X0.250000X-0.225000X-0.250000X0.225000X-0.250000X0*%
%TD*%
%TA.AperFunction,SMDPad,CuDef*%
%ADD14RoundRect,0.200000X-0.275000X0.200000X-0.275000X-0.200000X0.275000X-0.200000X0.275000X0.200000X0*%
%TD*%
%TA.AperFunction,SMDPad,CuDef*%
%ADD15RoundRect,0.200000X0.200000X0.275000X-0.200000X0.275000X-0.200000X-0.275000X0.200000X-0.275000X0*%
%TD*%
%TA.AperFunction,SMDPad,CuDef*%
%ADD16RoundRect,0.140000X-0.140000X-0.170000X0.140000X-0.170000X0.140000X0.170000X-0.140000X0.170000X0*%
%TD*%
%TA.AperFunction,SMDPad,CuDef*%
%ADD17RoundRect,0.218750X-0.218750X-0.256250X0.218750X-0.256250X0.218750X0.256250X-0.218750X0.256250X0*%
%TD*%
%TA.AperFunction,ComponentPad*%
%ADD18C,4.400000*%
%TD*%
%TA.AperFunction,SMDPad,CuDef*%
%ADD19R,1.150000X0.600000*%
%TD*%
%TA.AperFunction,SMDPad,CuDef*%
%ADD20R,1.150000X0.300000*%
%TD*%
%TA.AperFunction,ComponentPad*%
%ADD21O,2.100000X1.000000*%
%TD*%
%TA.AperFunction,ComponentPad*%
%ADD22O,1.800000X1.000000*%
%TD*%
%TA.AperFunction,SMDPad,CuDef*%
%ADD23RoundRect,0.250000X0.250000X0.475000X-0.250000X0.475000X-0.250000X-0.475000X0.250000X-0.475000X0*%
%TD*%
%TA.AperFunction,SMDPad,CuDef*%
%ADD24RoundRect,0.140000X0.140000X0.170000X-0.140000X0.170000X-0.140000X-0.170000X0.140000X-0.170000X0*%
%TD*%
%TA.AperFunction,SMDPad,CuDef*%
%ADD25RoundRect,0.225000X-0.225000X-0.250000X0.225000X-0.250000X0.225000X0.250000X-0.225000X0.250000X0*%
%TD*%
%TA.AperFunction,SMDPad,CuDef*%
%ADD26RoundRect,0.225000X-0.250000X0.225000X-0.250000X-0.225000X0.250000X-0.225000X0.250000X0.225000X0*%
%TD*%
%TA.AperFunction,SMDPad,CuDef*%
%ADD27RoundRect,0.200000X-0.200000X-0.275000X0.200000X-0.275000X0.200000X0.275000X-0.200000X0.275000X0*%
%TD*%
%TA.AperFunction,SMDPad,CuDef*%
%ADD28RoundRect,0.250000X0.375000X1.075000X-0.375000X1.075000X-0.375000X-1.075000X0.375000X-1.075000X0*%
%TD*%
%TA.AperFunction,SMDPad,CuDef*%
%ADD29R,0.900000X0.800000*%
%TD*%
%TA.AperFunction,SMDPad,CuDef*%
%ADD30RoundRect,0.250000X0.650000X-0.325000X0.650000X0.325000X-0.650000X0.325000X-0.650000X-0.325000X0*%
%TD*%
%TA.AperFunction,SMDPad,CuDef*%
%ADD31RoundRect,0.140000X-0.021213X0.219203X-0.219203X0.021213X0.021213X-0.219203X0.219203X-0.021213X0*%
%TD*%
%TA.AperFunction,SMDPad,CuDef*%
%ADD32RoundRect,0.250000X1.075000X-0.375000X1.075000X0.375000X-1.075000X0.375000X-1.075000X-0.375000X0*%
%TD*%
%TA.AperFunction,SMDPad,CuDef*%
%ADD33RoundRect,0.140000X0.170000X-0.140000X0.170000X0.140000X-0.170000X0.140000X-0.170000X-0.140000X0*%
%TD*%
%TA.AperFunction,SMDPad,CuDef*%
%ADD34RoundRect,0.150000X-0.512500X-0.150000X0.512500X-0.150000X0.512500X0.150000X-0.512500X0.150000X0*%
%TD*%
%TA.AperFunction,SMDPad,CuDef*%
%ADD35R,2.259800X1.362800*%
%TD*%
%TA.AperFunction,SMDPad,CuDef*%
%ADD36R,1.100000X0.500000*%
%TD*%
%TA.AperFunction,SMDPad,CuDef*%
%ADD37R,3.400000X4.300000*%
%TD*%
%TA.AperFunction,ComponentPad*%
%ADD38R,1.700000X1.700000*%
%TD*%
%TA.AperFunction,ComponentPad*%
%ADD39O,1.700000X1.700000*%
%TD*%
%TA.AperFunction,SMDPad,CuDef*%
%ADD40RoundRect,0.250000X-0.325000X-0.650000X0.325000X-0.650000X0.325000X0.650000X-0.325000X0.650000X0*%
%TD*%
%TA.AperFunction,SMDPad,CuDef*%
%ADD41RoundRect,0.250000X-0.250000X-0.475000X0.250000X-0.475000X0.250000X0.475000X-0.250000X0.475000X0*%
%TD*%
%TA.AperFunction,SMDPad,CuDef*%
%ADD42C,0.660400*%
%TD*%
%TA.AperFunction,ComponentPad*%
%ADD43RoundRect,0.250000X-0.620000X0.620000X-0.620000X-0.620000X0.620000X-0.620000X0.620000X0.620000X0*%
%TD*%
%TA.AperFunction,ComponentPad*%
%ADD44C,1.740000*%
%TD*%
%TA.AperFunction,SMDPad,CuDef*%
%ADD45R,0.900000X1.000000*%
%TD*%
%TA.AperFunction,SMDPad,CuDef*%
%ADD46R,0.550000X0.950000*%
%TD*%
%TA.AperFunction,SMDPad,CuDef*%
%ADD47RoundRect,0.140000X-0.170000X0.140000X-0.170000X-0.140000X0.170000X-0.140000X0.170000X0.140000X0*%
%TD*%
%TA.AperFunction,ComponentPad*%
%ADD48C,2.000000*%
%TD*%
%TA.AperFunction,ComponentPad*%
%ADD49C,1.400000*%
%TD*%
%TA.AperFunction,ComponentPad*%
%ADD50R,3.500000X3.500000*%
%TD*%
%TA.AperFunction,ComponentPad*%
%ADD51C,3.500000*%
%TD*%
%TA.AperFunction,SMDPad,CuDef*%
%ADD52C,0.200000*%
%TD*%
%TA.AperFunction,SMDPad,CuDef*%
%ADD53RoundRect,0.050000X-0.387500X-0.050000X0.387500X-0.050000X0.387500X0.050000X-0.387500X0.050000X0*%
%TD*%
%TA.AperFunction,SMDPad,CuDef*%
%ADD54RoundRect,0.050000X-0.050000X-0.387500X0.050000X-0.387500X0.050000X0.387500X-0.050000X0.387500X0*%
%TD*%
%TA.AperFunction,ComponentPad*%
%ADD55C,0.600000*%
%TD*%
%TA.AperFunction,SMDPad,CuDef*%
%ADD56RoundRect,0.144000X-1.456000X-1.456000X1.456000X-1.456000X1.456000X1.456000X-1.456000X1.456000X0*%
%TD*%
%TA.AperFunction,SMDPad,CuDef*%
%ADD57RoundRect,0.237500X0.237500X-0.250000X0.237500X0.250000X-0.237500X0.250000X-0.237500X-0.250000X0*%
%TD*%
%TA.AperFunction,SMDPad,CuDef*%
%ADD58FreePoly0,270.000000*%
%TD*%
%TA.AperFunction,SMDPad,CuDef*%
%ADD59R,1.700000X4.100000*%
%TD*%
%TA.AperFunction,SMDPad,CuDef*%
%ADD60RoundRect,0.250000X-0.300000X-0.300000X0.300000X-0.300000X0.300000X0.300000X-0.300000X0.300000X0*%
%TD*%
%TA.AperFunction,SMDPad,CuDef*%
%ADD61O,0.800000X1.500000*%
%TD*%
%TA.AperFunction,SMDPad,CuDef*%
%ADD62R,1.000000X1.150000*%
%TD*%
%TA.AperFunction,SMDPad,CuDef*%
%ADD63R,0.811200X1.406398*%
%TD*%
%TA.AperFunction,SMDPad,CuDef*%
%ADD64R,0.804800X0.300000*%
%TD*%
%TA.AperFunction,SMDPad,CuDef*%
%ADD65R,1.050000X1.400000*%
%TD*%
%TA.AperFunction,SMDPad,CuDef*%
%ADD66R,1.397000X1.193800*%
%TD*%
%TA.AperFunction,SMDPad,CuDef*%
%ADD67RoundRect,0.175000X-0.725000X-0.175000X0.725000X-0.175000X0.725000X0.175000X-0.725000X0.175000X0*%
%TD*%
%TA.AperFunction,SMDPad,CuDef*%
%ADD68RoundRect,0.200000X-0.700000X-0.200000X0.700000X-0.200000X0.700000X0.200000X-0.700000X0.200000X0*%
%TD*%
%TA.AperFunction,SMDPad,CuDef*%
%ADD69R,0.299999X0.449999*%
%TD*%
%TA.AperFunction,SMDPad,CuDef*%
%ADD70R,1.599999X1.000000*%
%TD*%
%TA.AperFunction,ComponentPad*%
%ADD71RoundRect,0.250000X0.620000X-0.620000X0.620000X0.620000X-0.620000X0.620000X-0.620000X-0.620000X0*%
%TD*%
%TA.AperFunction,ViaPad*%
%ADD72C,0.450000*%
%TD*%
%TA.AperFunction,ViaPad*%
%ADD73C,0.750000*%
%TD*%
%TA.AperFunction,ViaPad*%
%ADD74C,0.600000*%
%TD*%
%TA.AperFunction,ViaPad*%
%ADD75C,1.000000*%
%TD*%
%TA.AperFunction,ViaPad*%
%ADD76C,0.800000*%
%TD*%
%TA.AperFunction,Conductor*%
%ADD77C,0.200000*%
%TD*%
%TA.AperFunction,Conductor*%
%ADD78C,0.240000*%
%TD*%
%TA.AperFunction,Conductor*%
%ADD79C,0.250000*%
%TD*%
%TA.AperFunction,Conductor*%
%ADD80C,0.450000*%
%TD*%
%TA.AperFunction,Conductor*%
%ADD81C,0.600000*%
%TD*%
%TA.AperFunction,Conductor*%
%ADD82C,1.000000*%
%TD*%
%TA.AperFunction,Conductor*%
%ADD83C,0.800000*%
%TD*%
%TA.AperFunction,Conductor*%
%ADD84C,0.400000*%
%TD*%
%TA.AperFunction,Conductor*%
%ADD85C,0.750000*%
%TD*%
%TA.AperFunction,Conductor*%
%ADD86C,0.300000*%
%TD*%
%TA.AperFunction,Conductor*%
%ADD87C,0.500000*%
%TD*%
G04 APERTURE END LIST*
D10*
%TO.P,R26,1*%
%TO.N,Net-(U10-FREQ)*%
X151980000Y-95355000D03*
%TO.P,R26,2*%
%TO.N,GND*%
X151980000Y-93705000D03*
%TD*%
%TO.P,R2,1*%
%TO.N,+3V3*%
X154130000Y-125195000D03*
%TO.P,R2,2*%
%TO.N,Net-(U1-RUN)*%
X154130000Y-123545000D03*
%TD*%
D11*
%TO.P,U4,1,OUT*%
%TO.N,VCC*%
X158925002Y-92115000D03*
%TO.P,U4,2,IN2*%
%TO.N,+BATT*%
X159625001Y-92115000D03*
D12*
%TO.P,U4,3,CP2*%
%TO.N,GND*%
X160400000Y-92190001D03*
%TO.P,U4,4,OV2*%
%TO.N,Net-(U4-OV2)*%
X160400000Y-91690000D03*
%TO.P,U4,5,OV1*%
%TO.N,Net-(U4-OV1)*%
X160400000Y-91190000D03*
%TO.P,U4,6,PR1*%
%TO.N,GND*%
X160400000Y-90689999D03*
D11*
%TO.P,U4,7,IN1*%
%TO.N,VBUS*%
X159625001Y-90765000D03*
%TO.P,U4,8,OUT*%
%TO.N,VCC*%
X158925002Y-90765000D03*
D12*
%TO.P,U4,9,ST*%
%TO.N,GND*%
X158100002Y-90689999D03*
%TO.P,U4,10,ILM*%
%TO.N,Net-(U4-ILM)*%
X158100002Y-91190000D03*
%TO.P,U4,11,SS*%
%TO.N,Net-(U4-SS)*%
X158100002Y-91690000D03*
%TO.P,U4,12,GND*%
%TO.N,GND*%
X158100002Y-92190001D03*
%TD*%
D13*
%TO.P,C29,1*%
%TO.N,+3V3*%
X162945000Y-126380000D03*
%TO.P,C29,2*%
%TO.N,GND*%
X161395000Y-126380000D03*
%TD*%
D14*
%TO.P,R25,1*%
%TO.N,+3V3*%
X177080000Y-120745000D03*
%TO.P,R25,2*%
%TO.N,/SCL*%
X177080000Y-122395000D03*
%TD*%
D15*
%TO.P,R22,1*%
%TO.N,Net-(U10-FB2)*%
X149215000Y-98820000D03*
%TO.P,R22,2*%
%TO.N,GND*%
X147565000Y-98820000D03*
%TD*%
D16*
%TO.P,C13,1*%
%TO.N,+3V3*%
X157750000Y-119770000D03*
%TO.P,C13,2*%
%TO.N,GND*%
X158710000Y-119770000D03*
%TD*%
D17*
%TO.P,D6,1,K*%
%TO.N,Net-(D6-K)*%
X149590000Y-134760000D03*
%TO.P,D6,2,A*%
%TO.N,Net-(D6-A)*%
X151165000Y-134760000D03*
%TD*%
D18*
%TO.P,H4,1*%
%TO.N,N/C*%
X176630000Y-84470000D03*
%TD*%
D10*
%TO.P,R10,1*%
%TO.N,Net-(U4-OV2)*%
X163320000Y-90345000D03*
%TO.P,R10,2*%
%TO.N,GND*%
X163320000Y-88695000D03*
%TD*%
D19*
%TO.P,J1,A1,GND*%
%TO.N,GND*%
X172600000Y-112880000D03*
%TO.P,J1,A4,VBUS*%
%TO.N,VBUS*%
X172600000Y-112080000D03*
D20*
%TO.P,J1,A5,CC1*%
%TO.N,Net-(J1-CC1)*%
X172600000Y-110930000D03*
%TO.P,J1,A6,D+*%
%TO.N,Net-(J1-D+-PadA6)*%
X172600000Y-109930000D03*
%TO.P,J1,A7,D-*%
%TO.N,Net-(J1-D--PadA7)*%
X172600000Y-109430000D03*
%TO.P,J1,A8,SBU1*%
%TO.N,unconnected-(J1-SBU1-PadA8)*%
X172600000Y-108430000D03*
D19*
%TO.P,J1,A9,VBUS*%
%TO.N,VBUS*%
X172600000Y-107280000D03*
%TO.P,J1,A12,GND*%
%TO.N,GND*%
X172600000Y-106480000D03*
%TO.P,J1,B1,GND*%
X172600000Y-106480000D03*
%TO.P,J1,B4,VBUS*%
%TO.N,VBUS*%
X172600000Y-107280000D03*
D20*
%TO.P,J1,B5,CC2*%
%TO.N,Net-(J1-CC2)*%
X172600000Y-107930000D03*
%TO.P,J1,B6,D+*%
%TO.N,Net-(J1-D+-PadA6)*%
X172600000Y-108930000D03*
%TO.P,J1,B7,D-*%
%TO.N,Net-(J1-D--PadA7)*%
X172600000Y-110430000D03*
%TO.P,J1,B8,SBU2*%
%TO.N,unconnected-(J1-SBU2-PadB8)*%
X172600000Y-111430000D03*
D19*
%TO.P,J1,B9,VBUS*%
%TO.N,VBUS*%
X172600000Y-112080000D03*
%TO.P,J1,B12,GND*%
%TO.N,GND*%
X172600000Y-112880000D03*
D21*
%TO.P,J1,S1,SHIELD*%
X173175000Y-114000000D03*
D22*
X177355000Y-114000000D03*
D21*
X173175000Y-105360000D03*
D22*
X177355000Y-105360000D03*
%TD*%
D23*
%TO.P,C25,1*%
%TO.N,Net-(C25-Pad1)*%
X158210000Y-104610000D03*
%TO.P,C25,2*%
%TO.N,GND*%
X156310000Y-104610000D03*
%TD*%
D17*
%TO.P,D1,1,K*%
%TO.N,Net-(D1-K)*%
X149590000Y-131250000D03*
%TO.P,D1,2,A*%
%TO.N,Net-(D1-A)*%
X151165000Y-131250000D03*
%TD*%
D24*
%TO.P,C8,1*%
%TO.N,+3V3*%
X146710000Y-115120000D03*
%TO.P,C8,2*%
%TO.N,GND*%
X145750000Y-115120000D03*
%TD*%
D18*
%TO.P,H3,1*%
%TO.N,N/C*%
X164630000Y-149470000D03*
%TD*%
D25*
%TO.P,C28,1*%
%TO.N,VCC*%
X159795000Y-103830000D03*
%TO.P,C28,2*%
%TO.N,GND*%
X161345000Y-103830000D03*
%TD*%
D26*
%TO.P,C37,1*%
%TO.N,Net-(BT2-+)*%
X173730000Y-120035000D03*
%TO.P,C37,2*%
%TO.N,GND*%
X173730000Y-121585000D03*
%TD*%
D27*
%TO.P,R18,1*%
%TO.N,+3V3*%
X158185000Y-121870000D03*
%TO.P,R18,2*%
%TO.N,/SCL*%
X159835000Y-121870000D03*
%TD*%
D26*
%TO.P,C23,1*%
%TO.N,+3V3*%
X160460000Y-116965000D03*
%TO.P,C23,2*%
%TO.N,GND*%
X160460000Y-118515000D03*
%TD*%
D14*
%TO.P,R24,1*%
%TO.N,+3V3*%
X175420000Y-120745000D03*
%TO.P,R24,2*%
%TO.N,/SDA*%
X175420000Y-122395000D03*
%TD*%
D27*
%TO.P,R30,1*%
%TO.N,+3V3*%
X149582500Y-140210000D03*
%TO.P,R30,2*%
%TO.N,Net-(D5-A)*%
X151232500Y-140210000D03*
%TD*%
D26*
%TO.P,C35,1*%
%TO.N,+3V3*%
X178770000Y-120765000D03*
%TO.P,C35,2*%
%TO.N,GND*%
X178770000Y-122315000D03*
%TD*%
D28*
%TO.P,L2,1*%
%TO.N,+3V3*%
X162910000Y-106440000D03*
%TO.P,L2,2*%
%TO.N,Net-(C25-Pad1)*%
X160110000Y-106440000D03*
%TD*%
D29*
%TO.P,Q6,1,G*%
%TO.N,/HEATER1*%
X161830000Y-113870000D03*
%TO.P,Q6,2,S*%
%TO.N,GND*%
X161830000Y-111970000D03*
%TO.P,Q6,3,D*%
%TO.N,Net-(J7-Pin_2)*%
X159430000Y-112920000D03*
%TD*%
D17*
%TO.P,D5,1,K*%
%TO.N,Net-(D5-K)*%
X149630000Y-141760000D03*
%TO.P,D5,2,A*%
%TO.N,Net-(D5-A)*%
X151205000Y-141760000D03*
%TD*%
D27*
%TO.P,R29,1*%
%TO.N,+3V3*%
X149572500Y-143690000D03*
%TO.P,R29,2*%
%TO.N,Net-(D4-A)*%
X151222500Y-143690000D03*
%TD*%
D16*
%TO.P,C12,1*%
%TO.N,+3V3*%
X154900000Y-113870000D03*
%TO.P,C12,2*%
%TO.N,GND*%
X155860000Y-113870000D03*
%TD*%
%TO.P,C3,1*%
%TO.N,Net-(C3-Pad1)*%
X150100000Y-126570000D03*
%TO.P,C3,2*%
%TO.N,GND*%
X151060000Y-126570000D03*
%TD*%
D30*
%TO.P,C27,1*%
%TO.N,+3V3*%
X165340000Y-106705000D03*
%TO.P,C27,2*%
%TO.N,GND*%
X165340000Y-103755000D03*
%TD*%
D31*
%TO.P,C7,1*%
%TO.N,+3V3*%
X145630000Y-119770000D03*
%TO.P,C7,2*%
%TO.N,GND*%
X144951178Y-120448822D03*
%TD*%
D18*
%TO.P,H2,1,1*%
%TO.N,GND*%
X136630000Y-149470000D03*
%TD*%
D13*
%TO.P,C32,1*%
%TO.N,Net-(U10-TRACK{slash}SS2)*%
X150305000Y-100370000D03*
%TO.P,C32,2*%
%TO.N,GND*%
X148755000Y-100370000D03*
%TD*%
D32*
%TO.P,L1,1*%
%TO.N,+5V*%
X149810000Y-106460000D03*
%TO.P,L1,2*%
%TO.N,Net-(C26-Pad1)*%
X149810000Y-103660000D03*
%TD*%
D33*
%TO.P,C4,1*%
%TO.N,+1V1*%
X151010000Y-112880000D03*
%TO.P,C4,2*%
%TO.N,GND*%
X151010000Y-111920000D03*
%TD*%
D10*
%TO.P,R21,1*%
%TO.N,+3V3*%
X157800000Y-108295000D03*
%TO.P,R21,2*%
%TO.N,Net-(C25-Pad1)*%
X157800000Y-106645000D03*
%TD*%
D13*
%TO.P,C10,1*%
%TO.N,+BATT*%
X161505001Y-93934999D03*
%TO.P,C10,2*%
%TO.N,GND*%
X159955001Y-93934999D03*
%TD*%
D10*
%TO.P,R9,1*%
%TO.N,+BATT*%
X163330001Y-93439999D03*
%TO.P,R9,2*%
%TO.N,Net-(U4-OV2)*%
X163330001Y-91789999D03*
%TD*%
D34*
%TO.P,Q1,1,G*%
%TO.N,/LED5*%
X145550000Y-129830000D03*
%TO.P,Q1,2,S*%
%TO.N,GND*%
X145550000Y-131730000D03*
%TO.P,Q1,3,D*%
%TO.N,Net-(D1-K)*%
X147825000Y-130780000D03*
%TD*%
D16*
%TO.P,C15,1*%
%TO.N,+3V3*%
X156360000Y-115700000D03*
%TO.P,C15,2*%
%TO.N,GND*%
X157320000Y-115700000D03*
%TD*%
D35*
%TO.P,AE1,1,A*%
%TO.N,Net-(AE1-A)*%
X178230000Y-135827299D03*
%TO.P,AE1,2*%
%TO.N,N/C*%
X178230000Y-142752701D03*
%TD*%
D34*
%TO.P,U3,1,1*%
%TO.N,/USB_D+*%
X168182500Y-108660000D03*
%TO.P,U3,2,2*%
%TO.N,GND*%
X168182500Y-109610000D03*
%TO.P,U3,3,3*%
%TO.N,/USB_D-*%
X168182500Y-110560000D03*
%TO.P,U3,4,4*%
%TO.N,Net-(J1-D--PadA7)*%
X170457500Y-110560000D03*
%TO.P,U3,5,5*%
%TO.N,VBUS*%
X170457500Y-109610000D03*
%TO.P,U3,6,6*%
%TO.N,Net-(J1-D+-PadA6)*%
X170457500Y-108660000D03*
%TD*%
D27*
%TO.P,R23,1*%
%TO.N,Net-(U10-FB1)*%
X159765000Y-100680000D03*
%TO.P,R23,2*%
%TO.N,GND*%
X161415000Y-100680000D03*
%TD*%
D36*
%TO.P,U5,1,~{CS}*%
%TO.N,/QSPI_SS*%
X142720000Y-108695000D03*
%TO.P,U5,2,DO(IO1)*%
%TO.N,/QSPI_SD1*%
X142720000Y-109965000D03*
%TO.P,U5,3,IO2*%
%TO.N,/QSPI_SD2*%
X142720000Y-111235000D03*
%TO.P,U5,4,GND*%
%TO.N,GND*%
X142720000Y-112505000D03*
%TO.P,U5,5,DI(IO0)*%
%TO.N,/QSPI_SD0*%
X148520000Y-112505000D03*
%TO.P,U5,6,CLK*%
%TO.N,/QSPI_SCLK*%
X148520000Y-111235000D03*
%TO.P,U5,7,IO3*%
%TO.N,/QSPI_SD3*%
X148520000Y-109965000D03*
%TO.P,U5,8,VCC*%
%TO.N,+3V3*%
X148520000Y-108695000D03*
D37*
%TO.P,U5,9*%
%TO.N,N/C*%
X145620000Y-110600000D03*
%TD*%
D38*
%TO.P,J10,1,Pin_1*%
%TO.N,/GPIO2*%
X156980000Y-144770000D03*
D39*
%TO.P,J10,2,Pin_2*%
%TO.N,/GPIO3*%
X159520000Y-144770000D03*
%TO.P,J10,3,Pin_3*%
%TO.N,/GPIO16*%
X162060000Y-144770000D03*
%TO.P,J10,4,Pin_4*%
%TO.N,/GPIO19*%
X164600000Y-144770000D03*
%TD*%
D40*
%TO.P,C24,1*%
%TO.N,+5V*%
X152595000Y-106830000D03*
%TO.P,C24,2*%
%TO.N,GND*%
X155545000Y-106830000D03*
%TD*%
D15*
%TO.P,R16,1*%
%TO.N,Net-(U6-IN+)*%
X150215699Y-89000000D03*
%TO.P,R16,2*%
%TO.N,GND*%
X148565699Y-89000000D03*
%TD*%
D41*
%TO.P,C26,1*%
%TO.N,Net-(C26-Pad1)*%
X152395000Y-104540000D03*
%TO.P,C26,2*%
%TO.N,GND*%
X154295000Y-104540000D03*
%TD*%
D42*
%TO.P,U10,A1,VOUT2*%
%TO.N,Net-(C26-Pad1)*%
X152600000Y-102560000D03*
%TO.P,U10,A2,VIN2*%
%TO.N,VCC*%
X152600000Y-101290000D03*
%TO.P,U10,A3,TRACK/SS2*%
%TO.N,Net-(U10-TRACK{slash}SS2)*%
X152600000Y-100020000D03*
%TO.P,U10,A4,FB2*%
%TO.N,Net-(U10-FB2)*%
X152600000Y-98750000D03*
%TO.P,U10,A5,COMP2*%
%TO.N,unconnected-(U10-COMP2-PadA5)*%
X152600000Y-97480000D03*
%TO.P,U10,B1,VOUT2*%
%TO.N,Net-(C26-Pad1)*%
X153870000Y-102560000D03*
%TO.P,U10,B2,RUN2*%
%TO.N,/LVC_CUTOFF*%
X153870000Y-101290000D03*
%TO.P,U10,B3,VIN2*%
%TO.N,VCC*%
X153870000Y-100020000D03*
%TO.P,U10,B4,PG00D2*%
%TO.N,Net-(U10-PG00D2)*%
X153870000Y-98750000D03*
%TO.P,U10,B5,GND*%
%TO.N,GND*%
X153870000Y-97480000D03*
%TO.P,U10,C1,GND*%
X155140000Y-102560000D03*
%TO.P,U10,C2,GND*%
X155140000Y-101290000D03*
%TO.P,U10,C3,INTVCC*%
%TO.N,unconnected-(U10-INTVCC-PadC3)*%
X155140000Y-100020000D03*
%TO.P,U10,C4,FREQ*%
%TO.N,Net-(U10-FREQ)*%
X155140000Y-98750000D03*
%TO.P,U10,C5,SYNC/MODE*%
%TO.N,GND*%
X155140000Y-97480000D03*
%TO.P,U10,D1,VOUT1*%
%TO.N,Net-(C25-Pad1)*%
X156410000Y-102560000D03*
%TO.P,U10,D2,RUN1*%
%TO.N,/LVC_CUTOFF*%
X156410000Y-101290000D03*
%TO.P,U10,D3,VIN1*%
%TO.N,VCC*%
X156410000Y-100020000D03*
%TO.P,U10,D4,PG00D1*%
%TO.N,Net-(U10-PG00D1)*%
X156410000Y-98750000D03*
%TO.P,U10,D5,GND*%
%TO.N,GND*%
X156410000Y-97480000D03*
%TO.P,U10,E1,VOUT1*%
%TO.N,Net-(C25-Pad1)*%
X157680000Y-102560000D03*
%TO.P,U10,E2,VIN1*%
%TO.N,VCC*%
X157680000Y-101290000D03*
%TO.P,U10,E3,TRACK/SS1*%
%TO.N,Net-(U10-TRACK{slash}SS1)*%
X157680000Y-100020000D03*
%TO.P,U10,E4,FB1*%
%TO.N,Net-(U10-FB1)*%
X157680000Y-98750000D03*
%TO.P,U10,E5,COMP1*%
%TO.N,unconnected-(U10-COMP1-PadE5)*%
X157680000Y-97480000D03*
%TD*%
D17*
%TO.P,D3,1,K*%
%TO.N,Net-(D3-K)*%
X149607500Y-138280000D03*
%TO.P,D3,2,A*%
%TO.N,Net-(D3-A)*%
X151182500Y-138280000D03*
%TD*%
D27*
%TO.P,R31,1*%
%TO.N,+3V3*%
X149552500Y-133190000D03*
%TO.P,R31,2*%
%TO.N,Net-(D6-A)*%
X151202500Y-133190000D03*
%TD*%
D15*
%TO.P,R14,1*%
%TO.N,/QSPI_SS*%
X144225000Y-106480000D03*
%TO.P,R14,2*%
%TO.N,+3V3*%
X142575000Y-106480000D03*
%TD*%
D14*
%TO.P,R7,1*%
%TO.N,VBUS*%
X161710000Y-89535000D03*
%TO.P,R7,2*%
%TO.N,Net-(U4-OV1)*%
X161710000Y-91185000D03*
%TD*%
D43*
%TO.P,J7,1,Pin_1*%
%TO.N,+5V*%
X138130000Y-132230000D03*
D44*
%TO.P,J7,2,Pin_2*%
%TO.N,Net-(J7-Pin_2)*%
X138130000Y-134770000D03*
%TD*%
D45*
%TO.P,B1,1,1*%
%TO.N,GND*%
X155720000Y-123820000D03*
X159820000Y-123820000D03*
%TO.P,B1,2,2*%
%TO.N,Net-(U1-RUN)*%
X155720000Y-125420000D03*
X159820000Y-125420000D03*
%TD*%
D43*
%TO.P,J8,1,Pin_1*%
%TO.N,+5V*%
X138130000Y-141130000D03*
D44*
%TO.P,J8,2,Pin_2*%
%TO.N,Net-(J8-Pin_2)*%
X138130000Y-143670000D03*
%TD*%
D33*
%TO.P,C14,1*%
%TO.N,+3V3*%
X152040000Y-110980000D03*
%TO.P,C14,2*%
%TO.N,GND*%
X152040000Y-110020000D03*
%TD*%
D15*
%TO.P,R8,1*%
%TO.N,Net-(U4-OV1)*%
X160125000Y-89070000D03*
%TO.P,R8,2*%
%TO.N,GND*%
X158475000Y-89070000D03*
%TD*%
D16*
%TO.P,C6,1*%
%TO.N,+3V3*%
X154880000Y-112790000D03*
%TO.P,C6,2*%
%TO.N,GND*%
X155840000Y-112790000D03*
%TD*%
D46*
%TO.P,U9,1,VDD*%
%TO.N,+3V3*%
X161575000Y-124775000D03*
%TO.P,U9,2,PS*%
X162825000Y-124775000D03*
%TO.P,U9,3,GND*%
%TO.N,GND*%
X164075000Y-124775000D03*
%TO.P,U9,4,CSB*%
X165325000Y-124775000D03*
%TO.P,U9,5,CSB*%
X165325000Y-122625000D03*
%TO.P,U9,6,SDO*%
%TO.N,unconnected-(U9-SDO-Pad6)*%
X164075000Y-122625000D03*
%TO.P,U9,7,SDI/SDA*%
%TO.N,/SDA*%
X162825000Y-122625000D03*
%TO.P,U9,8,SCLK*%
%TO.N,/SCL*%
X161575000Y-122625000D03*
%TD*%
D24*
%TO.P,C2,1*%
%TO.N,Net-(U1-XIN)*%
X146760000Y-122460000D03*
%TO.P,C2,2*%
%TO.N,GND*%
X145800000Y-122460000D03*
%TD*%
D15*
%TO.P,R5,1*%
%TO.N,/USB_D+*%
X156745000Y-109870000D03*
%TO.P,R5,2*%
%TO.N,Net-(U1-USB_DP)*%
X155095000Y-109870000D03*
%TD*%
D47*
%TO.P,C19,1*%
%TO.N,VCC*%
X153370699Y-90310000D03*
%TO.P,C19,2*%
%TO.N,GND*%
X153370699Y-91270000D03*
%TD*%
D27*
%TO.P,R20,1*%
%TO.N,+5V*%
X151205000Y-108780000D03*
%TO.P,R20,2*%
%TO.N,Net-(C26-Pad1)*%
X152855000Y-108780000D03*
%TD*%
D43*
%TO.P,J6,1,Pin_1*%
%TO.N,/TEMP*%
X138040000Y-106810000D03*
D44*
%TO.P,J6,2,Pin_2*%
%TO.N,+3V3*%
X138040000Y-109350000D03*
%TO.P,J6,3,Pin_3*%
%TO.N,GND*%
X138040000Y-111890000D03*
%TD*%
D48*
%TO.P,TP1,1,1*%
%TO.N,Net-(U10-PG00D2)*%
X149440000Y-94540000D03*
%TD*%
D26*
%TO.P,C9,1*%
%TO.N,VBUS*%
X158340000Y-93805000D03*
%TO.P,C9,2*%
%TO.N,GND*%
X158340000Y-95355000D03*
%TD*%
D16*
%TO.P,R1,1*%
%TO.N,Net-(C3-Pad1)*%
X150250000Y-123620000D03*
%TO.P,R1,2*%
%TO.N,Net-(U1-XOUT)*%
X151210000Y-123620000D03*
%TD*%
D34*
%TO.P,Q4,1,G*%
%TO.N,/LED2*%
X145550000Y-140320000D03*
%TO.P,Q4,2,S*%
%TO.N,GND*%
X145550000Y-142220000D03*
%TO.P,Q4,3,D*%
%TO.N,Net-(D5-K)*%
X147825000Y-141270000D03*
%TD*%
D27*
%TO.P,R27,1*%
%TO.N,+3V3*%
X149550000Y-136720000D03*
%TO.P,R27,2*%
%TO.N,Net-(D3-A)*%
X151200000Y-136720000D03*
%TD*%
D47*
%TO.P,C18,1*%
%TO.N,+3V3*%
X151080000Y-124640000D03*
%TO.P,C18,2*%
%TO.N,GND*%
X151080000Y-125600000D03*
%TD*%
D49*
%TO.P,BT1,*%
%TO.N,*%
X176765000Y-89090000D03*
X176765000Y-100090000D03*
D50*
%TO.P,BT1,1,-*%
%TO.N,GND*%
X166765000Y-97090000D03*
D51*
%TO.P,BT1,2,+*%
%TO.N,+BATT*%
X166765000Y-92090000D03*
%TD*%
D52*
%TO.P,U8,A1,GND*%
%TO.N,GND*%
X157121268Y-118170000D03*
%TO.P,U8,A3,SI*%
%TO.N,/MOSI*%
X157121268Y-117370000D03*
%TO.P,U8,B2,~{WP}*%
%TO.N,unconnected-(U8-~{WP}-PadB2)*%
X157421268Y-117770000D03*
%TO.P,U8,C1,SO*%
%TO.N,/MISO*%
X157721268Y-118170000D03*
%TO.P,U8,C3,SCK*%
%TO.N,/SCK*%
X157721268Y-117370000D03*
%TO.P,U8,D2,~{HOLD}*%
%TO.N,unconnected-(U8-~{HOLD}-PadD2)*%
X158021268Y-117770000D03*
%TO.P,U8,E1,~{CS}*%
%TO.N,/FRAM_CS*%
X158321268Y-118170000D03*
%TO.P,U8,E3,VDD*%
%TO.N,+3V3*%
X158321268Y-117370000D03*
%TD*%
D15*
%TO.P,R12,1*%
%TO.N,Net-(SW1-B)*%
X147325000Y-106460000D03*
%TO.P,R12,2*%
%TO.N,/QSPI_SS*%
X145675000Y-106460000D03*
%TD*%
D34*
%TO.P,Q5,1,G*%
%TO.N,/LED4*%
X145550000Y-133320000D03*
%TO.P,Q5,2,S*%
%TO.N,GND*%
X145550000Y-135220000D03*
%TO.P,Q5,3,D*%
%TO.N,Net-(D6-K)*%
X147825000Y-134270000D03*
%TD*%
%TO.P,Q3,1,G*%
%TO.N,/LED1*%
X145550000Y-143780000D03*
%TO.P,Q3,2,S*%
%TO.N,GND*%
X145550000Y-145680000D03*
%TO.P,Q3,3,D*%
%TO.N,Net-(D4-K)*%
X147825000Y-144730000D03*
%TD*%
D10*
%TO.P,R32,1*%
%TO.N,+3V3*%
X142330000Y-116495000D03*
%TO.P,R32,2*%
%TO.N,/TEMP*%
X142330000Y-114845000D03*
%TD*%
D15*
%TO.P,R6,1*%
%TO.N,/USB_D-*%
X156745000Y-111420000D03*
%TO.P,R6,2*%
%TO.N,Net-(U1-USB_DM)*%
X155095000Y-111420000D03*
%TD*%
D53*
%TO.P,U1,1,IOVDD*%
%TO.N,+3V3*%
X148232500Y-115990000D03*
%TO.P,U1,2,GPIO0*%
%TO.N,/LED1*%
X148232500Y-116390000D03*
%TO.P,U1,3,GPIO1*%
%TO.N,/LED2*%
X148232500Y-116790000D03*
%TO.P,U1,4,GPIO2*%
%TO.N,/GPIO2*%
X148232500Y-117190000D03*
%TO.P,U1,5,GPIO3*%
%TO.N,/GPIO3*%
X148232500Y-117590000D03*
%TO.P,U1,6,GPIO4*%
%TO.N,/LED5*%
X148232500Y-117990000D03*
%TO.P,U1,7,GPIO5*%
%TO.N,/SERVO_PWM*%
X148232500Y-118390000D03*
%TO.P,U1,8,GPIO6*%
%TO.N,/TEMP*%
X148232500Y-118790000D03*
%TO.P,U1,9,GPIO7*%
%TO.N,/LED3*%
X148232500Y-119190000D03*
%TO.P,U1,10,IOVDD*%
%TO.N,+3V3*%
X148232500Y-119590000D03*
%TO.P,U1,11,GPIO8*%
%TO.N,/DRF_TXEN*%
X148232500Y-119990000D03*
%TO.P,U1,12,GPIO9*%
%TO.N,/DRF_SW*%
X148232500Y-120390000D03*
%TO.P,U1,13,GPIO10*%
%TO.N,/DRF_DIO1*%
X148232500Y-120790000D03*
%TO.P,U1,14,GPIO11*%
%TO.N,/DRF_BUSY*%
X148232500Y-121190000D03*
D54*
%TO.P,U1,15,GPIO12*%
%TO.N,/LED4*%
X149070000Y-122027500D03*
%TO.P,U1,16,GPIO13*%
%TO.N,/RDIO_RST*%
X149470000Y-122027500D03*
%TO.P,U1,17,GPIO14*%
%TO.N,/HEATER1*%
X149870000Y-122027500D03*
%TO.P,U1,18,GPIO15*%
%TO.N,/HEATER2*%
X150270000Y-122027500D03*
%TO.P,U1,19,TESTEN*%
%TO.N,GND*%
X150670000Y-122027500D03*
%TO.P,U1,20,XIN*%
%TO.N,Net-(U1-XIN)*%
X151070000Y-122027500D03*
%TO.P,U1,21,XOUT*%
%TO.N,Net-(U1-XOUT)*%
X151470000Y-122027500D03*
%TO.P,U1,22,IOVDD*%
%TO.N,+3V3*%
X151870000Y-122027500D03*
%TO.P,U1,23,DVDD*%
%TO.N,+1V1*%
X152270000Y-122027500D03*
%TO.P,U1,24,SWCLK*%
%TO.N,/RP_SWCLK*%
X152670000Y-122027500D03*
%TO.P,U1,25,SWD*%
%TO.N,/RP_SWD*%
X153070000Y-122027500D03*
%TO.P,U1,26,RUN*%
%TO.N,Net-(U1-RUN)*%
X153470000Y-122027500D03*
%TO.P,U1,27,GPIO16*%
%TO.N,/GPIO16*%
X153870000Y-122027500D03*
%TO.P,U1,28,GPIO17*%
%TO.N,/EXTINT*%
X154270000Y-122027500D03*
D53*
%TO.P,U1,29,GPIO18*%
%TO.N,/TIMEPULSE*%
X155107500Y-121190000D03*
%TO.P,U1,30,GPIO19*%
%TO.N,/GPIO19*%
X155107500Y-120790000D03*
%TO.P,U1,31,GPIO20*%
%TO.N,/SDA*%
X155107500Y-120390000D03*
%TO.P,U1,32,GPIO21*%
%TO.N,/SCL*%
X155107500Y-119990000D03*
%TO.P,U1,33,IOVDD*%
%TO.N,+3V3*%
X155107500Y-119590000D03*
%TO.P,U1,34,GPIO22*%
%TO.N,/PGOOD_CUT*%
X155107500Y-119190000D03*
%TO.P,U1,35,GPIO23*%
%TO.N,/DATA_CUT*%
X155107500Y-118790000D03*
%TO.P,U1,36,GPIO24*%
%TO.N,/MISO*%
X155107500Y-118390000D03*
%TO.P,U1,37,GPIO25*%
%TO.N,/DRF_CS*%
X155107500Y-117990000D03*
%TO.P,U1,38,GPIO26_ADC0*%
%TO.N,/SCK*%
X155107500Y-117590000D03*
%TO.P,U1,39,GPIO27_ADC1*%
%TO.N,/MOSI*%
X155107500Y-117190000D03*
%TO.P,U1,40,GPIO28_ADC2*%
%TO.N,/CUT_CURR*%
X155107500Y-116790000D03*
%TO.P,U1,41,GPIO29_ADC3*%
%TO.N,/FRAM_CS*%
X155107500Y-116390000D03*
%TO.P,U1,42,IOVDD*%
%TO.N,+3V3*%
X155107500Y-115990000D03*
D54*
%TO.P,U1,43,ADC_AVDD*%
X154270000Y-115152500D03*
%TO.P,U1,44,VREG_IN*%
X153870000Y-115152500D03*
%TO.P,U1,45,VREG_VOUT*%
%TO.N,+1V1*%
X153470000Y-115152500D03*
%TO.P,U1,46,USB_DM*%
%TO.N,Net-(U1-USB_DM)*%
X153070000Y-115152500D03*
%TO.P,U1,47,USB_DP*%
%TO.N,Net-(U1-USB_DP)*%
X152670000Y-115152500D03*
%TO.P,U1,48,USB_VDD*%
%TO.N,+3V3*%
X152270000Y-115152500D03*
%TO.P,U1,49,IOVDD*%
X151870000Y-115152500D03*
%TO.P,U1,50,DVDD*%
%TO.N,+1V1*%
X151470000Y-115152500D03*
%TO.P,U1,51,QSPI_SD3*%
%TO.N,/QSPI_SD3*%
X151070000Y-115152500D03*
%TO.P,U1,52,QSPI_SCLK*%
%TO.N,/QSPI_SCLK*%
X150670000Y-115152500D03*
%TO.P,U1,53,QSPI_SD0*%
%TO.N,/QSPI_SD0*%
X150270000Y-115152500D03*
%TO.P,U1,54,QSPI_SD2*%
%TO.N,/QSPI_SD2*%
X149870000Y-115152500D03*
%TO.P,U1,55,QSPI_SD1*%
%TO.N,/QSPI_SD1*%
X149470000Y-115152500D03*
%TO.P,U1,56,QSPI_SS*%
%TO.N,/QSPI_SS*%
X149070000Y-115152500D03*
D55*
%TO.P,U1,57,GND*%
%TO.N,GND*%
X150395000Y-117315000D03*
X150395000Y-118590000D03*
X150395000Y-119865000D03*
X151670000Y-117315000D03*
X151670000Y-118590000D03*
D56*
X151670000Y-118590000D03*
D55*
X151670000Y-119865000D03*
X152945000Y-117315000D03*
X152945000Y-118590000D03*
X152945000Y-119865000D03*
%TD*%
D57*
%TO.P,R3,1*%
%TO.N,GND*%
X170620000Y-114242500D03*
%TO.P,R3,2*%
%TO.N,Net-(J1-CC1)*%
X170620000Y-112417500D03*
%TD*%
D58*
%TO.P,BT2,1,+*%
%TO.N,Net-(BT2-+)*%
X172000000Y-121310000D03*
D59*
%TO.P,BT2,2,-*%
%TO.N,GND*%
X168050000Y-119860000D03*
%TD*%
D14*
%TO.P,R28,1*%
%TO.N,Net-(D2-K)*%
X173780000Y-116950000D03*
%TO.P,R28,2*%
%TO.N,Net-(BT2-+)*%
X173780000Y-118600000D03*
%TD*%
D60*
%TO.P,D2,1,K*%
%TO.N,Net-(D2-K)*%
X175680000Y-118730000D03*
%TO.P,D2,2,A*%
%TO.N,+3V3*%
X178480000Y-118730000D03*
%TD*%
D18*
%TO.P,H1,1*%
%TO.N,N/C*%
X136630000Y-84470000D03*
%TD*%
D34*
%TO.P,Q2,1,G*%
%TO.N,/LED3*%
X145560000Y-136870000D03*
%TO.P,Q2,2,S*%
%TO.N,GND*%
X145560000Y-138770000D03*
%TO.P,Q2,3,D*%
%TO.N,Net-(D3-K)*%
X147835000Y-137820000D03*
%TD*%
D10*
%TO.P,R13,1*%
%TO.N,Net-(U4-ILM)*%
X156750000Y-90825000D03*
%TO.P,R13,2*%
%TO.N,GND*%
X156750000Y-89175000D03*
%TD*%
D48*
%TO.P,TP2,1,1*%
%TO.N,Net-(U10-PG00D1)*%
X160690000Y-97950000D03*
%TD*%
D33*
%TO.P,C5,1*%
%TO.N,+1V1*%
X153760000Y-112780000D03*
%TO.P,C5,2*%
%TO.N,GND*%
X153760000Y-111820000D03*
%TD*%
D17*
%TO.P,D4,1,K*%
%TO.N,Net-(D4-K)*%
X149610000Y-145230000D03*
%TO.P,D4,2,A*%
%TO.N,Net-(D4-A)*%
X151185000Y-145230000D03*
%TD*%
D33*
%TO.P,C11,1*%
%TO.N,+3V3*%
X151020000Y-110980000D03*
%TO.P,C11,2*%
%TO.N,GND*%
X151020000Y-110020000D03*
%TD*%
D13*
%TO.P,C30,1*%
%TO.N,VCC*%
X150415000Y-101920000D03*
%TO.P,C30,2*%
%TO.N,GND*%
X148865000Y-101920000D03*
%TD*%
D25*
%TO.P,C31,1*%
%TO.N,Net-(U10-TRACK{slash}SS1)*%
X159795000Y-102210000D03*
%TO.P,C31,2*%
%TO.N,GND*%
X161345000Y-102210000D03*
%TD*%
D43*
%TO.P,J9,1,Pin_1*%
%TO.N,GND*%
X138130000Y-118380000D03*
D44*
%TO.P,J9,2,Pin_2*%
%TO.N,/CUT_CURR*%
X138130000Y-120920000D03*
%TO.P,J9,3,Pin_3*%
%TO.N,/DATA_CUT*%
X138130000Y-123460000D03*
%TO.P,J9,4,Pin_4*%
%TO.N,/PGOOD_CUT*%
X138130000Y-126000000D03*
%TD*%
D61*
%TO.P,J3,1,Pin_1*%
%TO.N,/RP_SWCLK*%
X157275000Y-140455000D03*
%TO.P,J3,2,Pin_2*%
%TO.N,unconnected-(J3-Pin_2-Pad2)*%
X156005000Y-140455000D03*
%TO.P,J3,3,Pin_3*%
%TO.N,/RP_SWD*%
X154735000Y-140455000D03*
%TO.P,J3,4,Pin_4*%
%TO.N,unconnected-(J3-Pin_4-Pad4)*%
X153465000Y-140455000D03*
%TD*%
D29*
%TO.P,Q7,1,G*%
%TO.N,/HEATER2*%
X165930000Y-113870000D03*
%TO.P,Q7,2,S*%
%TO.N,GND*%
X165930000Y-111970000D03*
%TO.P,Q7,3,D*%
%TO.N,Net-(J8-Pin_2)*%
X163530000Y-112920000D03*
%TD*%
D62*
%TO.P,Y1,1,1*%
%TO.N,Net-(C3-Pad1)*%
X148640000Y-125655000D03*
%TO.P,Y1,2,2*%
%TO.N,GND*%
X148640000Y-123905000D03*
%TO.P,Y1,3,3*%
%TO.N,Net-(U1-XIN)*%
X147240000Y-123905000D03*
%TO.P,Y1,4,4*%
%TO.N,GND*%
X147240000Y-125655000D03*
%TD*%
D47*
%TO.P,C20,1*%
%TO.N,+3V3*%
X149900000Y-108790000D03*
%TO.P,C20,2*%
%TO.N,GND*%
X149900000Y-109750000D03*
%TD*%
%TO.P,C1,1*%
%TO.N,+1V1*%
X152130000Y-124640000D03*
%TO.P,C1,2*%
%TO.N,GND*%
X152130000Y-125600000D03*
%TD*%
D27*
%TO.P,R11,1*%
%TO.N,+3V3*%
X149562500Y-129700000D03*
%TO.P,R11,2*%
%TO.N,Net-(D1-A)*%
X151212500Y-129700000D03*
%TD*%
D63*
%TO.P,SW1,1,A*%
%TO.N,unconnected-(SW1-A-Pad1)*%
X142899998Y-104207200D03*
%TO.P,SW1,2,B*%
%TO.N,Net-(SW1-B)*%
X146400002Y-104207200D03*
%TO.P,SW1,3,C*%
%TO.N,GND*%
X144650000Y-100322600D03*
%TD*%
D15*
%TO.P,R15,1*%
%TO.N,VCC*%
X153375699Y-89000000D03*
%TO.P,R15,2*%
%TO.N,Net-(U6-IN+)*%
X151725699Y-89000000D03*
%TD*%
D26*
%TO.P,C17,1*%
%TO.N,VCC*%
X154970000Y-90195000D03*
%TO.P,C17,2*%
%TO.N,GND*%
X154970000Y-91745000D03*
%TD*%
D64*
%TO.P,U6,1,OUT*%
%TO.N,Net-(SW2-C)*%
X150355501Y-91789999D03*
%TO.P,U6,2,V+*%
%TO.N,VCC*%
X150355501Y-91290000D03*
%TO.P,U6,3,IN+*%
%TO.N,Net-(U6-IN+)*%
X150355501Y-90790001D03*
D65*
%TO.P,U6,4,V-*%
%TO.N,GND*%
X149228100Y-91290000D03*
%TD*%
D66*
%TO.P,SW2,1,A*%
%TO.N,GND*%
X146428101Y-95710000D03*
%TO.P,SW2,2,B*%
%TO.N,/LVC_CUTOFF*%
X142028102Y-93170000D03*
%TO.P,SW2,3,C*%
%TO.N,Net-(SW2-C)*%
X146428101Y-90630000D03*
%TD*%
D67*
%TO.P,U11,1,GND*%
%TO.N,GND*%
X168830000Y-124480000D03*
D68*
%TO.P,U11,2,TXD*%
%TO.N,Net-(J4-Pin_2)*%
X168830000Y-125580000D03*
%TO.P,U11,3,RXD*%
%TO.N,Net-(J4-Pin_1)*%
X168830000Y-126680000D03*
%TO.P,U11,4,TIMEPULSE*%
%TO.N,/TIMEPULSE*%
X168830000Y-127780000D03*
%TO.P,U11,5,EXTINT*%
%TO.N,/EXTINT*%
X168830000Y-128880000D03*
%TO.P,U11,6,V_BCKP*%
%TO.N,Net-(BT2-+)*%
X168830000Y-129980000D03*
%TO.P,U11,7,VCC_IO*%
%TO.N,+3V3*%
X168830000Y-131080000D03*
%TO.P,U11,8,VCC*%
X168830000Y-132180000D03*
D67*
%TO.P,U11,9,~{RESET}*%
%TO.N,unconnected-(U11-~{RESET}-Pad9)*%
X168830000Y-133280000D03*
%TO.P,U11,10,GND*%
%TO.N,GND*%
X178330000Y-133280000D03*
D68*
%TO.P,U11,11,RF_IN*%
%TO.N,Net-(AE1-A)*%
X178330000Y-132180000D03*
%TO.P,U11,12,GND*%
%TO.N,GND*%
X178330000Y-131080000D03*
%TO.P,U11,13,LNA_EN*%
%TO.N,unconnected-(U11-LNA_EN-Pad13)*%
X178330000Y-129980000D03*
%TO.P,U11,14,VCC_RF*%
%TO.N,unconnected-(U11-VCC_RF-Pad14)*%
X178330000Y-128880000D03*
%TO.P,U11,15,VIO_SEL*%
%TO.N,unconnected-(U11-VIO_SEL-Pad15)*%
X178330000Y-127780000D03*
%TO.P,U11,16,SDA*%
%TO.N,/SDA*%
X178330000Y-126680000D03*
%TO.P,U11,17,SCL*%
%TO.N,/SCL*%
X178330000Y-125580000D03*
D67*
%TO.P,U11,18,~{SAFEBOOT}*%
%TO.N,unconnected-(U11-~{SAFEBOOT}-Pad18)*%
X178330000Y-124480000D03*
%TD*%
D57*
%TO.P,R4,1*%
%TO.N,Net-(J1-CC2)*%
X170670000Y-106922500D03*
%TO.P,R4,2*%
%TO.N,GND*%
X170670000Y-105097500D03*
%TD*%
D69*
%TO.P,U2,1,GND*%
%TO.N,GND*%
X162690000Y-96669998D03*
%TO.P,U2,2,GND*%
X163340001Y-96669998D03*
%TO.P,U2,3,GND*%
X163990000Y-96669998D03*
%TO.P,U2,4,IN*%
%TO.N,+BATT*%
X163990000Y-94720000D03*
%TO.P,U2,5,IN*%
X163340001Y-94720000D03*
%TO.P,U2,6,IN*%
X162690000Y-94720000D03*
D70*
%TO.P,U2,7,PAD*%
%TO.N,GND*%
X163340001Y-95694999D03*
%TD*%
D26*
%TO.P,C16,1*%
%TO.N,Net-(U4-SS)*%
X156550000Y-92325000D03*
%TO.P,C16,2*%
%TO.N,GND*%
X156550000Y-93875000D03*
%TD*%
D15*
%TO.P,R19,1*%
%TO.N,+3V3*%
X163635000Y-121090000D03*
%TO.P,R19,2*%
%TO.N,/SDA*%
X161985000Y-121090000D03*
%TD*%
D38*
%TO.P,J4,1,Pin_1*%
%TO.N,Net-(J4-Pin_1)*%
X161420000Y-138740000D03*
D39*
%TO.P,J4,2,Pin_2*%
%TO.N,Net-(J4-Pin_2)*%
X163960000Y-138740000D03*
%TO.P,J4,3,Pin_3*%
%TO.N,GND*%
X166500000Y-138740000D03*
%TD*%
D14*
%TO.P,R17,1*%
%TO.N,VCC*%
X151980699Y-90545000D03*
%TO.P,R17,2*%
%TO.N,Net-(SW2-C)*%
X151980699Y-92195000D03*
%TD*%
D71*
%TO.P,J5,1,Pin_1*%
%TO.N,unconnected-(J5-Pin_1-Pad1)*%
X138080000Y-98930000D03*
D44*
%TO.P,J5,2,Pin_2*%
%TO.N,/SERVO_PWM*%
X138080000Y-96390000D03*
%TO.P,J5,3,Pin_3*%
%TO.N,+5V*%
X138080000Y-93850000D03*
%TO.P,J5,4,Pin_4*%
%TO.N,GND*%
X138080000Y-91310000D03*
%TD*%
D72*
%TO.N,GND*%
X155280000Y-93020000D03*
X172790000Y-131940000D03*
X154780000Y-96090000D03*
X177030000Y-132920000D03*
X177070000Y-131480000D03*
X168060000Y-123590000D03*
X156930000Y-129970000D03*
X177440000Y-134170000D03*
X163140000Y-103990000D03*
X161940000Y-135930000D03*
X163810000Y-134810000D03*
D73*
X139910000Y-102850000D03*
D72*
X155880000Y-111970000D03*
X160625213Y-90444787D03*
X178360000Y-134170000D03*
X166660000Y-100380000D03*
X158580000Y-131720000D03*
X171790000Y-133150000D03*
X146965000Y-145690000D03*
X156860000Y-127440000D03*
X167190000Y-105770000D03*
X175930000Y-125380000D03*
X149480000Y-123289500D03*
X170540000Y-123580000D03*
X158233721Y-130773721D03*
X173190000Y-134170000D03*
X157040000Y-135910000D03*
X146865000Y-135210000D03*
X166770000Y-109610000D03*
X174100000Y-134160000D03*
X156980000Y-134580000D03*
X161810000Y-131900000D03*
X163850000Y-132910000D03*
D73*
X143630000Y-101160000D03*
D72*
X169230000Y-116070000D03*
D73*
X138780000Y-102840000D03*
D72*
X160100000Y-131020000D03*
X147105000Y-131740000D03*
X142720000Y-111960000D03*
X161430000Y-131090000D03*
X175550000Y-132690000D03*
X170710000Y-133210000D03*
X146130000Y-125670000D03*
X175910000Y-132040000D03*
X172210000Y-134170000D03*
X156410000Y-96130000D03*
X171910000Y-123570000D03*
X161590000Y-127040000D03*
X153480000Y-93720000D03*
X141630000Y-107420000D03*
X158240000Y-135210000D03*
X155265000Y-105695000D03*
X157950000Y-90550000D03*
X159450000Y-135960000D03*
X146785000Y-142220000D03*
X170240000Y-134170000D03*
X151880000Y-126670000D03*
X161650000Y-127950000D03*
X160280000Y-134140000D03*
X169220000Y-123580000D03*
X168130000Y-115870000D03*
X173740000Y-121210000D03*
X167130000Y-111970000D03*
X171370000Y-132020000D03*
X158260000Y-115700000D03*
X162430000Y-135240000D03*
X166780000Y-104240000D03*
X153430000Y-109910000D03*
X162480000Y-101270000D03*
X175980000Y-123570000D03*
X148200000Y-90020500D03*
X144830000Y-114452343D03*
X169270000Y-134150000D03*
X176900000Y-133630000D03*
X164900000Y-101230000D03*
X163730000Y-135890000D03*
X177510000Y-123550000D03*
X157110000Y-95200000D03*
X154424647Y-112105815D03*
X175570000Y-133430000D03*
X161590000Y-130120000D03*
X161850000Y-92740000D03*
X176160000Y-130110000D03*
X174270000Y-131980000D03*
X163820000Y-130870000D03*
X146952500Y-138800000D03*
X161620000Y-128990000D03*
X172870000Y-133130000D03*
X155670000Y-89170000D03*
X172560000Y-125590000D03*
X161350000Y-134210000D03*
X164320000Y-88610000D03*
X159240000Y-127940000D03*
X174270000Y-133210000D03*
X170960000Y-127870000D03*
X179300000Y-134150000D03*
X167130000Y-115970000D03*
X156680000Y-118445500D03*
X163850000Y-128850000D03*
X154720000Y-142360000D03*
X152600000Y-96170000D03*
X156900000Y-128790000D03*
X179020000Y-123580000D03*
X163690000Y-127210000D03*
X168180000Y-134170000D03*
X176400000Y-131580000D03*
X158980000Y-130020000D03*
X159630000Y-96090000D03*
D73*
X146428101Y-93431899D03*
D72*
X165930000Y-102270000D03*
X174840000Y-134140000D03*
X161380000Y-133130000D03*
X174560000Y-123570000D03*
X159230000Y-128900000D03*
X175580000Y-134140000D03*
X172370000Y-130120000D03*
X171220000Y-134180000D03*
X173240000Y-123580000D03*
X159230000Y-127140000D03*
X159205000Y-119770000D03*
X174440000Y-127870000D03*
X160250000Y-133150000D03*
X159720000Y-132030000D03*
X163600000Y-100360000D03*
X162850000Y-131280000D03*
X161430000Y-110870000D03*
D74*
%TO.N,Net-(BT2-+)*%
X167330000Y-129980000D03*
X169930000Y-121170000D03*
D72*
%TO.N,+3V3*%
X141679500Y-117220000D03*
X150428471Y-110566029D03*
X158450878Y-116469122D03*
D73*
X160730000Y-108450000D03*
D72*
X149280000Y-107920000D03*
X142550000Y-105334901D03*
X144930000Y-119370000D03*
X149560000Y-128580000D03*
X152930000Y-110400000D03*
X150030000Y-125420000D03*
X156760000Y-119614500D03*
X177170000Y-118740000D03*
X167200000Y-132140000D03*
X164680000Y-121430000D03*
X167180000Y-131080000D03*
X147450000Y-114540000D03*
X154755500Y-115520000D03*
X152380000Y-135520000D03*
X157620000Y-122720000D03*
X154120000Y-126200000D03*
D73*
X158970000Y-108390000D03*
D72*
%TO.N,VBUS*%
X169340000Y-109050000D03*
D74*
X159735500Y-90044500D03*
D72*
X169340000Y-109610000D03*
D74*
X161710000Y-88070000D03*
D72*
X169340000Y-110170000D03*
D73*
X160000000Y-95330000D03*
D75*
%TO.N,+5V*%
X142270000Y-98950000D03*
D73*
X148900000Y-105190000D03*
X151590000Y-106680000D03*
D75*
X146810000Y-102790000D03*
D73*
X150680000Y-105210000D03*
D76*
X147650000Y-104110000D03*
D72*
%TO.N,/RP_SWCLK*%
X157160000Y-138320000D03*
X152615500Y-126974478D03*
%TO.N,Net-(J4-Pin_1)*%
X165980000Y-126680000D03*
%TO.N,Net-(J4-Pin_2)*%
X166545500Y-125580000D03*
%TO.N,/SCL*%
X160980000Y-121380000D03*
X160490000Y-119780000D03*
%TO.N,/LVC_CUTOFF*%
X143860000Y-92150000D03*
X151390000Y-102450000D03*
%TO.N,/SERVO_PWM*%
X143829500Y-123120000D03*
%TO.N,/DRF_TXEN*%
X146604223Y-120114500D03*
%TO.N,/DRF_SW*%
X145571594Y-121420000D03*
%TO.N,/DRF_DIO1*%
X146335575Y-121627678D03*
%TO.N,/DRF_BUSY*%
X147158960Y-121548960D03*
%TO.N,/RDIO_RST*%
X150930000Y-116170000D03*
%TO.N,/EXTINT*%
X165260000Y-128570000D03*
X155130000Y-122030000D03*
%TO.N,/TIMEPULSE*%
X165277110Y-127032890D03*
X156930000Y-122370000D03*
%TO.N,/MISO*%
X155840000Y-118390000D03*
%TO.N,/DRF_CS*%
X154274500Y-117990000D03*
%TO.N,/SCK*%
X157351987Y-116859500D03*
X156300000Y-117714500D03*
%TO.N,/MOSI*%
X154104500Y-117320000D03*
%TO.N,/FRAM_CS*%
X158980000Y-118130000D03*
X156520000Y-116610000D03*
%TO.N,Net-(U10-TRACK{slash}SS2)*%
X151930000Y-99470000D03*
X150330000Y-99370000D03*
%TO.N,Net-(U10-FB2)*%
X151830000Y-98670000D03*
X149330000Y-97770000D03*
%TO.N,Net-(U10-FREQ)*%
X154630000Y-98270000D03*
X153030000Y-95470000D03*
%TO.N,Net-(U10-PG00D2)*%
X153530000Y-98370000D03*
%TO.N,/LED3*%
X143680000Y-126520000D03*
X143230000Y-128620000D03*
%TO.N,/LED4*%
X145064000Y-123055951D03*
X147880000Y-122120000D03*
%TO.N,Net-(J7-Pin_2)*%
X165040086Y-116971259D03*
%TO.N,Net-(J8-Pin_2)*%
X165730000Y-116920000D03*
%TO.N,/HEATER1*%
X149994500Y-120570673D03*
X158080000Y-112320000D03*
%TO.N,/TEMP*%
X142280000Y-115620000D03*
X144014500Y-122170000D03*
%TO.N,/HEATER2*%
X150829478Y-120767481D03*
X164280000Y-111620000D03*
%TO.N,/PGOOD_CUT*%
X154104500Y-119620000D03*
%TO.N,/CUT_CURR*%
X154030000Y-116470000D03*
%TO.N,/DATA_CUT*%
X154274140Y-118731396D03*
X140425878Y-125765878D03*
%TO.N,/GPIO16*%
X154763073Y-122833351D03*
%TO.N,/GPIO19*%
X164892988Y-125907012D03*
X156480000Y-121370000D03*
%TO.N,/GPIO2*%
X146632537Y-116654500D03*
X141746657Y-118770000D03*
%TO.N,/GPIO3*%
X141730000Y-120120000D03*
X146656416Y-117405289D03*
%TD*%
D77*
%TO.N,Net-(AE1-A)*%
X177727299Y-135827299D02*
X178230000Y-135827299D01*
D78*
X176250000Y-132690000D02*
X176250000Y-134350000D01*
X176250000Y-134350000D02*
X177727299Y-135827299D01*
X176760000Y-132180000D02*
X176250000Y-132690000D01*
X178330000Y-132180000D02*
X176760000Y-132180000D01*
D79*
%TO.N,GND*%
X160400000Y-90670000D02*
X160625213Y-90444787D01*
D77*
X160570000Y-124570000D02*
X160570000Y-125555000D01*
D79*
X160949999Y-92740000D02*
X161850000Y-92740000D01*
D77*
X155840000Y-112790000D02*
X155840000Y-113850000D01*
D80*
X151880000Y-126670000D02*
X151880000Y-125850000D01*
D77*
X155840000Y-112790000D02*
X155840000Y-112010000D01*
X148985000Y-100240000D02*
X148855000Y-100370000D01*
D79*
X170862500Y-114000000D02*
X173175000Y-114000000D01*
D80*
X168050000Y-116890000D02*
X167130000Y-115970000D01*
D77*
X165340000Y-103920000D02*
X167190000Y-105770000D01*
X148200000Y-90020500D02*
X148200000Y-90261900D01*
X165340000Y-103755000D02*
X165340000Y-102860000D01*
X145220000Y-122460000D02*
X145800000Y-122460000D01*
X163690000Y-127210000D02*
X164075000Y-126825000D01*
D79*
X154970000Y-92710000D02*
X155280000Y-93020000D01*
D77*
X152185000Y-109875000D02*
X152040000Y-110020000D01*
D79*
X158100002Y-92190001D02*
X158100002Y-92324998D01*
X170932500Y-105360000D02*
X173175000Y-105360000D01*
D77*
X160570000Y-125555000D02*
X161395000Y-126380000D01*
D79*
X154970000Y-91745000D02*
X154970000Y-92710000D01*
D77*
X153870000Y-97480000D02*
X153870000Y-97440000D01*
D80*
X168050000Y-119860000D02*
X168050000Y-117370000D01*
D77*
X162480000Y-102695000D02*
X162480000Y-101270000D01*
D79*
X158089999Y-90689999D02*
X157950000Y-90550000D01*
D77*
X161540000Y-102210000D02*
X162480000Y-101270000D01*
X151670000Y-120780000D02*
X151670000Y-119865000D01*
X155625000Y-103900000D02*
X156320000Y-104595000D01*
D81*
X148755000Y-100370000D02*
X148845000Y-100460000D01*
D79*
X172600000Y-106480000D02*
X172600000Y-105935000D01*
D77*
X155265000Y-106550000D02*
X155545000Y-106830000D01*
D81*
X146062400Y-100322600D02*
X144650000Y-100322600D01*
D77*
X157121268Y-118170000D02*
X156955500Y-118170000D01*
X154875000Y-103900000D02*
X154120000Y-104655000D01*
X151670000Y-119865000D02*
X151670000Y-118590000D01*
X155840000Y-112010000D02*
X155880000Y-111970000D01*
D80*
X151080000Y-125870000D02*
X151080000Y-125600000D01*
D79*
X170620000Y-114242500D02*
X170862500Y-114000000D01*
X157370000Y-95460000D02*
X157110000Y-95200000D01*
X155675000Y-89175000D02*
X155670000Y-89170000D01*
D82*
X146428101Y-95710000D02*
X146428101Y-93431899D01*
D79*
X160700000Y-94679998D02*
X159955001Y-93934999D01*
D77*
X150670000Y-122027500D02*
X150670000Y-121495025D01*
X164075000Y-126825000D02*
X164075000Y-124775000D01*
X155840000Y-113850000D02*
X155860000Y-113870000D01*
X150310000Y-111189314D02*
X149900000Y-110779314D01*
X161830000Y-111970000D02*
X161830000Y-111270000D01*
X146855000Y-135220000D02*
X146865000Y-135210000D01*
X161345000Y-103830000D02*
X162480000Y-102695000D01*
D79*
X158100002Y-92324998D02*
X156550000Y-93875000D01*
D77*
X161345000Y-102210000D02*
X161345000Y-103830000D01*
D79*
X160400000Y-90689999D02*
X160400000Y-90670000D01*
D77*
X144939500Y-122179500D02*
X145220000Y-122460000D01*
X144939500Y-120460500D02*
X144939500Y-122179500D01*
X153370699Y-91270000D02*
X155120699Y-93020000D01*
D79*
X172600000Y-105935000D02*
X173175000Y-105360000D01*
D77*
X154875000Y-103900000D02*
X155190000Y-103900000D01*
D80*
X151880000Y-125850000D02*
X152130000Y-125600000D01*
X159205000Y-119770000D02*
X160460000Y-118515000D01*
D77*
X155140000Y-102560000D02*
X155140000Y-103850000D01*
X144650000Y-100322600D02*
X144467400Y-100322600D01*
X151160000Y-121290000D02*
X151670000Y-120780000D01*
X173730000Y-121585000D02*
X173730000Y-121220000D01*
X156320000Y-104640000D02*
X155265000Y-105695000D01*
X147095000Y-131730000D02*
X147105000Y-131740000D01*
X148855000Y-100370000D02*
X148755000Y-100370000D01*
D80*
X168050000Y-117370000D02*
X168050000Y-117250000D01*
D77*
X161890000Y-100680000D02*
X162480000Y-101270000D01*
X161415000Y-102140000D02*
X161345000Y-102210000D01*
D79*
X157780000Y-95460000D02*
X157370000Y-95460000D01*
D77*
X150310000Y-111650000D02*
X150310000Y-111189314D01*
D79*
X168182500Y-109610000D02*
X166770000Y-109610000D01*
D77*
X155140000Y-96450000D02*
X154780000Y-96090000D01*
X178770000Y-122315000D02*
X178770000Y-123330000D01*
D81*
X144467400Y-100322600D02*
X143630000Y-101160000D01*
D77*
X168050000Y-115950000D02*
X168130000Y-115870000D01*
X150580000Y-111920000D02*
X150310000Y-111650000D01*
D79*
X156750000Y-89175000D02*
X155675000Y-89175000D01*
D77*
X151060000Y-126570000D02*
X151780000Y-126570000D01*
X165340000Y-103755000D02*
X165340000Y-103920000D01*
D79*
X156855000Y-89070000D02*
X156750000Y-89175000D01*
D77*
X161345000Y-102210000D02*
X161540000Y-102210000D01*
D80*
X151020000Y-110020000D02*
X152040000Y-110020000D01*
D77*
X151780000Y-126570000D02*
X151880000Y-126670000D01*
D79*
X158340000Y-95355000D02*
X158235000Y-95460000D01*
D77*
X178770000Y-123330000D02*
X179020000Y-123580000D01*
D79*
X160229950Y-96090000D02*
X160700000Y-95619950D01*
X172600000Y-113425000D02*
X173175000Y-114000000D01*
D77*
X154120000Y-104655000D02*
X154225000Y-104655000D01*
X155120699Y-93020000D02*
X155280000Y-93020000D01*
X173730000Y-121220000D02*
X173740000Y-121210000D01*
X151010000Y-111920000D02*
X150580000Y-111920000D01*
D80*
X146130000Y-123630000D02*
X146130000Y-125670000D01*
D77*
X165930000Y-111970000D02*
X167130000Y-111970000D01*
D79*
X172600000Y-112880000D02*
X172600000Y-113425000D01*
D81*
X147565000Y-98820000D02*
X148985000Y-100240000D01*
D79*
X164320000Y-88610000D02*
X163405000Y-88610000D01*
D77*
X142720000Y-111960000D02*
X142720000Y-112505000D01*
X159820000Y-123820000D02*
X160570000Y-124570000D01*
X155190000Y-103900000D02*
X155625000Y-103900000D01*
D80*
X153465000Y-93705000D02*
X153480000Y-93720000D01*
D79*
X149480000Y-123289500D02*
X149255500Y-123289500D01*
X158475000Y-89070000D02*
X156855000Y-89070000D01*
X145750000Y-115120000D02*
X145497657Y-115120000D01*
D77*
X145550000Y-135220000D02*
X146855000Y-135220000D01*
X156410000Y-97480000D02*
X156410000Y-96130000D01*
X161415000Y-100680000D02*
X161890000Y-100680000D01*
X161395000Y-126845000D02*
X161590000Y-127040000D01*
D80*
X168050000Y-117250000D02*
X169230000Y-116070000D01*
D77*
X155140000Y-103850000D02*
X155190000Y-103900000D01*
X146922500Y-138770000D02*
X146952500Y-138800000D01*
D80*
X168050000Y-119860000D02*
X168050000Y-115950000D01*
X158710000Y-119770000D02*
X159205000Y-119770000D01*
D81*
X148845000Y-100460000D02*
X148845000Y-101900000D01*
D77*
X165325000Y-122625000D02*
X165325000Y-124775000D01*
D79*
X160700000Y-95619950D02*
X160700000Y-94679998D01*
D77*
X148845000Y-101900000D02*
X148865000Y-101920000D01*
X155265000Y-105695000D02*
X155265000Y-106550000D01*
X154225000Y-104655000D02*
X155265000Y-105695000D01*
D79*
X158235000Y-95460000D02*
X157780000Y-95460000D01*
X159630000Y-96090000D02*
X160229950Y-96090000D01*
D77*
X144951178Y-120448822D02*
X144939500Y-120460500D01*
X150875025Y-121290000D02*
X151160000Y-121290000D01*
D81*
X147565000Y-98820000D02*
X146062400Y-100322600D01*
D83*
X159820000Y-123820000D02*
X155720000Y-123820000D01*
D77*
X148200000Y-89365699D02*
X148565699Y-89000000D01*
D80*
X149900000Y-109750000D02*
X150750000Y-109750000D01*
D77*
X150670000Y-121495025D02*
X150875025Y-121290000D01*
X161395000Y-126380000D02*
X161395000Y-126845000D01*
X153870000Y-97440000D02*
X152600000Y-96170000D01*
X145560000Y-138770000D02*
X146922500Y-138770000D01*
X165340000Y-102860000D02*
X165930000Y-102270000D01*
D80*
X151080000Y-125600000D02*
X152130000Y-125600000D01*
D77*
X157320000Y-115700000D02*
X158260000Y-115700000D01*
X153760000Y-111820000D02*
X154138832Y-111820000D01*
X161830000Y-111270000D02*
X161430000Y-110870000D01*
D79*
X163405000Y-88610000D02*
X163320000Y-88695000D01*
X145497657Y-115120000D02*
X144830000Y-114452343D01*
D80*
X151880000Y-126670000D02*
X151080000Y-125870000D01*
D79*
X160400000Y-92190001D02*
X160949999Y-92740000D01*
X149255500Y-123289500D02*
X148640000Y-123905000D01*
D80*
X145800000Y-122460000D02*
X145800000Y-123300000D01*
D77*
X145550000Y-131730000D02*
X147095000Y-131730000D01*
X149900000Y-110779314D02*
X149900000Y-109750000D01*
D79*
X156550000Y-93875000D02*
X156860000Y-93875000D01*
D80*
X146130000Y-125670000D02*
X146145000Y-125655000D01*
D77*
X148200000Y-90020500D02*
X148200000Y-89365699D01*
D80*
X150750000Y-109750000D02*
X151020000Y-110020000D01*
D77*
X153395000Y-109875000D02*
X152185000Y-109875000D01*
D79*
X170670000Y-105097500D02*
X170932500Y-105360000D01*
D77*
X161415000Y-100680000D02*
X161415000Y-102140000D01*
D79*
X158100002Y-90689999D02*
X158089999Y-90689999D01*
D80*
X168050000Y-117370000D02*
X168050000Y-116890000D01*
X151980000Y-93705000D02*
X153465000Y-93705000D01*
D77*
X146955000Y-145680000D02*
X146965000Y-145690000D01*
D80*
X145800000Y-123300000D02*
X146130000Y-123630000D01*
D77*
X155140000Y-101290000D02*
X155140000Y-102560000D01*
X153430000Y-109910000D02*
X153395000Y-109875000D01*
D80*
X146145000Y-125655000D02*
X147240000Y-125655000D01*
D79*
X156860000Y-93875000D02*
X158340000Y-95355000D01*
D77*
X145550000Y-142220000D02*
X146785000Y-142220000D01*
X154138832Y-111820000D02*
X154424647Y-112105815D01*
X165325000Y-124775000D02*
X164075000Y-124775000D01*
X148200000Y-90261900D02*
X149228100Y-91290000D01*
X156320000Y-104595000D02*
X156320000Y-104640000D01*
X155140000Y-97480000D02*
X155140000Y-96450000D01*
X156955500Y-118170000D02*
X156680000Y-118445500D01*
X145550000Y-145680000D02*
X146955000Y-145680000D01*
%TO.N,Net-(U1-RUN)*%
X154130000Y-123545000D02*
X153470000Y-122885000D01*
X159820000Y-125420000D02*
X155720000Y-125420000D01*
X153470000Y-122885000D02*
X153470000Y-122027500D01*
X154130000Y-123545000D02*
X154130000Y-123830000D01*
X154130000Y-123830000D02*
X155720000Y-125420000D01*
D80*
%TO.N,+BATT*%
X160129242Y-92715001D02*
X159675001Y-92715001D01*
D79*
X159625001Y-92115000D02*
X159625001Y-92465001D01*
D80*
X159625001Y-92665001D02*
X159625001Y-92115000D01*
X161349240Y-93934999D02*
X160129242Y-92715001D01*
X159675001Y-92715001D02*
X159625001Y-92665001D01*
X161505001Y-93934999D02*
X161349240Y-93934999D01*
D84*
%TO.N,Net-(BT2-+)*%
X173720000Y-120025000D02*
X173720000Y-118660000D01*
D77*
X171860000Y-121170000D02*
X172000000Y-121310000D01*
D84*
X169930000Y-121170000D02*
X171860000Y-121170000D01*
D77*
X173730000Y-120035000D02*
X173720000Y-120025000D01*
D84*
X173730000Y-120035000D02*
X173275000Y-120035000D01*
D77*
X173720000Y-118660000D02*
X173780000Y-118600000D01*
D84*
X168830000Y-129980000D02*
X167330000Y-129980000D01*
X173275000Y-120035000D02*
X172000000Y-121310000D01*
D77*
%TO.N,+1V1*%
X152660000Y-120490000D02*
X153309911Y-120490000D01*
X153470000Y-116529911D02*
X153309911Y-116690000D01*
X151470000Y-113360000D02*
X151230000Y-113120000D01*
X152270000Y-122027500D02*
X152270000Y-120880000D01*
X153309911Y-120490000D02*
X153580000Y-120219911D01*
X153309911Y-116690000D02*
X152464974Y-116690000D01*
X153580000Y-120219911D02*
X153580000Y-116960089D01*
X153580000Y-116960089D02*
X153309911Y-116690000D01*
X153470000Y-115152500D02*
X153470000Y-113070000D01*
X151470000Y-115152500D02*
X151470000Y-113360000D01*
X151900000Y-116690000D02*
X152580000Y-116690000D01*
X152270000Y-124500000D02*
X152130000Y-124640000D01*
X152270000Y-120880000D02*
X152660000Y-120490000D01*
X151470000Y-116260000D02*
X151900000Y-116690000D01*
X153470000Y-115152500D02*
X153470000Y-116529911D01*
X151470000Y-115152500D02*
X151470000Y-116260000D01*
X152270000Y-122027500D02*
X152270000Y-124500000D01*
X153470000Y-113070000D02*
X153760000Y-112780000D01*
%TO.N,Net-(U1-XIN)*%
X147240000Y-123130000D02*
X147240000Y-123905000D01*
X147240000Y-123905000D02*
X146950000Y-123615000D01*
X146950000Y-123615000D02*
X146950000Y-123060000D01*
X147605000Y-122765000D02*
X147240000Y-123130000D01*
X146950000Y-123060000D02*
X146760000Y-122870000D01*
X150864975Y-122765000D02*
X147605000Y-122765000D01*
X151070000Y-122027500D02*
X151070000Y-122559975D01*
X146760000Y-122870000D02*
X146760000Y-122460000D01*
X151070000Y-122559975D02*
X150864975Y-122765000D01*
%TO.N,Net-(C3-Pad1)*%
X150250000Y-124045000D02*
X148640000Y-125655000D01*
X148640000Y-125655000D02*
X148685000Y-125655000D01*
X150250000Y-123620000D02*
X150250000Y-124045000D01*
X149650000Y-126620000D02*
X150040000Y-126620000D01*
X148685000Y-125655000D02*
X149650000Y-126620000D01*
D79*
%TO.N,+3V3*%
X150327500Y-132415000D02*
X149552500Y-133190000D01*
D84*
X178480000Y-118730000D02*
X178480000Y-120475000D01*
D77*
X162945000Y-126380000D02*
X162945000Y-124895000D01*
X151197746Y-124640000D02*
X151080000Y-124640000D01*
X154755500Y-115520000D02*
X155107500Y-115872000D01*
X162825000Y-124775000D02*
X161575000Y-124775000D01*
D79*
X150388948Y-134026448D02*
X150388948Y-135881052D01*
X142330000Y-116569500D02*
X142330000Y-116495000D01*
D77*
X146386260Y-119590000D02*
X146206260Y-119770000D01*
X155107500Y-115872000D02*
X155107500Y-115990000D01*
X157750000Y-119770000D02*
X157570000Y-119590000D01*
D79*
X149550000Y-136720000D02*
X150405844Y-137575844D01*
X149582500Y-140210000D02*
X150424707Y-141052207D01*
D77*
X154270000Y-114500000D02*
X154900000Y-113870000D01*
D79*
X168830000Y-131080000D02*
X167180000Y-131080000D01*
D84*
X178840000Y-120745000D02*
X175420000Y-120745000D01*
X175420000Y-120745000D02*
X175420000Y-120490000D01*
D77*
X157750000Y-119770000D02*
X156915500Y-119770000D01*
X148615000Y-108790000D02*
X148520000Y-108695000D01*
X151020000Y-110980000D02*
X150842442Y-110980000D01*
D79*
X150405844Y-137575844D02*
X150405844Y-139386656D01*
D77*
X152930000Y-110400000D02*
X152842463Y-110400000D01*
X152270000Y-115152500D02*
X152270000Y-111210000D01*
D79*
X158321268Y-117370000D02*
X158731268Y-116960000D01*
X158731268Y-116960000D02*
X158450878Y-116679610D01*
D77*
X158185000Y-121870000D02*
X158185000Y-122155000D01*
D84*
X141679500Y-117220000D02*
X142330000Y-116569500D01*
D79*
X150365520Y-130503020D02*
X150365520Y-132131980D01*
D77*
X162945000Y-124895000D02*
X162825000Y-124775000D01*
X148232500Y-119590000D02*
X146386260Y-119590000D01*
D84*
X138040000Y-109350000D02*
X139730000Y-111040000D01*
D77*
X145630000Y-119770000D02*
X145330000Y-119770000D01*
X154850000Y-112850000D02*
X154890000Y-112850000D01*
X158185000Y-122155000D02*
X157620000Y-122720000D01*
X156915500Y-119770000D02*
X156760000Y-119614500D01*
X151364607Y-132170000D02*
X152380000Y-133185393D01*
D79*
X158731268Y-116960000D02*
X160455000Y-116960000D01*
D85*
X160830000Y-108520000D02*
X159100000Y-108520000D01*
D84*
X177170000Y-119030000D02*
X177170000Y-118740000D01*
D77*
X150842442Y-110980000D02*
X150428471Y-110566029D01*
X152380000Y-133185393D02*
X152380000Y-135520000D01*
X164340000Y-121090000D02*
X164680000Y-121430000D01*
X177180000Y-118730000D02*
X177170000Y-118740000D01*
D79*
X149562500Y-129700000D02*
X150365520Y-130503020D01*
D77*
X163400000Y-124200000D02*
X162825000Y-124775000D01*
D84*
X139730000Y-111040000D02*
X139730000Y-115170000D01*
D77*
X142575000Y-105359901D02*
X142575000Y-106480000D01*
D79*
X150327500Y-132170000D02*
X151364607Y-132170000D01*
D84*
X175420000Y-120490000D02*
X175710000Y-120490000D01*
D77*
X152262463Y-110980000D02*
X152040000Y-110980000D01*
X163635000Y-121090000D02*
X163400000Y-121325000D01*
X152842463Y-110400000D02*
X152262463Y-110980000D01*
X151870000Y-115152500D02*
X151870000Y-111830000D01*
X163635000Y-121090000D02*
X164340000Y-121090000D01*
D86*
X149280000Y-107920000D02*
X149900000Y-108540000D01*
D77*
X153870000Y-113830000D02*
X154850000Y-112850000D01*
D79*
X150405844Y-139386656D02*
X149582500Y-140210000D01*
D77*
X158875000Y-108295000D02*
X158970000Y-108390000D01*
D79*
X150424707Y-142837793D02*
X149572500Y-143690000D01*
D77*
X146870000Y-115120000D02*
X147450000Y-114540000D01*
X177080000Y-118830000D02*
X177170000Y-118740000D01*
D79*
X150365520Y-132131980D02*
X150327500Y-132170000D01*
D77*
X156360000Y-115700000D02*
X155397500Y-115700000D01*
D85*
X157800000Y-108295000D02*
X158875000Y-108295000D01*
D77*
X155397500Y-115700000D02*
X155107500Y-115990000D01*
X153870000Y-115152500D02*
X154270000Y-115152500D01*
X153870000Y-115152500D02*
X153870000Y-113830000D01*
X146206260Y-119770000D02*
X145630000Y-119770000D01*
X154120000Y-126200000D02*
X154130000Y-126190000D01*
D79*
X149552500Y-133190000D02*
X150388948Y-134026448D01*
D77*
X147040000Y-115120000D02*
X146710000Y-115120000D01*
D79*
X149562500Y-129700000D02*
X149562500Y-128582500D01*
D77*
X154130000Y-126190000D02*
X154130000Y-125195000D01*
D84*
X175710000Y-120490000D02*
X177170000Y-119030000D01*
D79*
X150424707Y-141052207D02*
X150424707Y-142837793D01*
D85*
X162910000Y-106440000D02*
X160830000Y-108520000D01*
D82*
X165340000Y-106705000D02*
X163175000Y-106705000D01*
D77*
X154755500Y-115520000D02*
X154388000Y-115152500D01*
D79*
X150327500Y-132170000D02*
X150327500Y-132415000D01*
D77*
X163400000Y-121325000D02*
X163400000Y-124200000D01*
D84*
X141055000Y-116495000D02*
X142330000Y-116495000D01*
D77*
X151870000Y-111830000D02*
X151020000Y-110980000D01*
X159100000Y-108520000D02*
X158970000Y-108390000D01*
X151870000Y-123967746D02*
X151197746Y-124640000D01*
D84*
X139730000Y-115170000D02*
X141055000Y-116495000D01*
D77*
X145330000Y-119770000D02*
X144930000Y-119370000D01*
X150810000Y-124640000D02*
X150030000Y-125420000D01*
D86*
X149900000Y-108790000D02*
X148615000Y-108790000D01*
D77*
X151870000Y-122027500D02*
X151870000Y-123967746D01*
X146710000Y-115120000D02*
X146870000Y-115120000D01*
X142550000Y-105334901D02*
X142575000Y-105359901D01*
X152270000Y-111210000D02*
X152040000Y-110980000D01*
X157570000Y-119590000D02*
X155107500Y-119590000D01*
D79*
X168830000Y-132180000D02*
X167240000Y-132180000D01*
X150388948Y-135881052D02*
X149550000Y-136720000D01*
X158450878Y-116679610D02*
X158450878Y-116469122D01*
D85*
X163175000Y-106705000D02*
X162910000Y-106440000D01*
D79*
X160455000Y-116960000D02*
X160460000Y-116965000D01*
D84*
X177080000Y-120745000D02*
X177080000Y-118830000D01*
D77*
X149562500Y-128582500D02*
X149560000Y-128580000D01*
X147910000Y-115990000D02*
X147040000Y-115120000D01*
X154270000Y-115152500D02*
X154270000Y-114500000D01*
X148232500Y-115990000D02*
X147910000Y-115990000D01*
D84*
X178480000Y-120475000D02*
X178770000Y-120765000D01*
D77*
X154388000Y-115152500D02*
X154270000Y-115152500D01*
X151080000Y-124640000D02*
X150810000Y-124640000D01*
D79*
X167240000Y-132180000D02*
X167200000Y-132140000D01*
D86*
X149900000Y-108540000D02*
X149900000Y-108790000D01*
D84*
X178480000Y-118730000D02*
X177180000Y-118730000D01*
D79*
%TO.N,VBUS*%
X159735500Y-90044500D02*
X159625001Y-90154999D01*
D87*
X169800000Y-113330000D02*
X170108084Y-113330000D01*
X170158084Y-106010000D02*
X169870000Y-106010000D01*
X169345000Y-110175000D02*
X169345000Y-112875000D01*
X169345000Y-109055000D02*
X169345000Y-109605000D01*
X169345000Y-109605000D02*
X169340000Y-109610000D01*
X169345000Y-110165000D02*
X169340000Y-110170000D01*
X169345000Y-106535000D02*
X169345000Y-109045000D01*
D80*
X171570000Y-106398084D02*
X171570000Y-107080038D01*
X171570000Y-107080038D02*
X171769962Y-107280000D01*
D87*
X169340000Y-109610000D02*
X169345000Y-109615000D01*
D80*
X171675000Y-112080000D02*
X172600000Y-112080000D01*
X171181916Y-106010000D02*
X171570000Y-106398084D01*
D87*
X169345000Y-112875000D02*
X169800000Y-113330000D01*
D80*
X171600000Y-112861916D02*
X171600000Y-112155000D01*
D87*
X160000000Y-95330000D02*
X159865000Y-95330000D01*
X169345000Y-109045000D02*
X169340000Y-109050000D01*
D80*
X171769962Y-107280000D02*
X172600000Y-107280000D01*
D87*
X159865000Y-95330000D02*
X158340000Y-93805000D01*
D80*
X171131916Y-113330000D02*
X171600000Y-112861916D01*
X171600000Y-112155000D02*
X171675000Y-112080000D01*
D79*
X159625001Y-90154999D02*
X159625001Y-90765000D01*
D80*
X170108084Y-113330000D02*
X171131916Y-113330000D01*
D87*
X161710000Y-88070000D02*
X161710000Y-89535000D01*
D80*
X170158084Y-106010000D02*
X171181916Y-106010000D01*
D87*
X169340000Y-109050000D02*
X169345000Y-109055000D01*
X169345000Y-109615000D02*
X169345000Y-110165000D01*
X169870000Y-106010000D02*
X169345000Y-106535000D01*
X169340000Y-110170000D02*
X169345000Y-110175000D01*
D79*
%TO.N,Net-(U4-SS)*%
X158100002Y-91690000D02*
X157185000Y-91690000D01*
X157185000Y-91690000D02*
X156550000Y-92325000D01*
%TO.N,VCC*%
X155600000Y-94596839D02*
X152293161Y-91290000D01*
D77*
X155779800Y-94776639D02*
X155779800Y-99389800D01*
X150415000Y-101920000D02*
X150690000Y-101920000D01*
D79*
X158925002Y-90465000D02*
X158460002Y-90000000D01*
X153485699Y-90195000D02*
X153370699Y-90310000D01*
X153370699Y-90310000D02*
X152215699Y-90310000D01*
D77*
X151030000Y-91290000D02*
X150355501Y-91290000D01*
D87*
X150690000Y-101920000D02*
X151320000Y-101290000D01*
D79*
X158460002Y-90000000D02*
X155165000Y-90000000D01*
X154570699Y-90195000D02*
X153375699Y-89000000D01*
D87*
X155779800Y-99389800D02*
X156410000Y-100020000D01*
X151320000Y-101290000D02*
X152600000Y-101290000D01*
D79*
X154970000Y-90195000D02*
X154570699Y-90195000D01*
D77*
X155600000Y-94596839D02*
X155779800Y-94776639D01*
D79*
X152215699Y-90310000D02*
X151980699Y-90545000D01*
X154970000Y-90195000D02*
X153485699Y-90195000D01*
D77*
X154500200Y-99389800D02*
X155779800Y-99389800D01*
D79*
X158925002Y-90765000D02*
X158925002Y-90465000D01*
D87*
X157680000Y-101290000D02*
X158520000Y-102130000D01*
D79*
X158925002Y-90765000D02*
X158925002Y-92115000D01*
X155165000Y-90000000D02*
X154970000Y-90195000D01*
D77*
X151427850Y-91097850D02*
X151235699Y-91290000D01*
X159795000Y-103675000D02*
X159795000Y-103830000D01*
X151235699Y-91290000D02*
X151030000Y-91290000D01*
X152293161Y-91290000D02*
X151030000Y-91290000D01*
D87*
X156410000Y-100020000D02*
X157680000Y-101290000D01*
X158520000Y-102400000D02*
X159795000Y-103675000D01*
X158520000Y-102130000D02*
X158520000Y-102400000D01*
X153870000Y-100020000D02*
X154500200Y-99389800D01*
D77*
X151980699Y-90545000D02*
X151427850Y-91097850D01*
D87*
X152600000Y-101290000D02*
X153870000Y-100020000D01*
D81*
%TO.N,+5V*%
X151205000Y-108780000D02*
X151205000Y-107915000D01*
D77*
X152595000Y-106830000D02*
X152595000Y-107390000D01*
X149810000Y-106520000D02*
X149810000Y-106460000D01*
X149810000Y-106460000D02*
X149810000Y-106080000D01*
X149810000Y-106080000D02*
X150680000Y-105210000D01*
D81*
X151205000Y-107915000D02*
X149810000Y-106520000D01*
D77*
X149810000Y-106460000D02*
X149810000Y-106100000D01*
D81*
X152595000Y-107390000D02*
X151205000Y-108780000D01*
D77*
X149810000Y-106100000D02*
X148900000Y-105190000D01*
%TO.N,Net-(D1-K)*%
X149120000Y-130780000D02*
X149590000Y-131250000D01*
X147825000Y-130780000D02*
X149120000Y-130780000D01*
%TO.N,Net-(D1-A)*%
X151165000Y-131250000D02*
X151165000Y-129747500D01*
X151165000Y-129747500D02*
X151212500Y-129700000D01*
D84*
%TO.N,Net-(D2-K)*%
X173900000Y-116950000D02*
X175680000Y-118730000D01*
D77*
X173780000Y-116950000D02*
X173900000Y-116950000D01*
%TO.N,Net-(J1-CC1)*%
X170620000Y-112085000D02*
X171775000Y-110930000D01*
X171775000Y-110930000D02*
X172600000Y-110930000D01*
X170620000Y-112417500D02*
X170620000Y-112085000D01*
%TO.N,Net-(J1-D+-PadA6)*%
X171420000Y-109575000D02*
X171420000Y-109020000D01*
X171060000Y-108660000D02*
X170457500Y-108660000D01*
X170727500Y-108930000D02*
X170457500Y-108660000D01*
X171420000Y-109020000D02*
X171060000Y-108660000D01*
X172600000Y-108930000D02*
X170727500Y-108930000D01*
X171775000Y-109930000D02*
X171420000Y-109575000D01*
X172600000Y-109930000D02*
X171775000Y-109930000D01*
%TO.N,Net-(J1-D--PadA7)*%
X173425000Y-110430000D02*
X172600000Y-110430000D01*
X170587500Y-110430000D02*
X170457500Y-110560000D01*
X172600000Y-109430000D02*
X173425000Y-109430000D01*
X173425000Y-109430000D02*
X173475000Y-109480000D01*
X173475000Y-110380000D02*
X173425000Y-110430000D01*
X172600000Y-110430000D02*
X170587500Y-110430000D01*
X173475000Y-109480000D02*
X173475000Y-110380000D01*
%TO.N,Net-(J1-CC2)*%
X171677500Y-107930000D02*
X170670000Y-106922500D01*
X172600000Y-107930000D02*
X171677500Y-107930000D01*
%TO.N,/RP_SWCLK*%
X152740000Y-124130000D02*
X152740000Y-126849978D01*
X157190000Y-140370000D02*
X157275000Y-140455000D01*
X152670000Y-122027500D02*
X152670000Y-124060000D01*
X157160000Y-138320000D02*
X157190000Y-138350000D01*
X157190000Y-138350000D02*
X157190000Y-140370000D01*
X152670000Y-124060000D02*
X152740000Y-124130000D01*
X152740000Y-126849978D02*
X152615500Y-126974478D01*
%TO.N,/RP_SWD*%
X154735000Y-137887183D02*
X154735000Y-140455000D01*
X153140000Y-136292183D02*
X154735000Y-137887183D01*
X153070000Y-122027500D02*
X153070000Y-123894314D01*
X153140000Y-123964315D02*
X153140000Y-136292183D01*
X153070000Y-123894314D02*
X153140000Y-123964315D01*
%TO.N,Net-(J4-Pin_1)*%
X165980000Y-126680000D02*
X168830000Y-126680000D01*
%TO.N,Net-(J4-Pin_2)*%
X166545500Y-125580000D02*
X168830000Y-125580000D01*
%TO.N,Net-(U1-XOUT)*%
X151470000Y-122027500D02*
X151470000Y-123360000D01*
X151470000Y-123360000D02*
X151210000Y-123620000D01*
D86*
%TO.N,/USB_D+*%
X168182500Y-108660000D02*
X166666410Y-108660000D01*
X166666410Y-108660000D02*
X165556410Y-109770000D01*
X156845000Y-109770000D02*
X156745000Y-109870000D01*
X165556410Y-109770000D02*
X156845000Y-109770000D01*
D77*
%TO.N,Net-(U1-USB_DP)*%
X154020000Y-110840000D02*
X153242060Y-110840000D01*
X155095000Y-109870000D02*
X154990000Y-109870000D01*
X154990000Y-109870000D02*
X154020000Y-110840000D01*
X152670000Y-111412060D02*
X152670000Y-115152500D01*
X153242060Y-110840000D02*
X152670000Y-111412060D01*
D86*
%TO.N,/USB_D-*%
X158259167Y-110270000D02*
X157109167Y-111420000D01*
X166666410Y-110560000D02*
X166376410Y-110270000D01*
X157109167Y-111420000D02*
X156745000Y-111420000D01*
X166376410Y-110270000D02*
X158259167Y-110270000D01*
X168182500Y-110560000D02*
X166666410Y-110560000D01*
D77*
%TO.N,Net-(U1-USB_DM)*%
X153070000Y-111577746D02*
X153407746Y-111240000D01*
X154915000Y-111240000D02*
X155095000Y-111420000D01*
X153070000Y-115152500D02*
X153070000Y-111577746D01*
X153407746Y-111240000D02*
X154915000Y-111240000D01*
D79*
%TO.N,Net-(U4-OV1)*%
X160400000Y-91190000D02*
X161705000Y-91190000D01*
X161710000Y-91185000D02*
X161710000Y-90752462D01*
X161710000Y-90752462D02*
X160125000Y-89167462D01*
X161705000Y-91190000D02*
X161710000Y-91185000D01*
X160125000Y-89167462D02*
X160125000Y-89070000D01*
%TO.N,Net-(U4-OV2)*%
X163330001Y-90355001D02*
X163320000Y-90345000D01*
X160400000Y-91690000D02*
X160800000Y-91690000D01*
X161220000Y-92110000D02*
X163010000Y-92110000D01*
X160800000Y-91690000D02*
X161220000Y-92110000D01*
X163010000Y-92110000D02*
X163330001Y-91789999D01*
X163330001Y-91789999D02*
X163330001Y-90355001D01*
D77*
%TO.N,Net-(SW1-B)*%
X146400002Y-105535002D02*
X146400002Y-104207200D01*
X147325000Y-106460000D02*
X146400002Y-105535002D01*
%TO.N,/QSPI_SS*%
X141070000Y-110387500D02*
X141070000Y-112020000D01*
X141776472Y-113927843D02*
X147845343Y-113927843D01*
X142720000Y-107985000D02*
X144225000Y-106480000D01*
X141070000Y-113221370D02*
X141776472Y-113927843D01*
X142720000Y-108695000D02*
X142720000Y-107985000D01*
X142720000Y-108737500D02*
X141070000Y-110387500D01*
X142720000Y-108695000D02*
X144955000Y-106460000D01*
X141070000Y-112020000D02*
X141070000Y-113221370D01*
X144955000Y-106460000D02*
X145675000Y-106460000D01*
X142720000Y-108695000D02*
X142720000Y-108737500D01*
X147845343Y-113927843D02*
X149070000Y-115152500D01*
D79*
%TO.N,Net-(U4-ILM)*%
X157205000Y-91190000D02*
X156775000Y-90760000D01*
X158100002Y-91190000D02*
X157205000Y-91190000D01*
D77*
%TO.N,Net-(U6-IN+)*%
X150215699Y-89000000D02*
X151725699Y-89000000D01*
X150355501Y-89139802D02*
X150215699Y-89000000D01*
X150355501Y-90790001D02*
X150355501Y-89139802D01*
%TO.N,Net-(SW2-C)*%
X150355501Y-92139999D02*
X150205500Y-92290000D01*
X151575698Y-91789999D02*
X151980699Y-92195000D01*
X150205500Y-92290000D02*
X148030000Y-92290000D01*
X148030000Y-92290000D02*
X146428101Y-90688101D01*
X150355501Y-91789999D02*
X150355501Y-92139999D01*
X150355501Y-91789999D02*
X151575698Y-91789999D01*
X146428101Y-90688101D02*
X146428101Y-90630000D01*
%TO.N,/SCL*%
X175930000Y-121695000D02*
X174937893Y-121695000D01*
X176855000Y-122620000D02*
X175930000Y-121695000D01*
X159850000Y-120420000D02*
X156780000Y-120420000D01*
X176985000Y-124706751D02*
X176985000Y-122490000D01*
X178330000Y-125580000D02*
X177858249Y-125580000D01*
X177080000Y-122395000D02*
X176855000Y-122620000D01*
X159835000Y-121870000D02*
X160490000Y-121870000D01*
X174082893Y-122550000D02*
X167220001Y-122550000D01*
X160590000Y-122625000D02*
X159835000Y-121870000D01*
X160490000Y-121870000D02*
X160980000Y-121380000D01*
X167220001Y-122550000D02*
X164450001Y-119780000D01*
X161575000Y-122625000D02*
X160590000Y-122625000D01*
X174937893Y-121695000D02*
X174082893Y-122550000D01*
X160490000Y-119780000D02*
X159850000Y-120420000D01*
X156780000Y-120420000D02*
X156350000Y-119990000D01*
X156350000Y-119990000D02*
X155107500Y-119990000D01*
X176985000Y-122490000D02*
X177080000Y-122395000D01*
X164450001Y-119780000D02*
X160490000Y-119780000D01*
X177858249Y-125580000D02*
X176985000Y-124706751D01*
%TO.N,/SDA*%
X160260000Y-120820000D02*
X156614314Y-120820000D01*
X161985000Y-121090000D02*
X161985000Y-120835000D01*
X174865000Y-122950000D02*
X167054315Y-122950000D01*
X175695000Y-122395000D02*
X175420000Y-122395000D01*
X167054315Y-122950000D02*
X164284315Y-120180000D01*
X162825000Y-122625000D02*
X162825000Y-121930000D01*
X162825000Y-121930000D02*
X161985000Y-121090000D01*
X161985000Y-120835000D02*
X161330000Y-120180000D01*
X175420000Y-122395000D02*
X174865000Y-122950000D01*
X178330000Y-126680000D02*
X177800000Y-126680000D01*
X161330000Y-120180000D02*
X160900000Y-120180000D01*
X176505000Y-123205000D02*
X175695000Y-122395000D01*
X160900000Y-120180000D02*
X160260000Y-120820000D01*
X156184314Y-120390000D02*
X155107500Y-120390000D01*
X176505000Y-125385000D02*
X176505000Y-123205000D01*
X164284315Y-120180000D02*
X161330000Y-120180000D01*
X156614314Y-120820000D02*
X156184314Y-120390000D01*
X177800000Y-126680000D02*
X176505000Y-125385000D01*
%TO.N,/LVC_CUTOFF*%
X153230200Y-101929800D02*
X153870000Y-101290000D01*
X156390000Y-101290000D02*
X156410000Y-101290000D01*
X143860000Y-92150000D02*
X143048102Y-92150000D01*
X155759800Y-100659800D02*
X156390000Y-101290000D01*
X153870000Y-101290000D02*
X154500200Y-100659800D01*
X154500200Y-100659800D02*
X155759800Y-100659800D01*
X151390000Y-102450000D02*
X151910200Y-101929800D01*
X151910200Y-101929800D02*
X153230200Y-101929800D01*
X143048102Y-92150000D02*
X142028102Y-93170000D01*
%TO.N,/SERVO_PWM*%
X145472157Y-117627843D02*
X146234315Y-118390000D01*
X143829500Y-123120000D02*
X143490000Y-122780500D01*
X143490000Y-118841372D02*
X144703529Y-117627843D01*
X143490000Y-122780500D02*
X143490000Y-118841372D01*
X146234315Y-118390000D02*
X148232500Y-118390000D01*
X144703529Y-117627843D02*
X145472157Y-117627843D01*
%TO.N,/DRF_TXEN*%
X146728723Y-119990000D02*
X148232500Y-119990000D01*
X146604223Y-120114500D02*
X146728723Y-119990000D01*
%TO.N,/DRF_SW*%
X146821686Y-120639500D02*
X147071186Y-120390000D01*
X145571594Y-121228406D02*
X146160500Y-120639500D01*
X147071186Y-120390000D02*
X148232500Y-120390000D01*
X146160500Y-120639500D02*
X146821686Y-120639500D01*
X145571594Y-121420000D02*
X145571594Y-121228406D01*
%TO.N,/DRF_DIO1*%
X147236872Y-120790000D02*
X148232500Y-120790000D01*
X146335575Y-121214425D02*
X146510500Y-121039500D01*
X146510500Y-121039500D02*
X146987372Y-121039500D01*
X146335575Y-121627678D02*
X146335575Y-121214425D01*
X146987372Y-121039500D02*
X147236872Y-120790000D01*
%TO.N,/DRF_BUSY*%
X147517920Y-121190000D02*
X148232500Y-121190000D01*
X147158960Y-121548960D02*
X147517920Y-121190000D01*
%TO.N,/RDIO_RST*%
X149750500Y-119891963D02*
X149470000Y-120172463D01*
X150930000Y-116170000D02*
X150550089Y-116170000D01*
X150550089Y-116170000D02*
X149750500Y-116969589D01*
X149470000Y-120172463D02*
X149470000Y-122027500D01*
X149750500Y-116969589D02*
X149750500Y-119891963D01*
%TO.N,/EXTINT*%
X165260000Y-128570000D02*
X168520000Y-128570000D01*
X154270000Y-122027500D02*
X155127500Y-122027500D01*
X168520000Y-128570000D02*
X168830000Y-128880000D01*
X155127500Y-122027500D02*
X155130000Y-122030000D01*
%TO.N,/TIMEPULSE*%
X165277110Y-127032890D02*
X166024220Y-127780000D01*
X156605000Y-122370000D02*
X156605000Y-122352537D01*
X156930000Y-122370000D02*
X156605000Y-122370000D01*
X156605000Y-122352537D02*
X155442463Y-121190000D01*
X155442463Y-121190000D02*
X155107500Y-121190000D01*
X166024220Y-127780000D02*
X168830000Y-127780000D01*
%TO.N,/MISO*%
X155840000Y-118390000D02*
X155107500Y-118390000D01*
X157721268Y-118170000D02*
X157721268Y-118778732D01*
X156420000Y-118970000D02*
X155840000Y-118390000D01*
X157721268Y-118778732D02*
X157530000Y-118970000D01*
X157530000Y-118970000D02*
X156420000Y-118970000D01*
%TO.N,/DRF_CS*%
X155107500Y-117990000D02*
X154274500Y-117990000D01*
%TO.N,/SCK*%
X157721268Y-117228781D02*
X157721268Y-117370000D01*
X157351987Y-116859500D02*
X157721268Y-117228781D01*
X156175500Y-117590000D02*
X155107500Y-117590000D01*
X156300000Y-117714500D02*
X156175500Y-117590000D01*
%TO.N,/MOSI*%
X154575025Y-117190000D02*
X155107500Y-117190000D01*
X154445025Y-117320000D02*
X154575025Y-117190000D01*
X154104500Y-117320000D02*
X154445025Y-117320000D01*
X156820000Y-117370000D02*
X156640000Y-117190000D01*
X156640000Y-117190000D02*
X155107500Y-117190000D01*
X157121268Y-117370000D02*
X156820000Y-117370000D01*
%TO.N,/FRAM_CS*%
X158980000Y-118130000D02*
X158361268Y-118130000D01*
X155107500Y-116390000D02*
X156300000Y-116390000D01*
X158361268Y-118130000D02*
X158321268Y-118170000D01*
X156300000Y-116390000D02*
X156520000Y-116610000D01*
%TO.N,/QSPI_SD3*%
X151070000Y-113892254D02*
X150190000Y-113012254D01*
X150190000Y-113012254D02*
X150190000Y-113007257D01*
X149910000Y-111355000D02*
X148520000Y-109965000D01*
X150190000Y-113007257D02*
X149910000Y-112727257D01*
X149910000Y-112727257D02*
X149910000Y-111355000D01*
X151070000Y-115152500D02*
X151070000Y-113892254D01*
%TO.N,/QSPI_SCLK*%
X149510000Y-112892943D02*
X149510000Y-112050000D01*
X149790000Y-113177940D02*
X149790000Y-113172943D01*
X149510000Y-112050000D02*
X148695000Y-111235000D01*
X150670000Y-115152500D02*
X150670000Y-114057940D01*
X150670000Y-114057940D02*
X149790000Y-113177940D01*
X149790000Y-113172943D02*
X149510000Y-112892943D01*
X148695000Y-111235000D02*
X148520000Y-111235000D01*
%TO.N,/QSPI_SD0*%
X149390000Y-113338629D02*
X148556371Y-112505000D01*
X150270000Y-114223625D02*
X149390000Y-113343625D01*
X150270000Y-115152500D02*
X150270000Y-114223625D01*
X148556371Y-112505000D02*
X148520000Y-112505000D01*
X149390000Y-113343625D02*
X149390000Y-113338629D01*
%TO.N,/QSPI_SD2*%
X148990000Y-113504315D02*
X148990000Y-113509310D01*
X142107843Y-113127843D02*
X148613528Y-113127843D01*
X148990000Y-113509310D02*
X149870000Y-114389310D01*
X148613528Y-113127843D02*
X148990000Y-113504315D01*
X149870000Y-114389310D02*
X149870000Y-115152500D01*
X141870000Y-112890000D02*
X142107843Y-113127843D01*
X142635000Y-111235000D02*
X141870000Y-112000000D01*
X142720000Y-111235000D02*
X142635000Y-111235000D01*
X141870000Y-112000000D02*
X141870000Y-112890000D01*
%TO.N,/QSPI_SD1*%
X141470000Y-111215000D02*
X142720000Y-109965000D01*
X141942157Y-113527843D02*
X141470000Y-113055685D01*
X149470000Y-115152500D02*
X149470000Y-114554996D01*
X141470000Y-113055685D02*
X141470000Y-111215000D01*
X148442847Y-113527843D02*
X141942157Y-113527843D01*
X149470000Y-114554996D02*
X148442847Y-113527843D01*
%TO.N,Net-(U10-TRACK{slash}SS1)*%
X159795000Y-102135000D02*
X157680000Y-100020000D01*
X159795000Y-102210000D02*
X159795000Y-102135000D01*
D79*
%TO.N,Net-(U10-TRACK{slash}SS2)*%
X152480000Y-100020000D02*
X151930000Y-99470000D01*
X150330000Y-100345000D02*
X150305000Y-100370000D01*
X152600000Y-100020000D02*
X152480000Y-100020000D01*
X150330000Y-99370000D02*
X150330000Y-100345000D01*
%TO.N,Net-(U10-FB2)*%
X149330000Y-98705000D02*
X149215000Y-98820000D01*
X152600000Y-98750000D02*
X151910000Y-98750000D01*
X149330000Y-97770000D02*
X149330000Y-98705000D01*
D77*
X149215000Y-98820000D02*
X149285000Y-98750000D01*
D79*
X151910000Y-98750000D02*
X151830000Y-98670000D01*
D77*
%TO.N,Net-(U10-FB1)*%
X159765000Y-100680000D02*
X159610000Y-100680000D01*
X159610000Y-100680000D02*
X157680000Y-98750000D01*
D79*
%TO.N,Net-(U10-FREQ)*%
X155110000Y-98750000D02*
X154630000Y-98270000D01*
X152095000Y-95470000D02*
X151980000Y-95355000D01*
X153030000Y-95470000D02*
X152095000Y-95470000D01*
X155140000Y-98750000D02*
X155110000Y-98750000D01*
%TO.N,Net-(U10-PG00D2)*%
X153870000Y-98750000D02*
X153870000Y-98710000D01*
X153870000Y-98710000D02*
X153530000Y-98370000D01*
D77*
%TO.N,Net-(U10-PG00D1)*%
X160690000Y-97950000D02*
X160520200Y-98119800D01*
X157040200Y-98119800D02*
X156410000Y-98750000D01*
X160520200Y-98119800D02*
X157040200Y-98119800D01*
%TO.N,Net-(D3-K)*%
X149147500Y-137820000D02*
X149607500Y-138280000D01*
X147835000Y-137820000D02*
X149147500Y-137820000D01*
%TO.N,Net-(D3-A)*%
X151182500Y-138280000D02*
X151182500Y-136737500D01*
X151182500Y-136737500D02*
X151200000Y-136720000D01*
%TO.N,Net-(D4-K)*%
X147825000Y-144730000D02*
X149110000Y-144730000D01*
X149110000Y-144730000D02*
X149610000Y-145230000D01*
%TO.N,Net-(D4-A)*%
X151185000Y-145230000D02*
X151185000Y-143727500D01*
X151185000Y-143727500D02*
X151222500Y-143690000D01*
%TO.N,Net-(D5-K)*%
X147825000Y-141270000D02*
X148315000Y-141760000D01*
X148315000Y-141760000D02*
X149630000Y-141760000D01*
%TO.N,Net-(D5-A)*%
X151205000Y-140237500D02*
X151232500Y-140210000D01*
X151205000Y-141760000D02*
X151205000Y-140237500D01*
%TO.N,Net-(D6-K)*%
X149100000Y-134270000D02*
X149590000Y-134760000D01*
X147825000Y-134270000D02*
X149100000Y-134270000D01*
%TO.N,Net-(D6-A)*%
X151165000Y-133227500D02*
X151202500Y-133190000D01*
X151165000Y-134760000D02*
X151165000Y-133227500D01*
D87*
%TO.N,Net-(C25-Pad1)*%
X159890000Y-106660000D02*
X160110000Y-106440000D01*
X157800000Y-106645000D02*
X157815000Y-106660000D01*
X157815000Y-106660000D02*
X159890000Y-106660000D01*
D77*
X160110000Y-106440000D02*
X159715000Y-106440000D01*
D87*
X159715000Y-106440000D02*
X157870000Y-104595000D01*
X157680000Y-102560000D02*
X157680000Y-104405000D01*
X157680000Y-104405000D02*
X157870000Y-104595000D01*
X156410000Y-102560000D02*
X157680000Y-102560000D01*
D80*
%TO.N,Net-(C26-Pad1)*%
X153790000Y-107845000D02*
X152855000Y-108780000D01*
D77*
X152600000Y-104625000D02*
X152570000Y-104655000D01*
D80*
X153790000Y-105942183D02*
X153790000Y-107845000D01*
D81*
X151500000Y-103660000D02*
X152600000Y-102560000D01*
X153870000Y-102560000D02*
X152600000Y-102560000D01*
D85*
X149810000Y-103660000D02*
X151500000Y-103660000D01*
D80*
X152570000Y-104722183D02*
X153790000Y-105942183D01*
D81*
X152600000Y-102560000D02*
X152600000Y-104625000D01*
D77*
X152570000Y-104655000D02*
X152570000Y-104722183D01*
%TO.N,/LED5*%
X143090000Y-127370000D02*
X143090000Y-118675686D01*
X145637843Y-117227843D02*
X146400000Y-117990000D01*
X143090000Y-118675686D02*
X144537844Y-117227843D01*
X145550000Y-129830000D02*
X143090000Y-127370000D01*
X146400000Y-117990000D02*
X148232500Y-117990000D01*
X144537844Y-117227843D02*
X145637843Y-117227843D01*
%TO.N,/LED3*%
X145382942Y-118670000D02*
X145902943Y-119190000D01*
X143680000Y-126520000D02*
X143680000Y-124011963D01*
X144290000Y-121104314D02*
X144290000Y-119175686D01*
X144290000Y-119175686D02*
X144795686Y-118670000D01*
X145560000Y-136870000D02*
X144980000Y-136870000D01*
X144795686Y-118670000D02*
X145382942Y-118670000D01*
X144539500Y-121353814D02*
X144290000Y-121104314D01*
X143230000Y-135120000D02*
X143230000Y-128620000D01*
X144539500Y-123152463D02*
X144539500Y-121353814D01*
X143680000Y-124011963D02*
X144539500Y-123152463D01*
X145902943Y-119190000D02*
X148232500Y-119190000D01*
X144980000Y-136870000D02*
X143230000Y-135120000D01*
%TO.N,/LED1*%
X142290000Y-118185000D02*
X142290000Y-140258896D01*
X144745000Y-115730000D02*
X142290000Y-118185000D01*
X147700025Y-116390000D02*
X147040025Y-115730000D01*
X147040025Y-115730000D02*
X144745000Y-115730000D01*
X142290000Y-140258896D02*
X145550000Y-143518896D01*
X148232500Y-116390000D02*
X147700025Y-116390000D01*
X145550000Y-143518896D02*
X145550000Y-143780000D01*
%TO.N,/LED2*%
X148232500Y-116790000D02*
X147534339Y-116790000D01*
X146874339Y-116130000D02*
X145070000Y-116130000D01*
X147534339Y-116790000D02*
X146874339Y-116130000D01*
X142690000Y-137460000D02*
X145550000Y-140320000D01*
X142690000Y-118510000D02*
X142690000Y-137460000D01*
X145070000Y-116130000D02*
X142690000Y-118510000D01*
%TO.N,/LED4*%
X146512500Y-128902500D02*
X146512500Y-130166396D01*
X144861104Y-131120000D02*
X144580000Y-131401104D01*
X144580000Y-131401104D02*
X144580000Y-132350000D01*
X146512500Y-130166396D02*
X145558896Y-131120000D01*
X145558896Y-131120000D02*
X144861104Y-131120000D01*
X147972500Y-122027500D02*
X147880000Y-122120000D01*
X149070000Y-122027500D02*
X147972500Y-122027500D01*
X144580000Y-132350000D02*
X145550000Y-133320000D01*
X145064000Y-123055951D02*
X145064000Y-127454000D01*
X145064000Y-127454000D02*
X146512500Y-128902500D01*
%TO.N,Net-(J7-Pin_2)*%
X165040086Y-116971259D02*
X163481259Y-116971259D01*
X163481259Y-116971259D02*
X159430000Y-112920000D01*
%TO.N,Net-(J8-Pin_2)*%
X165730000Y-116820000D02*
X165730000Y-116920000D01*
X163530000Y-114620000D02*
X165730000Y-116820000D01*
X163530000Y-112920000D02*
X163530000Y-114620000D01*
%TO.N,/HEATER1*%
X149994500Y-120570673D02*
X149870000Y-120695173D01*
X158180000Y-112220000D02*
X160180000Y-112220000D01*
X158080000Y-112320000D02*
X158180000Y-112220000D01*
X160180000Y-112220000D02*
X161830000Y-113870000D01*
X149870000Y-120695173D02*
X149870000Y-122027500D01*
D79*
%TO.N,/TEMP*%
X138040000Y-106840000D02*
X138040000Y-106810000D01*
D77*
X148232500Y-118790000D02*
X146068629Y-118790000D01*
D79*
X142092588Y-114845000D02*
X140645000Y-113397411D01*
D77*
X143890000Y-119010000D02*
X143890000Y-121270000D01*
D79*
X140645000Y-113397411D02*
X140645000Y-109445000D01*
D77*
X144014500Y-121394500D02*
X144014500Y-122170000D01*
X142280000Y-114895000D02*
X142330000Y-114845000D01*
X142280000Y-115620000D02*
X142280000Y-114895000D01*
X146068629Y-118790000D02*
X145348628Y-118070000D01*
X144830000Y-118070000D02*
X143890000Y-119010000D01*
X143890000Y-121270000D02*
X144014500Y-121394500D01*
D79*
X142330000Y-114845000D02*
X142092588Y-114845000D01*
X140645000Y-109445000D02*
X138040000Y-106840000D01*
D77*
X145348628Y-118070000D02*
X144830000Y-118070000D01*
%TO.N,/HEATER2*%
X165930000Y-113270000D02*
X165930000Y-113870000D01*
X150829478Y-120769861D02*
X150270000Y-121329339D01*
X150270000Y-121329339D02*
X150270000Y-122027500D01*
X150829478Y-120767481D02*
X150829478Y-120769861D01*
X164280000Y-111620000D02*
X165930000Y-113270000D01*
%TO.N,/PGOOD_CUT*%
X154534500Y-119190000D02*
X154104500Y-119620000D01*
X155107500Y-119190000D02*
X154534500Y-119190000D01*
%TO.N,/CUT_CURR*%
X154030000Y-116470000D02*
X154350000Y-116790000D01*
X154350000Y-116790000D02*
X155107500Y-116790000D01*
%TO.N,/DATA_CUT*%
X154274140Y-118731396D02*
X154332744Y-118790000D01*
X154332744Y-118790000D02*
X155107500Y-118790000D01*
X140425878Y-125755878D02*
X138130000Y-123460000D01*
X140425878Y-125765878D02*
X140425878Y-125755878D01*
%TO.N,/GPIO16*%
X154075025Y-122765000D02*
X153870000Y-122559975D01*
X153870000Y-122559975D02*
X153870000Y-122027500D01*
X154694722Y-122765000D02*
X154075025Y-122765000D01*
X154763073Y-122833351D02*
X154694722Y-122765000D01*
%TO.N,/GPIO19*%
X164735000Y-137025000D02*
X165130000Y-137420000D01*
X155107500Y-120790000D02*
X155900000Y-120790000D01*
X164892988Y-125907012D02*
X164735000Y-126065000D01*
X155900000Y-120790000D02*
X156480000Y-121370000D01*
X165130000Y-137420000D02*
X165130000Y-144240000D01*
X164735000Y-126065000D02*
X164735000Y-137025000D01*
X165130000Y-144240000D02*
X164600000Y-144770000D01*
%TO.N,/GPIO2*%
X141080000Y-119436657D02*
X141080000Y-144170000D01*
X151445686Y-146770000D02*
X152995686Y-145220000D01*
X143680000Y-146770000D02*
X151445686Y-146770000D01*
X156530000Y-145220000D02*
X156980000Y-144770000D01*
X141746657Y-118770000D02*
X141080000Y-119436657D01*
X146648090Y-116654500D02*
X147183590Y-117190000D01*
X147183590Y-117190000D02*
X148232500Y-117190000D01*
X141080000Y-144170000D02*
X143680000Y-146770000D01*
X146632537Y-116654500D02*
X146648090Y-116654500D01*
X152995686Y-145220000D02*
X156530000Y-145220000D01*
%TO.N,/GPIO3*%
X146665408Y-117405289D02*
X146850119Y-117590000D01*
X151280000Y-146370000D02*
X144941104Y-146370000D01*
X146850119Y-117590000D02*
X148232500Y-117590000D01*
X144941104Y-146370000D02*
X141730000Y-143158896D01*
X159520000Y-144770000D02*
X158220000Y-143470000D01*
X154180000Y-143470000D02*
X151280000Y-146370000D01*
X158220000Y-143470000D02*
X154180000Y-143470000D01*
X146656416Y-117405289D02*
X146665408Y-117405289D01*
X141730000Y-143158896D02*
X141730000Y-120120000D01*
%TD*%
%TA.AperFunction,Conductor*%
%TO.N,Net-(C26-Pad1)*%
G36*
X154335677Y-102129685D02*
G01*
X154356319Y-102146319D01*
X154383681Y-102173681D01*
X154417166Y-102235004D01*
X154420000Y-102261362D01*
X154420000Y-103048638D01*
X154400315Y-103115677D01*
X154383681Y-103136319D01*
X154096319Y-103423681D01*
X154034996Y-103457166D01*
X154008638Y-103460000D01*
X153350000Y-103460000D01*
X153350000Y-104820000D01*
X153562608Y-105032608D01*
X153596070Y-105093825D01*
X153597353Y-105099699D01*
X153642206Y-105227880D01*
X153642207Y-105227882D01*
X153722850Y-105337150D01*
X153832118Y-105417793D01*
X153871145Y-105431449D01*
X153960293Y-105462644D01*
X153960299Y-105462645D01*
X153960301Y-105462646D01*
X153960303Y-105462646D01*
X153966167Y-105463927D01*
X154027391Y-105497391D01*
X154353682Y-105823682D01*
X154387166Y-105885003D01*
X154390000Y-105911361D01*
X154390000Y-108728637D01*
X154370315Y-108795676D01*
X154353681Y-108816318D01*
X153697308Y-109472690D01*
X153635985Y-109506175D01*
X153571305Y-109502939D01*
X153563120Y-109500279D01*
X153430002Y-109479196D01*
X153429998Y-109479196D01*
X153296876Y-109500279D01*
X153225819Y-109536485D01*
X153169525Y-109550000D01*
X152381362Y-109550000D01*
X152314323Y-109530315D01*
X152293681Y-109513681D01*
X152066319Y-109286319D01*
X152032834Y-109224996D01*
X152030000Y-109198638D01*
X152030000Y-108714175D01*
X152049685Y-108647136D01*
X152066319Y-108626494D01*
X152291368Y-108401446D01*
X152725994Y-107966819D01*
X152787318Y-107933334D01*
X152813676Y-107930500D01*
X152974270Y-107930500D01*
X153004699Y-107927646D01*
X153004701Y-107927646D01*
X153068790Y-107905219D01*
X153132882Y-107882793D01*
X153242150Y-107802150D01*
X153322793Y-107692882D01*
X153355029Y-107600757D01*
X153367646Y-107564701D01*
X153367646Y-107564699D01*
X153370500Y-107534269D01*
X153370500Y-106125730D01*
X153367646Y-106095300D01*
X153367646Y-106095298D01*
X153329000Y-105984857D01*
X153322793Y-105967118D01*
X153242150Y-105857850D01*
X153132882Y-105777207D01*
X153132880Y-105777206D01*
X153004701Y-105732353D01*
X153002464Y-105732144D01*
X153000916Y-105731527D01*
X152997330Y-105730744D01*
X152997459Y-105730150D01*
X152937557Y-105706282D01*
X152926367Y-105696367D01*
X152690000Y-105460000D01*
X151831362Y-105460000D01*
X151764323Y-105440315D01*
X151743681Y-105423681D01*
X151416319Y-105096319D01*
X151382834Y-105034996D01*
X151380000Y-105008638D01*
X151380000Y-104380000D01*
X148430000Y-104380000D01*
X148405335Y-104380000D01*
X148405335Y-104379139D01*
X148371982Y-104382725D01*
X148309503Y-104351449D01*
X148273852Y-104291360D01*
X148270000Y-104260695D01*
X148270000Y-103151362D01*
X148289685Y-103084323D01*
X148306319Y-103063681D01*
X148473681Y-102896319D01*
X148535004Y-102862834D01*
X148561362Y-102860000D01*
X151248891Y-102860000D01*
X151268289Y-102861527D01*
X151389998Y-102880804D01*
X151390000Y-102880804D01*
X151390002Y-102880804D01*
X151523121Y-102859720D01*
X151523121Y-102859719D01*
X151523126Y-102859719D01*
X151643220Y-102798528D01*
X151738528Y-102703220D01*
X151799719Y-102583126D01*
X151815599Y-102482858D01*
X151845527Y-102419727D01*
X151850354Y-102414615D01*
X151998353Y-102266617D01*
X152059676Y-102233134D01*
X152086033Y-102230300D01*
X153167359Y-102230300D01*
X153175933Y-102230895D01*
X153187961Y-102232572D01*
X153187961Y-102232571D01*
X153187965Y-102232573D01*
X153231120Y-102230578D01*
X153235710Y-102230366D01*
X153238573Y-102230300D01*
X153258043Y-102230300D01*
X153258044Y-102230300D01*
X153260668Y-102229809D01*
X153269221Y-102228816D01*
X153270445Y-102228759D01*
X153300192Y-102227385D01*
X153306522Y-102224589D01*
X153333829Y-102216132D01*
X153340633Y-102214861D01*
X153366997Y-102198536D01*
X153374592Y-102194533D01*
X153402965Y-102182006D01*
X153407861Y-102177109D01*
X153430269Y-102159361D01*
X153436152Y-102155719D01*
X153436156Y-102155713D01*
X153444644Y-102147977D01*
X153446277Y-102149769D01*
X153489570Y-102117640D01*
X153532422Y-102110000D01*
X154268638Y-102110000D01*
X154335677Y-102129685D01*
G37*
%TD.AperFunction*%
%TD*%
%TA.AperFunction,Conductor*%
%TO.N,VBUS*%
G36*
X159726822Y-89693514D02*
G01*
X159796962Y-89729253D01*
X159799698Y-89730647D01*
X159893475Y-89745499D01*
X159893481Y-89745500D01*
X160036001Y-89745499D01*
X160103039Y-89765183D01*
X160148794Y-89817987D01*
X160160000Y-89869499D01*
X160160000Y-90271871D01*
X160140315Y-90338910D01*
X160087511Y-90384665D01*
X160060193Y-90393488D01*
X160021769Y-90401131D01*
X159955447Y-90445446D01*
X159911132Y-90511768D01*
X159911131Y-90511769D01*
X159899500Y-90570246D01*
X159899500Y-90809751D01*
X159911131Y-90868228D01*
X159911132Y-90868230D01*
X159913055Y-90871107D01*
X159915318Y-90878334D01*
X159915806Y-90879512D01*
X159915700Y-90879555D01*
X159933934Y-90937784D01*
X159915450Y-91005164D01*
X159913058Y-91008888D01*
X159911131Y-91011770D01*
X159899500Y-91070247D01*
X159899500Y-91265500D01*
X159879815Y-91332539D01*
X159827011Y-91378294D01*
X159775500Y-91389500D01*
X159449502Y-91389500D01*
X159382463Y-91369815D01*
X159336708Y-91317011D01*
X159325502Y-91265500D01*
X159325502Y-90220249D01*
X159325501Y-90220247D01*
X159313870Y-90161770D01*
X159313869Y-90161769D01*
X159280898Y-90112424D01*
X159260020Y-90045746D01*
X159260000Y-90043533D01*
X159260000Y-89804000D01*
X159279685Y-89736961D01*
X159332489Y-89691206D01*
X159384000Y-89680000D01*
X159670528Y-89680000D01*
X159726822Y-89693514D01*
G37*
%TD.AperFunction*%
%TD*%
%TA.AperFunction,Conductor*%
%TO.N,+5V*%
G36*
X151117539Y-104719685D02*
G01*
X151163294Y-104772489D01*
X151174500Y-104824000D01*
X151174500Y-105014142D01*
X151175089Y-105025136D01*
X151175090Y-105025152D01*
X151178511Y-105056961D01*
X151178513Y-105056970D01*
X151202470Y-105133478D01*
X151202471Y-105133483D01*
X151216872Y-105159855D01*
X151235956Y-105194805D01*
X151235958Y-105194808D01*
X151235960Y-105194811D01*
X151270998Y-105241615D01*
X151271002Y-105241619D01*
X151271009Y-105241629D01*
X151602263Y-105572883D01*
X151608632Y-105578605D01*
X151610454Y-105580242D01*
X151610459Y-105580246D01*
X151635377Y-105600325D01*
X151635376Y-105600325D01*
X151706424Y-105637490D01*
X151773456Y-105657173D01*
X151773458Y-105657173D01*
X151773464Y-105657175D01*
X151831362Y-105665500D01*
X152553518Y-105665500D01*
X152620557Y-105685185D01*
X152641193Y-105701814D01*
X152783249Y-105843870D01*
X152787763Y-105848120D01*
X152801274Y-105860091D01*
X152861491Y-105897186D01*
X152861493Y-105897187D01*
X152872720Y-105901660D01*
X152892502Y-105909542D01*
X152895424Y-105911832D01*
X152917362Y-105919509D01*
X152919834Y-105920433D01*
X152950617Y-105932698D01*
X152967152Y-105936931D01*
X153018130Y-105954769D01*
X153050805Y-105972039D01*
X153080160Y-105993704D01*
X153106296Y-106019840D01*
X153127955Y-106049187D01*
X153145225Y-106081862D01*
X153158040Y-106118481D01*
X153165000Y-106159440D01*
X153165000Y-107500559D01*
X153158041Y-107541515D01*
X153145228Y-107578131D01*
X153127958Y-107610807D01*
X153106296Y-107640159D01*
X153080156Y-107666299D01*
X153050810Y-107687956D01*
X153018138Y-107705224D01*
X152981516Y-107718040D01*
X152940557Y-107725000D01*
X152808172Y-107725000D01*
X152797177Y-107725589D01*
X152797161Y-107725590D01*
X152765352Y-107729011D01*
X152765346Y-107729012D01*
X152688833Y-107752969D01*
X152627511Y-107786453D01*
X152580691Y-107821503D01*
X152580676Y-107821516D01*
X151917123Y-108485069D01*
X151909757Y-108493267D01*
X151909753Y-108493272D01*
X151889674Y-108518189D01*
X151852509Y-108589237D01*
X151832826Y-108656269D01*
X151824500Y-108714178D01*
X151824500Y-109204142D01*
X151825089Y-109215136D01*
X151825090Y-109215152D01*
X151828511Y-109246961D01*
X151828513Y-109246970D01*
X151845076Y-109299865D01*
X151852471Y-109323482D01*
X151874327Y-109363508D01*
X151889179Y-109431780D01*
X151864763Y-109497245D01*
X151808829Y-109539116D01*
X151781685Y-109545873D01*
X151781526Y-109545894D01*
X151780514Y-109546027D01*
X151780509Y-109546029D01*
X151701480Y-109582882D01*
X151649075Y-109594500D01*
X151410925Y-109594500D01*
X151358520Y-109582882D01*
X151279487Y-109546028D01*
X151279485Y-109546027D01*
X151279486Y-109546027D01*
X151229902Y-109539500D01*
X151229901Y-109539500D01*
X151192610Y-109539500D01*
X151125571Y-109519815D01*
X151104929Y-109503181D01*
X151044635Y-109442887D01*
X151044631Y-109442881D01*
X151003221Y-109401473D01*
X151003220Y-109401472D01*
X150981696Y-109390505D01*
X150965112Y-109380341D01*
X150945581Y-109366151D01*
X150945580Y-109366150D01*
X150922615Y-109358688D01*
X150904641Y-109351243D01*
X150883127Y-109340281D01*
X150878010Y-109339470D01*
X150859273Y-109336503D01*
X150840355Y-109331961D01*
X150815678Y-109323942D01*
X150758004Y-109284502D01*
X150730808Y-109220143D01*
X150730000Y-109206012D01*
X150730000Y-108250000D01*
X149780000Y-107300000D01*
X149758120Y-107300000D01*
X149744996Y-107307166D01*
X149718638Y-107310000D01*
X148374000Y-107310000D01*
X148306961Y-107290315D01*
X148261206Y-107237511D01*
X148250000Y-107186000D01*
X148250000Y-104824000D01*
X148269685Y-104756961D01*
X148322489Y-104711206D01*
X148374000Y-104700000D01*
X151050500Y-104700000D01*
X151117539Y-104719685D01*
G37*
%TD.AperFunction*%
%TD*%
%TA.AperFunction,Conductor*%
%TO.N,+BATT*%
G36*
X159842539Y-91614685D02*
G01*
X159888294Y-91667489D01*
X159899500Y-91719000D01*
X159899500Y-91809752D01*
X159911131Y-91868229D01*
X159911132Y-91868231D01*
X159913055Y-91871108D01*
X159915318Y-91878335D01*
X159915806Y-91879513D01*
X159915700Y-91879556D01*
X159933934Y-91937785D01*
X159915450Y-92005165D01*
X159913058Y-92008889D01*
X159911131Y-92011771D01*
X159899500Y-92070248D01*
X159899500Y-92309753D01*
X159911131Y-92368230D01*
X159911132Y-92368231D01*
X159955447Y-92434553D01*
X160021769Y-92478868D01*
X160021770Y-92478869D01*
X160080247Y-92490500D01*
X160080250Y-92490501D01*
X160080252Y-92490501D01*
X160188812Y-92490501D01*
X160255851Y-92510186D01*
X160276493Y-92526820D01*
X160707862Y-92958189D01*
X160711517Y-92962178D01*
X160737540Y-92993190D01*
X160737542Y-92993191D01*
X160737544Y-92993194D01*
X160737546Y-92993195D01*
X160737547Y-92993196D01*
X160772598Y-93013433D01*
X160777161Y-93016339D01*
X160810315Y-93039554D01*
X160810318Y-93039554D01*
X160815175Y-93041820D01*
X160831932Y-93048760D01*
X160836949Y-93050586D01*
X160836951Y-93050586D01*
X160836954Y-93050588D01*
X160876817Y-93057616D01*
X160882075Y-93058782D01*
X160921192Y-93069264D01*
X160961517Y-93065735D01*
X160966921Y-93065500D01*
X161475500Y-93065500D01*
X162470000Y-94060000D01*
X162470000Y-94240000D01*
X162120000Y-94590000D01*
X161110000Y-94590000D01*
X160639998Y-94119998D01*
X160637403Y-94113731D01*
X160608335Y-94060497D01*
X160605501Y-94034139D01*
X160605501Y-93651505D01*
X160589721Y-93551877D01*
X160589720Y-93551875D01*
X160589720Y-93551873D01*
X160528529Y-93431779D01*
X160528527Y-93431777D01*
X160528524Y-93431773D01*
X160433226Y-93336475D01*
X160433222Y-93336472D01*
X160433221Y-93336471D01*
X160313127Y-93275280D01*
X160313125Y-93275279D01*
X160313122Y-93275278D01*
X160213494Y-93259499D01*
X160213489Y-93259499D01*
X159830861Y-93259499D01*
X159763822Y-93239814D01*
X159743180Y-93223180D01*
X159356319Y-92836319D01*
X159322834Y-92774996D01*
X159320000Y-92748638D01*
X159320000Y-92699620D01*
X159322383Y-92675426D01*
X159325502Y-92659748D01*
X159325502Y-91718999D01*
X159345187Y-91651961D01*
X159397991Y-91606206D01*
X159449502Y-91595000D01*
X159775500Y-91595000D01*
X159842539Y-91614685D01*
G37*
%TD.AperFunction*%
%TD*%
%TA.AperFunction,Conductor*%
%TO.N,VCC*%
G36*
X152821051Y-91388907D02*
G01*
X152857015Y-91438407D01*
X152861013Y-91456080D01*
X152866726Y-91499486D01*
X152866726Y-91499488D01*
X152917473Y-91608313D01*
X152917474Y-91608314D01*
X152917475Y-91608316D01*
X153002383Y-91693224D01*
X153111212Y-91743972D01*
X153160798Y-91750500D01*
X153385219Y-91750499D01*
X153443409Y-91769406D01*
X153455223Y-91779495D01*
X154862135Y-93186407D01*
X154870236Y-93197647D01*
X154871215Y-93196909D01*
X154876740Y-93204227D01*
X154876741Y-93204228D01*
X154899975Y-93225409D01*
X154921486Y-93253622D01*
X154931472Y-93273220D01*
X155026780Y-93368528D01*
X155146874Y-93429719D01*
X155280000Y-93450804D01*
X155413126Y-93429719D01*
X155533220Y-93368528D01*
X155628528Y-93273220D01*
X155689719Y-93153126D01*
X155710804Y-93020000D01*
X155707690Y-93000342D01*
X155701256Y-92959716D01*
X155689719Y-92886874D01*
X155628528Y-92766780D01*
X155533220Y-92671472D01*
X155533217Y-92671470D01*
X155413129Y-92610282D01*
X155413128Y-92610281D01*
X155379010Y-92604877D01*
X155324495Y-92577098D01*
X155296718Y-92522580D01*
X155295500Y-92507096D01*
X155295500Y-92469747D01*
X155314407Y-92411556D01*
X155349555Y-92381537D01*
X155353121Y-92379719D01*
X155353126Y-92379719D01*
X155473220Y-92318528D01*
X155568528Y-92223220D01*
X155629719Y-92103126D01*
X155645500Y-92003488D01*
X155645500Y-91486512D01*
X155645500Y-91486510D01*
X155645179Y-91484483D01*
X155645287Y-91483800D01*
X155645195Y-91482630D01*
X155645476Y-91482607D01*
X155654753Y-91424051D01*
X155698019Y-91380789D01*
X155742961Y-91370000D01*
X156246156Y-91370000D01*
X156291100Y-91380789D01*
X156349696Y-91410646D01*
X156443481Y-91425500D01*
X156750168Y-91425499D01*
X156808357Y-91444406D01*
X156844321Y-91493906D01*
X156844322Y-91555091D01*
X156820171Y-91594502D01*
X156769171Y-91645503D01*
X156714655Y-91673281D01*
X156699167Y-91674500D01*
X156266510Y-91674500D01*
X156166874Y-91690281D01*
X156166867Y-91690283D01*
X156046782Y-91751470D01*
X155951470Y-91846782D01*
X155890283Y-91966867D01*
X155890281Y-91966874D01*
X155874500Y-92066510D01*
X155874500Y-92583489D01*
X155890281Y-92683125D01*
X155890283Y-92683132D01*
X155951470Y-92803217D01*
X155951472Y-92803220D01*
X156046780Y-92898528D01*
X156046782Y-92898529D01*
X156166867Y-92959716D01*
X156166869Y-92959716D01*
X156166874Y-92959719D01*
X156242541Y-92971703D01*
X156266510Y-92975500D01*
X156750166Y-92975500D01*
X156808357Y-92994407D01*
X156844321Y-93043907D01*
X156844321Y-93105093D01*
X156820170Y-93144504D01*
X156769170Y-93195504D01*
X156714653Y-93223281D01*
X156699166Y-93224500D01*
X156266510Y-93224500D01*
X156166874Y-93240281D01*
X156166867Y-93240283D01*
X156046782Y-93301470D01*
X155951470Y-93396782D01*
X155890283Y-93516867D01*
X155890281Y-93516874D01*
X155874500Y-93616510D01*
X155874500Y-94133489D01*
X155890281Y-94233125D01*
X155890283Y-94233132D01*
X155939214Y-94329163D01*
X155951472Y-94353220D01*
X156046780Y-94448528D01*
X156046782Y-94448529D01*
X156166867Y-94509716D01*
X156166869Y-94509716D01*
X156166874Y-94509719D01*
X156242541Y-94521703D01*
X156266510Y-94525500D01*
X156266512Y-94525500D01*
X156833491Y-94525500D01*
X156893270Y-94516031D01*
X156933126Y-94509719D01*
X156936115Y-94508195D01*
X156939434Y-94507669D01*
X156940538Y-94507311D01*
X156940594Y-94507485D01*
X156996544Y-94498618D01*
X157051063Y-94526390D01*
X157051071Y-94526397D01*
X157131339Y-94606665D01*
X157159116Y-94661182D01*
X157149545Y-94721614D01*
X157106280Y-94764879D01*
X157076823Y-94774450D01*
X156976872Y-94790281D01*
X156976870Y-94790282D01*
X156856782Y-94851470D01*
X156761470Y-94946782D01*
X156700282Y-95066870D01*
X156700281Y-95066872D01*
X156679196Y-95199999D01*
X156679196Y-95200000D01*
X156700281Y-95333127D01*
X156700282Y-95333129D01*
X156749829Y-95430370D01*
X156761472Y-95453220D01*
X156856780Y-95548528D01*
X156856782Y-95548529D01*
X156976867Y-95609716D01*
X156976871Y-95609717D01*
X156976874Y-95609719D01*
X157043149Y-95620215D01*
X157097665Y-95647992D01*
X157097666Y-95647992D01*
X157128257Y-95678584D01*
X157131175Y-95681769D01*
X157145799Y-95699196D01*
X157157545Y-95713194D01*
X157193073Y-95733706D01*
X157196712Y-95736025D01*
X157230311Y-95759551D01*
X157230313Y-95759552D01*
X157230316Y-95759554D01*
X157230318Y-95759554D01*
X157230319Y-95759555D01*
X157231771Y-95759944D01*
X157255651Y-95769835D01*
X157256955Y-95770588D01*
X157297351Y-95777710D01*
X157301552Y-95778641D01*
X157341194Y-95789264D01*
X157382078Y-95785687D01*
X157386378Y-95785500D01*
X157656490Y-95785500D01*
X157714681Y-95804407D01*
X157735052Y-95828252D01*
X157736892Y-95826916D01*
X157741470Y-95833217D01*
X157741472Y-95833220D01*
X157836780Y-95928528D01*
X157836782Y-95928529D01*
X157956867Y-95989716D01*
X157956869Y-95989716D01*
X157956874Y-95989719D01*
X158032541Y-96001703D01*
X158056510Y-96005500D01*
X158081000Y-96005500D01*
X158139191Y-96024407D01*
X158175155Y-96073907D01*
X158180000Y-96104500D01*
X158180000Y-96993978D01*
X158161093Y-97052169D01*
X158111593Y-97088133D01*
X158050407Y-97088133D01*
X158020733Y-97072520D01*
X157947642Y-97016436D01*
X157947637Y-97016433D01*
X157818544Y-96962961D01*
X157818536Y-96962959D01*
X157680001Y-96944721D01*
X157679999Y-96944721D01*
X157541463Y-96962959D01*
X157541458Y-96962961D01*
X157412362Y-97016434D01*
X157301502Y-97101500D01*
X157301500Y-97101502D01*
X157216434Y-97212362D01*
X157162961Y-97341458D01*
X157162959Y-97341463D01*
X157144721Y-97479999D01*
X157144721Y-97480000D01*
X157162959Y-97618536D01*
X157162961Y-97618545D01*
X157188948Y-97681283D01*
X157193748Y-97742280D01*
X157161779Y-97794449D01*
X157105250Y-97817863D01*
X157083804Y-97817218D01*
X157082433Y-97817026D01*
X157042086Y-97818892D01*
X157034406Y-97819247D01*
X157032130Y-97819300D01*
X157012352Y-97819300D01*
X157008852Y-97819954D01*
X157002044Y-97820743D01*
X156999018Y-97820882D01*
X156995835Y-97821029D01*
X156936837Y-97804816D01*
X156898637Y-97757021D01*
X156895825Y-97695900D01*
X156899817Y-97684259D01*
X156927040Y-97618540D01*
X156945279Y-97480000D01*
X156927040Y-97341460D01*
X156873565Y-97212361D01*
X156788499Y-97101501D01*
X156749230Y-97071368D01*
X156714576Y-97020944D01*
X156710500Y-96992828D01*
X156710500Y-96472255D01*
X156729407Y-96414064D01*
X156739490Y-96402257D01*
X156758528Y-96383220D01*
X156819719Y-96263126D01*
X156840804Y-96130000D01*
X156819719Y-95996874D01*
X156758528Y-95876780D01*
X156663220Y-95781472D01*
X156663217Y-95781470D01*
X156543129Y-95720282D01*
X156543127Y-95720281D01*
X156410000Y-95699196D01*
X156276872Y-95720281D01*
X156276870Y-95720282D01*
X156156782Y-95781470D01*
X156061470Y-95876782D01*
X156000282Y-95996870D01*
X156000281Y-95996872D01*
X155979196Y-96129999D01*
X155979196Y-96130000D01*
X156000281Y-96263127D01*
X156000282Y-96263129D01*
X156059836Y-96380010D01*
X156061472Y-96383220D01*
X156080505Y-96402253D01*
X156108281Y-96456768D01*
X156109500Y-96472255D01*
X156109500Y-96992828D01*
X156090593Y-97051019D01*
X156070768Y-97071369D01*
X156031507Y-97101495D01*
X156031500Y-97101502D01*
X155946434Y-97212362D01*
X155892961Y-97341458D01*
X155892959Y-97341463D01*
X155874721Y-97479999D01*
X155874721Y-97480000D01*
X155892959Y-97618536D01*
X155892961Y-97618544D01*
X155946433Y-97747637D01*
X155946434Y-97747639D01*
X155946435Y-97747640D01*
X156031501Y-97858499D01*
X156142360Y-97943565D01*
X156142361Y-97943565D01*
X156142362Y-97943566D01*
X156226283Y-97978327D01*
X156271460Y-97997040D01*
X156410000Y-98015279D01*
X156477561Y-98006384D01*
X156537720Y-98017534D01*
X156579838Y-98061916D01*
X156587824Y-98122577D01*
X156560486Y-98174541D01*
X156541996Y-98193031D01*
X156487479Y-98220808D01*
X156459072Y-98221180D01*
X156410003Y-98214721D01*
X156409999Y-98214721D01*
X156271463Y-98232959D01*
X156271458Y-98232961D01*
X156142362Y-98286434D01*
X156031502Y-98371500D01*
X156031500Y-98371502D01*
X155946434Y-98482362D01*
X155892961Y-98611458D01*
X155892959Y-98611463D01*
X155874721Y-98749999D01*
X155874721Y-98750000D01*
X155892959Y-98888536D01*
X155892961Y-98888544D01*
X155946433Y-99017637D01*
X155946434Y-99017639D01*
X155946435Y-99017640D01*
X156031501Y-99128499D01*
X156142360Y-99213565D01*
X156142361Y-99213565D01*
X156142362Y-99213566D01*
X156198623Y-99236870D01*
X156271460Y-99267040D01*
X156375365Y-99280719D01*
X156409999Y-99285279D01*
X156410000Y-99285279D01*
X156410001Y-99285279D01*
X156437707Y-99281631D01*
X156548540Y-99267040D01*
X156677640Y-99213565D01*
X156788499Y-99128499D01*
X156873565Y-99017640D01*
X156927040Y-98888540D01*
X156945279Y-98750000D01*
X156938818Y-98700926D01*
X156949968Y-98640767D01*
X156966960Y-98618009D01*
X156985462Y-98599507D01*
X157039975Y-98571733D01*
X157100407Y-98581304D01*
X157143672Y-98624569D01*
X157153615Y-98682435D01*
X157144720Y-98749997D01*
X157144721Y-98750000D01*
X157162959Y-98888536D01*
X157162961Y-98888544D01*
X157216433Y-99017637D01*
X157216434Y-99017639D01*
X157216435Y-99017640D01*
X157301501Y-99128499D01*
X157412360Y-99213565D01*
X157412361Y-99213565D01*
X157412362Y-99213566D01*
X157468623Y-99236870D01*
X157541460Y-99267040D01*
X157680000Y-99285279D01*
X157729071Y-99278818D01*
X157789229Y-99289967D01*
X157811996Y-99306967D01*
X157830487Y-99325458D01*
X157858264Y-99379975D01*
X157848693Y-99440407D01*
X157805428Y-99483672D01*
X157747562Y-99493615D01*
X157680002Y-99484721D01*
X157679999Y-99484721D01*
X157541463Y-99502959D01*
X157541460Y-99502959D01*
X157541460Y-99502960D01*
X157514469Y-99514140D01*
X157412362Y-99556434D01*
X157301502Y-99641500D01*
X157301500Y-99641502D01*
X157216434Y-99752362D01*
X157189027Y-99818529D01*
X157163683Y-99879716D01*
X157162961Y-99881458D01*
X157162959Y-99881463D01*
X157144721Y-100019999D01*
X157144721Y-100020000D01*
X157162959Y-100158536D01*
X157162961Y-100158544D01*
X157216433Y-100287637D01*
X157216434Y-100287639D01*
X157216435Y-100287640D01*
X157301501Y-100398499D01*
X157412360Y-100483565D01*
X157541460Y-100537040D01*
X157680000Y-100555279D01*
X157729071Y-100548818D01*
X157789229Y-100559967D01*
X157811996Y-100576967D01*
X158151004Y-100915975D01*
X158178781Y-100970492D01*
X158180000Y-100985979D01*
X158180000Y-101897477D01*
X158161093Y-101955668D01*
X158111593Y-101991632D01*
X158050407Y-101991632D01*
X158010998Y-101967482D01*
X157920633Y-101877117D01*
X157912444Y-101869760D01*
X157910819Y-101868451D01*
X157887519Y-101849675D01*
X157887515Y-101849672D01*
X157816472Y-101812510D01*
X157816467Y-101812508D01*
X157749438Y-101792826D01*
X157749429Y-101792824D01*
X157703218Y-101786180D01*
X157691534Y-101784500D01*
X157691533Y-101784500D01*
X156900241Y-101784500D01*
X156842050Y-101765593D01*
X156806086Y-101716093D01*
X156806086Y-101654907D01*
X156821699Y-101625232D01*
X156873565Y-101557640D01*
X156927040Y-101428540D01*
X156945279Y-101290000D01*
X156927040Y-101151460D01*
X156873565Y-101022361D01*
X156788499Y-100911501D01*
X156788497Y-100911500D01*
X156788497Y-100911499D01*
X156677637Y-100826433D01*
X156548544Y-100772961D01*
X156548536Y-100772959D01*
X156410001Y-100754721D01*
X156409999Y-100754721D01*
X156343254Y-100763507D01*
X156283093Y-100752356D01*
X156260329Y-100735358D01*
X156018365Y-100493394D01*
X156010279Y-100482144D01*
X156009287Y-100482894D01*
X156003758Y-100475572D01*
X155968228Y-100443182D01*
X155966575Y-100441604D01*
X155952597Y-100427626D01*
X155949659Y-100425613D01*
X155944296Y-100421364D01*
X155920733Y-100399884D01*
X155911562Y-100396331D01*
X155891386Y-100385695D01*
X155883284Y-100380145D01*
X155883279Y-100380143D01*
X155852257Y-100372846D01*
X155845702Y-100370816D01*
X155815977Y-100359301D01*
X155815974Y-100359300D01*
X155815973Y-100359300D01*
X155815972Y-100359300D01*
X155806148Y-100359300D01*
X155783483Y-100356670D01*
X155773919Y-100354421D01*
X155773918Y-100354421D01*
X155742347Y-100358825D01*
X155735501Y-100359300D01*
X155722047Y-100359300D01*
X155663856Y-100340393D01*
X155627892Y-100290893D01*
X155627892Y-100229707D01*
X155630583Y-100222415D01*
X155657038Y-100158545D01*
X155657038Y-100158544D01*
X155657040Y-100158540D01*
X155675279Y-100020000D01*
X155657040Y-99881460D01*
X155603565Y-99752361D01*
X155518499Y-99641501D01*
X155518497Y-99641500D01*
X155518497Y-99641499D01*
X155407637Y-99556433D01*
X155278544Y-99502961D01*
X155278536Y-99502959D01*
X155140001Y-99484721D01*
X155139999Y-99484721D01*
X155001463Y-99502959D01*
X155001460Y-99502959D01*
X155001460Y-99502960D01*
X154974469Y-99514140D01*
X154872362Y-99556434D01*
X154761502Y-99641500D01*
X154761500Y-99641502D01*
X154676434Y-99752362D01*
X154649027Y-99818529D01*
X154623683Y-99879716D01*
X154622961Y-99881458D01*
X154622959Y-99881463D01*
X154604721Y-100019999D01*
X154604721Y-100020000D01*
X154622959Y-100158536D01*
X154622961Y-100158545D01*
X154648948Y-100221283D01*
X154653748Y-100282280D01*
X154621779Y-100334449D01*
X154565250Y-100357863D01*
X154543804Y-100357218D01*
X154542433Y-100357026D01*
X154502086Y-100358892D01*
X154494406Y-100359247D01*
X154492130Y-100359300D01*
X154472353Y-100359300D01*
X154468858Y-100359953D01*
X154462045Y-100360743D01*
X154430209Y-100362214D01*
X154421205Y-100366189D01*
X154399426Y-100372932D01*
X154389768Y-100374737D01*
X154389766Y-100374738D01*
X154362671Y-100391514D01*
X154356603Y-100394713D01*
X154327434Y-100407593D01*
X154320480Y-100414547D01*
X154302603Y-100428707D01*
X154294248Y-100433880D01*
X154294244Y-100433883D01*
X154275039Y-100459317D01*
X154270534Y-100464493D01*
X154001995Y-100733031D01*
X153947479Y-100760808D01*
X153919072Y-100761180D01*
X153870003Y-100754721D01*
X153869999Y-100754721D01*
X153731463Y-100772959D01*
X153731458Y-100772961D01*
X153602362Y-100826434D01*
X153491502Y-100911500D01*
X153491500Y-100911502D01*
X153406434Y-101022362D01*
X153352961Y-101151458D01*
X153352959Y-101151463D01*
X153334721Y-101289999D01*
X153334721Y-101290002D01*
X153341180Y-101339073D01*
X153330029Y-101399234D01*
X153313031Y-101421996D01*
X153134726Y-101600303D01*
X153080210Y-101628081D01*
X153064722Y-101629300D01*
X151975365Y-101629300D01*
X151961689Y-101627067D01*
X151961518Y-101628294D01*
X151952434Y-101627026D01*
X151912087Y-101628892D01*
X151904407Y-101629247D01*
X151902131Y-101629300D01*
X151882353Y-101629300D01*
X151878858Y-101629953D01*
X151872045Y-101630743D01*
X151840211Y-101632214D01*
X151840207Y-101632215D01*
X151831213Y-101636186D01*
X151809428Y-101642932D01*
X151799771Y-101644737D01*
X151799765Y-101644740D01*
X151772665Y-101661518D01*
X151766596Y-101664717D01*
X151737438Y-101677592D01*
X151737431Y-101677596D01*
X151730486Y-101684542D01*
X151712606Y-101698705D01*
X151704248Y-101703880D01*
X151685039Y-101729315D01*
X151680535Y-101734492D01*
X151419674Y-101995353D01*
X151365158Y-102023130D01*
X151256871Y-102040281D01*
X151256870Y-102040282D01*
X151136782Y-102101470D01*
X151136778Y-102101473D01*
X151097247Y-102141004D01*
X151042730Y-102168781D01*
X151027244Y-102170000D01*
X150329000Y-102170000D01*
X150270809Y-102151093D01*
X150234845Y-102101593D01*
X150230000Y-102071000D01*
X150230000Y-101144500D01*
X150248907Y-101086309D01*
X150298407Y-101050345D01*
X150329000Y-101045500D01*
X150563490Y-101045500D01*
X150584885Y-101042111D01*
X150663126Y-101029719D01*
X150783220Y-100968528D01*
X150878528Y-100873220D01*
X150939719Y-100753126D01*
X150955500Y-100653488D01*
X150955500Y-100086512D01*
X150939719Y-99986874D01*
X150939716Y-99986869D01*
X150939716Y-99986867D01*
X150878529Y-99866782D01*
X150878528Y-99866780D01*
X150783220Y-99771472D01*
X150745713Y-99752361D01*
X150728344Y-99743511D01*
X150685080Y-99700246D01*
X150675509Y-99639814D01*
X150685078Y-99610364D01*
X150739719Y-99503126D01*
X150760804Y-99370000D01*
X150739719Y-99236874D01*
X150678528Y-99116780D01*
X150583220Y-99021472D01*
X150583217Y-99021470D01*
X150463129Y-98960282D01*
X150463127Y-98960281D01*
X150330001Y-98939196D01*
X150329000Y-98939196D01*
X150328047Y-98938886D01*
X150322305Y-98937977D01*
X150322449Y-98937067D01*
X150270809Y-98920289D01*
X150234845Y-98870789D01*
X150230000Y-98840196D01*
X150230000Y-95586520D01*
X151304500Y-95586520D01*
X151304501Y-95586523D01*
X151319352Y-95680299D01*
X151319354Y-95680304D01*
X151376950Y-95793342D01*
X151466658Y-95883050D01*
X151579696Y-95940646D01*
X151673481Y-95955500D01*
X152087255Y-95955499D01*
X152145446Y-95974406D01*
X152181410Y-96023906D01*
X152185036Y-96069985D01*
X152169196Y-96169998D01*
X152169196Y-96170000D01*
X152190281Y-96303127D01*
X152190282Y-96303129D01*
X152251470Y-96423217D01*
X152251472Y-96423220D01*
X152346780Y-96518528D01*
X152466874Y-96579719D01*
X152575159Y-96596869D01*
X152629674Y-96624646D01*
X152629675Y-96624646D01*
X152796552Y-96791523D01*
X152824329Y-96846040D01*
X152814758Y-96906472D01*
X152771493Y-96949737D01*
X152713626Y-96959680D01*
X152600001Y-96944721D01*
X152599999Y-96944721D01*
X152461463Y-96962959D01*
X152461458Y-96962961D01*
X152332362Y-97016434D01*
X152221502Y-97101500D01*
X152221500Y-97101502D01*
X152136434Y-97212362D01*
X152082961Y-97341458D01*
X152082959Y-97341463D01*
X152064721Y-97479999D01*
X152064721Y-97480000D01*
X152082959Y-97618536D01*
X152082961Y-97618544D01*
X152136433Y-97747637D01*
X152136434Y-97747639D01*
X152136435Y-97747640D01*
X152221501Y-97858499D01*
X152332360Y-97943565D01*
X152332361Y-97943565D01*
X152332362Y-97943566D01*
X152416283Y-97978327D01*
X152461460Y-97997040D01*
X152565364Y-98010719D01*
X152599999Y-98015279D01*
X152600000Y-98015279D01*
X152600001Y-98015279D01*
X152627707Y-98011631D01*
X152738540Y-97997040D01*
X152867640Y-97943565D01*
X152978499Y-97858499D01*
X153063565Y-97747640D01*
X153117040Y-97618540D01*
X153135279Y-97480000D01*
X153120319Y-97366370D01*
X153131469Y-97306213D01*
X153175851Y-97264095D01*
X153236513Y-97256109D01*
X153288476Y-97283447D01*
X153317685Y-97312656D01*
X153345462Y-97367173D01*
X153345834Y-97395581D01*
X153334721Y-97479997D01*
X153334721Y-97480000D01*
X153352959Y-97618536D01*
X153352961Y-97618544D01*
X153406433Y-97747637D01*
X153406436Y-97747642D01*
X153449853Y-97804223D01*
X153470278Y-97861898D01*
X153452901Y-97920564D01*
X153404360Y-97957812D01*
X153401909Y-97958644D01*
X153396873Y-97960280D01*
X153276782Y-98021470D01*
X153181470Y-98116782D01*
X153120282Y-98236870D01*
X153120281Y-98236872D01*
X153111936Y-98289561D01*
X153084158Y-98344077D01*
X153029641Y-98371854D01*
X152969209Y-98362282D01*
X152953888Y-98352615D01*
X152867641Y-98286435D01*
X152867637Y-98286433D01*
X152738544Y-98232961D01*
X152738536Y-98232959D01*
X152600001Y-98214721D01*
X152599999Y-98214721D01*
X152461463Y-98232959D01*
X152461458Y-98232961D01*
X152332360Y-98286434D01*
X152332358Y-98286436D01*
X152240444Y-98356964D01*
X152182768Y-98377388D01*
X152124102Y-98360010D01*
X152110178Y-98348430D01*
X152083220Y-98321472D01*
X152083217Y-98321470D01*
X151963129Y-98260282D01*
X151963127Y-98260281D01*
X151830000Y-98239196D01*
X151696872Y-98260281D01*
X151696870Y-98260282D01*
X151576782Y-98321470D01*
X151481470Y-98416782D01*
X151420282Y-98536870D01*
X151420281Y-98536872D01*
X151399196Y-98669999D01*
X151399196Y-98670000D01*
X151420281Y-98803127D01*
X151420282Y-98803129D01*
X151481470Y-98923217D01*
X151481472Y-98923220D01*
X151576780Y-99018528D01*
X151589812Y-99025168D01*
X151633076Y-99068431D01*
X151642648Y-99128863D01*
X151614871Y-99183380D01*
X151581473Y-99216777D01*
X151581470Y-99216782D01*
X151520282Y-99336870D01*
X151520281Y-99336872D01*
X151499196Y-99469999D01*
X151499196Y-99470000D01*
X151520281Y-99603127D01*
X151520282Y-99603129D01*
X151574879Y-99710281D01*
X151581472Y-99723220D01*
X151676780Y-99818528D01*
X151676782Y-99818529D01*
X151796867Y-99879716D01*
X151796871Y-99879717D01*
X151796874Y-99879719D01*
X151863148Y-99890215D01*
X151917664Y-99917992D01*
X151917665Y-99917992D01*
X152047787Y-100048114D01*
X152075564Y-100102631D01*
X152075936Y-100105194D01*
X152082960Y-100158541D01*
X152136433Y-100287637D01*
X152136434Y-100287639D01*
X152136435Y-100287640D01*
X152221501Y-100398499D01*
X152332360Y-100483565D01*
X152461460Y-100537040D01*
X152565364Y-100550719D01*
X152599999Y-100555279D01*
X152600000Y-100555279D01*
X152600001Y-100555279D01*
X152627707Y-100551631D01*
X152738540Y-100537040D01*
X152867640Y-100483565D01*
X152978499Y-100398499D01*
X153063565Y-100287640D01*
X153117040Y-100158540D01*
X153135279Y-100020000D01*
X153117040Y-99881460D01*
X153063565Y-99752361D01*
X152978499Y-99641501D01*
X152978497Y-99641500D01*
X152978497Y-99641499D01*
X152867637Y-99556433D01*
X152738544Y-99502961D01*
X152738536Y-99502959D01*
X152600001Y-99484721D01*
X152599999Y-99484721D01*
X152476132Y-99501028D01*
X152415971Y-99489878D01*
X152393206Y-99472879D01*
X152377992Y-99457665D01*
X152350216Y-99403149D01*
X152346569Y-99380125D01*
X152356140Y-99319696D01*
X152399405Y-99276431D01*
X152457272Y-99266488D01*
X152461457Y-99267039D01*
X152461460Y-99267040D01*
X152600000Y-99285279D01*
X152600001Y-99285279D01*
X152627707Y-99281631D01*
X152738540Y-99267040D01*
X152867640Y-99213565D01*
X152978499Y-99128499D01*
X153063565Y-99017640D01*
X153117040Y-98888540D01*
X153129772Y-98791823D01*
X153156112Y-98736599D01*
X153209883Y-98707404D01*
X153270545Y-98715390D01*
X153272868Y-98716535D01*
X153288034Y-98724262D01*
X153331300Y-98767526D01*
X153341244Y-98799550D01*
X153352959Y-98888537D01*
X153352961Y-98888544D01*
X153406433Y-99017637D01*
X153406434Y-99017639D01*
X153406435Y-99017640D01*
X153491501Y-99128499D01*
X153602360Y-99213565D01*
X153602361Y-99213565D01*
X153602362Y-99213566D01*
X153658623Y-99236870D01*
X153731460Y-99267040D01*
X153835365Y-99280719D01*
X153869999Y-99285279D01*
X153870000Y-99285279D01*
X153870001Y-99285279D01*
X153897707Y-99281631D01*
X154008540Y-99267040D01*
X154137640Y-99213565D01*
X154248499Y-99128499D01*
X154333565Y-99017640D01*
X154387040Y-98888540D01*
X154402948Y-98767699D01*
X154429289Y-98712475D01*
X154483059Y-98683280D01*
X154516579Y-98682840D01*
X154524550Y-98684102D01*
X154579066Y-98711878D01*
X154606845Y-98766393D01*
X154607217Y-98768961D01*
X154622959Y-98888536D01*
X154622961Y-98888544D01*
X154676433Y-99017637D01*
X154676434Y-99017639D01*
X154676435Y-99017640D01*
X154761501Y-99128499D01*
X154872360Y-99213565D01*
X154872361Y-99213565D01*
X154872362Y-99213566D01*
X154928623Y-99236870D01*
X155001460Y-99267040D01*
X155105365Y-99280719D01*
X155139999Y-99285279D01*
X155140000Y-99285279D01*
X155140001Y-99285279D01*
X155167708Y-99281631D01*
X155278540Y-99267040D01*
X155407640Y-99213565D01*
X155518499Y-99128499D01*
X155603565Y-99017640D01*
X155657040Y-98888540D01*
X155675279Y-98750000D01*
X155657040Y-98611460D01*
X155603565Y-98482361D01*
X155518499Y-98371501D01*
X155518497Y-98371500D01*
X155518497Y-98371499D01*
X155451268Y-98319913D01*
X155407640Y-98286435D01*
X155407639Y-98286434D01*
X155407637Y-98286433D01*
X155278544Y-98232961D01*
X155278536Y-98232959D01*
X155140001Y-98214721D01*
X155136602Y-98214721D01*
X155134286Y-98213968D01*
X155133567Y-98213874D01*
X155133584Y-98213740D01*
X155078411Y-98195814D01*
X155042447Y-98146314D01*
X155038817Y-98131182D01*
X155038589Y-98129740D01*
X155048176Y-98069311D01*
X155091452Y-98026057D01*
X155136374Y-98015279D01*
X155140001Y-98015279D01*
X155167707Y-98011631D01*
X155278540Y-97997040D01*
X155407640Y-97943565D01*
X155518499Y-97858499D01*
X155603565Y-97747640D01*
X155657040Y-97618540D01*
X155675279Y-97480000D01*
X155657040Y-97341460D01*
X155603565Y-97212361D01*
X155518499Y-97101501D01*
X155479230Y-97071368D01*
X155444576Y-97020944D01*
X155440500Y-96992828D01*
X155440500Y-96515169D01*
X155442731Y-96501496D01*
X155441505Y-96501325D01*
X155442773Y-96492233D01*
X155440553Y-96444216D01*
X155440500Y-96441929D01*
X155440500Y-96422160D01*
X155440500Y-96422156D01*
X155439846Y-96418664D01*
X155439056Y-96411859D01*
X155437585Y-96380009D01*
X155433613Y-96371014D01*
X155426865Y-96349220D01*
X155425061Y-96339567D01*
X155408278Y-96312462D01*
X155405085Y-96306406D01*
X155396090Y-96286031D01*
X155392207Y-96277236D01*
X155385257Y-96270286D01*
X155371088Y-96252396D01*
X155365920Y-96244049D01*
X155365919Y-96244048D01*
X155340483Y-96224839D01*
X155335306Y-96220334D01*
X155234646Y-96119675D01*
X155206869Y-96065158D01*
X155189719Y-95956874D01*
X155175276Y-95928529D01*
X155128529Y-95836782D01*
X155128528Y-95836780D01*
X155033220Y-95741472D01*
X155033217Y-95741470D01*
X154913129Y-95680282D01*
X154913127Y-95680281D01*
X154780000Y-95659196D01*
X154646872Y-95680281D01*
X154646870Y-95680282D01*
X154526782Y-95741470D01*
X154431470Y-95836782D01*
X154370282Y-95956870D01*
X154370281Y-95956872D01*
X154349196Y-96089999D01*
X154349196Y-96090000D01*
X154370281Y-96223127D01*
X154370282Y-96223129D01*
X154431470Y-96343217D01*
X154431472Y-96343220D01*
X154526780Y-96438528D01*
X154646874Y-96499719D01*
X154755160Y-96516869D01*
X154809633Y-96544604D01*
X154810461Y-96545432D01*
X154838272Y-96599931D01*
X154839500Y-96615477D01*
X154839500Y-96992828D01*
X154820593Y-97051019D01*
X154800768Y-97071369D01*
X154761507Y-97101495D01*
X154761500Y-97101502D01*
X154676434Y-97212362D01*
X154622961Y-97341458D01*
X154622959Y-97341463D01*
X154604721Y-97479999D01*
X154604721Y-97480000D01*
X154622959Y-97618536D01*
X154622961Y-97618544D01*
X154661107Y-97710636D01*
X154665908Y-97771632D01*
X154633938Y-97823801D01*
X154585131Y-97846302D01*
X154496872Y-97860281D01*
X154469841Y-97874054D01*
X154409409Y-97883625D01*
X154354892Y-97855847D01*
X154327116Y-97801330D01*
X154333433Y-97747958D01*
X154335785Y-97742280D01*
X154387040Y-97618540D01*
X154405279Y-97480000D01*
X154387040Y-97341460D01*
X154333565Y-97212361D01*
X154248499Y-97101501D01*
X154248497Y-97101500D01*
X154248497Y-97101499D01*
X154137637Y-97016433D01*
X154008544Y-96962961D01*
X154008536Y-96962959D01*
X153870001Y-96944721D01*
X153870000Y-96944721D01*
X153867102Y-96945102D01*
X153856270Y-96946528D01*
X153796110Y-96935375D01*
X153773349Y-96918378D01*
X153054646Y-96199675D01*
X153026869Y-96145158D01*
X153024468Y-96130000D01*
X153009719Y-96036874D01*
X153008943Y-96035352D01*
X153008676Y-96033663D01*
X153007311Y-96029462D01*
X153007976Y-96029245D01*
X152999368Y-95974923D01*
X153027141Y-95920404D01*
X153081653Y-95892622D01*
X153163126Y-95879719D01*
X153283220Y-95818528D01*
X153378528Y-95723220D01*
X153439719Y-95603126D01*
X153460804Y-95470000D01*
X153439719Y-95336874D01*
X153378528Y-95216780D01*
X153283220Y-95121472D01*
X153283217Y-95121470D01*
X153163129Y-95060282D01*
X153163127Y-95060281D01*
X153030000Y-95039196D01*
X152896874Y-95060281D01*
X152785672Y-95116941D01*
X152725240Y-95126512D01*
X152670723Y-95098734D01*
X152642946Y-95044218D01*
X152642945Y-95044214D01*
X152642150Y-95039196D01*
X152640646Y-95029696D01*
X152640646Y-95029695D01*
X152584523Y-94919549D01*
X152583050Y-94916658D01*
X152493342Y-94826950D01*
X152380304Y-94769354D01*
X152380305Y-94769354D01*
X152286522Y-94754500D01*
X151673479Y-94754500D01*
X151673476Y-94754501D01*
X151579700Y-94769352D01*
X151579695Y-94769354D01*
X151466659Y-94826949D01*
X151376949Y-94916659D01*
X151319354Y-95029695D01*
X151304500Y-95123477D01*
X151304500Y-95586520D01*
X150230000Y-95586520D01*
X150230000Y-95488004D01*
X150248907Y-95429813D01*
X150262296Y-95414849D01*
X150330981Y-95352236D01*
X150465058Y-95174689D01*
X150564229Y-94975528D01*
X150625115Y-94761536D01*
X150645643Y-94540000D01*
X150625115Y-94318464D01*
X150564229Y-94104472D01*
X150480598Y-93936520D01*
X151304500Y-93936520D01*
X151304501Y-93936523D01*
X151319352Y-94030299D01*
X151319354Y-94030304D01*
X151376950Y-94143342D01*
X151466658Y-94233050D01*
X151579696Y-94290646D01*
X151673481Y-94305500D01*
X152286518Y-94305499D01*
X152286520Y-94305499D01*
X152286521Y-94305498D01*
X152333411Y-94298072D01*
X152380299Y-94290647D01*
X152380299Y-94290646D01*
X152380304Y-94290646D01*
X152493342Y-94233050D01*
X152566897Y-94159494D01*
X152621412Y-94131719D01*
X152636899Y-94130500D01*
X153344013Y-94130500D01*
X153359497Y-94131718D01*
X153372664Y-94133803D01*
X153387775Y-94137431D01*
X153405960Y-94143340D01*
X153412607Y-94145500D01*
X153438721Y-94145500D01*
X153454207Y-94146718D01*
X153480000Y-94150804D01*
X153505792Y-94146718D01*
X153521279Y-94145500D01*
X153547394Y-94145500D01*
X153556875Y-94142418D01*
X153572222Y-94137431D01*
X153587328Y-94133803D01*
X153613126Y-94129719D01*
X153636405Y-94117856D01*
X153650738Y-94111920D01*
X153675581Y-94103849D01*
X153696711Y-94088496D01*
X153709945Y-94080386D01*
X153733220Y-94068528D01*
X153751689Y-94050057D01*
X153763494Y-94039975D01*
X153784624Y-94024624D01*
X153799975Y-94003494D01*
X153810057Y-93991689D01*
X153828528Y-93973220D01*
X153840386Y-93949945D01*
X153848496Y-93936711D01*
X153863849Y-93915581D01*
X153871920Y-93890738D01*
X153877856Y-93876405D01*
X153889719Y-93853126D01*
X153893803Y-93827328D01*
X153897431Y-93812222D01*
X153905500Y-93787393D01*
X153905500Y-93761278D01*
X153906719Y-93745790D01*
X153910804Y-93719999D01*
X153906719Y-93694207D01*
X153905500Y-93678720D01*
X153905500Y-93652606D01*
X153897431Y-93627775D01*
X153893803Y-93612665D01*
X153893695Y-93611980D01*
X153889719Y-93586874D01*
X153877858Y-93563597D01*
X153871919Y-93549259D01*
X153863849Y-93524419D01*
X153848498Y-93503291D01*
X153840383Y-93490048D01*
X153828527Y-93466779D01*
X153733222Y-93371473D01*
X153718220Y-93356472D01*
X153718218Y-93356470D01*
X153694950Y-93344615D01*
X153681705Y-93336499D01*
X153660581Y-93321151D01*
X153660579Y-93321150D01*
X153635741Y-93313079D01*
X153621391Y-93307135D01*
X153598126Y-93295281D01*
X153572329Y-93291195D01*
X153557229Y-93287570D01*
X153532393Y-93279500D01*
X153532391Y-93279500D01*
X152636899Y-93279500D01*
X152578708Y-93260593D01*
X152566901Y-93250509D01*
X152493342Y-93176950D01*
X152380304Y-93119354D01*
X152380305Y-93119354D01*
X152286522Y-93104500D01*
X151673479Y-93104500D01*
X151673476Y-93104501D01*
X151579700Y-93119352D01*
X151579695Y-93119354D01*
X151466659Y-93176949D01*
X151376949Y-93266659D01*
X151319354Y-93379695D01*
X151304500Y-93473477D01*
X151304500Y-93936520D01*
X150480598Y-93936520D01*
X150465058Y-93905311D01*
X150330981Y-93727764D01*
X150285729Y-93686511D01*
X150262304Y-93665156D01*
X150232038Y-93611980D01*
X150230000Y-93591994D01*
X150230000Y-92673333D01*
X150248907Y-92615142D01*
X150298407Y-92579178D01*
X150310808Y-92576018D01*
X150315933Y-92575061D01*
X150343043Y-92558274D01*
X150349089Y-92555088D01*
X150378265Y-92542206D01*
X150385209Y-92535260D01*
X150403101Y-92521089D01*
X150411452Y-92515919D01*
X150430665Y-92490474D01*
X150435162Y-92485308D01*
X150450723Y-92469747D01*
X150521906Y-92398563D01*
X150533165Y-92390492D01*
X150532406Y-92389486D01*
X150539722Y-92383960D01*
X150539729Y-92383957D01*
X150572133Y-92348410D01*
X150573687Y-92346782D01*
X150587675Y-92332796D01*
X150589682Y-92329864D01*
X150593941Y-92324489D01*
X150615417Y-92300932D01*
X150618966Y-92291769D01*
X150629607Y-92271581D01*
X150635157Y-92263480D01*
X150642456Y-92232442D01*
X150644480Y-92225908D01*
X150653072Y-92203730D01*
X150691727Y-92156301D01*
X150745385Y-92140499D01*
X150777648Y-92140499D01*
X150777649Y-92140499D01*
X150836132Y-92128866D01*
X150868580Y-92107184D01*
X150923583Y-92090499D01*
X151206199Y-92090499D01*
X151264390Y-92109406D01*
X151300354Y-92158906D01*
X151305199Y-92189499D01*
X151305199Y-92426520D01*
X151305200Y-92426523D01*
X151320051Y-92520299D01*
X151320053Y-92520304D01*
X151377649Y-92633342D01*
X151467357Y-92723050D01*
X151580395Y-92780646D01*
X151674180Y-92795500D01*
X152287217Y-92795499D01*
X152287219Y-92795499D01*
X152287220Y-92795498D01*
X152334110Y-92788072D01*
X152380998Y-92780647D01*
X152380998Y-92780646D01*
X152381003Y-92780646D01*
X152494041Y-92723050D01*
X152583749Y-92633342D01*
X152641345Y-92520304D01*
X152656199Y-92426519D01*
X152656198Y-91963482D01*
X152641345Y-91869696D01*
X152583749Y-91756658D01*
X152494041Y-91666950D01*
X152381003Y-91609354D01*
X152381004Y-91609354D01*
X152287221Y-91594500D01*
X152287218Y-91594500D01*
X151846178Y-91594500D01*
X151787987Y-91575593D01*
X151776178Y-91565507D01*
X151768498Y-91557828D01*
X151768495Y-91557825D01*
X151765557Y-91555812D01*
X151760194Y-91551563D01*
X151736631Y-91530083D01*
X151736417Y-91530000D01*
X152540000Y-91530000D01*
X152700000Y-91370000D01*
X152762860Y-91370000D01*
X152821051Y-91388907D01*
G37*
%TD.AperFunction*%
%TD*%
%TA.AperFunction,Conductor*%
%TO.N,Net-(C25-Pad1)*%
G36*
X157758573Y-102009685D02*
G01*
X157779215Y-102026319D01*
X158033157Y-102280261D01*
X158066642Y-102341584D01*
X158068697Y-102381824D01*
X158064729Y-102417037D01*
X158075571Y-102474335D01*
X158075959Y-102476619D01*
X158084652Y-102534291D01*
X158087162Y-102542427D01*
X158089976Y-102550470D01*
X158117229Y-102602036D01*
X158118274Y-102604105D01*
X158143574Y-102656642D01*
X158148362Y-102663665D01*
X158153431Y-102670532D01*
X158153434Y-102670538D01*
X158153438Y-102670542D01*
X158194666Y-102711770D01*
X158196275Y-102713440D01*
X158235947Y-102756196D01*
X158243210Y-102761988D01*
X158242689Y-102762641D01*
X158254930Y-102772034D01*
X158691534Y-103208638D01*
X159108181Y-103625284D01*
X159141666Y-103686607D01*
X159144500Y-103712965D01*
X159144500Y-104113493D01*
X159160279Y-104213121D01*
X159160280Y-104213124D01*
X159160281Y-104213126D01*
X159221472Y-104333220D01*
X159221473Y-104333221D01*
X159221476Y-104333225D01*
X159316774Y-104428523D01*
X159316778Y-104428526D01*
X159316780Y-104428528D01*
X159436874Y-104489719D01*
X159436876Y-104489719D01*
X159436878Y-104489720D01*
X159536507Y-104505500D01*
X159536512Y-104505500D01*
X160053493Y-104505500D01*
X160153121Y-104489720D01*
X160153121Y-104489719D01*
X160153126Y-104489719D01*
X160155932Y-104488289D01*
X160159713Y-104487578D01*
X160162402Y-104486705D01*
X160162514Y-104487052D01*
X160224596Y-104475387D01*
X160289339Y-104501657D01*
X160329601Y-104558760D01*
X160335522Y-104585510D01*
X160339197Y-104619684D01*
X160350403Y-104671197D01*
X160352890Y-104681372D01*
X160352891Y-104681375D01*
X160395899Y-104762083D01*
X160395901Y-104762086D01*
X160441660Y-104814895D01*
X160459242Y-104832839D01*
X160459246Y-104832843D01*
X160459247Y-104832844D01*
X160459249Y-104832845D01*
X160539059Y-104877488D01*
X160539063Y-104877490D01*
X160606102Y-104897175D01*
X160664000Y-104905500D01*
X160734138Y-104905500D01*
X160801177Y-104925185D01*
X160821819Y-104941819D01*
X160993681Y-105113681D01*
X161027166Y-105175004D01*
X161030000Y-105201362D01*
X161030000Y-105978534D01*
X161010315Y-106045573D01*
X160960641Y-106088615D01*
X160960975Y-106089241D01*
X160958233Y-106090701D01*
X160957511Y-106091328D01*
X160955398Y-106092212D01*
X160873416Y-106135899D01*
X160873413Y-106135901D01*
X160820604Y-106181660D01*
X160802660Y-106199242D01*
X160802654Y-106199249D01*
X160758011Y-106279059D01*
X160758009Y-106279064D01*
X160738326Y-106346096D01*
X160738325Y-106346101D01*
X160738325Y-106346102D01*
X160734318Y-106373974D01*
X160730000Y-106404003D01*
X160730000Y-107535559D01*
X160723041Y-107576514D01*
X160717951Y-107591059D01*
X160710228Y-107613131D01*
X160692958Y-107645807D01*
X160671296Y-107675159D01*
X160645156Y-107701299D01*
X160615810Y-107722956D01*
X160583138Y-107740224D01*
X160546516Y-107753040D01*
X160505557Y-107760000D01*
X159714441Y-107760000D01*
X159673486Y-107753041D01*
X159636861Y-107740225D01*
X159604188Y-107722956D01*
X159574840Y-107701297D01*
X159548704Y-107675162D01*
X159527036Y-107645802D01*
X159509770Y-107613131D01*
X159496958Y-107576515D01*
X159490000Y-107535563D01*
X159490000Y-107234508D01*
X159489999Y-107234492D01*
X159485303Y-107190817D01*
X159474096Y-107139302D01*
X159473413Y-107136506D01*
X159471610Y-107129127D01*
X159428600Y-107048415D01*
X159382845Y-106995611D01*
X159382839Y-106995604D01*
X159365257Y-106977660D01*
X159365256Y-106977659D01*
X159365254Y-106977657D01*
X159365252Y-106977656D01*
X159365250Y-106977654D01*
X159285440Y-106933011D01*
X159285435Y-106933009D01*
X159218403Y-106913326D01*
X159218399Y-106913325D01*
X159218398Y-106913325D01*
X159160500Y-106905000D01*
X158421751Y-106905000D01*
X158410756Y-106905589D01*
X158410740Y-106905590D01*
X158378931Y-106909011D01*
X158378922Y-106909013D01*
X158302414Y-106932970D01*
X158302411Y-106932971D01*
X158302409Y-106932971D01*
X158302404Y-106932974D01*
X158241093Y-106966452D01*
X158241087Y-106966456D01*
X158196196Y-107000061D01*
X158178182Y-107011278D01*
X158153506Y-107023851D01*
X158116614Y-107035838D01*
X158099984Y-107038472D01*
X158080591Y-107039999D01*
X157700336Y-107039999D01*
X157689341Y-107040589D01*
X157689340Y-107040589D01*
X157657533Y-107044010D01*
X157657530Y-107044010D01*
X157581021Y-107067968D01*
X157581016Y-107067970D01*
X157542630Y-107088930D01*
X157474357Y-107103781D01*
X157408893Y-107079363D01*
X157367022Y-107023428D01*
X157360064Y-106994663D01*
X157359822Y-106992619D01*
X157346305Y-106936319D01*
X157343050Y-106927498D01*
X157336908Y-106903964D01*
X157331526Y-106869977D01*
X157330000Y-106850583D01*
X157330000Y-106439403D01*
X157331526Y-106420011D01*
X157336905Y-106386039D01*
X157343042Y-106362518D01*
X157346310Y-106353661D01*
X157359822Y-106297373D01*
X157365499Y-106249405D01*
X157365500Y-103664000D01*
X157360803Y-103620316D01*
X157349597Y-103568805D01*
X157347110Y-103558627D01*
X157304100Y-103477915D01*
X157258345Y-103425111D01*
X157258339Y-103425104D01*
X157240757Y-103407160D01*
X157240756Y-103407159D01*
X157240754Y-103407157D01*
X157240752Y-103407156D01*
X157240750Y-103407154D01*
X157160940Y-103362511D01*
X157160935Y-103362509D01*
X157093903Y-103342826D01*
X157093899Y-103342825D01*
X157093898Y-103342825D01*
X157036000Y-103334500D01*
X157035996Y-103334500D01*
X156935862Y-103334500D01*
X156868823Y-103314815D01*
X156848181Y-103298181D01*
X156810000Y-103260000D01*
X156069500Y-103260000D01*
X156002461Y-103240315D01*
X155956706Y-103187511D01*
X155945500Y-103136000D01*
X155945500Y-102114000D01*
X155965185Y-102046961D01*
X156017989Y-102001206D01*
X156069500Y-101990000D01*
X157691534Y-101990000D01*
X157758573Y-102009685D01*
G37*
%TD.AperFunction*%
%TD*%
%TA.AperFunction,Conductor*%
%TO.N,VBUS*%
G36*
X169765928Y-109112598D02*
G01*
X169843607Y-109150573D01*
X169877673Y-109155536D01*
X169911739Y-109160500D01*
X169911740Y-109160500D01*
X170486261Y-109160500D01*
X170553300Y-109180185D01*
X170563457Y-109187990D01*
X170566564Y-109189913D01*
X170566567Y-109189916D01*
X170566570Y-109189917D01*
X170573021Y-109192416D01*
X170598306Y-109205743D01*
X170604020Y-109209657D01*
X170634203Y-109216756D01*
X170642411Y-109219298D01*
X170671325Y-109230500D01*
X170671327Y-109230500D01*
X170678252Y-109230500D01*
X170706640Y-109233793D01*
X170713381Y-109235379D01*
X170744091Y-109231094D01*
X170752666Y-109230500D01*
X170995500Y-109230500D01*
X171062539Y-109250185D01*
X171108294Y-109302989D01*
X171119500Y-109354500D01*
X171119500Y-109512158D01*
X171118905Y-109520732D01*
X171117227Y-109532763D01*
X171119434Y-109580509D01*
X171119500Y-109583372D01*
X171119500Y-109602845D01*
X171119993Y-109605482D01*
X171120982Y-109614015D01*
X171122415Y-109644991D01*
X171122416Y-109644997D01*
X171125214Y-109651334D01*
X171133664Y-109678620D01*
X171134937Y-109685429D01*
X171134938Y-109685431D01*
X171134938Y-109685432D01*
X171134939Y-109685433D01*
X171141427Y-109695912D01*
X171160000Y-109761188D01*
X171160000Y-109938961D01*
X171140315Y-110006000D01*
X171087511Y-110051755D01*
X171018353Y-110061699D01*
X171003260Y-110059500D01*
X169911740Y-110059500D01*
X169911739Y-110059500D01*
X169843608Y-110069426D01*
X169745474Y-110117401D01*
X169691014Y-110130000D01*
X169234000Y-110130000D01*
X169166961Y-110110315D01*
X169121206Y-110057511D01*
X169110000Y-110006000D01*
X169110000Y-109224000D01*
X169129685Y-109156961D01*
X169182489Y-109111206D01*
X169234000Y-109100000D01*
X169711470Y-109100000D01*
X169765928Y-109112598D01*
G37*
%TD.AperFunction*%
%TD*%
%TA.AperFunction,Conductor*%
%TO.N,GND*%
G36*
X155651006Y-100979985D02*
G01*
X155671648Y-100996619D01*
X155703681Y-101028652D01*
X155737166Y-101089975D01*
X155740000Y-101116333D01*
X155740000Y-103208638D01*
X155720315Y-103275677D01*
X155703681Y-103296319D01*
X155660000Y-103340000D01*
X155860000Y-103540000D01*
X157036000Y-103540000D01*
X157103039Y-103559685D01*
X157148794Y-103612489D01*
X157160000Y-103664000D01*
X157159999Y-106249405D01*
X157146487Y-106305693D01*
X157139355Y-106319692D01*
X157139352Y-106319698D01*
X157124500Y-106413475D01*
X157124500Y-106876517D01*
X157139354Y-106970304D01*
X157139354Y-106970305D01*
X157146484Y-106984297D01*
X157160000Y-107040593D01*
X157160000Y-107398016D01*
X157140315Y-107465055D01*
X157123681Y-107485697D01*
X156717110Y-107892268D01*
X156709756Y-107900453D01*
X156709723Y-107900493D01*
X156689671Y-107925379D01*
X156660129Y-107981858D01*
X156637933Y-108012066D01*
X156456319Y-108193681D01*
X156394996Y-108227166D01*
X156368638Y-108230000D01*
X154719500Y-108230000D01*
X154652461Y-108210315D01*
X154606706Y-108157511D01*
X154595500Y-108106000D01*
X154595500Y-105905856D01*
X154595464Y-105905196D01*
X154594911Y-105894865D01*
X154591488Y-105863034D01*
X154567529Y-105786517D01*
X154534045Y-105725196D01*
X154498992Y-105678372D01*
X154498983Y-105678364D01*
X154172706Y-105352085D01*
X154172699Y-105352079D01*
X154125957Y-105317072D01*
X154125955Y-105317071D01*
X154125953Y-105317070D01*
X154125952Y-105317069D01*
X154064728Y-105283605D01*
X154064729Y-105283605D01*
X154060848Y-105281484D01*
X154061477Y-105280331D01*
X153946863Y-105240225D01*
X153914188Y-105222956D01*
X153911339Y-105220853D01*
X153884839Y-105201296D01*
X153858702Y-105175159D01*
X153837042Y-105145810D01*
X153819772Y-105113133D01*
X153782129Y-105005556D01*
X153782083Y-105005515D01*
X153778647Y-104999065D01*
X153778511Y-104999140D01*
X153768695Y-104981183D01*
X153742928Y-104934043D01*
X153707918Y-104887298D01*
X153707916Y-104887296D01*
X153707914Y-104887293D01*
X153591819Y-104771198D01*
X153558334Y-104709875D01*
X153555500Y-104683517D01*
X153555500Y-103789500D01*
X153575185Y-103722461D01*
X153627989Y-103676706D01*
X153679500Y-103665500D01*
X154014142Y-103665500D01*
X154025134Y-103664911D01*
X154056965Y-103661488D01*
X154133482Y-103637529D01*
X154194805Y-103604044D01*
X154241629Y-103568991D01*
X154532883Y-103277737D01*
X154540240Y-103269548D01*
X154560327Y-103244620D01*
X154597490Y-103173575D01*
X154617175Y-103106536D01*
X154625500Y-103048638D01*
X154625500Y-102255858D01*
X154624911Y-102244866D01*
X154621488Y-102213035D01*
X154597529Y-102136518D01*
X154586499Y-102116318D01*
X154564046Y-102075198D01*
X154554731Y-102062754D01*
X154530316Y-101997289D01*
X154530000Y-101988445D01*
X154530000Y-101106333D01*
X154549685Y-101039294D01*
X154566321Y-101018650D01*
X154588355Y-100996617D01*
X154649679Y-100963133D01*
X154676034Y-100960300D01*
X155583967Y-100960300D01*
X155651006Y-100979985D01*
G37*
%TD.AperFunction*%
%TD*%
%TA.AperFunction,Conductor*%
%TO.N,+BATT*%
G36*
X168545677Y-89619685D02*
G01*
X168566319Y-89636319D01*
X169983682Y-91053682D01*
X170017166Y-91115003D01*
X170020000Y-91141361D01*
X170020000Y-93778637D01*
X170000315Y-93845676D01*
X169983681Y-93866318D01*
X169038947Y-94811051D01*
X168977624Y-94844536D01*
X168916333Y-94842348D01*
X168883905Y-94832826D01*
X168883256Y-94832732D01*
X168826000Y-94824500D01*
X164390623Y-94824500D01*
X164348742Y-94828813D01*
X164348739Y-94828813D01*
X164348735Y-94828814D01*
X164319897Y-94834818D01*
X164299205Y-94839126D01*
X164290814Y-94841059D01*
X164209354Y-94882619D01*
X164209353Y-94882620D01*
X164199294Y-94891027D01*
X164175221Y-94911145D01*
X164111160Y-94939032D01*
X164095704Y-94939999D01*
X163867732Y-94939999D01*
X163817229Y-94929248D01*
X163784528Y-94914665D01*
X163784530Y-94914665D01*
X163717131Y-94896178D01*
X163692542Y-94891027D01*
X163601372Y-94898251D01*
X163601369Y-94898251D01*
X163601368Y-94898252D01*
X163534692Y-94919131D01*
X163516461Y-94927855D01*
X163462943Y-94939999D01*
X163217736Y-94939999D01*
X163167240Y-94929251D01*
X163134539Y-94914670D01*
X163134518Y-94914663D01*
X163067159Y-94896185D01*
X163067151Y-94896183D01*
X163067150Y-94896183D01*
X163047008Y-94891962D01*
X163042547Y-94891027D01*
X163042546Y-94891027D01*
X162996961Y-94894639D01*
X162951375Y-94898251D01*
X162884702Y-94919128D01*
X162884701Y-94919128D01*
X162866460Y-94927856D01*
X162812944Y-94939999D01*
X162588719Y-94939999D01*
X162521680Y-94920314D01*
X162501824Y-94904459D01*
X162500452Y-94903111D01*
X162500383Y-94903045D01*
X162494132Y-94897157D01*
X162494128Y-94897154D01*
X162429946Y-94861254D01*
X162414314Y-94852510D01*
X162414313Y-94852509D01*
X162414312Y-94852509D01*
X162347280Y-94832826D01*
X162347276Y-94832825D01*
X162347275Y-94832825D01*
X162289377Y-94824500D01*
X162144000Y-94824500D01*
X162143992Y-94824500D01*
X162100317Y-94829196D01*
X162048802Y-94840403D01*
X162038627Y-94842890D01*
X162038624Y-94842891D01*
X161957916Y-94885899D01*
X161957913Y-94885901D01*
X161905104Y-94931660D01*
X161887160Y-94949242D01*
X161887154Y-94949249D01*
X161842511Y-95029059D01*
X161842509Y-95029064D01*
X161822826Y-95096096D01*
X161822825Y-95096101D01*
X161822825Y-95096102D01*
X161814550Y-95153650D01*
X161785525Y-95217204D01*
X161726746Y-95254978D01*
X161691813Y-95260000D01*
X161149500Y-95260000D01*
X161082461Y-95240315D01*
X161036706Y-95187511D01*
X161025500Y-95136000D01*
X161025500Y-94696918D01*
X161025736Y-94691511D01*
X161029264Y-94651191D01*
X161029264Y-94651190D01*
X161018782Y-94612074D01*
X161017616Y-94606816D01*
X161010588Y-94566953D01*
X161010586Y-94566950D01*
X161010586Y-94566948D01*
X161008760Y-94561931D01*
X161001820Y-94545174D01*
X160999554Y-94540317D01*
X160999554Y-94540314D01*
X160976339Y-94507160D01*
X160973433Y-94502597D01*
X160953196Y-94467546D01*
X160953195Y-94467545D01*
X160953194Y-94467543D01*
X160922177Y-94441516D01*
X160918193Y-94437865D01*
X160676319Y-94195990D01*
X160642834Y-94134667D01*
X160641697Y-94124099D01*
X160640000Y-94120001D01*
X160640000Y-94119999D01*
X161110000Y-94590000D01*
X162120000Y-94590000D01*
X162470000Y-94240000D01*
X162470000Y-94060000D01*
X161475500Y-93065500D01*
X161524795Y-93065500D01*
X161591834Y-93085185D01*
X161596555Y-93088412D01*
X161596777Y-93088525D01*
X161596780Y-93088528D01*
X161716874Y-93149719D01*
X161716876Y-93149719D01*
X161716878Y-93149720D01*
X161849998Y-93170804D01*
X161850000Y-93170804D01*
X161850002Y-93170804D01*
X161983121Y-93149720D01*
X161983121Y-93149719D01*
X161983126Y-93149719D01*
X162103220Y-93088528D01*
X162198528Y-92993220D01*
X162259719Y-92873126D01*
X162264236Y-92844601D01*
X162294165Y-92781468D01*
X162353476Y-92744537D01*
X162386710Y-92740000D01*
X164000000Y-92740000D01*
X164030000Y-92710000D01*
X164030000Y-90621360D01*
X164049685Y-90554322D01*
X164066314Y-90533685D01*
X164963681Y-89636319D01*
X165025004Y-89602834D01*
X165051362Y-89600000D01*
X168478638Y-89600000D01*
X168545677Y-89619685D01*
G37*
%TD.AperFunction*%
%TD*%
%TA.AperFunction,Conductor*%
%TO.N,GND*%
G36*
X162356416Y-95049685D02*
G01*
X162392479Y-95085110D01*
X162395446Y-95089551D01*
X162461769Y-95133867D01*
X162461770Y-95133868D01*
X162520247Y-95145499D01*
X162520250Y-95145500D01*
X162520252Y-95145500D01*
X162859750Y-95145500D01*
X162859751Y-95145499D01*
X162874568Y-95142552D01*
X162918229Y-95133868D01*
X162918231Y-95133867D01*
X162946108Y-95115240D01*
X163012785Y-95094361D01*
X163080165Y-95112845D01*
X163083891Y-95115239D01*
X163111770Y-95133867D01*
X163111771Y-95133868D01*
X163170248Y-95145499D01*
X163170251Y-95145500D01*
X163170253Y-95145500D01*
X163509751Y-95145500D01*
X163509752Y-95145499D01*
X163524569Y-95142552D01*
X163568230Y-95133868D01*
X163568231Y-95133867D01*
X163568232Y-95133867D01*
X163596108Y-95115240D01*
X163662783Y-95094361D01*
X163730164Y-95112844D01*
X163733892Y-95115240D01*
X163761768Y-95133867D01*
X163761770Y-95133868D01*
X163820247Y-95145499D01*
X163820250Y-95145500D01*
X163820252Y-95145500D01*
X164159750Y-95145500D01*
X164159751Y-95145499D01*
X164174568Y-95142552D01*
X164218229Y-95133868D01*
X164218229Y-95133867D01*
X164218231Y-95133867D01*
X164284552Y-95089552D01*
X164284553Y-95089551D01*
X164287521Y-95085110D01*
X164341133Y-95040304D01*
X164390623Y-95030000D01*
X168826000Y-95030000D01*
X168893039Y-95049685D01*
X168938794Y-95102489D01*
X168950000Y-95154000D01*
X168950000Y-99048638D01*
X168930315Y-99115677D01*
X168913681Y-99136319D01*
X168816319Y-99233681D01*
X168754996Y-99267166D01*
X168728638Y-99270000D01*
X164931362Y-99270000D01*
X164864323Y-99250315D01*
X164843681Y-99233681D01*
X164476319Y-98866318D01*
X164442834Y-98804995D01*
X164440000Y-98778637D01*
X164440000Y-97220000D01*
X164390000Y-97170000D01*
X162351362Y-97170000D01*
X162284323Y-97150315D01*
X162263681Y-97133681D01*
X162056319Y-96926318D01*
X162022834Y-96864995D01*
X162020000Y-96838637D01*
X162020000Y-95154000D01*
X162039685Y-95086961D01*
X162092489Y-95041206D01*
X162144000Y-95030000D01*
X162289377Y-95030000D01*
X162356416Y-95049685D01*
G37*
%TD.AperFunction*%
%TD*%
%TA.AperFunction,Conductor*%
%TO.N,+3V3*%
G36*
X165445677Y-104839685D02*
G01*
X165466319Y-104856319D01*
X166803681Y-106193681D01*
X166837166Y-106255004D01*
X166840000Y-106281362D01*
X166839999Y-107308638D01*
X166820314Y-107375678D01*
X166803680Y-107396319D01*
X165156319Y-109043681D01*
X165094996Y-109077166D01*
X165068638Y-109080000D01*
X157381362Y-109080000D01*
X157314323Y-109060315D01*
X157293681Y-109043681D01*
X156866319Y-108616319D01*
X156832834Y-108554996D01*
X156830000Y-108528638D01*
X156830000Y-108121361D01*
X156849685Y-108054322D01*
X156866314Y-108033685D01*
X157618183Y-107281816D01*
X157679504Y-107248333D01*
X157705855Y-107245499D01*
X158106518Y-107245499D01*
X158200304Y-107230646D01*
X158313342Y-107173050D01*
X158313346Y-107173045D01*
X158339574Y-107146819D01*
X158400897Y-107113334D01*
X158427255Y-107110500D01*
X159160500Y-107110500D01*
X159227539Y-107130185D01*
X159273294Y-107182989D01*
X159284500Y-107234500D01*
X159284500Y-107569269D01*
X159287353Y-107599699D01*
X159287353Y-107599701D01*
X159332206Y-107727880D01*
X159332207Y-107727882D01*
X159412850Y-107837150D01*
X159522118Y-107917793D01*
X159564845Y-107932744D01*
X159650299Y-107962646D01*
X159680730Y-107965500D01*
X159680734Y-107965500D01*
X160539270Y-107965500D01*
X160569699Y-107962646D01*
X160569701Y-107962646D01*
X160633790Y-107940219D01*
X160697882Y-107917793D01*
X160807150Y-107837150D01*
X160887793Y-107727882D01*
X160910219Y-107663790D01*
X160932646Y-107599701D01*
X160932646Y-107599699D01*
X160935500Y-107569269D01*
X160935500Y-106404000D01*
X160955185Y-106336961D01*
X161007989Y-106291206D01*
X161059500Y-106280000D01*
X161290000Y-106280000D01*
X161310000Y-106260000D01*
X161310000Y-104944000D01*
X161329685Y-104876961D01*
X161382489Y-104831206D01*
X161434000Y-104820000D01*
X165378638Y-104820000D01*
X165445677Y-104839685D01*
G37*
%TD.AperFunction*%
%TD*%
%TA.AperFunction,Conductor*%
%TO.N,VCC*%
G36*
X154115677Y-88159685D02*
G01*
X154136319Y-88176319D01*
X155243437Y-89283437D01*
X155266240Y-89314822D01*
X155321472Y-89423220D01*
X155321474Y-89423222D01*
X155321476Y-89423225D01*
X155416774Y-89518523D01*
X155416776Y-89518524D01*
X155416780Y-89518528D01*
X155513888Y-89568007D01*
X155525177Y-89573759D01*
X155556563Y-89596563D01*
X155620000Y-89660000D01*
X156142245Y-89660000D01*
X156209284Y-89679685D01*
X156229926Y-89696319D01*
X156236652Y-89703045D01*
X156236654Y-89703046D01*
X156236658Y-89703050D01*
X156349694Y-89760645D01*
X156349698Y-89760647D01*
X156443475Y-89775499D01*
X156443481Y-89775500D01*
X157056518Y-89775499D01*
X157150304Y-89760646D01*
X157263342Y-89703050D01*
X157263346Y-89703045D01*
X157270074Y-89696319D01*
X157331397Y-89662834D01*
X157357755Y-89660000D01*
X157981277Y-89660000D01*
X158037569Y-89673514D01*
X158149696Y-89730646D01*
X158149697Y-89730646D01*
X158149699Y-89730647D01*
X158149698Y-89730647D01*
X158243475Y-89745499D01*
X158243481Y-89745500D01*
X158706518Y-89745499D01*
X158800304Y-89730646D01*
X158800305Y-89730645D01*
X158809943Y-89729119D01*
X158810331Y-89731569D01*
X158866062Y-89729976D01*
X158922219Y-89762219D01*
X159018183Y-89858183D01*
X159051666Y-89919502D01*
X159054500Y-89945861D01*
X159054500Y-90044462D01*
X159054528Y-90047603D01*
X159062990Y-90101319D01*
X159063910Y-90107159D01*
X159084783Y-90173820D01*
X159084785Y-90173826D01*
X159084787Y-90173830D01*
X159107858Y-90222052D01*
X159120001Y-90275567D01*
X159120001Y-91265491D01*
X159120002Y-91265507D01*
X159124698Y-91309182D01*
X159135905Y-91360695D01*
X159137745Y-91368227D01*
X159138392Y-91370872D01*
X159138394Y-91370879D01*
X159172151Y-91434226D01*
X159186306Y-91502647D01*
X159170940Y-91553074D01*
X159148011Y-91594065D01*
X159148010Y-91594067D01*
X159128329Y-91661094D01*
X159128327Y-91661101D01*
X159124132Y-91690281D01*
X159120002Y-91719002D01*
X159120002Y-92630092D01*
X159118659Y-92648290D01*
X159118367Y-92650254D01*
X159118366Y-92650262D01*
X159114995Y-92684492D01*
X159114995Y-92684494D01*
X159114500Y-92694584D01*
X159114500Y-92754142D01*
X159115089Y-92765136D01*
X159115089Y-92765139D01*
X159115907Y-92772739D01*
X159103505Y-92841499D01*
X159055897Y-92892639D01*
X158992618Y-92910000D01*
X158711362Y-92910000D01*
X158644323Y-92890315D01*
X158623681Y-92873681D01*
X158543439Y-92793439D01*
X158509954Y-92732116D01*
X158514938Y-92662424D01*
X158516560Y-92658303D01*
X158519998Y-92650001D01*
X158520000Y-92650000D01*
X158520000Y-92508914D01*
X158539685Y-92441875D01*
X158540899Y-92440021D01*
X158544551Y-92434554D01*
X158544554Y-92434553D01*
X158588869Y-92368232D01*
X158600502Y-92309749D01*
X158600502Y-92070253D01*
X158600502Y-92070250D01*
X158600501Y-92070248D01*
X158588870Y-92011772D01*
X158586947Y-92008894D01*
X158584682Y-92001661D01*
X158584196Y-92000488D01*
X158584301Y-92000444D01*
X158566067Y-91942217D01*
X158584549Y-91874837D01*
X158586934Y-91871126D01*
X158588869Y-91868231D01*
X158600502Y-91809748D01*
X158600502Y-91570252D01*
X158600502Y-91570251D01*
X158600502Y-91570249D01*
X158600501Y-91570247D01*
X158588870Y-91511770D01*
X158586944Y-91508888D01*
X158584678Y-91501651D01*
X158584196Y-91500487D01*
X158584300Y-91500443D01*
X158566068Y-91442210D01*
X158584554Y-91374830D01*
X158586924Y-91371140D01*
X158588869Y-91368231D01*
X158600502Y-91309748D01*
X158600502Y-91070252D01*
X158600502Y-91070251D01*
X158600502Y-91070249D01*
X158600501Y-91070247D01*
X158588870Y-91011771D01*
X158586947Y-91008893D01*
X158584682Y-91001660D01*
X158584196Y-91000487D01*
X158584301Y-91000443D01*
X158566067Y-90942216D01*
X158584549Y-90874836D01*
X158586934Y-90871125D01*
X158588869Y-90868230D01*
X158593137Y-90846776D01*
X158598766Y-90818473D01*
X158600502Y-90809747D01*
X158600502Y-90570251D01*
X158600502Y-90570250D01*
X158600502Y-90570248D01*
X158600501Y-90570246D01*
X158588870Y-90511769D01*
X158588869Y-90511768D01*
X158544554Y-90445446D01*
X158520000Y-90429039D01*
X158520000Y-90400000D01*
X158390000Y-90270000D01*
X158271749Y-90270000D01*
X158203225Y-90201476D01*
X158203221Y-90201473D01*
X158203220Y-90201472D01*
X158083126Y-90140281D01*
X158083124Y-90140280D01*
X158083121Y-90140279D01*
X157950002Y-90119196D01*
X157949998Y-90119196D01*
X157816878Y-90140279D01*
X157696778Y-90201473D01*
X157696775Y-90201475D01*
X157664572Y-90233680D01*
X157603250Y-90267166D01*
X157576890Y-90270000D01*
X157240220Y-90270000D01*
X157183925Y-90256485D01*
X157150301Y-90239352D01*
X157056524Y-90224500D01*
X156443482Y-90224500D01*
X156349695Y-90239354D01*
X156316074Y-90256485D01*
X156259780Y-90270000D01*
X156240000Y-90270000D01*
X156226962Y-90283037D01*
X156220315Y-90305677D01*
X156203681Y-90326319D01*
X155696319Y-90833681D01*
X155634996Y-90867166D01*
X155608638Y-90870000D01*
X153811279Y-90870000D01*
X153744240Y-90850315D01*
X153740155Y-90847575D01*
X153739018Y-90846779D01*
X153739015Y-90846776D01*
X153630186Y-90796028D01*
X153630184Y-90796027D01*
X153630185Y-90796027D01*
X153580600Y-90789500D01*
X153160804Y-90789500D01*
X153145085Y-90791569D01*
X153111212Y-90796028D01*
X153111210Y-90796029D01*
X153111208Y-90796029D01*
X153002382Y-90846776D01*
X152917475Y-90931683D01*
X152866726Y-91040514D01*
X152860199Y-91090098D01*
X152860199Y-91158437D01*
X152840514Y-91225476D01*
X152823881Y-91246118D01*
X152700000Y-91370000D01*
X152540000Y-91530000D01*
X151736417Y-91530000D01*
X151730168Y-91527579D01*
X151704890Y-91514255D01*
X151699179Y-91510343D01*
X151699176Y-91510342D01*
X151699177Y-91510342D01*
X151669000Y-91503243D01*
X151660792Y-91500702D01*
X151631871Y-91489499D01*
X151624947Y-91489499D01*
X151596556Y-91486205D01*
X151589817Y-91484620D01*
X151559107Y-91488904D01*
X151550532Y-91489499D01*
X150931167Y-91489499D01*
X150864128Y-91469814D01*
X150862305Y-91468621D01*
X150836132Y-91451132D01*
X150836130Y-91451131D01*
X150836128Y-91451130D01*
X150836130Y-91451130D01*
X150777653Y-91439499D01*
X150777649Y-91439499D01*
X150077600Y-91439499D01*
X150010561Y-91419814D01*
X149964806Y-91367010D01*
X149953600Y-91315499D01*
X149953600Y-91264501D01*
X149973285Y-91197462D01*
X150026089Y-91151707D01*
X150077600Y-91140501D01*
X150777651Y-91140501D01*
X150777652Y-91140500D01*
X150792469Y-91137553D01*
X150836130Y-91128869D01*
X150836130Y-91128868D01*
X150836132Y-91128868D01*
X150902453Y-91084553D01*
X150946768Y-91018232D01*
X150946768Y-91018230D01*
X150946769Y-91018230D01*
X150958400Y-90959753D01*
X150958401Y-90959751D01*
X150958401Y-90620250D01*
X150958400Y-90620248D01*
X150946769Y-90561771D01*
X150946768Y-90561770D01*
X150902453Y-90495448D01*
X150836131Y-90451133D01*
X150825664Y-90446797D01*
X150771263Y-90402954D01*
X150749201Y-90336659D01*
X150766483Y-90268960D01*
X150785430Y-90244569D01*
X151093683Y-89936316D01*
X151155004Y-89902834D01*
X151181362Y-89900000D01*
X151900000Y-89900000D01*
X152590000Y-89210000D01*
X152590000Y-88461361D01*
X152609685Y-88394323D01*
X152626319Y-88373681D01*
X152823681Y-88176319D01*
X152885004Y-88142834D01*
X152911362Y-88140000D01*
X154048638Y-88140000D01*
X154115677Y-88159685D01*
G37*
%TD.AperFunction*%
%TD*%
%TA.AperFunction,Conductor*%
%TO.N,GND*%
G36*
X166825677Y-99919685D02*
G01*
X166846319Y-99936319D01*
X167083682Y-100173682D01*
X167117166Y-100235003D01*
X167120000Y-100261361D01*
X167120000Y-104576000D01*
X167100315Y-104643039D01*
X167047511Y-104688794D01*
X166996000Y-104700000D01*
X165642649Y-104700000D01*
X165580419Y-104681727D01*
X165580017Y-104682496D01*
X165576151Y-104680474D01*
X165575610Y-104680315D01*
X165574690Y-104679719D01*
X165574617Y-104679671D01*
X165503575Y-104642509D01*
X165436543Y-104622826D01*
X165435894Y-104622732D01*
X165378638Y-104614500D01*
X161434000Y-104614500D01*
X161433992Y-104614500D01*
X161390317Y-104619196D01*
X161338802Y-104630403D01*
X161328627Y-104632890D01*
X161247915Y-104675899D01*
X161244549Y-104678212D01*
X161242028Y-104679036D01*
X161241769Y-104679175D01*
X161241744Y-104679129D01*
X161178145Y-104699942D01*
X161174344Y-104700000D01*
X160664000Y-104700000D01*
X160596961Y-104680315D01*
X160551206Y-104627511D01*
X160540000Y-104576000D01*
X160540000Y-100224000D01*
X160559685Y-100156961D01*
X160612489Y-100111206D01*
X160617493Y-100110117D01*
X160617212Y-100109439D01*
X160639998Y-100100000D01*
X160640000Y-100100000D01*
X160803681Y-99936318D01*
X160865004Y-99902834D01*
X160891362Y-99900000D01*
X166758638Y-99900000D01*
X166825677Y-99919685D01*
G37*
%TD.AperFunction*%
%TD*%
%TA.AperFunction,Conductor*%
%TO.N,GND*%
G36*
X176147539Y-123304685D02*
G01*
X176193294Y-123357489D01*
X176204500Y-123409000D01*
X176204500Y-125322158D01*
X176203905Y-125330732D01*
X176202227Y-125342763D01*
X176204434Y-125390509D01*
X176204500Y-125393372D01*
X176204500Y-125412845D01*
X176204993Y-125415482D01*
X176205982Y-125424015D01*
X176207415Y-125454991D01*
X176207416Y-125454997D01*
X176210214Y-125461334D01*
X176218664Y-125488620D01*
X176219937Y-125495429D01*
X176219937Y-125495430D01*
X176236260Y-125521793D01*
X176240263Y-125529386D01*
X176252794Y-125557765D01*
X176252795Y-125557766D01*
X176252796Y-125557768D01*
X176257689Y-125562661D01*
X176275435Y-125585065D01*
X176279077Y-125590948D01*
X176279080Y-125590951D01*
X176303826Y-125609639D01*
X176310311Y-125615282D01*
X177193181Y-126498152D01*
X177226666Y-126559475D01*
X177229500Y-126585833D01*
X177229500Y-126911517D01*
X177233998Y-126939916D01*
X177244354Y-127005304D01*
X177301950Y-127118342D01*
X177301952Y-127118344D01*
X177301954Y-127118347D01*
X177325926Y-127142319D01*
X177359411Y-127203642D01*
X177354427Y-127273334D01*
X177325926Y-127317681D01*
X177301954Y-127341652D01*
X177301951Y-127341657D01*
X177244352Y-127454698D01*
X177229500Y-127548475D01*
X177229500Y-128011517D01*
X177233998Y-128039916D01*
X177244354Y-128105304D01*
X177301950Y-128218342D01*
X177301952Y-128218344D01*
X177301954Y-128218347D01*
X177325926Y-128242319D01*
X177359411Y-128303642D01*
X177354427Y-128373334D01*
X177325926Y-128417681D01*
X177301954Y-128441652D01*
X177301951Y-128441657D01*
X177244352Y-128554698D01*
X177229500Y-128648475D01*
X177229500Y-129111517D01*
X177236798Y-129157595D01*
X177244354Y-129205304D01*
X177301950Y-129318342D01*
X177301952Y-129318344D01*
X177301954Y-129318347D01*
X177325926Y-129342319D01*
X177359411Y-129403642D01*
X177354427Y-129473334D01*
X177325926Y-129517681D01*
X177301954Y-129541652D01*
X177301951Y-129541657D01*
X177244352Y-129654698D01*
X177229500Y-129748475D01*
X177229500Y-130211517D01*
X177236798Y-130257595D01*
X177244354Y-130305304D01*
X177301950Y-130418342D01*
X177301952Y-130418344D01*
X177301954Y-130418347D01*
X177391652Y-130508045D01*
X177391654Y-130508046D01*
X177391658Y-130508050D01*
X177504694Y-130565645D01*
X177504698Y-130565647D01*
X177598475Y-130580499D01*
X177598481Y-130580500D01*
X179061518Y-130580499D01*
X179155304Y-130565646D01*
X179268342Y-130508050D01*
X179358050Y-130418342D01*
X179405516Y-130325184D01*
X179453490Y-130274390D01*
X179521311Y-130257595D01*
X179587446Y-130280133D01*
X179630897Y-130334848D01*
X179640000Y-130381481D01*
X179640000Y-131778519D01*
X179620315Y-131845558D01*
X179567511Y-131891313D01*
X179498353Y-131901257D01*
X179434797Y-131872232D01*
X179405516Y-131834816D01*
X179358050Y-131741658D01*
X179358046Y-131741654D01*
X179358045Y-131741652D01*
X179268347Y-131651954D01*
X179268344Y-131651952D01*
X179268342Y-131651950D01*
X179182184Y-131608050D01*
X179155301Y-131594352D01*
X179061524Y-131579500D01*
X177598482Y-131579500D01*
X177517519Y-131592323D01*
X177504696Y-131594354D01*
X177391658Y-131651950D01*
X177391657Y-131651950D01*
X177391657Y-131651951D01*
X177391652Y-131651954D01*
X177301954Y-131741652D01*
X177301949Y-131741659D01*
X177276403Y-131791796D01*
X177228429Y-131842591D01*
X177165919Y-131859500D01*
X176776702Y-131859500D01*
X176771298Y-131859264D01*
X176766540Y-131858847D01*
X176731635Y-131855793D01*
X176693174Y-131866099D01*
X176687893Y-131867270D01*
X176667107Y-131870935D01*
X176648692Y-131874183D01*
X176648691Y-131874183D01*
X176648687Y-131874184D01*
X176643099Y-131876217D01*
X176627856Y-131882531D01*
X176622460Y-131885048D01*
X176589849Y-131907881D01*
X176585289Y-131910786D01*
X176550811Y-131930692D01*
X176550809Y-131930694D01*
X176525220Y-131961188D01*
X176521566Y-131965177D01*
X176035177Y-132451566D01*
X176031188Y-132455220D01*
X176000694Y-132480809D01*
X176000692Y-132480811D01*
X175980786Y-132515289D01*
X175977881Y-132519849D01*
X175955048Y-132552460D01*
X175952531Y-132557856D01*
X175946217Y-132573099D01*
X175944184Y-132578687D01*
X175937270Y-132617893D01*
X175936099Y-132623174D01*
X175925793Y-132661634D01*
X175929264Y-132701294D01*
X175929500Y-132706701D01*
X175929500Y-134308600D01*
X175909815Y-134375639D01*
X175857011Y-134421394D01*
X175805500Y-134432600D01*
X168360000Y-134432600D01*
X168360000Y-134546000D01*
X168340315Y-134613039D01*
X168287511Y-134658794D01*
X168236000Y-134670000D01*
X167724500Y-134670000D01*
X167657461Y-134650315D01*
X167611706Y-134597511D01*
X167600503Y-134546831D01*
X167597951Y-134165882D01*
X167595342Y-133776567D01*
X167614577Y-133709400D01*
X167667073Y-133663292D01*
X167736163Y-133652886D01*
X167799912Y-133681484D01*
X167807020Y-133688058D01*
X167883789Y-133764827D01*
X167991572Y-133817518D01*
X167996375Y-133819866D01*
X168069364Y-133830500D01*
X168069370Y-133830500D01*
X169590630Y-133830500D01*
X169590636Y-133830500D01*
X169663625Y-133819866D01*
X169721118Y-133791759D01*
X169776210Y-133764827D01*
X169864827Y-133676210D01*
X169891759Y-133621118D01*
X169919866Y-133563625D01*
X169930500Y-133490636D01*
X169930500Y-133069364D01*
X169919866Y-132996375D01*
X169917518Y-132991572D01*
X169864827Y-132883789D01*
X169816396Y-132835358D01*
X169782911Y-132774035D01*
X169787895Y-132704343D01*
X169816397Y-132659995D01*
X169858046Y-132618346D01*
X169858050Y-132618342D01*
X169915646Y-132505304D01*
X169915646Y-132505302D01*
X169915647Y-132505301D01*
X169930499Y-132411524D01*
X169930500Y-132411519D01*
X169930499Y-131948482D01*
X169915646Y-131854696D01*
X169858050Y-131741658D01*
X169858046Y-131741654D01*
X169858045Y-131741652D01*
X169834073Y-131717680D01*
X169800588Y-131656357D01*
X169805572Y-131586665D01*
X169834074Y-131542317D01*
X169858050Y-131518342D01*
X169915646Y-131405304D01*
X169915646Y-131405302D01*
X169915647Y-131405301D01*
X169930499Y-131311524D01*
X169930500Y-131311519D01*
X169930499Y-130848482D01*
X169915646Y-130754696D01*
X169858050Y-130641658D01*
X169858046Y-130641654D01*
X169858045Y-130641652D01*
X169834073Y-130617680D01*
X169800588Y-130556357D01*
X169805572Y-130486665D01*
X169834074Y-130442317D01*
X169858050Y-130418342D01*
X169915646Y-130305304D01*
X169915646Y-130305302D01*
X169915647Y-130305301D01*
X169930499Y-130211524D01*
X169930500Y-130211519D01*
X169930499Y-129748482D01*
X169915646Y-129654696D01*
X169858050Y-129541658D01*
X169858046Y-129541654D01*
X169858045Y-129541652D01*
X169834073Y-129517680D01*
X169800588Y-129456357D01*
X169805572Y-129386665D01*
X169834074Y-129342317D01*
X169858050Y-129318342D01*
X169915646Y-129205304D01*
X169915646Y-129205302D01*
X169915647Y-129205301D01*
X169930499Y-129111524D01*
X169930500Y-129111519D01*
X169930499Y-128648482D01*
X169915646Y-128554696D01*
X169858050Y-128441658D01*
X169858046Y-128441654D01*
X169858045Y-128441652D01*
X169834073Y-128417680D01*
X169800588Y-128356357D01*
X169805572Y-128286665D01*
X169834074Y-128242317D01*
X169858050Y-128218342D01*
X169915646Y-128105304D01*
X169915646Y-128105302D01*
X169915647Y-128105301D01*
X169930499Y-128011524D01*
X169930500Y-128011519D01*
X169930499Y-127548482D01*
X169915646Y-127454696D01*
X169858050Y-127341658D01*
X169858046Y-127341654D01*
X169858045Y-127341652D01*
X169834073Y-127317680D01*
X169800588Y-127256357D01*
X169805572Y-127186665D01*
X169834074Y-127142317D01*
X169858050Y-127118342D01*
X169915646Y-127005304D01*
X169915646Y-127005302D01*
X169915647Y-127005301D01*
X169930499Y-126911524D01*
X169930500Y-126911519D01*
X169930499Y-126448482D01*
X169915646Y-126354696D01*
X169858050Y-126241658D01*
X169858046Y-126241654D01*
X169858045Y-126241652D01*
X169834073Y-126217680D01*
X169800588Y-126156357D01*
X169805572Y-126086665D01*
X169834074Y-126042317D01*
X169858050Y-126018342D01*
X169915646Y-125905304D01*
X169915646Y-125905302D01*
X169915647Y-125905301D01*
X169930499Y-125811524D01*
X169930500Y-125811519D01*
X169930499Y-125348482D01*
X169915646Y-125254696D01*
X169858050Y-125141658D01*
X169858046Y-125141654D01*
X169858045Y-125141652D01*
X169768347Y-125051954D01*
X169768344Y-125051952D01*
X169768342Y-125051950D01*
X169691517Y-125012805D01*
X169655301Y-124994352D01*
X169561524Y-124979500D01*
X168098482Y-124979500D01*
X168017519Y-124992323D01*
X168004696Y-124994354D01*
X167891658Y-125051950D01*
X167891657Y-125051951D01*
X167891652Y-125051954D01*
X167801954Y-125141652D01*
X167801949Y-125141659D01*
X167771997Y-125200442D01*
X167724022Y-125251238D01*
X167656201Y-125268032D01*
X167590066Y-125245494D01*
X167546615Y-125190778D01*
X167537516Y-125144977D01*
X167536407Y-124979500D01*
X167525923Y-123414476D01*
X167545158Y-123347307D01*
X167597654Y-123301199D01*
X167649759Y-123289646D01*
X170869312Y-123285559D01*
X171310078Y-123285000D01*
X176080500Y-123285000D01*
X176147539Y-123304685D01*
G37*
%TD.AperFunction*%
%TA.AperFunction,Conductor*%
G36*
X179587446Y-132480133D02*
G01*
X179630897Y-132534848D01*
X179640000Y-132581481D01*
X179640000Y-134308600D01*
X179620315Y-134375639D01*
X179567511Y-134421394D01*
X179516000Y-134432600D01*
X176837218Y-134432600D01*
X176770179Y-134412915D01*
X176749537Y-134396281D01*
X176606819Y-134253563D01*
X176573334Y-134192240D01*
X176570500Y-134165882D01*
X176570500Y-132874117D01*
X176590185Y-132807078D01*
X176606814Y-132786441D01*
X176856436Y-132536819D01*
X176917760Y-132503334D01*
X176944118Y-132500500D01*
X177165919Y-132500500D01*
X177232958Y-132520185D01*
X177276403Y-132568204D01*
X177301949Y-132618340D01*
X177301954Y-132618347D01*
X177391652Y-132708045D01*
X177391654Y-132708046D01*
X177391658Y-132708050D01*
X177475069Y-132750550D01*
X177504698Y-132765647D01*
X177598475Y-132780499D01*
X177598481Y-132780500D01*
X179061518Y-132780499D01*
X179155304Y-132765646D01*
X179268342Y-132708050D01*
X179358050Y-132618342D01*
X179405516Y-132525184D01*
X179453490Y-132474390D01*
X179521311Y-132457595D01*
X179587446Y-132480133D01*
G37*
%TD.AperFunction*%
%TA.AperFunction,Conductor*%
G36*
X179583039Y-123304685D02*
G01*
X179628794Y-123357489D01*
X179640000Y-123409000D01*
X179640000Y-124110686D01*
X179620315Y-124177725D01*
X179567511Y-124223480D01*
X179498353Y-124233424D01*
X179434797Y-124204399D01*
X179404600Y-124165147D01*
X179364825Y-124083787D01*
X179276210Y-123995172D01*
X179163628Y-123940135D01*
X179163626Y-123940134D01*
X179163625Y-123940134D01*
X179090636Y-123929500D01*
X177569364Y-123929500D01*
X177496375Y-123940134D01*
X177496374Y-123940134D01*
X177496370Y-123940135D01*
X177463958Y-123955980D01*
X177395085Y-123967738D01*
X177330788Y-123940394D01*
X177291482Y-123882629D01*
X177285500Y-123844579D01*
X177285500Y-123409000D01*
X177305185Y-123341961D01*
X177357989Y-123296206D01*
X177409500Y-123285000D01*
X179516000Y-123285000D01*
X179583039Y-123304685D01*
G37*
%TD.AperFunction*%
%TD*%
%TA.AperFunction,Conductor*%
%TO.N,GND*%
G36*
X162256970Y-126689685D02*
G01*
X162302725Y-126742489D01*
X162307861Y-126755679D01*
X162310279Y-126763123D01*
X162310281Y-126763126D01*
X162371472Y-126883220D01*
X162371474Y-126883222D01*
X162371476Y-126883225D01*
X162466774Y-126978523D01*
X162466778Y-126978526D01*
X162466780Y-126978528D01*
X162586874Y-127039719D01*
X162586876Y-127039719D01*
X162586878Y-127039720D01*
X162686507Y-127055500D01*
X162686512Y-127055500D01*
X163203493Y-127055500D01*
X163303121Y-127039720D01*
X163303121Y-127039719D01*
X163303126Y-127039719D01*
X163423220Y-126978528D01*
X163518528Y-126883220D01*
X163579719Y-126763126D01*
X163579719Y-126763124D01*
X163579720Y-126763123D01*
X163582139Y-126755679D01*
X163621577Y-126698005D01*
X163685937Y-126670808D01*
X163700069Y-126670000D01*
X163956590Y-126670000D01*
X164023629Y-126689685D01*
X164069384Y-126742489D01*
X164080589Y-126794374D01*
X164052532Y-136106204D01*
X164032646Y-136173183D01*
X163979704Y-136218779D01*
X163928363Y-136229830D01*
X156801262Y-136220070D01*
X156734250Y-136200294D01*
X156713751Y-136183751D01*
X156626319Y-136096319D01*
X156592834Y-136034996D01*
X156590000Y-136008638D01*
X156590000Y-126794000D01*
X156609685Y-126726961D01*
X156662489Y-126681206D01*
X156714000Y-126670000D01*
X162189931Y-126670000D01*
X162256970Y-126689685D01*
G37*
%TD.AperFunction*%
%TD*%
M02*
