%TF.GenerationSoftware,KiCad,Pcbnew,7.0.5-0*%
%TF.CreationDate,2024-02-07T21:38:44-05:00*%
%TF.ProjectId,GHOUL-2024-0,47484f55-4c2d-4323-9032-342d302e6b69,rev?*%
%TF.SameCoordinates,Original*%
%TF.FileFunction,Legend,Bot*%
%TF.FilePolarity,Positive*%
%FSLAX46Y46*%
G04 Gerber Fmt 4.6, Leading zero omitted, Abs format (unit mm)*
G04 Created by KiCad (PCBNEW 7.0.5-0) date 2024-02-07 21:38:44*
%MOMM*%
%LPD*%
G01*
G04 APERTURE LIST*
G04 Aperture macros list*
%AMRoundRect*
0 Rectangle with rounded corners*
0 $1 Rounding radius*
0 $2 $3 $4 $5 $6 $7 $8 $9 X,Y pos of 4 corners*
0 Add a 4 corners polygon primitive as box body*
4,1,4,$2,$3,$4,$5,$6,$7,$8,$9,$2,$3,0*
0 Add four circle primitives for the rounded corners*
1,1,$1+$1,$2,$3*
1,1,$1+$1,$4,$5*
1,1,$1+$1,$6,$7*
1,1,$1+$1,$8,$9*
0 Add four rect primitives between the rounded corners*
20,1,$1+$1,$2,$3,$4,$5,0*
20,1,$1+$1,$4,$5,$6,$7,0*
20,1,$1+$1,$6,$7,$8,$9,0*
20,1,$1+$1,$8,$9,$2,$3,0*%
G04 Aperture macros list end*
%ADD10C,0.150000*%
%ADD11C,0.125000*%
%ADD12C,0.508000*%
%ADD13C,0.120000*%
%ADD14C,4.400000*%
%ADD15C,0.650000*%
%ADD16O,2.100000X1.000000*%
%ADD17O,1.800000X1.000000*%
%ADD18R,1.700000X1.700000*%
%ADD19O,1.700000X1.700000*%
%ADD20RoundRect,0.250000X-0.620000X0.620000X-0.620000X-0.620000X0.620000X-0.620000X0.620000X0.620000X0*%
%ADD21C,1.740000*%
%ADD22C,2.000000*%
%ADD23C,1.400000*%
%ADD24R,3.500000X3.500000*%
%ADD25C,3.500000*%
%ADD26C,0.700000*%
%ADD27C,0.500000*%
%ADD28O,0.800000X1.500000*%
%ADD29C,0.889000*%
%ADD30RoundRect,0.225000X0.225000X0.250000X-0.225000X0.250000X-0.225000X-0.250000X0.225000X-0.250000X0*%
%ADD31R,1.000000X1.000000*%
%ADD32R,1.050000X2.200000*%
%ADD33RoundRect,0.250000X0.620000X-0.620000X0.620000X0.620000X-0.620000X0.620000X-0.620000X-0.620000X0*%
%ADD34RoundRect,0.322500X-1.177500X-0.322500X1.177500X-0.322500X1.177500X0.322500X-1.177500X0.322500X0*%
%ADD35RoundRect,0.325000X-1.175000X-0.325000X1.175000X-0.325000X1.175000X0.325000X-1.175000X0.325000X0*%
%ADD36RoundRect,0.325000X-0.325000X1.425000X-0.325000X-1.425000X0.325000X-1.425000X0.325000X1.425000X0*%
G04 APERTURE END LIST*
D10*
X134933152Y-106063922D02*
X134933152Y-106444874D01*
X135599819Y-106206779D02*
X134742676Y-106206779D01*
X134742676Y-106206779D02*
X134647438Y-106254398D01*
X134647438Y-106254398D02*
X134599819Y-106349636D01*
X134599819Y-106349636D02*
X134599819Y-106444874D01*
X135599819Y-106921065D02*
X135552200Y-106825827D01*
X135552200Y-106825827D02*
X135456961Y-106778208D01*
X135456961Y-106778208D02*
X134599819Y-106778208D01*
X135599819Y-107444875D02*
X135552200Y-107349637D01*
X135552200Y-107349637D02*
X135504580Y-107302018D01*
X135504580Y-107302018D02*
X135409342Y-107254399D01*
X135409342Y-107254399D02*
X135123628Y-107254399D01*
X135123628Y-107254399D02*
X135028390Y-107302018D01*
X135028390Y-107302018D02*
X134980771Y-107349637D01*
X134980771Y-107349637D02*
X134933152Y-107444875D01*
X134933152Y-107444875D02*
X134933152Y-107587732D01*
X134933152Y-107587732D02*
X134980771Y-107682970D01*
X134980771Y-107682970D02*
X135028390Y-107730589D01*
X135028390Y-107730589D02*
X135123628Y-107778208D01*
X135123628Y-107778208D02*
X135409342Y-107778208D01*
X135409342Y-107778208D02*
X135504580Y-107730589D01*
X135504580Y-107730589D02*
X135552200Y-107682970D01*
X135552200Y-107682970D02*
X135599819Y-107587732D01*
X135599819Y-107587732D02*
X135599819Y-107444875D01*
X134933152Y-108111542D02*
X135599819Y-108302018D01*
X135599819Y-108302018D02*
X135123628Y-108492494D01*
X135123628Y-108492494D02*
X135599819Y-108682970D01*
X135599819Y-108682970D02*
X134933152Y-108873446D01*
X135599819Y-109254399D02*
X134599819Y-109254399D01*
X134980771Y-109254399D02*
X134933152Y-109349637D01*
X134933152Y-109349637D02*
X134933152Y-109540113D01*
X134933152Y-109540113D02*
X134980771Y-109635351D01*
X134980771Y-109635351D02*
X135028390Y-109682970D01*
X135028390Y-109682970D02*
X135123628Y-109730589D01*
X135123628Y-109730589D02*
X135409342Y-109730589D01*
X135409342Y-109730589D02*
X135504580Y-109682970D01*
X135504580Y-109682970D02*
X135552200Y-109635351D01*
X135552200Y-109635351D02*
X135599819Y-109540113D01*
X135599819Y-109540113D02*
X135599819Y-109349637D01*
X135599819Y-109349637D02*
X135552200Y-109254399D01*
X134933152Y-110587732D02*
X135599819Y-110587732D01*
X134933152Y-110159161D02*
X135456961Y-110159161D01*
X135456961Y-110159161D02*
X135552200Y-110206780D01*
X135552200Y-110206780D02*
X135599819Y-110302018D01*
X135599819Y-110302018D02*
X135599819Y-110444875D01*
X135599819Y-110444875D02*
X135552200Y-110540113D01*
X135552200Y-110540113D02*
X135504580Y-110587732D01*
X135552200Y-111016304D02*
X135599819Y-111111542D01*
X135599819Y-111111542D02*
X135599819Y-111302018D01*
X135599819Y-111302018D02*
X135552200Y-111397256D01*
X135552200Y-111397256D02*
X135456961Y-111444875D01*
X135456961Y-111444875D02*
X135409342Y-111444875D01*
X135409342Y-111444875D02*
X135314104Y-111397256D01*
X135314104Y-111397256D02*
X135266485Y-111302018D01*
X135266485Y-111302018D02*
X135266485Y-111159161D01*
X135266485Y-111159161D02*
X135218866Y-111063923D01*
X135218866Y-111063923D02*
X135123628Y-111016304D01*
X135123628Y-111016304D02*
X135076009Y-111016304D01*
X135076009Y-111016304D02*
X134980771Y-111063923D01*
X134980771Y-111063923D02*
X134933152Y-111159161D01*
X134933152Y-111159161D02*
X134933152Y-111302018D01*
X134933152Y-111302018D02*
X134980771Y-111397256D01*
X134933152Y-111730590D02*
X134933152Y-112111542D01*
X134599819Y-111873447D02*
X135456961Y-111873447D01*
X135456961Y-111873447D02*
X135552200Y-111921066D01*
X135552200Y-111921066D02*
X135599819Y-112016304D01*
X135599819Y-112016304D02*
X135599819Y-112111542D01*
X135552200Y-112825828D02*
X135599819Y-112730590D01*
X135599819Y-112730590D02*
X135599819Y-112540114D01*
X135599819Y-112540114D02*
X135552200Y-112444876D01*
X135552200Y-112444876D02*
X135456961Y-112397257D01*
X135456961Y-112397257D02*
X135076009Y-112397257D01*
X135076009Y-112397257D02*
X134980771Y-112444876D01*
X134980771Y-112444876D02*
X134933152Y-112540114D01*
X134933152Y-112540114D02*
X134933152Y-112730590D01*
X134933152Y-112730590D02*
X134980771Y-112825828D01*
X134980771Y-112825828D02*
X135076009Y-112873447D01*
X135076009Y-112873447D02*
X135171247Y-112873447D01*
X135171247Y-112873447D02*
X135266485Y-112397257D01*
X135599819Y-113302019D02*
X134933152Y-113302019D01*
X135123628Y-113302019D02*
X135028390Y-113349638D01*
X135028390Y-113349638D02*
X134980771Y-113397257D01*
X134980771Y-113397257D02*
X134933152Y-113492495D01*
X134933152Y-113492495D02*
X134933152Y-113587733D01*
X135552200Y-113873448D02*
X135599819Y-113968686D01*
X135599819Y-113968686D02*
X135599819Y-114159162D01*
X135599819Y-114159162D02*
X135552200Y-114254400D01*
X135552200Y-114254400D02*
X135456961Y-114302019D01*
X135456961Y-114302019D02*
X135409342Y-114302019D01*
X135409342Y-114302019D02*
X135314104Y-114254400D01*
X135314104Y-114254400D02*
X135266485Y-114159162D01*
X135266485Y-114159162D02*
X135266485Y-114016305D01*
X135266485Y-114016305D02*
X135218866Y-113921067D01*
X135218866Y-113921067D02*
X135123628Y-113873448D01*
X135123628Y-113873448D02*
X135076009Y-113873448D01*
X135076009Y-113873448D02*
X134980771Y-113921067D01*
X134980771Y-113921067D02*
X134933152Y-114016305D01*
X134933152Y-114016305D02*
X134933152Y-114159162D01*
X134933152Y-114159162D02*
X134980771Y-114254400D01*
X177369411Y-92677438D02*
X177464649Y-92629819D01*
X177464649Y-92629819D02*
X177607506Y-92629819D01*
X177607506Y-92629819D02*
X177750363Y-92677438D01*
X177750363Y-92677438D02*
X177845601Y-92772676D01*
X177845601Y-92772676D02*
X177893220Y-92867914D01*
X177893220Y-92867914D02*
X177940839Y-93058390D01*
X177940839Y-93058390D02*
X177940839Y-93201247D01*
X177940839Y-93201247D02*
X177893220Y-93391723D01*
X177893220Y-93391723D02*
X177845601Y-93486961D01*
X177845601Y-93486961D02*
X177750363Y-93582200D01*
X177750363Y-93582200D02*
X177607506Y-93629819D01*
X177607506Y-93629819D02*
X177512268Y-93629819D01*
X177512268Y-93629819D02*
X177369411Y-93582200D01*
X177369411Y-93582200D02*
X177321792Y-93534580D01*
X177321792Y-93534580D02*
X177321792Y-93201247D01*
X177321792Y-93201247D02*
X177512268Y-93201247D01*
X176893220Y-93629819D02*
X176893220Y-92629819D01*
X176893220Y-93106009D02*
X176321792Y-93106009D01*
X176321792Y-93629819D02*
X176321792Y-92629819D01*
X175655125Y-92629819D02*
X175464649Y-92629819D01*
X175464649Y-92629819D02*
X175369411Y-92677438D01*
X175369411Y-92677438D02*
X175274173Y-92772676D01*
X175274173Y-92772676D02*
X175226554Y-92963152D01*
X175226554Y-92963152D02*
X175226554Y-93296485D01*
X175226554Y-93296485D02*
X175274173Y-93486961D01*
X175274173Y-93486961D02*
X175369411Y-93582200D01*
X175369411Y-93582200D02*
X175464649Y-93629819D01*
X175464649Y-93629819D02*
X175655125Y-93629819D01*
X175655125Y-93629819D02*
X175750363Y-93582200D01*
X175750363Y-93582200D02*
X175845601Y-93486961D01*
X175845601Y-93486961D02*
X175893220Y-93296485D01*
X175893220Y-93296485D02*
X175893220Y-92963152D01*
X175893220Y-92963152D02*
X175845601Y-92772676D01*
X175845601Y-92772676D02*
X175750363Y-92677438D01*
X175750363Y-92677438D02*
X175655125Y-92629819D01*
X174797982Y-92629819D02*
X174797982Y-93439342D01*
X174797982Y-93439342D02*
X174750363Y-93534580D01*
X174750363Y-93534580D02*
X174702744Y-93582200D01*
X174702744Y-93582200D02*
X174607506Y-93629819D01*
X174607506Y-93629819D02*
X174417030Y-93629819D01*
X174417030Y-93629819D02*
X174321792Y-93582200D01*
X174321792Y-93582200D02*
X174274173Y-93534580D01*
X174274173Y-93534580D02*
X174226554Y-93439342D01*
X174226554Y-93439342D02*
X174226554Y-92629819D01*
X173274173Y-93629819D02*
X173750363Y-93629819D01*
X173750363Y-93629819D02*
X173750363Y-92629819D01*
X177702744Y-94239819D02*
X177607506Y-94239819D01*
X177607506Y-94239819D02*
X177512268Y-94287438D01*
X177512268Y-94287438D02*
X177464649Y-94335057D01*
X177464649Y-94335057D02*
X177417030Y-94430295D01*
X177417030Y-94430295D02*
X177369411Y-94620771D01*
X177369411Y-94620771D02*
X177369411Y-94858866D01*
X177369411Y-94858866D02*
X177417030Y-95049342D01*
X177417030Y-95049342D02*
X177464649Y-95144580D01*
X177464649Y-95144580D02*
X177512268Y-95192200D01*
X177512268Y-95192200D02*
X177607506Y-95239819D01*
X177607506Y-95239819D02*
X177702744Y-95239819D01*
X177702744Y-95239819D02*
X177797982Y-95192200D01*
X177797982Y-95192200D02*
X177845601Y-95144580D01*
X177845601Y-95144580D02*
X177893220Y-95049342D01*
X177893220Y-95049342D02*
X177940839Y-94858866D01*
X177940839Y-94858866D02*
X177940839Y-94620771D01*
X177940839Y-94620771D02*
X177893220Y-94430295D01*
X177893220Y-94430295D02*
X177845601Y-94335057D01*
X177845601Y-94335057D02*
X177797982Y-94287438D01*
X177797982Y-94287438D02*
X177702744Y-94239819D01*
X176988458Y-94335057D02*
X176940839Y-94287438D01*
X176940839Y-94287438D02*
X176845601Y-94239819D01*
X176845601Y-94239819D02*
X176607506Y-94239819D01*
X176607506Y-94239819D02*
X176512268Y-94287438D01*
X176512268Y-94287438D02*
X176464649Y-94335057D01*
X176464649Y-94335057D02*
X176417030Y-94430295D01*
X176417030Y-94430295D02*
X176417030Y-94525533D01*
X176417030Y-94525533D02*
X176464649Y-94668390D01*
X176464649Y-94668390D02*
X177036077Y-95239819D01*
X177036077Y-95239819D02*
X176417030Y-95239819D01*
X175274173Y-94192200D02*
X176131315Y-95477914D01*
X174988458Y-94335057D02*
X174940839Y-94287438D01*
X174940839Y-94287438D02*
X174845601Y-94239819D01*
X174845601Y-94239819D02*
X174607506Y-94239819D01*
X174607506Y-94239819D02*
X174512268Y-94287438D01*
X174512268Y-94287438D02*
X174464649Y-94335057D01*
X174464649Y-94335057D02*
X174417030Y-94430295D01*
X174417030Y-94430295D02*
X174417030Y-94525533D01*
X174417030Y-94525533D02*
X174464649Y-94668390D01*
X174464649Y-94668390D02*
X175036077Y-95239819D01*
X175036077Y-95239819D02*
X174417030Y-95239819D01*
X173797982Y-94239819D02*
X173702744Y-94239819D01*
X173702744Y-94239819D02*
X173607506Y-94287438D01*
X173607506Y-94287438D02*
X173559887Y-94335057D01*
X173559887Y-94335057D02*
X173512268Y-94430295D01*
X173512268Y-94430295D02*
X173464649Y-94620771D01*
X173464649Y-94620771D02*
X173464649Y-94858866D01*
X173464649Y-94858866D02*
X173512268Y-95049342D01*
X173512268Y-95049342D02*
X173559887Y-95144580D01*
X173559887Y-95144580D02*
X173607506Y-95192200D01*
X173607506Y-95192200D02*
X173702744Y-95239819D01*
X173702744Y-95239819D02*
X173797982Y-95239819D01*
X173797982Y-95239819D02*
X173893220Y-95192200D01*
X173893220Y-95192200D02*
X173940839Y-95144580D01*
X173940839Y-95144580D02*
X173988458Y-95049342D01*
X173988458Y-95049342D02*
X174036077Y-94858866D01*
X174036077Y-94858866D02*
X174036077Y-94620771D01*
X174036077Y-94620771D02*
X173988458Y-94430295D01*
X173988458Y-94430295D02*
X173940839Y-94335057D01*
X173940839Y-94335057D02*
X173893220Y-94287438D01*
X173893220Y-94287438D02*
X173797982Y-94239819D01*
X173083696Y-94335057D02*
X173036077Y-94287438D01*
X173036077Y-94287438D02*
X172940839Y-94239819D01*
X172940839Y-94239819D02*
X172702744Y-94239819D01*
X172702744Y-94239819D02*
X172607506Y-94287438D01*
X172607506Y-94287438D02*
X172559887Y-94335057D01*
X172559887Y-94335057D02*
X172512268Y-94430295D01*
X172512268Y-94430295D02*
X172512268Y-94525533D01*
X172512268Y-94525533D02*
X172559887Y-94668390D01*
X172559887Y-94668390D02*
X173131315Y-95239819D01*
X173131315Y-95239819D02*
X172512268Y-95239819D01*
X171655125Y-94573152D02*
X171655125Y-95239819D01*
X171893220Y-94192200D02*
X172131315Y-94906485D01*
X172131315Y-94906485D02*
X171512268Y-94906485D01*
X148714104Y-131059160D02*
X148714104Y-131535350D01*
X148999819Y-130963922D02*
X147999819Y-131297255D01*
X147999819Y-131297255D02*
X148999819Y-131630588D01*
X148999819Y-131963922D02*
X147999819Y-131963922D01*
X148618866Y-132059160D02*
X148999819Y-132344874D01*
X148333152Y-132344874D02*
X148714104Y-131963922D01*
X148952200Y-133154398D02*
X148999819Y-133059160D01*
X148999819Y-133059160D02*
X148999819Y-132868684D01*
X148999819Y-132868684D02*
X148952200Y-132773446D01*
X148952200Y-132773446D02*
X148856961Y-132725827D01*
X148856961Y-132725827D02*
X148476009Y-132725827D01*
X148476009Y-132725827D02*
X148380771Y-132773446D01*
X148380771Y-132773446D02*
X148333152Y-132868684D01*
X148333152Y-132868684D02*
X148333152Y-133059160D01*
X148333152Y-133059160D02*
X148380771Y-133154398D01*
X148380771Y-133154398D02*
X148476009Y-133202017D01*
X148476009Y-133202017D02*
X148571247Y-133202017D01*
X148571247Y-133202017D02*
X148666485Y-132725827D01*
X148999819Y-133630589D02*
X148333152Y-133630589D01*
X148428390Y-133630589D02*
X148380771Y-133678208D01*
X148380771Y-133678208D02*
X148333152Y-133773446D01*
X148333152Y-133773446D02*
X148333152Y-133916303D01*
X148333152Y-133916303D02*
X148380771Y-134011541D01*
X148380771Y-134011541D02*
X148476009Y-134059160D01*
X148476009Y-134059160D02*
X148999819Y-134059160D01*
X148476009Y-134059160D02*
X148380771Y-134106779D01*
X148380771Y-134106779D02*
X148333152Y-134202017D01*
X148333152Y-134202017D02*
X148333152Y-134344874D01*
X148333152Y-134344874D02*
X148380771Y-134440113D01*
X148380771Y-134440113D02*
X148476009Y-134487732D01*
X148476009Y-134487732D02*
X148999819Y-134487732D01*
X148999819Y-134963922D02*
X148333152Y-134963922D01*
X147999819Y-134963922D02*
X148047438Y-134916303D01*
X148047438Y-134916303D02*
X148095057Y-134963922D01*
X148095057Y-134963922D02*
X148047438Y-135011541D01*
X148047438Y-135011541D02*
X147999819Y-134963922D01*
X147999819Y-134963922D02*
X148095057Y-134963922D01*
X148999819Y-137011541D02*
X148999819Y-136963922D01*
X148999819Y-136963922D02*
X148952200Y-136868683D01*
X148952200Y-136868683D02*
X148809342Y-136725826D01*
X148809342Y-136725826D02*
X148523628Y-136487731D01*
X148523628Y-136487731D02*
X148380771Y-136392493D01*
X148380771Y-136392493D02*
X148237914Y-136344874D01*
X148237914Y-136344874D02*
X148142676Y-136344874D01*
X148142676Y-136344874D02*
X148047438Y-136392493D01*
X148047438Y-136392493D02*
X147999819Y-136487731D01*
X147999819Y-136487731D02*
X147999819Y-136535350D01*
X147999819Y-136535350D02*
X148047438Y-136630588D01*
X148047438Y-136630588D02*
X148142676Y-136678207D01*
X148142676Y-136678207D02*
X148190295Y-136678207D01*
X148190295Y-136678207D02*
X148285533Y-136630588D01*
X148285533Y-136630588D02*
X148333152Y-136582969D01*
X148333152Y-136582969D02*
X148523628Y-136297255D01*
X148523628Y-136297255D02*
X148571247Y-136249636D01*
X148571247Y-136249636D02*
X148666485Y-136202017D01*
X148666485Y-136202017D02*
X148809342Y-136202017D01*
X148809342Y-136202017D02*
X148904580Y-136249636D01*
X148904580Y-136249636D02*
X148952200Y-136297255D01*
X148952200Y-136297255D02*
X148999819Y-136392493D01*
X148999819Y-136392493D02*
X148999819Y-136535350D01*
X148999819Y-136535350D02*
X148952200Y-136630588D01*
X148952200Y-136630588D02*
X148904580Y-136678207D01*
X148904580Y-136678207D02*
X148714104Y-136821064D01*
X148714104Y-136821064D02*
X148571247Y-136868683D01*
X148571247Y-136868683D02*
X148476009Y-136868683D01*
X148952200Y-138154398D02*
X148999819Y-138297255D01*
X148999819Y-138297255D02*
X148999819Y-138535350D01*
X148999819Y-138535350D02*
X148952200Y-138630588D01*
X148952200Y-138630588D02*
X148904580Y-138678207D01*
X148904580Y-138678207D02*
X148809342Y-138725826D01*
X148809342Y-138725826D02*
X148714104Y-138725826D01*
X148714104Y-138725826D02*
X148618866Y-138678207D01*
X148618866Y-138678207D02*
X148571247Y-138630588D01*
X148571247Y-138630588D02*
X148523628Y-138535350D01*
X148523628Y-138535350D02*
X148476009Y-138344874D01*
X148476009Y-138344874D02*
X148428390Y-138249636D01*
X148428390Y-138249636D02*
X148380771Y-138202017D01*
X148380771Y-138202017D02*
X148285533Y-138154398D01*
X148285533Y-138154398D02*
X148190295Y-138154398D01*
X148190295Y-138154398D02*
X148095057Y-138202017D01*
X148095057Y-138202017D02*
X148047438Y-138249636D01*
X148047438Y-138249636D02*
X147999819Y-138344874D01*
X147999819Y-138344874D02*
X147999819Y-138582969D01*
X147999819Y-138582969D02*
X148047438Y-138725826D01*
X148999819Y-139154398D02*
X147999819Y-139154398D01*
X148999819Y-139582969D02*
X148476009Y-139582969D01*
X148476009Y-139582969D02*
X148380771Y-139535350D01*
X148380771Y-139535350D02*
X148333152Y-139440112D01*
X148333152Y-139440112D02*
X148333152Y-139297255D01*
X148333152Y-139297255D02*
X148380771Y-139202017D01*
X148380771Y-139202017D02*
X148428390Y-139154398D01*
X148999819Y-140059160D02*
X148333152Y-140059160D01*
X147999819Y-140059160D02*
X148047438Y-140011541D01*
X148047438Y-140011541D02*
X148095057Y-140059160D01*
X148095057Y-140059160D02*
X148047438Y-140106779D01*
X148047438Y-140106779D02*
X147999819Y-140059160D01*
X147999819Y-140059160D02*
X148095057Y-140059160D01*
X148333152Y-140535350D02*
X149333152Y-140535350D01*
X148380771Y-140535350D02*
X148333152Y-140630588D01*
X148333152Y-140630588D02*
X148333152Y-140821064D01*
X148333152Y-140821064D02*
X148380771Y-140916302D01*
X148380771Y-140916302D02*
X148428390Y-140963921D01*
X148428390Y-140963921D02*
X148523628Y-141011540D01*
X148523628Y-141011540D02*
X148809342Y-141011540D01*
X148809342Y-141011540D02*
X148904580Y-140963921D01*
X148904580Y-140963921D02*
X148952200Y-140916302D01*
X148952200Y-140916302D02*
X148999819Y-140821064D01*
X148999819Y-140821064D02*
X148999819Y-140630588D01*
X148999819Y-140630588D02*
X148952200Y-140535350D01*
X148999819Y-141440112D02*
X148333152Y-141440112D01*
X148428390Y-141440112D02*
X148380771Y-141487731D01*
X148380771Y-141487731D02*
X148333152Y-141582969D01*
X148333152Y-141582969D02*
X148333152Y-141725826D01*
X148333152Y-141725826D02*
X148380771Y-141821064D01*
X148380771Y-141821064D02*
X148476009Y-141868683D01*
X148476009Y-141868683D02*
X148999819Y-141868683D01*
X148476009Y-141868683D02*
X148380771Y-141916302D01*
X148380771Y-141916302D02*
X148333152Y-142011540D01*
X148333152Y-142011540D02*
X148333152Y-142154397D01*
X148333152Y-142154397D02*
X148380771Y-142249636D01*
X148380771Y-142249636D02*
X148476009Y-142297255D01*
X148476009Y-142297255D02*
X148999819Y-142297255D01*
X148999819Y-143202016D02*
X148476009Y-143202016D01*
X148476009Y-143202016D02*
X148380771Y-143154397D01*
X148380771Y-143154397D02*
X148333152Y-143059159D01*
X148333152Y-143059159D02*
X148333152Y-142868683D01*
X148333152Y-142868683D02*
X148380771Y-142773445D01*
X148952200Y-143202016D02*
X148999819Y-143106778D01*
X148999819Y-143106778D02*
X148999819Y-142868683D01*
X148999819Y-142868683D02*
X148952200Y-142773445D01*
X148952200Y-142773445D02*
X148856961Y-142725826D01*
X148856961Y-142725826D02*
X148761723Y-142725826D01*
X148761723Y-142725826D02*
X148666485Y-142773445D01*
X148666485Y-142773445D02*
X148618866Y-142868683D01*
X148618866Y-142868683D02*
X148618866Y-143106778D01*
X148618866Y-143106778D02*
X148571247Y-143202016D01*
X148333152Y-143678207D02*
X148999819Y-143678207D01*
X148428390Y-143678207D02*
X148380771Y-143725826D01*
X148380771Y-143725826D02*
X148333152Y-143821064D01*
X148333152Y-143821064D02*
X148333152Y-143963921D01*
X148333152Y-143963921D02*
X148380771Y-144059159D01*
X148380771Y-144059159D02*
X148476009Y-144106778D01*
X148476009Y-144106778D02*
X148999819Y-144106778D01*
D11*
%TO.C,J2*%
X163454809Y-133653333D02*
X163811952Y-133653333D01*
X163811952Y-133653333D02*
X163883380Y-133629524D01*
X163883380Y-133629524D02*
X163931000Y-133581905D01*
X163931000Y-133581905D02*
X163954809Y-133510476D01*
X163954809Y-133510476D02*
X163954809Y-133462857D01*
X163502428Y-133867619D02*
X163478619Y-133891428D01*
X163478619Y-133891428D02*
X163454809Y-133939047D01*
X163454809Y-133939047D02*
X163454809Y-134058095D01*
X163454809Y-134058095D02*
X163478619Y-134105714D01*
X163478619Y-134105714D02*
X163502428Y-134129523D01*
X163502428Y-134129523D02*
X163550047Y-134153333D01*
X163550047Y-134153333D02*
X163597666Y-134153333D01*
X163597666Y-134153333D02*
X163669095Y-134129523D01*
X163669095Y-134129523D02*
X163954809Y-133843809D01*
X163954809Y-133843809D02*
X163954809Y-134153333D01*
D10*
%TO.C,J5*%
X141284819Y-94786666D02*
X141999104Y-94786666D01*
X141999104Y-94786666D02*
X142141961Y-94739047D01*
X142141961Y-94739047D02*
X142237200Y-94643809D01*
X142237200Y-94643809D02*
X142284819Y-94500952D01*
X142284819Y-94500952D02*
X142284819Y-94405714D01*
X141284819Y-95739047D02*
X141284819Y-95262857D01*
X141284819Y-95262857D02*
X141761009Y-95215238D01*
X141761009Y-95215238D02*
X141713390Y-95262857D01*
X141713390Y-95262857D02*
X141665771Y-95358095D01*
X141665771Y-95358095D02*
X141665771Y-95596190D01*
X141665771Y-95596190D02*
X141713390Y-95691428D01*
X141713390Y-95691428D02*
X141761009Y-95739047D01*
X141761009Y-95739047D02*
X141856247Y-95786666D01*
X141856247Y-95786666D02*
X142094342Y-95786666D01*
X142094342Y-95786666D02*
X142189580Y-95739047D01*
X142189580Y-95739047D02*
X142237200Y-95691428D01*
X142237200Y-95691428D02*
X142284819Y-95596190D01*
X142284819Y-95596190D02*
X142284819Y-95358095D01*
X142284819Y-95358095D02*
X142237200Y-95262857D01*
X142237200Y-95262857D02*
X142189580Y-95215238D01*
D11*
%TO.C,U7*%
X167055190Y-113200952D02*
X166650428Y-113200952D01*
X166650428Y-113200952D02*
X166602809Y-113177142D01*
X166602809Y-113177142D02*
X166579000Y-113153333D01*
X166579000Y-113153333D02*
X166555190Y-113105714D01*
X166555190Y-113105714D02*
X166555190Y-113010476D01*
X166555190Y-113010476D02*
X166579000Y-112962857D01*
X166579000Y-112962857D02*
X166602809Y-112939047D01*
X166602809Y-112939047D02*
X166650428Y-112915238D01*
X166650428Y-112915238D02*
X167055190Y-112915238D01*
X167055190Y-112724761D02*
X167055190Y-112391428D01*
X167055190Y-112391428D02*
X166555190Y-112605713D01*
D12*
%TO.C,SW2*%
X146809101Y-99329500D02*
G75*
G03*
X146809101Y-99329500I-381000J0D01*
G01*
D13*
%TO.C,C22*%
X140830580Y-104900000D02*
X140549420Y-104900000D01*
X140830580Y-103880000D02*
X140549420Y-103880000D01*
%TO.C,C21*%
X140830580Y-106510000D02*
X140549420Y-106510000D01*
X140830580Y-105490000D02*
X140549420Y-105490000D01*
%TO.C,J2*%
X159245000Y-134920000D02*
X159245000Y-135120000D01*
X159245000Y-135120000D02*
X160045000Y-135120000D01*
X159445000Y-132120000D02*
X159245000Y-132320000D01*
X160045000Y-132120000D02*
X159445000Y-132120000D01*
X160045000Y-132120000D02*
X160045000Y-131620000D01*
X161445000Y-132120000D02*
X161445000Y-131620000D01*
X161445000Y-135120000D02*
X162245000Y-135120000D01*
X162245000Y-132120000D02*
X161445000Y-132120000D01*
X162245000Y-132320000D02*
X162245000Y-132120000D01*
X162245000Y-135120000D02*
X162245000Y-134920000D01*
%TO.C,J5*%
X138630000Y-101840000D02*
X141040000Y-101840000D01*
X141040000Y-101840000D02*
X141040000Y-99430000D01*
X135420000Y-101540000D02*
X135420000Y-99040000D01*
X136400000Y-101540000D02*
X135420000Y-101540000D01*
X138210000Y-101540000D02*
X138210000Y-101410000D01*
X140740000Y-101540000D02*
X138210000Y-101540000D01*
X136400000Y-101410000D02*
X136400000Y-101540000D01*
X138210000Y-101410000D02*
X136400000Y-101410000D01*
X133920000Y-99040000D02*
X133920000Y-91200000D01*
X135420000Y-99040000D02*
X133920000Y-99040000D01*
X133920000Y-91200000D02*
X135420000Y-91200000D01*
X135420000Y-91200000D02*
X135420000Y-88700000D01*
X136400000Y-88830000D02*
X138210000Y-88830000D01*
X138210000Y-88830000D02*
X138210000Y-88700000D01*
X135420000Y-88700000D02*
X136400000Y-88700000D01*
X136400000Y-88700000D02*
X136400000Y-88830000D01*
X138210000Y-88700000D02*
X140740000Y-88700000D01*
X140740000Y-88700000D02*
X140740000Y-101540000D01*
%TO.C,U7*%
X164270000Y-129190000D02*
X144270000Y-129190000D01*
X144270000Y-129190000D02*
X144270000Y-100590000D01*
X144270000Y-100590000D02*
X164270000Y-100590000D01*
X164270000Y-100590000D02*
X164270000Y-129190000D01*
%TD*%
%LPC*%
D14*
%TO.C,H4*%
X176630000Y-84470000D03*
%TD*%
D15*
%TO.C,J1*%
X173675000Y-112570000D03*
X173675000Y-106790000D03*
D16*
X173175000Y-114000000D03*
D17*
X177355000Y-114000000D03*
D16*
X173175000Y-105360000D03*
D17*
X177355000Y-105360000D03*
%TD*%
D14*
%TO.C,H3*%
X164630000Y-149470000D03*
%TD*%
%TO.C,H2*%
X136630000Y-149470000D03*
%TD*%
D18*
%TO.C,J10*%
X156980000Y-144770000D03*
D19*
X159520000Y-144770000D03*
X162060000Y-144770000D03*
X164600000Y-144770000D03*
%TD*%
D20*
%TO.C,J7*%
X138130000Y-132230000D03*
D21*
X138130000Y-134770000D03*
%TD*%
D20*
%TO.C,J8*%
X138130000Y-141130000D03*
D21*
X138130000Y-143670000D03*
%TD*%
D20*
%TO.C,J6*%
X138040000Y-106810000D03*
D21*
X138040000Y-109350000D03*
X138040000Y-111890000D03*
%TD*%
D22*
%TO.C,TP1*%
X149440000Y-94540000D03*
%TD*%
D23*
%TO.C,BT1*%
X176765000Y-89090000D03*
X176765000Y-100090000D03*
D24*
X166765000Y-97090000D03*
D25*
X166765000Y-92090000D03*
%TD*%
D14*
%TO.C,H1*%
X136630000Y-84470000D03*
%TD*%
D22*
%TO.C,TP2*%
X160690000Y-97950000D03*
%TD*%
D20*
%TO.C,J9*%
X138130000Y-118380000D03*
D21*
X138130000Y-120920000D03*
X138130000Y-123460000D03*
X138130000Y-126000000D03*
%TD*%
D26*
%TO.C,J3*%
X152830000Y-139300000D03*
D27*
X154100000Y-139300000D03*
X155370000Y-139300000D03*
X156640000Y-139300000D03*
D26*
X157910000Y-139300000D03*
D28*
X153465000Y-140455000D03*
X154735000Y-140455000D03*
X156005000Y-140455000D03*
X157275000Y-140455000D03*
%TD*%
D29*
%TO.C,SW2*%
X144228100Y-96569998D03*
X144228100Y-89770002D03*
%TD*%
D18*
%TO.C,J4*%
X161420000Y-138740000D03*
D19*
X163960000Y-138740000D03*
X166500000Y-138740000D03*
%TD*%
D30*
%TO.C,C22*%
X141465000Y-104390000D03*
X139915000Y-104390000D03*
%TD*%
%TO.C,C21*%
X141465000Y-106000000D03*
X139915000Y-106000000D03*
%TD*%
D31*
%TO.C,J2*%
X160745000Y-132120000D03*
D32*
X159270000Y-133620000D03*
D31*
X160745000Y-135120000D03*
D32*
X162220000Y-133620000D03*
%TD*%
D33*
%TO.C,J5*%
X138080000Y-98930000D03*
D21*
X138080000Y-96390000D03*
X138080000Y-93850000D03*
X138080000Y-91310000D03*
%TD*%
D34*
%TO.C,U7*%
X144770000Y-118035000D03*
D35*
X144770000Y-115490000D03*
X144770000Y-112950000D03*
X144770000Y-110410000D03*
X144770000Y-107870000D03*
X144770000Y-105330000D03*
X144770000Y-102790000D03*
X163770000Y-102790000D03*
X163770000Y-105330000D03*
X163770000Y-107870000D03*
X163770000Y-110410000D03*
X163770000Y-112950000D03*
X163770000Y-115490000D03*
D34*
X163770000Y-118035000D03*
D36*
X162940000Y-128640000D03*
X160400000Y-128640000D03*
X157860000Y-128640000D03*
%TD*%
%LPD*%
M02*
