%TF.GenerationSoftware,KiCad,Pcbnew,7.0.5-0*%
%TF.CreationDate,2024-02-07T21:38:44-05:00*%
%TF.ProjectId,GHOUL-2024-0,47484f55-4c2d-4323-9032-342d302e6b69,rev?*%
%TF.SameCoordinates,Original*%
%TF.FileFunction,Paste,Top*%
%TF.FilePolarity,Positive*%
%FSLAX46Y46*%
G04 Gerber Fmt 4.6, Leading zero omitted, Abs format (unit mm)*
G04 Created by KiCad (PCBNEW 7.0.5-0) date 2024-02-07 21:38:44*
%MOMM*%
%LPD*%
G01*
G04 APERTURE LIST*
G04 Aperture macros list*
%AMRoundRect*
0 Rectangle with rounded corners*
0 $1 Rounding radius*
0 $2 $3 $4 $5 $6 $7 $8 $9 X,Y pos of 4 corners*
0 Add a 4 corners polygon primitive as box body*
4,1,4,$2,$3,$4,$5,$6,$7,$8,$9,$2,$3,0*
0 Add four circle primitives for the rounded corners*
1,1,$1+$1,$2,$3*
1,1,$1+$1,$4,$5*
1,1,$1+$1,$6,$7*
1,1,$1+$1,$8,$9*
0 Add four rect primitives between the rounded corners*
20,1,$1+$1,$2,$3,$4,$5,0*
20,1,$1+$1,$4,$5,$6,$7,0*
20,1,$1+$1,$6,$7,$8,$9,0*
20,1,$1+$1,$8,$9,$2,$3,0*%
G04 Aperture macros list end*
%ADD10C,0.000100*%
%ADD11RoundRect,0.200000X0.275000X-0.200000X0.275000X0.200000X-0.275000X0.200000X-0.275000X-0.200000X0*%
%ADD12R,0.399999X1.050000*%
%ADD13R,0.599999X0.200000*%
%ADD14RoundRect,0.225000X0.225000X0.250000X-0.225000X0.250000X-0.225000X-0.250000X0.225000X-0.250000X0*%
%ADD15RoundRect,0.200000X-0.275000X0.200000X-0.275000X-0.200000X0.275000X-0.200000X0.275000X0.200000X0*%
%ADD16RoundRect,0.200000X0.200000X0.275000X-0.200000X0.275000X-0.200000X-0.275000X0.200000X-0.275000X0*%
%ADD17RoundRect,0.140000X-0.140000X-0.170000X0.140000X-0.170000X0.140000X0.170000X-0.140000X0.170000X0*%
%ADD18RoundRect,0.218750X-0.218750X-0.256250X0.218750X-0.256250X0.218750X0.256250X-0.218750X0.256250X0*%
%ADD19R,1.150000X0.600000*%
%ADD20R,1.150000X0.300000*%
%ADD21O,2.100000X1.000000*%
%ADD22O,1.800000X1.000000*%
%ADD23RoundRect,0.250000X0.250000X0.475000X-0.250000X0.475000X-0.250000X-0.475000X0.250000X-0.475000X0*%
%ADD24RoundRect,0.140000X0.140000X0.170000X-0.140000X0.170000X-0.140000X-0.170000X0.140000X-0.170000X0*%
%ADD25RoundRect,0.225000X-0.225000X-0.250000X0.225000X-0.250000X0.225000X0.250000X-0.225000X0.250000X0*%
%ADD26RoundRect,0.225000X-0.250000X0.225000X-0.250000X-0.225000X0.250000X-0.225000X0.250000X0.225000X0*%
%ADD27RoundRect,0.200000X-0.200000X-0.275000X0.200000X-0.275000X0.200000X0.275000X-0.200000X0.275000X0*%
%ADD28RoundRect,0.250000X0.375000X1.075000X-0.375000X1.075000X-0.375000X-1.075000X0.375000X-1.075000X0*%
%ADD29R,0.900000X0.800000*%
%ADD30RoundRect,0.250000X0.650000X-0.325000X0.650000X0.325000X-0.650000X0.325000X-0.650000X-0.325000X0*%
%ADD31RoundRect,0.140000X-0.021213X0.219203X-0.219203X0.021213X0.021213X-0.219203X0.219203X-0.021213X0*%
%ADD32RoundRect,0.250000X1.075000X-0.375000X1.075000X0.375000X-1.075000X0.375000X-1.075000X-0.375000X0*%
%ADD33RoundRect,0.140000X0.170000X-0.140000X0.170000X0.140000X-0.170000X0.140000X-0.170000X-0.140000X0*%
%ADD34RoundRect,0.150000X-0.512500X-0.150000X0.512500X-0.150000X0.512500X0.150000X-0.512500X0.150000X0*%
%ADD35R,2.259800X1.362800*%
%ADD36R,0.800000X0.800000*%
%ADD37R,1.100000X0.500000*%
%ADD38RoundRect,0.250000X-0.325000X-0.650000X0.325000X-0.650000X0.325000X0.650000X-0.325000X0.650000X0*%
%ADD39RoundRect,0.250000X-0.250000X-0.475000X0.250000X-0.475000X0.250000X0.475000X-0.250000X0.475000X0*%
%ADD40C,0.660400*%
%ADD41R,0.900000X1.000000*%
%ADD42R,0.550000X0.950000*%
%ADD43RoundRect,0.140000X-0.170000X0.140000X-0.170000X-0.140000X0.170000X-0.140000X0.170000X0.140000X0*%
%ADD44C,0.200000*%
%ADD45RoundRect,0.250000X-0.292217X-0.292217X0.292217X-0.292217X0.292217X0.292217X-0.292217X0.292217X0*%
%ADD46RoundRect,0.050000X-0.387500X-0.050000X0.387500X-0.050000X0.387500X0.050000X-0.387500X0.050000X0*%
%ADD47RoundRect,0.050000X-0.050000X-0.387500X0.050000X-0.387500X0.050000X0.387500X-0.050000X0.387500X0*%
%ADD48RoundRect,0.237500X0.237500X-0.250000X0.237500X0.250000X-0.237500X0.250000X-0.237500X-0.250000X0*%
%ADD49R,1.700000X4.100000*%
%ADD50RoundRect,0.250000X-0.300000X-0.300000X0.300000X-0.300000X0.300000X0.300000X-0.300000X0.300000X0*%
%ADD51R,1.000000X1.150000*%
%ADD52R,0.811200X1.406398*%
%ADD53R,0.804800X0.300000*%
%ADD54R,1.397000X1.193800*%
%ADD55RoundRect,0.175000X-0.725000X-0.175000X0.725000X-0.175000X0.725000X0.175000X-0.725000X0.175000X0*%
%ADD56RoundRect,0.200000X-0.700000X-0.200000X0.700000X-0.200000X0.700000X0.200000X-0.700000X0.200000X0*%
%ADD57R,0.299999X0.449999*%
%ADD58R,1.599999X1.000000*%
G04 APERTURE END LIST*
%TO.C,BT2*%
D10*
X172600000Y-121910000D02*
X170200000Y-121910000D01*
X172600000Y-119510000D01*
X172600000Y-121910000D01*
G36*
X172600000Y-121910000D02*
G01*
X170200000Y-121910000D01*
X172600000Y-119510000D01*
X172600000Y-121910000D01*
G37*
%TO.C,U6*%
G36*
X149928100Y-91990000D02*
G01*
X148878100Y-91990000D01*
X148878100Y-90590000D01*
X149928100Y-90590000D01*
X149928100Y-91990000D01*
G37*
%TO.C,U2*%
G36*
X163200563Y-95195940D02*
G01*
X163209755Y-95198729D01*
X163218226Y-95203258D01*
X163225650Y-95209351D01*
X163231744Y-95216775D01*
X163236272Y-95225246D01*
X163239061Y-95234439D01*
X163240004Y-95243999D01*
X163240004Y-96145999D01*
X163239061Y-96155559D01*
X163236272Y-96164752D01*
X163231744Y-96173223D01*
X163225650Y-96180647D01*
X163218226Y-96186740D01*
X163209755Y-96191269D01*
X163200563Y-96194058D01*
X163191002Y-96195001D01*
X162589002Y-96195001D01*
X162579441Y-96194058D01*
X162570249Y-96191269D01*
X162561778Y-96186740D01*
X162554354Y-96180647D01*
X162548260Y-96173223D01*
X162543731Y-96164752D01*
X162540942Y-96155559D01*
X162540003Y-96145999D01*
X162540003Y-95243999D01*
X162540942Y-95234439D01*
X162543731Y-95225246D01*
X162548260Y-95216775D01*
X162554354Y-95209351D01*
X162561778Y-95203258D01*
X162570249Y-95198729D01*
X162579441Y-95195940D01*
X162589002Y-95194997D01*
X163191002Y-95194997D01*
X163200563Y-95195940D01*
G37*
G36*
X164100561Y-95195940D02*
G01*
X164109753Y-95198729D01*
X164118224Y-95203258D01*
X164125648Y-95209351D01*
X164131742Y-95216775D01*
X164136271Y-95225246D01*
X164139060Y-95234439D01*
X164139999Y-95243999D01*
X164139999Y-96145999D01*
X164139060Y-96155559D01*
X164136271Y-96164752D01*
X164131742Y-96173223D01*
X164125648Y-96180647D01*
X164118224Y-96186740D01*
X164109753Y-96191269D01*
X164100561Y-96194058D01*
X164091000Y-96195001D01*
X163489000Y-96195001D01*
X163479439Y-96194058D01*
X163470247Y-96191269D01*
X163461776Y-96186740D01*
X163454352Y-96180647D01*
X163448258Y-96173223D01*
X163443730Y-96164752D01*
X163440941Y-96155559D01*
X163439998Y-96145999D01*
X163439998Y-95243999D01*
X163440941Y-95234439D01*
X163443730Y-95225246D01*
X163448258Y-95216775D01*
X163454352Y-95209351D01*
X163461776Y-95203258D01*
X163470247Y-95198729D01*
X163479439Y-95195940D01*
X163489000Y-95194997D01*
X164091000Y-95194997D01*
X164100561Y-95195940D01*
G37*
%TD*%
D11*
%TO.C,R26*%
X151980000Y-95355000D03*
X151980000Y-93705000D03*
%TD*%
%TO.C,R2*%
X154130000Y-125195000D03*
X154130000Y-123545000D03*
%TD*%
D12*
%TO.C,U4*%
X158925002Y-92115000D03*
X159625001Y-92115000D03*
D13*
X160400000Y-92190001D03*
X160400000Y-91690000D03*
X160400000Y-91190000D03*
X160400000Y-90689999D03*
D12*
X159625001Y-90765000D03*
X158925002Y-90765000D03*
D13*
X158100002Y-90689999D03*
X158100002Y-91190000D03*
X158100002Y-91690000D03*
X158100002Y-92190001D03*
%TD*%
D14*
%TO.C,C29*%
X162945000Y-126380000D03*
X161395000Y-126380000D03*
%TD*%
D15*
%TO.C,R25*%
X177080000Y-120745000D03*
X177080000Y-122395000D03*
%TD*%
D16*
%TO.C,R22*%
X149215000Y-98820000D03*
X147565000Y-98820000D03*
%TD*%
D17*
%TO.C,C13*%
X157750000Y-119770000D03*
X158710000Y-119770000D03*
%TD*%
D18*
%TO.C,D6*%
X149590000Y-134760000D03*
X151165000Y-134760000D03*
%TD*%
D11*
%TO.C,R10*%
X163320000Y-90345000D03*
X163320000Y-88695000D03*
%TD*%
D19*
%TO.C,J1*%
X172600000Y-112880000D03*
X172600000Y-112080000D03*
D20*
X172600000Y-110930000D03*
X172600000Y-109930000D03*
X172600000Y-109430000D03*
X172600000Y-108430000D03*
D19*
X172600000Y-107280000D03*
X172600000Y-106480000D03*
X172600000Y-106480000D03*
X172600000Y-107280000D03*
D20*
X172600000Y-107930000D03*
X172600000Y-108930000D03*
X172600000Y-110430000D03*
X172600000Y-111430000D03*
D19*
X172600000Y-112080000D03*
X172600000Y-112880000D03*
D21*
X173175000Y-114000000D03*
D22*
X177355000Y-114000000D03*
D21*
X173175000Y-105360000D03*
D22*
X177355000Y-105360000D03*
%TD*%
D23*
%TO.C,C25*%
X158210000Y-104610000D03*
X156310000Y-104610000D03*
%TD*%
D18*
%TO.C,D1*%
X149590000Y-131250000D03*
X151165000Y-131250000D03*
%TD*%
D24*
%TO.C,C8*%
X146710000Y-115120000D03*
X145750000Y-115120000D03*
%TD*%
D25*
%TO.C,C28*%
X159795000Y-103830000D03*
X161345000Y-103830000D03*
%TD*%
D26*
%TO.C,C37*%
X173730000Y-120035000D03*
X173730000Y-121585000D03*
%TD*%
D27*
%TO.C,R18*%
X158185000Y-121870000D03*
X159835000Y-121870000D03*
%TD*%
D26*
%TO.C,C23*%
X160460000Y-116965000D03*
X160460000Y-118515000D03*
%TD*%
D15*
%TO.C,R24*%
X175420000Y-120745000D03*
X175420000Y-122395000D03*
%TD*%
D27*
%TO.C,R30*%
X149582500Y-140210000D03*
X151232500Y-140210000D03*
%TD*%
D26*
%TO.C,C35*%
X178770000Y-120765000D03*
X178770000Y-122315000D03*
%TD*%
D28*
%TO.C,L2*%
X162910000Y-106440000D03*
X160110000Y-106440000D03*
%TD*%
D29*
%TO.C,Q6*%
X161830000Y-113870000D03*
X161830000Y-111970000D03*
X159430000Y-112920000D03*
%TD*%
D18*
%TO.C,D5*%
X149630000Y-141760000D03*
X151205000Y-141760000D03*
%TD*%
D27*
%TO.C,R29*%
X149572500Y-143690000D03*
X151222500Y-143690000D03*
%TD*%
D17*
%TO.C,C12*%
X154900000Y-113870000D03*
X155860000Y-113870000D03*
%TD*%
%TO.C,C3*%
X150100000Y-126570000D03*
X151060000Y-126570000D03*
%TD*%
D30*
%TO.C,C27*%
X165340000Y-106705000D03*
X165340000Y-103755000D03*
%TD*%
D31*
%TO.C,C7*%
X145630000Y-119770000D03*
X144951178Y-120448822D03*
%TD*%
D14*
%TO.C,C32*%
X150305000Y-100370000D03*
X148755000Y-100370000D03*
%TD*%
D32*
%TO.C,L1*%
X149810000Y-106460000D03*
X149810000Y-103660000D03*
%TD*%
D33*
%TO.C,C4*%
X151010000Y-112880000D03*
X151010000Y-111920000D03*
%TD*%
D11*
%TO.C,R21*%
X157800000Y-108295000D03*
X157800000Y-106645000D03*
%TD*%
D14*
%TO.C,C10*%
X161505001Y-93934999D03*
X159955001Y-93934999D03*
%TD*%
D11*
%TO.C,R9*%
X163330001Y-93439999D03*
X163330001Y-91789999D03*
%TD*%
D34*
%TO.C,Q1*%
X145550000Y-129830000D03*
X145550000Y-131730000D03*
X147825000Y-130780000D03*
%TD*%
D17*
%TO.C,C15*%
X156360000Y-115700000D03*
X157320000Y-115700000D03*
%TD*%
D35*
%TO.C,AE1*%
X178230000Y-135827299D03*
X178230000Y-142752701D03*
%TD*%
D34*
%TO.C,U3*%
X168182500Y-108660000D03*
X168182500Y-109610000D03*
X168182500Y-110560000D03*
X170457500Y-110560000D03*
X170457500Y-109610000D03*
X170457500Y-108660000D03*
%TD*%
D27*
%TO.C,R23*%
X159765000Y-100680000D03*
X161415000Y-100680000D03*
%TD*%
D36*
%TO.C,U5*%
X145120000Y-109100000D03*
X145120000Y-110100000D03*
X145120000Y-111100000D03*
X145120000Y-112100000D03*
X146120000Y-109100000D03*
X146120000Y-110100000D03*
X146120000Y-111100000D03*
X146120000Y-112100000D03*
D37*
X142720000Y-108695000D03*
X142720000Y-109965000D03*
X142720000Y-111235000D03*
X142720000Y-112505000D03*
X148520000Y-112505000D03*
X148520000Y-111235000D03*
X148520000Y-109965000D03*
X148520000Y-108695000D03*
%TD*%
D38*
%TO.C,C24*%
X152595000Y-106830000D03*
X155545000Y-106830000D03*
%TD*%
D16*
%TO.C,R16*%
X150215699Y-89000000D03*
X148565699Y-89000000D03*
%TD*%
D39*
%TO.C,C26*%
X152395000Y-104540000D03*
X154295000Y-104540000D03*
%TD*%
D40*
%TO.C,U10*%
X152600000Y-102560000D03*
X152600000Y-101290000D03*
X152600000Y-100020000D03*
X152600000Y-98750000D03*
X152600000Y-97480000D03*
X153870000Y-102560000D03*
X153870000Y-101290000D03*
X153870000Y-100020000D03*
X153870000Y-98750000D03*
X153870000Y-97480000D03*
X155140000Y-102560000D03*
X155140000Y-101290000D03*
X155140000Y-100020000D03*
X155140000Y-98750000D03*
X155140000Y-97480000D03*
X156410000Y-102560000D03*
X156410000Y-101290000D03*
X156410000Y-100020000D03*
X156410000Y-98750000D03*
X156410000Y-97480000D03*
X157680000Y-102560000D03*
X157680000Y-101290000D03*
X157680000Y-100020000D03*
X157680000Y-98750000D03*
X157680000Y-97480000D03*
%TD*%
D18*
%TO.C,D3*%
X149607500Y-138280000D03*
X151182500Y-138280000D03*
%TD*%
D27*
%TO.C,R31*%
X149552500Y-133190000D03*
X151202500Y-133190000D03*
%TD*%
D16*
%TO.C,R14*%
X144225000Y-106480000D03*
X142575000Y-106480000D03*
%TD*%
D15*
%TO.C,R7*%
X161710000Y-89535000D03*
X161710000Y-91185000D03*
%TD*%
D41*
%TO.C,B1*%
X155720000Y-123820000D03*
X159820000Y-123820000D03*
X155720000Y-125420000D03*
X159820000Y-125420000D03*
%TD*%
D33*
%TO.C,C14*%
X152040000Y-110980000D03*
X152040000Y-110020000D03*
%TD*%
D16*
%TO.C,R8*%
X160125000Y-89070000D03*
X158475000Y-89070000D03*
%TD*%
D17*
%TO.C,C6*%
X154880000Y-112790000D03*
X155840000Y-112790000D03*
%TD*%
D42*
%TO.C,U9*%
X161575000Y-124775000D03*
X162825000Y-124775000D03*
X164075000Y-124775000D03*
X165325000Y-124775000D03*
X165325000Y-122625000D03*
X164075000Y-122625000D03*
X162825000Y-122625000D03*
X161575000Y-122625000D03*
%TD*%
D24*
%TO.C,C2*%
X146760000Y-122460000D03*
X145800000Y-122460000D03*
%TD*%
D16*
%TO.C,R5*%
X156745000Y-109870000D03*
X155095000Y-109870000D03*
%TD*%
D43*
%TO.C,C19*%
X153370699Y-90310000D03*
X153370699Y-91270000D03*
%TD*%
D27*
%TO.C,R20*%
X151205000Y-108780000D03*
X152855000Y-108780000D03*
%TD*%
D26*
%TO.C,C9*%
X158340000Y-93805000D03*
X158340000Y-95355000D03*
%TD*%
D17*
%TO.C,R1*%
X150250000Y-123620000D03*
X151210000Y-123620000D03*
%TD*%
D34*
%TO.C,Q4*%
X145550000Y-140320000D03*
X145550000Y-142220000D03*
X147825000Y-141270000D03*
%TD*%
D27*
%TO.C,R27*%
X149550000Y-136720000D03*
X151200000Y-136720000D03*
%TD*%
D43*
%TO.C,C18*%
X151080000Y-124640000D03*
X151080000Y-125600000D03*
%TD*%
D44*
%TO.C,U8*%
X157121268Y-118170000D03*
X157121268Y-117370000D03*
X157421268Y-117770000D03*
X157721268Y-118170000D03*
X157721268Y-117370000D03*
X158021268Y-117770000D03*
X158321268Y-118170000D03*
X158321268Y-117370000D03*
%TD*%
D16*
%TO.C,R12*%
X147325000Y-106460000D03*
X145675000Y-106460000D03*
%TD*%
D34*
%TO.C,Q5*%
X145550000Y-133320000D03*
X145550000Y-135220000D03*
X147825000Y-134270000D03*
%TD*%
%TO.C,Q3*%
X145550000Y-143780000D03*
X145550000Y-145680000D03*
X147825000Y-144730000D03*
%TD*%
D11*
%TO.C,R32*%
X142330000Y-116495000D03*
X142330000Y-114845000D03*
%TD*%
D16*
%TO.C,R6*%
X156745000Y-111420000D03*
X155095000Y-111420000D03*
%TD*%
D45*
%TO.C,U1*%
X151032500Y-117952500D03*
X151032500Y-119227500D03*
X152307500Y-117952500D03*
X152307500Y-119227500D03*
D46*
X148232500Y-115990000D03*
X148232500Y-116390000D03*
X148232500Y-116790000D03*
X148232500Y-117190000D03*
X148232500Y-117590000D03*
X148232500Y-117990000D03*
X148232500Y-118390000D03*
X148232500Y-118790000D03*
X148232500Y-119190000D03*
X148232500Y-119590000D03*
X148232500Y-119990000D03*
X148232500Y-120390000D03*
X148232500Y-120790000D03*
X148232500Y-121190000D03*
D47*
X149070000Y-122027500D03*
X149470000Y-122027500D03*
X149870000Y-122027500D03*
X150270000Y-122027500D03*
X150670000Y-122027500D03*
X151070000Y-122027500D03*
X151470000Y-122027500D03*
X151870000Y-122027500D03*
X152270000Y-122027500D03*
X152670000Y-122027500D03*
X153070000Y-122027500D03*
X153470000Y-122027500D03*
X153870000Y-122027500D03*
X154270000Y-122027500D03*
D46*
X155107500Y-121190000D03*
X155107500Y-120790000D03*
X155107500Y-120390000D03*
X155107500Y-119990000D03*
X155107500Y-119590000D03*
X155107500Y-119190000D03*
X155107500Y-118790000D03*
X155107500Y-118390000D03*
X155107500Y-117990000D03*
X155107500Y-117590000D03*
X155107500Y-117190000D03*
X155107500Y-116790000D03*
X155107500Y-116390000D03*
X155107500Y-115990000D03*
D47*
X154270000Y-115152500D03*
X153870000Y-115152500D03*
X153470000Y-115152500D03*
X153070000Y-115152500D03*
X152670000Y-115152500D03*
X152270000Y-115152500D03*
X151870000Y-115152500D03*
X151470000Y-115152500D03*
X151070000Y-115152500D03*
X150670000Y-115152500D03*
X150270000Y-115152500D03*
X149870000Y-115152500D03*
X149470000Y-115152500D03*
X149070000Y-115152500D03*
%TD*%
D48*
%TO.C,R3*%
X170620000Y-114242500D03*
X170620000Y-112417500D03*
%TD*%
D49*
%TO.C,BT2*%
X168050000Y-119860000D03*
%TD*%
D15*
%TO.C,R28*%
X173780000Y-116950000D03*
X173780000Y-118600000D03*
%TD*%
D50*
%TO.C,D2*%
X175680000Y-118730000D03*
X178480000Y-118730000D03*
%TD*%
D34*
%TO.C,Q2*%
X145560000Y-136870000D03*
X145560000Y-138770000D03*
X147835000Y-137820000D03*
%TD*%
D11*
%TO.C,R13*%
X156750000Y-90825000D03*
X156750000Y-89175000D03*
%TD*%
D33*
%TO.C,C5*%
X153760000Y-112780000D03*
X153760000Y-111820000D03*
%TD*%
D18*
%TO.C,D4*%
X149610000Y-145230000D03*
X151185000Y-145230000D03*
%TD*%
D33*
%TO.C,C11*%
X151020000Y-110980000D03*
X151020000Y-110020000D03*
%TD*%
D14*
%TO.C,C30*%
X150415000Y-101920000D03*
X148865000Y-101920000D03*
%TD*%
D25*
%TO.C,C31*%
X159795000Y-102210000D03*
X161345000Y-102210000D03*
%TD*%
D29*
%TO.C,Q7*%
X165930000Y-113870000D03*
X165930000Y-111970000D03*
X163530000Y-112920000D03*
%TD*%
D51*
%TO.C,Y1*%
X148640000Y-125655000D03*
X148640000Y-123905000D03*
X147240000Y-123905000D03*
X147240000Y-125655000D03*
%TD*%
D43*
%TO.C,C20*%
X149900000Y-108790000D03*
X149900000Y-109750000D03*
%TD*%
%TO.C,C1*%
X152130000Y-124640000D03*
X152130000Y-125600000D03*
%TD*%
D27*
%TO.C,R11*%
X149562500Y-129700000D03*
X151212500Y-129700000D03*
%TD*%
D52*
%TO.C,SW1*%
X142899998Y-104207200D03*
X146400002Y-104207200D03*
X144650000Y-100322600D03*
%TD*%
D16*
%TO.C,R15*%
X153375699Y-89000000D03*
X151725699Y-89000000D03*
%TD*%
D26*
%TO.C,C17*%
X154970000Y-90195000D03*
X154970000Y-91745000D03*
%TD*%
D53*
%TO.C,U6*%
X150355501Y-91789999D03*
X150355501Y-91290000D03*
X150355501Y-90790001D03*
%TD*%
D54*
%TO.C,SW2*%
X146428101Y-95710000D03*
X142028102Y-93170000D03*
X146428101Y-90630000D03*
%TD*%
D55*
%TO.C,U11*%
X168830000Y-124480000D03*
D56*
X168830000Y-125580000D03*
X168830000Y-126680000D03*
X168830000Y-127780000D03*
X168830000Y-128880000D03*
X168830000Y-129980000D03*
X168830000Y-131080000D03*
X168830000Y-132180000D03*
D55*
X168830000Y-133280000D03*
X178330000Y-133280000D03*
D56*
X178330000Y-132180000D03*
X178330000Y-131080000D03*
X178330000Y-129980000D03*
X178330000Y-128880000D03*
X178330000Y-127780000D03*
X178330000Y-126680000D03*
X178330000Y-125580000D03*
D55*
X178330000Y-124480000D03*
%TD*%
D48*
%TO.C,R4*%
X170670000Y-106922500D03*
X170670000Y-105097500D03*
%TD*%
D57*
%TO.C,U2*%
X162690000Y-96669998D03*
X163340001Y-96669998D03*
X163990000Y-96669998D03*
X163990000Y-94720000D03*
X163340001Y-94720000D03*
X162690000Y-94720000D03*
D58*
X163340001Y-95694999D03*
%TD*%
D26*
%TO.C,C16*%
X156550000Y-92325000D03*
X156550000Y-93875000D03*
%TD*%
D16*
%TO.C,R19*%
X163635000Y-121090000D03*
X161985000Y-121090000D03*
%TD*%
D15*
%TO.C,R17*%
X151980699Y-90545000D03*
X151980699Y-92195000D03*
%TD*%
M02*
