%TF.GenerationSoftware,KiCad,Pcbnew,7.0.5-0*%
%TF.CreationDate,2024-02-07T21:38:44-05:00*%
%TF.ProjectId,GHOUL-2024-0,47484f55-4c2d-4323-9032-342d302e6b69,rev?*%
%TF.SameCoordinates,Original*%
%TF.FileFunction,Soldermask,Bot*%
%TF.FilePolarity,Negative*%
%FSLAX46Y46*%
G04 Gerber Fmt 4.6, Leading zero omitted, Abs format (unit mm)*
G04 Created by KiCad (PCBNEW 7.0.5-0) date 2024-02-07 21:38:44*
%MOMM*%
%LPD*%
G01*
G04 APERTURE LIST*
G04 Aperture macros list*
%AMRoundRect*
0 Rectangle with rounded corners*
0 $1 Rounding radius*
0 $2 $3 $4 $5 $6 $7 $8 $9 X,Y pos of 4 corners*
0 Add a 4 corners polygon primitive as box body*
4,1,4,$2,$3,$4,$5,$6,$7,$8,$9,$2,$3,0*
0 Add four circle primitives for the rounded corners*
1,1,$1+$1,$2,$3*
1,1,$1+$1,$4,$5*
1,1,$1+$1,$6,$7*
1,1,$1+$1,$8,$9*
0 Add four rect primitives between the rounded corners*
20,1,$1+$1,$2,$3,$4,$5,0*
20,1,$1+$1,$4,$5,$6,$7,0*
20,1,$1+$1,$6,$7,$8,$9,0*
20,1,$1+$1,$8,$9,$2,$3,0*%
G04 Aperture macros list end*
%ADD10C,4.400000*%
%ADD11C,0.650000*%
%ADD12O,2.100000X1.000000*%
%ADD13O,1.800000X1.000000*%
%ADD14R,1.700000X1.700000*%
%ADD15O,1.700000X1.700000*%
%ADD16RoundRect,0.250000X-0.620000X0.620000X-0.620000X-0.620000X0.620000X-0.620000X0.620000X0.620000X0*%
%ADD17C,1.740000*%
%ADD18C,2.000000*%
%ADD19C,1.400000*%
%ADD20R,3.500000X3.500000*%
%ADD21C,3.500000*%
%ADD22C,0.700000*%
%ADD23C,0.500000*%
%ADD24O,0.800000X1.500000*%
%ADD25C,0.889000*%
%ADD26RoundRect,0.225000X0.225000X0.250000X-0.225000X0.250000X-0.225000X-0.250000X0.225000X-0.250000X0*%
%ADD27R,1.000000X1.000000*%
%ADD28R,1.050000X2.200000*%
%ADD29RoundRect,0.250000X0.620000X-0.620000X0.620000X0.620000X-0.620000X0.620000X-0.620000X-0.620000X0*%
%ADD30RoundRect,0.322500X-1.177500X-0.322500X1.177500X-0.322500X1.177500X0.322500X-1.177500X0.322500X0*%
%ADD31RoundRect,0.325000X-1.175000X-0.325000X1.175000X-0.325000X1.175000X0.325000X-1.175000X0.325000X0*%
%ADD32RoundRect,0.325000X-0.325000X1.425000X-0.325000X-1.425000X0.325000X-1.425000X0.325000X1.425000X0*%
G04 APERTURE END LIST*
D10*
%TO.C,H4*%
X176630000Y-84470000D03*
%TD*%
D11*
%TO.C,J1*%
X173675000Y-112570000D03*
X173675000Y-106790000D03*
D12*
X173175000Y-114000000D03*
D13*
X177355000Y-114000000D03*
D12*
X173175000Y-105360000D03*
D13*
X177355000Y-105360000D03*
%TD*%
D10*
%TO.C,H3*%
X164630000Y-149470000D03*
%TD*%
%TO.C,H2*%
X136630000Y-149470000D03*
%TD*%
D14*
%TO.C,J10*%
X156980000Y-144770000D03*
D15*
X159520000Y-144770000D03*
X162060000Y-144770000D03*
X164600000Y-144770000D03*
%TD*%
D16*
%TO.C,J7*%
X138130000Y-132230000D03*
D17*
X138130000Y-134770000D03*
%TD*%
D16*
%TO.C,J8*%
X138130000Y-141130000D03*
D17*
X138130000Y-143670000D03*
%TD*%
D16*
%TO.C,J6*%
X138040000Y-106810000D03*
D17*
X138040000Y-109350000D03*
X138040000Y-111890000D03*
%TD*%
D18*
%TO.C,TP1*%
X149440000Y-94540000D03*
%TD*%
D19*
%TO.C,BT1*%
X176765000Y-89090000D03*
X176765000Y-100090000D03*
D20*
X166765000Y-97090000D03*
D21*
X166765000Y-92090000D03*
%TD*%
D10*
%TO.C,H1*%
X136630000Y-84470000D03*
%TD*%
D18*
%TO.C,TP2*%
X160690000Y-97950000D03*
%TD*%
D16*
%TO.C,J9*%
X138130000Y-118380000D03*
D17*
X138130000Y-120920000D03*
X138130000Y-123460000D03*
X138130000Y-126000000D03*
%TD*%
D22*
%TO.C,J3*%
X152830000Y-139300000D03*
D23*
X154100000Y-139300000D03*
X155370000Y-139300000D03*
X156640000Y-139300000D03*
D22*
X157910000Y-139300000D03*
D24*
X153465000Y-140455000D03*
X154735000Y-140455000D03*
X156005000Y-140455000D03*
X157275000Y-140455000D03*
%TD*%
D25*
%TO.C,SW2*%
X144228100Y-96569998D03*
X144228100Y-89770002D03*
%TD*%
D14*
%TO.C,J4*%
X161420000Y-138740000D03*
D15*
X163960000Y-138740000D03*
X166500000Y-138740000D03*
%TD*%
D26*
%TO.C,C22*%
X141465000Y-104390000D03*
X139915000Y-104390000D03*
%TD*%
%TO.C,C21*%
X141465000Y-106000000D03*
X139915000Y-106000000D03*
%TD*%
D27*
%TO.C,J2*%
X160745000Y-132120000D03*
D28*
X159270000Y-133620000D03*
D27*
X160745000Y-135120000D03*
D28*
X162220000Y-133620000D03*
%TD*%
D29*
%TO.C,J5*%
X138080000Y-98930000D03*
D17*
X138080000Y-96390000D03*
X138080000Y-93850000D03*
X138080000Y-91310000D03*
%TD*%
D30*
%TO.C,U7*%
X144770000Y-118035000D03*
D31*
X144770000Y-115490000D03*
X144770000Y-112950000D03*
X144770000Y-110410000D03*
X144770000Y-107870000D03*
X144770000Y-105330000D03*
X144770000Y-102790000D03*
X163770000Y-102790000D03*
X163770000Y-105330000D03*
X163770000Y-107870000D03*
X163770000Y-110410000D03*
X163770000Y-112950000D03*
X163770000Y-115490000D03*
D30*
X163770000Y-118035000D03*
D32*
X162940000Y-128640000D03*
X160400000Y-128640000D03*
X157860000Y-128640000D03*
%TD*%
M02*
