G04 #@! TF.GenerationSoftware,KiCad,Pcbnew,8.0.1*
G04 #@! TF.CreationDate,2025-04-08T18:27:35-04:00*
G04 #@! TF.ProjectId,GHOUL_V1.0,47484f55-4c5f-4563-912e-302e6b696361,rev?*
G04 #@! TF.SameCoordinates,Original*
G04 #@! TF.FileFunction,Paste,Top*
G04 #@! TF.FilePolarity,Positive*
%FSLAX46Y46*%
G04 Gerber Fmt 4.6, Leading zero omitted, Abs format (unit mm)*
G04 Created by KiCad (PCBNEW 8.0.1) date 2025-04-08 18:27:35*
%MOMM*%
%LPD*%
G01*
G04 APERTURE LIST*
G04 Aperture macros list*
%AMRoundRect*
0 Rectangle with rounded corners*
0 $1 Rounding radius*
0 $2 $3 $4 $5 $6 $7 $8 $9 X,Y pos of 4 corners*
0 Add a 4 corners polygon primitive as box body*
4,1,4,$2,$3,$4,$5,$6,$7,$8,$9,$2,$3,0*
0 Add four circle primitives for the rounded corners*
1,1,$1+$1,$2,$3*
1,1,$1+$1,$4,$5*
1,1,$1+$1,$6,$7*
1,1,$1+$1,$8,$9*
0 Add four rect primitives between the rounded corners*
20,1,$1+$1,$2,$3,$4,$5,0*
20,1,$1+$1,$4,$5,$6,$7,0*
20,1,$1+$1,$6,$7,$8,$9,0*
20,1,$1+$1,$8,$9,$2,$3,0*%
G04 Aperture macros list end*
%ADD10C,0.000100*%
%ADD11R,3.300000X3.500000*%
%ADD12RoundRect,0.237500X0.237500X-0.250000X0.237500X0.250000X-0.237500X0.250000X-0.237500X-0.250000X0*%
%ADD13RoundRect,0.237500X-0.237500X0.250000X-0.237500X-0.250000X0.237500X-0.250000X0.237500X0.250000X0*%
%ADD14RoundRect,0.182500X-0.182500X-0.182500X0.182500X-0.182500X0.182500X0.182500X-0.182500X0.182500X0*%
%ADD15RoundRect,0.062500X-0.350000X-0.062500X0.350000X-0.062500X0.350000X0.062500X-0.350000X0.062500X0*%
%ADD16RoundRect,0.062500X-0.062500X-0.350000X0.062500X-0.350000X0.062500X0.350000X-0.062500X0.350000X0*%
%ADD17RoundRect,0.250000X-0.850000X-0.350000X0.850000X-0.350000X0.850000X0.350000X-0.850000X0.350000X0*%
%ADD18RoundRect,0.250000X-1.275000X-1.125000X1.275000X-1.125000X1.275000X1.125000X-1.275000X1.125000X0*%
%ADD19RoundRect,0.237500X-0.300000X-0.237500X0.300000X-0.237500X0.300000X0.237500X-0.300000X0.237500X0*%
%ADD20RoundRect,0.200000X-0.275000X0.200000X-0.275000X-0.200000X0.275000X-0.200000X0.275000X0.200000X0*%
%ADD21R,0.550000X0.950000*%
%ADD22RoundRect,0.250000X-0.300000X2.050000X-0.300000X-2.050000X0.300000X-2.050000X0.300000X2.050000X0*%
%ADD23RoundRect,0.250000X-2.375000X2.025000X-2.375000X-2.025000X2.375000X-2.025000X2.375000X2.025000X0*%
%ADD24RoundRect,0.200000X-0.200000X-0.275000X0.200000X-0.275000X0.200000X0.275000X-0.200000X0.275000X0*%
%ADD25RoundRect,0.237500X0.300000X0.237500X-0.300000X0.237500X-0.300000X-0.237500X0.300000X-0.237500X0*%
%ADD26RoundRect,0.250000X0.300000X-2.050000X0.300000X2.050000X-0.300000X2.050000X-0.300000X-2.050000X0*%
%ADD27RoundRect,0.250000X2.375000X-2.025000X2.375000X2.025000X-2.375000X2.025000X-2.375000X-2.025000X0*%
%ADD28R,1.362800X2.259800*%
%ADD29RoundRect,0.237500X-0.250000X-0.237500X0.250000X-0.237500X0.250000X0.237500X-0.250000X0.237500X0*%
%ADD30RoundRect,0.237500X0.237500X-0.300000X0.237500X0.300000X-0.237500X0.300000X-0.237500X-0.300000X0*%
%ADD31R,1.700000X4.100000*%
%ADD32RoundRect,0.250000X0.300000X0.300000X-0.300000X0.300000X-0.300000X-0.300000X0.300000X-0.300000X0*%
%ADD33R,1.200000X1.500000*%
%ADD34RoundRect,0.237500X-0.237500X0.300000X-0.237500X-0.300000X0.237500X-0.300000X0.237500X0.300000X0*%
%ADD35RoundRect,0.175000X0.725000X0.175000X-0.725000X0.175000X-0.725000X-0.175000X0.725000X-0.175000X0*%
%ADD36RoundRect,0.200000X0.700000X0.200000X-0.700000X0.200000X-0.700000X-0.200000X0.700000X-0.200000X0*%
G04 APERTURE END LIST*
D10*
X141100000Y-73500000D02*
X141100000Y-71100000D01*
X143500000Y-71100000D01*
X141100000Y-73500000D01*
G36*
X141100000Y-73500000D02*
G01*
X141100000Y-71100000D01*
X143500000Y-71100000D01*
X141100000Y-73500000D01*
G37*
D11*
X133476051Y-129256051D03*
X133476051Y-113456051D03*
D12*
X179800000Y-105612500D03*
X179800000Y-103787500D03*
D13*
X181338949Y-103746449D03*
X181338949Y-105571449D03*
D14*
X182613551Y-73186051D03*
X182613551Y-74026051D03*
X183453551Y-73186051D03*
X183453551Y-74026051D03*
D15*
X181571051Y-72856051D03*
X181571051Y-73356051D03*
X181571051Y-73856051D03*
X181571051Y-74356051D03*
D16*
X182283551Y-75068551D03*
X182783551Y-75068551D03*
X183283551Y-75068551D03*
X183783551Y-75068551D03*
D15*
X184496051Y-74356051D03*
X184496051Y-73856051D03*
X184496051Y-73356051D03*
X184496051Y-72856051D03*
D16*
X183783551Y-72143551D03*
X183283551Y-72143551D03*
X182783551Y-72143551D03*
X182283551Y-72143551D03*
D17*
X198166051Y-90926051D03*
D18*
X202791051Y-91681051D03*
X202791051Y-94731051D03*
X206141051Y-91681051D03*
X206141051Y-94731051D03*
D17*
X198166051Y-95486051D03*
D19*
X183991051Y-76716051D03*
X185716051Y-76716051D03*
D20*
X165900000Y-89375000D03*
X165900000Y-91025000D03*
D21*
X180061051Y-109491051D03*
X181311051Y-109491051D03*
X182561051Y-109491051D03*
X183811051Y-109491051D03*
X183811051Y-107341051D03*
X182561051Y-107341051D03*
X181311051Y-107341051D03*
X180061051Y-107341051D03*
D22*
X199156051Y-119036051D03*
D23*
X199391051Y-125761051D03*
X193841051Y-125761051D03*
X199391051Y-130611051D03*
X193841051Y-130611051D03*
D22*
X194076051Y-119036051D03*
D17*
X178296051Y-123286051D03*
D18*
X182921051Y-124041051D03*
X182921051Y-127091051D03*
X186271051Y-124041051D03*
X186271051Y-127091051D03*
D17*
X178296051Y-127846051D03*
D24*
X198451051Y-87616051D03*
X200101051Y-87616051D03*
D19*
X133237500Y-69600000D03*
X134962500Y-69600000D03*
D25*
X180668551Y-111296051D03*
X178943551Y-111296051D03*
D26*
X193796051Y-111206051D03*
X196336051Y-111206051D03*
D27*
X193561051Y-104481051D03*
X199111051Y-104481051D03*
X193561051Y-99631051D03*
X199111051Y-99631051D03*
D26*
X198876051Y-111206051D03*
D24*
X199175000Y-84900000D03*
X200825000Y-84900000D03*
D28*
X108274598Y-67900000D03*
X115200000Y-67900000D03*
D29*
X133287500Y-73750000D03*
X135112500Y-73750000D03*
D12*
X183546051Y-70598551D03*
X183546051Y-68773551D03*
D30*
X181746051Y-70548551D03*
X181746051Y-68823551D03*
D31*
X145650000Y-73150000D03*
D32*
X141300000Y-67700000D03*
X138500000Y-67700000D03*
D33*
X178346051Y-73136051D03*
X178346051Y-70436051D03*
D13*
X143700000Y-67187500D03*
X143700000Y-69012500D03*
D34*
X187613551Y-73263551D03*
X187613551Y-74988551D03*
D17*
X177796051Y-93256051D03*
D18*
X182421051Y-94011051D03*
X182421051Y-97061051D03*
X185771051Y-94011051D03*
X185771051Y-97061051D03*
D17*
X177796051Y-97816051D03*
D30*
X186053551Y-75016051D03*
X186053551Y-73291051D03*
D35*
X129950000Y-75900000D03*
D36*
X129950000Y-74800000D03*
X129950000Y-73700000D03*
X129950000Y-72600000D03*
X129950000Y-71500000D03*
X129950000Y-70400000D03*
X129950000Y-69300000D03*
X129950000Y-68200000D03*
D35*
X129950000Y-67100000D03*
X120450000Y-67100000D03*
D36*
X120450000Y-68200000D03*
X120450000Y-69300000D03*
X120450000Y-70400000D03*
X120450000Y-71500000D03*
X120450000Y-72600000D03*
X120450000Y-73700000D03*
X120450000Y-74800000D03*
D35*
X120450000Y-75900000D03*
D19*
X133237500Y-68000000D03*
X134962500Y-68000000D03*
D25*
X134962500Y-71200000D03*
X133237500Y-71200000D03*
D29*
X133287500Y-75500000D03*
X135112500Y-75500000D03*
M02*
