G04 #@! TF.GenerationSoftware,KiCad,Pcbnew,8.0.1*
G04 #@! TF.CreationDate,2025-04-08T18:27:36-04:00*
G04 #@! TF.ProjectId,GHOUL_V1.0,47484f55-4c5f-4563-912e-302e6b696361,rev?*
G04 #@! TF.SameCoordinates,Original*
G04 #@! TF.FileFunction,Soldermask,Top*
G04 #@! TF.FilePolarity,Negative*
%FSLAX46Y46*%
G04 Gerber Fmt 4.6, Leading zero omitted, Abs format (unit mm)*
G04 Created by KiCad (PCBNEW 8.0.1) date 2025-04-08 18:27:36*
%MOMM*%
%LPD*%
G01*
G04 APERTURE LIST*
G04 Aperture macros list*
%AMRoundRect*
0 Rectangle with rounded corners*
0 $1 Rounding radius*
0 $2 $3 $4 $5 $6 $7 $8 $9 X,Y pos of 4 corners*
0 Add a 4 corners polygon primitive as box body*
4,1,4,$2,$3,$4,$5,$6,$7,$8,$9,$2,$3,0*
0 Add four circle primitives for the rounded corners*
1,1,$1+$1,$2,$3*
1,1,$1+$1,$4,$5*
1,1,$1+$1,$6,$7*
1,1,$1+$1,$8,$9*
0 Add four rect primitives between the rounded corners*
20,1,$1+$1,$2,$3,$4,$5,0*
20,1,$1+$1,$4,$5,$6,$7,0*
20,1,$1+$1,$6,$7,$8,$9,0*
20,1,$1+$1,$8,$9,$2,$3,0*%
G04 Aperture macros list end*
%ADD10C,0.000100*%
%ADD11R,3.300000X3.500000*%
%ADD12C,10.200000*%
%ADD13RoundRect,0.237500X0.237500X-0.250000X0.237500X0.250000X-0.237500X0.250000X-0.237500X-0.250000X0*%
%ADD14RoundRect,0.237500X-0.237500X0.250000X-0.237500X-0.250000X0.237500X-0.250000X0.237500X0.250000X0*%
%ADD15RoundRect,0.062500X-0.350000X-0.062500X0.350000X-0.062500X0.350000X0.062500X-0.350000X0.062500X0*%
%ADD16RoundRect,0.062500X-0.062500X-0.350000X0.062500X-0.350000X0.062500X0.350000X-0.062500X0.350000X0*%
%ADD17R,1.680000X1.680000*%
%ADD18RoundRect,0.250000X-0.850000X-0.350000X0.850000X-0.350000X0.850000X0.350000X-0.850000X0.350000X0*%
%ADD19RoundRect,0.249997X-2.950003X-2.650003X2.950003X-2.650003X2.950003X2.650003X-2.950003X2.650003X0*%
%ADD20RoundRect,0.237500X-0.300000X-0.237500X0.300000X-0.237500X0.300000X0.237500X-0.300000X0.237500X0*%
%ADD21RoundRect,0.200000X-0.275000X0.200000X-0.275000X-0.200000X0.275000X-0.200000X0.275000X0.200000X0*%
%ADD22R,0.550000X0.950000*%
%ADD23C,7.500000*%
%ADD24RoundRect,0.250000X-0.300000X2.050000X-0.300000X-2.050000X0.300000X-2.050000X0.300000X2.050000X0*%
%ADD25RoundRect,0.250002X-5.149998X4.449998X-5.149998X-4.449998X5.149998X-4.449998X5.149998X4.449998X0*%
%ADD26RoundRect,0.200000X-0.200000X-0.275000X0.200000X-0.275000X0.200000X0.275000X-0.200000X0.275000X0*%
%ADD27RoundRect,0.237500X0.300000X0.237500X-0.300000X0.237500X-0.300000X-0.237500X0.300000X-0.237500X0*%
%ADD28RoundRect,0.250000X0.300000X-2.050000X0.300000X2.050000X-0.300000X2.050000X-0.300000X-2.050000X0*%
%ADD29RoundRect,0.250002X5.149998X-4.449998X5.149998X4.449998X-5.149998X4.449998X-5.149998X-4.449998X0*%
%ADD30R,1.362800X2.259800*%
%ADD31RoundRect,0.237500X-0.250000X-0.237500X0.250000X-0.237500X0.250000X0.237500X-0.250000X0.237500X0*%
%ADD32RoundRect,0.237500X0.237500X-0.300000X0.237500X0.300000X-0.237500X0.300000X-0.237500X-0.300000X0*%
%ADD33RoundRect,0.102000X0.850000X-2.050000X0.850000X2.050000X-0.850000X2.050000X-0.850000X-2.050000X0*%
%ADD34RoundRect,0.250000X0.750000X-0.600000X0.750000X0.600000X-0.750000X0.600000X-0.750000X-0.600000X0*%
%ADD35O,2.000000X1.700000*%
%ADD36RoundRect,0.250000X-0.750000X0.600000X-0.750000X-0.600000X0.750000X-0.600000X0.750000X0.600000X0*%
%ADD37RoundRect,0.250000X0.300000X0.300000X-0.300000X0.300000X-0.300000X-0.300000X0.300000X-0.300000X0*%
%ADD38R,1.200000X1.500000*%
%ADD39RoundRect,0.237500X-0.237500X0.300000X-0.237500X-0.300000X0.237500X-0.300000X0.237500X0.300000X0*%
%ADD40RoundRect,0.175000X0.725000X0.175000X-0.725000X0.175000X-0.725000X-0.175000X0.725000X-0.175000X0*%
%ADD41RoundRect,0.200000X0.700000X0.200000X-0.700000X0.200000X-0.700000X-0.200000X0.700000X-0.200000X0*%
%ADD42RoundRect,0.250000X-0.725000X0.600000X-0.725000X-0.600000X0.725000X-0.600000X0.725000X0.600000X0*%
%ADD43O,1.950000X1.700000*%
%ADD44C,2.000000*%
%ADD45C,1.524000*%
%ADD46C,1.400000*%
%ADD47R,3.500000X3.500000*%
%ADD48C,3.500000*%
%ADD49R,1.600000X1.600000*%
%ADD50C,1.600000*%
%ADD51R,1.300000X1.300000*%
%ADD52C,1.300000*%
G04 APERTURE END LIST*
D10*
X141000000Y-73800000D02*
X141000000Y-71000000D01*
X143800000Y-71000000D01*
X141000000Y-73800000D01*
G36*
X141000000Y-73800000D02*
G01*
X141000000Y-71000000D01*
X143800000Y-71000000D01*
X141000000Y-73800000D01*
G37*
D11*
X133476051Y-129256051D03*
X133476051Y-113456051D03*
D12*
X133476051Y-121356051D03*
D13*
X179800000Y-105612500D03*
X179800000Y-103787500D03*
D14*
X181338949Y-103746449D03*
X181338949Y-105571449D03*
D15*
X181571051Y-72856051D03*
X181571051Y-73356051D03*
X181571051Y-73856051D03*
X181571051Y-74356051D03*
D16*
X182283551Y-75068551D03*
X182783551Y-75068551D03*
X183283551Y-75068551D03*
X183783551Y-75068551D03*
D15*
X184496051Y-74356051D03*
X184496051Y-73856051D03*
X184496051Y-73356051D03*
X184496051Y-72856051D03*
D16*
X183783551Y-72143551D03*
X183283551Y-72143551D03*
X182783551Y-72143551D03*
X182283551Y-72143551D03*
D17*
X183033551Y-73606051D03*
D18*
X198166051Y-90926051D03*
D19*
X204466051Y-93206051D03*
D18*
X198166051Y-95486051D03*
D20*
X183991051Y-76716051D03*
X185716051Y-76716051D03*
D21*
X165900000Y-89375000D03*
X165900000Y-91025000D03*
D22*
X180061051Y-109491051D03*
X181311051Y-109491051D03*
X182561051Y-109491051D03*
X183811051Y-109491051D03*
X183811051Y-107341051D03*
X182561051Y-107341051D03*
X181311051Y-107341051D03*
X180061051Y-107341051D03*
D23*
X184046051Y-61116051D03*
D24*
X199156051Y-119036051D03*
D25*
X196616051Y-128186051D03*
D24*
X194076051Y-119036051D03*
D18*
X178296051Y-123286051D03*
D19*
X184596051Y-125566051D03*
D18*
X178296051Y-127846051D03*
D23*
X126896051Y-61116051D03*
D26*
X198451051Y-87616051D03*
X200101051Y-87616051D03*
D20*
X133237500Y-69600000D03*
X134962500Y-69600000D03*
D27*
X180668551Y-111296051D03*
X178943551Y-111296051D03*
D28*
X193796051Y-111206051D03*
X196336051Y-111206051D03*
D29*
X196336051Y-102056051D03*
D28*
X198876051Y-111206051D03*
D26*
X199175000Y-84900000D03*
X200825000Y-84900000D03*
D23*
X126896051Y-139856051D03*
D30*
X108274598Y-67900000D03*
X115200000Y-67900000D03*
D23*
X184046051Y-139856051D03*
D31*
X133287500Y-73750000D03*
X135112500Y-73750000D03*
D13*
X183546051Y-70598551D03*
X183546051Y-68773551D03*
D32*
X181746051Y-70548551D03*
X181746051Y-68823551D03*
D33*
X145650000Y-73150000D03*
D34*
X204700000Y-106650000D03*
D35*
X204700000Y-104150000D03*
D36*
X205100000Y-117550000D03*
D35*
X205100000Y-120050000D03*
D37*
X141300000Y-67700000D03*
X138500000Y-67700000D03*
D38*
X178346051Y-73136051D03*
X178346051Y-70436051D03*
D14*
X143700000Y-67187500D03*
X143700000Y-69012500D03*
D39*
X187613551Y-73263551D03*
X187613551Y-74988551D03*
D18*
X177796051Y-93256051D03*
D19*
X184096051Y-95536051D03*
D18*
X177796051Y-97816051D03*
D32*
X186053551Y-75016051D03*
X186053551Y-73291051D03*
D40*
X129950000Y-75900000D03*
D41*
X129950000Y-74800000D03*
X129950000Y-73700000D03*
X129950000Y-72600000D03*
X129950000Y-71500000D03*
X129950000Y-70400000D03*
X129950000Y-69300000D03*
X129950000Y-68200000D03*
D40*
X129950000Y-67100000D03*
X120450000Y-67100000D03*
D41*
X120450000Y-68200000D03*
X120450000Y-69300000D03*
X120450000Y-70400000D03*
X120450000Y-71500000D03*
X120450000Y-72600000D03*
X120450000Y-73700000D03*
X120450000Y-74800000D03*
D40*
X120450000Y-75900000D03*
D42*
X167640000Y-76280000D03*
D43*
X167640000Y-78780000D03*
X167640000Y-81280000D03*
D44*
X187636051Y-68896051D03*
D20*
X133237500Y-68000000D03*
X134962500Y-68000000D03*
D27*
X134962500Y-71200000D03*
X133237500Y-71200000D03*
D31*
X133287500Y-75500000D03*
X135112500Y-75500000D03*
D36*
X193826051Y-90756051D03*
D35*
X193826051Y-93256051D03*
D45*
X170726051Y-116091051D03*
X170726051Y-118631051D03*
X170726051Y-121171051D03*
X170726051Y-123711051D03*
X170726051Y-113551051D03*
X170726051Y-126251051D03*
X168186051Y-126251051D03*
X165646051Y-126251051D03*
X163106051Y-126251051D03*
X160566051Y-126251051D03*
X158026051Y-126251051D03*
X155486051Y-126251051D03*
X152946051Y-126251051D03*
X150406051Y-126251051D03*
X147866051Y-126251051D03*
X145326051Y-126251051D03*
X142786051Y-126251051D03*
X168186051Y-113551051D03*
X165646051Y-113551051D03*
X163106051Y-113551051D03*
X158026051Y-113551051D03*
X160566051Y-113551051D03*
X155486051Y-113551051D03*
X152946051Y-113551051D03*
X150406051Y-113551051D03*
X147866051Y-113551051D03*
X145326051Y-113551051D03*
X142786051Y-113551051D03*
D46*
X203786051Y-79696051D03*
X203786051Y-68696051D03*
D47*
X193786051Y-71696051D03*
D48*
X193786051Y-76696051D03*
D49*
X189556051Y-73526051D03*
D50*
X189556051Y-76066051D03*
X189556051Y-78606051D03*
X189556051Y-81146051D03*
X189556051Y-83686051D03*
X189556051Y-86226051D03*
X189556051Y-88766051D03*
X189556051Y-91306051D03*
X189556051Y-93846051D03*
X189556051Y-96386051D03*
X189556051Y-98926051D03*
X189556051Y-101466051D03*
X189556051Y-104006051D03*
X189556051Y-106546051D03*
X189556051Y-109086051D03*
X189556051Y-111626051D03*
X189556051Y-114166051D03*
X189556051Y-116706051D03*
X189556051Y-119246051D03*
X189556051Y-121786051D03*
X189556051Y-124326051D03*
X189556051Y-126866051D03*
X189556051Y-129406051D03*
X189556051Y-131946051D03*
X174316051Y-131946051D03*
X174316051Y-129406051D03*
X174316051Y-126866051D03*
X174316051Y-124326051D03*
X174316051Y-121786051D03*
X174316051Y-119246051D03*
X174316051Y-116706051D03*
X174316051Y-114166051D03*
X174316051Y-111626051D03*
X174316051Y-109086051D03*
X174316051Y-106546051D03*
X174316051Y-104006051D03*
X174316051Y-101466051D03*
X174316051Y-98926051D03*
X174316051Y-96386051D03*
X174316051Y-93846051D03*
X174316051Y-91306051D03*
X174316051Y-88766051D03*
X174316051Y-86226051D03*
X174316051Y-83686051D03*
X174316051Y-81146051D03*
X174316051Y-78606051D03*
X174316051Y-76066051D03*
X174316051Y-73526051D03*
X176856051Y-76066051D03*
X187016051Y-119246051D03*
X184476051Y-119246051D03*
X181936051Y-119246051D03*
X179396051Y-119246051D03*
X176856051Y-119246051D03*
D49*
X186505251Y-79825251D03*
D50*
X186505251Y-82365251D03*
X186505251Y-84905251D03*
X186505251Y-87445251D03*
X186505251Y-89985251D03*
D51*
X176754451Y-86496051D03*
D52*
X178754451Y-86496051D03*
X180754451Y-86496051D03*
X180754451Y-88496051D03*
X178754451Y-88496051D03*
X176754451Y-88496051D03*
D42*
X169500000Y-90266051D03*
D43*
X169500000Y-92766051D03*
X169500000Y-95266051D03*
M02*
