G04 #@! TF.GenerationSoftware,KiCad,Pcbnew,8.0.1*
G04 #@! TF.CreationDate,2025-04-08T18:27:35-04:00*
G04 #@! TF.ProjectId,GHOUL_V1.0,47484f55-4c5f-4563-912e-302e6b696361,rev?*
G04 #@! TF.SameCoordinates,Original*
G04 #@! TF.FileFunction,Legend,Top*
G04 #@! TF.FilePolarity,Positive*
%FSLAX46Y46*%
G04 Gerber Fmt 4.6, Leading zero omitted, Abs format (unit mm)*
G04 Created by KiCad (PCBNEW 8.0.1) date 2025-04-08 18:27:35*
%MOMM*%
%LPD*%
G01*
G04 APERTURE LIST*
G04 Aperture macros list*
%AMRoundRect*
0 Rectangle with rounded corners*
0 $1 Rounding radius*
0 $2 $3 $4 $5 $6 $7 $8 $9 X,Y pos of 4 corners*
0 Add a 4 corners polygon primitive as box body*
4,1,4,$2,$3,$4,$5,$6,$7,$8,$9,$2,$3,0*
0 Add four circle primitives for the rounded corners*
1,1,$1+$1,$2,$3*
1,1,$1+$1,$4,$5*
1,1,$1+$1,$6,$7*
1,1,$1+$1,$8,$9*
0 Add four rect primitives between the rounded corners*
20,1,$1+$1,$2,$3,$4,$5,0*
20,1,$1+$1,$4,$5,$6,$7,0*
20,1,$1+$1,$6,$7,$8,$9,0*
20,1,$1+$1,$8,$9,$2,$3,0*%
G04 Aperture macros list end*
%ADD10C,0.125000*%
%ADD11C,0.150000*%
%ADD12C,0.120000*%
%ADD13C,0.127000*%
%ADD14C,7.500000*%
%ADD15C,0.000100*%
%ADD16R,3.300000X3.500000*%
%ADD17C,10.200000*%
%ADD18RoundRect,0.237500X0.237500X-0.250000X0.237500X0.250000X-0.237500X0.250000X-0.237500X-0.250000X0*%
%ADD19RoundRect,0.237500X-0.237500X0.250000X-0.237500X-0.250000X0.237500X-0.250000X0.237500X0.250000X0*%
%ADD20RoundRect,0.062500X-0.350000X-0.062500X0.350000X-0.062500X0.350000X0.062500X-0.350000X0.062500X0*%
%ADD21RoundRect,0.062500X-0.062500X-0.350000X0.062500X-0.350000X0.062500X0.350000X-0.062500X0.350000X0*%
%ADD22R,1.680000X1.680000*%
%ADD23RoundRect,0.250000X-0.850000X-0.350000X0.850000X-0.350000X0.850000X0.350000X-0.850000X0.350000X0*%
%ADD24RoundRect,0.249997X-2.950003X-2.650003X2.950003X-2.650003X2.950003X2.650003X-2.950003X2.650003X0*%
%ADD25RoundRect,0.237500X-0.300000X-0.237500X0.300000X-0.237500X0.300000X0.237500X-0.300000X0.237500X0*%
%ADD26RoundRect,0.200000X-0.275000X0.200000X-0.275000X-0.200000X0.275000X-0.200000X0.275000X0.200000X0*%
%ADD27R,0.550000X0.950000*%
%ADD28RoundRect,0.250000X-0.300000X2.050000X-0.300000X-2.050000X0.300000X-2.050000X0.300000X2.050000X0*%
%ADD29RoundRect,0.250002X-5.149998X4.449998X-5.149998X-4.449998X5.149998X-4.449998X5.149998X4.449998X0*%
%ADD30RoundRect,0.200000X-0.200000X-0.275000X0.200000X-0.275000X0.200000X0.275000X-0.200000X0.275000X0*%
%ADD31RoundRect,0.237500X0.300000X0.237500X-0.300000X0.237500X-0.300000X-0.237500X0.300000X-0.237500X0*%
%ADD32RoundRect,0.250000X0.300000X-2.050000X0.300000X2.050000X-0.300000X2.050000X-0.300000X-2.050000X0*%
%ADD33RoundRect,0.250002X5.149998X-4.449998X5.149998X4.449998X-5.149998X4.449998X-5.149998X-4.449998X0*%
%ADD34R,1.362800X2.259800*%
%ADD35RoundRect,0.237500X-0.250000X-0.237500X0.250000X-0.237500X0.250000X0.237500X-0.250000X0.237500X0*%
%ADD36RoundRect,0.237500X0.237500X-0.300000X0.237500X0.300000X-0.237500X0.300000X-0.237500X-0.300000X0*%
%ADD37RoundRect,0.102000X0.850000X-2.050000X0.850000X2.050000X-0.850000X2.050000X-0.850000X-2.050000X0*%
%ADD38RoundRect,0.250000X0.750000X-0.600000X0.750000X0.600000X-0.750000X0.600000X-0.750000X-0.600000X0*%
%ADD39O,2.000000X1.700000*%
%ADD40RoundRect,0.250000X-0.750000X0.600000X-0.750000X-0.600000X0.750000X-0.600000X0.750000X0.600000X0*%
%ADD41RoundRect,0.250000X0.300000X0.300000X-0.300000X0.300000X-0.300000X-0.300000X0.300000X-0.300000X0*%
%ADD42R,1.200000X1.500000*%
%ADD43RoundRect,0.237500X-0.237500X0.300000X-0.237500X-0.300000X0.237500X-0.300000X0.237500X0.300000X0*%
%ADD44RoundRect,0.175000X0.725000X0.175000X-0.725000X0.175000X-0.725000X-0.175000X0.725000X-0.175000X0*%
%ADD45RoundRect,0.200000X0.700000X0.200000X-0.700000X0.200000X-0.700000X-0.200000X0.700000X-0.200000X0*%
%ADD46RoundRect,0.250000X-0.725000X0.600000X-0.725000X-0.600000X0.725000X-0.600000X0.725000X0.600000X0*%
%ADD47O,1.950000X1.700000*%
%ADD48C,2.000000*%
%ADD49C,1.524000*%
%ADD50C,1.400000*%
%ADD51R,3.500000X3.500000*%
%ADD52C,3.500000*%
%ADD53R,1.600000X1.600000*%
%ADD54C,1.600000*%
%ADD55R,1.300000X1.300000*%
%ADD56C,1.300000*%
G04 APERTURE END LIST*
D10*
X125438955Y-121748907D02*
X125462765Y-121677479D01*
X125462765Y-121677479D02*
X125486574Y-121653669D01*
X125486574Y-121653669D02*
X125534193Y-121629860D01*
X125534193Y-121629860D02*
X125605622Y-121629860D01*
X125605622Y-121629860D02*
X125653241Y-121653669D01*
X125653241Y-121653669D02*
X125677051Y-121677479D01*
X125677051Y-121677479D02*
X125700860Y-121725098D01*
X125700860Y-121725098D02*
X125700860Y-121915574D01*
X125700860Y-121915574D02*
X125200860Y-121915574D01*
X125200860Y-121915574D02*
X125200860Y-121748907D01*
X125200860Y-121748907D02*
X125224670Y-121701288D01*
X125224670Y-121701288D02*
X125248479Y-121677479D01*
X125248479Y-121677479D02*
X125296098Y-121653669D01*
X125296098Y-121653669D02*
X125343717Y-121653669D01*
X125343717Y-121653669D02*
X125391336Y-121677479D01*
X125391336Y-121677479D02*
X125415146Y-121701288D01*
X125415146Y-121701288D02*
X125438955Y-121748907D01*
X125438955Y-121748907D02*
X125438955Y-121915574D01*
X125200860Y-121487002D02*
X125200860Y-121201288D01*
X125700860Y-121344145D02*
X125200860Y-121344145D01*
X125700860Y-120772717D02*
X125700860Y-121058431D01*
X125700860Y-120915574D02*
X125200860Y-120915574D01*
X125200860Y-120915574D02*
X125272289Y-120963193D01*
X125272289Y-120963193D02*
X125319908Y-121010812D01*
X125319908Y-121010812D02*
X125343717Y-121058431D01*
X180109809Y-101508333D02*
X179871714Y-101674999D01*
X180109809Y-101794047D02*
X179609809Y-101794047D01*
X179609809Y-101794047D02*
X179609809Y-101603571D01*
X179609809Y-101603571D02*
X179633619Y-101555952D01*
X179633619Y-101555952D02*
X179657428Y-101532142D01*
X179657428Y-101532142D02*
X179705047Y-101508333D01*
X179705047Y-101508333D02*
X179776476Y-101508333D01*
X179776476Y-101508333D02*
X179824095Y-101532142D01*
X179824095Y-101532142D02*
X179847904Y-101555952D01*
X179847904Y-101555952D02*
X179871714Y-101603571D01*
X179871714Y-101603571D02*
X179871714Y-101794047D01*
X179824095Y-101222618D02*
X179800285Y-101270237D01*
X179800285Y-101270237D02*
X179776476Y-101294047D01*
X179776476Y-101294047D02*
X179728857Y-101317856D01*
X179728857Y-101317856D02*
X179705047Y-101317856D01*
X179705047Y-101317856D02*
X179657428Y-101294047D01*
X179657428Y-101294047D02*
X179633619Y-101270237D01*
X179633619Y-101270237D02*
X179609809Y-101222618D01*
X179609809Y-101222618D02*
X179609809Y-101127380D01*
X179609809Y-101127380D02*
X179633619Y-101079761D01*
X179633619Y-101079761D02*
X179657428Y-101055952D01*
X179657428Y-101055952D02*
X179705047Y-101032142D01*
X179705047Y-101032142D02*
X179728857Y-101032142D01*
X179728857Y-101032142D02*
X179776476Y-101055952D01*
X179776476Y-101055952D02*
X179800285Y-101079761D01*
X179800285Y-101079761D02*
X179824095Y-101127380D01*
X179824095Y-101127380D02*
X179824095Y-101222618D01*
X179824095Y-101222618D02*
X179847904Y-101270237D01*
X179847904Y-101270237D02*
X179871714Y-101294047D01*
X179871714Y-101294047D02*
X179919333Y-101317856D01*
X179919333Y-101317856D02*
X180014571Y-101317856D01*
X180014571Y-101317856D02*
X180062190Y-101294047D01*
X180062190Y-101294047D02*
X180086000Y-101270237D01*
X180086000Y-101270237D02*
X180109809Y-101222618D01*
X180109809Y-101222618D02*
X180109809Y-101127380D01*
X180109809Y-101127380D02*
X180086000Y-101079761D01*
X180086000Y-101079761D02*
X180062190Y-101055952D01*
X180062190Y-101055952D02*
X180014571Y-101032142D01*
X180014571Y-101032142D02*
X179919333Y-101032142D01*
X179919333Y-101032142D02*
X179871714Y-101055952D01*
X179871714Y-101055952D02*
X179847904Y-101079761D01*
X179847904Y-101079761D02*
X179824095Y-101127380D01*
X181608758Y-101497282D02*
X181370663Y-101663948D01*
X181608758Y-101782996D02*
X181108758Y-101782996D01*
X181108758Y-101782996D02*
X181108758Y-101592520D01*
X181108758Y-101592520D02*
X181132568Y-101544901D01*
X181132568Y-101544901D02*
X181156377Y-101521091D01*
X181156377Y-101521091D02*
X181203996Y-101497282D01*
X181203996Y-101497282D02*
X181275425Y-101497282D01*
X181275425Y-101497282D02*
X181323044Y-101521091D01*
X181323044Y-101521091D02*
X181346853Y-101544901D01*
X181346853Y-101544901D02*
X181370663Y-101592520D01*
X181370663Y-101592520D02*
X181370663Y-101782996D01*
X181608758Y-101259186D02*
X181608758Y-101163948D01*
X181608758Y-101163948D02*
X181584949Y-101116329D01*
X181584949Y-101116329D02*
X181561139Y-101092520D01*
X181561139Y-101092520D02*
X181489710Y-101044901D01*
X181489710Y-101044901D02*
X181394472Y-101021091D01*
X181394472Y-101021091D02*
X181203996Y-101021091D01*
X181203996Y-101021091D02*
X181156377Y-101044901D01*
X181156377Y-101044901D02*
X181132568Y-101068710D01*
X181132568Y-101068710D02*
X181108758Y-101116329D01*
X181108758Y-101116329D02*
X181108758Y-101211567D01*
X181108758Y-101211567D02*
X181132568Y-101259186D01*
X181132568Y-101259186D02*
X181156377Y-101282996D01*
X181156377Y-101282996D02*
X181203996Y-101306805D01*
X181203996Y-101306805D02*
X181323044Y-101306805D01*
X181323044Y-101306805D02*
X181370663Y-101282996D01*
X181370663Y-101282996D02*
X181394472Y-101259186D01*
X181394472Y-101259186D02*
X181418282Y-101211567D01*
X181418282Y-101211567D02*
X181418282Y-101116329D01*
X181418282Y-101116329D02*
X181394472Y-101068710D01*
X181394472Y-101068710D02*
X181370663Y-101044901D01*
X181370663Y-101044901D02*
X181323044Y-101021091D01*
X178815098Y-75270860D02*
X178815098Y-75675622D01*
X178815098Y-75675622D02*
X178838908Y-75723241D01*
X178838908Y-75723241D02*
X178862717Y-75747051D01*
X178862717Y-75747051D02*
X178910336Y-75770860D01*
X178910336Y-75770860D02*
X179005574Y-75770860D01*
X179005574Y-75770860D02*
X179053193Y-75747051D01*
X179053193Y-75747051D02*
X179077003Y-75723241D01*
X179077003Y-75723241D02*
X179100812Y-75675622D01*
X179100812Y-75675622D02*
X179100812Y-75270860D01*
X179553194Y-75437527D02*
X179553194Y-75770860D01*
X179434146Y-75247051D02*
X179315099Y-75604193D01*
X179315099Y-75604193D02*
X179624622Y-75604193D01*
X203764286Y-97624809D02*
X203764286Y-97124809D01*
X203764286Y-97124809D02*
X203930953Y-97481952D01*
X203930953Y-97481952D02*
X204097619Y-97124809D01*
X204097619Y-97124809D02*
X204097619Y-97624809D01*
X204430953Y-97124809D02*
X204526191Y-97124809D01*
X204526191Y-97124809D02*
X204573810Y-97148619D01*
X204573810Y-97148619D02*
X204621429Y-97196238D01*
X204621429Y-97196238D02*
X204645239Y-97291476D01*
X204645239Y-97291476D02*
X204645239Y-97458142D01*
X204645239Y-97458142D02*
X204621429Y-97553380D01*
X204621429Y-97553380D02*
X204573810Y-97601000D01*
X204573810Y-97601000D02*
X204526191Y-97624809D01*
X204526191Y-97624809D02*
X204430953Y-97624809D01*
X204430953Y-97624809D02*
X204383334Y-97601000D01*
X204383334Y-97601000D02*
X204335715Y-97553380D01*
X204335715Y-97553380D02*
X204311906Y-97458142D01*
X204311906Y-97458142D02*
X204311906Y-97291476D01*
X204311906Y-97291476D02*
X204335715Y-97196238D01*
X204335715Y-97196238D02*
X204383334Y-97148619D01*
X204383334Y-97148619D02*
X204430953Y-97124809D01*
X204835716Y-97601000D02*
X204907144Y-97624809D01*
X204907144Y-97624809D02*
X205026192Y-97624809D01*
X205026192Y-97624809D02*
X205073811Y-97601000D01*
X205073811Y-97601000D02*
X205097620Y-97577190D01*
X205097620Y-97577190D02*
X205121430Y-97529571D01*
X205121430Y-97529571D02*
X205121430Y-97481952D01*
X205121430Y-97481952D02*
X205097620Y-97434333D01*
X205097620Y-97434333D02*
X205073811Y-97410523D01*
X205073811Y-97410523D02*
X205026192Y-97386714D01*
X205026192Y-97386714D02*
X204930954Y-97362904D01*
X204930954Y-97362904D02*
X204883335Y-97339095D01*
X204883335Y-97339095D02*
X204859525Y-97315285D01*
X204859525Y-97315285D02*
X204835716Y-97267666D01*
X204835716Y-97267666D02*
X204835716Y-97220047D01*
X204835716Y-97220047D02*
X204859525Y-97172428D01*
X204859525Y-97172428D02*
X204883335Y-97148619D01*
X204883335Y-97148619D02*
X204930954Y-97124809D01*
X204930954Y-97124809D02*
X205050001Y-97124809D01*
X205050001Y-97124809D02*
X205121430Y-97148619D01*
X205502382Y-97362904D02*
X205335715Y-97362904D01*
X205335715Y-97624809D02*
X205335715Y-97124809D01*
X205335715Y-97124809D02*
X205573810Y-97124809D01*
X205764286Y-97362904D02*
X205930953Y-97362904D01*
X206002381Y-97624809D02*
X205764286Y-97624809D01*
X205764286Y-97624809D02*
X205764286Y-97124809D01*
X205764286Y-97124809D02*
X206002381Y-97124809D01*
X206145239Y-97124809D02*
X206430953Y-97124809D01*
X206288096Y-97624809D02*
X206288096Y-97124809D01*
X206859524Y-97624809D02*
X206573810Y-97624809D01*
X206716667Y-97624809D02*
X206716667Y-97124809D01*
X206716667Y-97124809D02*
X206669048Y-97196238D01*
X206669048Y-97196238D02*
X206621429Y-97243857D01*
X206621429Y-97243857D02*
X206573810Y-97267666D01*
X181837717Y-76955741D02*
X181813908Y-76979551D01*
X181813908Y-76979551D02*
X181742479Y-77003360D01*
X181742479Y-77003360D02*
X181694860Y-77003360D01*
X181694860Y-77003360D02*
X181623432Y-76979551D01*
X181623432Y-76979551D02*
X181575813Y-76931931D01*
X181575813Y-76931931D02*
X181552003Y-76884312D01*
X181552003Y-76884312D02*
X181528194Y-76789074D01*
X181528194Y-76789074D02*
X181528194Y-76717646D01*
X181528194Y-76717646D02*
X181552003Y-76622408D01*
X181552003Y-76622408D02*
X181575813Y-76574789D01*
X181575813Y-76574789D02*
X181623432Y-76527170D01*
X181623432Y-76527170D02*
X181694860Y-76503360D01*
X181694860Y-76503360D02*
X181742479Y-76503360D01*
X181742479Y-76503360D02*
X181813908Y-76527170D01*
X181813908Y-76527170D02*
X181837717Y-76550979D01*
X182028194Y-76550979D02*
X182052003Y-76527170D01*
X182052003Y-76527170D02*
X182099622Y-76503360D01*
X182099622Y-76503360D02*
X182218670Y-76503360D01*
X182218670Y-76503360D02*
X182266289Y-76527170D01*
X182266289Y-76527170D02*
X182290098Y-76550979D01*
X182290098Y-76550979D02*
X182313908Y-76598598D01*
X182313908Y-76598598D02*
X182313908Y-76646217D01*
X182313908Y-76646217D02*
X182290098Y-76717646D01*
X182290098Y-76717646D02*
X182004384Y-77003360D01*
X182004384Y-77003360D02*
X182313908Y-77003360D01*
D11*
X167784819Y-90366666D02*
X167308628Y-90699999D01*
X167784819Y-90938094D02*
X166784819Y-90938094D01*
X166784819Y-90938094D02*
X166784819Y-90557142D01*
X166784819Y-90557142D02*
X166832438Y-90461904D01*
X166832438Y-90461904D02*
X166880057Y-90414285D01*
X166880057Y-90414285D02*
X166975295Y-90366666D01*
X166975295Y-90366666D02*
X167118152Y-90366666D01*
X167118152Y-90366666D02*
X167213390Y-90414285D01*
X167213390Y-90414285D02*
X167261009Y-90461904D01*
X167261009Y-90461904D02*
X167308628Y-90557142D01*
X167308628Y-90557142D02*
X167308628Y-90938094D01*
X167118152Y-89509523D02*
X167784819Y-89509523D01*
X166737200Y-89747618D02*
X167451485Y-89985713D01*
X167451485Y-89985713D02*
X167451485Y-89366666D01*
D10*
X183450860Y-103207003D02*
X183855622Y-103207003D01*
X183855622Y-103207003D02*
X183903241Y-103183193D01*
X183903241Y-103183193D02*
X183927051Y-103159384D01*
X183927051Y-103159384D02*
X183950860Y-103111765D01*
X183950860Y-103111765D02*
X183950860Y-103016527D01*
X183950860Y-103016527D02*
X183927051Y-102968908D01*
X183927051Y-102968908D02*
X183903241Y-102945098D01*
X183903241Y-102945098D02*
X183855622Y-102921289D01*
X183855622Y-102921289D02*
X183450860Y-102921289D01*
X183450860Y-102445098D02*
X183450860Y-102683193D01*
X183450860Y-102683193D02*
X183688955Y-102707002D01*
X183688955Y-102707002D02*
X183665146Y-102683193D01*
X183665146Y-102683193D02*
X183641336Y-102635574D01*
X183641336Y-102635574D02*
X183641336Y-102516526D01*
X183641336Y-102516526D02*
X183665146Y-102468907D01*
X183665146Y-102468907D02*
X183688955Y-102445098D01*
X183688955Y-102445098D02*
X183736574Y-102421288D01*
X183736574Y-102421288D02*
X183855622Y-102421288D01*
X183855622Y-102421288D02*
X183903241Y-102445098D01*
X183903241Y-102445098D02*
X183927051Y-102468907D01*
X183927051Y-102468907D02*
X183950860Y-102516526D01*
X183950860Y-102516526D02*
X183950860Y-102635574D01*
X183950860Y-102635574D02*
X183927051Y-102683193D01*
X183927051Y-102683193D02*
X183903241Y-102707002D01*
X200484622Y-134125860D02*
X200317956Y-133887765D01*
X200198908Y-134125860D02*
X200198908Y-133625860D01*
X200198908Y-133625860D02*
X200389384Y-133625860D01*
X200389384Y-133625860D02*
X200437003Y-133649670D01*
X200437003Y-133649670D02*
X200460813Y-133673479D01*
X200460813Y-133673479D02*
X200484622Y-133721098D01*
X200484622Y-133721098D02*
X200484622Y-133792527D01*
X200484622Y-133792527D02*
X200460813Y-133840146D01*
X200460813Y-133840146D02*
X200437003Y-133863955D01*
X200437003Y-133863955D02*
X200389384Y-133887765D01*
X200389384Y-133887765D02*
X200198908Y-133887765D01*
X200960813Y-134125860D02*
X200675099Y-134125860D01*
X200817956Y-134125860D02*
X200817956Y-133625860D01*
X200817956Y-133625860D02*
X200770337Y-133697289D01*
X200770337Y-133697289D02*
X200722718Y-133744908D01*
X200722718Y-133744908D02*
X200675099Y-133768717D01*
X201437003Y-134125860D02*
X201151289Y-134125860D01*
X201294146Y-134125860D02*
X201294146Y-133625860D01*
X201294146Y-133625860D02*
X201246527Y-133697289D01*
X201246527Y-133697289D02*
X201198908Y-133744908D01*
X201198908Y-133744908D02*
X201151289Y-133768717D01*
X179225337Y-121465860D02*
X179225337Y-120965860D01*
X179225337Y-120965860D02*
X179392004Y-121323003D01*
X179392004Y-121323003D02*
X179558670Y-120965860D01*
X179558670Y-120965860D02*
X179558670Y-121465860D01*
X179892004Y-120965860D02*
X179987242Y-120965860D01*
X179987242Y-120965860D02*
X180034861Y-120989670D01*
X180034861Y-120989670D02*
X180082480Y-121037289D01*
X180082480Y-121037289D02*
X180106290Y-121132527D01*
X180106290Y-121132527D02*
X180106290Y-121299193D01*
X180106290Y-121299193D02*
X180082480Y-121394431D01*
X180082480Y-121394431D02*
X180034861Y-121442051D01*
X180034861Y-121442051D02*
X179987242Y-121465860D01*
X179987242Y-121465860D02*
X179892004Y-121465860D01*
X179892004Y-121465860D02*
X179844385Y-121442051D01*
X179844385Y-121442051D02*
X179796766Y-121394431D01*
X179796766Y-121394431D02*
X179772957Y-121299193D01*
X179772957Y-121299193D02*
X179772957Y-121132527D01*
X179772957Y-121132527D02*
X179796766Y-121037289D01*
X179796766Y-121037289D02*
X179844385Y-120989670D01*
X179844385Y-120989670D02*
X179892004Y-120965860D01*
X180296767Y-121442051D02*
X180368195Y-121465860D01*
X180368195Y-121465860D02*
X180487243Y-121465860D01*
X180487243Y-121465860D02*
X180534862Y-121442051D01*
X180534862Y-121442051D02*
X180558671Y-121418241D01*
X180558671Y-121418241D02*
X180582481Y-121370622D01*
X180582481Y-121370622D02*
X180582481Y-121323003D01*
X180582481Y-121323003D02*
X180558671Y-121275384D01*
X180558671Y-121275384D02*
X180534862Y-121251574D01*
X180534862Y-121251574D02*
X180487243Y-121227765D01*
X180487243Y-121227765D02*
X180392005Y-121203955D01*
X180392005Y-121203955D02*
X180344386Y-121180146D01*
X180344386Y-121180146D02*
X180320576Y-121156336D01*
X180320576Y-121156336D02*
X180296767Y-121108717D01*
X180296767Y-121108717D02*
X180296767Y-121061098D01*
X180296767Y-121061098D02*
X180320576Y-121013479D01*
X180320576Y-121013479D02*
X180344386Y-120989670D01*
X180344386Y-120989670D02*
X180392005Y-120965860D01*
X180392005Y-120965860D02*
X180511052Y-120965860D01*
X180511052Y-120965860D02*
X180582481Y-120989670D01*
X180963433Y-121203955D02*
X180796766Y-121203955D01*
X180796766Y-121465860D02*
X180796766Y-120965860D01*
X180796766Y-120965860D02*
X181034861Y-120965860D01*
X181225337Y-121203955D02*
X181392004Y-121203955D01*
X181463432Y-121465860D02*
X181225337Y-121465860D01*
X181225337Y-121465860D02*
X181225337Y-120965860D01*
X181225337Y-120965860D02*
X181463432Y-120965860D01*
X181606290Y-120965860D02*
X181892004Y-120965860D01*
X181749147Y-121465860D02*
X181749147Y-120965860D01*
X182034861Y-121013479D02*
X182058670Y-120989670D01*
X182058670Y-120989670D02*
X182106289Y-120965860D01*
X182106289Y-120965860D02*
X182225337Y-120965860D01*
X182225337Y-120965860D02*
X182272956Y-120989670D01*
X182272956Y-120989670D02*
X182296765Y-121013479D01*
X182296765Y-121013479D02*
X182320575Y-121061098D01*
X182320575Y-121061098D02*
X182320575Y-121108717D01*
X182320575Y-121108717D02*
X182296765Y-121180146D01*
X182296765Y-121180146D02*
X182011051Y-121465860D01*
X182011051Y-121465860D02*
X182320575Y-121465860D01*
D11*
X199109384Y-86640870D02*
X198776051Y-86164679D01*
X198537956Y-86640870D02*
X198537956Y-85640870D01*
X198537956Y-85640870D02*
X198918908Y-85640870D01*
X198918908Y-85640870D02*
X199014146Y-85688489D01*
X199014146Y-85688489D02*
X199061765Y-85736108D01*
X199061765Y-85736108D02*
X199109384Y-85831346D01*
X199109384Y-85831346D02*
X199109384Y-85974203D01*
X199109384Y-85974203D02*
X199061765Y-86069441D01*
X199061765Y-86069441D02*
X199014146Y-86117060D01*
X199014146Y-86117060D02*
X198918908Y-86164679D01*
X198918908Y-86164679D02*
X198537956Y-86164679D01*
X199490337Y-85736108D02*
X199537956Y-85688489D01*
X199537956Y-85688489D02*
X199633194Y-85640870D01*
X199633194Y-85640870D02*
X199871289Y-85640870D01*
X199871289Y-85640870D02*
X199966527Y-85688489D01*
X199966527Y-85688489D02*
X200014146Y-85736108D01*
X200014146Y-85736108D02*
X200061765Y-85831346D01*
X200061765Y-85831346D02*
X200061765Y-85926584D01*
X200061765Y-85926584D02*
X200014146Y-86069441D01*
X200014146Y-86069441D02*
X199442718Y-86640870D01*
X199442718Y-86640870D02*
X200061765Y-86640870D01*
D10*
X136316666Y-69777190D02*
X136292857Y-69801000D01*
X136292857Y-69801000D02*
X136221428Y-69824809D01*
X136221428Y-69824809D02*
X136173809Y-69824809D01*
X136173809Y-69824809D02*
X136102381Y-69801000D01*
X136102381Y-69801000D02*
X136054762Y-69753380D01*
X136054762Y-69753380D02*
X136030952Y-69705761D01*
X136030952Y-69705761D02*
X136007143Y-69610523D01*
X136007143Y-69610523D02*
X136007143Y-69539095D01*
X136007143Y-69539095D02*
X136030952Y-69443857D01*
X136030952Y-69443857D02*
X136054762Y-69396238D01*
X136054762Y-69396238D02*
X136102381Y-69348619D01*
X136102381Y-69348619D02*
X136173809Y-69324809D01*
X136173809Y-69324809D02*
X136221428Y-69324809D01*
X136221428Y-69324809D02*
X136292857Y-69348619D01*
X136292857Y-69348619D02*
X136316666Y-69372428D01*
X136483333Y-69324809D02*
X136816666Y-69324809D01*
X136816666Y-69324809D02*
X136602381Y-69824809D01*
X182713241Y-111489384D02*
X182737051Y-111513193D01*
X182737051Y-111513193D02*
X182760860Y-111584622D01*
X182760860Y-111584622D02*
X182760860Y-111632241D01*
X182760860Y-111632241D02*
X182737051Y-111703669D01*
X182737051Y-111703669D02*
X182689431Y-111751288D01*
X182689431Y-111751288D02*
X182641812Y-111775098D01*
X182641812Y-111775098D02*
X182546574Y-111798907D01*
X182546574Y-111798907D02*
X182475146Y-111798907D01*
X182475146Y-111798907D02*
X182379908Y-111775098D01*
X182379908Y-111775098D02*
X182332289Y-111751288D01*
X182332289Y-111751288D02*
X182284670Y-111703669D01*
X182284670Y-111703669D02*
X182260860Y-111632241D01*
X182260860Y-111632241D02*
X182260860Y-111584622D01*
X182260860Y-111584622D02*
X182284670Y-111513193D01*
X182284670Y-111513193D02*
X182308479Y-111489384D01*
X182260860Y-111060812D02*
X182260860Y-111156050D01*
X182260860Y-111156050D02*
X182284670Y-111203669D01*
X182284670Y-111203669D02*
X182308479Y-111227479D01*
X182308479Y-111227479D02*
X182379908Y-111275098D01*
X182379908Y-111275098D02*
X182475146Y-111298907D01*
X182475146Y-111298907D02*
X182665622Y-111298907D01*
X182665622Y-111298907D02*
X182713241Y-111275098D01*
X182713241Y-111275098D02*
X182737051Y-111251288D01*
X182737051Y-111251288D02*
X182760860Y-111203669D01*
X182760860Y-111203669D02*
X182760860Y-111108431D01*
X182760860Y-111108431D02*
X182737051Y-111060812D01*
X182737051Y-111060812D02*
X182713241Y-111037003D01*
X182713241Y-111037003D02*
X182665622Y-111013193D01*
X182665622Y-111013193D02*
X182546574Y-111013193D01*
X182546574Y-111013193D02*
X182498955Y-111037003D01*
X182498955Y-111037003D02*
X182475146Y-111060812D01*
X182475146Y-111060812D02*
X182451336Y-111108431D01*
X182451336Y-111108431D02*
X182451336Y-111203669D01*
X182451336Y-111203669D02*
X182475146Y-111251288D01*
X182475146Y-111251288D02*
X182498955Y-111275098D01*
X182498955Y-111275098D02*
X182546574Y-111298907D01*
X193019047Y-96124809D02*
X193019047Y-96529571D01*
X193019047Y-96529571D02*
X193042857Y-96577190D01*
X193042857Y-96577190D02*
X193066666Y-96601000D01*
X193066666Y-96601000D02*
X193114285Y-96624809D01*
X193114285Y-96624809D02*
X193209523Y-96624809D01*
X193209523Y-96624809D02*
X193257142Y-96601000D01*
X193257142Y-96601000D02*
X193280952Y-96577190D01*
X193280952Y-96577190D02*
X193304761Y-96529571D01*
X193304761Y-96529571D02*
X193304761Y-96124809D01*
X193804762Y-96624809D02*
X193519048Y-96624809D01*
X193661905Y-96624809D02*
X193661905Y-96124809D01*
X193661905Y-96124809D02*
X193614286Y-96196238D01*
X193614286Y-96196238D02*
X193566667Y-96243857D01*
X193566667Y-96243857D02*
X193519048Y-96267666D01*
D11*
X199833333Y-83924819D02*
X199500000Y-83448628D01*
X199261905Y-83924819D02*
X199261905Y-82924819D01*
X199261905Y-82924819D02*
X199642857Y-82924819D01*
X199642857Y-82924819D02*
X199738095Y-82972438D01*
X199738095Y-82972438D02*
X199785714Y-83020057D01*
X199785714Y-83020057D02*
X199833333Y-83115295D01*
X199833333Y-83115295D02*
X199833333Y-83258152D01*
X199833333Y-83258152D02*
X199785714Y-83353390D01*
X199785714Y-83353390D02*
X199738095Y-83401009D01*
X199738095Y-83401009D02*
X199642857Y-83448628D01*
X199642857Y-83448628D02*
X199261905Y-83448628D01*
X200166667Y-82924819D02*
X200785714Y-82924819D01*
X200785714Y-82924819D02*
X200452381Y-83305771D01*
X200452381Y-83305771D02*
X200595238Y-83305771D01*
X200595238Y-83305771D02*
X200690476Y-83353390D01*
X200690476Y-83353390D02*
X200738095Y-83401009D01*
X200738095Y-83401009D02*
X200785714Y-83496247D01*
X200785714Y-83496247D02*
X200785714Y-83734342D01*
X200785714Y-83734342D02*
X200738095Y-83829580D01*
X200738095Y-83829580D02*
X200690476Y-83877200D01*
X200690476Y-83877200D02*
X200595238Y-83924819D01*
X200595238Y-83924819D02*
X200309524Y-83924819D01*
X200309524Y-83924819D02*
X200214286Y-83877200D01*
X200214286Y-83877200D02*
X200166667Y-83829580D01*
D10*
X116916667Y-66781952D02*
X117154762Y-66781952D01*
X116869048Y-66924809D02*
X117035714Y-66424809D01*
X117035714Y-66424809D02*
X117202381Y-66924809D01*
X117369047Y-66662904D02*
X117535714Y-66662904D01*
X117607142Y-66924809D02*
X117369047Y-66924809D01*
X117369047Y-66924809D02*
X117369047Y-66424809D01*
X117369047Y-66424809D02*
X117607142Y-66424809D01*
X118083333Y-66924809D02*
X117797619Y-66924809D01*
X117940476Y-66924809D02*
X117940476Y-66424809D01*
X117940476Y-66424809D02*
X117892857Y-66496238D01*
X117892857Y-66496238D02*
X117845238Y-66543857D01*
X117845238Y-66543857D02*
X117797619Y-66567666D01*
X132716666Y-72824809D02*
X132550000Y-72586714D01*
X132430952Y-72824809D02*
X132430952Y-72324809D01*
X132430952Y-72324809D02*
X132621428Y-72324809D01*
X132621428Y-72324809D02*
X132669047Y-72348619D01*
X132669047Y-72348619D02*
X132692857Y-72372428D01*
X132692857Y-72372428D02*
X132716666Y-72420047D01*
X132716666Y-72420047D02*
X132716666Y-72491476D01*
X132716666Y-72491476D02*
X132692857Y-72539095D01*
X132692857Y-72539095D02*
X132669047Y-72562904D01*
X132669047Y-72562904D02*
X132621428Y-72586714D01*
X132621428Y-72586714D02*
X132430952Y-72586714D01*
X133145238Y-72324809D02*
X133050000Y-72324809D01*
X133050000Y-72324809D02*
X133002381Y-72348619D01*
X133002381Y-72348619D02*
X132978571Y-72372428D01*
X132978571Y-72372428D02*
X132930952Y-72443857D01*
X132930952Y-72443857D02*
X132907143Y-72539095D01*
X132907143Y-72539095D02*
X132907143Y-72729571D01*
X132907143Y-72729571D02*
X132930952Y-72777190D01*
X132930952Y-72777190D02*
X132954762Y-72801000D01*
X132954762Y-72801000D02*
X133002381Y-72824809D01*
X133002381Y-72824809D02*
X133097619Y-72824809D01*
X133097619Y-72824809D02*
X133145238Y-72801000D01*
X133145238Y-72801000D02*
X133169047Y-72777190D01*
X133169047Y-72777190D02*
X133192857Y-72729571D01*
X133192857Y-72729571D02*
X133192857Y-72610523D01*
X133192857Y-72610523D02*
X133169047Y-72562904D01*
X133169047Y-72562904D02*
X133145238Y-72539095D01*
X133145238Y-72539095D02*
X133097619Y-72515285D01*
X133097619Y-72515285D02*
X133002381Y-72515285D01*
X133002381Y-72515285D02*
X132954762Y-72539095D01*
X132954762Y-72539095D02*
X132930952Y-72562904D01*
X132930952Y-72562904D02*
X132907143Y-72610523D01*
X185320860Y-67681884D02*
X185082765Y-67848550D01*
X185320860Y-67967598D02*
X184820860Y-67967598D01*
X184820860Y-67967598D02*
X184820860Y-67777122D01*
X184820860Y-67777122D02*
X184844670Y-67729503D01*
X184844670Y-67729503D02*
X184868479Y-67705693D01*
X184868479Y-67705693D02*
X184916098Y-67681884D01*
X184916098Y-67681884D02*
X184987527Y-67681884D01*
X184987527Y-67681884D02*
X185035146Y-67705693D01*
X185035146Y-67705693D02*
X185058955Y-67729503D01*
X185058955Y-67729503D02*
X185082765Y-67777122D01*
X185082765Y-67777122D02*
X185082765Y-67967598D01*
X184820860Y-67229503D02*
X184820860Y-67467598D01*
X184820860Y-67467598D02*
X185058955Y-67491407D01*
X185058955Y-67491407D02*
X185035146Y-67467598D01*
X185035146Y-67467598D02*
X185011336Y-67419979D01*
X185011336Y-67419979D02*
X185011336Y-67300931D01*
X185011336Y-67300931D02*
X185035146Y-67253312D01*
X185035146Y-67253312D02*
X185058955Y-67229503D01*
X185058955Y-67229503D02*
X185106574Y-67205693D01*
X185106574Y-67205693D02*
X185225622Y-67205693D01*
X185225622Y-67205693D02*
X185273241Y-67229503D01*
X185273241Y-67229503D02*
X185297051Y-67253312D01*
X185297051Y-67253312D02*
X185320860Y-67300931D01*
X185320860Y-67300931D02*
X185320860Y-67419979D01*
X185320860Y-67419979D02*
X185297051Y-67467598D01*
X185297051Y-67467598D02*
X185273241Y-67491407D01*
X180982717Y-67455741D02*
X180958908Y-67479551D01*
X180958908Y-67479551D02*
X180887479Y-67503360D01*
X180887479Y-67503360D02*
X180839860Y-67503360D01*
X180839860Y-67503360D02*
X180768432Y-67479551D01*
X180768432Y-67479551D02*
X180720813Y-67431931D01*
X180720813Y-67431931D02*
X180697003Y-67384312D01*
X180697003Y-67384312D02*
X180673194Y-67289074D01*
X180673194Y-67289074D02*
X180673194Y-67217646D01*
X180673194Y-67217646D02*
X180697003Y-67122408D01*
X180697003Y-67122408D02*
X180720813Y-67074789D01*
X180720813Y-67074789D02*
X180768432Y-67027170D01*
X180768432Y-67027170D02*
X180839860Y-67003360D01*
X180839860Y-67003360D02*
X180887479Y-67003360D01*
X180887479Y-67003360D02*
X180958908Y-67027170D01*
X180958908Y-67027170D02*
X180982717Y-67050979D01*
X181411289Y-67170027D02*
X181411289Y-67503360D01*
X181292241Y-66979551D02*
X181173194Y-67336693D01*
X181173194Y-67336693D02*
X181482717Y-67336693D01*
X139507143Y-74162904D02*
X139578571Y-74186714D01*
X139578571Y-74186714D02*
X139602381Y-74210523D01*
X139602381Y-74210523D02*
X139626190Y-74258142D01*
X139626190Y-74258142D02*
X139626190Y-74329571D01*
X139626190Y-74329571D02*
X139602381Y-74377190D01*
X139602381Y-74377190D02*
X139578571Y-74401000D01*
X139578571Y-74401000D02*
X139530952Y-74424809D01*
X139530952Y-74424809D02*
X139340476Y-74424809D01*
X139340476Y-74424809D02*
X139340476Y-73924809D01*
X139340476Y-73924809D02*
X139507143Y-73924809D01*
X139507143Y-73924809D02*
X139554762Y-73948619D01*
X139554762Y-73948619D02*
X139578571Y-73972428D01*
X139578571Y-73972428D02*
X139602381Y-74020047D01*
X139602381Y-74020047D02*
X139602381Y-74067666D01*
X139602381Y-74067666D02*
X139578571Y-74115285D01*
X139578571Y-74115285D02*
X139554762Y-74139095D01*
X139554762Y-74139095D02*
X139507143Y-74162904D01*
X139507143Y-74162904D02*
X139340476Y-74162904D01*
X139769048Y-73924809D02*
X140054762Y-73924809D01*
X139911905Y-74424809D02*
X139911905Y-73924809D01*
X140197619Y-73972428D02*
X140221428Y-73948619D01*
X140221428Y-73948619D02*
X140269047Y-73924809D01*
X140269047Y-73924809D02*
X140388095Y-73924809D01*
X140388095Y-73924809D02*
X140435714Y-73948619D01*
X140435714Y-73948619D02*
X140459523Y-73972428D01*
X140459523Y-73972428D02*
X140483333Y-74020047D01*
X140483333Y-74020047D02*
X140483333Y-74067666D01*
X140483333Y-74067666D02*
X140459523Y-74139095D01*
X140459523Y-74139095D02*
X140173809Y-74424809D01*
X140173809Y-74424809D02*
X140483333Y-74424809D01*
D11*
X141806639Y-70533825D02*
X141806639Y-69466175D01*
X142340464Y-70000000D02*
X141272813Y-70000000D01*
D10*
X204124809Y-110866666D02*
X204481952Y-110866666D01*
X204481952Y-110866666D02*
X204553380Y-110890475D01*
X204553380Y-110890475D02*
X204601000Y-110938094D01*
X204601000Y-110938094D02*
X204624809Y-111009523D01*
X204624809Y-111009523D02*
X204624809Y-111057142D01*
X204172428Y-110652380D02*
X204148619Y-110628571D01*
X204148619Y-110628571D02*
X204124809Y-110580952D01*
X204124809Y-110580952D02*
X204124809Y-110461904D01*
X204124809Y-110461904D02*
X204148619Y-110414285D01*
X204148619Y-110414285D02*
X204172428Y-110390476D01*
X204172428Y-110390476D02*
X204220047Y-110366666D01*
X204220047Y-110366666D02*
X204267666Y-110366666D01*
X204267666Y-110366666D02*
X204339095Y-110390476D01*
X204339095Y-110390476D02*
X204624809Y-110676190D01*
X204624809Y-110676190D02*
X204624809Y-110366666D01*
X204324809Y-113866666D02*
X204681952Y-113866666D01*
X204681952Y-113866666D02*
X204753380Y-113890475D01*
X204753380Y-113890475D02*
X204801000Y-113938094D01*
X204801000Y-113938094D02*
X204824809Y-114009523D01*
X204824809Y-114009523D02*
X204824809Y-114057142D01*
X204324809Y-113676190D02*
X204324809Y-113366666D01*
X204324809Y-113366666D02*
X204515285Y-113533333D01*
X204515285Y-113533333D02*
X204515285Y-113461904D01*
X204515285Y-113461904D02*
X204539095Y-113414285D01*
X204539095Y-113414285D02*
X204562904Y-113390476D01*
X204562904Y-113390476D02*
X204610523Y-113366666D01*
X204610523Y-113366666D02*
X204729571Y-113366666D01*
X204729571Y-113366666D02*
X204777190Y-113390476D01*
X204777190Y-113390476D02*
X204801000Y-113414285D01*
X204801000Y-113414285D02*
X204824809Y-113461904D01*
X204824809Y-113461904D02*
X204824809Y-113604761D01*
X204824809Y-113604761D02*
X204801000Y-113652380D01*
X204801000Y-113652380D02*
X204777190Y-113676190D01*
X139530952Y-69524809D02*
X139530952Y-69024809D01*
X139530952Y-69024809D02*
X139650000Y-69024809D01*
X139650000Y-69024809D02*
X139721428Y-69048619D01*
X139721428Y-69048619D02*
X139769047Y-69096238D01*
X139769047Y-69096238D02*
X139792857Y-69143857D01*
X139792857Y-69143857D02*
X139816666Y-69239095D01*
X139816666Y-69239095D02*
X139816666Y-69310523D01*
X139816666Y-69310523D02*
X139792857Y-69405761D01*
X139792857Y-69405761D02*
X139769047Y-69453380D01*
X139769047Y-69453380D02*
X139721428Y-69501000D01*
X139721428Y-69501000D02*
X139650000Y-69524809D01*
X139650000Y-69524809D02*
X139530952Y-69524809D01*
X140292857Y-69524809D02*
X140007143Y-69524809D01*
X140150000Y-69524809D02*
X140150000Y-69024809D01*
X140150000Y-69024809D02*
X140102381Y-69096238D01*
X140102381Y-69096238D02*
X140054762Y-69143857D01*
X140054762Y-69143857D02*
X140007143Y-69167666D01*
X176046860Y-71869384D02*
X176046860Y-72107479D01*
X176046860Y-72107479D02*
X175546860Y-72107479D01*
X176046860Y-71440812D02*
X176046860Y-71726526D01*
X176046860Y-71583669D02*
X175546860Y-71583669D01*
X175546860Y-71583669D02*
X175618289Y-71631288D01*
X175618289Y-71631288D02*
X175665908Y-71678907D01*
X175665908Y-71678907D02*
X175689717Y-71726526D01*
X144978571Y-68324809D02*
X144811905Y-68086714D01*
X144692857Y-68324809D02*
X144692857Y-67824809D01*
X144692857Y-67824809D02*
X144883333Y-67824809D01*
X144883333Y-67824809D02*
X144930952Y-67848619D01*
X144930952Y-67848619D02*
X144954762Y-67872428D01*
X144954762Y-67872428D02*
X144978571Y-67920047D01*
X144978571Y-67920047D02*
X144978571Y-67991476D01*
X144978571Y-67991476D02*
X144954762Y-68039095D01*
X144954762Y-68039095D02*
X144930952Y-68062904D01*
X144930952Y-68062904D02*
X144883333Y-68086714D01*
X144883333Y-68086714D02*
X144692857Y-68086714D01*
X145454762Y-68324809D02*
X145169048Y-68324809D01*
X145311905Y-68324809D02*
X145311905Y-67824809D01*
X145311905Y-67824809D02*
X145264286Y-67896238D01*
X145264286Y-67896238D02*
X145216667Y-67943857D01*
X145216667Y-67943857D02*
X145169048Y-67967666D01*
X145764285Y-67824809D02*
X145811904Y-67824809D01*
X145811904Y-67824809D02*
X145859523Y-67848619D01*
X145859523Y-67848619D02*
X145883333Y-67872428D01*
X145883333Y-67872428D02*
X145907142Y-67920047D01*
X145907142Y-67920047D02*
X145930952Y-68015285D01*
X145930952Y-68015285D02*
X145930952Y-68134333D01*
X145930952Y-68134333D02*
X145907142Y-68229571D01*
X145907142Y-68229571D02*
X145883333Y-68277190D01*
X145883333Y-68277190D02*
X145859523Y-68301000D01*
X145859523Y-68301000D02*
X145811904Y-68324809D01*
X145811904Y-68324809D02*
X145764285Y-68324809D01*
X145764285Y-68324809D02*
X145716666Y-68301000D01*
X145716666Y-68301000D02*
X145692857Y-68277190D01*
X145692857Y-68277190D02*
X145669047Y-68229571D01*
X145669047Y-68229571D02*
X145645238Y-68134333D01*
X145645238Y-68134333D02*
X145645238Y-68015285D01*
X145645238Y-68015285D02*
X145669047Y-67920047D01*
X145669047Y-67920047D02*
X145692857Y-67872428D01*
X145692857Y-67872428D02*
X145716666Y-67848619D01*
X145716666Y-67848619D02*
X145764285Y-67824809D01*
X187758241Y-77969384D02*
X187782051Y-77993193D01*
X187782051Y-77993193D02*
X187805860Y-78064622D01*
X187805860Y-78064622D02*
X187805860Y-78112241D01*
X187805860Y-78112241D02*
X187782051Y-78183669D01*
X187782051Y-78183669D02*
X187734431Y-78231288D01*
X187734431Y-78231288D02*
X187686812Y-78255098D01*
X187686812Y-78255098D02*
X187591574Y-78278907D01*
X187591574Y-78278907D02*
X187520146Y-78278907D01*
X187520146Y-78278907D02*
X187424908Y-78255098D01*
X187424908Y-78255098D02*
X187377289Y-78231288D01*
X187377289Y-78231288D02*
X187329670Y-78183669D01*
X187329670Y-78183669D02*
X187305860Y-78112241D01*
X187305860Y-78112241D02*
X187305860Y-78064622D01*
X187305860Y-78064622D02*
X187329670Y-77993193D01*
X187329670Y-77993193D02*
X187353479Y-77969384D01*
X187805860Y-77493193D02*
X187805860Y-77778907D01*
X187805860Y-77636050D02*
X187305860Y-77636050D01*
X187305860Y-77636050D02*
X187377289Y-77683669D01*
X187377289Y-77683669D02*
X187424908Y-77731288D01*
X187424908Y-77731288D02*
X187448717Y-77778907D01*
X180877956Y-91210860D02*
X180877956Y-90710860D01*
X180877956Y-90710860D02*
X181044623Y-91068003D01*
X181044623Y-91068003D02*
X181211289Y-90710860D01*
X181211289Y-90710860D02*
X181211289Y-91210860D01*
X181544623Y-90710860D02*
X181639861Y-90710860D01*
X181639861Y-90710860D02*
X181687480Y-90734670D01*
X181687480Y-90734670D02*
X181735099Y-90782289D01*
X181735099Y-90782289D02*
X181758909Y-90877527D01*
X181758909Y-90877527D02*
X181758909Y-91044193D01*
X181758909Y-91044193D02*
X181735099Y-91139431D01*
X181735099Y-91139431D02*
X181687480Y-91187051D01*
X181687480Y-91187051D02*
X181639861Y-91210860D01*
X181639861Y-91210860D02*
X181544623Y-91210860D01*
X181544623Y-91210860D02*
X181497004Y-91187051D01*
X181497004Y-91187051D02*
X181449385Y-91139431D01*
X181449385Y-91139431D02*
X181425576Y-91044193D01*
X181425576Y-91044193D02*
X181425576Y-90877527D01*
X181425576Y-90877527D02*
X181449385Y-90782289D01*
X181449385Y-90782289D02*
X181497004Y-90734670D01*
X181497004Y-90734670D02*
X181544623Y-90710860D01*
X181949386Y-91187051D02*
X182020814Y-91210860D01*
X182020814Y-91210860D02*
X182139862Y-91210860D01*
X182139862Y-91210860D02*
X182187481Y-91187051D01*
X182187481Y-91187051D02*
X182211290Y-91163241D01*
X182211290Y-91163241D02*
X182235100Y-91115622D01*
X182235100Y-91115622D02*
X182235100Y-91068003D01*
X182235100Y-91068003D02*
X182211290Y-91020384D01*
X182211290Y-91020384D02*
X182187481Y-90996574D01*
X182187481Y-90996574D02*
X182139862Y-90972765D01*
X182139862Y-90972765D02*
X182044624Y-90948955D01*
X182044624Y-90948955D02*
X181997005Y-90925146D01*
X181997005Y-90925146D02*
X181973195Y-90901336D01*
X181973195Y-90901336D02*
X181949386Y-90853717D01*
X181949386Y-90853717D02*
X181949386Y-90806098D01*
X181949386Y-90806098D02*
X181973195Y-90758479D01*
X181973195Y-90758479D02*
X181997005Y-90734670D01*
X181997005Y-90734670D02*
X182044624Y-90710860D01*
X182044624Y-90710860D02*
X182163671Y-90710860D01*
X182163671Y-90710860D02*
X182235100Y-90734670D01*
X182616052Y-90948955D02*
X182449385Y-90948955D01*
X182449385Y-91210860D02*
X182449385Y-90710860D01*
X182449385Y-90710860D02*
X182687480Y-90710860D01*
X182877956Y-90948955D02*
X183044623Y-90948955D01*
X183116051Y-91210860D02*
X182877956Y-91210860D01*
X182877956Y-91210860D02*
X182877956Y-90710860D01*
X182877956Y-90710860D02*
X183116051Y-90710860D01*
X183258909Y-90710860D02*
X183544623Y-90710860D01*
X183401766Y-91210860D02*
X183401766Y-90710860D01*
X183592242Y-91258479D02*
X183973194Y-91258479D01*
X184092241Y-91210860D02*
X184092241Y-90710860D01*
X184092241Y-90948955D02*
X184377955Y-90948955D01*
X184377955Y-91210860D02*
X184377955Y-90710860D01*
X184877956Y-91210860D02*
X184592242Y-91210860D01*
X184735099Y-91210860D02*
X184735099Y-90710860D01*
X184735099Y-90710860D02*
X184687480Y-90782289D01*
X184687480Y-90782289D02*
X184639861Y-90829908D01*
X184639861Y-90829908D02*
X184592242Y-90853717D01*
X186198241Y-78096884D02*
X186222051Y-78120693D01*
X186222051Y-78120693D02*
X186245860Y-78192122D01*
X186245860Y-78192122D02*
X186245860Y-78239741D01*
X186245860Y-78239741D02*
X186222051Y-78311169D01*
X186222051Y-78311169D02*
X186174431Y-78358788D01*
X186174431Y-78358788D02*
X186126812Y-78382598D01*
X186126812Y-78382598D02*
X186031574Y-78406407D01*
X186031574Y-78406407D02*
X185960146Y-78406407D01*
X185960146Y-78406407D02*
X185864908Y-78382598D01*
X185864908Y-78382598D02*
X185817289Y-78358788D01*
X185817289Y-78358788D02*
X185769670Y-78311169D01*
X185769670Y-78311169D02*
X185745860Y-78239741D01*
X185745860Y-78239741D02*
X185745860Y-78192122D01*
X185745860Y-78192122D02*
X185769670Y-78120693D01*
X185769670Y-78120693D02*
X185793479Y-78096884D01*
X185745860Y-77930217D02*
X185745860Y-77620693D01*
X185745860Y-77620693D02*
X185936336Y-77787360D01*
X185936336Y-77787360D02*
X185936336Y-77715931D01*
X185936336Y-77715931D02*
X185960146Y-77668312D01*
X185960146Y-77668312D02*
X185983955Y-77644503D01*
X185983955Y-77644503D02*
X186031574Y-77620693D01*
X186031574Y-77620693D02*
X186150622Y-77620693D01*
X186150622Y-77620693D02*
X186198241Y-77644503D01*
X186198241Y-77644503D02*
X186222051Y-77668312D01*
X186222051Y-77668312D02*
X186245860Y-77715931D01*
X186245860Y-77715931D02*
X186245860Y-77858788D01*
X186245860Y-77858788D02*
X186222051Y-77906407D01*
X186222051Y-77906407D02*
X186198241Y-77930217D01*
X125619047Y-77624809D02*
X125619047Y-78029571D01*
X125619047Y-78029571D02*
X125642857Y-78077190D01*
X125642857Y-78077190D02*
X125666666Y-78101000D01*
X125666666Y-78101000D02*
X125714285Y-78124809D01*
X125714285Y-78124809D02*
X125809523Y-78124809D01*
X125809523Y-78124809D02*
X125857142Y-78101000D01*
X125857142Y-78101000D02*
X125880952Y-78077190D01*
X125880952Y-78077190D02*
X125904761Y-78029571D01*
X125904761Y-78029571D02*
X125904761Y-77624809D01*
X126357143Y-77624809D02*
X126261905Y-77624809D01*
X126261905Y-77624809D02*
X126214286Y-77648619D01*
X126214286Y-77648619D02*
X126190476Y-77672428D01*
X126190476Y-77672428D02*
X126142857Y-77743857D01*
X126142857Y-77743857D02*
X126119048Y-77839095D01*
X126119048Y-77839095D02*
X126119048Y-78029571D01*
X126119048Y-78029571D02*
X126142857Y-78077190D01*
X126142857Y-78077190D02*
X126166667Y-78101000D01*
X126166667Y-78101000D02*
X126214286Y-78124809D01*
X126214286Y-78124809D02*
X126309524Y-78124809D01*
X126309524Y-78124809D02*
X126357143Y-78101000D01*
X126357143Y-78101000D02*
X126380952Y-78077190D01*
X126380952Y-78077190D02*
X126404762Y-78029571D01*
X126404762Y-78029571D02*
X126404762Y-77910523D01*
X126404762Y-77910523D02*
X126380952Y-77862904D01*
X126380952Y-77862904D02*
X126357143Y-77839095D01*
X126357143Y-77839095D02*
X126309524Y-77815285D01*
X126309524Y-77815285D02*
X126214286Y-77815285D01*
X126214286Y-77815285D02*
X126166667Y-77839095D01*
X126166667Y-77839095D02*
X126142857Y-77862904D01*
X126142857Y-77862904D02*
X126119048Y-77910523D01*
X171414809Y-79184761D02*
X170914809Y-79184761D01*
X170914809Y-79184761D02*
X171271952Y-79018094D01*
X171271952Y-79018094D02*
X170914809Y-78851428D01*
X170914809Y-78851428D02*
X171414809Y-78851428D01*
X170962428Y-78637141D02*
X170938619Y-78613332D01*
X170938619Y-78613332D02*
X170914809Y-78565713D01*
X170914809Y-78565713D02*
X170914809Y-78446665D01*
X170914809Y-78446665D02*
X170938619Y-78399046D01*
X170938619Y-78399046D02*
X170962428Y-78375237D01*
X170962428Y-78375237D02*
X171010047Y-78351427D01*
X171010047Y-78351427D02*
X171057666Y-78351427D01*
X171057666Y-78351427D02*
X171129095Y-78375237D01*
X171129095Y-78375237D02*
X171414809Y-78660951D01*
X171414809Y-78660951D02*
X171414809Y-78351427D01*
X188917599Y-66743360D02*
X189203313Y-66743360D01*
X189060456Y-67243360D02*
X189060456Y-66743360D01*
X189369979Y-67243360D02*
X189369979Y-66743360D01*
X189369979Y-66743360D02*
X189560455Y-66743360D01*
X189560455Y-66743360D02*
X189608074Y-66767170D01*
X189608074Y-66767170D02*
X189631884Y-66790979D01*
X189631884Y-66790979D02*
X189655693Y-66838598D01*
X189655693Y-66838598D02*
X189655693Y-66910027D01*
X189655693Y-66910027D02*
X189631884Y-66957646D01*
X189631884Y-66957646D02*
X189608074Y-66981455D01*
X189608074Y-66981455D02*
X189560455Y-67005265D01*
X189560455Y-67005265D02*
X189369979Y-67005265D01*
X190131884Y-67243360D02*
X189846170Y-67243360D01*
X189989027Y-67243360D02*
X189989027Y-66743360D01*
X189989027Y-66743360D02*
X189941408Y-66814789D01*
X189941408Y-66814789D02*
X189893789Y-66862408D01*
X189893789Y-66862408D02*
X189846170Y-66886217D01*
X134016666Y-66977190D02*
X133992857Y-67001000D01*
X133992857Y-67001000D02*
X133921428Y-67024809D01*
X133921428Y-67024809D02*
X133873809Y-67024809D01*
X133873809Y-67024809D02*
X133802381Y-67001000D01*
X133802381Y-67001000D02*
X133754762Y-66953380D01*
X133754762Y-66953380D02*
X133730952Y-66905761D01*
X133730952Y-66905761D02*
X133707143Y-66810523D01*
X133707143Y-66810523D02*
X133707143Y-66739095D01*
X133707143Y-66739095D02*
X133730952Y-66643857D01*
X133730952Y-66643857D02*
X133754762Y-66596238D01*
X133754762Y-66596238D02*
X133802381Y-66548619D01*
X133802381Y-66548619D02*
X133873809Y-66524809D01*
X133873809Y-66524809D02*
X133921428Y-66524809D01*
X133921428Y-66524809D02*
X133992857Y-66548619D01*
X133992857Y-66548619D02*
X134016666Y-66572428D01*
X134469047Y-66524809D02*
X134230952Y-66524809D01*
X134230952Y-66524809D02*
X134207143Y-66762904D01*
X134207143Y-66762904D02*
X134230952Y-66739095D01*
X134230952Y-66739095D02*
X134278571Y-66715285D01*
X134278571Y-66715285D02*
X134397619Y-66715285D01*
X134397619Y-66715285D02*
X134445238Y-66739095D01*
X134445238Y-66739095D02*
X134469047Y-66762904D01*
X134469047Y-66762904D02*
X134492857Y-66810523D01*
X134492857Y-66810523D02*
X134492857Y-66929571D01*
X134492857Y-66929571D02*
X134469047Y-66977190D01*
X134469047Y-66977190D02*
X134445238Y-67001000D01*
X134445238Y-67001000D02*
X134397619Y-67024809D01*
X134397619Y-67024809D02*
X134278571Y-67024809D01*
X134278571Y-67024809D02*
X134230952Y-67001000D01*
X134230952Y-67001000D02*
X134207143Y-66977190D01*
X136316666Y-71377190D02*
X136292857Y-71401000D01*
X136292857Y-71401000D02*
X136221428Y-71424809D01*
X136221428Y-71424809D02*
X136173809Y-71424809D01*
X136173809Y-71424809D02*
X136102381Y-71401000D01*
X136102381Y-71401000D02*
X136054762Y-71353380D01*
X136054762Y-71353380D02*
X136030952Y-71305761D01*
X136030952Y-71305761D02*
X136007143Y-71210523D01*
X136007143Y-71210523D02*
X136007143Y-71139095D01*
X136007143Y-71139095D02*
X136030952Y-71043857D01*
X136030952Y-71043857D02*
X136054762Y-70996238D01*
X136054762Y-70996238D02*
X136102381Y-70948619D01*
X136102381Y-70948619D02*
X136173809Y-70924809D01*
X136173809Y-70924809D02*
X136221428Y-70924809D01*
X136221428Y-70924809D02*
X136292857Y-70948619D01*
X136292857Y-70948619D02*
X136316666Y-70972428D01*
X136602381Y-71139095D02*
X136554762Y-71115285D01*
X136554762Y-71115285D02*
X136530952Y-71091476D01*
X136530952Y-71091476D02*
X136507143Y-71043857D01*
X136507143Y-71043857D02*
X136507143Y-71020047D01*
X136507143Y-71020047D02*
X136530952Y-70972428D01*
X136530952Y-70972428D02*
X136554762Y-70948619D01*
X136554762Y-70948619D02*
X136602381Y-70924809D01*
X136602381Y-70924809D02*
X136697619Y-70924809D01*
X136697619Y-70924809D02*
X136745238Y-70948619D01*
X136745238Y-70948619D02*
X136769047Y-70972428D01*
X136769047Y-70972428D02*
X136792857Y-71020047D01*
X136792857Y-71020047D02*
X136792857Y-71043857D01*
X136792857Y-71043857D02*
X136769047Y-71091476D01*
X136769047Y-71091476D02*
X136745238Y-71115285D01*
X136745238Y-71115285D02*
X136697619Y-71139095D01*
X136697619Y-71139095D02*
X136602381Y-71139095D01*
X136602381Y-71139095D02*
X136554762Y-71162904D01*
X136554762Y-71162904D02*
X136530952Y-71186714D01*
X136530952Y-71186714D02*
X136507143Y-71234333D01*
X136507143Y-71234333D02*
X136507143Y-71329571D01*
X136507143Y-71329571D02*
X136530952Y-71377190D01*
X136530952Y-71377190D02*
X136554762Y-71401000D01*
X136554762Y-71401000D02*
X136602381Y-71424809D01*
X136602381Y-71424809D02*
X136697619Y-71424809D01*
X136697619Y-71424809D02*
X136745238Y-71401000D01*
X136745238Y-71401000D02*
X136769047Y-71377190D01*
X136769047Y-71377190D02*
X136792857Y-71329571D01*
X136792857Y-71329571D02*
X136792857Y-71234333D01*
X136792857Y-71234333D02*
X136769047Y-71186714D01*
X136769047Y-71186714D02*
X136745238Y-71162904D01*
X136745238Y-71162904D02*
X136697619Y-71139095D01*
X134116666Y-77024809D02*
X133950000Y-76786714D01*
X133830952Y-77024809D02*
X133830952Y-76524809D01*
X133830952Y-76524809D02*
X134021428Y-76524809D01*
X134021428Y-76524809D02*
X134069047Y-76548619D01*
X134069047Y-76548619D02*
X134092857Y-76572428D01*
X134092857Y-76572428D02*
X134116666Y-76620047D01*
X134116666Y-76620047D02*
X134116666Y-76691476D01*
X134116666Y-76691476D02*
X134092857Y-76739095D01*
X134092857Y-76739095D02*
X134069047Y-76762904D01*
X134069047Y-76762904D02*
X134021428Y-76786714D01*
X134021428Y-76786714D02*
X133830952Y-76786714D01*
X134283333Y-76524809D02*
X134616666Y-76524809D01*
X134616666Y-76524809D02*
X134402381Y-77024809D01*
D12*
X126626051Y-117206051D02*
X127426051Y-117206051D01*
X126626051Y-125506051D02*
X126626051Y-117206051D01*
X127426051Y-117206051D02*
X130026051Y-114606051D01*
X127426051Y-125506051D02*
X126626051Y-125506051D01*
X130026051Y-114606051D02*
X131476051Y-114606051D01*
X130026051Y-128106051D02*
X127426051Y-125506051D01*
X131476051Y-128106051D02*
X130026051Y-128106051D01*
X135476051Y-114606051D02*
X137576051Y-114606051D01*
X135476051Y-128106051D02*
X137576051Y-128106051D01*
X137526051Y-114606051D02*
G75*
G02*
X139076051Y-116056051I50000J-1500000D01*
G01*
X138676051Y-125856052D02*
G75*
G02*
X139060210Y-126770666I-600001J-789999D01*
G01*
X139060211Y-115941436D02*
G75*
G02*
X138676051Y-116856051I-984160J-124615D01*
G01*
X139076051Y-126656051D02*
G75*
G02*
X137526051Y-128106051I-1499999J49999D01*
G01*
X179277500Y-104954724D02*
X179277500Y-104445276D01*
X180322500Y-104954724D02*
X180322500Y-104445276D01*
X180816449Y-104404225D02*
X180816449Y-104913673D01*
X181861449Y-104404225D02*
X181861449Y-104913673D01*
X181423551Y-72471051D02*
X181423551Y-72236051D01*
X181423551Y-75216051D02*
X181423551Y-74741051D01*
X181898551Y-71996051D02*
X181723551Y-71996051D01*
X181898551Y-75216051D02*
X181423551Y-75216051D01*
X184168551Y-71996051D02*
X184643551Y-71996051D01*
X184168551Y-75216051D02*
X184643551Y-75216051D01*
X184643551Y-71996051D02*
X184643551Y-72471051D01*
X184643551Y-75216051D02*
X184643551Y-74741051D01*
X181423551Y-71996051D02*
X181183551Y-71666051D01*
X181663551Y-71666051D01*
X181423551Y-71996051D01*
G36*
X181423551Y-71996051D02*
G01*
X181183551Y-71666051D01*
X181663551Y-71666051D01*
X181423551Y-71996051D01*
G37*
X199896051Y-89756051D02*
X199896051Y-90026051D01*
X199896051Y-90026051D02*
X197066051Y-90026051D01*
X199896051Y-96386051D02*
X198796051Y-96386051D01*
X199896051Y-96656051D02*
X199896051Y-96386051D01*
X206316051Y-89756051D02*
X199896051Y-89756051D01*
X206316051Y-96656051D02*
X199896051Y-96656051D01*
X184707284Y-76206051D02*
X184999818Y-76206051D01*
X184707284Y-77226051D02*
X184999818Y-77226051D01*
X165377500Y-89962742D02*
X165377500Y-90437258D01*
X166422500Y-89962742D02*
X166422500Y-90437258D01*
X179336051Y-106766051D02*
X179836051Y-106766051D01*
X179336051Y-107266051D02*
X179336051Y-106766051D01*
X179336051Y-109966051D02*
X179336051Y-109016051D01*
X184036051Y-106766051D02*
X184536051Y-106766051D01*
X184536051Y-106766051D02*
X184536051Y-107266051D01*
X184536051Y-109566051D02*
X184536051Y-110066051D01*
X184536051Y-110066051D02*
X184036051Y-110066051D01*
X191416051Y-121861051D02*
X193226051Y-121861051D01*
X191416051Y-123361051D02*
X191416051Y-121861051D01*
X193226051Y-121861051D02*
X193226051Y-120761051D01*
X200006051Y-121861051D02*
X200006051Y-116736051D01*
X201816051Y-121861051D02*
X200006051Y-121861051D01*
X201816051Y-123361051D02*
X201816051Y-121861051D01*
X180026051Y-122116051D02*
X180026051Y-122386051D01*
X180026051Y-122386051D02*
X177196051Y-122386051D01*
X180026051Y-128746051D02*
X178926051Y-128746051D01*
X180026051Y-129016051D02*
X180026051Y-128746051D01*
X186446051Y-122116051D02*
X180026051Y-122116051D01*
X186446051Y-129016051D02*
X180026051Y-129016051D01*
X199038793Y-87093551D02*
X199513309Y-87093551D01*
X199038793Y-88138551D02*
X199513309Y-88138551D01*
X133953733Y-69090000D02*
X134246267Y-69090000D01*
X133953733Y-70110000D02*
X134246267Y-70110000D01*
X179952318Y-110786051D02*
X179659784Y-110786051D01*
X179952318Y-111806051D02*
X179659784Y-111806051D01*
X191136051Y-106881051D02*
X191136051Y-108381051D01*
X191136051Y-108381051D02*
X192946051Y-108381051D01*
X192946051Y-108381051D02*
X192946051Y-113506051D01*
X199726051Y-108381051D02*
X199726051Y-109481051D01*
X201536051Y-106881051D02*
X201536051Y-108381051D01*
X201536051Y-108381051D02*
X199726051Y-108381051D01*
X199762742Y-84377500D02*
X200237258Y-84377500D01*
X199762742Y-85422500D02*
X200237258Y-85422500D01*
D11*
X109272719Y-69131900D02*
X114201879Y-69131900D01*
X114201879Y-66668100D02*
X109272719Y-66668100D01*
X116795798Y-67900000D02*
G75*
G02*
X116643398Y-67900000I-76200J0D01*
G01*
X116643398Y-67900000D02*
G75*
G02*
X116795798Y-67900000I76200J0D01*
G01*
D12*
X133945276Y-73227500D02*
X134454724Y-73227500D01*
X133945276Y-74272500D02*
X134454724Y-74272500D01*
X183023551Y-69940775D02*
X183023551Y-69431327D01*
X184068551Y-69940775D02*
X184068551Y-69431327D01*
X181236051Y-69832318D02*
X181236051Y-69539784D01*
X182256051Y-69832318D02*
X182256051Y-69539784D01*
D13*
X143583000Y-71390000D02*
G75*
G02*
X144630000Y-71540000I98151J-3043933D01*
G01*
X145439999Y-75550000D02*
G75*
G02*
X141400000Y-73740000I-1645136J1741712D01*
G01*
D12*
X202990000Y-101540000D02*
X202990000Y-109260000D01*
X202990000Y-109260000D02*
X207010000Y-109260000D01*
X203490000Y-102040000D02*
X204700000Y-102040000D01*
X203490000Y-108760000D02*
X203490000Y-102040000D01*
X204700000Y-102040000D02*
X204700000Y-101540000D01*
X204700000Y-108760000D02*
X203490000Y-108760000D01*
X204700000Y-109260000D02*
X204700000Y-108760000D01*
X204810000Y-109560000D02*
X207310000Y-109560000D01*
X205510000Y-101540000D02*
X205510000Y-102540000D01*
X205510000Y-102540000D02*
X207010000Y-102540000D01*
X205510000Y-108260000D02*
X207010000Y-108260000D01*
X205510000Y-109260000D02*
X205510000Y-108260000D01*
X207010000Y-101540000D02*
X202990000Y-101540000D01*
X207010000Y-109260000D02*
X207010000Y-101540000D01*
X207310000Y-109560000D02*
X207310000Y-107060000D01*
X202490000Y-114640000D02*
X202490000Y-117140000D01*
X202790000Y-114940000D02*
X202790000Y-122660000D01*
X202790000Y-122660000D02*
X206810000Y-122660000D01*
X204290000Y-114940000D02*
X204290000Y-115940000D01*
X204290000Y-115940000D02*
X202790000Y-115940000D01*
X204290000Y-121660000D02*
X202790000Y-121660000D01*
X204290000Y-122660000D02*
X204290000Y-121660000D01*
X204990000Y-114640000D02*
X202490000Y-114640000D01*
X205100000Y-114940000D02*
X205100000Y-115440000D01*
X205100000Y-115440000D02*
X206310000Y-115440000D01*
X205100000Y-122160000D02*
X205100000Y-122660000D01*
X206310000Y-115440000D02*
X206310000Y-122160000D01*
X206310000Y-122160000D02*
X205100000Y-122160000D01*
X206810000Y-114940000D02*
X202790000Y-114940000D01*
X206810000Y-122660000D02*
X206810000Y-114940000D01*
X142110000Y-66700000D02*
X138250000Y-66700000D01*
X142110000Y-68700000D02*
X138250000Y-68700000D01*
X142110000Y-68700000D02*
X142110000Y-66700000D01*
X176722051Y-70162051D02*
X177446051Y-70162051D01*
X176722051Y-73410051D02*
X176722051Y-70162051D01*
X177446051Y-73410051D02*
X176722051Y-73410051D01*
X179246051Y-73410051D02*
X179970051Y-73410051D01*
X179970051Y-70162051D02*
X179246051Y-70162051D01*
X179970051Y-73410051D02*
X179970051Y-70162051D01*
X143177500Y-67845276D02*
X143177500Y-68354724D01*
X144222500Y-67845276D02*
X144222500Y-68354724D01*
X187103551Y-73979784D02*
X187103551Y-74272318D01*
X188123551Y-73979784D02*
X188123551Y-74272318D01*
X179526051Y-92086051D02*
X179526051Y-92356051D01*
X179526051Y-92356051D02*
X176696051Y-92356051D01*
X179526051Y-98716051D02*
X178426051Y-98716051D01*
X179526051Y-98986051D02*
X179526051Y-98716051D01*
X185946051Y-92086051D02*
X179526051Y-92086051D01*
X185946051Y-98986051D02*
X179526051Y-98986051D01*
X185543551Y-74299818D02*
X185543551Y-74007284D01*
X186563551Y-74299818D02*
X186563551Y-74007284D01*
X120240000Y-66490000D02*
X120240000Y-66340000D01*
X120240000Y-76660000D02*
X120240000Y-76510000D01*
X130160000Y-66340000D02*
X120240000Y-66340000D01*
X130160000Y-66490000D02*
X130160000Y-66340000D01*
X130160000Y-76660000D02*
X120240000Y-76660000D01*
X130160000Y-76660000D02*
X130160000Y-76510000D01*
X130870000Y-76840000D02*
X130390000Y-76840000D01*
X130630000Y-76510000D01*
X130870000Y-76840000D01*
G36*
X130870000Y-76840000D02*
G01*
X130390000Y-76840000D01*
X130630000Y-76510000D01*
X130870000Y-76840000D01*
G37*
X164130000Y-73720000D02*
X164130000Y-83840000D01*
X164130000Y-83840000D02*
X170100000Y-83840000D01*
X164890000Y-74480000D02*
X164890000Y-78780000D01*
X164890000Y-83080000D02*
X164890000Y-78780000D01*
X167840000Y-73730000D02*
X167840000Y-74480000D01*
X167840000Y-74480000D02*
X164890000Y-74480000D01*
X167840000Y-83080000D02*
X164890000Y-83080000D01*
X167840000Y-83830000D02*
X167840000Y-83080000D01*
X169340000Y-73730000D02*
X169340000Y-75530000D01*
X169340000Y-75530000D02*
X170090000Y-75530000D01*
X169340000Y-77030000D02*
X169340000Y-80530000D01*
X169340000Y-80530000D02*
X170090000Y-80530000D01*
X169340000Y-82030000D02*
X169340000Y-83830000D01*
X169340000Y-83830000D02*
X170090000Y-83830000D01*
X170090000Y-73730000D02*
X169340000Y-73730000D01*
X170090000Y-75530000D02*
X170090000Y-73730000D01*
X170090000Y-77030000D02*
X169340000Y-77030000D01*
X170090000Y-80530000D02*
X170090000Y-77030000D01*
X170090000Y-82030000D02*
X169340000Y-82030000D01*
X170090000Y-83830000D02*
X170090000Y-82030000D01*
X170100000Y-73720000D02*
X164130000Y-73720000D01*
X170100000Y-83840000D02*
X170100000Y-73720000D01*
X170390000Y-73430000D02*
X169140000Y-73430000D01*
X170390000Y-74680000D02*
X170390000Y-73430000D01*
D11*
X189036051Y-68896051D02*
G75*
G02*
X186236051Y-68896051I-1400000J0D01*
G01*
X186236051Y-68896051D02*
G75*
G02*
X189036051Y-68896051I1400000J0D01*
G01*
D12*
X133953733Y-67490000D02*
X134246267Y-67490000D01*
X133953733Y-68510000D02*
X134246267Y-68510000D01*
X134246267Y-70690000D02*
X133953733Y-70690000D01*
X134246267Y-71710000D02*
X133953733Y-71710000D01*
X133945276Y-74977500D02*
X134454724Y-74977500D01*
X133945276Y-76022500D02*
X134454724Y-76022500D01*
D14*
X184046051Y-61116051D03*
X126896051Y-61116051D03*
X126896051Y-139856051D03*
X184046051Y-139856051D03*
%LPC*%
D15*
X141000000Y-73800000D02*
X141000000Y-71000000D01*
X143800000Y-71000000D01*
X141000000Y-73800000D01*
G36*
X141000000Y-73800000D02*
G01*
X141000000Y-71000000D01*
X143800000Y-71000000D01*
X141000000Y-73800000D01*
G37*
D16*
X133476051Y-129256051D03*
X133476051Y-113456051D03*
D17*
X133476051Y-121356051D03*
D18*
X179800000Y-105612500D03*
X179800000Y-103787500D03*
D19*
X181338949Y-103746449D03*
X181338949Y-105571449D03*
D20*
X181571051Y-72856051D03*
X181571051Y-73356051D03*
X181571051Y-73856051D03*
X181571051Y-74356051D03*
D21*
X182283551Y-75068551D03*
X182783551Y-75068551D03*
X183283551Y-75068551D03*
X183783551Y-75068551D03*
D20*
X184496051Y-74356051D03*
X184496051Y-73856051D03*
X184496051Y-73356051D03*
X184496051Y-72856051D03*
D21*
X183783551Y-72143551D03*
X183283551Y-72143551D03*
X182783551Y-72143551D03*
X182283551Y-72143551D03*
D22*
X183033551Y-73606051D03*
D23*
X198166051Y-90926051D03*
D24*
X204466051Y-93206051D03*
D23*
X198166051Y-95486051D03*
D25*
X183991051Y-76716051D03*
X185716051Y-76716051D03*
D26*
X165900000Y-89375000D03*
X165900000Y-91025000D03*
D27*
X180061051Y-109491051D03*
X181311051Y-109491051D03*
X182561051Y-109491051D03*
X183811051Y-109491051D03*
X183811051Y-107341051D03*
X182561051Y-107341051D03*
X181311051Y-107341051D03*
X180061051Y-107341051D03*
D14*
X184046051Y-61116051D03*
D28*
X199156051Y-119036051D03*
D29*
X196616051Y-128186051D03*
D28*
X194076051Y-119036051D03*
D23*
X178296051Y-123286051D03*
D24*
X184596051Y-125566051D03*
D23*
X178296051Y-127846051D03*
D14*
X126896051Y-61116051D03*
D30*
X198451051Y-87616051D03*
X200101051Y-87616051D03*
D25*
X133237500Y-69600000D03*
X134962500Y-69600000D03*
D31*
X180668551Y-111296051D03*
X178943551Y-111296051D03*
D32*
X193796051Y-111206051D03*
X196336051Y-111206051D03*
D33*
X196336051Y-102056051D03*
D32*
X198876051Y-111206051D03*
D30*
X199175000Y-84900000D03*
X200825000Y-84900000D03*
D14*
X126896051Y-139856051D03*
D34*
X108274598Y-67900000D03*
X115200000Y-67900000D03*
D14*
X184046051Y-139856051D03*
D35*
X133287500Y-73750000D03*
X135112500Y-73750000D03*
D18*
X183546051Y-70598551D03*
X183546051Y-68773551D03*
D36*
X181746051Y-70548551D03*
X181746051Y-68823551D03*
D37*
X145650000Y-73150000D03*
D38*
X204700000Y-106650000D03*
D39*
X204700000Y-104150000D03*
D40*
X205100000Y-117550000D03*
D39*
X205100000Y-120050000D03*
D41*
X141300000Y-67700000D03*
X138500000Y-67700000D03*
D42*
X178346051Y-73136051D03*
X178346051Y-70436051D03*
D19*
X143700000Y-67187500D03*
X143700000Y-69012500D03*
D43*
X187613551Y-73263551D03*
X187613551Y-74988551D03*
D23*
X177796051Y-93256051D03*
D24*
X184096051Y-95536051D03*
D23*
X177796051Y-97816051D03*
D36*
X186053551Y-75016051D03*
X186053551Y-73291051D03*
D44*
X129950000Y-75900000D03*
D45*
X129950000Y-74800000D03*
X129950000Y-73700000D03*
X129950000Y-72600000D03*
X129950000Y-71500000D03*
X129950000Y-70400000D03*
X129950000Y-69300000D03*
X129950000Y-68200000D03*
D44*
X129950000Y-67100000D03*
X120450000Y-67100000D03*
D45*
X120450000Y-68200000D03*
X120450000Y-69300000D03*
X120450000Y-70400000D03*
X120450000Y-71500000D03*
X120450000Y-72600000D03*
X120450000Y-73700000D03*
X120450000Y-74800000D03*
D44*
X120450000Y-75900000D03*
D46*
X167640000Y-76280000D03*
D47*
X167640000Y-78780000D03*
X167640000Y-81280000D03*
D48*
X187636051Y-68896051D03*
D25*
X133237500Y-68000000D03*
X134962500Y-68000000D03*
D31*
X134962500Y-71200000D03*
X133237500Y-71200000D03*
D35*
X133287500Y-75500000D03*
X135112500Y-75500000D03*
D40*
X193826051Y-90756051D03*
D39*
X193826051Y-93256051D03*
D49*
X170726051Y-116091051D03*
X170726051Y-118631051D03*
X170726051Y-121171051D03*
X170726051Y-123711051D03*
X170726051Y-113551051D03*
X170726051Y-126251051D03*
X168186051Y-126251051D03*
X165646051Y-126251051D03*
X163106051Y-126251051D03*
X160566051Y-126251051D03*
X158026051Y-126251051D03*
X155486051Y-126251051D03*
X152946051Y-126251051D03*
X150406051Y-126251051D03*
X147866051Y-126251051D03*
X145326051Y-126251051D03*
X142786051Y-126251051D03*
X168186051Y-113551051D03*
X165646051Y-113551051D03*
X163106051Y-113551051D03*
X158026051Y-113551051D03*
X160566051Y-113551051D03*
X155486051Y-113551051D03*
X152946051Y-113551051D03*
X150406051Y-113551051D03*
X147866051Y-113551051D03*
X145326051Y-113551051D03*
X142786051Y-113551051D03*
D50*
X203786051Y-79696051D03*
X203786051Y-68696051D03*
D51*
X193786051Y-71696051D03*
D52*
X193786051Y-76696051D03*
D53*
X189556051Y-73526051D03*
D54*
X189556051Y-76066051D03*
X189556051Y-78606051D03*
X189556051Y-81146051D03*
X189556051Y-83686051D03*
X189556051Y-86226051D03*
X189556051Y-88766051D03*
X189556051Y-91306051D03*
X189556051Y-93846051D03*
X189556051Y-96386051D03*
X189556051Y-98926051D03*
X189556051Y-101466051D03*
X189556051Y-104006051D03*
X189556051Y-106546051D03*
X189556051Y-109086051D03*
X189556051Y-111626051D03*
X189556051Y-114166051D03*
X189556051Y-116706051D03*
X189556051Y-119246051D03*
X189556051Y-121786051D03*
X189556051Y-124326051D03*
X189556051Y-126866051D03*
X189556051Y-129406051D03*
X189556051Y-131946051D03*
X174316051Y-131946051D03*
X174316051Y-129406051D03*
X174316051Y-126866051D03*
X174316051Y-124326051D03*
X174316051Y-121786051D03*
X174316051Y-119246051D03*
X174316051Y-116706051D03*
X174316051Y-114166051D03*
X174316051Y-111626051D03*
X174316051Y-109086051D03*
X174316051Y-106546051D03*
X174316051Y-104006051D03*
X174316051Y-101466051D03*
X174316051Y-98926051D03*
X174316051Y-96386051D03*
X174316051Y-93846051D03*
X174316051Y-91306051D03*
X174316051Y-88766051D03*
X174316051Y-86226051D03*
X174316051Y-83686051D03*
X174316051Y-81146051D03*
X174316051Y-78606051D03*
X174316051Y-76066051D03*
X174316051Y-73526051D03*
X176856051Y-76066051D03*
X187016051Y-119246051D03*
X184476051Y-119246051D03*
X181936051Y-119246051D03*
X179396051Y-119246051D03*
X176856051Y-119246051D03*
D53*
X186505251Y-79825251D03*
D54*
X186505251Y-82365251D03*
X186505251Y-84905251D03*
X186505251Y-87445251D03*
X186505251Y-89985251D03*
D55*
X176754451Y-86496051D03*
D56*
X178754451Y-86496051D03*
X180754451Y-86496051D03*
X180754451Y-88496051D03*
X178754451Y-88496051D03*
X176754451Y-88496051D03*
D46*
X169500000Y-90266051D03*
D47*
X169500000Y-92766051D03*
X169500000Y-95266051D03*
%LPD*%
M02*
