G04 #@! TF.GenerationSoftware,KiCad,Pcbnew,8.0.1*
G04 #@! TF.CreationDate,2025-04-08T18:27:35-04:00*
G04 #@! TF.ProjectId,GHOUL_V1.0,47484f55-4c5f-4563-912e-302e6b696361,rev?*
G04 #@! TF.SameCoordinates,Original*
G04 #@! TF.FileFunction,Copper,L4,Bot*
G04 #@! TF.FilePolarity,Positive*
%FSLAX46Y46*%
G04 Gerber Fmt 4.6, Leading zero omitted, Abs format (unit mm)*
G04 Created by KiCad (PCBNEW 8.0.1) date 2025-04-08 18:27:35*
%MOMM*%
%LPD*%
G01*
G04 APERTURE LIST*
G04 Aperture macros list*
%AMRoundRect*
0 Rectangle with rounded corners*
0 $1 Rounding radius*
0 $2 $3 $4 $5 $6 $7 $8 $9 X,Y pos of 4 corners*
0 Add a 4 corners polygon primitive as box body*
4,1,4,$2,$3,$4,$5,$6,$7,$8,$9,$2,$3,0*
0 Add four circle primitives for the rounded corners*
1,1,$1+$1,$2,$3*
1,1,$1+$1,$4,$5*
1,1,$1+$1,$6,$7*
1,1,$1+$1,$8,$9*
0 Add four rect primitives between the rounded corners*
20,1,$1+$1,$2,$3,$4,$5,0*
20,1,$1+$1,$4,$5,$6,$7,0*
20,1,$1+$1,$6,$7,$8,$9,0*
20,1,$1+$1,$8,$9,$2,$3,0*%
G04 Aperture macros list end*
G04 #@! TA.AperFunction,HeatsinkPad*
%ADD10C,0.500000*%
G04 #@! TD*
G04 #@! TA.AperFunction,HeatsinkPad*
%ADD11R,1.680000X1.680000*%
G04 #@! TD*
G04 #@! TA.AperFunction,ComponentPad*
%ADD12C,7.500000*%
G04 #@! TD*
G04 #@! TA.AperFunction,ComponentPad*
%ADD13RoundRect,0.250000X0.750000X-0.600000X0.750000X0.600000X-0.750000X0.600000X-0.750000X-0.600000X0*%
G04 #@! TD*
G04 #@! TA.AperFunction,ComponentPad*
%ADD14O,2.000000X1.700000*%
G04 #@! TD*
G04 #@! TA.AperFunction,ComponentPad*
%ADD15RoundRect,0.250000X-0.750000X0.600000X-0.750000X-0.600000X0.750000X-0.600000X0.750000X0.600000X0*%
G04 #@! TD*
G04 #@! TA.AperFunction,ComponentPad*
%ADD16RoundRect,0.250000X-0.725000X0.600000X-0.725000X-0.600000X0.725000X-0.600000X0.725000X0.600000X0*%
G04 #@! TD*
G04 #@! TA.AperFunction,ComponentPad*
%ADD17O,1.950000X1.700000*%
G04 #@! TD*
G04 #@! TA.AperFunction,ComponentPad*
%ADD18C,2.000000*%
G04 #@! TD*
G04 #@! TA.AperFunction,ComponentPad*
%ADD19C,1.524000*%
G04 #@! TD*
G04 #@! TA.AperFunction,ComponentPad*
%ADD20C,1.400000*%
G04 #@! TD*
G04 #@! TA.AperFunction,ComponentPad*
%ADD21R,3.500000X3.500000*%
G04 #@! TD*
G04 #@! TA.AperFunction,ComponentPad*
%ADD22C,3.500000*%
G04 #@! TD*
G04 #@! TA.AperFunction,ComponentPad*
%ADD23R,1.600000X1.600000*%
G04 #@! TD*
G04 #@! TA.AperFunction,ComponentPad*
%ADD24C,1.600000*%
G04 #@! TD*
G04 #@! TA.AperFunction,ComponentPad*
%ADD25R,1.300000X1.300000*%
G04 #@! TD*
G04 #@! TA.AperFunction,ComponentPad*
%ADD26C,1.300000*%
G04 #@! TD*
G04 #@! TA.AperFunction,ViaPad*
%ADD27C,0.800000*%
G04 #@! TD*
G04 #@! TA.AperFunction,ViaPad*
%ADD28C,1.200000*%
G04 #@! TD*
G04 #@! TA.AperFunction,Conductor*
%ADD29C,0.250000*%
G04 #@! TD*
G04 APERTURE END LIST*
D10*
X182443551Y-73016051D03*
X182443551Y-74196051D03*
D11*
X183033551Y-73606051D03*
D10*
X183623551Y-73016051D03*
X183623551Y-74196051D03*
D12*
X184046051Y-61116051D03*
X126896051Y-61116051D03*
X126896051Y-139856051D03*
X184046051Y-139856051D03*
D13*
X204700000Y-106650000D03*
D14*
X204700000Y-104150000D03*
D15*
X205100000Y-117550000D03*
D14*
X205100000Y-120050000D03*
D16*
X167640000Y-76280000D03*
D17*
X167640000Y-78780000D03*
X167640000Y-81280000D03*
D18*
X187636051Y-68896051D03*
D15*
X193826051Y-90756051D03*
D14*
X193826051Y-93256051D03*
D19*
X170726051Y-116091051D03*
X170726051Y-118631051D03*
X170726051Y-121171051D03*
X170726051Y-123711051D03*
X170726051Y-113551051D03*
X170726051Y-126251051D03*
X168186051Y-126251051D03*
X165646051Y-126251051D03*
X163106051Y-126251051D03*
X160566051Y-126251051D03*
X158026051Y-126251051D03*
X155486051Y-126251051D03*
X152946051Y-126251051D03*
X150406051Y-126251051D03*
X147866051Y-126251051D03*
X145326051Y-126251051D03*
X142786051Y-126251051D03*
X168186051Y-113551051D03*
X165646051Y-113551051D03*
X163106051Y-113551051D03*
X158026051Y-113551051D03*
X160566051Y-113551051D03*
X155486051Y-113551051D03*
X152946051Y-113551051D03*
X150406051Y-113551051D03*
X147866051Y-113551051D03*
X145326051Y-113551051D03*
X142786051Y-113551051D03*
D20*
X203786051Y-79696051D03*
X203786051Y-68696051D03*
D21*
X193786051Y-71696051D03*
D22*
X193786051Y-76696051D03*
D23*
X189556051Y-73526051D03*
D24*
X189556051Y-76066051D03*
X189556051Y-78606051D03*
X189556051Y-81146051D03*
X189556051Y-83686051D03*
X189556051Y-86226051D03*
X189556051Y-88766051D03*
X189556051Y-91306051D03*
X189556051Y-93846051D03*
X189556051Y-96386051D03*
X189556051Y-98926051D03*
X189556051Y-101466051D03*
X189556051Y-104006051D03*
X189556051Y-106546051D03*
X189556051Y-109086051D03*
X189556051Y-111626051D03*
X189556051Y-114166051D03*
X189556051Y-116706051D03*
X189556051Y-119246051D03*
X189556051Y-121786051D03*
X189556051Y-124326051D03*
X189556051Y-126866051D03*
X189556051Y-129406051D03*
X189556051Y-131946051D03*
X174316051Y-131946051D03*
X174316051Y-129406051D03*
X174316051Y-126866051D03*
X174316051Y-124326051D03*
X174316051Y-121786051D03*
X174316051Y-119246051D03*
X174316051Y-116706051D03*
X174316051Y-114166051D03*
X174316051Y-111626051D03*
X174316051Y-109086051D03*
X174316051Y-106546051D03*
X174316051Y-104006051D03*
X174316051Y-101466051D03*
X174316051Y-98926051D03*
X174316051Y-96386051D03*
X174316051Y-93846051D03*
X174316051Y-91306051D03*
X174316051Y-88766051D03*
X174316051Y-86226051D03*
X174316051Y-83686051D03*
X174316051Y-81146051D03*
X174316051Y-78606051D03*
X174316051Y-76066051D03*
X174316051Y-73526051D03*
X176856051Y-76066051D03*
X187016051Y-119246051D03*
X184476051Y-119246051D03*
X181936051Y-119246051D03*
X179396051Y-119246051D03*
X176856051Y-119246051D03*
D23*
X186505251Y-79825251D03*
D24*
X186505251Y-82365251D03*
X186505251Y-84905251D03*
X186505251Y-87445251D03*
X186505251Y-89985251D03*
D25*
X176754451Y-86496051D03*
D26*
X178754451Y-86496051D03*
X180754451Y-86496051D03*
X180754451Y-88496051D03*
X178754451Y-88496051D03*
X176754451Y-88496051D03*
D16*
X169500000Y-90266051D03*
D17*
X169500000Y-92766051D03*
X169500000Y-95266051D03*
D27*
X132271051Y-132366051D03*
X134941051Y-110586051D03*
X132351051Y-110566051D03*
X134591051Y-132316051D03*
X186996051Y-129426051D03*
X181936051Y-129386051D03*
X184536051Y-129446051D03*
X204000000Y-72000000D03*
X109000000Y-107000000D03*
X117000000Y-107000000D03*
X145000000Y-99000000D03*
X121000000Y-83000000D03*
X105000000Y-111000000D03*
X127000000Y-69000000D03*
X149000000Y-67000000D03*
X129000000Y-79000000D03*
X165000000Y-107000000D03*
X157000000Y-83000000D03*
X145000000Y-103000000D03*
X161000000Y-71000000D03*
X169000000Y-67000000D03*
X105000000Y-87000000D03*
X133000000Y-99000000D03*
X133000000Y-87000000D03*
X105000000Y-123000000D03*
X157000000Y-67000000D03*
X113000000Y-87000000D03*
X137000000Y-107000000D03*
X129000000Y-103000000D03*
X145000000Y-91000000D03*
X127000000Y-77000000D03*
X200000000Y-72000000D03*
X161000000Y-87000000D03*
X145000000Y-131000000D03*
X161000000Y-131000000D03*
X127000000Y-73000000D03*
X123000000Y-75000000D03*
X157000000Y-103000000D03*
X153000000Y-75000000D03*
X121000000Y-127000000D03*
X125000000Y-75000000D03*
X157000000Y-87000000D03*
X133000000Y-83000000D03*
X121000000Y-79000000D03*
X161000000Y-67000000D03*
X137000000Y-95000000D03*
X113000000Y-107000000D03*
X125000000Y-67000000D03*
X206000000Y-125000000D03*
X113000000Y-83000000D03*
X173000000Y-71000000D03*
X117000000Y-103000000D03*
X127000000Y-67000000D03*
X129000000Y-107000000D03*
X165000000Y-71000000D03*
X149000000Y-83000000D03*
X109000000Y-79000000D03*
X109000000Y-111000000D03*
X129000000Y-95000000D03*
X118000000Y-71000000D03*
X169000000Y-103000000D03*
X125000000Y-95000000D03*
X109000000Y-87000000D03*
X123000000Y-73000000D03*
X153000000Y-83000000D03*
X105000000Y-115000000D03*
X113000000Y-127000000D03*
X105000000Y-107000000D03*
X129000000Y-83000000D03*
X121000000Y-99000000D03*
X123000000Y-69000000D03*
X186000000Y-114000000D03*
X105000000Y-95000000D03*
X157000000Y-99000000D03*
X194000000Y-68000000D03*
X196000000Y-88000000D03*
X161000000Y-79000000D03*
X121000000Y-95000000D03*
X207000000Y-112000000D03*
X204000000Y-76000000D03*
X165000000Y-131000000D03*
X137000000Y-99000000D03*
X207000000Y-82000000D03*
X149000000Y-107000000D03*
X145000000Y-79000000D03*
X125000000Y-111000000D03*
X165000000Y-67000000D03*
X153000000Y-131000000D03*
X109000000Y-83000000D03*
X141000000Y-91000000D03*
X117000000Y-115000000D03*
X165000000Y-103000000D03*
X153000000Y-103000000D03*
X149000000Y-103000000D03*
X153000000Y-95000000D03*
X192000000Y-88000000D03*
X133000000Y-107000000D03*
X105000000Y-99000000D03*
X117000000Y-91000000D03*
X121000000Y-103000000D03*
X207000000Y-74000000D03*
X123000000Y-77000000D03*
X109000000Y-115000000D03*
X200000000Y-76000000D03*
X113000000Y-119000000D03*
X105000000Y-119000000D03*
X113000000Y-123000000D03*
X117000000Y-83000000D03*
X125000000Y-119000000D03*
X206000000Y-69000000D03*
X117000000Y-123000000D03*
X137000000Y-103000000D03*
X127000000Y-71000000D03*
X141000000Y-107000000D03*
X117000000Y-131000000D03*
X105000000Y-103000000D03*
X117000000Y-111000000D03*
X125000000Y-131000000D03*
X133000000Y-91000000D03*
X149000000Y-91000000D03*
X145000000Y-95000000D03*
X121000000Y-131000000D03*
X125000000Y-127000000D03*
X125000000Y-91000000D03*
X125000000Y-87000000D03*
X117000000Y-99000000D03*
X118000000Y-73000000D03*
X173000000Y-67000000D03*
X117000000Y-127000000D03*
X113000000Y-91000000D03*
X113000000Y-111000000D03*
X109000000Y-123000000D03*
X200000000Y-80000000D03*
X149000000Y-79000000D03*
X105000000Y-83000000D03*
X169000000Y-131000000D03*
X145000000Y-107000000D03*
X141000000Y-87000000D03*
X161000000Y-103000000D03*
X129000000Y-87000000D03*
X129000000Y-99000000D03*
X109000000Y-119000000D03*
X125000000Y-99000000D03*
X141000000Y-83000000D03*
X113000000Y-95000000D03*
X161000000Y-91000000D03*
X125000000Y-73000000D03*
X121000000Y-123000000D03*
X118000000Y-77000000D03*
X157000000Y-107000000D03*
X196000000Y-80000000D03*
X125000000Y-71000000D03*
X157000000Y-131000000D03*
X113000000Y-99000000D03*
X125000000Y-69000000D03*
X123000000Y-71000000D03*
X157000000Y-71000000D03*
X177000000Y-114000000D03*
X118000000Y-69000000D03*
X153000000Y-71000000D03*
X161000000Y-75000000D03*
X153000000Y-67000000D03*
X137000000Y-87000000D03*
X121000000Y-87000000D03*
X121000000Y-115000000D03*
X149000000Y-131000000D03*
X200000000Y-68000000D03*
X133000000Y-79000000D03*
X121000000Y-111000000D03*
X157000000Y-91000000D03*
X109000000Y-127000000D03*
X117000000Y-79000000D03*
X113000000Y-103000000D03*
X149000000Y-75000000D03*
X133000000Y-103000000D03*
X105000000Y-131000000D03*
X109000000Y-99000000D03*
X117000000Y-119000000D03*
X118000000Y-67000000D03*
X192000000Y-84000000D03*
X207493629Y-106139228D03*
X141000000Y-103000000D03*
X129000000Y-91000000D03*
X141000000Y-99000000D03*
X125000000Y-123000000D03*
X161000000Y-95000000D03*
X153000000Y-79000000D03*
X145000000Y-87000000D03*
X161000000Y-83000000D03*
X141000000Y-95000000D03*
X137000000Y-83000000D03*
X149000000Y-99000000D03*
X127000000Y-75000000D03*
X204000000Y-133000000D03*
X125000000Y-115000000D03*
X153000000Y-99000000D03*
X105000000Y-79000000D03*
X125000000Y-79000000D03*
X169000000Y-107000000D03*
X125000000Y-83000000D03*
X105000000Y-91000000D03*
X109000000Y-131000000D03*
X121000000Y-119000000D03*
X118000000Y-75000000D03*
X109000000Y-91000000D03*
X109000000Y-103000000D03*
X125000000Y-107000000D03*
X121000000Y-91000000D03*
X123000000Y-67000000D03*
X113000000Y-115000000D03*
X141000000Y-131000000D03*
X137000000Y-79000000D03*
X133000000Y-95000000D03*
X125000000Y-103000000D03*
X157000000Y-75000000D03*
X177000000Y-67000000D03*
X105000000Y-127000000D03*
X196000000Y-84000000D03*
X109000000Y-95000000D03*
X161000000Y-107000000D03*
X113000000Y-79000000D03*
X181000000Y-114000000D03*
X121000000Y-107000000D03*
X169000000Y-71000000D03*
X153000000Y-107000000D03*
X192000000Y-80000000D03*
X113000000Y-131000000D03*
X117000000Y-95000000D03*
X149000000Y-95000000D03*
X137000000Y-91000000D03*
X157000000Y-79000000D03*
X125000000Y-77000000D03*
X153000000Y-87000000D03*
X149000000Y-71000000D03*
X117000000Y-87000000D03*
X195856051Y-90886051D03*
X197800000Y-84816051D03*
X138300000Y-75900000D03*
X137300000Y-75200000D03*
D28*
X201116051Y-110026051D03*
X201136051Y-112496051D03*
D27*
X180316051Y-74366051D03*
X183566051Y-67386051D03*
X137200000Y-67700000D03*
X132200000Y-69400000D03*
D29*
X189198298Y-84816051D02*
X197800000Y-84816051D01*
X188068298Y-83686051D02*
X189198298Y-84816051D01*
X174316051Y-83686051D02*
X188068298Y-83686051D01*
X186466051Y-80877251D02*
X187557251Y-80877251D01*
X174276051Y-82206051D02*
X185137251Y-82206051D01*
X185137251Y-82206051D02*
X186466051Y-80877251D01*
X173264051Y-83218051D02*
X174276051Y-82206051D01*
X173264051Y-89338051D02*
X173264051Y-83218051D01*
X187557251Y-80877251D02*
X189556051Y-78878451D01*
X189556051Y-78878451D02*
X189556051Y-78606051D01*
X169836051Y-92766051D02*
X173264051Y-89338051D01*
X138300000Y-75900000D02*
X162387551Y-99987551D01*
X162387551Y-99987551D02*
X185954551Y-99987551D01*
X185954551Y-99987551D02*
X189556051Y-96386051D01*
X139200000Y-75200000D02*
X163336051Y-99336051D01*
X137300000Y-75200000D02*
X139200000Y-75200000D01*
X163336051Y-99336051D02*
X172418298Y-99336051D01*
X174316298Y-97438051D02*
X185964051Y-97438051D01*
X172418298Y-99336051D02*
X174316298Y-97438051D01*
X185964051Y-97438051D02*
X189556051Y-93846051D01*
X170776051Y-123716051D02*
X171538050Y-122954052D01*
X188184052Y-122954052D02*
X189556051Y-124326051D01*
X171538050Y-122954052D02*
X188184052Y-122954052D01*
X188184052Y-120414052D02*
X189556051Y-121786051D01*
X170776051Y-121176051D02*
X171538050Y-120414052D01*
X171538050Y-120414052D02*
X188184052Y-120414052D01*
X183566051Y-67386051D02*
X181476051Y-67386051D01*
X181476051Y-67386051D02*
X180316051Y-68546051D01*
X180316051Y-68546051D02*
X180316051Y-74366051D01*
G04 #@! TA.AperFunction,Conductor*
G36*
X203037745Y-74264357D02*
G01*
X203056051Y-74308551D01*
X203056051Y-79288701D01*
X203047678Y-79319950D01*
X203025927Y-79357623D01*
X203025927Y-79357625D01*
X202972175Y-79523054D01*
X202953993Y-79696051D01*
X202972175Y-79869047D01*
X203025927Y-80034476D01*
X203025928Y-80034480D01*
X203035482Y-80051028D01*
X203047677Y-80072150D01*
X203056051Y-80103399D01*
X203056051Y-114283551D01*
X203037745Y-114327745D01*
X202993551Y-114346051D01*
X191198551Y-114346051D01*
X191154357Y-114327745D01*
X191136051Y-114283551D01*
X191136051Y-93352326D01*
X192698551Y-93352326D01*
X192736115Y-93541177D01*
X192736117Y-93541185D01*
X192809801Y-93719071D01*
X192916777Y-93879171D01*
X193052931Y-94015325D01*
X193213031Y-94122301D01*
X193292350Y-94155156D01*
X193390916Y-94195984D01*
X193390920Y-94195985D01*
X193390925Y-94195987D01*
X193579776Y-94233551D01*
X194072326Y-94233551D01*
X194261177Y-94195987D01*
X194261183Y-94195984D01*
X194261185Y-94195984D01*
X194303662Y-94178388D01*
X194439071Y-94122301D01*
X194599171Y-94015325D01*
X194735325Y-93879171D01*
X194842301Y-93719071D01*
X194915987Y-93541177D01*
X194953551Y-93352326D01*
X194953551Y-93159776D01*
X194915987Y-92970925D01*
X194915985Y-92970920D01*
X194915984Y-92970916D01*
X194875156Y-92872350D01*
X194842301Y-92793031D01*
X194735325Y-92632931D01*
X194599171Y-92496777D01*
X194599170Y-92496776D01*
X194439073Y-92389802D01*
X194439071Y-92389801D01*
X194261185Y-92316117D01*
X194261177Y-92316115D01*
X194072326Y-92278551D01*
X193579776Y-92278551D01*
X193390924Y-92316115D01*
X193390916Y-92316117D01*
X193213030Y-92389801D01*
X193213028Y-92389802D01*
X193052931Y-92496776D01*
X192916776Y-92632931D01*
X192809802Y-92793028D01*
X192809801Y-92793030D01*
X192736117Y-92970916D01*
X192736115Y-92970924D01*
X192698551Y-93159775D01*
X192698551Y-93352326D01*
X191136051Y-93352326D01*
X191136051Y-90886052D01*
X195323999Y-90886052D01*
X195342126Y-91023749D01*
X195342127Y-91023752D01*
X195342128Y-91023756D01*
X195395280Y-91152077D01*
X195479833Y-91262269D01*
X195590025Y-91346822D01*
X195718346Y-91399974D01*
X195718350Y-91399974D01*
X195718352Y-91399975D01*
X195856049Y-91418103D01*
X195856051Y-91418103D01*
X195856053Y-91418103D01*
X195993749Y-91399975D01*
X195993749Y-91399974D01*
X195993756Y-91399974D01*
X196122077Y-91346822D01*
X196232269Y-91262269D01*
X196316822Y-91152077D01*
X196369974Y-91023756D01*
X196388103Y-90886051D01*
X196369974Y-90748346D01*
X196316822Y-90620025D01*
X196232269Y-90509833D01*
X196122077Y-90425280D01*
X195993756Y-90372128D01*
X195993753Y-90372127D01*
X195993752Y-90372127D01*
X195993749Y-90372126D01*
X195856053Y-90353999D01*
X195856049Y-90353999D01*
X195718352Y-90372126D01*
X195718349Y-90372127D01*
X195718346Y-90372127D01*
X195718346Y-90372128D01*
X195590025Y-90425280D01*
X195479833Y-90509833D01*
X195395280Y-90620025D01*
X195342127Y-90748349D01*
X195342126Y-90748352D01*
X195323999Y-90886049D01*
X195323999Y-90886052D01*
X191136051Y-90886052D01*
X191136051Y-88000001D01*
X191467948Y-88000001D01*
X191486075Y-88137698D01*
X191486076Y-88137701D01*
X191486077Y-88137705D01*
X191539229Y-88266026D01*
X191623782Y-88376218D01*
X191733974Y-88460771D01*
X191862295Y-88513923D01*
X191862299Y-88513923D01*
X191862301Y-88513924D01*
X191999998Y-88532052D01*
X192000000Y-88532052D01*
X192000002Y-88532052D01*
X192137698Y-88513924D01*
X192137698Y-88513923D01*
X192137705Y-88513923D01*
X192266026Y-88460771D01*
X192376218Y-88376218D01*
X192460771Y-88266026D01*
X192513923Y-88137705D01*
X192532052Y-88000001D01*
X195467948Y-88000001D01*
X195486075Y-88137698D01*
X195486076Y-88137701D01*
X195486077Y-88137705D01*
X195539229Y-88266026D01*
X195623782Y-88376218D01*
X195733974Y-88460771D01*
X195862295Y-88513923D01*
X195862299Y-88513923D01*
X195862301Y-88513924D01*
X195999998Y-88532052D01*
X196000000Y-88532052D01*
X196000002Y-88532052D01*
X196137698Y-88513924D01*
X196137698Y-88513923D01*
X196137705Y-88513923D01*
X196266026Y-88460771D01*
X196376218Y-88376218D01*
X196460771Y-88266026D01*
X196513923Y-88137705D01*
X196532052Y-88000000D01*
X196513923Y-87862295D01*
X196460771Y-87733974D01*
X196376218Y-87623782D01*
X196266026Y-87539229D01*
X196137705Y-87486077D01*
X196137702Y-87486076D01*
X196137701Y-87486076D01*
X196137698Y-87486075D01*
X196000002Y-87467948D01*
X195999998Y-87467948D01*
X195862301Y-87486075D01*
X195862298Y-87486076D01*
X195862295Y-87486076D01*
X195862295Y-87486077D01*
X195733974Y-87539229D01*
X195623782Y-87623782D01*
X195539229Y-87733974D01*
X195486076Y-87862298D01*
X195486075Y-87862301D01*
X195467948Y-87999998D01*
X195467948Y-88000001D01*
X192532052Y-88000001D01*
X192532052Y-88000000D01*
X192513923Y-87862295D01*
X192460771Y-87733974D01*
X192376218Y-87623782D01*
X192266026Y-87539229D01*
X192137705Y-87486077D01*
X192137702Y-87486076D01*
X192137701Y-87486076D01*
X192137698Y-87486075D01*
X192000002Y-87467948D01*
X191999998Y-87467948D01*
X191862301Y-87486075D01*
X191862298Y-87486076D01*
X191862295Y-87486076D01*
X191862295Y-87486077D01*
X191733974Y-87539229D01*
X191623782Y-87623782D01*
X191539229Y-87733974D01*
X191486076Y-87862298D01*
X191486075Y-87862301D01*
X191467948Y-87999998D01*
X191467948Y-88000001D01*
X191136051Y-88000001D01*
X191136051Y-85131051D01*
X191154357Y-85086857D01*
X191198551Y-85068551D01*
X197298029Y-85068551D01*
X197342223Y-85086857D01*
X197347610Y-85092999D01*
X197423782Y-85192269D01*
X197533974Y-85276822D01*
X197662295Y-85329974D01*
X197662299Y-85329974D01*
X197662301Y-85329975D01*
X197799998Y-85348103D01*
X197800000Y-85348103D01*
X197800002Y-85348103D01*
X197937698Y-85329975D01*
X197937698Y-85329974D01*
X197937705Y-85329974D01*
X198066026Y-85276822D01*
X198176218Y-85192269D01*
X198260771Y-85082077D01*
X198313923Y-84953756D01*
X198332052Y-84816051D01*
X198313923Y-84678346D01*
X198260771Y-84550025D01*
X198176218Y-84439833D01*
X198066026Y-84355280D01*
X197937705Y-84302128D01*
X197937702Y-84302127D01*
X197937701Y-84302127D01*
X197937698Y-84302126D01*
X197800002Y-84283999D01*
X197799998Y-84283999D01*
X197662301Y-84302126D01*
X197662298Y-84302127D01*
X197662295Y-84302127D01*
X197662295Y-84302128D01*
X197533974Y-84355280D01*
X197423780Y-84439834D01*
X197347614Y-84539098D01*
X197306187Y-84563016D01*
X197298029Y-84563551D01*
X196316199Y-84563551D01*
X196272005Y-84545245D01*
X196253699Y-84501051D01*
X196272005Y-84456857D01*
X196278148Y-84451469D01*
X196376218Y-84376218D01*
X196460771Y-84266026D01*
X196513923Y-84137705D01*
X196532052Y-84000000D01*
X196513923Y-83862295D01*
X196460771Y-83733974D01*
X196376218Y-83623782D01*
X196266026Y-83539229D01*
X196137705Y-83486077D01*
X196137702Y-83486076D01*
X196137701Y-83486076D01*
X196137698Y-83486075D01*
X196000002Y-83467948D01*
X195999998Y-83467948D01*
X195862301Y-83486075D01*
X195862298Y-83486076D01*
X195862295Y-83486076D01*
X195862295Y-83486077D01*
X195733974Y-83539229D01*
X195623782Y-83623782D01*
X195539229Y-83733974D01*
X195486076Y-83862298D01*
X195486075Y-83862301D01*
X195467948Y-83999998D01*
X195467948Y-84000001D01*
X195486075Y-84137698D01*
X195486076Y-84137701D01*
X195486077Y-84137705D01*
X195539229Y-84266026D01*
X195623782Y-84376218D01*
X195721848Y-84451466D01*
X195745766Y-84492893D01*
X195733386Y-84539098D01*
X195691959Y-84563016D01*
X195683801Y-84563551D01*
X192316199Y-84563551D01*
X192272005Y-84545245D01*
X192253699Y-84501051D01*
X192272005Y-84456857D01*
X192278148Y-84451469D01*
X192376218Y-84376218D01*
X192460771Y-84266026D01*
X192513923Y-84137705D01*
X192532052Y-84000000D01*
X192513923Y-83862295D01*
X192460771Y-83733974D01*
X192376218Y-83623782D01*
X192266026Y-83539229D01*
X192137705Y-83486077D01*
X192137702Y-83486076D01*
X192137701Y-83486076D01*
X192137698Y-83486075D01*
X192000002Y-83467948D01*
X191999998Y-83467948D01*
X191862301Y-83486075D01*
X191862298Y-83486076D01*
X191862295Y-83486076D01*
X191862295Y-83486077D01*
X191733974Y-83539229D01*
X191623782Y-83623782D01*
X191539229Y-83733974D01*
X191486076Y-83862298D01*
X191486075Y-83862301D01*
X191467948Y-83999998D01*
X191467948Y-84000001D01*
X191486075Y-84137698D01*
X191486076Y-84137701D01*
X191486077Y-84137705D01*
X191539229Y-84266026D01*
X191623782Y-84376218D01*
X191721848Y-84451466D01*
X191745766Y-84492893D01*
X191733386Y-84539098D01*
X191691959Y-84563016D01*
X191683801Y-84563551D01*
X191198551Y-84563551D01*
X191154357Y-84545245D01*
X191136051Y-84501051D01*
X191136051Y-80000001D01*
X191467948Y-80000001D01*
X191486075Y-80137698D01*
X191486076Y-80137701D01*
X191486077Y-80137705D01*
X191539229Y-80266026D01*
X191623782Y-80376218D01*
X191733974Y-80460771D01*
X191862295Y-80513923D01*
X191862299Y-80513923D01*
X191862301Y-80513924D01*
X191999998Y-80532052D01*
X192000000Y-80532052D01*
X192000002Y-80532052D01*
X192137698Y-80513924D01*
X192137698Y-80513923D01*
X192137705Y-80513923D01*
X192266026Y-80460771D01*
X192376218Y-80376218D01*
X192460771Y-80266026D01*
X192513923Y-80137705D01*
X192513924Y-80137698D01*
X192532052Y-80000001D01*
X195467948Y-80000001D01*
X195486075Y-80137698D01*
X195486076Y-80137701D01*
X195486077Y-80137705D01*
X195539229Y-80266026D01*
X195623782Y-80376218D01*
X195733974Y-80460771D01*
X195862295Y-80513923D01*
X195862299Y-80513923D01*
X195862301Y-80513924D01*
X195999998Y-80532052D01*
X196000000Y-80532052D01*
X196000002Y-80532052D01*
X196137698Y-80513924D01*
X196137698Y-80513923D01*
X196137705Y-80513923D01*
X196266026Y-80460771D01*
X196376218Y-80376218D01*
X196460771Y-80266026D01*
X196513923Y-80137705D01*
X196513924Y-80137698D01*
X196532052Y-80000001D01*
X199467948Y-80000001D01*
X199486075Y-80137698D01*
X199486076Y-80137701D01*
X199486077Y-80137705D01*
X199539229Y-80266026D01*
X199623782Y-80376218D01*
X199733974Y-80460771D01*
X199862295Y-80513923D01*
X199862299Y-80513923D01*
X199862301Y-80513924D01*
X199999998Y-80532052D01*
X200000000Y-80532052D01*
X200000002Y-80532052D01*
X200137698Y-80513924D01*
X200137698Y-80513923D01*
X200137705Y-80513923D01*
X200266026Y-80460771D01*
X200376218Y-80376218D01*
X200460771Y-80266026D01*
X200513923Y-80137705D01*
X200513924Y-80137698D01*
X200532052Y-80000001D01*
X200532052Y-79999998D01*
X200513924Y-79862301D01*
X200513923Y-79862298D01*
X200513923Y-79862295D01*
X200460771Y-79733974D01*
X200376218Y-79623782D01*
X200266026Y-79539229D01*
X200137705Y-79486077D01*
X200137702Y-79486076D01*
X200137701Y-79486076D01*
X200137698Y-79486075D01*
X200000002Y-79467948D01*
X199999998Y-79467948D01*
X199862301Y-79486075D01*
X199862298Y-79486076D01*
X199862295Y-79486076D01*
X199862295Y-79486077D01*
X199773024Y-79523054D01*
X199733974Y-79539229D01*
X199623782Y-79623782D01*
X199539229Y-79733974D01*
X199486076Y-79862298D01*
X199486075Y-79862301D01*
X199467948Y-79999998D01*
X199467948Y-80000001D01*
X196532052Y-80000001D01*
X196532052Y-79999998D01*
X196513924Y-79862301D01*
X196513923Y-79862298D01*
X196513923Y-79862295D01*
X196460771Y-79733974D01*
X196376218Y-79623782D01*
X196266026Y-79539229D01*
X196137705Y-79486077D01*
X196137702Y-79486076D01*
X196137701Y-79486076D01*
X196137698Y-79486075D01*
X196000002Y-79467948D01*
X195999998Y-79467948D01*
X195862301Y-79486075D01*
X195862298Y-79486076D01*
X195862295Y-79486076D01*
X195862295Y-79486077D01*
X195773024Y-79523054D01*
X195733974Y-79539229D01*
X195623782Y-79623782D01*
X195539229Y-79733974D01*
X195486076Y-79862298D01*
X195486075Y-79862301D01*
X195467948Y-79999998D01*
X195467948Y-80000001D01*
X192532052Y-80000001D01*
X192532052Y-79999998D01*
X192513924Y-79862301D01*
X192513923Y-79862298D01*
X192513923Y-79862295D01*
X192460771Y-79733974D01*
X192376218Y-79623782D01*
X192266026Y-79539229D01*
X192137705Y-79486077D01*
X192137702Y-79486076D01*
X192137701Y-79486076D01*
X192137698Y-79486075D01*
X192000002Y-79467948D01*
X191999998Y-79467948D01*
X191862301Y-79486075D01*
X191862298Y-79486076D01*
X191862295Y-79486076D01*
X191862295Y-79486077D01*
X191773024Y-79523054D01*
X191733974Y-79539229D01*
X191623782Y-79623782D01*
X191539229Y-79733974D01*
X191486076Y-79862298D01*
X191486075Y-79862301D01*
X191467948Y-79999998D01*
X191467948Y-80000001D01*
X191136051Y-80000001D01*
X191136051Y-76000001D01*
X199467948Y-76000001D01*
X199486075Y-76137698D01*
X199486076Y-76137701D01*
X199486077Y-76137705D01*
X199539229Y-76266026D01*
X199623782Y-76376218D01*
X199733974Y-76460771D01*
X199862295Y-76513923D01*
X199862299Y-76513923D01*
X199862301Y-76513924D01*
X199999998Y-76532052D01*
X200000000Y-76532052D01*
X200000002Y-76532052D01*
X200137698Y-76513924D01*
X200137698Y-76513923D01*
X200137705Y-76513923D01*
X200266026Y-76460771D01*
X200376218Y-76376218D01*
X200460771Y-76266026D01*
X200513923Y-76137705D01*
X200532052Y-76000000D01*
X200513923Y-75862295D01*
X200460771Y-75733974D01*
X200376218Y-75623782D01*
X200266026Y-75539229D01*
X200137705Y-75486077D01*
X200137702Y-75486076D01*
X200137701Y-75486076D01*
X200137698Y-75486075D01*
X200000002Y-75467948D01*
X199999998Y-75467948D01*
X199862301Y-75486075D01*
X199862298Y-75486076D01*
X199862295Y-75486076D01*
X199862295Y-75486077D01*
X199733974Y-75539229D01*
X199623782Y-75623782D01*
X199539229Y-75733974D01*
X199486076Y-75862298D01*
X199486075Y-75862301D01*
X199467948Y-75999998D01*
X199467948Y-76000001D01*
X191136051Y-76000001D01*
X191136051Y-74308551D01*
X191154357Y-74264357D01*
X191198551Y-74246051D01*
X202993551Y-74246051D01*
X203037745Y-74264357D01*
G37*
G04 #@! TD.AperFunction*
G04 #@! TA.AperFunction,Conductor*
G36*
X174632775Y-82951983D02*
G01*
X174633291Y-82952212D01*
X175909368Y-83557879D01*
X175915372Y-83564522D01*
X175916051Y-83568449D01*
X175916051Y-83803652D01*
X175912624Y-83811925D01*
X175909368Y-83814222D01*
X174633302Y-84419884D01*
X174624358Y-84420335D01*
X174617715Y-84414331D01*
X174617481Y-84413804D01*
X174587949Y-84342741D01*
X174316915Y-83690538D01*
X174316905Y-83681589D01*
X174617481Y-82958296D01*
X174623820Y-82951972D01*
X174632775Y-82951983D01*
G37*
G04 #@! TD.AperFunction*
G04 #@! TA.AperFunction,Conductor*
G36*
X188829865Y-78305237D02*
G01*
X189552263Y-78603488D01*
X189558602Y-78609813D01*
X189558613Y-78609838D01*
X189858035Y-79335071D01*
X189858024Y-79344026D01*
X189852430Y-79350012D01*
X188683893Y-79931171D01*
X188674959Y-79931787D01*
X188670410Y-79928968D01*
X188504101Y-79762659D01*
X188500674Y-79754386D01*
X188500941Y-79751906D01*
X188813973Y-78313564D01*
X188819080Y-78306211D01*
X188827893Y-78304622D01*
X188829865Y-78305237D01*
G37*
G04 #@! TD.AperFunction*
G04 #@! TA.AperFunction,Conductor*
G36*
X170835275Y-91595611D02*
G01*
X170837145Y-91597130D01*
X171003669Y-91763654D01*
X171007096Y-91771927D01*
X171006012Y-91776845D01*
X170359619Y-93172280D01*
X170353033Y-93178346D01*
X170344085Y-93177978D01*
X170343882Y-93177882D01*
X169503636Y-92768872D01*
X169497706Y-92762195D01*
X169213543Y-91944953D01*
X169214063Y-91936013D01*
X169220751Y-91930059D01*
X169222191Y-91929659D01*
X170826476Y-91593951D01*
X170835275Y-91595611D01*
G37*
G04 #@! TD.AperFunction*
G04 #@! TA.AperFunction,Conductor*
G36*
X138668044Y-75751253D02*
G01*
X138674206Y-75757239D01*
X138950747Y-76369928D01*
X138951027Y-76378878D01*
X138948356Y-76383014D01*
X138783014Y-76548356D01*
X138774741Y-76551783D01*
X138769928Y-76550747D01*
X138157239Y-76274206D01*
X138151108Y-76267679D01*
X138151232Y-76259090D01*
X138297437Y-75903802D01*
X138303753Y-75897457D01*
X138659090Y-75751232D01*
X138668044Y-75751253D01*
G37*
G04 #@! TD.AperFunction*
G04 #@! TA.AperFunction,Conductor*
G36*
X188828303Y-96084592D02*
G01*
X188844990Y-96091482D01*
X189552263Y-96383488D01*
X189558602Y-96389813D01*
X189558613Y-96389838D01*
X189857507Y-97113794D01*
X189857496Y-97122749D01*
X189851157Y-97129074D01*
X189850619Y-97129280D01*
X188520038Y-97603326D01*
X188511094Y-97602875D01*
X188507838Y-97600578D01*
X188341523Y-97434263D01*
X188338096Y-97425990D01*
X188338773Y-97422069D01*
X188812822Y-96091479D01*
X188818825Y-96084839D01*
X188827769Y-96084388D01*
X188828303Y-96084592D01*
G37*
G04 #@! TD.AperFunction*
G04 #@! TA.AperFunction,Conductor*
G36*
X137480696Y-74840890D02*
G01*
X138092437Y-75072141D01*
X138098964Y-75078272D01*
X138100000Y-75083085D01*
X138100000Y-75316914D01*
X138096573Y-75325187D01*
X138092437Y-75327858D01*
X137463655Y-75565551D01*
X137454705Y-75565271D01*
X137448719Y-75559109D01*
X137352306Y-75327858D01*
X137300875Y-75204499D01*
X137300855Y-75195550D01*
X137448719Y-74840889D01*
X137455066Y-74834572D01*
X137463654Y-74834448D01*
X137480696Y-74840890D01*
G37*
G04 #@! TD.AperFunction*
G04 #@! TA.AperFunction,Conductor*
G36*
X188828303Y-93544592D02*
G01*
X188844990Y-93551482D01*
X189552263Y-93843488D01*
X189558602Y-93849813D01*
X189558613Y-93849838D01*
X189857507Y-94573794D01*
X189857496Y-94582749D01*
X189851157Y-94589074D01*
X189850619Y-94589280D01*
X188520038Y-95063326D01*
X188511094Y-95062875D01*
X188507838Y-95060578D01*
X188341523Y-94894263D01*
X188338096Y-94885990D01*
X188338773Y-94882069D01*
X188812822Y-93551479D01*
X188818825Y-93544839D01*
X188827769Y-93544388D01*
X188828303Y-93544592D01*
G37*
G04 #@! TD.AperFunction*
G04 #@! TA.AperFunction,Conductor*
G36*
X171940588Y-122832916D02*
G01*
X171944809Y-122840814D01*
X171944865Y-122841960D01*
X171944865Y-123076011D01*
X171943385Y-123081707D01*
X171435117Y-123993560D01*
X171428095Y-123999118D01*
X171420425Y-123998676D01*
X170732289Y-123714044D01*
X170725954Y-123707715D01*
X170725061Y-123703217D01*
X170726037Y-122959642D01*
X170729475Y-122951373D01*
X170736590Y-122948013D01*
X171932020Y-122830316D01*
X171940588Y-122832916D01*
G37*
G04 #@! TD.AperFunction*
G04 #@! TA.AperFunction,Conductor*
G36*
X188520033Y-123108774D02*
G01*
X189850620Y-123582822D01*
X189857262Y-123588825D01*
X189857713Y-123597769D01*
X189857507Y-123598307D01*
X189558613Y-124322263D01*
X189552288Y-124328602D01*
X189552263Y-124328613D01*
X188828307Y-124627507D01*
X188819352Y-124627496D01*
X188813027Y-124621157D01*
X188812831Y-124620647D01*
X188338775Y-123290035D01*
X188339226Y-123281094D01*
X188341520Y-123277841D01*
X188507839Y-123111522D01*
X188516111Y-123108096D01*
X188520033Y-123108774D01*
G37*
G04 #@! TD.AperFunction*
G04 #@! TA.AperFunction,Conductor*
G36*
X188520033Y-120568774D02*
G01*
X189850620Y-121042822D01*
X189857262Y-121048825D01*
X189857713Y-121057769D01*
X189857507Y-121058307D01*
X189558613Y-121782263D01*
X189552288Y-121788602D01*
X189552263Y-121788613D01*
X188828307Y-122087507D01*
X188819352Y-122087496D01*
X188813027Y-122081157D01*
X188812831Y-122080647D01*
X188338775Y-120750035D01*
X188339226Y-120741094D01*
X188341520Y-120737841D01*
X188507839Y-120571522D01*
X188516111Y-120568096D01*
X188520033Y-120568774D01*
G37*
G04 #@! TD.AperFunction*
G04 #@! TA.AperFunction,Conductor*
G36*
X171940588Y-120292916D02*
G01*
X171944809Y-120300814D01*
X171944865Y-120301960D01*
X171944865Y-120536011D01*
X171943385Y-120541707D01*
X171435117Y-121453560D01*
X171428095Y-121459118D01*
X171420425Y-121458676D01*
X170732289Y-121174044D01*
X170725954Y-121167715D01*
X170725061Y-121163217D01*
X170726037Y-120419642D01*
X170729475Y-120411373D01*
X170736590Y-120408013D01*
X171932020Y-120290316D01*
X171940588Y-120292916D01*
G37*
G04 #@! TD.AperFunction*
G04 #@! TA.AperFunction,Conductor*
G36*
X183411345Y-67020779D02*
G01*
X183417331Y-67026941D01*
X183565174Y-67381549D01*
X183565195Y-67390503D01*
X183565174Y-67390553D01*
X183417331Y-67745160D01*
X183410984Y-67751478D01*
X183402395Y-67751602D01*
X182773614Y-67513909D01*
X182767087Y-67507778D01*
X182766051Y-67502965D01*
X182766051Y-67269136D01*
X182769478Y-67260863D01*
X182773614Y-67258192D01*
X183402396Y-67020499D01*
X183411345Y-67020779D01*
G37*
G04 #@! TD.AperFunction*
G04 #@! TA.AperFunction,Conductor*
G36*
X180441239Y-73569478D02*
G01*
X180443910Y-73573614D01*
X180681602Y-74202395D01*
X180681322Y-74211345D01*
X180675160Y-74217331D01*
X180320553Y-74365174D01*
X180311599Y-74365195D01*
X180311549Y-74365174D01*
X179956941Y-74217331D01*
X179950623Y-74210984D01*
X179950499Y-74202396D01*
X180188192Y-73573613D01*
X180194323Y-73567087D01*
X180199136Y-73566051D01*
X180432966Y-73566051D01*
X180441239Y-73569478D01*
G37*
G04 #@! TD.AperFunction*
M02*
