G04 #@! TF.GenerationSoftware,KiCad,Pcbnew,9.0.1*
G04 #@! TF.CreationDate,2025-10-31T13:55:31-04:00*
G04 #@! TF.ProjectId,GHOUL_V1.0,47484f55-4c5f-4563-912e-302e6b696361,rev?*
G04 #@! TF.SameCoordinates,Original*
G04 #@! TF.FileFunction,Copper,L2,Inr*
G04 #@! TF.FilePolarity,Positive*
%FSLAX46Y46*%
G04 Gerber Fmt 4.6, Leading zero omitted, Abs format (unit mm)*
G04 Created by KiCad (PCBNEW 9.0.1) date 2025-10-31 13:55:31*
%MOMM*%
%LPD*%
G01*
G04 APERTURE LIST*
G04 Aperture macros list*
%AMRoundRect*
0 Rectangle with rounded corners*
0 $1 Rounding radius*
0 $2 $3 $4 $5 $6 $7 $8 $9 X,Y pos of 4 corners*
0 Add a 4 corners polygon primitive as box body*
4,1,4,$2,$3,$4,$5,$6,$7,$8,$9,$2,$3,0*
0 Add four circle primitives for the rounded corners*
1,1,$1+$1,$2,$3*
1,1,$1+$1,$4,$5*
1,1,$1+$1,$6,$7*
1,1,$1+$1,$8,$9*
0 Add four rect primitives between the rounded corners*
20,1,$1+$1,$2,$3,$4,$5,0*
20,1,$1+$1,$4,$5,$6,$7,0*
20,1,$1+$1,$6,$7,$8,$9,0*
20,1,$1+$1,$8,$9,$2,$3,0*%
G04 Aperture macros list end*
G04 #@! TA.AperFunction,HeatsinkPad*
%ADD10C,0.500000*%
G04 #@! TD*
G04 #@! TA.AperFunction,ComponentPad*
%ADD11C,7.500000*%
G04 #@! TD*
G04 #@! TA.AperFunction,ComponentPad*
%ADD12RoundRect,0.250000X0.750000X-0.600000X0.750000X0.600000X-0.750000X0.600000X-0.750000X-0.600000X0*%
G04 #@! TD*
G04 #@! TA.AperFunction,ComponentPad*
%ADD13O,2.000000X1.700000*%
G04 #@! TD*
G04 #@! TA.AperFunction,ComponentPad*
%ADD14RoundRect,0.250000X-0.750000X0.600000X-0.750000X-0.600000X0.750000X-0.600000X0.750000X0.600000X0*%
G04 #@! TD*
G04 #@! TA.AperFunction,ComponentPad*
%ADD15RoundRect,0.250000X-0.725000X0.600000X-0.725000X-0.600000X0.725000X-0.600000X0.725000X0.600000X0*%
G04 #@! TD*
G04 #@! TA.AperFunction,ComponentPad*
%ADD16O,1.950000X1.700000*%
G04 #@! TD*
G04 #@! TA.AperFunction,ComponentPad*
%ADD17C,2.000000*%
G04 #@! TD*
G04 #@! TA.AperFunction,ComponentPad*
%ADD18C,1.524000*%
G04 #@! TD*
G04 #@! TA.AperFunction,ComponentPad*
%ADD19C,1.400000*%
G04 #@! TD*
G04 #@! TA.AperFunction,ComponentPad*
%ADD20R,3.500000X3.500000*%
G04 #@! TD*
G04 #@! TA.AperFunction,ComponentPad*
%ADD21C,3.500000*%
G04 #@! TD*
G04 #@! TA.AperFunction,ComponentPad*
%ADD22R,1.600000X1.600000*%
G04 #@! TD*
G04 #@! TA.AperFunction,ComponentPad*
%ADD23C,1.600000*%
G04 #@! TD*
G04 #@! TA.AperFunction,ComponentPad*
%ADD24R,1.300000X1.300000*%
G04 #@! TD*
G04 #@! TA.AperFunction,ComponentPad*
%ADD25C,1.300000*%
G04 #@! TD*
G04 #@! TA.AperFunction,ViaPad*
%ADD26C,0.800000*%
G04 #@! TD*
G04 #@! TA.AperFunction,ViaPad*
%ADD27C,1.200000*%
G04 #@! TD*
G04 APERTURE END LIST*
D10*
X182443551Y-73016051D03*
X182443551Y-74196051D03*
X183623551Y-73016051D03*
X183623551Y-74196051D03*
D11*
X184046051Y-61116051D03*
X126896051Y-61116051D03*
X126896051Y-139856051D03*
X184046051Y-139856051D03*
D12*
X204700000Y-106650000D03*
D13*
X204700000Y-104150000D03*
D14*
X205100000Y-117550000D03*
D13*
X205100000Y-120050000D03*
D15*
X167640000Y-76280000D03*
D16*
X167640000Y-78780000D03*
X167640000Y-81280000D03*
D17*
X187636051Y-68896051D03*
D14*
X193826051Y-90756051D03*
D13*
X193826051Y-93256051D03*
D18*
X170726051Y-116091051D03*
X170726051Y-118631051D03*
X170726051Y-121171051D03*
X170726051Y-123711051D03*
X170726051Y-113551051D03*
X170726051Y-126251051D03*
X168186051Y-126251051D03*
X165646051Y-126251051D03*
X163106051Y-126251051D03*
X160566051Y-126251051D03*
X158026051Y-126251051D03*
X155486051Y-126251051D03*
X152946051Y-126251051D03*
X150406051Y-126251051D03*
X147866051Y-126251051D03*
X145326051Y-126251051D03*
X142786051Y-126251051D03*
X168186051Y-113551051D03*
X165646051Y-113551051D03*
X163106051Y-113551051D03*
X158026051Y-113551051D03*
X160566051Y-113551051D03*
X155486051Y-113551051D03*
X152946051Y-113551051D03*
X150406051Y-113551051D03*
X147866051Y-113551051D03*
X145326051Y-113551051D03*
X142786051Y-113551051D03*
D19*
X203786051Y-79696051D03*
X203786051Y-68696051D03*
D20*
X193786051Y-71696051D03*
D21*
X193786051Y-76696051D03*
D22*
X189556051Y-73526051D03*
D23*
X189556051Y-76066051D03*
X189556051Y-78606051D03*
X189556051Y-81146051D03*
X189556051Y-83686051D03*
X189556051Y-86226051D03*
X189556051Y-88766051D03*
X189556051Y-91306051D03*
X189556051Y-93846051D03*
X189556051Y-96386051D03*
X189556051Y-98926051D03*
X189556051Y-101466051D03*
X189556051Y-104006051D03*
X189556051Y-106546051D03*
X189556051Y-109086051D03*
X189556051Y-111626051D03*
X189556051Y-114166051D03*
X189556051Y-116706051D03*
X189556051Y-119246051D03*
X189556051Y-121786051D03*
X189556051Y-124326051D03*
X189556051Y-126866051D03*
X189556051Y-129406051D03*
X189556051Y-131946051D03*
X174316051Y-131946051D03*
X174316051Y-129406051D03*
X174316051Y-126866051D03*
X174316051Y-124326051D03*
X174316051Y-121786051D03*
X174316051Y-119246051D03*
X174316051Y-116706051D03*
X174316051Y-114166051D03*
X174316051Y-111626051D03*
X174316051Y-109086051D03*
X174316051Y-106546051D03*
X174316051Y-104006051D03*
X174316051Y-101466051D03*
X174316051Y-98926051D03*
X174316051Y-96386051D03*
X174316051Y-93846051D03*
X174316051Y-91306051D03*
X174316051Y-88766051D03*
X174316051Y-86226051D03*
X174316051Y-83686051D03*
X174316051Y-81146051D03*
X174316051Y-78606051D03*
X174316051Y-76066051D03*
X174316051Y-73526051D03*
X176856051Y-76066051D03*
X187016051Y-119246051D03*
X184476051Y-119246051D03*
X181936051Y-119246051D03*
X179396051Y-119246051D03*
X176856051Y-119246051D03*
D22*
X186505251Y-79825251D03*
D23*
X186505251Y-82365251D03*
X186505251Y-84905251D03*
X186505251Y-87445251D03*
X186505251Y-89985251D03*
D24*
X176754451Y-86496051D03*
D25*
X178754451Y-86496051D03*
X180754451Y-86496051D03*
X180754451Y-88496051D03*
X178754451Y-88496051D03*
X176754451Y-88496051D03*
D15*
X169500000Y-90266051D03*
D16*
X169500000Y-92766051D03*
X169500000Y-95266051D03*
D26*
X132271051Y-132366051D03*
X134941051Y-110586051D03*
X132351051Y-110566051D03*
X134591051Y-132316051D03*
X186996051Y-129426051D03*
X181936051Y-129386051D03*
X184536051Y-129446051D03*
X204000000Y-72000000D03*
X117000000Y-107000000D03*
X145000000Y-99000000D03*
X121000000Y-83000000D03*
X136500000Y-69000000D03*
X129000000Y-79000000D03*
X165000000Y-107000000D03*
X157000000Y-83000000D03*
X145000000Y-103000000D03*
X161000000Y-71000000D03*
X169000000Y-67000000D03*
X133000000Y-99000000D03*
X133000000Y-87000000D03*
X157000000Y-67000000D03*
X113000000Y-87000000D03*
X137000000Y-107000000D03*
X199000000Y-96000000D03*
X129000000Y-103000000D03*
X145000000Y-91000000D03*
X136500000Y-77000000D03*
X200000000Y-72000000D03*
X161000000Y-87000000D03*
X145000000Y-131000000D03*
X161000000Y-131000000D03*
X136500000Y-73000000D03*
X132500000Y-75000000D03*
X157000000Y-103000000D03*
X121000000Y-127000000D03*
X134500000Y-75000000D03*
X157000000Y-87000000D03*
X133000000Y-83000000D03*
X121000000Y-79000000D03*
X161000000Y-67000000D03*
X186000000Y-101000000D03*
X137000000Y-95000000D03*
X113000000Y-107000000D03*
X134500000Y-67000000D03*
X206000000Y-125000000D03*
X113000000Y-83000000D03*
X199000000Y-94000000D03*
X173000000Y-71000000D03*
X117000000Y-103000000D03*
X136500000Y-67000000D03*
X129000000Y-107000000D03*
X165000000Y-71000000D03*
X149000000Y-83000000D03*
X129000000Y-95000000D03*
X197000000Y-96000000D03*
X123500000Y-71000000D03*
X169000000Y-103000000D03*
X125000000Y-95000000D03*
X132500000Y-73000000D03*
X153000000Y-83000000D03*
X113000000Y-127000000D03*
X129000000Y-83000000D03*
X121000000Y-99000000D03*
X132500000Y-69000000D03*
X186000000Y-114000000D03*
X157000000Y-99000000D03*
X194000000Y-68000000D03*
X196000000Y-88000000D03*
X187000000Y-102000000D03*
X161000000Y-79000000D03*
X121000000Y-95000000D03*
X207000000Y-112000000D03*
X204000000Y-76000000D03*
X165000000Y-131000000D03*
X137000000Y-99000000D03*
X207000000Y-82000000D03*
X149000000Y-107000000D03*
X145000000Y-79000000D03*
X125000000Y-111000000D03*
X165000000Y-67000000D03*
X153000000Y-131000000D03*
X141000000Y-91000000D03*
X117000000Y-115000000D03*
X165000000Y-103000000D03*
X153000000Y-103000000D03*
X149000000Y-103000000D03*
X153000000Y-95000000D03*
X192000000Y-88000000D03*
X133000000Y-107000000D03*
X117000000Y-91000000D03*
X121000000Y-103000000D03*
X207000000Y-74000000D03*
X132500000Y-77000000D03*
X200000000Y-76000000D03*
X113000000Y-119000000D03*
X178000000Y-99000000D03*
X187000000Y-104000000D03*
X113000000Y-123000000D03*
X117000000Y-83000000D03*
X125000000Y-119000000D03*
X197000000Y-94000000D03*
X206000000Y-69000000D03*
X117000000Y-123000000D03*
X137000000Y-103000000D03*
X180000000Y-101000000D03*
X136500000Y-71000000D03*
X141000000Y-107000000D03*
X117000000Y-131000000D03*
X117000000Y-111000000D03*
X125000000Y-131000000D03*
X133000000Y-91000000D03*
X149000000Y-91000000D03*
X145000000Y-95000000D03*
X121000000Y-131000000D03*
X125000000Y-127000000D03*
X125000000Y-91000000D03*
X125000000Y-87000000D03*
X117000000Y-99000000D03*
X123500000Y-73000000D03*
X173000000Y-67000000D03*
X117000000Y-127000000D03*
X178000000Y-96000000D03*
X113000000Y-91000000D03*
X113000000Y-111000000D03*
X200000000Y-80000000D03*
X149000000Y-79000000D03*
X169000000Y-131000000D03*
X145000000Y-107000000D03*
X141000000Y-87000000D03*
X161000000Y-103000000D03*
X129000000Y-87000000D03*
X129000000Y-99000000D03*
X125000000Y-99000000D03*
X141000000Y-83000000D03*
X113000000Y-95000000D03*
X161000000Y-91000000D03*
X134500000Y-73000000D03*
X121000000Y-123000000D03*
X123500000Y-77000000D03*
X157000000Y-107000000D03*
X196000000Y-80000000D03*
X134500000Y-71000000D03*
X157000000Y-131000000D03*
X113000000Y-99000000D03*
X134500000Y-69000000D03*
X132500000Y-71000000D03*
X157000000Y-71000000D03*
X177000000Y-114000000D03*
X161000000Y-75000000D03*
X137000000Y-87000000D03*
X121000000Y-87000000D03*
X121000000Y-115000000D03*
X149000000Y-131000000D03*
X200000000Y-68000000D03*
X133000000Y-79000000D03*
X121000000Y-111000000D03*
X157000000Y-91000000D03*
X117000000Y-79000000D03*
X113000000Y-103000000D03*
X133000000Y-103000000D03*
X117000000Y-119000000D03*
X123500000Y-67000000D03*
X192000000Y-84000000D03*
X207493629Y-106139228D03*
X141000000Y-103000000D03*
X129000000Y-91000000D03*
X141000000Y-99000000D03*
X125000000Y-123000000D03*
X161000000Y-95000000D03*
X153000000Y-79000000D03*
X145000000Y-87000000D03*
X161000000Y-83000000D03*
X141000000Y-95000000D03*
X137000000Y-83000000D03*
X149000000Y-99000000D03*
X136500000Y-75000000D03*
X204000000Y-133000000D03*
X125000000Y-115000000D03*
X153000000Y-99000000D03*
X125000000Y-79000000D03*
X169000000Y-107000000D03*
X125000000Y-83000000D03*
X121000000Y-119000000D03*
X123500000Y-75000000D03*
X125000000Y-107000000D03*
X121000000Y-91000000D03*
X132500000Y-67000000D03*
X113000000Y-115000000D03*
X141000000Y-131000000D03*
X137000000Y-79000000D03*
X133000000Y-95000000D03*
X125000000Y-103000000D03*
X157000000Y-75000000D03*
X177000000Y-67000000D03*
X196000000Y-84000000D03*
X178000000Y-102000000D03*
X161000000Y-107000000D03*
X113000000Y-79000000D03*
X181000000Y-114000000D03*
X121000000Y-107000000D03*
X169000000Y-71000000D03*
X153000000Y-107000000D03*
X192000000Y-80000000D03*
X113000000Y-131000000D03*
X117000000Y-95000000D03*
X149000000Y-95000000D03*
X137000000Y-91000000D03*
X157000000Y-79000000D03*
X134500000Y-77000000D03*
X153000000Y-87000000D03*
X117000000Y-87000000D03*
X195856051Y-90886051D03*
X197800000Y-84816051D03*
X146500000Y-76800000D03*
X145000000Y-75500000D03*
D27*
X201116051Y-110026051D03*
X201136051Y-112496051D03*
D26*
X180316051Y-74366051D03*
X183566051Y-67386051D03*
X141000000Y-69600000D03*
X123500000Y-69000000D03*
G04 #@! TA.AperFunction,Conductor*
G36*
X134391804Y-66040935D02*
G01*
X134476766Y-66050506D01*
X134620000Y-66050500D01*
X134623412Y-66050500D01*
X176526588Y-66050500D01*
X176530000Y-66050500D01*
X176673233Y-66050500D01*
X176758108Y-66040937D01*
X176774790Y-66040000D01*
X191525127Y-66040000D01*
X191531510Y-66040137D01*
X191536679Y-66040358D01*
X191626766Y-66050506D01*
X191770000Y-66050500D01*
X191773412Y-66050500D01*
X205735492Y-66050500D01*
X205744493Y-66050771D01*
X206035901Y-66068409D01*
X206053750Y-66070577D01*
X206336485Y-66122399D01*
X206353946Y-66126704D01*
X206553844Y-66189000D01*
X206628350Y-66212219D01*
X206645173Y-66218599D01*
X206907282Y-66336570D01*
X206923212Y-66344931D01*
X207169186Y-66493633D01*
X207183977Y-66503841D01*
X207410247Y-66681114D01*
X207423714Y-66693045D01*
X207626954Y-66896285D01*
X207638885Y-66909752D01*
X207752081Y-67054235D01*
X207816152Y-67136014D01*
X207826369Y-67150816D01*
X207900719Y-67273803D01*
X207975067Y-67396786D01*
X207983429Y-67412717D01*
X208101400Y-67674826D01*
X208107780Y-67691649D01*
X208193294Y-67966049D01*
X208197601Y-67983518D01*
X208249421Y-68266244D01*
X208251590Y-68284104D01*
X208269228Y-68575506D01*
X208269500Y-68584508D01*
X208269500Y-132075500D01*
X208269228Y-132084496D01*
X208251601Y-132375902D01*
X208249432Y-132393765D01*
X208197622Y-132676477D01*
X208193317Y-132693945D01*
X208107804Y-132968370D01*
X208101423Y-132985195D01*
X207983460Y-133247297D01*
X207975099Y-133263228D01*
X207826398Y-133509211D01*
X207816176Y-133524019D01*
X207638918Y-133750271D01*
X207626987Y-133763739D01*
X207423739Y-133966987D01*
X207410271Y-133978918D01*
X207184019Y-134156176D01*
X207169211Y-134166398D01*
X206923228Y-134315099D01*
X206907297Y-134323460D01*
X206645195Y-134441423D01*
X206628370Y-134447804D01*
X206353945Y-134533317D01*
X206336477Y-134537622D01*
X206053765Y-134589432D01*
X206035903Y-134591601D01*
X205923074Y-134598426D01*
X205744495Y-134609228D01*
X205735501Y-134609500D01*
X191770000Y-134609500D01*
X191626766Y-134609494D01*
X191536679Y-134619641D01*
X191531510Y-134619863D01*
X191530716Y-134619686D01*
X191525127Y-134620000D01*
X176774724Y-134620000D01*
X176758037Y-134619063D01*
X176673229Y-134609504D01*
X176534357Y-134609500D01*
X176534349Y-134609500D01*
X176534347Y-134609500D01*
X134623194Y-134609500D01*
X134620000Y-134609500D01*
X134476766Y-134609494D01*
X134386679Y-134619641D01*
X134381510Y-134619863D01*
X134380716Y-134619686D01*
X134375127Y-134620000D01*
X119624724Y-134620000D01*
X119608037Y-134619063D01*
X119523229Y-134609504D01*
X119384357Y-134609500D01*
X119384349Y-134609500D01*
X119384347Y-134609500D01*
X111544492Y-134609500D01*
X111535501Y-134609228D01*
X111244096Y-134591611D01*
X111226234Y-134589443D01*
X110943507Y-134537641D01*
X110926035Y-134533335D01*
X110651618Y-134447830D01*
X110634794Y-134441450D01*
X110372682Y-134323489D01*
X110356749Y-134315127D01*
X110110769Y-134166430D01*
X110095961Y-134156209D01*
X109869700Y-133978948D01*
X109856231Y-133967016D01*
X109652983Y-133763768D01*
X109641051Y-133750299D01*
X109463790Y-133524038D01*
X109453569Y-133509230D01*
X109336560Y-133315669D01*
X109304868Y-133263243D01*
X109296514Y-133247325D01*
X109178545Y-132985195D01*
X109172169Y-132968381D01*
X109171404Y-132965925D01*
X109086659Y-132693945D01*
X109082360Y-132676500D01*
X109030556Y-132393765D01*
X109028388Y-132375917D01*
X109023621Y-132297057D01*
X131570551Y-132297057D01*
X131570551Y-132435044D01*
X131597470Y-132570376D01*
X131597471Y-132570380D01*
X131650275Y-132697860D01*
X131650278Y-132697866D01*
X131726934Y-132812589D01*
X131726937Y-132812593D01*
X131824509Y-132910165D01*
X131824512Y-132910167D01*
X131939235Y-132986823D01*
X131939237Y-132986824D01*
X131939240Y-132986826D01*
X132066723Y-133039631D01*
X132202058Y-133066551D01*
X132340044Y-133066551D01*
X132475379Y-133039631D01*
X132602862Y-132986826D01*
X132717593Y-132910165D01*
X132815165Y-132812593D01*
X132891826Y-132697862D01*
X132944631Y-132570379D01*
X132971551Y-132435044D01*
X132971551Y-132297058D01*
X132961605Y-132247057D01*
X133890551Y-132247057D01*
X133890551Y-132385044D01*
X133917470Y-132520376D01*
X133917471Y-132520380D01*
X133970275Y-132647860D01*
X133970278Y-132647866D01*
X134046934Y-132762589D01*
X134046937Y-132762593D01*
X134144509Y-132860165D01*
X134144512Y-132860167D01*
X134259235Y-132936823D01*
X134259237Y-132936824D01*
X134259240Y-132936826D01*
X134386723Y-132989631D01*
X134522058Y-133016551D01*
X134660044Y-133016551D01*
X134795379Y-132989631D01*
X134922862Y-132936826D01*
X135037593Y-132860165D01*
X135135165Y-132762593D01*
X135211826Y-132647862D01*
X135264631Y-132520379D01*
X135291551Y-132385044D01*
X135291551Y-132247058D01*
X135264631Y-132111723D01*
X135211826Y-131984240D01*
X135211825Y-131984239D01*
X135211825Y-131984237D01*
X135179838Y-131936366D01*
X135179837Y-131936364D01*
X135135167Y-131869512D01*
X135135165Y-131869509D01*
X135125096Y-131859440D01*
X173215551Y-131859440D01*
X173215551Y-132032662D01*
X173223049Y-132080000D01*
X173242648Y-132203751D01*
X173273509Y-132298728D01*
X173296178Y-132368496D01*
X173373567Y-132520380D01*
X173374822Y-132522844D01*
X173465652Y-132647860D01*
X173476637Y-132662979D01*
X173599123Y-132785465D01*
X173739263Y-132887283D01*
X173893606Y-132965924D01*
X174058350Y-133019453D01*
X174229440Y-133046551D01*
X174229444Y-133046551D01*
X174402658Y-133046551D01*
X174402662Y-133046551D01*
X174573752Y-133019453D01*
X174738496Y-132965924D01*
X174892839Y-132887283D01*
X175032979Y-132785465D01*
X175155465Y-132662979D01*
X175257283Y-132522839D01*
X175335924Y-132368496D01*
X175389453Y-132203752D01*
X175416551Y-132032662D01*
X175416551Y-131859440D01*
X188455551Y-131859440D01*
X188455551Y-132032662D01*
X188463049Y-132080000D01*
X188482648Y-132203751D01*
X188513509Y-132298728D01*
X188536178Y-132368496D01*
X188613567Y-132520380D01*
X188614822Y-132522844D01*
X188705652Y-132647860D01*
X188716637Y-132662979D01*
X188839123Y-132785465D01*
X188979263Y-132887283D01*
X189133606Y-132965924D01*
X189298350Y-133019453D01*
X189469440Y-133046551D01*
X189469444Y-133046551D01*
X189642658Y-133046551D01*
X189642662Y-133046551D01*
X189813752Y-133019453D01*
X189978496Y-132965924D01*
X190132839Y-132887283D01*
X190272979Y-132785465D01*
X190395465Y-132662979D01*
X190497283Y-132522839D01*
X190575924Y-132368496D01*
X190629453Y-132203752D01*
X190656551Y-132032662D01*
X190656551Y-131859440D01*
X190629453Y-131688350D01*
X190575924Y-131523606D01*
X190497283Y-131369263D01*
X190395465Y-131229123D01*
X190272979Y-131106637D01*
X190272975Y-131106634D01*
X190132844Y-131004822D01*
X190132841Y-131004820D01*
X190132839Y-131004819D01*
X189978496Y-130926178D01*
X189930872Y-130910704D01*
X189813751Y-130872648D01*
X189716137Y-130857188D01*
X189642662Y-130845551D01*
X189469440Y-130845551D01*
X189403088Y-130856060D01*
X189298350Y-130872648D01*
X189133612Y-130926176D01*
X189133606Y-130926178D01*
X189133600Y-130926180D01*
X189133600Y-130926181D01*
X188979257Y-131004822D01*
X188839126Y-131106634D01*
X188716634Y-131229126D01*
X188614822Y-131369257D01*
X188536181Y-131523600D01*
X188536176Y-131523612D01*
X188482648Y-131688350D01*
X188464279Y-131804333D01*
X188455551Y-131859440D01*
X175416551Y-131859440D01*
X175389453Y-131688350D01*
X175335924Y-131523606D01*
X175257283Y-131369263D01*
X175155465Y-131229123D01*
X175032979Y-131106637D01*
X175032975Y-131106634D01*
X174892844Y-131004822D01*
X174892841Y-131004820D01*
X174892839Y-131004819D01*
X174738496Y-130926178D01*
X174690872Y-130910704D01*
X174573751Y-130872648D01*
X174476137Y-130857188D01*
X174402662Y-130845551D01*
X174229440Y-130845551D01*
X174163088Y-130856060D01*
X174058350Y-130872648D01*
X173893612Y-130926176D01*
X173893606Y-130926178D01*
X173893600Y-130926180D01*
X173893600Y-130926181D01*
X173739257Y-131004822D01*
X173599126Y-131106634D01*
X173476634Y-131229126D01*
X173374822Y-131369257D01*
X173296181Y-131523600D01*
X173296176Y-131523612D01*
X173242648Y-131688350D01*
X173224279Y-131804333D01*
X173215551Y-131859440D01*
X135125096Y-131859440D01*
X135037593Y-131771937D01*
X135037589Y-131771934D01*
X134922866Y-131695278D01*
X134922860Y-131695275D01*
X134795380Y-131642471D01*
X134795376Y-131642470D01*
X134660044Y-131615551D01*
X134522058Y-131615551D01*
X134386725Y-131642470D01*
X134386721Y-131642471D01*
X134259241Y-131695275D01*
X134259235Y-131695278D01*
X134144512Y-131771934D01*
X134144505Y-131771940D01*
X134046940Y-131869505D01*
X134046934Y-131869512D01*
X133970278Y-131984235D01*
X133970275Y-131984241D01*
X133917471Y-132111721D01*
X133917470Y-132111725D01*
X133890551Y-132247057D01*
X132961605Y-132247057D01*
X132944631Y-132161723D01*
X132891826Y-132034240D01*
X132815165Y-131919509D01*
X132717593Y-131821937D01*
X132717589Y-131821934D01*
X132602866Y-131745278D01*
X132602860Y-131745275D01*
X132475380Y-131692471D01*
X132475376Y-131692470D01*
X132340044Y-131665551D01*
X132202058Y-131665551D01*
X132066725Y-131692470D01*
X132066721Y-131692471D01*
X131939241Y-131745275D01*
X131939235Y-131745278D01*
X131824512Y-131821934D01*
X131824505Y-131821940D01*
X131726940Y-131919505D01*
X131726934Y-131919512D01*
X131650278Y-132034235D01*
X131650275Y-132034241D01*
X131597471Y-132161721D01*
X131597470Y-132161725D01*
X131570551Y-132297057D01*
X109023621Y-132297057D01*
X109010772Y-132084496D01*
X109010500Y-132075508D01*
X109010500Y-129319440D01*
X173215551Y-129319440D01*
X173215551Y-129492662D01*
X173219096Y-129515044D01*
X173242648Y-129663751D01*
X173273227Y-129757860D01*
X173296178Y-129828496D01*
X173368363Y-129970167D01*
X173374822Y-129982844D01*
X173476634Y-130122975D01*
X173476637Y-130122979D01*
X173599123Y-130245465D01*
X173739263Y-130347283D01*
X173893606Y-130425924D01*
X174058350Y-130479453D01*
X174229440Y-130506551D01*
X174229444Y-130506551D01*
X174402658Y-130506551D01*
X174402662Y-130506551D01*
X174573752Y-130479453D01*
X174738496Y-130425924D01*
X174892839Y-130347283D01*
X175032979Y-130245465D01*
X175155465Y-130122979D01*
X175257283Y-129982839D01*
X175335924Y-129828496D01*
X175389453Y-129663752D01*
X175416551Y-129492662D01*
X175416551Y-129319440D01*
X175416174Y-129317057D01*
X181235551Y-129317057D01*
X181235551Y-129455044D01*
X181262470Y-129590376D01*
X181262471Y-129590380D01*
X181315275Y-129717860D01*
X181315278Y-129717866D01*
X181391934Y-129832589D01*
X181391937Y-129832593D01*
X181489509Y-129930165D01*
X181489512Y-129930167D01*
X181604235Y-130006823D01*
X181604237Y-130006824D01*
X181604240Y-130006826D01*
X181731723Y-130059631D01*
X181867058Y-130086551D01*
X182005044Y-130086551D01*
X182140379Y-130059631D01*
X182267862Y-130006826D01*
X182382593Y-129930165D01*
X182480165Y-129832593D01*
X182556826Y-129717862D01*
X182609631Y-129590379D01*
X182636551Y-129455044D01*
X182636551Y-129377057D01*
X183835551Y-129377057D01*
X183835551Y-129515044D01*
X183862470Y-129650376D01*
X183862471Y-129650380D01*
X183915275Y-129777860D01*
X183915278Y-129777866D01*
X183978573Y-129872593D01*
X183991937Y-129892593D01*
X184089509Y-129990165D01*
X184089512Y-129990167D01*
X184204235Y-130066823D01*
X184204237Y-130066824D01*
X184204240Y-130066826D01*
X184331723Y-130119631D01*
X184467058Y-130146551D01*
X184605044Y-130146551D01*
X184740379Y-130119631D01*
X184867862Y-130066826D01*
X184982593Y-129990165D01*
X185080165Y-129892593D01*
X185156826Y-129777862D01*
X185209631Y-129650379D01*
X185236551Y-129515044D01*
X185236551Y-129377058D01*
X185232573Y-129357057D01*
X186295551Y-129357057D01*
X186295551Y-129495044D01*
X186322470Y-129630376D01*
X186322471Y-129630380D01*
X186375275Y-129757860D01*
X186375278Y-129757866D01*
X186451934Y-129872589D01*
X186451937Y-129872593D01*
X186549509Y-129970165D01*
X186549512Y-129970167D01*
X186664235Y-130046823D01*
X186664237Y-130046824D01*
X186664240Y-130046826D01*
X186791723Y-130099631D01*
X186927058Y-130126551D01*
X187065044Y-130126551D01*
X187200379Y-130099631D01*
X187327862Y-130046826D01*
X187442593Y-129970165D01*
X187540165Y-129872593D01*
X187616826Y-129757862D01*
X187669631Y-129630379D01*
X187696551Y-129495044D01*
X187696551Y-129357058D01*
X187689068Y-129319440D01*
X188455551Y-129319440D01*
X188455551Y-129492662D01*
X188459096Y-129515044D01*
X188482648Y-129663751D01*
X188513227Y-129757860D01*
X188536178Y-129828496D01*
X188608363Y-129970167D01*
X188614822Y-129982844D01*
X188716634Y-130122975D01*
X188716637Y-130122979D01*
X188839123Y-130245465D01*
X188979263Y-130347283D01*
X189133606Y-130425924D01*
X189298350Y-130479453D01*
X189469440Y-130506551D01*
X189469444Y-130506551D01*
X189642658Y-130506551D01*
X189642662Y-130506551D01*
X189813752Y-130479453D01*
X189978496Y-130425924D01*
X190132839Y-130347283D01*
X190272979Y-130245465D01*
X190395465Y-130122979D01*
X190497283Y-129982839D01*
X190575924Y-129828496D01*
X190629453Y-129663752D01*
X190656551Y-129492662D01*
X190656551Y-129319440D01*
X190629453Y-129148350D01*
X190575924Y-128983606D01*
X190497283Y-128829263D01*
X190494386Y-128825276D01*
X190395467Y-128689126D01*
X190395465Y-128689123D01*
X190272979Y-128566637D01*
X190272975Y-128566634D01*
X190132844Y-128464822D01*
X190132841Y-128464820D01*
X190132839Y-128464819D01*
X189978496Y-128386178D01*
X189930872Y-128370704D01*
X189813751Y-128332648D01*
X189716137Y-128317188D01*
X189642662Y-128305551D01*
X189469440Y-128305551D01*
X189403088Y-128316060D01*
X189298350Y-128332648D01*
X189133612Y-128386176D01*
X189133606Y-128386178D01*
X189133600Y-128386180D01*
X189133600Y-128386181D01*
X188979257Y-128464822D01*
X188839126Y-128566634D01*
X188716634Y-128689126D01*
X188614822Y-128829257D01*
X188536181Y-128983600D01*
X188536176Y-128983612D01*
X188482648Y-129148350D01*
X188467860Y-129241721D01*
X188455551Y-129319440D01*
X187689068Y-129319440D01*
X187688594Y-129317058D01*
X187669631Y-129221723D01*
X187669630Y-129221721D01*
X187653063Y-129181725D01*
X187616826Y-129094240D01*
X187590099Y-129054241D01*
X187540167Y-128979512D01*
X187540165Y-128979509D01*
X187442593Y-128881937D01*
X187442589Y-128881934D01*
X187327866Y-128805278D01*
X187327860Y-128805275D01*
X187200380Y-128752471D01*
X187200376Y-128752470D01*
X187065044Y-128725551D01*
X186927058Y-128725551D01*
X186791725Y-128752470D01*
X186791721Y-128752471D01*
X186664241Y-128805275D01*
X186664235Y-128805278D01*
X186549512Y-128881934D01*
X186549505Y-128881940D01*
X186451940Y-128979505D01*
X186451934Y-128979512D01*
X186375278Y-129094235D01*
X186375275Y-129094241D01*
X186322471Y-129221721D01*
X186322470Y-129221725D01*
X186295551Y-129357057D01*
X185232573Y-129357057D01*
X185209631Y-129241723D01*
X185156826Y-129114240D01*
X185143462Y-129094240D01*
X185080167Y-128999512D01*
X185080165Y-128999509D01*
X184982593Y-128901937D01*
X184982589Y-128901934D01*
X184867866Y-128825278D01*
X184867860Y-128825275D01*
X184740380Y-128772471D01*
X184740376Y-128772470D01*
X184605044Y-128745551D01*
X184467058Y-128745551D01*
X184331725Y-128772470D01*
X184331721Y-128772471D01*
X184204241Y-128825275D01*
X184204235Y-128825278D01*
X184089512Y-128901934D01*
X184089505Y-128901940D01*
X183991940Y-128999505D01*
X183991934Y-128999512D01*
X183915278Y-129114235D01*
X183915275Y-129114241D01*
X183862471Y-129241721D01*
X183862470Y-129241725D01*
X183835551Y-129377057D01*
X182636551Y-129377057D01*
X182636551Y-129317058D01*
X182609631Y-129181723D01*
X182556826Y-129054240D01*
X182480165Y-128939509D01*
X182382593Y-128841937D01*
X182382589Y-128841934D01*
X182267866Y-128765278D01*
X182267860Y-128765275D01*
X182140380Y-128712471D01*
X182140376Y-128712470D01*
X182005044Y-128685551D01*
X181867058Y-128685551D01*
X181731725Y-128712470D01*
X181731721Y-128712471D01*
X181604241Y-128765275D01*
X181604235Y-128765278D01*
X181489512Y-128841934D01*
X181489505Y-128841940D01*
X181391940Y-128939505D01*
X181391934Y-128939512D01*
X181315278Y-129054235D01*
X181315275Y-129054241D01*
X181262471Y-129181721D01*
X181262470Y-129181725D01*
X181235551Y-129317057D01*
X175416174Y-129317057D01*
X175389453Y-129148350D01*
X175335924Y-128983606D01*
X175257283Y-128829263D01*
X175254386Y-128825276D01*
X175155467Y-128689126D01*
X175155465Y-128689123D01*
X175032979Y-128566637D01*
X175032975Y-128566634D01*
X174892844Y-128464822D01*
X174892841Y-128464820D01*
X174892839Y-128464819D01*
X174738496Y-128386178D01*
X174690872Y-128370704D01*
X174573751Y-128332648D01*
X174476137Y-128317188D01*
X174402662Y-128305551D01*
X174229440Y-128305551D01*
X174163088Y-128316060D01*
X174058350Y-128332648D01*
X173893612Y-128386176D01*
X173893606Y-128386178D01*
X173893600Y-128386180D01*
X173893600Y-128386181D01*
X173739257Y-128464822D01*
X173599126Y-128566634D01*
X173476634Y-128689126D01*
X173374822Y-128829257D01*
X173296181Y-128983600D01*
X173296176Y-128983612D01*
X173242648Y-129148350D01*
X173227860Y-129241721D01*
X173215551Y-129319440D01*
X109010500Y-129319440D01*
X109010500Y-126146403D01*
X141723551Y-126146403D01*
X141723551Y-126355698D01*
X141764381Y-126560968D01*
X141844473Y-126754328D01*
X141844476Y-126754333D01*
X141960753Y-126928355D01*
X142108747Y-127076349D01*
X142282769Y-127192626D01*
X142282771Y-127192626D01*
X142282773Y-127192628D01*
X142339404Y-127216085D01*
X142476131Y-127272720D01*
X142681404Y-127313551D01*
X142890698Y-127313551D01*
X143095971Y-127272720D01*
X143289333Y-127192626D01*
X143463355Y-127076349D01*
X143611349Y-126928355D01*
X143727626Y-126754333D01*
X143807720Y-126560971D01*
X143848551Y-126355698D01*
X143848551Y-126146404D01*
X143848551Y-126146403D01*
X144263551Y-126146403D01*
X144263551Y-126355698D01*
X144304381Y-126560968D01*
X144384473Y-126754328D01*
X144384476Y-126754333D01*
X144500753Y-126928355D01*
X144648747Y-127076349D01*
X144822769Y-127192626D01*
X144822771Y-127192626D01*
X144822773Y-127192628D01*
X144879404Y-127216085D01*
X145016131Y-127272720D01*
X145221404Y-127313551D01*
X145430698Y-127313551D01*
X145635971Y-127272720D01*
X145829333Y-127192626D01*
X146003355Y-127076349D01*
X146151349Y-126928355D01*
X146267626Y-126754333D01*
X146347720Y-126560971D01*
X146388551Y-126355698D01*
X146388551Y-126146404D01*
X146388551Y-126146403D01*
X146803551Y-126146403D01*
X146803551Y-126355698D01*
X146844381Y-126560968D01*
X146924473Y-126754328D01*
X146924476Y-126754333D01*
X147040753Y-126928355D01*
X147188747Y-127076349D01*
X147362769Y-127192626D01*
X147362771Y-127192626D01*
X147362773Y-127192628D01*
X147419404Y-127216085D01*
X147556131Y-127272720D01*
X147761404Y-127313551D01*
X147970698Y-127313551D01*
X148175971Y-127272720D01*
X148369333Y-127192626D01*
X148543355Y-127076349D01*
X148691349Y-126928355D01*
X148807626Y-126754333D01*
X148887720Y-126560971D01*
X148928551Y-126355698D01*
X148928551Y-126146404D01*
X148928551Y-126146403D01*
X149343551Y-126146403D01*
X149343551Y-126355698D01*
X149384381Y-126560968D01*
X149464473Y-126754328D01*
X149464476Y-126754333D01*
X149580753Y-126928355D01*
X149728747Y-127076349D01*
X149902769Y-127192626D01*
X149902771Y-127192626D01*
X149902773Y-127192628D01*
X149959404Y-127216085D01*
X150096131Y-127272720D01*
X150301404Y-127313551D01*
X150510698Y-127313551D01*
X150715971Y-127272720D01*
X150909333Y-127192626D01*
X151083355Y-127076349D01*
X151231349Y-126928355D01*
X151347626Y-126754333D01*
X151427720Y-126560971D01*
X151468551Y-126355698D01*
X151468551Y-126146404D01*
X151468551Y-126146403D01*
X151883551Y-126146403D01*
X151883551Y-126355698D01*
X151924381Y-126560968D01*
X152004473Y-126754328D01*
X152004476Y-126754333D01*
X152120753Y-126928355D01*
X152268747Y-127076349D01*
X152442769Y-127192626D01*
X152442771Y-127192626D01*
X152442773Y-127192628D01*
X152499404Y-127216085D01*
X152636131Y-127272720D01*
X152841404Y-127313551D01*
X153050698Y-127313551D01*
X153255971Y-127272720D01*
X153449333Y-127192626D01*
X153623355Y-127076349D01*
X153771349Y-126928355D01*
X153887626Y-126754333D01*
X153967720Y-126560971D01*
X154008551Y-126355698D01*
X154008551Y-126146404D01*
X154008551Y-126146403D01*
X154423551Y-126146403D01*
X154423551Y-126355698D01*
X154464381Y-126560968D01*
X154544473Y-126754328D01*
X154544476Y-126754333D01*
X154660753Y-126928355D01*
X154808747Y-127076349D01*
X154982769Y-127192626D01*
X154982771Y-127192626D01*
X154982773Y-127192628D01*
X155039404Y-127216085D01*
X155176131Y-127272720D01*
X155381404Y-127313551D01*
X155590698Y-127313551D01*
X155795971Y-127272720D01*
X155989333Y-127192626D01*
X156163355Y-127076349D01*
X156311349Y-126928355D01*
X156427626Y-126754333D01*
X156507720Y-126560971D01*
X156548551Y-126355698D01*
X156548551Y-126146404D01*
X156548551Y-126146403D01*
X156963551Y-126146403D01*
X156963551Y-126355698D01*
X157004381Y-126560968D01*
X157084473Y-126754328D01*
X157084476Y-126754333D01*
X157200753Y-126928355D01*
X157348747Y-127076349D01*
X157522769Y-127192626D01*
X157522771Y-127192626D01*
X157522773Y-127192628D01*
X157579404Y-127216085D01*
X157716131Y-127272720D01*
X157921404Y-127313551D01*
X158130698Y-127313551D01*
X158335971Y-127272720D01*
X158529333Y-127192626D01*
X158703355Y-127076349D01*
X158851349Y-126928355D01*
X158967626Y-126754333D01*
X159047720Y-126560971D01*
X159088551Y-126355698D01*
X159088551Y-126146404D01*
X159088551Y-126146403D01*
X159503551Y-126146403D01*
X159503551Y-126355698D01*
X159544381Y-126560968D01*
X159624473Y-126754328D01*
X159624476Y-126754333D01*
X159740753Y-126928355D01*
X159888747Y-127076349D01*
X160062769Y-127192626D01*
X160062771Y-127192626D01*
X160062773Y-127192628D01*
X160119404Y-127216085D01*
X160256131Y-127272720D01*
X160461404Y-127313551D01*
X160670698Y-127313551D01*
X160875971Y-127272720D01*
X161069333Y-127192626D01*
X161243355Y-127076349D01*
X161391349Y-126928355D01*
X161507626Y-126754333D01*
X161587720Y-126560971D01*
X161628551Y-126355698D01*
X161628551Y-126146404D01*
X161628551Y-126146403D01*
X162043551Y-126146403D01*
X162043551Y-126355698D01*
X162084381Y-126560968D01*
X162164473Y-126754328D01*
X162164476Y-126754333D01*
X162280753Y-126928355D01*
X162428747Y-127076349D01*
X162602769Y-127192626D01*
X162602771Y-127192626D01*
X162602773Y-127192628D01*
X162659404Y-127216085D01*
X162796131Y-127272720D01*
X163001404Y-127313551D01*
X163210698Y-127313551D01*
X163415971Y-127272720D01*
X163609333Y-127192626D01*
X163783355Y-127076349D01*
X163931349Y-126928355D01*
X164047626Y-126754333D01*
X164127720Y-126560971D01*
X164168551Y-126355698D01*
X164168551Y-126146404D01*
X164168551Y-126146403D01*
X164583551Y-126146403D01*
X164583551Y-126355698D01*
X164624381Y-126560968D01*
X164704473Y-126754328D01*
X164704476Y-126754333D01*
X164820753Y-126928355D01*
X164968747Y-127076349D01*
X165142769Y-127192626D01*
X165142771Y-127192626D01*
X165142773Y-127192628D01*
X165199404Y-127216085D01*
X165336131Y-127272720D01*
X165541404Y-127313551D01*
X165750698Y-127313551D01*
X165955971Y-127272720D01*
X166149333Y-127192626D01*
X166323355Y-127076349D01*
X166471349Y-126928355D01*
X166587626Y-126754333D01*
X166667720Y-126560971D01*
X166708551Y-126355698D01*
X166708551Y-126146404D01*
X166708551Y-126146403D01*
X167123551Y-126146403D01*
X167123551Y-126355698D01*
X167164381Y-126560968D01*
X167244473Y-126754328D01*
X167244476Y-126754333D01*
X167360753Y-126928355D01*
X167508747Y-127076349D01*
X167682769Y-127192626D01*
X167682771Y-127192626D01*
X167682773Y-127192628D01*
X167739404Y-127216085D01*
X167876131Y-127272720D01*
X168081404Y-127313551D01*
X168290698Y-127313551D01*
X168495971Y-127272720D01*
X168689333Y-127192626D01*
X168863355Y-127076349D01*
X169011349Y-126928355D01*
X169127626Y-126754333D01*
X169207720Y-126560971D01*
X169248551Y-126355698D01*
X169248551Y-126146404D01*
X169248551Y-126146403D01*
X169663551Y-126146403D01*
X169663551Y-126355698D01*
X169704381Y-126560968D01*
X169784473Y-126754328D01*
X169784476Y-126754333D01*
X169900753Y-126928355D01*
X170048747Y-127076349D01*
X170222769Y-127192626D01*
X170222771Y-127192626D01*
X170222773Y-127192628D01*
X170279404Y-127216085D01*
X170416131Y-127272720D01*
X170621404Y-127313551D01*
X170830698Y-127313551D01*
X171035971Y-127272720D01*
X171229333Y-127192626D01*
X171403355Y-127076349D01*
X171551349Y-126928355D01*
X171650850Y-126779440D01*
X173215551Y-126779440D01*
X173215551Y-126952662D01*
X173227188Y-127026137D01*
X173242648Y-127123751D01*
X173265028Y-127192628D01*
X173296178Y-127288496D01*
X173308945Y-127313551D01*
X173374822Y-127442844D01*
X173476634Y-127582975D01*
X173476637Y-127582979D01*
X173599123Y-127705465D01*
X173739263Y-127807283D01*
X173893606Y-127885924D01*
X174058350Y-127939453D01*
X174229440Y-127966551D01*
X174229444Y-127966551D01*
X174402658Y-127966551D01*
X174402662Y-127966551D01*
X174573752Y-127939453D01*
X174738496Y-127885924D01*
X174892839Y-127807283D01*
X175032979Y-127705465D01*
X175155465Y-127582979D01*
X175257283Y-127442839D01*
X175335924Y-127288496D01*
X175389453Y-127123752D01*
X175416551Y-126952662D01*
X175416551Y-126779440D01*
X188455551Y-126779440D01*
X188455551Y-126952662D01*
X188467188Y-127026137D01*
X188482648Y-127123751D01*
X188505028Y-127192628D01*
X188536178Y-127288496D01*
X188548945Y-127313551D01*
X188614822Y-127442844D01*
X188716634Y-127582975D01*
X188716637Y-127582979D01*
X188839123Y-127705465D01*
X188979263Y-127807283D01*
X189133606Y-127885924D01*
X189298350Y-127939453D01*
X189469440Y-127966551D01*
X189469444Y-127966551D01*
X189642658Y-127966551D01*
X189642662Y-127966551D01*
X189813752Y-127939453D01*
X189978496Y-127885924D01*
X190132839Y-127807283D01*
X190272979Y-127705465D01*
X190395465Y-127582979D01*
X190497283Y-127442839D01*
X190575924Y-127288496D01*
X190629453Y-127123752D01*
X190656551Y-126952662D01*
X190656551Y-126779440D01*
X190629453Y-126608350D01*
X190575924Y-126443606D01*
X190497283Y-126289263D01*
X190395465Y-126149123D01*
X190272979Y-126026637D01*
X190272975Y-126026634D01*
X190132844Y-125924822D01*
X190132841Y-125924820D01*
X190132839Y-125924819D01*
X189978496Y-125846178D01*
X189930872Y-125830704D01*
X189813751Y-125792648D01*
X189716137Y-125777188D01*
X189642662Y-125765551D01*
X189469440Y-125765551D01*
X189403088Y-125776060D01*
X189298350Y-125792648D01*
X189133612Y-125846176D01*
X189133606Y-125846178D01*
X189133600Y-125846180D01*
X189133600Y-125846181D01*
X188979257Y-125924822D01*
X188839126Y-126026634D01*
X188716634Y-126149126D01*
X188614822Y-126289257D01*
X188536181Y-126443600D01*
X188536176Y-126443612D01*
X188482648Y-126608350D01*
X188465509Y-126716566D01*
X188455551Y-126779440D01*
X175416551Y-126779440D01*
X175389453Y-126608350D01*
X175335924Y-126443606D01*
X175257283Y-126289263D01*
X175155465Y-126149123D01*
X175032979Y-126026637D01*
X175032975Y-126026634D01*
X174892844Y-125924822D01*
X174892841Y-125924820D01*
X174892839Y-125924819D01*
X174738496Y-125846178D01*
X174690872Y-125830704D01*
X174573751Y-125792648D01*
X174476137Y-125777188D01*
X174402662Y-125765551D01*
X174229440Y-125765551D01*
X174163088Y-125776060D01*
X174058350Y-125792648D01*
X173893612Y-125846176D01*
X173893606Y-125846178D01*
X173893600Y-125846180D01*
X173893600Y-125846181D01*
X173739257Y-125924822D01*
X173599126Y-126026634D01*
X173476634Y-126149126D01*
X173374822Y-126289257D01*
X173296181Y-126443600D01*
X173296176Y-126443612D01*
X173242648Y-126608350D01*
X173225509Y-126716566D01*
X173215551Y-126779440D01*
X171650850Y-126779440D01*
X171667626Y-126754333D01*
X171747720Y-126560971D01*
X171788551Y-126355698D01*
X171788551Y-126146404D01*
X171747720Y-125941131D01*
X171667626Y-125747769D01*
X171551349Y-125573747D01*
X171403355Y-125425753D01*
X171283876Y-125345920D01*
X171229338Y-125309479D01*
X171229328Y-125309473D01*
X171076016Y-125245969D01*
X171035971Y-125229382D01*
X171035969Y-125229381D01*
X171035968Y-125229381D01*
X170830698Y-125188551D01*
X170621404Y-125188551D01*
X170416133Y-125229381D01*
X170222773Y-125309473D01*
X170222763Y-125309479D01*
X170048748Y-125425752D01*
X170048743Y-125425756D01*
X169900756Y-125573743D01*
X169900752Y-125573748D01*
X169784479Y-125747763D01*
X169784473Y-125747773D01*
X169704381Y-125941133D01*
X169663551Y-126146403D01*
X169248551Y-126146403D01*
X169207720Y-125941131D01*
X169127626Y-125747769D01*
X169011349Y-125573747D01*
X168863355Y-125425753D01*
X168743876Y-125345920D01*
X168689338Y-125309479D01*
X168689328Y-125309473D01*
X168536016Y-125245969D01*
X168495971Y-125229382D01*
X168495969Y-125229381D01*
X168495968Y-125229381D01*
X168290698Y-125188551D01*
X168081404Y-125188551D01*
X167876133Y-125229381D01*
X167682773Y-125309473D01*
X167682763Y-125309479D01*
X167508748Y-125425752D01*
X167508743Y-125425756D01*
X167360756Y-125573743D01*
X167360752Y-125573748D01*
X167244479Y-125747763D01*
X167244473Y-125747773D01*
X167164381Y-125941133D01*
X167123551Y-126146403D01*
X166708551Y-126146403D01*
X166667720Y-125941131D01*
X166587626Y-125747769D01*
X166471349Y-125573747D01*
X166323355Y-125425753D01*
X166203876Y-125345920D01*
X166149338Y-125309479D01*
X166149328Y-125309473D01*
X165996016Y-125245969D01*
X165955971Y-125229382D01*
X165955969Y-125229381D01*
X165955968Y-125229381D01*
X165750698Y-125188551D01*
X165541404Y-125188551D01*
X165336133Y-125229381D01*
X165142773Y-125309473D01*
X165142763Y-125309479D01*
X164968748Y-125425752D01*
X164968743Y-125425756D01*
X164820756Y-125573743D01*
X164820752Y-125573748D01*
X164704479Y-125747763D01*
X164704473Y-125747773D01*
X164624381Y-125941133D01*
X164583551Y-126146403D01*
X164168551Y-126146403D01*
X164127720Y-125941131D01*
X164047626Y-125747769D01*
X163931349Y-125573747D01*
X163783355Y-125425753D01*
X163663876Y-125345920D01*
X163609338Y-125309479D01*
X163609328Y-125309473D01*
X163456016Y-125245969D01*
X163415971Y-125229382D01*
X163415969Y-125229381D01*
X163415968Y-125229381D01*
X163210698Y-125188551D01*
X163001404Y-125188551D01*
X162796133Y-125229381D01*
X162602773Y-125309473D01*
X162602763Y-125309479D01*
X162428748Y-125425752D01*
X162428743Y-125425756D01*
X162280756Y-125573743D01*
X162280752Y-125573748D01*
X162164479Y-125747763D01*
X162164473Y-125747773D01*
X162084381Y-125941133D01*
X162043551Y-126146403D01*
X161628551Y-126146403D01*
X161587720Y-125941131D01*
X161507626Y-125747769D01*
X161391349Y-125573747D01*
X161243355Y-125425753D01*
X161123876Y-125345920D01*
X161069338Y-125309479D01*
X161069328Y-125309473D01*
X160916016Y-125245969D01*
X160875971Y-125229382D01*
X160875969Y-125229381D01*
X160875968Y-125229381D01*
X160670698Y-125188551D01*
X160461404Y-125188551D01*
X160256133Y-125229381D01*
X160062773Y-125309473D01*
X160062763Y-125309479D01*
X159888748Y-125425752D01*
X159888743Y-125425756D01*
X159740756Y-125573743D01*
X159740752Y-125573748D01*
X159624479Y-125747763D01*
X159624473Y-125747773D01*
X159544381Y-125941133D01*
X159503551Y-126146403D01*
X159088551Y-126146403D01*
X159047720Y-125941131D01*
X158967626Y-125747769D01*
X158851349Y-125573747D01*
X158703355Y-125425753D01*
X158583876Y-125345920D01*
X158529338Y-125309479D01*
X158529328Y-125309473D01*
X158376016Y-125245969D01*
X158335971Y-125229382D01*
X158335969Y-125229381D01*
X158335968Y-125229381D01*
X158130698Y-125188551D01*
X157921404Y-125188551D01*
X157716133Y-125229381D01*
X157522773Y-125309473D01*
X157522763Y-125309479D01*
X157348748Y-125425752D01*
X157348743Y-125425756D01*
X157200756Y-125573743D01*
X157200752Y-125573748D01*
X157084479Y-125747763D01*
X157084473Y-125747773D01*
X157004381Y-125941133D01*
X156963551Y-126146403D01*
X156548551Y-126146403D01*
X156507720Y-125941131D01*
X156427626Y-125747769D01*
X156311349Y-125573747D01*
X156163355Y-125425753D01*
X156043876Y-125345920D01*
X155989338Y-125309479D01*
X155989328Y-125309473D01*
X155836016Y-125245969D01*
X155795971Y-125229382D01*
X155795969Y-125229381D01*
X155795968Y-125229381D01*
X155590698Y-125188551D01*
X155381404Y-125188551D01*
X155176133Y-125229381D01*
X154982773Y-125309473D01*
X154982763Y-125309479D01*
X154808748Y-125425752D01*
X154808743Y-125425756D01*
X154660756Y-125573743D01*
X154660752Y-125573748D01*
X154544479Y-125747763D01*
X154544473Y-125747773D01*
X154464381Y-125941133D01*
X154423551Y-126146403D01*
X154008551Y-126146403D01*
X153967720Y-125941131D01*
X153887626Y-125747769D01*
X153771349Y-125573747D01*
X153623355Y-125425753D01*
X153503876Y-125345920D01*
X153449338Y-125309479D01*
X153449328Y-125309473D01*
X153296016Y-125245969D01*
X153255971Y-125229382D01*
X153255969Y-125229381D01*
X153255968Y-125229381D01*
X153050698Y-125188551D01*
X152841404Y-125188551D01*
X152636133Y-125229381D01*
X152442773Y-125309473D01*
X152442763Y-125309479D01*
X152268748Y-125425752D01*
X152268743Y-125425756D01*
X152120756Y-125573743D01*
X152120752Y-125573748D01*
X152004479Y-125747763D01*
X152004473Y-125747773D01*
X151924381Y-125941133D01*
X151883551Y-126146403D01*
X151468551Y-126146403D01*
X151427720Y-125941131D01*
X151347626Y-125747769D01*
X151231349Y-125573747D01*
X151083355Y-125425753D01*
X150963876Y-125345920D01*
X150909338Y-125309479D01*
X150909328Y-125309473D01*
X150756016Y-125245969D01*
X150715971Y-125229382D01*
X150715969Y-125229381D01*
X150715968Y-125229381D01*
X150510698Y-125188551D01*
X150301404Y-125188551D01*
X150096133Y-125229381D01*
X149902773Y-125309473D01*
X149902763Y-125309479D01*
X149728748Y-125425752D01*
X149728743Y-125425756D01*
X149580756Y-125573743D01*
X149580752Y-125573748D01*
X149464479Y-125747763D01*
X149464473Y-125747773D01*
X149384381Y-125941133D01*
X149343551Y-126146403D01*
X148928551Y-126146403D01*
X148887720Y-125941131D01*
X148807626Y-125747769D01*
X148691349Y-125573747D01*
X148543355Y-125425753D01*
X148423876Y-125345920D01*
X148369338Y-125309479D01*
X148369328Y-125309473D01*
X148216016Y-125245969D01*
X148175971Y-125229382D01*
X148175969Y-125229381D01*
X148175968Y-125229381D01*
X147970698Y-125188551D01*
X147761404Y-125188551D01*
X147556133Y-125229381D01*
X147362773Y-125309473D01*
X147362763Y-125309479D01*
X147188748Y-125425752D01*
X147188743Y-125425756D01*
X147040756Y-125573743D01*
X147040752Y-125573748D01*
X146924479Y-125747763D01*
X146924473Y-125747773D01*
X146844381Y-125941133D01*
X146803551Y-126146403D01*
X146388551Y-126146403D01*
X146347720Y-125941131D01*
X146267626Y-125747769D01*
X146151349Y-125573747D01*
X146003355Y-125425753D01*
X145883876Y-125345920D01*
X145829338Y-125309479D01*
X145829328Y-125309473D01*
X145676016Y-125245969D01*
X145635971Y-125229382D01*
X145635969Y-125229381D01*
X145635968Y-125229381D01*
X145430698Y-125188551D01*
X145221404Y-125188551D01*
X145016133Y-125229381D01*
X144822773Y-125309473D01*
X144822763Y-125309479D01*
X144648748Y-125425752D01*
X144648743Y-125425756D01*
X144500756Y-125573743D01*
X144500752Y-125573748D01*
X144384479Y-125747763D01*
X144384473Y-125747773D01*
X144304381Y-125941133D01*
X144263551Y-126146403D01*
X143848551Y-126146403D01*
X143807720Y-125941131D01*
X143727626Y-125747769D01*
X143611349Y-125573747D01*
X143463355Y-125425753D01*
X143343876Y-125345920D01*
X143289338Y-125309479D01*
X143289328Y-125309473D01*
X143136016Y-125245969D01*
X143095971Y-125229382D01*
X143095969Y-125229381D01*
X143095968Y-125229381D01*
X142890698Y-125188551D01*
X142681404Y-125188551D01*
X142476133Y-125229381D01*
X142282773Y-125309473D01*
X142282763Y-125309479D01*
X142108748Y-125425752D01*
X142108743Y-125425756D01*
X141960756Y-125573743D01*
X141960752Y-125573748D01*
X141844479Y-125747763D01*
X141844473Y-125747773D01*
X141764381Y-125941133D01*
X141723551Y-126146403D01*
X109010500Y-126146403D01*
X109010500Y-123606403D01*
X169663551Y-123606403D01*
X169663551Y-123815698D01*
X169704381Y-124020968D01*
X169784473Y-124214328D01*
X169784476Y-124214333D01*
X169900753Y-124388355D01*
X170048747Y-124536349D01*
X170222769Y-124652626D01*
X170222771Y-124652626D01*
X170222773Y-124652628D01*
X170279404Y-124676085D01*
X170416131Y-124732720D01*
X170621404Y-124773551D01*
X170830698Y-124773551D01*
X171035971Y-124732720D01*
X171229333Y-124652626D01*
X171403355Y-124536349D01*
X171551349Y-124388355D01*
X171650850Y-124239440D01*
X173215551Y-124239440D01*
X173215551Y-124412662D01*
X173227188Y-124486137D01*
X173242648Y-124583751D01*
X173265028Y-124652628D01*
X173296178Y-124748496D01*
X173308945Y-124773551D01*
X173374822Y-124902844D01*
X173476634Y-125042975D01*
X173476637Y-125042979D01*
X173599123Y-125165465D01*
X173599126Y-125165467D01*
X173687095Y-125229381D01*
X173739263Y-125267283D01*
X173893606Y-125345924D01*
X174058350Y-125399453D01*
X174229440Y-125426551D01*
X174229444Y-125426551D01*
X174402658Y-125426551D01*
X174402662Y-125426551D01*
X174573752Y-125399453D01*
X174738496Y-125345924D01*
X174892839Y-125267283D01*
X175032979Y-125165465D01*
X175155465Y-125042979D01*
X175257283Y-124902839D01*
X175335924Y-124748496D01*
X175389453Y-124583752D01*
X175416551Y-124412662D01*
X175416551Y-124239440D01*
X188455551Y-124239440D01*
X188455551Y-124412662D01*
X188467188Y-124486137D01*
X188482648Y-124583751D01*
X188505028Y-124652628D01*
X188536178Y-124748496D01*
X188548945Y-124773551D01*
X188614822Y-124902844D01*
X188716634Y-125042975D01*
X188716637Y-125042979D01*
X188839123Y-125165465D01*
X188839126Y-125165467D01*
X188927095Y-125229381D01*
X188979263Y-125267283D01*
X189133606Y-125345924D01*
X189298350Y-125399453D01*
X189469440Y-125426551D01*
X189469444Y-125426551D01*
X189642658Y-125426551D01*
X189642662Y-125426551D01*
X189813752Y-125399453D01*
X189978496Y-125345924D01*
X190132839Y-125267283D01*
X190272979Y-125165465D01*
X190395465Y-125042979D01*
X190497283Y-124902839D01*
X190575924Y-124748496D01*
X190629453Y-124583752D01*
X190656551Y-124412662D01*
X190656551Y-124239440D01*
X190629453Y-124068350D01*
X190575924Y-123903606D01*
X190497283Y-123749263D01*
X190395465Y-123609123D01*
X190272979Y-123486637D01*
X190272975Y-123486634D01*
X190132844Y-123384822D01*
X190132841Y-123384820D01*
X190132839Y-123384819D01*
X189978496Y-123306178D01*
X189930872Y-123290704D01*
X189813751Y-123252648D01*
X189716137Y-123237188D01*
X189642662Y-123225551D01*
X189469440Y-123225551D01*
X189403088Y-123236060D01*
X189298350Y-123252648D01*
X189133612Y-123306176D01*
X189133606Y-123306178D01*
X189133600Y-123306180D01*
X189133600Y-123306181D01*
X188979257Y-123384822D01*
X188839126Y-123486634D01*
X188716634Y-123609126D01*
X188614822Y-123749257D01*
X188536181Y-123903600D01*
X188536176Y-123903612D01*
X188482648Y-124068350D01*
X188465509Y-124176566D01*
X188455551Y-124239440D01*
X175416551Y-124239440D01*
X175389453Y-124068350D01*
X175335924Y-123903606D01*
X175257283Y-123749263D01*
X175155465Y-123609123D01*
X175032979Y-123486637D01*
X175032975Y-123486634D01*
X174892844Y-123384822D01*
X174892841Y-123384820D01*
X174892839Y-123384819D01*
X174738496Y-123306178D01*
X174690872Y-123290704D01*
X174573751Y-123252648D01*
X174476137Y-123237188D01*
X174402662Y-123225551D01*
X174229440Y-123225551D01*
X174163088Y-123236060D01*
X174058350Y-123252648D01*
X173893612Y-123306176D01*
X173893606Y-123306178D01*
X173893600Y-123306180D01*
X173893600Y-123306181D01*
X173739257Y-123384822D01*
X173599126Y-123486634D01*
X173476634Y-123609126D01*
X173374822Y-123749257D01*
X173296181Y-123903600D01*
X173296176Y-123903612D01*
X173242648Y-124068350D01*
X173225509Y-124176566D01*
X173215551Y-124239440D01*
X171650850Y-124239440D01*
X171667626Y-124214333D01*
X171747720Y-124020971D01*
X171788551Y-123815698D01*
X171788551Y-123606404D01*
X171747720Y-123401131D01*
X171667626Y-123207769D01*
X171551349Y-123033747D01*
X171403355Y-122885753D01*
X171283876Y-122805920D01*
X171229338Y-122769479D01*
X171229328Y-122769473D01*
X171076016Y-122705969D01*
X171035971Y-122689382D01*
X171035969Y-122689381D01*
X171035968Y-122689381D01*
X170830698Y-122648551D01*
X170621404Y-122648551D01*
X170416133Y-122689381D01*
X170222773Y-122769473D01*
X170222763Y-122769479D01*
X170048748Y-122885752D01*
X170048743Y-122885756D01*
X169900756Y-123033743D01*
X169900752Y-123033748D01*
X169784479Y-123207763D01*
X169784473Y-123207773D01*
X169704381Y-123401133D01*
X169663551Y-123606403D01*
X109010500Y-123606403D01*
X109010500Y-121066403D01*
X169663551Y-121066403D01*
X169663551Y-121275698D01*
X169704381Y-121480968D01*
X169784473Y-121674328D01*
X169784476Y-121674333D01*
X169900753Y-121848355D01*
X170048747Y-121996349D01*
X170222769Y-122112626D01*
X170222771Y-122112626D01*
X170222773Y-122112628D01*
X170279404Y-122136085D01*
X170416131Y-122192720D01*
X170621404Y-122233551D01*
X170830698Y-122233551D01*
X171035971Y-122192720D01*
X171229333Y-122112626D01*
X171403355Y-121996349D01*
X171551349Y-121848355D01*
X171650850Y-121699440D01*
X173215551Y-121699440D01*
X173215551Y-121872662D01*
X173227188Y-121946137D01*
X173242648Y-122043751D01*
X173265028Y-122112628D01*
X173296178Y-122208496D01*
X173308945Y-122233551D01*
X173374822Y-122362844D01*
X173476634Y-122502975D01*
X173476637Y-122502979D01*
X173599123Y-122625465D01*
X173599126Y-122625467D01*
X173687095Y-122689381D01*
X173739263Y-122727283D01*
X173893606Y-122805924D01*
X174058350Y-122859453D01*
X174229440Y-122886551D01*
X174229444Y-122886551D01*
X174402658Y-122886551D01*
X174402662Y-122886551D01*
X174573752Y-122859453D01*
X174738496Y-122805924D01*
X174892839Y-122727283D01*
X175032979Y-122625465D01*
X175155465Y-122502979D01*
X175257283Y-122362839D01*
X175335924Y-122208496D01*
X175389453Y-122043752D01*
X175416551Y-121872662D01*
X175416551Y-121699440D01*
X188455551Y-121699440D01*
X188455551Y-121872662D01*
X188467188Y-121946137D01*
X188482648Y-122043751D01*
X188505028Y-122112628D01*
X188536178Y-122208496D01*
X188548945Y-122233551D01*
X188614822Y-122362844D01*
X188716634Y-122502975D01*
X188716637Y-122502979D01*
X188839123Y-122625465D01*
X188839126Y-122625467D01*
X188927095Y-122689381D01*
X188979263Y-122727283D01*
X189133606Y-122805924D01*
X189298350Y-122859453D01*
X189469440Y-122886551D01*
X189469444Y-122886551D01*
X189642658Y-122886551D01*
X189642662Y-122886551D01*
X189813752Y-122859453D01*
X189978496Y-122805924D01*
X190132839Y-122727283D01*
X190272979Y-122625465D01*
X190395465Y-122502979D01*
X190497283Y-122362839D01*
X190575924Y-122208496D01*
X190629453Y-122043752D01*
X190656551Y-121872662D01*
X190656551Y-121699440D01*
X190629453Y-121528350D01*
X190575924Y-121363606D01*
X190497283Y-121209263D01*
X190490916Y-121200500D01*
X190395467Y-121069126D01*
X190395465Y-121069123D01*
X190272979Y-120946637D01*
X190246712Y-120927553D01*
X190132844Y-120844822D01*
X190132841Y-120844820D01*
X190132839Y-120844819D01*
X189978496Y-120766178D01*
X189930872Y-120750704D01*
X189813751Y-120712648D01*
X189716137Y-120697188D01*
X189642662Y-120685551D01*
X189469440Y-120685551D01*
X189403088Y-120696060D01*
X189298350Y-120712648D01*
X189133612Y-120766176D01*
X189133606Y-120766178D01*
X189133600Y-120766180D01*
X189133600Y-120766181D01*
X188979257Y-120844822D01*
X188839126Y-120946634D01*
X188716634Y-121069126D01*
X188614822Y-121209257D01*
X188536181Y-121363600D01*
X188536176Y-121363612D01*
X188482648Y-121528350D01*
X188465509Y-121636566D01*
X188455551Y-121699440D01*
X175416551Y-121699440D01*
X175389453Y-121528350D01*
X175335924Y-121363606D01*
X175257283Y-121209263D01*
X175250916Y-121200500D01*
X175155467Y-121069126D01*
X175155465Y-121069123D01*
X175032979Y-120946637D01*
X175006712Y-120927553D01*
X174892844Y-120844822D01*
X174892841Y-120844820D01*
X174892839Y-120844819D01*
X174738496Y-120766178D01*
X174690872Y-120750704D01*
X174573751Y-120712648D01*
X174476137Y-120697188D01*
X174402662Y-120685551D01*
X174229440Y-120685551D01*
X174163088Y-120696060D01*
X174058350Y-120712648D01*
X173893612Y-120766176D01*
X173893606Y-120766178D01*
X173893600Y-120766180D01*
X173893600Y-120766181D01*
X173739257Y-120844822D01*
X173599126Y-120946634D01*
X173476634Y-121069126D01*
X173374822Y-121209257D01*
X173296181Y-121363600D01*
X173296176Y-121363612D01*
X173242648Y-121528350D01*
X173225509Y-121636566D01*
X173215551Y-121699440D01*
X171650850Y-121699440D01*
X171667626Y-121674333D01*
X171747720Y-121480971D01*
X171788551Y-121275698D01*
X171788551Y-121066404D01*
X171747720Y-120861131D01*
X171667626Y-120667769D01*
X171551349Y-120493747D01*
X171403355Y-120345753D01*
X171283876Y-120265920D01*
X171229338Y-120229479D01*
X171229328Y-120229473D01*
X171076016Y-120165969D01*
X171035971Y-120149382D01*
X171035969Y-120149381D01*
X171035968Y-120149381D01*
X170830698Y-120108551D01*
X170621404Y-120108551D01*
X170416133Y-120149381D01*
X170222773Y-120229473D01*
X170222763Y-120229479D01*
X170048748Y-120345752D01*
X170048743Y-120345756D01*
X169900756Y-120493743D01*
X169900752Y-120493748D01*
X169784479Y-120667763D01*
X169784473Y-120667773D01*
X169704381Y-120861133D01*
X169663551Y-121066403D01*
X109010500Y-121066403D01*
X109010500Y-118526403D01*
X169663551Y-118526403D01*
X169663551Y-118735698D01*
X169704381Y-118940968D01*
X169784473Y-119134328D01*
X169784476Y-119134333D01*
X169900753Y-119308355D01*
X170048747Y-119456349D01*
X170222769Y-119572626D01*
X170222771Y-119572626D01*
X170222773Y-119572628D01*
X170279404Y-119596085D01*
X170416131Y-119652720D01*
X170621404Y-119693551D01*
X170830698Y-119693551D01*
X171035971Y-119652720D01*
X171229333Y-119572626D01*
X171403355Y-119456349D01*
X171551349Y-119308355D01*
X171650850Y-119159440D01*
X173215551Y-119159440D01*
X173215551Y-119332662D01*
X173227188Y-119406137D01*
X173242648Y-119503751D01*
X173265028Y-119572628D01*
X173296178Y-119668496D01*
X173308945Y-119693551D01*
X173374822Y-119822844D01*
X173474076Y-119959454D01*
X173476637Y-119962979D01*
X173599123Y-120085465D01*
X173599126Y-120085467D01*
X173687095Y-120149381D01*
X173739263Y-120187283D01*
X173893606Y-120265924D01*
X174058350Y-120319453D01*
X174229440Y-120346551D01*
X174229444Y-120346551D01*
X174402658Y-120346551D01*
X174402662Y-120346551D01*
X174573752Y-120319453D01*
X174738496Y-120265924D01*
X174892839Y-120187283D01*
X175032979Y-120085465D01*
X175155465Y-119962979D01*
X175257283Y-119822839D01*
X175335924Y-119668496D01*
X175389453Y-119503752D01*
X175416551Y-119332662D01*
X175416551Y-119159440D01*
X175755551Y-119159440D01*
X175755551Y-119332662D01*
X175767188Y-119406137D01*
X175782648Y-119503751D01*
X175805028Y-119572628D01*
X175836178Y-119668496D01*
X175848945Y-119693551D01*
X175914822Y-119822844D01*
X176014076Y-119959454D01*
X176016637Y-119962979D01*
X176139123Y-120085465D01*
X176139126Y-120085467D01*
X176227095Y-120149381D01*
X176279263Y-120187283D01*
X176433606Y-120265924D01*
X176598350Y-120319453D01*
X176769440Y-120346551D01*
X176769444Y-120346551D01*
X176942658Y-120346551D01*
X176942662Y-120346551D01*
X177113752Y-120319453D01*
X177278496Y-120265924D01*
X177432839Y-120187283D01*
X177572979Y-120085465D01*
X177695465Y-119962979D01*
X177797283Y-119822839D01*
X177875924Y-119668496D01*
X177929453Y-119503752D01*
X177956551Y-119332662D01*
X177956551Y-119159440D01*
X178295551Y-119159440D01*
X178295551Y-119332662D01*
X178307188Y-119406137D01*
X178322648Y-119503751D01*
X178345028Y-119572628D01*
X178376178Y-119668496D01*
X178388945Y-119693551D01*
X178454822Y-119822844D01*
X178554076Y-119959454D01*
X178556637Y-119962979D01*
X178679123Y-120085465D01*
X178679126Y-120085467D01*
X178767095Y-120149381D01*
X178819263Y-120187283D01*
X178973606Y-120265924D01*
X179138350Y-120319453D01*
X179309440Y-120346551D01*
X179309444Y-120346551D01*
X179482658Y-120346551D01*
X179482662Y-120346551D01*
X179653752Y-120319453D01*
X179818496Y-120265924D01*
X179972839Y-120187283D01*
X180112979Y-120085465D01*
X180235465Y-119962979D01*
X180337283Y-119822839D01*
X180415924Y-119668496D01*
X180469453Y-119503752D01*
X180496551Y-119332662D01*
X180496551Y-119159440D01*
X183375551Y-119159440D01*
X183375551Y-119332662D01*
X183387188Y-119406137D01*
X183402648Y-119503751D01*
X183425028Y-119572628D01*
X183456178Y-119668496D01*
X183468945Y-119693551D01*
X183534822Y-119822844D01*
X183634076Y-119959454D01*
X183636637Y-119962979D01*
X183759123Y-120085465D01*
X183759126Y-120085467D01*
X183847095Y-120149381D01*
X183899263Y-120187283D01*
X184053606Y-120265924D01*
X184218350Y-120319453D01*
X184389440Y-120346551D01*
X184389444Y-120346551D01*
X184562658Y-120346551D01*
X184562662Y-120346551D01*
X184733752Y-120319453D01*
X184898496Y-120265924D01*
X185052839Y-120187283D01*
X185192979Y-120085465D01*
X185315465Y-119962979D01*
X185417283Y-119822839D01*
X185495924Y-119668496D01*
X185549453Y-119503752D01*
X185576551Y-119332662D01*
X185576551Y-119159440D01*
X185915551Y-119159440D01*
X185915551Y-119332662D01*
X185927188Y-119406137D01*
X185942648Y-119503751D01*
X185965028Y-119572628D01*
X185996178Y-119668496D01*
X186008945Y-119693551D01*
X186074822Y-119822844D01*
X186174076Y-119959454D01*
X186176637Y-119962979D01*
X186299123Y-120085465D01*
X186299126Y-120085467D01*
X186387095Y-120149381D01*
X186439263Y-120187283D01*
X186593606Y-120265924D01*
X186758350Y-120319453D01*
X186929440Y-120346551D01*
X186929444Y-120346551D01*
X187102658Y-120346551D01*
X187102662Y-120346551D01*
X187273752Y-120319453D01*
X187438496Y-120265924D01*
X187592839Y-120187283D01*
X187732979Y-120085465D01*
X187855465Y-119962979D01*
X187957283Y-119822839D01*
X188035924Y-119668496D01*
X188089453Y-119503752D01*
X188116551Y-119332662D01*
X188116551Y-119159440D01*
X188455551Y-119159440D01*
X188455551Y-119332662D01*
X188467188Y-119406137D01*
X188482648Y-119503751D01*
X188505028Y-119572628D01*
X188536178Y-119668496D01*
X188548945Y-119693551D01*
X188614822Y-119822844D01*
X188714076Y-119959454D01*
X188716637Y-119962979D01*
X188839123Y-120085465D01*
X188839126Y-120085467D01*
X188927095Y-120149381D01*
X188979263Y-120187283D01*
X189133606Y-120265924D01*
X189298350Y-120319453D01*
X189469440Y-120346551D01*
X189469444Y-120346551D01*
X189642658Y-120346551D01*
X189642662Y-120346551D01*
X189813752Y-120319453D01*
X189978496Y-120265924D01*
X190132839Y-120187283D01*
X190272979Y-120085465D01*
X190395465Y-119962979D01*
X190497283Y-119822839D01*
X190575924Y-119668496D01*
X190629453Y-119503752D01*
X190656551Y-119332662D01*
X190656551Y-119159440D01*
X190629453Y-118988350D01*
X190575924Y-118823606D01*
X190497283Y-118669263D01*
X190471924Y-118634360D01*
X190405491Y-118542923D01*
X190395465Y-118529123D01*
X190272979Y-118406637D01*
X190272975Y-118406634D01*
X190132844Y-118304822D01*
X190132841Y-118304820D01*
X190132839Y-118304819D01*
X189978496Y-118226178D01*
X189930872Y-118210704D01*
X189813751Y-118172648D01*
X189716137Y-118157188D01*
X189642662Y-118145551D01*
X189469440Y-118145551D01*
X189403088Y-118156060D01*
X189298350Y-118172648D01*
X189133612Y-118226176D01*
X189133606Y-118226178D01*
X189133600Y-118226180D01*
X189133600Y-118226181D01*
X188979257Y-118304822D01*
X188839126Y-118406634D01*
X188716634Y-118529126D01*
X188614822Y-118669257D01*
X188536181Y-118823600D01*
X188536176Y-118823612D01*
X188482648Y-118988350D01*
X188465509Y-119096566D01*
X188455551Y-119159440D01*
X188116551Y-119159440D01*
X188089453Y-118988350D01*
X188035924Y-118823606D01*
X187957283Y-118669263D01*
X187931924Y-118634360D01*
X187865491Y-118542923D01*
X187855465Y-118529123D01*
X187732979Y-118406637D01*
X187732975Y-118406634D01*
X187592844Y-118304822D01*
X187592841Y-118304820D01*
X187592839Y-118304819D01*
X187438496Y-118226178D01*
X187390872Y-118210704D01*
X187273751Y-118172648D01*
X187176137Y-118157188D01*
X187102662Y-118145551D01*
X186929440Y-118145551D01*
X186863088Y-118156060D01*
X186758350Y-118172648D01*
X186593612Y-118226176D01*
X186593606Y-118226178D01*
X186593600Y-118226180D01*
X186593600Y-118226181D01*
X186439257Y-118304822D01*
X186299126Y-118406634D01*
X186176634Y-118529126D01*
X186074822Y-118669257D01*
X185996181Y-118823600D01*
X185996176Y-118823612D01*
X185942648Y-118988350D01*
X185925509Y-119096566D01*
X185915551Y-119159440D01*
X185576551Y-119159440D01*
X185549453Y-118988350D01*
X185495924Y-118823606D01*
X185417283Y-118669263D01*
X185391924Y-118634360D01*
X185325491Y-118542923D01*
X185315465Y-118529123D01*
X185192979Y-118406637D01*
X185192975Y-118406634D01*
X185052844Y-118304822D01*
X185052841Y-118304820D01*
X185052839Y-118304819D01*
X184898496Y-118226178D01*
X184850872Y-118210704D01*
X184733751Y-118172648D01*
X184636137Y-118157188D01*
X184562662Y-118145551D01*
X184389440Y-118145551D01*
X184323088Y-118156060D01*
X184218350Y-118172648D01*
X184053612Y-118226176D01*
X184053606Y-118226178D01*
X184053600Y-118226180D01*
X184053600Y-118226181D01*
X183899257Y-118304822D01*
X183759126Y-118406634D01*
X183636634Y-118529126D01*
X183534822Y-118669257D01*
X183456181Y-118823600D01*
X183456176Y-118823612D01*
X183402648Y-118988350D01*
X183385509Y-119096566D01*
X183375551Y-119159440D01*
X180496551Y-119159440D01*
X180469453Y-118988350D01*
X180415924Y-118823606D01*
X180337283Y-118669263D01*
X180311924Y-118634360D01*
X180245491Y-118542923D01*
X180235465Y-118529123D01*
X180112979Y-118406637D01*
X180112975Y-118406634D01*
X179972844Y-118304822D01*
X179972841Y-118304820D01*
X179972839Y-118304819D01*
X179818496Y-118226178D01*
X179770872Y-118210704D01*
X179653751Y-118172648D01*
X179556137Y-118157188D01*
X179482662Y-118145551D01*
X179309440Y-118145551D01*
X179243088Y-118156060D01*
X179138350Y-118172648D01*
X178973612Y-118226176D01*
X178973606Y-118226178D01*
X178973600Y-118226180D01*
X178973600Y-118226181D01*
X178819257Y-118304822D01*
X178679126Y-118406634D01*
X178556634Y-118529126D01*
X178454822Y-118669257D01*
X178376181Y-118823600D01*
X178376176Y-118823612D01*
X178322648Y-118988350D01*
X178305509Y-119096566D01*
X178295551Y-119159440D01*
X177956551Y-119159440D01*
X177929453Y-118988350D01*
X177875924Y-118823606D01*
X177797283Y-118669263D01*
X177771924Y-118634360D01*
X177705491Y-118542923D01*
X177695465Y-118529123D01*
X177572979Y-118406637D01*
X177572975Y-118406634D01*
X177432844Y-118304822D01*
X177432841Y-118304820D01*
X177432839Y-118304819D01*
X177278496Y-118226178D01*
X177230872Y-118210704D01*
X177113751Y-118172648D01*
X177016137Y-118157188D01*
X176942662Y-118145551D01*
X176769440Y-118145551D01*
X176703088Y-118156060D01*
X176598350Y-118172648D01*
X176433612Y-118226176D01*
X176433606Y-118226178D01*
X176433600Y-118226180D01*
X176433600Y-118226181D01*
X176279257Y-118304822D01*
X176139126Y-118406634D01*
X176016634Y-118529126D01*
X175914822Y-118669257D01*
X175836181Y-118823600D01*
X175836176Y-118823612D01*
X175782648Y-118988350D01*
X175765509Y-119096566D01*
X175755551Y-119159440D01*
X175416551Y-119159440D01*
X175389453Y-118988350D01*
X175335924Y-118823606D01*
X175257283Y-118669263D01*
X175231924Y-118634360D01*
X175165491Y-118542923D01*
X175155465Y-118529123D01*
X175032979Y-118406637D01*
X175032975Y-118406634D01*
X174892844Y-118304822D01*
X174892841Y-118304820D01*
X174892839Y-118304819D01*
X174738496Y-118226178D01*
X174690872Y-118210704D01*
X174573751Y-118172648D01*
X174476137Y-118157188D01*
X174402662Y-118145551D01*
X174229440Y-118145551D01*
X174163088Y-118156060D01*
X174058350Y-118172648D01*
X173893612Y-118226176D01*
X173893606Y-118226178D01*
X173893600Y-118226180D01*
X173893600Y-118226181D01*
X173739257Y-118304822D01*
X173599126Y-118406634D01*
X173476634Y-118529126D01*
X173374822Y-118669257D01*
X173296181Y-118823600D01*
X173296176Y-118823612D01*
X173242648Y-118988350D01*
X173225509Y-119096566D01*
X173215551Y-119159440D01*
X171650850Y-119159440D01*
X171667626Y-119134333D01*
X171747720Y-118940971D01*
X171788551Y-118735698D01*
X171788551Y-118526404D01*
X171747720Y-118321131D01*
X171667626Y-118127769D01*
X171551349Y-117953747D01*
X171403355Y-117805753D01*
X171283876Y-117725920D01*
X171229338Y-117689479D01*
X171229328Y-117689473D01*
X171076016Y-117625969D01*
X171035971Y-117609382D01*
X171035969Y-117609381D01*
X171035968Y-117609381D01*
X170830698Y-117568551D01*
X170621404Y-117568551D01*
X170416133Y-117609381D01*
X170222773Y-117689473D01*
X170222763Y-117689479D01*
X170048748Y-117805752D01*
X170048743Y-117805756D01*
X169900756Y-117953743D01*
X169900752Y-117953748D01*
X169784479Y-118127763D01*
X169784473Y-118127773D01*
X169704381Y-118321133D01*
X169663551Y-118526403D01*
X109010500Y-118526403D01*
X109010500Y-116619440D01*
X173215551Y-116619440D01*
X173215551Y-116792662D01*
X173227188Y-116866137D01*
X173242648Y-116963751D01*
X173280704Y-117080872D01*
X173296178Y-117128496D01*
X173296181Y-117128501D01*
X173374822Y-117282844D01*
X173476634Y-117422975D01*
X173476637Y-117422979D01*
X173599123Y-117545465D01*
X173599126Y-117545467D01*
X173687095Y-117609381D01*
X173739263Y-117647283D01*
X173893606Y-117725924D01*
X174058350Y-117779453D01*
X174229440Y-117806551D01*
X174229444Y-117806551D01*
X174402658Y-117806551D01*
X174402662Y-117806551D01*
X174573752Y-117779453D01*
X174738496Y-117725924D01*
X174892839Y-117647283D01*
X175032979Y-117545465D01*
X175155465Y-117422979D01*
X175257283Y-117282839D01*
X175335924Y-117128496D01*
X175389453Y-116963752D01*
X175416551Y-116792662D01*
X175416551Y-116619440D01*
X188455551Y-116619440D01*
X188455551Y-116792662D01*
X188467188Y-116866137D01*
X188482648Y-116963751D01*
X188520704Y-117080872D01*
X188536178Y-117128496D01*
X188536181Y-117128501D01*
X188614822Y-117282844D01*
X188716634Y-117422975D01*
X188716637Y-117422979D01*
X188839123Y-117545465D01*
X188839126Y-117545467D01*
X188927095Y-117609381D01*
X188979263Y-117647283D01*
X189133606Y-117725924D01*
X189298350Y-117779453D01*
X189469440Y-117806551D01*
X189469444Y-117806551D01*
X189642658Y-117806551D01*
X189642662Y-117806551D01*
X189813752Y-117779453D01*
X189978496Y-117725924D01*
X190132839Y-117647283D01*
X190272979Y-117545465D01*
X190395465Y-117422979D01*
X190497283Y-117282839D01*
X190575924Y-117128496D01*
X190629453Y-116963752D01*
X190638458Y-116906894D01*
X203799500Y-116906894D01*
X203799500Y-118193105D01*
X203810122Y-118281563D01*
X203865638Y-118422341D01*
X203946613Y-118529123D01*
X203957078Y-118542922D01*
X204077658Y-118634361D01*
X204218436Y-118689877D01*
X204306898Y-118700500D01*
X204306899Y-118700500D01*
X204443716Y-118700500D01*
X204518216Y-118720462D01*
X204572754Y-118775000D01*
X204592716Y-118849500D01*
X204572754Y-118924000D01*
X204518216Y-118978538D01*
X204511361Y-118982260D01*
X204347004Y-119066005D01*
X204347003Y-119066005D01*
X204200500Y-119172446D01*
X204200497Y-119172448D01*
X204072448Y-119300497D01*
X204072446Y-119300500D01*
X203966005Y-119447003D01*
X203966005Y-119447004D01*
X203883789Y-119608360D01*
X203827829Y-119780591D01*
X203799500Y-119959454D01*
X203799500Y-120140546D01*
X203827829Y-120319409D01*
X203836388Y-120345752D01*
X203883789Y-120491639D01*
X203966005Y-120652995D01*
X203966005Y-120652996D01*
X203989658Y-120685551D01*
X204072447Y-120799501D01*
X204200499Y-120927553D01*
X204347006Y-121033996D01*
X204508361Y-121116211D01*
X204680591Y-121172171D01*
X204859454Y-121200500D01*
X204859458Y-121200500D01*
X205340542Y-121200500D01*
X205340546Y-121200500D01*
X205519409Y-121172171D01*
X205691639Y-121116211D01*
X205852994Y-121033996D01*
X205999501Y-120927553D01*
X206127553Y-120799501D01*
X206233996Y-120652994D01*
X206316211Y-120491639D01*
X206372171Y-120319409D01*
X206400500Y-120140546D01*
X206400500Y-119959454D01*
X206372171Y-119780591D01*
X206316211Y-119608361D01*
X206233996Y-119447006D01*
X206127553Y-119300499D01*
X205999501Y-119172447D01*
X205852994Y-119066004D01*
X205763865Y-119020590D01*
X205688639Y-118982260D01*
X205631322Y-118930650D01*
X205607488Y-118857297D01*
X205623524Y-118781855D01*
X205675134Y-118724538D01*
X205748487Y-118700704D01*
X205756284Y-118700500D01*
X205893101Y-118700500D01*
X205893102Y-118700500D01*
X205981564Y-118689877D01*
X206122342Y-118634361D01*
X206242922Y-118542922D01*
X206334361Y-118422342D01*
X206389877Y-118281564D01*
X206400500Y-118193102D01*
X206400500Y-116906898D01*
X206389877Y-116818436D01*
X206334361Y-116677658D01*
X206242922Y-116557078D01*
X206242920Y-116557076D01*
X206195982Y-116521482D01*
X206122342Y-116465639D01*
X206122341Y-116465638D01*
X205981563Y-116410122D01*
X205893105Y-116399500D01*
X205893102Y-116399500D01*
X204306898Y-116399500D01*
X204306894Y-116399500D01*
X204218436Y-116410122D01*
X204077658Y-116465638D01*
X204077658Y-116465639D01*
X203957079Y-116557076D01*
X203957076Y-116557079D01*
X203865639Y-116677658D01*
X203865638Y-116677658D01*
X203810122Y-116818436D01*
X203799500Y-116906894D01*
X190638458Y-116906894D01*
X190656551Y-116792662D01*
X190656551Y-116619440D01*
X190629453Y-116448350D01*
X190575924Y-116283606D01*
X190497283Y-116129263D01*
X190395465Y-115989123D01*
X190272979Y-115866637D01*
X190272975Y-115866634D01*
X190132844Y-115764822D01*
X190132841Y-115764820D01*
X190132839Y-115764819D01*
X189978496Y-115686178D01*
X189930872Y-115670704D01*
X189813751Y-115632648D01*
X189716137Y-115617188D01*
X189642662Y-115605551D01*
X189469440Y-115605551D01*
X189403088Y-115616060D01*
X189298350Y-115632648D01*
X189133612Y-115686176D01*
X189133606Y-115686178D01*
X189133600Y-115686180D01*
X189133600Y-115686181D01*
X188979257Y-115764822D01*
X188839126Y-115866634D01*
X188716634Y-115989126D01*
X188614822Y-116129257D01*
X188536181Y-116283600D01*
X188536176Y-116283612D01*
X188482648Y-116448350D01*
X188465428Y-116557076D01*
X188455551Y-116619440D01*
X175416551Y-116619440D01*
X175389453Y-116448350D01*
X175335924Y-116283606D01*
X175257283Y-116129263D01*
X175155465Y-115989123D01*
X175032979Y-115866637D01*
X175032975Y-115866634D01*
X174892844Y-115764822D01*
X174892841Y-115764820D01*
X174892839Y-115764819D01*
X174738496Y-115686178D01*
X174690872Y-115670704D01*
X174573751Y-115632648D01*
X174476137Y-115617188D01*
X174402662Y-115605551D01*
X174229440Y-115605551D01*
X174163088Y-115616060D01*
X174058350Y-115632648D01*
X173893612Y-115686176D01*
X173893606Y-115686178D01*
X173893600Y-115686180D01*
X173893600Y-115686181D01*
X173739257Y-115764822D01*
X173599126Y-115866634D01*
X173476634Y-115989126D01*
X173374822Y-116129257D01*
X173296181Y-116283600D01*
X173296176Y-116283612D01*
X173242648Y-116448350D01*
X173225428Y-116557076D01*
X173215551Y-116619440D01*
X109010500Y-116619440D01*
X109010500Y-113446403D01*
X141723551Y-113446403D01*
X141723551Y-113655698D01*
X141764381Y-113860968D01*
X141844473Y-114054328D01*
X141844476Y-114054333D01*
X141960753Y-114228355D01*
X142108747Y-114376349D01*
X142282769Y-114492626D01*
X142282771Y-114492626D01*
X142282773Y-114492628D01*
X142339404Y-114516085D01*
X142476131Y-114572720D01*
X142681404Y-114613551D01*
X142890698Y-114613551D01*
X143095971Y-114572720D01*
X143289333Y-114492626D01*
X143463355Y-114376349D01*
X143611349Y-114228355D01*
X143727626Y-114054333D01*
X143807720Y-113860971D01*
X143848551Y-113655698D01*
X143848551Y-113446404D01*
X143848551Y-113446403D01*
X144263551Y-113446403D01*
X144263551Y-113655698D01*
X144304381Y-113860968D01*
X144384473Y-114054328D01*
X144384476Y-114054333D01*
X144500753Y-114228355D01*
X144648747Y-114376349D01*
X144822769Y-114492626D01*
X144822771Y-114492626D01*
X144822773Y-114492628D01*
X144879404Y-114516085D01*
X145016131Y-114572720D01*
X145221404Y-114613551D01*
X145430698Y-114613551D01*
X145635971Y-114572720D01*
X145829333Y-114492626D01*
X146003355Y-114376349D01*
X146151349Y-114228355D01*
X146267626Y-114054333D01*
X146347720Y-113860971D01*
X146388551Y-113655698D01*
X146388551Y-113446404D01*
X146388551Y-113446403D01*
X146803551Y-113446403D01*
X146803551Y-113655698D01*
X146844381Y-113860968D01*
X146924473Y-114054328D01*
X146924476Y-114054333D01*
X147040753Y-114228355D01*
X147188747Y-114376349D01*
X147362769Y-114492626D01*
X147362771Y-114492626D01*
X147362773Y-114492628D01*
X147419404Y-114516085D01*
X147556131Y-114572720D01*
X147761404Y-114613551D01*
X147970698Y-114613551D01*
X148175971Y-114572720D01*
X148369333Y-114492626D01*
X148543355Y-114376349D01*
X148691349Y-114228355D01*
X148807626Y-114054333D01*
X148887720Y-113860971D01*
X148928551Y-113655698D01*
X148928551Y-113446404D01*
X148928551Y-113446403D01*
X149343551Y-113446403D01*
X149343551Y-113655698D01*
X149384381Y-113860968D01*
X149464473Y-114054328D01*
X149464476Y-114054333D01*
X149580753Y-114228355D01*
X149728747Y-114376349D01*
X149902769Y-114492626D01*
X149902771Y-114492626D01*
X149902773Y-114492628D01*
X149959404Y-114516085D01*
X150096131Y-114572720D01*
X150301404Y-114613551D01*
X150510698Y-114613551D01*
X150715971Y-114572720D01*
X150909333Y-114492626D01*
X151083355Y-114376349D01*
X151231349Y-114228355D01*
X151347626Y-114054333D01*
X151427720Y-113860971D01*
X151468551Y-113655698D01*
X151468551Y-113446404D01*
X151468551Y-113446403D01*
X151883551Y-113446403D01*
X151883551Y-113655698D01*
X151924381Y-113860968D01*
X152004473Y-114054328D01*
X152004476Y-114054333D01*
X152120753Y-114228355D01*
X152268747Y-114376349D01*
X152442769Y-114492626D01*
X152442771Y-114492626D01*
X152442773Y-114492628D01*
X152499404Y-114516085D01*
X152636131Y-114572720D01*
X152841404Y-114613551D01*
X153050698Y-114613551D01*
X153255971Y-114572720D01*
X153449333Y-114492626D01*
X153623355Y-114376349D01*
X153771349Y-114228355D01*
X153887626Y-114054333D01*
X153967720Y-113860971D01*
X154008551Y-113655698D01*
X154008551Y-113446404D01*
X154008551Y-113446403D01*
X154423551Y-113446403D01*
X154423551Y-113655698D01*
X154464381Y-113860968D01*
X154544473Y-114054328D01*
X154544476Y-114054333D01*
X154660753Y-114228355D01*
X154808747Y-114376349D01*
X154982769Y-114492626D01*
X154982771Y-114492626D01*
X154982773Y-114492628D01*
X155039404Y-114516085D01*
X155176131Y-114572720D01*
X155381404Y-114613551D01*
X155590698Y-114613551D01*
X155795971Y-114572720D01*
X155989333Y-114492626D01*
X156163355Y-114376349D01*
X156311349Y-114228355D01*
X156427626Y-114054333D01*
X156507720Y-113860971D01*
X156548551Y-113655698D01*
X156548551Y-113446404D01*
X156548551Y-113446403D01*
X156963551Y-113446403D01*
X156963551Y-113655698D01*
X157004381Y-113860968D01*
X157084473Y-114054328D01*
X157084476Y-114054333D01*
X157200753Y-114228355D01*
X157348747Y-114376349D01*
X157522769Y-114492626D01*
X157522771Y-114492626D01*
X157522773Y-114492628D01*
X157579404Y-114516085D01*
X157716131Y-114572720D01*
X157921404Y-114613551D01*
X158130698Y-114613551D01*
X158335971Y-114572720D01*
X158529333Y-114492626D01*
X158703355Y-114376349D01*
X158851349Y-114228355D01*
X158967626Y-114054333D01*
X159047720Y-113860971D01*
X159088551Y-113655698D01*
X159088551Y-113446404D01*
X159088551Y-113446403D01*
X159503551Y-113446403D01*
X159503551Y-113655698D01*
X159544381Y-113860968D01*
X159624473Y-114054328D01*
X159624476Y-114054333D01*
X159740753Y-114228355D01*
X159888747Y-114376349D01*
X160062769Y-114492626D01*
X160062771Y-114492626D01*
X160062773Y-114492628D01*
X160119404Y-114516085D01*
X160256131Y-114572720D01*
X160461404Y-114613551D01*
X160670698Y-114613551D01*
X160875971Y-114572720D01*
X161069333Y-114492626D01*
X161243355Y-114376349D01*
X161391349Y-114228355D01*
X161507626Y-114054333D01*
X161587720Y-113860971D01*
X161628551Y-113655698D01*
X161628551Y-113446404D01*
X161628551Y-113446403D01*
X162043551Y-113446403D01*
X162043551Y-113655698D01*
X162084381Y-113860968D01*
X162164473Y-114054328D01*
X162164476Y-114054333D01*
X162280753Y-114228355D01*
X162428747Y-114376349D01*
X162602769Y-114492626D01*
X162602771Y-114492626D01*
X162602773Y-114492628D01*
X162659404Y-114516085D01*
X162796131Y-114572720D01*
X163001404Y-114613551D01*
X163210698Y-114613551D01*
X163415971Y-114572720D01*
X163609333Y-114492626D01*
X163783355Y-114376349D01*
X163931349Y-114228355D01*
X164047626Y-114054333D01*
X164127720Y-113860971D01*
X164168551Y-113655698D01*
X164168551Y-113446404D01*
X164168551Y-113446403D01*
X164583551Y-113446403D01*
X164583551Y-113655698D01*
X164624381Y-113860968D01*
X164704473Y-114054328D01*
X164704476Y-114054333D01*
X164820753Y-114228355D01*
X164968747Y-114376349D01*
X165142769Y-114492626D01*
X165142771Y-114492626D01*
X165142773Y-114492628D01*
X165199404Y-114516085D01*
X165336131Y-114572720D01*
X165541404Y-114613551D01*
X165750698Y-114613551D01*
X165955971Y-114572720D01*
X166149333Y-114492626D01*
X166323355Y-114376349D01*
X166471349Y-114228355D01*
X166587626Y-114054333D01*
X166667720Y-113860971D01*
X166708551Y-113655698D01*
X166708551Y-113446404D01*
X166708551Y-113446403D01*
X167123551Y-113446403D01*
X167123551Y-113655698D01*
X167164381Y-113860968D01*
X167244473Y-114054328D01*
X167244476Y-114054333D01*
X167360753Y-114228355D01*
X167508747Y-114376349D01*
X167682769Y-114492626D01*
X167682771Y-114492626D01*
X167682773Y-114492628D01*
X167739404Y-114516085D01*
X167876131Y-114572720D01*
X168081404Y-114613551D01*
X168290698Y-114613551D01*
X168495971Y-114572720D01*
X168689333Y-114492626D01*
X168863355Y-114376349D01*
X169011349Y-114228355D01*
X169127626Y-114054333D01*
X169207720Y-113860971D01*
X169248551Y-113655698D01*
X169248551Y-113446404D01*
X169248551Y-113446403D01*
X169663551Y-113446403D01*
X169663551Y-113655698D01*
X169704381Y-113860968D01*
X169784473Y-114054328D01*
X169784476Y-114054333D01*
X169900753Y-114228355D01*
X170048747Y-114376349D01*
X170222769Y-114492626D01*
X170222771Y-114492626D01*
X170222773Y-114492628D01*
X170279404Y-114516085D01*
X170416131Y-114572720D01*
X170621404Y-114613551D01*
X170830698Y-114613551D01*
X171035971Y-114572720D01*
X171229333Y-114492626D01*
X171403355Y-114376349D01*
X171551349Y-114228355D01*
X171650850Y-114079440D01*
X173215551Y-114079440D01*
X173215551Y-114252662D01*
X173227188Y-114326137D01*
X173242648Y-114423751D01*
X173265028Y-114492628D01*
X173296178Y-114588496D01*
X173308945Y-114613551D01*
X173374822Y-114742844D01*
X173476634Y-114882975D01*
X173476637Y-114882979D01*
X173599123Y-115005465D01*
X173739263Y-115107283D01*
X173893606Y-115185924D01*
X174058350Y-115239453D01*
X174229440Y-115266551D01*
X174229444Y-115266551D01*
X174402658Y-115266551D01*
X174402662Y-115266551D01*
X174573752Y-115239453D01*
X174738496Y-115185924D01*
X174892839Y-115107283D01*
X175032979Y-115005465D01*
X175155465Y-114882979D01*
X175257283Y-114742839D01*
X175335924Y-114588496D01*
X175389453Y-114423752D01*
X175416551Y-114252662D01*
X175416551Y-114079440D01*
X188455551Y-114079440D01*
X188455551Y-114252662D01*
X188467188Y-114326137D01*
X188482648Y-114423751D01*
X188505028Y-114492628D01*
X188536178Y-114588496D01*
X188548945Y-114613551D01*
X188614822Y-114742844D01*
X188716634Y-114882975D01*
X188716637Y-114882979D01*
X188839123Y-115005465D01*
X188979263Y-115107283D01*
X189133606Y-115185924D01*
X189298350Y-115239453D01*
X189469440Y-115266551D01*
X189469444Y-115266551D01*
X189642658Y-115266551D01*
X189642662Y-115266551D01*
X189813752Y-115239453D01*
X189978496Y-115185924D01*
X190132839Y-115107283D01*
X190272979Y-115005465D01*
X190395465Y-114882979D01*
X190497283Y-114742839D01*
X190575924Y-114588496D01*
X190629453Y-114423752D01*
X190656551Y-114252662D01*
X190656551Y-114079440D01*
X190629453Y-113908350D01*
X190575924Y-113743606D01*
X190497283Y-113589263D01*
X190395465Y-113449123D01*
X190272979Y-113326637D01*
X190272975Y-113326634D01*
X190132844Y-113224822D01*
X190132841Y-113224820D01*
X190132839Y-113224819D01*
X189978496Y-113146178D01*
X189930872Y-113130704D01*
X189813751Y-113092648D01*
X189716137Y-113077188D01*
X189642662Y-113065551D01*
X189469440Y-113065551D01*
X189403088Y-113076060D01*
X189298350Y-113092648D01*
X189133612Y-113146176D01*
X189133606Y-113146178D01*
X189133600Y-113146180D01*
X189133600Y-113146181D01*
X188979257Y-113224822D01*
X188839126Y-113326634D01*
X188716634Y-113449126D01*
X188614822Y-113589257D01*
X188536181Y-113743600D01*
X188536176Y-113743612D01*
X188482648Y-113908350D01*
X188465509Y-114016566D01*
X188455551Y-114079440D01*
X175416551Y-114079440D01*
X175389453Y-113908350D01*
X175335924Y-113743606D01*
X175257283Y-113589263D01*
X175155465Y-113449123D01*
X175032979Y-113326637D01*
X175032975Y-113326634D01*
X174892844Y-113224822D01*
X174892841Y-113224820D01*
X174892839Y-113224819D01*
X174738496Y-113146178D01*
X174690872Y-113130704D01*
X174573751Y-113092648D01*
X174476137Y-113077188D01*
X174402662Y-113065551D01*
X174229440Y-113065551D01*
X174163088Y-113076060D01*
X174058350Y-113092648D01*
X173893612Y-113146176D01*
X173893606Y-113146178D01*
X173893600Y-113146180D01*
X173893600Y-113146181D01*
X173739257Y-113224822D01*
X173599126Y-113326634D01*
X173476634Y-113449126D01*
X173374822Y-113589257D01*
X173296181Y-113743600D01*
X173296176Y-113743612D01*
X173242648Y-113908350D01*
X173225509Y-114016566D01*
X173215551Y-114079440D01*
X171650850Y-114079440D01*
X171667626Y-114054333D01*
X171747720Y-113860971D01*
X171788551Y-113655698D01*
X171788551Y-113446404D01*
X171747720Y-113241131D01*
X171676870Y-113070086D01*
X171667628Y-113047773D01*
X171667622Y-113047763D01*
X171666069Y-113045438D01*
X171551349Y-112873747D01*
X171403355Y-112725753D01*
X171283876Y-112645920D01*
X171229338Y-112609479D01*
X171229328Y-112609473D01*
X171076016Y-112545969D01*
X171035971Y-112529382D01*
X171035969Y-112529381D01*
X171035968Y-112529381D01*
X170830698Y-112488551D01*
X170621404Y-112488551D01*
X170416133Y-112529381D01*
X170222773Y-112609473D01*
X170222763Y-112609479D01*
X170048748Y-112725752D01*
X170048743Y-112725756D01*
X169900756Y-112873743D01*
X169900752Y-112873748D01*
X169784479Y-113047763D01*
X169784473Y-113047773D01*
X169704381Y-113241133D01*
X169663551Y-113446403D01*
X169248551Y-113446403D01*
X169207720Y-113241131D01*
X169136870Y-113070086D01*
X169127628Y-113047773D01*
X169127622Y-113047763D01*
X169126069Y-113045438D01*
X169011349Y-112873747D01*
X168863355Y-112725753D01*
X168743876Y-112645920D01*
X168689338Y-112609479D01*
X168689328Y-112609473D01*
X168536016Y-112545969D01*
X168495971Y-112529382D01*
X168495969Y-112529381D01*
X168495968Y-112529381D01*
X168290698Y-112488551D01*
X168081404Y-112488551D01*
X167876133Y-112529381D01*
X167682773Y-112609473D01*
X167682763Y-112609479D01*
X167508748Y-112725752D01*
X167508743Y-112725756D01*
X167360756Y-112873743D01*
X167360752Y-112873748D01*
X167244479Y-113047763D01*
X167244473Y-113047773D01*
X167164381Y-113241133D01*
X167123551Y-113446403D01*
X166708551Y-113446403D01*
X166667720Y-113241131D01*
X166596870Y-113070086D01*
X166587628Y-113047773D01*
X166587622Y-113047763D01*
X166586069Y-113045438D01*
X166471349Y-112873747D01*
X166323355Y-112725753D01*
X166203876Y-112645920D01*
X166149338Y-112609479D01*
X166149328Y-112609473D01*
X165996016Y-112545969D01*
X165955971Y-112529382D01*
X165955969Y-112529381D01*
X165955968Y-112529381D01*
X165750698Y-112488551D01*
X165541404Y-112488551D01*
X165336133Y-112529381D01*
X165142773Y-112609473D01*
X165142763Y-112609479D01*
X164968748Y-112725752D01*
X164968743Y-112725756D01*
X164820756Y-112873743D01*
X164820752Y-112873748D01*
X164704479Y-113047763D01*
X164704473Y-113047773D01*
X164624381Y-113241133D01*
X164583551Y-113446403D01*
X164168551Y-113446403D01*
X164127720Y-113241131D01*
X164056870Y-113070086D01*
X164047628Y-113047773D01*
X164047622Y-113047763D01*
X164046069Y-113045438D01*
X163931349Y-112873747D01*
X163783355Y-112725753D01*
X163663876Y-112645920D01*
X163609338Y-112609479D01*
X163609328Y-112609473D01*
X163456016Y-112545969D01*
X163415971Y-112529382D01*
X163415969Y-112529381D01*
X163415968Y-112529381D01*
X163210698Y-112488551D01*
X163001404Y-112488551D01*
X162796133Y-112529381D01*
X162602773Y-112609473D01*
X162602763Y-112609479D01*
X162428748Y-112725752D01*
X162428743Y-112725756D01*
X162280756Y-112873743D01*
X162280752Y-112873748D01*
X162164479Y-113047763D01*
X162164473Y-113047773D01*
X162084381Y-113241133D01*
X162043551Y-113446403D01*
X161628551Y-113446403D01*
X161587720Y-113241131D01*
X161516870Y-113070086D01*
X161507628Y-113047773D01*
X161507622Y-113047763D01*
X161506069Y-113045438D01*
X161391349Y-112873747D01*
X161243355Y-112725753D01*
X161123876Y-112645920D01*
X161069338Y-112609479D01*
X161069328Y-112609473D01*
X160916016Y-112545969D01*
X160875971Y-112529382D01*
X160875969Y-112529381D01*
X160875968Y-112529381D01*
X160670698Y-112488551D01*
X160461404Y-112488551D01*
X160256133Y-112529381D01*
X160062773Y-112609473D01*
X160062763Y-112609479D01*
X159888748Y-112725752D01*
X159888743Y-112725756D01*
X159740756Y-112873743D01*
X159740752Y-112873748D01*
X159624479Y-113047763D01*
X159624473Y-113047773D01*
X159544381Y-113241133D01*
X159503551Y-113446403D01*
X159088551Y-113446403D01*
X159047720Y-113241131D01*
X158976870Y-113070086D01*
X158967628Y-113047773D01*
X158967622Y-113047763D01*
X158966069Y-113045438D01*
X158851349Y-112873747D01*
X158703355Y-112725753D01*
X158583876Y-112645920D01*
X158529338Y-112609479D01*
X158529328Y-112609473D01*
X158376016Y-112545969D01*
X158335971Y-112529382D01*
X158335969Y-112529381D01*
X158335968Y-112529381D01*
X158130698Y-112488551D01*
X157921404Y-112488551D01*
X157716133Y-112529381D01*
X157522773Y-112609473D01*
X157522763Y-112609479D01*
X157348748Y-112725752D01*
X157348743Y-112725756D01*
X157200756Y-112873743D01*
X157200752Y-112873748D01*
X157084479Y-113047763D01*
X157084473Y-113047773D01*
X157004381Y-113241133D01*
X156963551Y-113446403D01*
X156548551Y-113446403D01*
X156507720Y-113241131D01*
X156436870Y-113070086D01*
X156427628Y-113047773D01*
X156427622Y-113047763D01*
X156426069Y-113045438D01*
X156311349Y-112873747D01*
X156163355Y-112725753D01*
X156043876Y-112645920D01*
X155989338Y-112609479D01*
X155989328Y-112609473D01*
X155836016Y-112545969D01*
X155795971Y-112529382D01*
X155795969Y-112529381D01*
X155795968Y-112529381D01*
X155590698Y-112488551D01*
X155381404Y-112488551D01*
X155176133Y-112529381D01*
X154982773Y-112609473D01*
X154982763Y-112609479D01*
X154808748Y-112725752D01*
X154808743Y-112725756D01*
X154660756Y-112873743D01*
X154660752Y-112873748D01*
X154544479Y-113047763D01*
X154544473Y-113047773D01*
X154464381Y-113241133D01*
X154423551Y-113446403D01*
X154008551Y-113446403D01*
X153967720Y-113241131D01*
X153896870Y-113070086D01*
X153887628Y-113047773D01*
X153887622Y-113047763D01*
X153886069Y-113045438D01*
X153771349Y-112873747D01*
X153623355Y-112725753D01*
X153503876Y-112645920D01*
X153449338Y-112609479D01*
X153449328Y-112609473D01*
X153296016Y-112545969D01*
X153255971Y-112529382D01*
X153255969Y-112529381D01*
X153255968Y-112529381D01*
X153050698Y-112488551D01*
X152841404Y-112488551D01*
X152636133Y-112529381D01*
X152442773Y-112609473D01*
X152442763Y-112609479D01*
X152268748Y-112725752D01*
X152268743Y-112725756D01*
X152120756Y-112873743D01*
X152120752Y-112873748D01*
X152004479Y-113047763D01*
X152004473Y-113047773D01*
X151924381Y-113241133D01*
X151883551Y-113446403D01*
X151468551Y-113446403D01*
X151427720Y-113241131D01*
X151356870Y-113070086D01*
X151347628Y-113047773D01*
X151347622Y-113047763D01*
X151346069Y-113045438D01*
X151231349Y-112873747D01*
X151083355Y-112725753D01*
X150963876Y-112645920D01*
X150909338Y-112609479D01*
X150909328Y-112609473D01*
X150756016Y-112545969D01*
X150715971Y-112529382D01*
X150715969Y-112529381D01*
X150715968Y-112529381D01*
X150510698Y-112488551D01*
X150301404Y-112488551D01*
X150096133Y-112529381D01*
X149902773Y-112609473D01*
X149902763Y-112609479D01*
X149728748Y-112725752D01*
X149728743Y-112725756D01*
X149580756Y-112873743D01*
X149580752Y-112873748D01*
X149464479Y-113047763D01*
X149464473Y-113047773D01*
X149384381Y-113241133D01*
X149343551Y-113446403D01*
X148928551Y-113446403D01*
X148887720Y-113241131D01*
X148816870Y-113070086D01*
X148807628Y-113047773D01*
X148807622Y-113047763D01*
X148806069Y-113045438D01*
X148691349Y-112873747D01*
X148543355Y-112725753D01*
X148423876Y-112645920D01*
X148369338Y-112609479D01*
X148369328Y-112609473D01*
X148216016Y-112545969D01*
X148175971Y-112529382D01*
X148175969Y-112529381D01*
X148175968Y-112529381D01*
X147970698Y-112488551D01*
X147761404Y-112488551D01*
X147556133Y-112529381D01*
X147362773Y-112609473D01*
X147362763Y-112609479D01*
X147188748Y-112725752D01*
X147188743Y-112725756D01*
X147040756Y-112873743D01*
X147040752Y-112873748D01*
X146924479Y-113047763D01*
X146924473Y-113047773D01*
X146844381Y-113241133D01*
X146803551Y-113446403D01*
X146388551Y-113446403D01*
X146347720Y-113241131D01*
X146276870Y-113070086D01*
X146267628Y-113047773D01*
X146267622Y-113047763D01*
X146266069Y-113045438D01*
X146151349Y-112873747D01*
X146003355Y-112725753D01*
X145883876Y-112645920D01*
X145829338Y-112609479D01*
X145829328Y-112609473D01*
X145676016Y-112545969D01*
X145635971Y-112529382D01*
X145635969Y-112529381D01*
X145635968Y-112529381D01*
X145430698Y-112488551D01*
X145221404Y-112488551D01*
X145016133Y-112529381D01*
X144822773Y-112609473D01*
X144822763Y-112609479D01*
X144648748Y-112725752D01*
X144648743Y-112725756D01*
X144500756Y-112873743D01*
X144500752Y-112873748D01*
X144384479Y-113047763D01*
X144384473Y-113047773D01*
X144304381Y-113241133D01*
X144263551Y-113446403D01*
X143848551Y-113446403D01*
X143807720Y-113241131D01*
X143736870Y-113070086D01*
X143727628Y-113047773D01*
X143727622Y-113047763D01*
X143726069Y-113045438D01*
X143611349Y-112873747D01*
X143463355Y-112725753D01*
X143343876Y-112645920D01*
X143289338Y-112609479D01*
X143289328Y-112609473D01*
X143136016Y-112545969D01*
X143095971Y-112529382D01*
X143095969Y-112529381D01*
X143095968Y-112529381D01*
X142890698Y-112488551D01*
X142681404Y-112488551D01*
X142476133Y-112529381D01*
X142282773Y-112609473D01*
X142282763Y-112609479D01*
X142108748Y-112725752D01*
X142108743Y-112725756D01*
X141960756Y-112873743D01*
X141960752Y-112873748D01*
X141844479Y-113047763D01*
X141844473Y-113047773D01*
X141764381Y-113241133D01*
X141723551Y-113446403D01*
X109010500Y-113446403D01*
X109010500Y-111539440D01*
X173215551Y-111539440D01*
X173215551Y-111712662D01*
X173227188Y-111786137D01*
X173242648Y-111883751D01*
X173280704Y-112000872D01*
X173296178Y-112048496D01*
X173296181Y-112048501D01*
X173374822Y-112202844D01*
X173397012Y-112233385D01*
X173476637Y-112342979D01*
X173599123Y-112465465D01*
X173599126Y-112465467D01*
X173687095Y-112529381D01*
X173739263Y-112567283D01*
X173893606Y-112645924D01*
X174058350Y-112699453D01*
X174229440Y-112726551D01*
X174229444Y-112726551D01*
X174402658Y-112726551D01*
X174402662Y-112726551D01*
X174573752Y-112699453D01*
X174738496Y-112645924D01*
X174892839Y-112567283D01*
X175032979Y-112465465D01*
X175155465Y-112342979D01*
X175257283Y-112202839D01*
X175335924Y-112048496D01*
X175389453Y-111883752D01*
X175416551Y-111712662D01*
X175416551Y-111539440D01*
X188455551Y-111539440D01*
X188455551Y-111712662D01*
X188467188Y-111786137D01*
X188482648Y-111883751D01*
X188520704Y-112000872D01*
X188536178Y-112048496D01*
X188536181Y-112048501D01*
X188614822Y-112202844D01*
X188637012Y-112233385D01*
X188716637Y-112342979D01*
X188839123Y-112465465D01*
X188839126Y-112465467D01*
X188927095Y-112529381D01*
X188979263Y-112567283D01*
X189133606Y-112645924D01*
X189298350Y-112699453D01*
X189469440Y-112726551D01*
X189469444Y-112726551D01*
X189642658Y-112726551D01*
X189642662Y-112726551D01*
X189813752Y-112699453D01*
X189978496Y-112645924D01*
X190132839Y-112567283D01*
X190272979Y-112465465D01*
X190331085Y-112407359D01*
X200235551Y-112407359D01*
X200235551Y-112584742D01*
X200270156Y-112758714D01*
X200270157Y-112758718D01*
X200338037Y-112922597D01*
X200338038Y-112922599D01*
X200436584Y-113070082D01*
X200436587Y-113070086D01*
X200562016Y-113195515D01*
X200562019Y-113195517D01*
X200709502Y-113294063D01*
X200709504Y-113294064D01*
X200873385Y-113361945D01*
X201047360Y-113396551D01*
X201224742Y-113396551D01*
X201398717Y-113361945D01*
X201562598Y-113294064D01*
X201710086Y-113195515D01*
X201835515Y-113070086D01*
X201934064Y-112922598D01*
X202001945Y-112758717D01*
X202036551Y-112584742D01*
X202036551Y-112407360D01*
X202001945Y-112233385D01*
X201934064Y-112069504D01*
X201835515Y-111922016D01*
X201710086Y-111796587D01*
X201710082Y-111796584D01*
X201562599Y-111698038D01*
X201562597Y-111698037D01*
X201398718Y-111630157D01*
X201398714Y-111630156D01*
X201224742Y-111595551D01*
X201047360Y-111595551D01*
X200873387Y-111630156D01*
X200873383Y-111630157D01*
X200709504Y-111698037D01*
X200709502Y-111698038D01*
X200562019Y-111796584D01*
X200562014Y-111796588D01*
X200436588Y-111922014D01*
X200436584Y-111922019D01*
X200338038Y-112069502D01*
X200338037Y-112069504D01*
X200270157Y-112233383D01*
X200270156Y-112233387D01*
X200235551Y-112407359D01*
X190331085Y-112407359D01*
X190395465Y-112342979D01*
X190497283Y-112202839D01*
X190575924Y-112048496D01*
X190629453Y-111883752D01*
X190656551Y-111712662D01*
X190656551Y-111539440D01*
X190629453Y-111368350D01*
X190575924Y-111203606D01*
X190497283Y-111049263D01*
X190485171Y-111032593D01*
X190395467Y-110909126D01*
X190395465Y-110909123D01*
X190272979Y-110786637D01*
X190188855Y-110725517D01*
X190132844Y-110684822D01*
X190132841Y-110684820D01*
X190132839Y-110684819D01*
X189978496Y-110606178D01*
X189930872Y-110590704D01*
X189813751Y-110552648D01*
X189716137Y-110537188D01*
X189642662Y-110525551D01*
X189469440Y-110525551D01*
X189403088Y-110536060D01*
X189298350Y-110552648D01*
X189152367Y-110600082D01*
X189133606Y-110606178D01*
X189133600Y-110606180D01*
X189133600Y-110606181D01*
X188979257Y-110684822D01*
X188839126Y-110786634D01*
X188716634Y-110909126D01*
X188614822Y-111049257D01*
X188536181Y-111203600D01*
X188536176Y-111203612D01*
X188482648Y-111368350D01*
X188464279Y-111484333D01*
X188455551Y-111539440D01*
X175416551Y-111539440D01*
X175389453Y-111368350D01*
X175335924Y-111203606D01*
X175257283Y-111049263D01*
X175245171Y-111032593D01*
X175155467Y-110909126D01*
X175155465Y-110909123D01*
X175032979Y-110786637D01*
X174948855Y-110725517D01*
X174892844Y-110684822D01*
X174892841Y-110684820D01*
X174892839Y-110684819D01*
X174738496Y-110606178D01*
X174690872Y-110590704D01*
X174573751Y-110552648D01*
X174476137Y-110537188D01*
X174402662Y-110525551D01*
X174229440Y-110525551D01*
X174163088Y-110536060D01*
X174058350Y-110552648D01*
X173912367Y-110600082D01*
X173893606Y-110606178D01*
X173893600Y-110606180D01*
X173893600Y-110606181D01*
X173739257Y-110684822D01*
X173599126Y-110786634D01*
X173476634Y-110909126D01*
X173374822Y-111049257D01*
X173296181Y-111203600D01*
X173296176Y-111203612D01*
X173242648Y-111368350D01*
X173224279Y-111484333D01*
X173215551Y-111539440D01*
X109010500Y-111539440D01*
X109010500Y-110497057D01*
X131650551Y-110497057D01*
X131650551Y-110635044D01*
X131677470Y-110770376D01*
X131677471Y-110770380D01*
X131730275Y-110897860D01*
X131730278Y-110897866D01*
X131743642Y-110917866D01*
X131806937Y-111012593D01*
X131904509Y-111110165D01*
X131904512Y-111110167D01*
X132019235Y-111186823D01*
X132019237Y-111186824D01*
X132019240Y-111186826D01*
X132146723Y-111239631D01*
X132282058Y-111266551D01*
X132420044Y-111266551D01*
X132555379Y-111239631D01*
X132682862Y-111186826D01*
X132797593Y-111110165D01*
X132895165Y-111012593D01*
X132971826Y-110897862D01*
X133024631Y-110770379D01*
X133051551Y-110635044D01*
X133051551Y-110517057D01*
X134240551Y-110517057D01*
X134240551Y-110655044D01*
X134267470Y-110790376D01*
X134267471Y-110790380D01*
X134320275Y-110917860D01*
X134320278Y-110917866D01*
X134383573Y-111012593D01*
X134396937Y-111032593D01*
X134494509Y-111130165D01*
X134494512Y-111130167D01*
X134609235Y-111206823D01*
X134609237Y-111206824D01*
X134609240Y-111206826D01*
X134736723Y-111259631D01*
X134872058Y-111286551D01*
X135010044Y-111286551D01*
X135145379Y-111259631D01*
X135272862Y-111206826D01*
X135387593Y-111130165D01*
X135485165Y-111032593D01*
X135561826Y-110917862D01*
X135614631Y-110790379D01*
X135641551Y-110655044D01*
X135641551Y-110517058D01*
X135614631Y-110381723D01*
X135561826Y-110254240D01*
X135548462Y-110234240D01*
X135485167Y-110139512D01*
X135485165Y-110139509D01*
X135387593Y-110041937D01*
X135365656Y-110027279D01*
X135272866Y-109965278D01*
X135272860Y-109965275D01*
X135145380Y-109912471D01*
X135145376Y-109912470D01*
X135010044Y-109885551D01*
X134872058Y-109885551D01*
X134736725Y-109912470D01*
X134736721Y-109912471D01*
X134609241Y-109965275D01*
X134609235Y-109965278D01*
X134494512Y-110041934D01*
X134494505Y-110041940D01*
X134396940Y-110139505D01*
X134396934Y-110139512D01*
X134320278Y-110254235D01*
X134320275Y-110254241D01*
X134267471Y-110381721D01*
X134267470Y-110381725D01*
X134240551Y-110517057D01*
X133051551Y-110517057D01*
X133051551Y-110497058D01*
X133024631Y-110361723D01*
X132971826Y-110234240D01*
X132895165Y-110119509D01*
X132797593Y-110021937D01*
X132797589Y-110021934D01*
X132682866Y-109945278D01*
X132682860Y-109945275D01*
X132555380Y-109892471D01*
X132555376Y-109892470D01*
X132420044Y-109865551D01*
X132282058Y-109865551D01*
X132146725Y-109892470D01*
X132146721Y-109892471D01*
X132019241Y-109945275D01*
X132019235Y-109945278D01*
X131904512Y-110021934D01*
X131904505Y-110021940D01*
X131806940Y-110119505D01*
X131806934Y-110119512D01*
X131730278Y-110234235D01*
X131730275Y-110234241D01*
X131677471Y-110361721D01*
X131677470Y-110361725D01*
X131650551Y-110497057D01*
X109010500Y-110497057D01*
X109010500Y-108999440D01*
X188455551Y-108999440D01*
X188455551Y-109172662D01*
X188464322Y-109228037D01*
X188482648Y-109343751D01*
X188517826Y-109452014D01*
X188536178Y-109508496D01*
X188582549Y-109599504D01*
X188614822Y-109662844D01*
X188716634Y-109802975D01*
X188716637Y-109802979D01*
X188839123Y-109925465D01*
X188866393Y-109945278D01*
X188971904Y-110021937D01*
X188979263Y-110027283D01*
X189133606Y-110105924D01*
X189298350Y-110159453D01*
X189469440Y-110186551D01*
X189469444Y-110186551D01*
X189642658Y-110186551D01*
X189642662Y-110186551D01*
X189813752Y-110159453D01*
X189978496Y-110105924D01*
X190132839Y-110027283D01*
X190256608Y-109937359D01*
X200215551Y-109937359D01*
X200215551Y-110114742D01*
X200250156Y-110288714D01*
X200250157Y-110288718D01*
X200318037Y-110452597D01*
X200318038Y-110452599D01*
X200384890Y-110552649D01*
X200416587Y-110600086D01*
X200542016Y-110725515D01*
X200542019Y-110725517D01*
X200689502Y-110824063D01*
X200689504Y-110824064D01*
X200853385Y-110891945D01*
X201027360Y-110926551D01*
X201204742Y-110926551D01*
X201378717Y-110891945D01*
X201542598Y-110824064D01*
X201690086Y-110725515D01*
X201815515Y-110600086D01*
X201914064Y-110452598D01*
X201981945Y-110288717D01*
X202016551Y-110114742D01*
X202016551Y-109937360D01*
X202006245Y-109885551D01*
X202002267Y-109865551D01*
X201981945Y-109763385D01*
X201914064Y-109599504D01*
X201815515Y-109452016D01*
X201690086Y-109326587D01*
X201690082Y-109326584D01*
X201542599Y-109228038D01*
X201542597Y-109228037D01*
X201378718Y-109160157D01*
X201378714Y-109160156D01*
X201204742Y-109125551D01*
X201027360Y-109125551D01*
X200853387Y-109160156D01*
X200853383Y-109160157D01*
X200689504Y-109228037D01*
X200689502Y-109228038D01*
X200542019Y-109326584D01*
X200542014Y-109326588D01*
X200416588Y-109452014D01*
X200416584Y-109452019D01*
X200318038Y-109599502D01*
X200318037Y-109599504D01*
X200250157Y-109763383D01*
X200250156Y-109763387D01*
X200215551Y-109937359D01*
X190256608Y-109937359D01*
X190272979Y-109925465D01*
X190395465Y-109802979D01*
X190497283Y-109662839D01*
X190575924Y-109508496D01*
X190629453Y-109343752D01*
X190656551Y-109172662D01*
X190656551Y-108999440D01*
X190629453Y-108828350D01*
X190575924Y-108663606D01*
X190497283Y-108509263D01*
X190395465Y-108369123D01*
X190272979Y-108246637D01*
X190272975Y-108246634D01*
X190132844Y-108144822D01*
X190132841Y-108144820D01*
X190132839Y-108144819D01*
X189978496Y-108066178D01*
X189930872Y-108050704D01*
X189813751Y-108012648D01*
X189716137Y-107997188D01*
X189642662Y-107985551D01*
X189469440Y-107985551D01*
X189403088Y-107996060D01*
X189298350Y-108012648D01*
X189133612Y-108066176D01*
X189133606Y-108066178D01*
X189133600Y-108066180D01*
X189133600Y-108066181D01*
X188979257Y-108144822D01*
X188839126Y-108246634D01*
X188716634Y-108369126D01*
X188614822Y-108509257D01*
X188536181Y-108663600D01*
X188536176Y-108663612D01*
X188482648Y-108828350D01*
X188464279Y-108944333D01*
X188455551Y-108999440D01*
X109010500Y-108999440D01*
X109010500Y-106459440D01*
X173215551Y-106459440D01*
X173215551Y-106632662D01*
X173227188Y-106706137D01*
X173242648Y-106803751D01*
X173280704Y-106920872D01*
X173296178Y-106968496D01*
X173296181Y-106968501D01*
X173374822Y-107122844D01*
X173476634Y-107262975D01*
X173476637Y-107262979D01*
X173599123Y-107385465D01*
X173739263Y-107487283D01*
X173893606Y-107565924D01*
X174058350Y-107619453D01*
X174229440Y-107646551D01*
X174229444Y-107646551D01*
X174402658Y-107646551D01*
X174402662Y-107646551D01*
X174573752Y-107619453D01*
X174738496Y-107565924D01*
X174892839Y-107487283D01*
X175032979Y-107385465D01*
X175155465Y-107262979D01*
X175257283Y-107122839D01*
X175335924Y-106968496D01*
X175389453Y-106803752D01*
X175416551Y-106632662D01*
X175416551Y-106459440D01*
X188455551Y-106459440D01*
X188455551Y-106632662D01*
X188467188Y-106706137D01*
X188482648Y-106803751D01*
X188520704Y-106920872D01*
X188536178Y-106968496D01*
X188536181Y-106968501D01*
X188614822Y-107122844D01*
X188716634Y-107262975D01*
X188716637Y-107262979D01*
X188839123Y-107385465D01*
X188979263Y-107487283D01*
X189133606Y-107565924D01*
X189298350Y-107619453D01*
X189469440Y-107646551D01*
X189469444Y-107646551D01*
X189642658Y-107646551D01*
X189642662Y-107646551D01*
X189813752Y-107619453D01*
X189978496Y-107565924D01*
X190132839Y-107487283D01*
X190272979Y-107385465D01*
X190395465Y-107262979D01*
X190497283Y-107122839D01*
X190575924Y-106968496D01*
X190629453Y-106803752D01*
X190656551Y-106632662D01*
X190656551Y-106459440D01*
X190629453Y-106288350D01*
X190575924Y-106123606D01*
X190497283Y-105969263D01*
X190395465Y-105829123D01*
X190272979Y-105706637D01*
X190272975Y-105706634D01*
X190132844Y-105604822D01*
X190132841Y-105604820D01*
X190132839Y-105604819D01*
X189978496Y-105526178D01*
X189929081Y-105510122D01*
X189813751Y-105472648D01*
X189716137Y-105457188D01*
X189642662Y-105445551D01*
X189469440Y-105445551D01*
X189403088Y-105456060D01*
X189298350Y-105472648D01*
X189133612Y-105526176D01*
X189133606Y-105526178D01*
X189133600Y-105526180D01*
X189133600Y-105526181D01*
X188979257Y-105604822D01*
X188839126Y-105706634D01*
X188716634Y-105829126D01*
X188614822Y-105969257D01*
X188536181Y-106123600D01*
X188536176Y-106123612D01*
X188482648Y-106288350D01*
X188464279Y-106404333D01*
X188455551Y-106459440D01*
X175416551Y-106459440D01*
X175389453Y-106288350D01*
X175335924Y-106123606D01*
X175257283Y-105969263D01*
X175155465Y-105829123D01*
X175032979Y-105706637D01*
X175032975Y-105706634D01*
X174892844Y-105604822D01*
X174892841Y-105604820D01*
X174892839Y-105604819D01*
X174738496Y-105526178D01*
X174689081Y-105510122D01*
X174573751Y-105472648D01*
X174476137Y-105457188D01*
X174402662Y-105445551D01*
X174229440Y-105445551D01*
X174163088Y-105456060D01*
X174058350Y-105472648D01*
X173893612Y-105526176D01*
X173893606Y-105526178D01*
X173893600Y-105526180D01*
X173893600Y-105526181D01*
X173739257Y-105604822D01*
X173599126Y-105706634D01*
X173476634Y-105829126D01*
X173374822Y-105969257D01*
X173296181Y-106123600D01*
X173296176Y-106123612D01*
X173242648Y-106288350D01*
X173224279Y-106404333D01*
X173215551Y-106459440D01*
X109010500Y-106459440D01*
X109010500Y-103919440D01*
X173215551Y-103919440D01*
X173215551Y-104092662D01*
X173227188Y-104166137D01*
X173242648Y-104263751D01*
X173280704Y-104380872D01*
X173296178Y-104428496D01*
X173296181Y-104428501D01*
X173374822Y-104582844D01*
X173476634Y-104722975D01*
X173476637Y-104722979D01*
X173599123Y-104845465D01*
X173739263Y-104947283D01*
X173893606Y-105025924D01*
X174058350Y-105079453D01*
X174229440Y-105106551D01*
X174229444Y-105106551D01*
X174402658Y-105106551D01*
X174402662Y-105106551D01*
X174573752Y-105079453D01*
X174738496Y-105025924D01*
X174892839Y-104947283D01*
X175032979Y-104845465D01*
X175155465Y-104722979D01*
X175257283Y-104582839D01*
X175335924Y-104428496D01*
X175389453Y-104263752D01*
X175416551Y-104092662D01*
X175416551Y-103919440D01*
X188455551Y-103919440D01*
X188455551Y-104092662D01*
X188467188Y-104166137D01*
X188482648Y-104263751D01*
X188520704Y-104380872D01*
X188536178Y-104428496D01*
X188536181Y-104428501D01*
X188614822Y-104582844D01*
X188716634Y-104722975D01*
X188716637Y-104722979D01*
X188839123Y-104845465D01*
X188979263Y-104947283D01*
X189133606Y-105025924D01*
X189298350Y-105079453D01*
X189469440Y-105106551D01*
X189469444Y-105106551D01*
X189642658Y-105106551D01*
X189642662Y-105106551D01*
X189813752Y-105079453D01*
X189978496Y-105025924D01*
X190132839Y-104947283D01*
X190272979Y-104845465D01*
X190395465Y-104722979D01*
X190497283Y-104582839D01*
X190575924Y-104428496D01*
X190629453Y-104263752D01*
X190656551Y-104092662D01*
X190656551Y-104059454D01*
X203399500Y-104059454D01*
X203399500Y-104240546D01*
X203427829Y-104419409D01*
X203483789Y-104591639D01*
X203566004Y-104752994D01*
X203672447Y-104899501D01*
X203800499Y-105027553D01*
X203947006Y-105133996D01*
X204062585Y-105192886D01*
X204111361Y-105217740D01*
X204168678Y-105269350D01*
X204192512Y-105342703D01*
X204176476Y-105418145D01*
X204124866Y-105475462D01*
X204051513Y-105499296D01*
X204043716Y-105499500D01*
X203906894Y-105499500D01*
X203818436Y-105510122D01*
X203677658Y-105565638D01*
X203677658Y-105565639D01*
X203557079Y-105657076D01*
X203557076Y-105657079D01*
X203465639Y-105777658D01*
X203465638Y-105777658D01*
X203410122Y-105918436D01*
X203399500Y-106006894D01*
X203399500Y-107293105D01*
X203410122Y-107381563D01*
X203465638Y-107522341D01*
X203557076Y-107642920D01*
X203557079Y-107642923D01*
X203580547Y-107660719D01*
X203677658Y-107734361D01*
X203818436Y-107789877D01*
X203906898Y-107800500D01*
X203906899Y-107800500D01*
X205493101Y-107800500D01*
X205493102Y-107800500D01*
X205581564Y-107789877D01*
X205722342Y-107734361D01*
X205842922Y-107642922D01*
X205934361Y-107522342D01*
X205989877Y-107381564D01*
X206000500Y-107293102D01*
X206000500Y-106006898D01*
X205989877Y-105918436D01*
X205934361Y-105777658D01*
X205842922Y-105657078D01*
X205842920Y-105657076D01*
X205774008Y-105604819D01*
X205722342Y-105565639D01*
X205722341Y-105565638D01*
X205581563Y-105510122D01*
X205493105Y-105499500D01*
X205493102Y-105499500D01*
X205356284Y-105499500D01*
X205281784Y-105479538D01*
X205227246Y-105425000D01*
X205207284Y-105350500D01*
X205227246Y-105276000D01*
X205281784Y-105221462D01*
X205288639Y-105217740D01*
X205324364Y-105199536D01*
X205452994Y-105133996D01*
X205599501Y-105027553D01*
X205727553Y-104899501D01*
X205833996Y-104752994D01*
X205916211Y-104591639D01*
X205972171Y-104419409D01*
X206000500Y-104240546D01*
X206000500Y-104059454D01*
X205972171Y-103880591D01*
X205916211Y-103708361D01*
X205833996Y-103547006D01*
X205727553Y-103400499D01*
X205599501Y-103272447D01*
X205452994Y-103166004D01*
X205291639Y-103083789D01*
X205119409Y-103027829D01*
X204940546Y-102999500D01*
X204459454Y-102999500D01*
X204280591Y-103027829D01*
X204108360Y-103083789D01*
X203947004Y-103166005D01*
X203947003Y-103166005D01*
X203800500Y-103272446D01*
X203800497Y-103272448D01*
X203672448Y-103400497D01*
X203672446Y-103400500D01*
X203566005Y-103547003D01*
X203566005Y-103547004D01*
X203483789Y-103708360D01*
X203483789Y-103708361D01*
X203427829Y-103880591D01*
X203399500Y-104059454D01*
X190656551Y-104059454D01*
X190656551Y-103919440D01*
X190629453Y-103748350D01*
X190575924Y-103583606D01*
X190497283Y-103429263D01*
X190476385Y-103400500D01*
X190395467Y-103289126D01*
X190395465Y-103289123D01*
X190272979Y-103166637D01*
X190272108Y-103166004D01*
X190132844Y-103064822D01*
X190132841Y-103064820D01*
X190132839Y-103064819D01*
X189978496Y-102986178D01*
X189930872Y-102970704D01*
X189813751Y-102932648D01*
X189716137Y-102917188D01*
X189642662Y-102905551D01*
X189469440Y-102905551D01*
X189403088Y-102916060D01*
X189298350Y-102932648D01*
X189133612Y-102986176D01*
X189133606Y-102986178D01*
X189133600Y-102986180D01*
X189133600Y-102986181D01*
X188979257Y-103064822D01*
X188839126Y-103166634D01*
X188716634Y-103289126D01*
X188614822Y-103429257D01*
X188536181Y-103583600D01*
X188536176Y-103583612D01*
X188482648Y-103748350D01*
X188464279Y-103864333D01*
X188455551Y-103919440D01*
X175416551Y-103919440D01*
X175389453Y-103748350D01*
X175335924Y-103583606D01*
X175257283Y-103429263D01*
X175236385Y-103400500D01*
X175155467Y-103289126D01*
X175155465Y-103289123D01*
X175032979Y-103166637D01*
X175032108Y-103166004D01*
X174892844Y-103064822D01*
X174892841Y-103064820D01*
X174892839Y-103064819D01*
X174738496Y-102986178D01*
X174690872Y-102970704D01*
X174573751Y-102932648D01*
X174476137Y-102917188D01*
X174402662Y-102905551D01*
X174229440Y-102905551D01*
X174163088Y-102916060D01*
X174058350Y-102932648D01*
X173893612Y-102986176D01*
X173893606Y-102986178D01*
X173893600Y-102986180D01*
X173893600Y-102986181D01*
X173739257Y-103064822D01*
X173599126Y-103166634D01*
X173476634Y-103289126D01*
X173374822Y-103429257D01*
X173296181Y-103583600D01*
X173296176Y-103583612D01*
X173242648Y-103748350D01*
X173224279Y-103864333D01*
X173215551Y-103919440D01*
X109010500Y-103919440D01*
X109010500Y-101379440D01*
X173215551Y-101379440D01*
X173215551Y-101552662D01*
X173227188Y-101626137D01*
X173242648Y-101723751D01*
X173280704Y-101840872D01*
X173296178Y-101888496D01*
X173296181Y-101888501D01*
X173374822Y-102042844D01*
X173476634Y-102182975D01*
X173476637Y-102182979D01*
X173599123Y-102305465D01*
X173739263Y-102407283D01*
X173893606Y-102485924D01*
X174058350Y-102539453D01*
X174229440Y-102566551D01*
X174229444Y-102566551D01*
X174402658Y-102566551D01*
X174402662Y-102566551D01*
X174573752Y-102539453D01*
X174738496Y-102485924D01*
X174892839Y-102407283D01*
X175032979Y-102305465D01*
X175155465Y-102182979D01*
X175257283Y-102042839D01*
X175335924Y-101888496D01*
X175389453Y-101723752D01*
X175416551Y-101552662D01*
X175416551Y-101379440D01*
X188455551Y-101379440D01*
X188455551Y-101552662D01*
X188467188Y-101626137D01*
X188482648Y-101723751D01*
X188520704Y-101840872D01*
X188536178Y-101888496D01*
X188536181Y-101888501D01*
X188614822Y-102042844D01*
X188716634Y-102182975D01*
X188716637Y-102182979D01*
X188839123Y-102305465D01*
X188979263Y-102407283D01*
X189133606Y-102485924D01*
X189298350Y-102539453D01*
X189469440Y-102566551D01*
X189469444Y-102566551D01*
X189642658Y-102566551D01*
X189642662Y-102566551D01*
X189813752Y-102539453D01*
X189978496Y-102485924D01*
X190132839Y-102407283D01*
X190272979Y-102305465D01*
X190395465Y-102182979D01*
X190497283Y-102042839D01*
X190575924Y-101888496D01*
X190629453Y-101723752D01*
X190656551Y-101552662D01*
X190656551Y-101379440D01*
X190629453Y-101208350D01*
X190575924Y-101043606D01*
X190497283Y-100889263D01*
X190395465Y-100749123D01*
X190272979Y-100626637D01*
X190272975Y-100626634D01*
X190132844Y-100524822D01*
X190132841Y-100524820D01*
X190132839Y-100524819D01*
X189978496Y-100446178D01*
X189930872Y-100430704D01*
X189813751Y-100392648D01*
X189716137Y-100377188D01*
X189642662Y-100365551D01*
X189469440Y-100365551D01*
X189403088Y-100376060D01*
X189298350Y-100392648D01*
X189133612Y-100446176D01*
X189133606Y-100446178D01*
X189133600Y-100446180D01*
X189133600Y-100446181D01*
X188979257Y-100524822D01*
X188839126Y-100626634D01*
X188716634Y-100749126D01*
X188614822Y-100889257D01*
X188536181Y-101043600D01*
X188536176Y-101043612D01*
X188482648Y-101208350D01*
X188464279Y-101324333D01*
X188455551Y-101379440D01*
X175416551Y-101379440D01*
X175389453Y-101208350D01*
X175335924Y-101043606D01*
X175257283Y-100889263D01*
X175155465Y-100749123D01*
X175032979Y-100626637D01*
X175032975Y-100626634D01*
X174892844Y-100524822D01*
X174892841Y-100524820D01*
X174892839Y-100524819D01*
X174738496Y-100446178D01*
X174690872Y-100430704D01*
X174573751Y-100392648D01*
X174476137Y-100377188D01*
X174402662Y-100365551D01*
X174229440Y-100365551D01*
X174163088Y-100376060D01*
X174058350Y-100392648D01*
X173893612Y-100446176D01*
X173893606Y-100446178D01*
X173893600Y-100446180D01*
X173893600Y-100446181D01*
X173739257Y-100524822D01*
X173599126Y-100626634D01*
X173476634Y-100749126D01*
X173374822Y-100889257D01*
X173296181Y-101043600D01*
X173296176Y-101043612D01*
X173242648Y-101208350D01*
X173224279Y-101324333D01*
X173215551Y-101379440D01*
X109010500Y-101379440D01*
X109010500Y-98839440D01*
X173215551Y-98839440D01*
X173215551Y-99012662D01*
X173227188Y-99086137D01*
X173242648Y-99183751D01*
X173280704Y-99300872D01*
X173296178Y-99348496D01*
X173296181Y-99348501D01*
X173374822Y-99502844D01*
X173476634Y-99642975D01*
X173476637Y-99642979D01*
X173599123Y-99765465D01*
X173739263Y-99867283D01*
X173893606Y-99945924D01*
X174058350Y-99999453D01*
X174229440Y-100026551D01*
X174229444Y-100026551D01*
X174402658Y-100026551D01*
X174402662Y-100026551D01*
X174573752Y-99999453D01*
X174738496Y-99945924D01*
X174892839Y-99867283D01*
X175032979Y-99765465D01*
X175155465Y-99642979D01*
X175257283Y-99502839D01*
X175335924Y-99348496D01*
X175389453Y-99183752D01*
X175416551Y-99012662D01*
X175416551Y-98839440D01*
X188455551Y-98839440D01*
X188455551Y-99012662D01*
X188467188Y-99086137D01*
X188482648Y-99183751D01*
X188520704Y-99300872D01*
X188536178Y-99348496D01*
X188536181Y-99348501D01*
X188614822Y-99502844D01*
X188716634Y-99642975D01*
X188716637Y-99642979D01*
X188839123Y-99765465D01*
X188979263Y-99867283D01*
X189133606Y-99945924D01*
X189298350Y-99999453D01*
X189469440Y-100026551D01*
X189469444Y-100026551D01*
X189642658Y-100026551D01*
X189642662Y-100026551D01*
X189813752Y-99999453D01*
X189978496Y-99945924D01*
X190132839Y-99867283D01*
X190272979Y-99765465D01*
X190395465Y-99642979D01*
X190497283Y-99502839D01*
X190575924Y-99348496D01*
X190629453Y-99183752D01*
X190656551Y-99012662D01*
X190656551Y-98839440D01*
X190629453Y-98668350D01*
X190575924Y-98503606D01*
X190497283Y-98349263D01*
X190395465Y-98209123D01*
X190272979Y-98086637D01*
X190272975Y-98086634D01*
X190132844Y-97984822D01*
X190132841Y-97984820D01*
X190132839Y-97984819D01*
X189978496Y-97906178D01*
X189930872Y-97890704D01*
X189813751Y-97852648D01*
X189716137Y-97837188D01*
X189642662Y-97825551D01*
X189469440Y-97825551D01*
X189403088Y-97836060D01*
X189298350Y-97852648D01*
X189133612Y-97906176D01*
X189133606Y-97906178D01*
X189133600Y-97906180D01*
X189133600Y-97906181D01*
X188979257Y-97984822D01*
X188839126Y-98086634D01*
X188716634Y-98209126D01*
X188614822Y-98349257D01*
X188536181Y-98503600D01*
X188536176Y-98503612D01*
X188482648Y-98668350D01*
X188464279Y-98784333D01*
X188455551Y-98839440D01*
X175416551Y-98839440D01*
X175389453Y-98668350D01*
X175335924Y-98503606D01*
X175257283Y-98349263D01*
X175155465Y-98209123D01*
X175032979Y-98086637D01*
X175032975Y-98086634D01*
X174892844Y-97984822D01*
X174892841Y-97984820D01*
X174892839Y-97984819D01*
X174738496Y-97906178D01*
X174690872Y-97890704D01*
X174573751Y-97852648D01*
X174476137Y-97837188D01*
X174402662Y-97825551D01*
X174229440Y-97825551D01*
X174163088Y-97836060D01*
X174058350Y-97852648D01*
X173893612Y-97906176D01*
X173893606Y-97906178D01*
X173893600Y-97906180D01*
X173893600Y-97906181D01*
X173739257Y-97984822D01*
X173599126Y-98086634D01*
X173476634Y-98209126D01*
X173374822Y-98349257D01*
X173296181Y-98503600D01*
X173296176Y-98503612D01*
X173242648Y-98668350D01*
X173224279Y-98784333D01*
X173215551Y-98839440D01*
X109010500Y-98839440D01*
X109010500Y-92675505D01*
X168224500Y-92675505D01*
X168224500Y-92856597D01*
X168252829Y-93035460D01*
X168308789Y-93207690D01*
X168391004Y-93369045D01*
X168497447Y-93515552D01*
X168625499Y-93643604D01*
X168772006Y-93750047D01*
X168933361Y-93832262D01*
X169055332Y-93871892D01*
X169062875Y-93874343D01*
X169127560Y-93916350D01*
X169162576Y-93985071D01*
X169158540Y-94062094D01*
X169116533Y-94126779D01*
X169062875Y-94157759D01*
X168933360Y-94199840D01*
X168772004Y-94282056D01*
X168772003Y-94282056D01*
X168625500Y-94388497D01*
X168625497Y-94388499D01*
X168497448Y-94516548D01*
X168497446Y-94516551D01*
X168391005Y-94663054D01*
X168391005Y-94663055D01*
X168308789Y-94824411D01*
X168308789Y-94824412D01*
X168252829Y-94996642D01*
X168224500Y-95175505D01*
X168224500Y-95356597D01*
X168252829Y-95535460D01*
X168308789Y-95707690D01*
X168391004Y-95869045D01*
X168497447Y-96015552D01*
X168625499Y-96143604D01*
X168772006Y-96250047D01*
X168933361Y-96332262D01*
X169105591Y-96388222D01*
X169284454Y-96416551D01*
X169284458Y-96416551D01*
X169715542Y-96416551D01*
X169715546Y-96416551D01*
X169894409Y-96388222D01*
X170066639Y-96332262D01*
X170131055Y-96299440D01*
X173215551Y-96299440D01*
X173215551Y-96472662D01*
X173227188Y-96546137D01*
X173242648Y-96643751D01*
X173280704Y-96760872D01*
X173296178Y-96808496D01*
X173296181Y-96808501D01*
X173374822Y-96962844D01*
X173476634Y-97102975D01*
X173476637Y-97102979D01*
X173599123Y-97225465D01*
X173739263Y-97327283D01*
X173893606Y-97405924D01*
X174058350Y-97459453D01*
X174229440Y-97486551D01*
X174229444Y-97486551D01*
X174402658Y-97486551D01*
X174402662Y-97486551D01*
X174573752Y-97459453D01*
X174738496Y-97405924D01*
X174892839Y-97327283D01*
X175032979Y-97225465D01*
X175155465Y-97102979D01*
X175257283Y-96962839D01*
X175335924Y-96808496D01*
X175389453Y-96643752D01*
X175416551Y-96472662D01*
X175416551Y-96299440D01*
X188455551Y-96299440D01*
X188455551Y-96472662D01*
X188467188Y-96546137D01*
X188482648Y-96643751D01*
X188520704Y-96760872D01*
X188536178Y-96808496D01*
X188536181Y-96808501D01*
X188614822Y-96962844D01*
X188716634Y-97102975D01*
X188716637Y-97102979D01*
X188839123Y-97225465D01*
X188979263Y-97327283D01*
X189133606Y-97405924D01*
X189298350Y-97459453D01*
X189469440Y-97486551D01*
X189469444Y-97486551D01*
X189642658Y-97486551D01*
X189642662Y-97486551D01*
X189813752Y-97459453D01*
X189978496Y-97405924D01*
X190132839Y-97327283D01*
X190272979Y-97225465D01*
X190395465Y-97102979D01*
X190497283Y-96962839D01*
X190575924Y-96808496D01*
X190629453Y-96643752D01*
X190656551Y-96472662D01*
X190656551Y-96299440D01*
X190629453Y-96128350D01*
X190575924Y-95963606D01*
X190497283Y-95809263D01*
X190395465Y-95669123D01*
X190272979Y-95546637D01*
X190257594Y-95535459D01*
X190132844Y-95444822D01*
X190132841Y-95444820D01*
X190132839Y-95444819D01*
X189978496Y-95366178D01*
X189930872Y-95350704D01*
X189813751Y-95312648D01*
X189716137Y-95297188D01*
X189642662Y-95285551D01*
X189469440Y-95285551D01*
X189403088Y-95296060D01*
X189298350Y-95312648D01*
X189133612Y-95366176D01*
X189133606Y-95366178D01*
X189133600Y-95366180D01*
X189133600Y-95366181D01*
X188979257Y-95444822D01*
X188839126Y-95546634D01*
X188716634Y-95669126D01*
X188614822Y-95809257D01*
X188536181Y-95963600D01*
X188536176Y-95963612D01*
X188482648Y-96128350D01*
X188475570Y-96173042D01*
X188455551Y-96299440D01*
X175416551Y-96299440D01*
X175389453Y-96128350D01*
X175335924Y-95963606D01*
X175257283Y-95809263D01*
X175155465Y-95669123D01*
X175032979Y-95546637D01*
X175017594Y-95535459D01*
X174892844Y-95444822D01*
X174892841Y-95444820D01*
X174892839Y-95444819D01*
X174738496Y-95366178D01*
X174690872Y-95350704D01*
X174573751Y-95312648D01*
X174476137Y-95297188D01*
X174402662Y-95285551D01*
X174229440Y-95285551D01*
X174163088Y-95296060D01*
X174058350Y-95312648D01*
X173893612Y-95366176D01*
X173893606Y-95366178D01*
X173893600Y-95366180D01*
X173893600Y-95366181D01*
X173739257Y-95444822D01*
X173599126Y-95546634D01*
X173476634Y-95669126D01*
X173374822Y-95809257D01*
X173296181Y-95963600D01*
X173296176Y-95963612D01*
X173242648Y-96128350D01*
X173235570Y-96173042D01*
X173215551Y-96299440D01*
X170131055Y-96299440D01*
X170227994Y-96250047D01*
X170374501Y-96143604D01*
X170502553Y-96015552D01*
X170608996Y-95869045D01*
X170691211Y-95707690D01*
X170747171Y-95535460D01*
X170775500Y-95356597D01*
X170775500Y-95175505D01*
X170747171Y-94996642D01*
X170691211Y-94824412D01*
X170608996Y-94663057D01*
X170502553Y-94516550D01*
X170374501Y-94388498D01*
X170227994Y-94282055D01*
X170145545Y-94240045D01*
X170066638Y-94199839D01*
X169937125Y-94157759D01*
X169872439Y-94115752D01*
X169837423Y-94047031D01*
X169841459Y-93970009D01*
X169883466Y-93905323D01*
X169937125Y-93874343D01*
X169984208Y-93859045D01*
X170066639Y-93832262D01*
X170209559Y-93759440D01*
X173215551Y-93759440D01*
X173215551Y-93932662D01*
X173221466Y-93970009D01*
X173242648Y-94103751D01*
X173255687Y-94143880D01*
X173296178Y-94268496D01*
X173357323Y-94388499D01*
X173374822Y-94422844D01*
X173442903Y-94516548D01*
X173476637Y-94562979D01*
X173599123Y-94685465D01*
X173739263Y-94787283D01*
X173893606Y-94865924D01*
X174058350Y-94919453D01*
X174229440Y-94946551D01*
X174229444Y-94946551D01*
X174402658Y-94946551D01*
X174402662Y-94946551D01*
X174573752Y-94919453D01*
X174738496Y-94865924D01*
X174892839Y-94787283D01*
X175032979Y-94685465D01*
X175155465Y-94562979D01*
X175257283Y-94422839D01*
X175335924Y-94268496D01*
X175389453Y-94103752D01*
X175416551Y-93932662D01*
X175416551Y-93759440D01*
X188455551Y-93759440D01*
X188455551Y-93932662D01*
X188461466Y-93970009D01*
X188482648Y-94103751D01*
X188495687Y-94143880D01*
X188536178Y-94268496D01*
X188597323Y-94388499D01*
X188614822Y-94422844D01*
X188682903Y-94516548D01*
X188716637Y-94562979D01*
X188839123Y-94685465D01*
X188979263Y-94787283D01*
X189133606Y-94865924D01*
X189298350Y-94919453D01*
X189469440Y-94946551D01*
X189469444Y-94946551D01*
X189642658Y-94946551D01*
X189642662Y-94946551D01*
X189813752Y-94919453D01*
X189978496Y-94865924D01*
X190132839Y-94787283D01*
X190272979Y-94685465D01*
X190395465Y-94562979D01*
X190497283Y-94422839D01*
X190575924Y-94268496D01*
X190629453Y-94103752D01*
X190656551Y-93932662D01*
X190656551Y-93759440D01*
X190629453Y-93588350D01*
X190575924Y-93423606D01*
X190497283Y-93269263D01*
X190452547Y-93207690D01*
X190395467Y-93129126D01*
X190395465Y-93129123D01*
X190272979Y-93006637D01*
X190272975Y-93006634D01*
X190132844Y-92904822D01*
X190132841Y-92904820D01*
X190132839Y-92904819D01*
X189978496Y-92826178D01*
X189930872Y-92810704D01*
X189813751Y-92772648D01*
X189716137Y-92757188D01*
X189642662Y-92745551D01*
X189469440Y-92745551D01*
X189403088Y-92756060D01*
X189298350Y-92772648D01*
X189133612Y-92826176D01*
X189133606Y-92826178D01*
X189133600Y-92826180D01*
X189133600Y-92826181D01*
X188979257Y-92904822D01*
X188839126Y-93006634D01*
X188716634Y-93129126D01*
X188614822Y-93269257D01*
X188536181Y-93423600D01*
X188536176Y-93423612D01*
X188482648Y-93588350D01*
X188465331Y-93697690D01*
X188455551Y-93759440D01*
X175416551Y-93759440D01*
X175389453Y-93588350D01*
X175335924Y-93423606D01*
X175257283Y-93269263D01*
X175212547Y-93207690D01*
X175155467Y-93129126D01*
X175155465Y-93129123D01*
X175032979Y-93006637D01*
X175032975Y-93006634D01*
X174892844Y-92904822D01*
X174892841Y-92904820D01*
X174892839Y-92904819D01*
X174738496Y-92826178D01*
X174690872Y-92810704D01*
X174573751Y-92772648D01*
X174476137Y-92757188D01*
X174402662Y-92745551D01*
X174229440Y-92745551D01*
X174163088Y-92756060D01*
X174058350Y-92772648D01*
X173893612Y-92826176D01*
X173893606Y-92826178D01*
X173893600Y-92826180D01*
X173893600Y-92826181D01*
X173739257Y-92904822D01*
X173599126Y-93006634D01*
X173476634Y-93129126D01*
X173374822Y-93269257D01*
X173296181Y-93423600D01*
X173296176Y-93423612D01*
X173242648Y-93588350D01*
X173225331Y-93697690D01*
X173215551Y-93759440D01*
X170209559Y-93759440D01*
X170227994Y-93750047D01*
X170374501Y-93643604D01*
X170502553Y-93515552D01*
X170608996Y-93369045D01*
X170691211Y-93207690D01*
X170747171Y-93035460D01*
X170775500Y-92856597D01*
X170775500Y-92675505D01*
X170747171Y-92496642D01*
X170691211Y-92324412D01*
X170608996Y-92163057D01*
X170502553Y-92016550D01*
X170374501Y-91888498D01*
X170227994Y-91782055D01*
X170066639Y-91699840D01*
X169894409Y-91643880D01*
X169715546Y-91615551D01*
X169284454Y-91615551D01*
X169105591Y-91643880D01*
X168933360Y-91699840D01*
X168772004Y-91782056D01*
X168772003Y-91782056D01*
X168625500Y-91888497D01*
X168625497Y-91888499D01*
X168497448Y-92016548D01*
X168497446Y-92016551D01*
X168391005Y-92163054D01*
X168391005Y-92163055D01*
X168308789Y-92324411D01*
X168291215Y-92378499D01*
X168252829Y-92496642D01*
X168224500Y-92675505D01*
X109010500Y-92675505D01*
X109010500Y-91219440D01*
X173215551Y-91219440D01*
X173215551Y-91392662D01*
X173227188Y-91466137D01*
X173242648Y-91563751D01*
X173263652Y-91628392D01*
X173296178Y-91728496D01*
X173323468Y-91782055D01*
X173374822Y-91882844D01*
X173471966Y-92016550D01*
X173476637Y-92022979D01*
X173599123Y-92145465D01*
X173739263Y-92247283D01*
X173893606Y-92325924D01*
X174058350Y-92379453D01*
X174229440Y-92406551D01*
X174229444Y-92406551D01*
X174402658Y-92406551D01*
X174402662Y-92406551D01*
X174573752Y-92379453D01*
X174738496Y-92325924D01*
X174892839Y-92247283D01*
X175032979Y-92145465D01*
X175155465Y-92022979D01*
X175257283Y-91882839D01*
X175335924Y-91728496D01*
X175389453Y-91563752D01*
X175416551Y-91392662D01*
X175416551Y-91219440D01*
X188455551Y-91219440D01*
X188455551Y-91392662D01*
X188467188Y-91466137D01*
X188482648Y-91563751D01*
X188503652Y-91628392D01*
X188536178Y-91728496D01*
X188563468Y-91782055D01*
X188614822Y-91882844D01*
X188711966Y-92016550D01*
X188716637Y-92022979D01*
X188839123Y-92145465D01*
X188979263Y-92247283D01*
X189133606Y-92325924D01*
X189298350Y-92379453D01*
X189469440Y-92406551D01*
X189469444Y-92406551D01*
X189642658Y-92406551D01*
X189642662Y-92406551D01*
X189813752Y-92379453D01*
X189978496Y-92325924D01*
X190132839Y-92247283D01*
X190272979Y-92145465D01*
X190395465Y-92022979D01*
X190497283Y-91882839D01*
X190575924Y-91728496D01*
X190629453Y-91563752D01*
X190656551Y-91392662D01*
X190656551Y-91219440D01*
X190629453Y-91048350D01*
X190575924Y-90883606D01*
X190497283Y-90729263D01*
X190395465Y-90589123D01*
X190272979Y-90466637D01*
X190235635Y-90439505D01*
X190132844Y-90364822D01*
X190132841Y-90364820D01*
X190132839Y-90364819D01*
X189978496Y-90286178D01*
X189813752Y-90232649D01*
X189642662Y-90205551D01*
X189469440Y-90205551D01*
X189403088Y-90216060D01*
X189298350Y-90232648D01*
X189133612Y-90286176D01*
X189133606Y-90286178D01*
X189133600Y-90286180D01*
X189133600Y-90286181D01*
X188979257Y-90364822D01*
X188839126Y-90466634D01*
X188716634Y-90589126D01*
X188614822Y-90729257D01*
X188536181Y-90883600D01*
X188536176Y-90883612D01*
X188482648Y-91048350D01*
X188464279Y-91164333D01*
X188455551Y-91219440D01*
X175416551Y-91219440D01*
X175389453Y-91048350D01*
X175335924Y-90883606D01*
X175257283Y-90729263D01*
X175155465Y-90589123D01*
X175032979Y-90466637D01*
X174995635Y-90439505D01*
X174892844Y-90364822D01*
X174892841Y-90364820D01*
X174892839Y-90364819D01*
X174738496Y-90286178D01*
X174673862Y-90265177D01*
X174573751Y-90232648D01*
X174476137Y-90217188D01*
X174402662Y-90205551D01*
X174229440Y-90205551D01*
X174163088Y-90216060D01*
X174058350Y-90232648D01*
X173893612Y-90286176D01*
X173893606Y-90286178D01*
X173893600Y-90286180D01*
X173893600Y-90286181D01*
X173739257Y-90364822D01*
X173599126Y-90466634D01*
X173476634Y-90589126D01*
X173374822Y-90729257D01*
X173296181Y-90883600D01*
X173296176Y-90883612D01*
X173242648Y-91048350D01*
X173224279Y-91164333D01*
X173215551Y-91219440D01*
X109010500Y-91219440D01*
X109010500Y-90112945D01*
X192525551Y-90112945D01*
X192525551Y-91399156D01*
X192536173Y-91487614D01*
X192591689Y-91628392D01*
X192667604Y-91728501D01*
X192683129Y-91748973D01*
X192803709Y-91840412D01*
X192944487Y-91895928D01*
X193032949Y-91906551D01*
X193032950Y-91906551D01*
X193169767Y-91906551D01*
X193244267Y-91926513D01*
X193298805Y-91981051D01*
X193318767Y-92055551D01*
X193298805Y-92130051D01*
X193244267Y-92184589D01*
X193237412Y-92188311D01*
X193073055Y-92272056D01*
X193073054Y-92272056D01*
X192926551Y-92378497D01*
X192926548Y-92378499D01*
X192798499Y-92506548D01*
X192798497Y-92506551D01*
X192692056Y-92653054D01*
X192692056Y-92653055D01*
X192609840Y-92814411D01*
X192606017Y-92826178D01*
X192553880Y-92986642D01*
X192525551Y-93165505D01*
X192525551Y-93346597D01*
X192553880Y-93525460D01*
X192609840Y-93697690D01*
X192678408Y-93832262D01*
X192692056Y-93859046D01*
X192692056Y-93859047D01*
X192713253Y-93888222D01*
X192798498Y-94005552D01*
X192926550Y-94133604D01*
X193073057Y-94240047D01*
X193234412Y-94322262D01*
X193406642Y-94378222D01*
X193585505Y-94406551D01*
X193585509Y-94406551D01*
X194066593Y-94406551D01*
X194066597Y-94406551D01*
X194245460Y-94378222D01*
X194417690Y-94322262D01*
X194579045Y-94240047D01*
X194725552Y-94133604D01*
X194853604Y-94005552D01*
X194960047Y-93859045D01*
X195042262Y-93697690D01*
X195098222Y-93525460D01*
X195126551Y-93346597D01*
X195126551Y-93165505D01*
X195098222Y-92986642D01*
X195042262Y-92814412D01*
X194960047Y-92653057D01*
X194853604Y-92506550D01*
X194725552Y-92378498D01*
X194579045Y-92272055D01*
X194489916Y-92226641D01*
X194414690Y-92188311D01*
X194357373Y-92136701D01*
X194333539Y-92063348D01*
X194349575Y-91987906D01*
X194401185Y-91930589D01*
X194474538Y-91906755D01*
X194482335Y-91906551D01*
X194619152Y-91906551D01*
X194619153Y-91906551D01*
X194707615Y-91895928D01*
X194848393Y-91840412D01*
X194968973Y-91748973D01*
X195060412Y-91628393D01*
X195115928Y-91487615D01*
X195117015Y-91478562D01*
X195145716Y-91406974D01*
X195206367Y-91359327D01*
X195282715Y-91348389D01*
X195354304Y-91377090D01*
X195370311Y-91390967D01*
X195409509Y-91430165D01*
X195409512Y-91430167D01*
X195524235Y-91506823D01*
X195524237Y-91506824D01*
X195524240Y-91506826D01*
X195651723Y-91559631D01*
X195787058Y-91586551D01*
X195925044Y-91586551D01*
X196060379Y-91559631D01*
X196187862Y-91506826D01*
X196302593Y-91430165D01*
X196400165Y-91332593D01*
X196476826Y-91217862D01*
X196529631Y-91090379D01*
X196556551Y-90955044D01*
X196556551Y-90817058D01*
X196529631Y-90681723D01*
X196476826Y-90554240D01*
X196400165Y-90439509D01*
X196302593Y-90341937D01*
X196302589Y-90341934D01*
X196187866Y-90265278D01*
X196187860Y-90265275D01*
X196060380Y-90212471D01*
X196060376Y-90212470D01*
X195925044Y-90185551D01*
X195787058Y-90185551D01*
X195651725Y-90212470D01*
X195651721Y-90212471D01*
X195524241Y-90265275D01*
X195524235Y-90265278D01*
X195409512Y-90341934D01*
X195409505Y-90341940D01*
X195380910Y-90370536D01*
X195314115Y-90409100D01*
X195236987Y-90409100D01*
X195170192Y-90370536D01*
X195131628Y-90303741D01*
X195126551Y-90265177D01*
X195126551Y-90112950D01*
X195126551Y-90112949D01*
X195115928Y-90024487D01*
X195060412Y-89883709D01*
X194968973Y-89763129D01*
X194968971Y-89763127D01*
X194895324Y-89707279D01*
X194848393Y-89671690D01*
X194848392Y-89671689D01*
X194707614Y-89616173D01*
X194619156Y-89605551D01*
X194619153Y-89605551D01*
X193032949Y-89605551D01*
X193032945Y-89605551D01*
X192944487Y-89616173D01*
X192803709Y-89671689D01*
X192803709Y-89671690D01*
X192683130Y-89763127D01*
X192683127Y-89763130D01*
X192591690Y-89883709D01*
X192591689Y-89883709D01*
X192536173Y-90024487D01*
X192525551Y-90112945D01*
X109010500Y-90112945D01*
X109010500Y-88679440D01*
X173215551Y-88679440D01*
X173215551Y-88852662D01*
X173217389Y-88864264D01*
X173242648Y-89023751D01*
X173268060Y-89101959D01*
X173296178Y-89188496D01*
X173372545Y-89338375D01*
X173374822Y-89342844D01*
X173423632Y-89410024D01*
X173476637Y-89482979D01*
X173599123Y-89605465D01*
X173613861Y-89616173D01*
X173690273Y-89671690D01*
X173739263Y-89707283D01*
X173893606Y-89785924D01*
X174058350Y-89839453D01*
X174229440Y-89866551D01*
X174229444Y-89866551D01*
X174402658Y-89866551D01*
X174402662Y-89866551D01*
X174573752Y-89839453D01*
X174738496Y-89785924D01*
X174892839Y-89707283D01*
X175032979Y-89605465D01*
X175155465Y-89482979D01*
X175257283Y-89342839D01*
X175335924Y-89188496D01*
X175389453Y-89023752D01*
X175416551Y-88852662D01*
X175416551Y-88679440D01*
X175389453Y-88508350D01*
X175335924Y-88343606D01*
X175257283Y-88189263D01*
X175155465Y-88049123D01*
X175032979Y-87926637D01*
X174982751Y-87890144D01*
X174892844Y-87824822D01*
X174892841Y-87824820D01*
X174892839Y-87824819D01*
X174738496Y-87746178D01*
X174690872Y-87730704D01*
X174573751Y-87692648D01*
X174476137Y-87677188D01*
X174402662Y-87665551D01*
X174229440Y-87665551D01*
X174163088Y-87676060D01*
X174058350Y-87692648D01*
X173893612Y-87746176D01*
X173893606Y-87746178D01*
X173893600Y-87746180D01*
X173893600Y-87746181D01*
X173739257Y-87824822D01*
X173599126Y-87926634D01*
X173476634Y-88049126D01*
X173374822Y-88189257D01*
X173296181Y-88343600D01*
X173296176Y-88343612D01*
X173242648Y-88508350D01*
X173229769Y-88589668D01*
X173215551Y-88679440D01*
X109010500Y-88679440D01*
X109010500Y-86139440D01*
X173215551Y-86139440D01*
X173215551Y-86312662D01*
X173227188Y-86386137D01*
X173242648Y-86483751D01*
X173277063Y-86589667D01*
X173296178Y-86648496D01*
X173359770Y-86773302D01*
X173374822Y-86802844D01*
X173378020Y-86807245D01*
X173476637Y-86942979D01*
X173599123Y-87065465D01*
X173599126Y-87065467D01*
X173684378Y-87127407D01*
X173739263Y-87167283D01*
X173893606Y-87245924D01*
X174058350Y-87299453D01*
X174229440Y-87326551D01*
X174229444Y-87326551D01*
X174402658Y-87326551D01*
X174402662Y-87326551D01*
X174573752Y-87299453D01*
X174738496Y-87245924D01*
X174892839Y-87167283D01*
X175032979Y-87065465D01*
X175155465Y-86942979D01*
X175257283Y-86802839D01*
X175335924Y-86648496D01*
X175389453Y-86483752D01*
X175416551Y-86312662D01*
X175416551Y-86139440D01*
X175389453Y-85968350D01*
X175335924Y-85803606D01*
X175334691Y-85801186D01*
X175803951Y-85801186D01*
X175803951Y-85801187D01*
X175803951Y-85801191D01*
X175803951Y-87190917D01*
X175806865Y-87216040D01*
X175806866Y-87216043D01*
X175852244Y-87318815D01*
X175852245Y-87318816D01*
X175931686Y-87398257D01*
X176034460Y-87443636D01*
X176059586Y-87446551D01*
X176123097Y-87446550D01*
X176197594Y-87466511D01*
X176252133Y-87521048D01*
X176272096Y-87595548D01*
X176252135Y-87670048D01*
X176205878Y-87719437D01*
X176148549Y-87757744D01*
X176148539Y-87757752D01*
X176016152Y-87890139D01*
X176016148Y-87890144D01*
X175912131Y-88045815D01*
X175912126Y-88045824D01*
X175840477Y-88218802D01*
X175803951Y-88402434D01*
X175803951Y-88589667D01*
X175840477Y-88773299D01*
X175912126Y-88946277D01*
X175912131Y-88946286D01*
X175963892Y-89023751D01*
X176016149Y-89101959D01*
X176148543Y-89234353D01*
X176251625Y-89303230D01*
X176304215Y-89338370D01*
X176304224Y-89338375D01*
X176354887Y-89359360D01*
X176477200Y-89410024D01*
X176660835Y-89446551D01*
X176848067Y-89446551D01*
X177031702Y-89410024D01*
X177204682Y-89338373D01*
X177360359Y-89234353D01*
X177492753Y-89101959D01*
X177596773Y-88946282D01*
X177616793Y-88897950D01*
X177663745Y-88836760D01*
X177735002Y-88807245D01*
X177811471Y-88817312D01*
X177872661Y-88864264D01*
X177892109Y-88897950D01*
X177912126Y-88946277D01*
X177912131Y-88946286D01*
X177963892Y-89023751D01*
X178016149Y-89101959D01*
X178148543Y-89234353D01*
X178251625Y-89303230D01*
X178304215Y-89338370D01*
X178304224Y-89338375D01*
X178354887Y-89359360D01*
X178477200Y-89410024D01*
X178660835Y-89446551D01*
X178848067Y-89446551D01*
X179031702Y-89410024D01*
X179204682Y-89338373D01*
X179360359Y-89234353D01*
X179492753Y-89101959D01*
X179596773Y-88946282D01*
X179616793Y-88897950D01*
X179663745Y-88836760D01*
X179735002Y-88807245D01*
X179811471Y-88817312D01*
X179872661Y-88864264D01*
X179892109Y-88897950D01*
X179912126Y-88946277D01*
X179912131Y-88946286D01*
X179963892Y-89023751D01*
X180016149Y-89101959D01*
X180148543Y-89234353D01*
X180251625Y-89303230D01*
X180304215Y-89338370D01*
X180304224Y-89338375D01*
X180354887Y-89359360D01*
X180477200Y-89410024D01*
X180660835Y-89446551D01*
X180848067Y-89446551D01*
X181031702Y-89410024D01*
X181204682Y-89338373D01*
X181360359Y-89234353D01*
X181492753Y-89101959D01*
X181596773Y-88946282D01*
X181668424Y-88773302D01*
X181687094Y-88679440D01*
X188455551Y-88679440D01*
X188455551Y-88852662D01*
X188457389Y-88864264D01*
X188482648Y-89023751D01*
X188508060Y-89101959D01*
X188536178Y-89188496D01*
X188612545Y-89338375D01*
X188614822Y-89342844D01*
X188663632Y-89410024D01*
X188716637Y-89482979D01*
X188839123Y-89605465D01*
X188853861Y-89616173D01*
X188930273Y-89671690D01*
X188979263Y-89707283D01*
X189133606Y-89785924D01*
X189298350Y-89839453D01*
X189469440Y-89866551D01*
X189469444Y-89866551D01*
X189642658Y-89866551D01*
X189642662Y-89866551D01*
X189813752Y-89839453D01*
X189978496Y-89785924D01*
X190132839Y-89707283D01*
X190272979Y-89605465D01*
X190395465Y-89482979D01*
X190497283Y-89342839D01*
X190575924Y-89188496D01*
X190629453Y-89023752D01*
X190656551Y-88852662D01*
X190656551Y-88679440D01*
X190629453Y-88508350D01*
X190575924Y-88343606D01*
X190497283Y-88189263D01*
X190395465Y-88049123D01*
X190272979Y-87926637D01*
X190222751Y-87890144D01*
X190132844Y-87824822D01*
X190132841Y-87824820D01*
X190132839Y-87824819D01*
X189978496Y-87746178D01*
X189930872Y-87730704D01*
X189813751Y-87692648D01*
X189716137Y-87677188D01*
X189642662Y-87665551D01*
X189469440Y-87665551D01*
X189403088Y-87676060D01*
X189298350Y-87692648D01*
X189133612Y-87746176D01*
X189133606Y-87746178D01*
X189133600Y-87746180D01*
X189133600Y-87746181D01*
X188979257Y-87824822D01*
X188839126Y-87926634D01*
X188716634Y-88049126D01*
X188614822Y-88189257D01*
X188536181Y-88343600D01*
X188536176Y-88343612D01*
X188482648Y-88508350D01*
X188469769Y-88589668D01*
X188455551Y-88679440D01*
X181687094Y-88679440D01*
X181704951Y-88589667D01*
X181704951Y-88402435D01*
X181668424Y-88218800D01*
X181616793Y-88094152D01*
X181596775Y-88045824D01*
X181596770Y-88045815D01*
X181561630Y-87993225D01*
X181492753Y-87890143D01*
X181360359Y-87757749D01*
X181262930Y-87692649D01*
X181204686Y-87653731D01*
X181204677Y-87653726D01*
X181156350Y-87633709D01*
X181095160Y-87586757D01*
X181065645Y-87515500D01*
X181075712Y-87439031D01*
X181122664Y-87377841D01*
X181156350Y-87358393D01*
X181204677Y-87338375D01*
X181204676Y-87338375D01*
X181204682Y-87338373D01*
X181360359Y-87234353D01*
X181492753Y-87101959D01*
X181596773Y-86946282D01*
X181668424Y-86773302D01*
X181704951Y-86589667D01*
X181704951Y-86402435D01*
X181668424Y-86218800D01*
X181635552Y-86139440D01*
X188455551Y-86139440D01*
X188455551Y-86312662D01*
X188467188Y-86386137D01*
X188482648Y-86483751D01*
X188517063Y-86589667D01*
X188536178Y-86648496D01*
X188599770Y-86773302D01*
X188614822Y-86802844D01*
X188618020Y-86807245D01*
X188716637Y-86942979D01*
X188839123Y-87065465D01*
X188839126Y-87065467D01*
X188924378Y-87127407D01*
X188979263Y-87167283D01*
X189133606Y-87245924D01*
X189298350Y-87299453D01*
X189469440Y-87326551D01*
X189469444Y-87326551D01*
X189642658Y-87326551D01*
X189642662Y-87326551D01*
X189813752Y-87299453D01*
X189978496Y-87245924D01*
X190132839Y-87167283D01*
X190272979Y-87065465D01*
X190395465Y-86942979D01*
X190497283Y-86802839D01*
X190575924Y-86648496D01*
X190629453Y-86483752D01*
X190656551Y-86312662D01*
X190656551Y-86139440D01*
X190629453Y-85968350D01*
X190575924Y-85803606D01*
X190497283Y-85649263D01*
X190477605Y-85622179D01*
X190395467Y-85509126D01*
X190395465Y-85509123D01*
X190272979Y-85386637D01*
X190272975Y-85386634D01*
X190132844Y-85284822D01*
X190132841Y-85284820D01*
X190132839Y-85284819D01*
X189978496Y-85206178D01*
X189930872Y-85190704D01*
X189813751Y-85152648D01*
X189716137Y-85137188D01*
X189642662Y-85125551D01*
X189469440Y-85125551D01*
X189403088Y-85136060D01*
X189298350Y-85152648D01*
X189133612Y-85206176D01*
X189133606Y-85206178D01*
X189133600Y-85206180D01*
X189133600Y-85206181D01*
X188979257Y-85284822D01*
X188839126Y-85386634D01*
X188716634Y-85509126D01*
X188614822Y-85649257D01*
X188536181Y-85803600D01*
X188536176Y-85803612D01*
X188482648Y-85968350D01*
X188470378Y-86045824D01*
X188455551Y-86139440D01*
X181635552Y-86139440D01*
X181596773Y-86045820D01*
X181492753Y-85890143D01*
X181360359Y-85757749D01*
X181308466Y-85723075D01*
X181204686Y-85653731D01*
X181204677Y-85653726D01*
X181060110Y-85593845D01*
X181031702Y-85582078D01*
X181031700Y-85582077D01*
X181031699Y-85582077D01*
X180848067Y-85545551D01*
X180660835Y-85545551D01*
X180477202Y-85582077D01*
X180304224Y-85653726D01*
X180304215Y-85653731D01*
X180148544Y-85757748D01*
X180148539Y-85757752D01*
X180016152Y-85890139D01*
X180016148Y-85890144D01*
X179912131Y-86045815D01*
X179912128Y-86045821D01*
X179892109Y-86094152D01*
X179845156Y-86155341D01*
X179773899Y-86184856D01*
X179697430Y-86174789D01*
X179636241Y-86127836D01*
X179616793Y-86094152D01*
X179611853Y-86082227D01*
X179596773Y-86045820D01*
X179492753Y-85890143D01*
X179360359Y-85757749D01*
X179308466Y-85723075D01*
X179204686Y-85653731D01*
X179204677Y-85653726D01*
X179060110Y-85593845D01*
X179031702Y-85582078D01*
X179031700Y-85582077D01*
X179031699Y-85582077D01*
X178848067Y-85545551D01*
X178660835Y-85545551D01*
X178477202Y-85582077D01*
X178304224Y-85653726D01*
X178304215Y-85653731D01*
X178148544Y-85757748D01*
X178148539Y-85757752D01*
X178016152Y-85890139D01*
X178016149Y-85890142D01*
X178016149Y-85890143D01*
X177977837Y-85947480D01*
X177919850Y-85998332D01*
X177844204Y-86013379D01*
X177771169Y-85988587D01*
X177720316Y-85930598D01*
X177704950Y-85864698D01*
X177704950Y-85801184D01*
X177702036Y-85776061D01*
X177702035Y-85776059D01*
X177656657Y-85673286D01*
X177577216Y-85593845D01*
X177577215Y-85593844D01*
X177474445Y-85548467D01*
X177474442Y-85548466D01*
X177474433Y-85548465D01*
X177449316Y-85545551D01*
X177449310Y-85545551D01*
X176059584Y-85545551D01*
X176034461Y-85548465D01*
X176034458Y-85548466D01*
X175931686Y-85593844D01*
X175852244Y-85673286D01*
X175806867Y-85776056D01*
X175806866Y-85776059D01*
X175806866Y-85776060D01*
X175803951Y-85801186D01*
X175334691Y-85801186D01*
X175257283Y-85649263D01*
X175237605Y-85622179D01*
X175155467Y-85509126D01*
X175155465Y-85509123D01*
X175032979Y-85386637D01*
X175032975Y-85386634D01*
X174892844Y-85284822D01*
X174892841Y-85284820D01*
X174892839Y-85284819D01*
X174738496Y-85206178D01*
X174690872Y-85190704D01*
X174573751Y-85152648D01*
X174476137Y-85137188D01*
X174402662Y-85125551D01*
X174229440Y-85125551D01*
X174163088Y-85136060D01*
X174058350Y-85152648D01*
X173893612Y-85206176D01*
X173893606Y-85206178D01*
X173893600Y-85206180D01*
X173893600Y-85206181D01*
X173739257Y-85284822D01*
X173599126Y-85386634D01*
X173476634Y-85509126D01*
X173374822Y-85649257D01*
X173296181Y-85803600D01*
X173296176Y-85803612D01*
X173242648Y-85968350D01*
X173230378Y-86045824D01*
X173215551Y-86139440D01*
X109010500Y-86139440D01*
X109010500Y-84818640D01*
X185404751Y-84818640D01*
X185404751Y-84991862D01*
X185409268Y-85020379D01*
X185431848Y-85162951D01*
X185469904Y-85280072D01*
X185485378Y-85327696D01*
X185540981Y-85436823D01*
X185564022Y-85482044D01*
X185610163Y-85545551D01*
X185665837Y-85622179D01*
X185788323Y-85744665D01*
X185788326Y-85744667D01*
X185923568Y-85842927D01*
X185928463Y-85846483D01*
X186082806Y-85925124D01*
X186247550Y-85978653D01*
X186418640Y-86005751D01*
X186418644Y-86005751D01*
X186591858Y-86005751D01*
X186591862Y-86005751D01*
X186762952Y-85978653D01*
X186927696Y-85925124D01*
X187082039Y-85846483D01*
X187222179Y-85744665D01*
X187344665Y-85622179D01*
X187446483Y-85482039D01*
X187525124Y-85327696D01*
X187578653Y-85162952D01*
X187605751Y-84991862D01*
X187605751Y-84818640D01*
X187578653Y-84647550D01*
X187525124Y-84482806D01*
X187446483Y-84328463D01*
X187344665Y-84188323D01*
X187222179Y-84065837D01*
X187222175Y-84065834D01*
X187082044Y-83964022D01*
X187082041Y-83964020D01*
X187082039Y-83964019D01*
X186927696Y-83885378D01*
X186880072Y-83869904D01*
X186762951Y-83831848D01*
X186665337Y-83816388D01*
X186591862Y-83804751D01*
X186418640Y-83804751D01*
X186352288Y-83815260D01*
X186247550Y-83831848D01*
X186082812Y-83885376D01*
X186082806Y-83885378D01*
X186082800Y-83885380D01*
X186082800Y-83885381D01*
X185928457Y-83964022D01*
X185788326Y-84065834D01*
X185665834Y-84188326D01*
X185564022Y-84328457D01*
X185485381Y-84482800D01*
X185485376Y-84482812D01*
X185431848Y-84647550D01*
X185416088Y-84747058D01*
X185404751Y-84818640D01*
X109010500Y-84818640D01*
X109010500Y-83599440D01*
X173215551Y-83599440D01*
X173215551Y-83772662D01*
X173224925Y-83831848D01*
X173242648Y-83943751D01*
X173249234Y-83964019D01*
X173296178Y-84108496D01*
X173340396Y-84195278D01*
X173374822Y-84262844D01*
X173476634Y-84402975D01*
X173476637Y-84402979D01*
X173599123Y-84525465D01*
X173599126Y-84525467D01*
X173728130Y-84619195D01*
X173739263Y-84627283D01*
X173893606Y-84705924D01*
X174058350Y-84759453D01*
X174229440Y-84786551D01*
X174229444Y-84786551D01*
X174402658Y-84786551D01*
X174402662Y-84786551D01*
X174573752Y-84759453D01*
X174738496Y-84705924D01*
X174892839Y-84627283D01*
X175032979Y-84525465D01*
X175155465Y-84402979D01*
X175257283Y-84262839D01*
X175335924Y-84108496D01*
X175389453Y-83943752D01*
X175416551Y-83772662D01*
X175416551Y-83599440D01*
X188455551Y-83599440D01*
X188455551Y-83772662D01*
X188464925Y-83831848D01*
X188482648Y-83943751D01*
X188489234Y-83964019D01*
X188536178Y-84108496D01*
X188580396Y-84195278D01*
X188614822Y-84262844D01*
X188716634Y-84402975D01*
X188716637Y-84402979D01*
X188839123Y-84525465D01*
X188839126Y-84525467D01*
X188968130Y-84619195D01*
X188979263Y-84627283D01*
X189133606Y-84705924D01*
X189298350Y-84759453D01*
X189469440Y-84786551D01*
X189469444Y-84786551D01*
X189642658Y-84786551D01*
X189642662Y-84786551D01*
X189813752Y-84759453D01*
X189851903Y-84747057D01*
X197099500Y-84747057D01*
X197099500Y-84885044D01*
X197126419Y-85020376D01*
X197126420Y-85020380D01*
X197179224Y-85147860D01*
X197179227Y-85147866D01*
X197255883Y-85262589D01*
X197255886Y-85262593D01*
X197353458Y-85360165D01*
X197353461Y-85360167D01*
X197468184Y-85436823D01*
X197468186Y-85436824D01*
X197468189Y-85436826D01*
X197595672Y-85489631D01*
X197731007Y-85516551D01*
X197868993Y-85516551D01*
X198004328Y-85489631D01*
X198131811Y-85436826D01*
X198246542Y-85360165D01*
X198344114Y-85262593D01*
X198420775Y-85147862D01*
X198473580Y-85020379D01*
X198500500Y-84885044D01*
X198500500Y-84747058D01*
X198473580Y-84611723D01*
X198420775Y-84484240D01*
X198344114Y-84369509D01*
X198246542Y-84271937D01*
X198246538Y-84271934D01*
X198131815Y-84195278D01*
X198131809Y-84195275D01*
X198004329Y-84142471D01*
X198004325Y-84142470D01*
X197868993Y-84115551D01*
X197731007Y-84115551D01*
X197595674Y-84142470D01*
X197595670Y-84142471D01*
X197468190Y-84195275D01*
X197468184Y-84195278D01*
X197353461Y-84271934D01*
X197353454Y-84271940D01*
X197255889Y-84369505D01*
X197255883Y-84369512D01*
X197179227Y-84484235D01*
X197179224Y-84484241D01*
X197126420Y-84611721D01*
X197126419Y-84611725D01*
X197099500Y-84747057D01*
X189851903Y-84747057D01*
X189978496Y-84705924D01*
X190132839Y-84627283D01*
X190272979Y-84525465D01*
X190395465Y-84402979D01*
X190497283Y-84262839D01*
X190575924Y-84108496D01*
X190629453Y-83943752D01*
X190656551Y-83772662D01*
X190656551Y-83599440D01*
X190629453Y-83428350D01*
X190575924Y-83263606D01*
X190497283Y-83109263D01*
X190477605Y-83082179D01*
X190395467Y-82969126D01*
X190395465Y-82969123D01*
X190272979Y-82846637D01*
X190191854Y-82787696D01*
X190132844Y-82744822D01*
X190132841Y-82744820D01*
X190132839Y-82744819D01*
X189978496Y-82666178D01*
X189930872Y-82650704D01*
X189813751Y-82612648D01*
X189716137Y-82597188D01*
X189642662Y-82585551D01*
X189469440Y-82585551D01*
X189403088Y-82596060D01*
X189298350Y-82612648D01*
X189133612Y-82666176D01*
X189133606Y-82666178D01*
X189133600Y-82666180D01*
X189133600Y-82666181D01*
X188979257Y-82744822D01*
X188839126Y-82846634D01*
X188716634Y-82969126D01*
X188614822Y-83109257D01*
X188536181Y-83263600D01*
X188536176Y-83263612D01*
X188482648Y-83428350D01*
X188476725Y-83465751D01*
X188455551Y-83599440D01*
X175416551Y-83599440D01*
X175389453Y-83428350D01*
X175335924Y-83263606D01*
X175257283Y-83109263D01*
X175237605Y-83082179D01*
X175155467Y-82969126D01*
X175155465Y-82969123D01*
X175032979Y-82846637D01*
X174951854Y-82787696D01*
X174892844Y-82744822D01*
X174892841Y-82744820D01*
X174892839Y-82744819D01*
X174738496Y-82666178D01*
X174690872Y-82650704D01*
X174573751Y-82612648D01*
X174476137Y-82597188D01*
X174402662Y-82585551D01*
X174229440Y-82585551D01*
X174163088Y-82596060D01*
X174058350Y-82612648D01*
X173893612Y-82666176D01*
X173893606Y-82666178D01*
X173893600Y-82666180D01*
X173893600Y-82666181D01*
X173739257Y-82744822D01*
X173599126Y-82846634D01*
X173476634Y-82969126D01*
X173374822Y-83109257D01*
X173296181Y-83263600D01*
X173296176Y-83263612D01*
X173242648Y-83428350D01*
X173236725Y-83465751D01*
X173215551Y-83599440D01*
X109010500Y-83599440D01*
X109010500Y-82278640D01*
X185404751Y-82278640D01*
X185404751Y-82451862D01*
X185416388Y-82525337D01*
X185431848Y-82622951D01*
X185445893Y-82666176D01*
X185485378Y-82787696D01*
X185515409Y-82846634D01*
X185564022Y-82942044D01*
X185665834Y-83082175D01*
X185665837Y-83082179D01*
X185788323Y-83204665D01*
X185928463Y-83306483D01*
X186082806Y-83385124D01*
X186247550Y-83438653D01*
X186418640Y-83465751D01*
X186418644Y-83465751D01*
X186591858Y-83465751D01*
X186591862Y-83465751D01*
X186762952Y-83438653D01*
X186927696Y-83385124D01*
X187082039Y-83306483D01*
X187222179Y-83204665D01*
X187344665Y-83082179D01*
X187446483Y-82942039D01*
X187525124Y-82787696D01*
X187578653Y-82622952D01*
X187605751Y-82451862D01*
X187605751Y-82278640D01*
X187578653Y-82107550D01*
X187525124Y-81942806D01*
X187446483Y-81788463D01*
X187344665Y-81648323D01*
X187222179Y-81525837D01*
X187222175Y-81525834D01*
X187082044Y-81424022D01*
X187082041Y-81424020D01*
X187082039Y-81424019D01*
X186927696Y-81345378D01*
X186880072Y-81329904D01*
X186762951Y-81291848D01*
X186665337Y-81276388D01*
X186591862Y-81264751D01*
X186418640Y-81264751D01*
X186352288Y-81275260D01*
X186247550Y-81291848D01*
X186082812Y-81345376D01*
X186082806Y-81345378D01*
X186082800Y-81345380D01*
X186082800Y-81345381D01*
X185928457Y-81424022D01*
X185788326Y-81525834D01*
X185665834Y-81648326D01*
X185564022Y-81788457D01*
X185485381Y-81942800D01*
X185485376Y-81942812D01*
X185431848Y-82107550D01*
X185422603Y-82165924D01*
X185404751Y-82278640D01*
X109010500Y-82278640D01*
X109010500Y-81059440D01*
X173215551Y-81059440D01*
X173215551Y-81232662D01*
X173224925Y-81291848D01*
X173242648Y-81403751D01*
X173249234Y-81424019D01*
X173296178Y-81568496D01*
X173336854Y-81648326D01*
X173374822Y-81722844D01*
X173476634Y-81862975D01*
X173476637Y-81862979D01*
X173599123Y-81985465D01*
X173739263Y-82087283D01*
X173893606Y-82165924D01*
X174058350Y-82219453D01*
X174229440Y-82246551D01*
X174229444Y-82246551D01*
X174402658Y-82246551D01*
X174402662Y-82246551D01*
X174573752Y-82219453D01*
X174738496Y-82165924D01*
X174892839Y-82087283D01*
X175032979Y-81985465D01*
X175155465Y-81862979D01*
X175257283Y-81722839D01*
X175335924Y-81568496D01*
X175389453Y-81403752D01*
X175416551Y-81232662D01*
X175416551Y-81059440D01*
X188455551Y-81059440D01*
X188455551Y-81232662D01*
X188464925Y-81291848D01*
X188482648Y-81403751D01*
X188489234Y-81424019D01*
X188536178Y-81568496D01*
X188576854Y-81648326D01*
X188614822Y-81722844D01*
X188716634Y-81862975D01*
X188716637Y-81862979D01*
X188839123Y-81985465D01*
X188979263Y-82087283D01*
X189133606Y-82165924D01*
X189298350Y-82219453D01*
X189469440Y-82246551D01*
X189469444Y-82246551D01*
X189642658Y-82246551D01*
X189642662Y-82246551D01*
X189813752Y-82219453D01*
X189978496Y-82165924D01*
X190132839Y-82087283D01*
X190272979Y-81985465D01*
X190395465Y-81862979D01*
X190497283Y-81722839D01*
X190575924Y-81568496D01*
X190629453Y-81403752D01*
X190656551Y-81232662D01*
X190656551Y-81059440D01*
X190629453Y-80888350D01*
X190575924Y-80723606D01*
X190497283Y-80569263D01*
X190395465Y-80429123D01*
X190272979Y-80306637D01*
X190272975Y-80306634D01*
X190132844Y-80204822D01*
X190132841Y-80204820D01*
X190132839Y-80204819D01*
X189978496Y-80126178D01*
X189930872Y-80110704D01*
X189813751Y-80072648D01*
X189716137Y-80057188D01*
X189642662Y-80045551D01*
X189469440Y-80045551D01*
X189403088Y-80056060D01*
X189298350Y-80072648D01*
X189133612Y-80126176D01*
X189133606Y-80126178D01*
X189133600Y-80126180D01*
X189133600Y-80126181D01*
X188979257Y-80204822D01*
X188839126Y-80306634D01*
X188716634Y-80429126D01*
X188614822Y-80569257D01*
X188536181Y-80723600D01*
X188536176Y-80723612D01*
X188482648Y-80888350D01*
X188476725Y-80925750D01*
X188455551Y-81059440D01*
X175416551Y-81059440D01*
X175389453Y-80888350D01*
X175335924Y-80723606D01*
X175257283Y-80569263D01*
X175155465Y-80429123D01*
X175032979Y-80306637D01*
X175032975Y-80306634D01*
X174892844Y-80204822D01*
X174892841Y-80204820D01*
X174892839Y-80204819D01*
X174738496Y-80126178D01*
X174690872Y-80110704D01*
X174573751Y-80072648D01*
X174476137Y-80057188D01*
X174402662Y-80045551D01*
X174229440Y-80045551D01*
X174163088Y-80056060D01*
X174058350Y-80072648D01*
X173893612Y-80126176D01*
X173893606Y-80126178D01*
X173893600Y-80126180D01*
X173893600Y-80126181D01*
X173739257Y-80204822D01*
X173599126Y-80306634D01*
X173476634Y-80429126D01*
X173374822Y-80569257D01*
X173296181Y-80723600D01*
X173296176Y-80723612D01*
X173242648Y-80888350D01*
X173236725Y-80925750D01*
X173215551Y-81059440D01*
X109010500Y-81059440D01*
X109010500Y-77819000D01*
X109030462Y-77744500D01*
X109085000Y-77689962D01*
X109159500Y-77670000D01*
X121540000Y-77670000D01*
X121540000Y-76731006D01*
X145799500Y-76731006D01*
X145799500Y-76868993D01*
X145826419Y-77004325D01*
X145826420Y-77004329D01*
X145879224Y-77131809D01*
X145879227Y-77131815D01*
X145955883Y-77246538D01*
X145955886Y-77246542D01*
X146053458Y-77344114D01*
X146053461Y-77344116D01*
X146168184Y-77420772D01*
X146168186Y-77420773D01*
X146168189Y-77420775D01*
X146295672Y-77473580D01*
X146431007Y-77500500D01*
X146568993Y-77500500D01*
X146704328Y-77473580D01*
X146831811Y-77420775D01*
X146946542Y-77344114D01*
X147044114Y-77246542D01*
X147120775Y-77131811D01*
X147173580Y-77004328D01*
X147200500Y-76868993D01*
X147200500Y-76731007D01*
X147173580Y-76595672D01*
X147120775Y-76468189D01*
X147044114Y-76353458D01*
X146946542Y-76255886D01*
X146946538Y-76255883D01*
X146831815Y-76179227D01*
X146831809Y-76179224D01*
X146704329Y-76126420D01*
X146704325Y-76126419D01*
X146568993Y-76099500D01*
X146431007Y-76099500D01*
X146295674Y-76126419D01*
X146295670Y-76126420D01*
X146168190Y-76179224D01*
X146168184Y-76179227D01*
X146053461Y-76255883D01*
X146053454Y-76255889D01*
X145955889Y-76353454D01*
X145955883Y-76353461D01*
X145879227Y-76468184D01*
X145879224Y-76468190D01*
X145826420Y-76595670D01*
X145826419Y-76595674D01*
X145799500Y-76731006D01*
X121540000Y-76731006D01*
X121540000Y-75431006D01*
X144299500Y-75431006D01*
X144299500Y-75568993D01*
X144326419Y-75704325D01*
X144326420Y-75704329D01*
X144379224Y-75831809D01*
X144379227Y-75831815D01*
X144455883Y-75946538D01*
X144455886Y-75946542D01*
X144553458Y-76044114D01*
X144553461Y-76044116D01*
X144668184Y-76120772D01*
X144668186Y-76120773D01*
X144668189Y-76120775D01*
X144795672Y-76173580D01*
X144931007Y-76200500D01*
X145068993Y-76200500D01*
X145204328Y-76173580D01*
X145331811Y-76120775D01*
X145446542Y-76044114D01*
X145544114Y-75946542D01*
X145620775Y-75831811D01*
X145673580Y-75704328D01*
X145685657Y-75643612D01*
X145686993Y-75636894D01*
X166364500Y-75636894D01*
X166364500Y-76923105D01*
X166375122Y-77011563D01*
X166430638Y-77152341D01*
X166502075Y-77246545D01*
X166522078Y-77272922D01*
X166642658Y-77364361D01*
X166783436Y-77419877D01*
X166871898Y-77430500D01*
X166871899Y-77430500D01*
X167008716Y-77430500D01*
X167083216Y-77450462D01*
X167137754Y-77505000D01*
X167157716Y-77579500D01*
X167137754Y-77654000D01*
X167083216Y-77708538D01*
X167076361Y-77712260D01*
X166912004Y-77796005D01*
X166912003Y-77796005D01*
X166765500Y-77902446D01*
X166765497Y-77902448D01*
X166637448Y-78030497D01*
X166637446Y-78030500D01*
X166531005Y-78177003D01*
X166531005Y-78177004D01*
X166448789Y-78338360D01*
X166392829Y-78510590D01*
X166392829Y-78510591D01*
X166364500Y-78689454D01*
X166364500Y-78870546D01*
X166392829Y-79049409D01*
X166395708Y-79058269D01*
X166448789Y-79221639D01*
X166531005Y-79382995D01*
X166531005Y-79382996D01*
X166576389Y-79445462D01*
X166637447Y-79529501D01*
X166765499Y-79657553D01*
X166912006Y-79763996D01*
X167073361Y-79846211D01*
X167245591Y-79902171D01*
X167424454Y-79930500D01*
X167424458Y-79930500D01*
X167855542Y-79930500D01*
X167855546Y-79930500D01*
X168034409Y-79902171D01*
X168206639Y-79846211D01*
X168367994Y-79763996D01*
X168514501Y-79657553D01*
X168642553Y-79529501D01*
X168748996Y-79382994D01*
X168831211Y-79221639D01*
X168887171Y-79049409D01*
X168915500Y-78870546D01*
X168915500Y-78689454D01*
X168888573Y-78519440D01*
X173215551Y-78519440D01*
X173215551Y-78692662D01*
X173224086Y-78746550D01*
X173242648Y-78863751D01*
X173264186Y-78930037D01*
X173296178Y-79028496D01*
X173311349Y-79058270D01*
X173374822Y-79182844D01*
X173403371Y-79222138D01*
X173476637Y-79322979D01*
X173599123Y-79445465D01*
X173599126Y-79445467D01*
X173714789Y-79529502D01*
X173739263Y-79547283D01*
X173893606Y-79625924D01*
X174058350Y-79679453D01*
X174229440Y-79706551D01*
X174229444Y-79706551D01*
X174402658Y-79706551D01*
X174402662Y-79706551D01*
X174573752Y-79679453D01*
X174738496Y-79625924D01*
X174892839Y-79547283D01*
X175032979Y-79445465D01*
X175155465Y-79322979D01*
X175257283Y-79182839D01*
X175335924Y-79028496D01*
X175351556Y-78980386D01*
X185404751Y-78980386D01*
X185404751Y-78980387D01*
X185404751Y-78980391D01*
X185404751Y-80670117D01*
X185407665Y-80695240D01*
X185407666Y-80695243D01*
X185453044Y-80798015D01*
X185453045Y-80798016D01*
X185532486Y-80877457D01*
X185635260Y-80922836D01*
X185660386Y-80925751D01*
X187350115Y-80925750D01*
X187350117Y-80925750D01*
X187362678Y-80924293D01*
X187375242Y-80922836D01*
X187478016Y-80877457D01*
X187557457Y-80798016D01*
X187602836Y-80695242D01*
X187605751Y-80670116D01*
X187605750Y-78980387D01*
X187602836Y-78955260D01*
X187557457Y-78852486D01*
X187478016Y-78773045D01*
X187478015Y-78773044D01*
X187375245Y-78727667D01*
X187375242Y-78727666D01*
X187375233Y-78727665D01*
X187350116Y-78724751D01*
X187350110Y-78724751D01*
X185660384Y-78724751D01*
X185635261Y-78727665D01*
X185635258Y-78727666D01*
X185532486Y-78773044D01*
X185453044Y-78852486D01*
X185407667Y-78955256D01*
X185407666Y-78955259D01*
X185407666Y-78955260D01*
X185404751Y-78980386D01*
X175351556Y-78980386D01*
X175389453Y-78863752D01*
X175416551Y-78692662D01*
X175416551Y-78519440D01*
X188455551Y-78519440D01*
X188455551Y-78692662D01*
X188464086Y-78746550D01*
X188482648Y-78863751D01*
X188504186Y-78930037D01*
X188536178Y-79028496D01*
X188551349Y-79058270D01*
X188614822Y-79182844D01*
X188643371Y-79222138D01*
X188716637Y-79322979D01*
X188839123Y-79445465D01*
X188839126Y-79445467D01*
X188954789Y-79529502D01*
X188979263Y-79547283D01*
X189133606Y-79625924D01*
X189298350Y-79679453D01*
X189469440Y-79706551D01*
X189469444Y-79706551D01*
X189642658Y-79706551D01*
X189642662Y-79706551D01*
X189813752Y-79679453D01*
X189978496Y-79625924D01*
X190034260Y-79597511D01*
X202785551Y-79597511D01*
X202785551Y-79794590D01*
X202823999Y-79987885D01*
X202824000Y-79987887D01*
X202899418Y-80169963D01*
X202899419Y-80169966D01*
X202972248Y-80278962D01*
X203008912Y-80333833D01*
X203148269Y-80473190D01*
X203257266Y-80546019D01*
X203312135Y-80582682D01*
X203312136Y-80582682D01*
X203312137Y-80582683D01*
X203494216Y-80658102D01*
X203687510Y-80696551D01*
X203687511Y-80696551D01*
X203884591Y-80696551D01*
X203884592Y-80696551D01*
X204077886Y-80658102D01*
X204259965Y-80582683D01*
X204423833Y-80473190D01*
X204563190Y-80333833D01*
X204672683Y-80169965D01*
X204748102Y-79987886D01*
X204786551Y-79794592D01*
X204786551Y-79597510D01*
X204748102Y-79404216D01*
X204672683Y-79222137D01*
X204672350Y-79221639D01*
X204636019Y-79167266D01*
X204563190Y-79058269D01*
X204423833Y-78918912D01*
X204341279Y-78863751D01*
X204259966Y-78809419D01*
X204259963Y-78809418D01*
X204077887Y-78734000D01*
X204077885Y-78733999D01*
X203923040Y-78703198D01*
X203884592Y-78695551D01*
X203687510Y-78695551D01*
X203655440Y-78701929D01*
X203494216Y-78733999D01*
X203494214Y-78734000D01*
X203312138Y-78809418D01*
X203312135Y-78809419D01*
X203148270Y-78918911D01*
X203148265Y-78918915D01*
X203008915Y-79058265D01*
X203008911Y-79058270D01*
X202899419Y-79222135D01*
X202899418Y-79222138D01*
X202824000Y-79404214D01*
X202823999Y-79404216D01*
X202785551Y-79597511D01*
X190034260Y-79597511D01*
X190132839Y-79547283D01*
X190272979Y-79445465D01*
X190395465Y-79322979D01*
X190497283Y-79182839D01*
X190575924Y-79028496D01*
X190629453Y-78863752D01*
X190656551Y-78692662D01*
X190656551Y-78519440D01*
X190629453Y-78348350D01*
X190575924Y-78183606D01*
X190497283Y-78029263D01*
X190395465Y-77889123D01*
X190272979Y-77766637D01*
X190242510Y-77744500D01*
X190132844Y-77664822D01*
X190132841Y-77664820D01*
X190132839Y-77664819D01*
X189978496Y-77586178D01*
X189930872Y-77570704D01*
X189813751Y-77532648D01*
X189716137Y-77517188D01*
X189642662Y-77505551D01*
X189469440Y-77505551D01*
X189403088Y-77516060D01*
X189298350Y-77532648D01*
X189133612Y-77586176D01*
X189133606Y-77586178D01*
X189133600Y-77586180D01*
X189133600Y-77586181D01*
X188979257Y-77664822D01*
X188839126Y-77766634D01*
X188716634Y-77889126D01*
X188614822Y-78029257D01*
X188536181Y-78183600D01*
X188536176Y-78183612D01*
X188482648Y-78348350D01*
X188464279Y-78464333D01*
X188455551Y-78519440D01*
X175416551Y-78519440D01*
X175389453Y-78348350D01*
X175335924Y-78183606D01*
X175257283Y-78029263D01*
X175155465Y-77889123D01*
X175032979Y-77766637D01*
X175002510Y-77744500D01*
X174892844Y-77664822D01*
X174892841Y-77664820D01*
X174892839Y-77664819D01*
X174738496Y-77586178D01*
X174690872Y-77570704D01*
X174573751Y-77532648D01*
X174476137Y-77517188D01*
X174402662Y-77505551D01*
X174229440Y-77505551D01*
X174163088Y-77516060D01*
X174058350Y-77532648D01*
X173893612Y-77586176D01*
X173893606Y-77586178D01*
X173893600Y-77586180D01*
X173893600Y-77586181D01*
X173739257Y-77664822D01*
X173599126Y-77766634D01*
X173476634Y-77889126D01*
X173374822Y-78029257D01*
X173296181Y-78183600D01*
X173296176Y-78183612D01*
X173242648Y-78348350D01*
X173224279Y-78464333D01*
X173215551Y-78519440D01*
X168888573Y-78519440D01*
X168887171Y-78510591D01*
X168831211Y-78338361D01*
X168748996Y-78177006D01*
X168642553Y-78030499D01*
X168514501Y-77902447D01*
X168367994Y-77796004D01*
X168266912Y-77744500D01*
X168203639Y-77712260D01*
X168146322Y-77660650D01*
X168122488Y-77587297D01*
X168138524Y-77511855D01*
X168190134Y-77454538D01*
X168263487Y-77430704D01*
X168271284Y-77430500D01*
X168408101Y-77430500D01*
X168408102Y-77430500D01*
X168496564Y-77419877D01*
X168637342Y-77364361D01*
X168757922Y-77272922D01*
X168849361Y-77152342D01*
X168904877Y-77011564D01*
X168915500Y-76923102D01*
X168915500Y-75979440D01*
X175755551Y-75979440D01*
X175755551Y-76152662D01*
X175763128Y-76200500D01*
X175782648Y-76323751D01*
X175792301Y-76353458D01*
X175836178Y-76488496D01*
X175890788Y-76595674D01*
X175914822Y-76642844D01*
X175978876Y-76731006D01*
X176016637Y-76782979D01*
X176139123Y-76905465D01*
X176163398Y-76923102D01*
X176275195Y-77004328D01*
X176279263Y-77007283D01*
X176433606Y-77085924D01*
X176598350Y-77139453D01*
X176769440Y-77166551D01*
X176769444Y-77166551D01*
X176942658Y-77166551D01*
X176942662Y-77166551D01*
X177113752Y-77139453D01*
X177278496Y-77085924D01*
X177432839Y-77007283D01*
X177572979Y-76905465D01*
X177695465Y-76782979D01*
X177797283Y-76642839D01*
X177875924Y-76488496D01*
X177929453Y-76323752D01*
X177956551Y-76152662D01*
X177956551Y-75979440D01*
X188455551Y-75979440D01*
X188455551Y-76152662D01*
X188463128Y-76200500D01*
X188482648Y-76323751D01*
X188492301Y-76353458D01*
X188536178Y-76488496D01*
X188590788Y-76595674D01*
X188614822Y-76642844D01*
X188678876Y-76731006D01*
X188716637Y-76782979D01*
X188839123Y-76905465D01*
X188863398Y-76923102D01*
X188975195Y-77004328D01*
X188979263Y-77007283D01*
X189133606Y-77085924D01*
X189298350Y-77139453D01*
X189469440Y-77166551D01*
X189469444Y-77166551D01*
X189642658Y-77166551D01*
X189642662Y-77166551D01*
X189813752Y-77139453D01*
X189978496Y-77085924D01*
X190132839Y-77007283D01*
X190272979Y-76905465D01*
X190395465Y-76782979D01*
X190497283Y-76642839D01*
X190538652Y-76561648D01*
X191735551Y-76561648D01*
X191735551Y-76830453D01*
X191770632Y-77096926D01*
X191770634Y-77096939D01*
X191779978Y-77131811D01*
X191836863Y-77344110D01*
X191840205Y-77356580D01*
X191870824Y-77430500D01*
X191935771Y-77587297D01*
X191943069Y-77604914D01*
X192077465Y-77837694D01*
X192127151Y-77902446D01*
X192241095Y-78050941D01*
X192431161Y-78241007D01*
X192644410Y-78404638D01*
X192877192Y-78539035D01*
X193125525Y-78641898D01*
X193385160Y-78711467D01*
X193651654Y-78746551D01*
X193920448Y-78746551D01*
X194186942Y-78711467D01*
X194446577Y-78641898D01*
X194694910Y-78539035D01*
X194927692Y-78404638D01*
X195140941Y-78241007D01*
X195331007Y-78050941D01*
X195494638Y-77837692D01*
X195629035Y-77604910D01*
X195731898Y-77356577D01*
X195801467Y-77096942D01*
X195836551Y-76830448D01*
X195836551Y-76561654D01*
X195801467Y-76295160D01*
X195731898Y-76035525D01*
X195629035Y-75787192D01*
X195494638Y-75554410D01*
X195331007Y-75341161D01*
X195140941Y-75151095D01*
X195030761Y-75066551D01*
X194927694Y-74987465D01*
X194694914Y-74853069D01*
X194694912Y-74853068D01*
X194694910Y-74853067D01*
X194549443Y-74792812D01*
X194446580Y-74750205D01*
X194446578Y-74750204D01*
X194446577Y-74750204D01*
X194251227Y-74697860D01*
X194186939Y-74680634D01*
X194186926Y-74680632D01*
X193920453Y-74645551D01*
X193920448Y-74645551D01*
X193651654Y-74645551D01*
X193651648Y-74645551D01*
X193385175Y-74680632D01*
X193385162Y-74680634D01*
X193125521Y-74750205D01*
X192877187Y-74853069D01*
X192644407Y-74987465D01*
X192431159Y-75151096D01*
X192241096Y-75341159D01*
X192077465Y-75554407D01*
X191943069Y-75787187D01*
X191840205Y-76035521D01*
X191770634Y-76295162D01*
X191770632Y-76295175D01*
X191735551Y-76561648D01*
X190538652Y-76561648D01*
X190575924Y-76488496D01*
X190629453Y-76323752D01*
X190656551Y-76152662D01*
X190656551Y-75979440D01*
X190629453Y-75808350D01*
X190575924Y-75643606D01*
X190497283Y-75489263D01*
X190454957Y-75431007D01*
X190395467Y-75349126D01*
X190395465Y-75349123D01*
X190272979Y-75226637D01*
X190192534Y-75168190D01*
X190132844Y-75124822D01*
X190132841Y-75124820D01*
X190132839Y-75124819D01*
X189978496Y-75046178D01*
X189930872Y-75030704D01*
X189813751Y-74992648D01*
X189716137Y-74977188D01*
X189642662Y-74965551D01*
X189469440Y-74965551D01*
X189403088Y-74976060D01*
X189298350Y-74992648D01*
X189153755Y-75039631D01*
X189133606Y-75046178D01*
X189133600Y-75046180D01*
X189133600Y-75046181D01*
X188979257Y-75124822D01*
X188839126Y-75226634D01*
X188716634Y-75349126D01*
X188614822Y-75489257D01*
X188536181Y-75643600D01*
X188536176Y-75643612D01*
X188482648Y-75808350D01*
X188464279Y-75924333D01*
X188455551Y-75979440D01*
X177956551Y-75979440D01*
X177929453Y-75808350D01*
X177875924Y-75643606D01*
X177797283Y-75489263D01*
X177754957Y-75431007D01*
X177695467Y-75349126D01*
X177695465Y-75349123D01*
X177572979Y-75226637D01*
X177492534Y-75168190D01*
X177432844Y-75124822D01*
X177432841Y-75124820D01*
X177432839Y-75124819D01*
X177278496Y-75046178D01*
X177230872Y-75030704D01*
X177113751Y-74992648D01*
X177016137Y-74977188D01*
X176942662Y-74965551D01*
X176769440Y-74965551D01*
X176703088Y-74976060D01*
X176598350Y-74992648D01*
X176453755Y-75039631D01*
X176433606Y-75046178D01*
X176433600Y-75046180D01*
X176433600Y-75046181D01*
X176279257Y-75124822D01*
X176139126Y-75226634D01*
X176016634Y-75349126D01*
X175914822Y-75489257D01*
X175836181Y-75643600D01*
X175836176Y-75643612D01*
X175782648Y-75808350D01*
X175764279Y-75924333D01*
X175755551Y-75979440D01*
X168915500Y-75979440D01*
X168915500Y-75636898D01*
X168904877Y-75548436D01*
X168849361Y-75407658D01*
X168757922Y-75287078D01*
X168757920Y-75287076D01*
X168710982Y-75251482D01*
X168637342Y-75195639D01*
X168637341Y-75195638D01*
X168496563Y-75140122D01*
X168408105Y-75129500D01*
X168408102Y-75129500D01*
X166871898Y-75129500D01*
X166871894Y-75129500D01*
X166783436Y-75140122D01*
X166642658Y-75195638D01*
X166642658Y-75195639D01*
X166522079Y-75287076D01*
X166522076Y-75287079D01*
X166430639Y-75407658D01*
X166430638Y-75407658D01*
X166375122Y-75548436D01*
X166364500Y-75636894D01*
X145686993Y-75636894D01*
X145693661Y-75603376D01*
X145693661Y-75603374D01*
X145700500Y-75568994D01*
X145700500Y-75431006D01*
X145673580Y-75295674D01*
X145673579Y-75295670D01*
X145620775Y-75168189D01*
X145552862Y-75066551D01*
X145544116Y-75053461D01*
X145544114Y-75053458D01*
X145446542Y-74955886D01*
X145446538Y-74955883D01*
X145331815Y-74879227D01*
X145331809Y-74879224D01*
X145204329Y-74826420D01*
X145204325Y-74826419D01*
X145068993Y-74799500D01*
X144931007Y-74799500D01*
X144795674Y-74826419D01*
X144795670Y-74826420D01*
X144668190Y-74879224D01*
X144668184Y-74879227D01*
X144553461Y-74955883D01*
X144553454Y-74955889D01*
X144455889Y-75053454D01*
X144455883Y-75053461D01*
X144379227Y-75168184D01*
X144379224Y-75168190D01*
X144326420Y-75295670D01*
X144326419Y-75295674D01*
X144299500Y-75431006D01*
X121540000Y-75431006D01*
X121540000Y-73439440D01*
X173215551Y-73439440D01*
X173215551Y-73612662D01*
X173223928Y-73665551D01*
X173242648Y-73783751D01*
X173255055Y-73821934D01*
X173296178Y-73948496D01*
X173339867Y-74034240D01*
X173374822Y-74102844D01*
X173446977Y-74202156D01*
X173476637Y-74242979D01*
X173599123Y-74365465D01*
X173739263Y-74467283D01*
X173893606Y-74545924D01*
X174058350Y-74599453D01*
X174229440Y-74626551D01*
X174229444Y-74626551D01*
X174402658Y-74626551D01*
X174402662Y-74626551D01*
X174573752Y-74599453D01*
X174738496Y-74545924D01*
X174892839Y-74467283D01*
X175032979Y-74365465D01*
X175101387Y-74297057D01*
X179615551Y-74297057D01*
X179615551Y-74435044D01*
X179642470Y-74570376D01*
X179642471Y-74570380D01*
X179695275Y-74697860D01*
X179695278Y-74697866D01*
X179771934Y-74812589D01*
X179771937Y-74812593D01*
X179869509Y-74910165D01*
X179869512Y-74910167D01*
X179984235Y-74986823D01*
X179984237Y-74986824D01*
X179984240Y-74986826D01*
X180111723Y-75039631D01*
X180247058Y-75066551D01*
X180385044Y-75066551D01*
X180520379Y-75039631D01*
X180647862Y-74986826D01*
X180762593Y-74910165D01*
X180860165Y-74812593D01*
X180936826Y-74697862D01*
X180989631Y-74570379D01*
X181016551Y-74435044D01*
X181016551Y-74297058D01*
X180989631Y-74161723D01*
X180936826Y-74034240D01*
X180860165Y-73919509D01*
X180762593Y-73821937D01*
X180762589Y-73821934D01*
X180647866Y-73745278D01*
X180647860Y-73745275D01*
X180520380Y-73692471D01*
X180520376Y-73692470D01*
X180385044Y-73665551D01*
X180247058Y-73665551D01*
X180111725Y-73692470D01*
X180111721Y-73692471D01*
X179984241Y-73745275D01*
X179984235Y-73745278D01*
X179869512Y-73821934D01*
X179869505Y-73821940D01*
X179771940Y-73919505D01*
X179771934Y-73919512D01*
X179695278Y-74034235D01*
X179695275Y-74034241D01*
X179642471Y-74161721D01*
X179642470Y-74161725D01*
X179615551Y-74297057D01*
X175101387Y-74297057D01*
X175155465Y-74242979D01*
X175185125Y-74202156D01*
X175185126Y-74202155D01*
X175257277Y-74102847D01*
X175257279Y-74102844D01*
X175257283Y-74102839D01*
X175335924Y-73948496D01*
X175389453Y-73783752D01*
X175416551Y-73612662D01*
X175416551Y-73439440D01*
X175389453Y-73268350D01*
X175335924Y-73103606D01*
X175257283Y-72949263D01*
X175155465Y-72809123D01*
X175032979Y-72686637D01*
X175032975Y-72686634D01*
X174892844Y-72584822D01*
X174892841Y-72584820D01*
X174892839Y-72584819D01*
X174738496Y-72506178D01*
X174690872Y-72490704D01*
X174573751Y-72452648D01*
X174476137Y-72437188D01*
X174402662Y-72425551D01*
X174229440Y-72425551D01*
X174163088Y-72436060D01*
X174058350Y-72452648D01*
X173893612Y-72506176D01*
X173893606Y-72506178D01*
X173893600Y-72506180D01*
X173893600Y-72506181D01*
X173739257Y-72584822D01*
X173599126Y-72686634D01*
X173476634Y-72809126D01*
X173374822Y-72949257D01*
X173296181Y-73103600D01*
X173296176Y-73103612D01*
X173242648Y-73268350D01*
X173224279Y-73384333D01*
X173215551Y-73439440D01*
X121540000Y-73439440D01*
X121540000Y-69531006D01*
X140299500Y-69531006D01*
X140299500Y-69668993D01*
X140326419Y-69804325D01*
X140326420Y-69804329D01*
X140379224Y-69931809D01*
X140379227Y-69931815D01*
X140455883Y-70046538D01*
X140455886Y-70046542D01*
X140553458Y-70144114D01*
X140553461Y-70144116D01*
X140668184Y-70220772D01*
X140668186Y-70220773D01*
X140668189Y-70220775D01*
X140795672Y-70273580D01*
X140931007Y-70300500D01*
X141068993Y-70300500D01*
X141204328Y-70273580D01*
X141331811Y-70220775D01*
X141446542Y-70144114D01*
X141544114Y-70046542D01*
X141620775Y-69931811D01*
X141673580Y-69804328D01*
X141700500Y-69668993D01*
X141700500Y-69531007D01*
X141673580Y-69395672D01*
X141620775Y-69268189D01*
X141544114Y-69153458D01*
X141446542Y-69055886D01*
X141446538Y-69055883D01*
X141331815Y-68979227D01*
X141331809Y-68979224D01*
X141204328Y-68926420D01*
X141204325Y-68926419D01*
X141068993Y-68899500D01*
X140931007Y-68899500D01*
X140795674Y-68926419D01*
X140795670Y-68926420D01*
X140668190Y-68979224D01*
X140668184Y-68979227D01*
X140553461Y-69055883D01*
X140553454Y-69055889D01*
X140455889Y-69153454D01*
X140455883Y-69153461D01*
X140379227Y-69268184D01*
X140379224Y-69268190D01*
X140326420Y-69395670D01*
X140326419Y-69395674D01*
X140299500Y-69531006D01*
X121540000Y-69531006D01*
X121540000Y-68793699D01*
X186335551Y-68793699D01*
X186335551Y-68998403D01*
X186360109Y-69153454D01*
X186367574Y-69200585D01*
X186430829Y-69395263D01*
X186430833Y-69395275D01*
X186523765Y-69577663D01*
X186644079Y-69743263D01*
X186644086Y-69743271D01*
X186788830Y-69888015D01*
X186788838Y-69888022D01*
X186849115Y-69931815D01*
X186954441Y-70008338D01*
X187136832Y-70101271D01*
X187331517Y-70164528D01*
X187533699Y-70196551D01*
X187533704Y-70196551D01*
X187738398Y-70196551D01*
X187738403Y-70196551D01*
X187940585Y-70164528D01*
X188135270Y-70101271D01*
X188317661Y-70008338D01*
X188483270Y-69888017D01*
X188628017Y-69743270D01*
X188748338Y-69577661D01*
X188841271Y-69395270D01*
X188904528Y-69200585D01*
X188936551Y-68998403D01*
X188936551Y-68793699D01*
X188905477Y-68597511D01*
X202785551Y-68597511D01*
X202785551Y-68794590D01*
X202823999Y-68987885D01*
X202824000Y-68987887D01*
X202899418Y-69169963D01*
X202899419Y-69169966D01*
X202965047Y-69268184D01*
X203008912Y-69333833D01*
X203148269Y-69473190D01*
X203257266Y-69546019D01*
X203312135Y-69582682D01*
X203312136Y-69582682D01*
X203312137Y-69582683D01*
X203494216Y-69658102D01*
X203687510Y-69696551D01*
X203687511Y-69696551D01*
X203884591Y-69696551D01*
X203884592Y-69696551D01*
X204077886Y-69658102D01*
X204259965Y-69582683D01*
X204423833Y-69473190D01*
X204563190Y-69333833D01*
X204672683Y-69169965D01*
X204748102Y-68987886D01*
X204786551Y-68794592D01*
X204786551Y-68597510D01*
X204748102Y-68404216D01*
X204672683Y-68222137D01*
X204563190Y-68058269D01*
X204423833Y-67918912D01*
X204354865Y-67872829D01*
X204259966Y-67809419D01*
X204259963Y-67809418D01*
X204077887Y-67734000D01*
X204077885Y-67733999D01*
X203923040Y-67703198D01*
X203884592Y-67695551D01*
X203687510Y-67695551D01*
X203655440Y-67701929D01*
X203494216Y-67733999D01*
X203494214Y-67734000D01*
X203312138Y-67809418D01*
X203312135Y-67809419D01*
X203148270Y-67918911D01*
X203148265Y-67918915D01*
X203008915Y-68058265D01*
X203008911Y-68058270D01*
X202899419Y-68222135D01*
X202899418Y-68222138D01*
X202824000Y-68404214D01*
X202823999Y-68404216D01*
X202785551Y-68597511D01*
X188905477Y-68597511D01*
X188904528Y-68591517D01*
X188841271Y-68396832D01*
X188748338Y-68214441D01*
X188703051Y-68152108D01*
X188628022Y-68048838D01*
X188628015Y-68048830D01*
X188483271Y-67904086D01*
X188483263Y-67904079D01*
X188317663Y-67783765D01*
X188135275Y-67690833D01*
X188135271Y-67690831D01*
X188135270Y-67690831D01*
X187940585Y-67627574D01*
X187738403Y-67595551D01*
X187533699Y-67595551D01*
X187365214Y-67622236D01*
X187331516Y-67627574D01*
X187136838Y-67690829D01*
X187136826Y-67690833D01*
X186954438Y-67783765D01*
X186788838Y-67904079D01*
X186788830Y-67904086D01*
X186644086Y-68048830D01*
X186644079Y-68048838D01*
X186523765Y-68214438D01*
X186430833Y-68396826D01*
X186430829Y-68396838D01*
X186367574Y-68591516D01*
X186364093Y-68613497D01*
X186335551Y-68793699D01*
X121540000Y-68793699D01*
X121540000Y-67317057D01*
X182865551Y-67317057D01*
X182865551Y-67455044D01*
X182892470Y-67590376D01*
X182892471Y-67590380D01*
X182945275Y-67717860D01*
X182945278Y-67717866D01*
X183021934Y-67832589D01*
X183021937Y-67832593D01*
X183119509Y-67930165D01*
X183119512Y-67930167D01*
X183234235Y-68006823D01*
X183234237Y-68006824D01*
X183234240Y-68006826D01*
X183361723Y-68059631D01*
X183497058Y-68086551D01*
X183635044Y-68086551D01*
X183770379Y-68059631D01*
X183897862Y-68006826D01*
X184012593Y-67930165D01*
X184110165Y-67832593D01*
X184186826Y-67717862D01*
X184239631Y-67590379D01*
X184266551Y-67455044D01*
X184266551Y-67317058D01*
X184239631Y-67181723D01*
X184186826Y-67054240D01*
X184110165Y-66939509D01*
X184012593Y-66841937D01*
X184012589Y-66841934D01*
X183897866Y-66765278D01*
X183897860Y-66765275D01*
X183770380Y-66712471D01*
X183770376Y-66712470D01*
X183635044Y-66685551D01*
X183497058Y-66685551D01*
X183361725Y-66712470D01*
X183361721Y-66712471D01*
X183234241Y-66765275D01*
X183234235Y-66765278D01*
X183119512Y-66841934D01*
X183119505Y-66841940D01*
X183021940Y-66939505D01*
X183021934Y-66939512D01*
X182945278Y-67054235D01*
X182945275Y-67054241D01*
X182892471Y-67181721D01*
X182892470Y-67181725D01*
X182865551Y-67317057D01*
X121540000Y-67317057D01*
X121540000Y-66189000D01*
X121559962Y-66114500D01*
X121614500Y-66059962D01*
X121689000Y-66040000D01*
X134375127Y-66040000D01*
X134391804Y-66040935D01*
G37*
G04 #@! TD.AperFunction*
M02*
