G04 #@! TF.GenerationSoftware,KiCad,Pcbnew,9.0.1*
G04 #@! TF.CreationDate,2025-10-31T13:55:31-04:00*
G04 #@! TF.ProjectId,GHOUL_V1.0,47484f55-4c5f-4563-912e-302e6b696361,rev?*
G04 #@! TF.SameCoordinates,Original*
G04 #@! TF.FileFunction,Soldermask,Bot*
G04 #@! TF.FilePolarity,Negative*
%FSLAX46Y46*%
G04 Gerber Fmt 4.6, Leading zero omitted, Abs format (unit mm)*
G04 Created by KiCad (PCBNEW 9.0.1) date 2025-10-31 13:55:31*
%MOMM*%
%LPD*%
G01*
G04 APERTURE LIST*
G04 Aperture macros list*
%AMRoundRect*
0 Rectangle with rounded corners*
0 $1 Rounding radius*
0 $2 $3 $4 $5 $6 $7 $8 $9 X,Y pos of 4 corners*
0 Add a 4 corners polygon primitive as box body*
4,1,4,$2,$3,$4,$5,$6,$7,$8,$9,$2,$3,0*
0 Add four circle primitives for the rounded corners*
1,1,$1+$1,$2,$3*
1,1,$1+$1,$4,$5*
1,1,$1+$1,$6,$7*
1,1,$1+$1,$8,$9*
0 Add four rect primitives between the rounded corners*
20,1,$1+$1,$2,$3,$4,$5,0*
20,1,$1+$1,$4,$5,$6,$7,0*
20,1,$1+$1,$6,$7,$8,$9,0*
20,1,$1+$1,$8,$9,$2,$3,0*%
G04 Aperture macros list end*
%ADD10C,7.500000*%
%ADD11RoundRect,0.250000X0.750000X-0.600000X0.750000X0.600000X-0.750000X0.600000X-0.750000X-0.600000X0*%
%ADD12O,2.000000X1.700000*%
%ADD13RoundRect,0.250000X-0.750000X0.600000X-0.750000X-0.600000X0.750000X-0.600000X0.750000X0.600000X0*%
%ADD14RoundRect,0.250000X-0.725000X0.600000X-0.725000X-0.600000X0.725000X-0.600000X0.725000X0.600000X0*%
%ADD15O,1.950000X1.700000*%
%ADD16C,2.000000*%
%ADD17C,1.524000*%
%ADD18C,1.400000*%
%ADD19R,3.500000X3.500000*%
%ADD20C,3.500000*%
%ADD21R,1.600000X1.600000*%
%ADD22C,1.600000*%
%ADD23R,1.300000X1.300000*%
%ADD24C,1.300000*%
G04 APERTURE END LIST*
D10*
X184046051Y-61116051D03*
X126896051Y-61116051D03*
X126896051Y-139856051D03*
X184046051Y-139856051D03*
D11*
X204700000Y-106650000D03*
D12*
X204700000Y-104150000D03*
D13*
X205100000Y-117550000D03*
D12*
X205100000Y-120050000D03*
D14*
X167640000Y-76280000D03*
D15*
X167640000Y-78780000D03*
X167640000Y-81280000D03*
D16*
X187636051Y-68896051D03*
D13*
X193826051Y-90756051D03*
D12*
X193826051Y-93256051D03*
D17*
X170726051Y-116091051D03*
X170726051Y-118631051D03*
X170726051Y-121171051D03*
X170726051Y-123711051D03*
X170726051Y-113551051D03*
X170726051Y-126251051D03*
X168186051Y-126251051D03*
X165646051Y-126251051D03*
X163106051Y-126251051D03*
X160566051Y-126251051D03*
X158026051Y-126251051D03*
X155486051Y-126251051D03*
X152946051Y-126251051D03*
X150406051Y-126251051D03*
X147866051Y-126251051D03*
X145326051Y-126251051D03*
X142786051Y-126251051D03*
X168186051Y-113551051D03*
X165646051Y-113551051D03*
X163106051Y-113551051D03*
X158026051Y-113551051D03*
X160566051Y-113551051D03*
X155486051Y-113551051D03*
X152946051Y-113551051D03*
X150406051Y-113551051D03*
X147866051Y-113551051D03*
X145326051Y-113551051D03*
X142786051Y-113551051D03*
D18*
X203786051Y-79696051D03*
X203786051Y-68696051D03*
D19*
X193786051Y-71696051D03*
D20*
X193786051Y-76696051D03*
D21*
X189556051Y-73526051D03*
D22*
X189556051Y-76066051D03*
X189556051Y-78606051D03*
X189556051Y-81146051D03*
X189556051Y-83686051D03*
X189556051Y-86226051D03*
X189556051Y-88766051D03*
X189556051Y-91306051D03*
X189556051Y-93846051D03*
X189556051Y-96386051D03*
X189556051Y-98926051D03*
X189556051Y-101466051D03*
X189556051Y-104006051D03*
X189556051Y-106546051D03*
X189556051Y-109086051D03*
X189556051Y-111626051D03*
X189556051Y-114166051D03*
X189556051Y-116706051D03*
X189556051Y-119246051D03*
X189556051Y-121786051D03*
X189556051Y-124326051D03*
X189556051Y-126866051D03*
X189556051Y-129406051D03*
X189556051Y-131946051D03*
X174316051Y-131946051D03*
X174316051Y-129406051D03*
X174316051Y-126866051D03*
X174316051Y-124326051D03*
X174316051Y-121786051D03*
X174316051Y-119246051D03*
X174316051Y-116706051D03*
X174316051Y-114166051D03*
X174316051Y-111626051D03*
X174316051Y-109086051D03*
X174316051Y-106546051D03*
X174316051Y-104006051D03*
X174316051Y-101466051D03*
X174316051Y-98926051D03*
X174316051Y-96386051D03*
X174316051Y-93846051D03*
X174316051Y-91306051D03*
X174316051Y-88766051D03*
X174316051Y-86226051D03*
X174316051Y-83686051D03*
X174316051Y-81146051D03*
X174316051Y-78606051D03*
X174316051Y-76066051D03*
X174316051Y-73526051D03*
X176856051Y-76066051D03*
X187016051Y-119246051D03*
X184476051Y-119246051D03*
X181936051Y-119246051D03*
X179396051Y-119246051D03*
X176856051Y-119246051D03*
D21*
X186505251Y-79825251D03*
D22*
X186505251Y-82365251D03*
X186505251Y-84905251D03*
X186505251Y-87445251D03*
X186505251Y-89985251D03*
D23*
X176754451Y-86496051D03*
D24*
X178754451Y-86496051D03*
X180754451Y-86496051D03*
X180754451Y-88496051D03*
X178754451Y-88496051D03*
X176754451Y-88496051D03*
D14*
X169500000Y-90266051D03*
D15*
X169500000Y-92766051D03*
X169500000Y-95266051D03*
M02*
