%TF.GenerationSoftware,KiCad,Pcbnew,7.0.5-0*%
%TF.CreationDate,2024-02-02T21:32:53-05:00*%
%TF.ProjectId,Cutdown_Test,43757464-6f77-46e5-9f54-6573742e6b69,rev?*%
%TF.SameCoordinates,Original*%
%TF.FileFunction,Soldermask,Top*%
%TF.FilePolarity,Negative*%
%FSLAX46Y46*%
G04 Gerber Fmt 4.6, Leading zero omitted, Abs format (unit mm)*
G04 Created by KiCad (PCBNEW 7.0.5-0) date 2024-02-02 21:32:53*
%MOMM*%
%LPD*%
G01*
G04 APERTURE LIST*
G04 Aperture macros list*
%AMRoundRect*
0 Rectangle with rounded corners*
0 $1 Rounding radius*
0 $2 $3 $4 $5 $6 $7 $8 $9 X,Y pos of 4 corners*
0 Add a 4 corners polygon primitive as box body*
4,1,4,$2,$3,$4,$5,$6,$7,$8,$9,$2,$3,0*
0 Add four circle primitives for the rounded corners*
1,1,$1+$1,$2,$3*
1,1,$1+$1,$4,$5*
1,1,$1+$1,$6,$7*
1,1,$1+$1,$8,$9*
0 Add four rect primitives between the rounded corners*
20,1,$1+$1,$2,$3,$4,$5,0*
20,1,$1+$1,$4,$5,$6,$7,0*
20,1,$1+$1,$6,$7,$8,$9,0*
20,1,$1+$1,$8,$9,$2,$3,0*%
%AMFreePoly0*
4,1,6,1.000000,0.000000,0.500000,-0.750000,-0.500000,-0.750000,-0.500000,0.750000,0.500000,0.750000,1.000000,0.000000,1.000000,0.000000,$1*%
%AMFreePoly1*
4,1,6,0.500000,-0.750000,-0.650000,-0.750000,-0.150000,0.000000,-0.650000,0.750000,0.500000,0.750000,0.500000,-0.750000,0.500000,-0.750000,$1*%
G04 Aperture macros list end*
%ADD10RoundRect,0.237500X-0.237500X0.300000X-0.237500X-0.300000X0.237500X-0.300000X0.237500X0.300000X0*%
%ADD11RoundRect,0.237500X-0.250000X-0.237500X0.250000X-0.237500X0.250000X0.237500X-0.250000X0.237500X0*%
%ADD12C,2.200000*%
%ADD13C,2.000000*%
%ADD14RoundRect,0.237500X0.237500X-0.300000X0.237500X0.300000X-0.237500X0.300000X-0.237500X-0.300000X0*%
%ADD15R,0.699999X0.230000*%
%ADD16R,0.230000X0.699999*%
%ADD17C,0.900000*%
%ADD18R,2.650000X3.650001*%
%ADD19RoundRect,0.250000X0.362500X1.425000X-0.362500X1.425000X-0.362500X-1.425000X0.362500X-1.425000X0*%
%ADD20RoundRect,0.250000X0.475000X-0.337500X0.475000X0.337500X-0.475000X0.337500X-0.475000X-0.337500X0*%
%ADD21RoundRect,0.250000X0.337500X0.475000X-0.337500X0.475000X-0.337500X-0.475000X0.337500X-0.475000X0*%
%ADD22R,1.700000X1.700000*%
%ADD23O,1.700000X1.700000*%
%ADD24RoundRect,0.237500X-0.237500X0.250000X-0.237500X-0.250000X0.237500X-0.250000X0.237500X0.250000X0*%
%ADD25RoundRect,0.237500X-0.300000X-0.237500X0.300000X-0.237500X0.300000X0.237500X-0.300000X0.237500X0*%
%ADD26C,0.889000*%
%ADD27R,1.397000X1.193800*%
%ADD28FreePoly0,90.000000*%
%ADD29FreePoly1,90.000000*%
%ADD30FreePoly0,0.000000*%
%ADD31FreePoly1,0.000000*%
%ADD32R,3.100000X5.000000*%
G04 APERTURE END LIST*
D10*
%TO.C,C1*%
X139100000Y-112737500D03*
X139100000Y-114462500D03*
%TD*%
D11*
%TO.C,R3*%
X140687500Y-112100000D03*
X142512500Y-112100000D03*
%TD*%
D12*
%TO.C,H1*%
X126300000Y-89700000D03*
%TD*%
D13*
%TO.C,TP8*%
X147500000Y-113800000D03*
%TD*%
D12*
%TO.C,H4*%
X148200000Y-118200000D03*
%TD*%
D14*
%TO.C,C4*%
X132900000Y-103862500D03*
X132900000Y-102137500D03*
%TD*%
D15*
%TO.C,U1*%
X133700002Y-106100001D03*
X133700002Y-106600000D03*
X133700002Y-107099999D03*
X133700002Y-107600000D03*
X133700002Y-108100000D03*
X133700002Y-108600001D03*
X133700002Y-109100000D03*
X133700002Y-109599999D03*
D16*
X134500000Y-110400000D03*
X134999999Y-110400000D03*
X135500000Y-110400000D03*
X136000000Y-110400000D03*
X136500001Y-110400000D03*
X137000000Y-110400000D03*
D15*
X137799998Y-109599999D03*
X137799998Y-109100000D03*
X137799998Y-108600001D03*
X137799998Y-108100000D03*
X137799998Y-107600000D03*
X137799998Y-107099999D03*
X137799998Y-106600000D03*
X137799998Y-106100001D03*
D16*
X137000000Y-105300000D03*
X136500001Y-105300000D03*
X136000000Y-105300000D03*
X135500000Y-105300000D03*
X134999999Y-105300000D03*
X134500000Y-105300000D03*
D17*
X135050000Y-106650000D03*
X135050000Y-107850000D03*
X135050000Y-109050000D03*
D18*
X135750000Y-107850000D03*
D17*
X136450000Y-106650000D03*
X136450000Y-107850000D03*
X136450000Y-109050000D03*
%TD*%
D19*
%TO.C,R2*%
X145662500Y-106700000D03*
X139737500Y-106700000D03*
%TD*%
D20*
%TO.C,C8*%
X129300000Y-103637500D03*
X129300000Y-101562500D03*
%TD*%
D21*
%TO.C,C6*%
X131337500Y-106700000D03*
X129262500Y-106700000D03*
%TD*%
D22*
%TO.C,J2*%
X128500000Y-109900000D03*
D23*
X125960000Y-109900000D03*
%TD*%
D14*
%TO.C,C3*%
X138600000Y-103862500D03*
X138600000Y-102137500D03*
%TD*%
D13*
%TO.C,TP6*%
X128800000Y-113500000D03*
%TD*%
D14*
%TO.C,C7*%
X137500000Y-114462500D03*
X137500000Y-112737500D03*
%TD*%
D24*
%TO.C,R5*%
X132700000Y-111887500D03*
X132700000Y-113712500D03*
%TD*%
D14*
%TO.C,C5*%
X131200000Y-103362500D03*
X131200000Y-101637500D03*
%TD*%
D24*
%TO.C,R1*%
X131100000Y-112687500D03*
X131100000Y-114512500D03*
%TD*%
D12*
%TO.C,H3*%
X126300000Y-118200000D03*
%TD*%
D25*
%TO.C,C2*%
X140275000Y-103900000D03*
X142000000Y-103900000D03*
%TD*%
D12*
%TO.C,H2*%
X148200000Y-89700000D03*
%TD*%
D24*
%TO.C,R6*%
X134300000Y-112687500D03*
X134300000Y-114512500D03*
%TD*%
D26*
%TO.C,SW1*%
X146498100Y-103299998D03*
X146498100Y-96500002D03*
D27*
X148698101Y-102440000D03*
X144298102Y-99900000D03*
X148698101Y-97360000D03*
%TD*%
D28*
%TO.C,JP1*%
X145600000Y-111125000D03*
D29*
X145600000Y-109675000D03*
%TD*%
D13*
%TO.C,TP5*%
X148600000Y-110500000D03*
%TD*%
D30*
%TO.C,JP2*%
X141875000Y-110000000D03*
D31*
X143325000Y-110000000D03*
%TD*%
D22*
%TO.C,J1*%
X126400000Y-104775000D03*
D23*
X126400000Y-102235000D03*
%TD*%
D13*
%TO.C,TP2*%
X126300000Y-97000000D03*
%TD*%
%TO.C,TP3*%
X145000000Y-93300000D03*
%TD*%
%TO.C,TP1*%
X125400000Y-113500000D03*
%TD*%
D32*
%TO.C,L1*%
X141300000Y-94100000D03*
X130200000Y-94100000D03*
%TD*%
D24*
%TO.C,R4*%
X135900000Y-112687500D03*
X135900000Y-114512500D03*
%TD*%
M02*
