%TF.GenerationSoftware,KiCad,Pcbnew,7.0.5-0*%
%TF.CreationDate,2024-02-02T21:32:53-05:00*%
%TF.ProjectId,Cutdown_Test,43757464-6f77-46e5-9f54-6573742e6b69,rev?*%
%TF.SameCoordinates,Original*%
%TF.FileFunction,Copper,L4,Bot*%
%TF.FilePolarity,Positive*%
%FSLAX46Y46*%
G04 Gerber Fmt 4.6, Leading zero omitted, Abs format (unit mm)*
G04 Created by KiCad (PCBNEW 7.0.5-0) date 2024-02-02 21:32:53*
%MOMM*%
%LPD*%
G01*
G04 APERTURE LIST*
%TA.AperFunction,ComponentPad*%
%ADD10C,2.000000*%
%TD*%
%TA.AperFunction,ComponentPad*%
%ADD11C,0.900000*%
%TD*%
%TA.AperFunction,ComponentPad*%
%ADD12R,1.700000X1.700000*%
%TD*%
%TA.AperFunction,ComponentPad*%
%ADD13O,1.700000X1.700000*%
%TD*%
%TA.AperFunction,ViaPad*%
%ADD14C,1.000000*%
%TD*%
%TA.AperFunction,ViaPad*%
%ADD15C,0.800000*%
%TD*%
%TA.AperFunction,Conductor*%
%ADD16C,0.250000*%
%TD*%
%TA.AperFunction,Conductor*%
%ADD17C,0.200000*%
%TD*%
G04 APERTURE END LIST*
D10*
%TO.P,TP8,1,1*%
%TO.N,Net-(U1-VC)*%
X147500000Y-113800000D03*
%TD*%
D11*
%TO.P,U1,29,PGND*%
%TO.N,GND*%
X135050000Y-106650000D03*
X135050000Y-107850000D03*
X135050000Y-109050000D03*
X136450000Y-106650000D03*
X136450000Y-107850000D03*
X136450000Y-109050000D03*
%TD*%
D12*
%TO.P,J2,1,Pin_1*%
%TO.N,+BATT*%
X128500000Y-109900000D03*
D13*
%TO.P,J2,2,Pin_2*%
%TO.N,GND*%
X125960000Y-109900000D03*
%TD*%
D10*
%TO.P,TP6,1,1*%
%TO.N,Net-(U1-FB)*%
X128800000Y-113500000D03*
%TD*%
%TO.P,TP5,1,1*%
%TO.N,+3V3*%
X148600000Y-110500000D03*
%TD*%
D12*
%TO.P,J1,1,Pin_1*%
%TO.N,/POWR_OUT*%
X126400000Y-104775000D03*
D13*
%TO.P,J1,2,Pin_2*%
%TO.N,GND*%
X126400000Y-102235000D03*
%TD*%
D10*
%TO.P,TP2,1,1*%
%TO.N,GND*%
X126300000Y-97000000D03*
%TD*%
%TO.P,TP3,1,1*%
%TO.N,/EN*%
X145000000Y-93300000D03*
%TD*%
%TO.P,TP1,1,1*%
%TO.N,Net-(U1-PGOOD)*%
X125400000Y-113500000D03*
%TD*%
D14*
%TO.N,GND*%
X127800000Y-107200000D03*
D15*
X143600000Y-112000000D03*
X140400000Y-114500000D03*
X132700000Y-114900000D03*
X148600000Y-101000000D03*
X136000000Y-111500000D03*
%TO.N,Net-(U1-ISN)*%
X131400000Y-109800000D03*
X139400000Y-110600000D03*
X141100000Y-106500000D03*
%TO.N,+BATT*%
X147100000Y-105300000D03*
X149900000Y-108000000D03*
X148500000Y-105300000D03*
X147100000Y-108000000D03*
X148500000Y-108000000D03*
X148500000Y-106650000D03*
X149900000Y-106650000D03*
X149900000Y-105300000D03*
X147100000Y-106650000D03*
%TO.N,Net-(U1-VC)*%
X141600000Y-113300000D03*
%TO.N,/EN*%
X142800000Y-100700000D03*
X139900000Y-109600000D03*
%TO.N,/POWR_OUT*%
X133400000Y-110700000D03*
X126400000Y-107500000D03*
%TD*%
D16*
%TO.N,Net-(U1-ISN)*%
X141100000Y-106500000D02*
X139000000Y-108600000D01*
X131500000Y-109900000D02*
X136700000Y-109900000D01*
X139300000Y-110700000D02*
X139400000Y-110600000D01*
X139000000Y-108600000D02*
X139000000Y-110200000D01*
X131400000Y-109800000D02*
X131500000Y-109900000D01*
X136700000Y-109900000D02*
X137500000Y-110700000D01*
X137500000Y-110700000D02*
X139300000Y-110700000D01*
X139000000Y-110200000D02*
X139400000Y-110600000D01*
D17*
%TO.N,Net-(U1-VC)*%
X141800000Y-113100000D02*
X146800000Y-113100000D01*
X141600000Y-113300000D02*
X141800000Y-113100000D01*
X146800000Y-113100000D02*
X147500000Y-113800000D01*
D16*
%TO.N,/EN*%
X140100000Y-109600000D02*
X142800000Y-106900000D01*
X142800000Y-106900000D02*
X142800000Y-100700000D01*
X139900000Y-109600000D02*
X140100000Y-109600000D01*
%TO.N,/POWR_OUT*%
X133400000Y-110700000D02*
X131100000Y-110700000D01*
X130200000Y-109100000D02*
X129400000Y-108300000D01*
X131100000Y-110700000D02*
X130200000Y-109800000D01*
X130200000Y-109800000D02*
X130200000Y-109100000D01*
X127200000Y-108300000D02*
X126400000Y-107500000D01*
X129400000Y-108300000D02*
X127200000Y-108300000D01*
%TD*%
%TA.AperFunction,Conductor*%
%TO.N,GND*%
G36*
X132786926Y-114513034D02*
G01*
X132818193Y-114521412D01*
X132859544Y-114538539D01*
X132884124Y-114548721D01*
X132912154Y-114564904D01*
X132940856Y-114586928D01*
X132968762Y-114608341D01*
X132991650Y-114631228D01*
X133032235Y-114684119D01*
X133035094Y-114687844D01*
X133051277Y-114715874D01*
X133073186Y-114768765D01*
X133078586Y-114781802D01*
X133086963Y-114813068D01*
X133096277Y-114883813D01*
X133096277Y-114916185D01*
X133086963Y-114986930D01*
X133078585Y-115018196D01*
X133051278Y-115084122D01*
X133035093Y-115112156D01*
X132991656Y-115168765D01*
X132968768Y-115191653D01*
X132944560Y-115210228D01*
X132934747Y-115217759D01*
X132926837Y-115224491D01*
X132904827Y-115245227D01*
X132858824Y-115309424D01*
X132829799Y-115372978D01*
X132817588Y-115404727D01*
X132816220Y-115404200D01*
X132786802Y-115456780D01*
X132765069Y-115468356D01*
X132795040Y-115488567D01*
X132822295Y-115550032D01*
X132823261Y-115556754D01*
X132828354Y-115581372D01*
X132828354Y-115581373D01*
X132871363Y-115662083D01*
X132871365Y-115662086D01*
X132917124Y-115714895D01*
X132934706Y-115732839D01*
X132934710Y-115732843D01*
X132934711Y-115732844D01*
X132934713Y-115732845D01*
X132935203Y-115733119D01*
X133014527Y-115777490D01*
X133081566Y-115797175D01*
X133139464Y-115805500D01*
X133139468Y-115805500D01*
X150575500Y-115805500D01*
X150642539Y-115825185D01*
X150688294Y-115877989D01*
X150699500Y-115929500D01*
X150699500Y-118198139D01*
X150699387Y-118201884D01*
X150681503Y-118497535D01*
X150680599Y-118504974D01*
X150627544Y-118794483D01*
X150625751Y-118801759D01*
X150538191Y-119082753D01*
X150535533Y-119089760D01*
X150414741Y-119358147D01*
X150411258Y-119364782D01*
X150258991Y-119616666D01*
X150254733Y-119622834D01*
X150073215Y-119854524D01*
X150068246Y-119860133D01*
X149860133Y-120068246D01*
X149854524Y-120073215D01*
X149622834Y-120254733D01*
X149616666Y-120258991D01*
X149364782Y-120411258D01*
X149358147Y-120414741D01*
X149089760Y-120535533D01*
X149082760Y-120538188D01*
X148958629Y-120576868D01*
X148801759Y-120625751D01*
X148794483Y-120627544D01*
X148504974Y-120680599D01*
X148497535Y-120681503D01*
X148201885Y-120699387D01*
X148198140Y-120699500D01*
X126301860Y-120699500D01*
X126298115Y-120699387D01*
X126002464Y-120681503D01*
X125995025Y-120680599D01*
X125705516Y-120627544D01*
X125698240Y-120625751D01*
X125619666Y-120601266D01*
X125417234Y-120538186D01*
X125410245Y-120535535D01*
X125141849Y-120414739D01*
X125135217Y-120411258D01*
X124883333Y-120258991D01*
X124877165Y-120254733D01*
X124645475Y-120073215D01*
X124639874Y-120068253D01*
X124431745Y-119860124D01*
X124426784Y-119854524D01*
X124245266Y-119622834D01*
X124241013Y-119616673D01*
X124161797Y-119485633D01*
X124088741Y-119364782D01*
X124085263Y-119358156D01*
X123964460Y-119089745D01*
X123961816Y-119082775D01*
X123874246Y-118801753D01*
X123872455Y-118794483D01*
X123819400Y-118504974D01*
X123818496Y-118497535D01*
X123800613Y-118201883D01*
X123800556Y-118200001D01*
X124994532Y-118200001D01*
X125014364Y-118426686D01*
X125014366Y-118426697D01*
X125073258Y-118646488D01*
X125073261Y-118646497D01*
X125169431Y-118852732D01*
X125169432Y-118852734D01*
X125299954Y-119039141D01*
X125460858Y-119200045D01*
X125460861Y-119200047D01*
X125647266Y-119330568D01*
X125853504Y-119426739D01*
X126073308Y-119485635D01*
X126243214Y-119500499D01*
X126243215Y-119500500D01*
X126243216Y-119500500D01*
X126356785Y-119500500D01*
X126356785Y-119500499D01*
X126526692Y-119485635D01*
X126746496Y-119426739D01*
X126952734Y-119330568D01*
X127139139Y-119200047D01*
X127300047Y-119039139D01*
X127430568Y-118852734D01*
X127526739Y-118646496D01*
X127585635Y-118426692D01*
X127605468Y-118200001D01*
X146894532Y-118200001D01*
X146914364Y-118426686D01*
X146914366Y-118426697D01*
X146973258Y-118646488D01*
X146973261Y-118646497D01*
X147069431Y-118852732D01*
X147069432Y-118852734D01*
X147199954Y-119039141D01*
X147360858Y-119200045D01*
X147360861Y-119200047D01*
X147547266Y-119330568D01*
X147753504Y-119426739D01*
X147973308Y-119485635D01*
X148143214Y-119500499D01*
X148143215Y-119500500D01*
X148143216Y-119500500D01*
X148256785Y-119500500D01*
X148256785Y-119500499D01*
X148426692Y-119485635D01*
X148646496Y-119426739D01*
X148852734Y-119330568D01*
X149039139Y-119200047D01*
X149200047Y-119039139D01*
X149330568Y-118852734D01*
X149426739Y-118646496D01*
X149485635Y-118426692D01*
X149505468Y-118200000D01*
X149485635Y-117973308D01*
X149426739Y-117753504D01*
X149330568Y-117547266D01*
X149200047Y-117360861D01*
X149200045Y-117360858D01*
X149039141Y-117199954D01*
X148852734Y-117069432D01*
X148852732Y-117069431D01*
X148646497Y-116973261D01*
X148646488Y-116973258D01*
X148426697Y-116914366D01*
X148426687Y-116914364D01*
X148256785Y-116899500D01*
X148256784Y-116899500D01*
X148143216Y-116899500D01*
X148143215Y-116899500D01*
X147973312Y-116914364D01*
X147973302Y-116914366D01*
X147753511Y-116973258D01*
X147753502Y-116973261D01*
X147547267Y-117069431D01*
X147547265Y-117069432D01*
X147360858Y-117199954D01*
X147199954Y-117360858D01*
X147069432Y-117547265D01*
X147069431Y-117547267D01*
X146973261Y-117753502D01*
X146973258Y-117753511D01*
X146914366Y-117973302D01*
X146914364Y-117973313D01*
X146894532Y-118199998D01*
X146894532Y-118200001D01*
X127605468Y-118200001D01*
X127605468Y-118200000D01*
X127585635Y-117973308D01*
X127526739Y-117753504D01*
X127430568Y-117547266D01*
X127300047Y-117360861D01*
X127300045Y-117360858D01*
X127139141Y-117199954D01*
X126952734Y-117069432D01*
X126952732Y-117069431D01*
X126746497Y-116973261D01*
X126746488Y-116973258D01*
X126526697Y-116914366D01*
X126526687Y-116914364D01*
X126356785Y-116899500D01*
X126356784Y-116899500D01*
X126243216Y-116899500D01*
X126243215Y-116899500D01*
X126073312Y-116914364D01*
X126073302Y-116914366D01*
X125853511Y-116973258D01*
X125853502Y-116973261D01*
X125647267Y-117069431D01*
X125647265Y-117069432D01*
X125460858Y-117199954D01*
X125299954Y-117360858D01*
X125169432Y-117547265D01*
X125169431Y-117547267D01*
X125073261Y-117753502D01*
X125073258Y-117753511D01*
X125014366Y-117973302D01*
X125014364Y-117973313D01*
X124994532Y-118199998D01*
X124994532Y-118200001D01*
X123800556Y-118200001D01*
X123800500Y-118198139D01*
X123800500Y-115929500D01*
X123820185Y-115862461D01*
X123872989Y-115816706D01*
X123924500Y-115805500D01*
X132265730Y-115805500D01*
X132265734Y-115805500D01*
X132265749Y-115805499D01*
X132265755Y-115805499D01*
X132267025Y-115805434D01*
X132276118Y-115804974D01*
X132306203Y-115801920D01*
X132381782Y-115778994D01*
X132443500Y-115746241D01*
X132443502Y-115746239D01*
X132443509Y-115746236D01*
X132464943Y-115733120D01*
X132464944Y-115733119D01*
X132526345Y-115665344D01*
X132526346Y-115665343D01*
X132560558Y-115604423D01*
X132571504Y-115581793D01*
X132577239Y-115547326D01*
X132607660Y-115484427D01*
X132634600Y-115467942D01*
X132600001Y-115441480D01*
X132580307Y-115400485D01*
X132579336Y-115396886D01*
X132579335Y-115396877D01*
X132543190Y-115312867D01*
X132501987Y-115256439D01*
X132461122Y-115214590D01*
X132461121Y-115214589D01*
X132461115Y-115214584D01*
X132431235Y-115191656D01*
X132408346Y-115168768D01*
X132364905Y-115112155D01*
X132348720Y-115084121D01*
X132321413Y-115018196D01*
X132313035Y-114986928D01*
X132303721Y-114916178D01*
X132303721Y-114883818D01*
X132313034Y-114813067D01*
X132321412Y-114781803D01*
X132348718Y-114715880D01*
X132348721Y-114715872D01*
X132364901Y-114687848D01*
X132408348Y-114631227D01*
X132431227Y-114608348D01*
X132487846Y-114564902D01*
X132515877Y-114548719D01*
X132581800Y-114521412D01*
X132613065Y-114513035D01*
X132683820Y-114503721D01*
X132716180Y-114503721D01*
X132786926Y-114513034D01*
G37*
%TD.AperFunction*%
%TA.AperFunction,Conductor*%
G36*
X140486926Y-114113034D02*
G01*
X140518192Y-114121411D01*
X140584125Y-114148721D01*
X140612156Y-114164906D01*
X140668766Y-114208346D01*
X140691653Y-114231233D01*
X140735093Y-114287844D01*
X140751279Y-114315879D01*
X140778585Y-114381802D01*
X140786963Y-114413068D01*
X140796277Y-114483813D01*
X140796277Y-114516185D01*
X140786963Y-114586930D01*
X140778585Y-114618196D01*
X140751279Y-114684119D01*
X140735093Y-114712154D01*
X140691653Y-114768765D01*
X140668765Y-114791653D01*
X140612155Y-114835092D01*
X140584121Y-114851278D01*
X140518196Y-114878585D01*
X140486929Y-114886963D01*
X140416185Y-114896277D01*
X140383813Y-114896277D01*
X140313068Y-114886963D01*
X140281802Y-114878585D01*
X140215879Y-114851279D01*
X140187844Y-114835093D01*
X140131233Y-114791653D01*
X140108345Y-114768765D01*
X140064906Y-114712155D01*
X140048720Y-114684121D01*
X140021413Y-114618196D01*
X140013035Y-114586928D01*
X140010136Y-114564906D01*
X140003721Y-114516178D01*
X140003721Y-114483818D01*
X140013034Y-114413067D01*
X140021412Y-114381803D01*
X140025952Y-114370841D01*
X140048721Y-114315872D01*
X140064901Y-114287848D01*
X140108348Y-114231227D01*
X140131227Y-114208348D01*
X140187846Y-114164902D01*
X140215877Y-114148719D01*
X140281800Y-114121412D01*
X140313065Y-114113035D01*
X140383820Y-114103721D01*
X140416180Y-114103721D01*
X140486926Y-114113034D01*
G37*
%TD.AperFunction*%
%TA.AperFunction,Conductor*%
G36*
X143686926Y-111613034D02*
G01*
X143718192Y-111621411D01*
X143784125Y-111648721D01*
X143812156Y-111664906D01*
X143868766Y-111708346D01*
X143891653Y-111731233D01*
X143935093Y-111787844D01*
X143951279Y-111815879D01*
X143978585Y-111881802D01*
X143986963Y-111913068D01*
X143996277Y-111983813D01*
X143996277Y-112016185D01*
X143986963Y-112086930D01*
X143978585Y-112118196D01*
X143951279Y-112184119D01*
X143935094Y-112212154D01*
X143891653Y-112268767D01*
X143868764Y-112291655D01*
X143812159Y-112335090D01*
X143784127Y-112351275D01*
X143736326Y-112371075D01*
X143736319Y-112371078D01*
X143694765Y-112394252D01*
X143671686Y-112410894D01*
X143605795Y-112434136D01*
X143537799Y-112418066D01*
X143521360Y-112406869D01*
X143513989Y-112400929D01*
X143513985Y-112400926D01*
X143513983Y-112400925D01*
X143486770Y-112384779D01*
X143463685Y-112371082D01*
X143463682Y-112371081D01*
X143463681Y-112371080D01*
X143463677Y-112371078D01*
X143415875Y-112351277D01*
X143387843Y-112335093D01*
X143331236Y-112291657D01*
X143308346Y-112268768D01*
X143264905Y-112212155D01*
X143248720Y-112184121D01*
X143221413Y-112118196D01*
X143213035Y-112086928D01*
X143203721Y-112016178D01*
X143203721Y-111983818D01*
X143213034Y-111913067D01*
X143221412Y-111881803D01*
X143225952Y-111870841D01*
X143248721Y-111815872D01*
X143264901Y-111787848D01*
X143308348Y-111731227D01*
X143331227Y-111708348D01*
X143387846Y-111664902D01*
X143415877Y-111648719D01*
X143481800Y-111621412D01*
X143513065Y-111613035D01*
X143583820Y-111603721D01*
X143616180Y-111603721D01*
X143686926Y-111613034D01*
G37*
%TD.AperFunction*%
%TA.AperFunction,Conductor*%
G36*
X136086926Y-111113034D02*
G01*
X136118192Y-111121411D01*
X136184125Y-111148721D01*
X136212156Y-111164906D01*
X136268766Y-111208346D01*
X136291653Y-111231233D01*
X136335093Y-111287844D01*
X136351279Y-111315879D01*
X136378585Y-111381802D01*
X136386963Y-111413068D01*
X136396277Y-111483813D01*
X136396277Y-111516185D01*
X136386963Y-111586930D01*
X136378585Y-111618196D01*
X136351279Y-111684119D01*
X136335093Y-111712154D01*
X136291653Y-111768765D01*
X136268765Y-111791653D01*
X136212155Y-111835092D01*
X136184121Y-111851278D01*
X136118196Y-111878585D01*
X136086929Y-111886963D01*
X136016185Y-111896277D01*
X135983813Y-111896277D01*
X135913068Y-111886963D01*
X135881802Y-111878585D01*
X135815879Y-111851279D01*
X135787844Y-111835093D01*
X135731233Y-111791653D01*
X135708345Y-111768765D01*
X135664906Y-111712155D01*
X135648720Y-111684121D01*
X135621413Y-111618196D01*
X135613035Y-111586928D01*
X135603721Y-111516178D01*
X135603721Y-111483818D01*
X135613034Y-111413067D01*
X135621412Y-111381803D01*
X135625952Y-111370841D01*
X135648721Y-111315872D01*
X135664901Y-111287848D01*
X135708348Y-111231227D01*
X135731227Y-111208348D01*
X135787846Y-111164902D01*
X135815877Y-111148719D01*
X135881800Y-111121412D01*
X135913065Y-111113035D01*
X135983820Y-111103721D01*
X136016180Y-111103721D01*
X136086926Y-111113034D01*
G37*
%TD.AperFunction*%
%TA.AperFunction,Conductor*%
G36*
X148201884Y-87200613D02*
G01*
X148281335Y-87205418D01*
X148497540Y-87218496D01*
X148504974Y-87219400D01*
X148794483Y-87272455D01*
X148801753Y-87274246D01*
X149082775Y-87361816D01*
X149089745Y-87364460D01*
X149358156Y-87485263D01*
X149364782Y-87488741D01*
X149509021Y-87575935D01*
X149616673Y-87641013D01*
X149622832Y-87645265D01*
X149751556Y-87746114D01*
X149854524Y-87826784D01*
X149860124Y-87831745D01*
X150068253Y-88039874D01*
X150073215Y-88045475D01*
X150254733Y-88277165D01*
X150258988Y-88283329D01*
X150263305Y-88290470D01*
X150411258Y-88535217D01*
X150414741Y-88541852D01*
X150535533Y-88810239D01*
X150538186Y-88817234D01*
X150562865Y-88896429D01*
X150625751Y-89098240D01*
X150627544Y-89105516D01*
X150680599Y-89395025D01*
X150681503Y-89402464D01*
X150699387Y-89698114D01*
X150699500Y-89701859D01*
X150699500Y-104170500D01*
X150679815Y-104237539D01*
X150627011Y-104283294D01*
X150575500Y-104294500D01*
X145145858Y-104294500D01*
X145134863Y-104295089D01*
X145134847Y-104295090D01*
X145103038Y-104298511D01*
X145103029Y-104298513D01*
X145026521Y-104322470D01*
X145026516Y-104322471D01*
X144965188Y-104355960D01*
X144918384Y-104390998D01*
X144918363Y-104391016D01*
X144787123Y-104522256D01*
X144779757Y-104530454D01*
X144779753Y-104530459D01*
X144759674Y-104555376D01*
X144722509Y-104626424D01*
X144702826Y-104693456D01*
X144694500Y-104751365D01*
X144694500Y-105663518D01*
X144674815Y-105730557D01*
X144658181Y-105751199D01*
X143327905Y-107081474D01*
X143266582Y-107114959D01*
X143196890Y-107109975D01*
X143140957Y-107068103D01*
X143116540Y-107002639D01*
X143120449Y-106961700D01*
X143129264Y-106928807D01*
X143125735Y-106888478D01*
X143125500Y-106883075D01*
X143125500Y-103259176D01*
X145849257Y-103259176D01*
X145859490Y-103421819D01*
X145909848Y-103576807D01*
X145909849Y-103576810D01*
X145997169Y-103714405D01*
X146115962Y-103825958D01*
X146115970Y-103825964D01*
X146258769Y-103904468D01*
X146258773Y-103904470D01*
X146416618Y-103944998D01*
X146416622Y-103944998D01*
X146538674Y-103944998D01*
X146538676Y-103944998D01*
X146538681Y-103944997D01*
X146538685Y-103944997D01*
X146551813Y-103943338D01*
X146659780Y-103929699D01*
X146811301Y-103869708D01*
X146943142Y-103773919D01*
X147047020Y-103648353D01*
X147116407Y-103500898D01*
X147146943Y-103340820D01*
X147136710Y-103178177D01*
X147086352Y-103023188D01*
X147063373Y-102986979D01*
X146999030Y-102885590D01*
X146880237Y-102774037D01*
X146880229Y-102774031D01*
X146737430Y-102695527D01*
X146737422Y-102695524D01*
X146579583Y-102654998D01*
X146579582Y-102654998D01*
X146457524Y-102654998D01*
X146457514Y-102654998D01*
X146336420Y-102670297D01*
X146336414Y-102670298D01*
X146184902Y-102730286D01*
X146184899Y-102730287D01*
X146184899Y-102730288D01*
X146124685Y-102774037D01*
X146053057Y-102826078D01*
X145949178Y-102951645D01*
X145879793Y-103099097D01*
X145879793Y-103099098D01*
X145849257Y-103259173D01*
X145849257Y-103259176D01*
X143125500Y-103259176D01*
X143125500Y-101268298D01*
X143145185Y-101201259D01*
X143174010Y-101169925D01*
X143228282Y-101128282D01*
X143324536Y-101002841D01*
X143385044Y-100856762D01*
X143405682Y-100700000D01*
X143385044Y-100543238D01*
X143324536Y-100397159D01*
X143228282Y-100271718D01*
X143102841Y-100175464D01*
X142956762Y-100114956D01*
X142956760Y-100114955D01*
X142800001Y-100094318D01*
X142799999Y-100094318D01*
X142643239Y-100114955D01*
X142643237Y-100114956D01*
X142497160Y-100175463D01*
X142371718Y-100271718D01*
X142275463Y-100397160D01*
X142214956Y-100543237D01*
X142214955Y-100543239D01*
X142194318Y-100699998D01*
X142194318Y-100700001D01*
X142214955Y-100856760D01*
X142214956Y-100856762D01*
X142275464Y-101002841D01*
X142371718Y-101128282D01*
X142425987Y-101169924D01*
X142467189Y-101226349D01*
X142474500Y-101268298D01*
X142474500Y-106713811D01*
X142454815Y-106780850D01*
X142438181Y-106801492D01*
X140234110Y-109005562D01*
X140172787Y-109039047D01*
X140103095Y-109034063D01*
X140098991Y-109032448D01*
X140056762Y-109014956D01*
X140056760Y-109014955D01*
X139900001Y-108994318D01*
X139899999Y-108994318D01*
X139743239Y-109014955D01*
X139743237Y-109014956D01*
X139597157Y-109075464D01*
X139524986Y-109130844D01*
X139459817Y-109156038D01*
X139391372Y-109142000D01*
X139341383Y-109093186D01*
X139325500Y-109032468D01*
X139325500Y-108786187D01*
X139345185Y-108719148D01*
X139361814Y-108698511D01*
X140928315Y-107132009D01*
X140989636Y-107098526D01*
X141032180Y-107096753D01*
X141099999Y-107105682D01*
X141100000Y-107105682D01*
X141100001Y-107105682D01*
X141152253Y-107098802D01*
X141256762Y-107085044D01*
X141402841Y-107024536D01*
X141528282Y-106928282D01*
X141624536Y-106802841D01*
X141685044Y-106656762D01*
X141705682Y-106500000D01*
X141685044Y-106343238D01*
X141624536Y-106197159D01*
X141528282Y-106071718D01*
X141402841Y-105975464D01*
X141256762Y-105914956D01*
X141256760Y-105914955D01*
X141100001Y-105894318D01*
X141099999Y-105894318D01*
X140943239Y-105914955D01*
X140943237Y-105914956D01*
X140797160Y-105975463D01*
X140671718Y-106071718D01*
X140575463Y-106197160D01*
X140514956Y-106343237D01*
X140514955Y-106343239D01*
X140494318Y-106499998D01*
X140494318Y-106500001D01*
X140503246Y-106567818D01*
X140492480Y-106636853D01*
X140467988Y-106671684D01*
X138781803Y-108357870D01*
X138777814Y-108361525D01*
X138746805Y-108387545D01*
X138726562Y-108422606D01*
X138723656Y-108427166D01*
X138700446Y-108460313D01*
X138698206Y-108465117D01*
X138691229Y-108481961D01*
X138689410Y-108486959D01*
X138682383Y-108526811D01*
X138681212Y-108532091D01*
X138670735Y-108571191D01*
X138674264Y-108611513D01*
X138674500Y-108616920D01*
X138674500Y-110183078D01*
X138674264Y-110188485D01*
X138670735Y-110228808D01*
X138671681Y-110239614D01*
X138667461Y-110239983D01*
X138666211Y-110288491D01*
X138626934Y-110346275D01*
X138562651Y-110373652D01*
X138548174Y-110374500D01*
X137686188Y-110374500D01*
X137619149Y-110354815D01*
X137598507Y-110338181D01*
X137272781Y-110012455D01*
X136942119Y-109681793D01*
X136938474Y-109677814D01*
X136912456Y-109646807D01*
X136912455Y-109646806D01*
X136900960Y-109640169D01*
X136877392Y-109626561D01*
X136872831Y-109623655D01*
X136858771Y-109613811D01*
X136839684Y-109600446D01*
X136839681Y-109600445D01*
X136834861Y-109598197D01*
X136818055Y-109591235D01*
X136813043Y-109589411D01*
X136773190Y-109582383D01*
X136767910Y-109581212D01*
X136728808Y-109570735D01*
X136693892Y-109573790D01*
X136688481Y-109574264D01*
X136683078Y-109574500D01*
X132039426Y-109574500D01*
X131972387Y-109554815D01*
X131926632Y-109502011D01*
X131924864Y-109497950D01*
X131924537Y-109497161D01*
X131924535Y-109497158D01*
X131828283Y-109371719D01*
X131828282Y-109371718D01*
X131702841Y-109275464D01*
X131556762Y-109214956D01*
X131556760Y-109214955D01*
X131400001Y-109194318D01*
X131399999Y-109194318D01*
X131243239Y-109214955D01*
X131243237Y-109214956D01*
X131097160Y-109275463D01*
X130971718Y-109371718D01*
X130875463Y-109497160D01*
X130814956Y-109643237D01*
X130814956Y-109643239D01*
X130811550Y-109669109D01*
X130783283Y-109733006D01*
X130724958Y-109771476D01*
X130655093Y-109772307D01*
X130600930Y-109740604D01*
X130561818Y-109701492D01*
X130528333Y-109640169D01*
X130525499Y-109613811D01*
X130525499Y-109417782D01*
X130525499Y-109116896D01*
X130525733Y-109111543D01*
X130529264Y-109071193D01*
X130518782Y-109032076D01*
X130517616Y-109026818D01*
X130510588Y-108986955D01*
X130510586Y-108986952D01*
X130510586Y-108986950D01*
X130508760Y-108981933D01*
X130501820Y-108965176D01*
X130499554Y-108960319D01*
X130499554Y-108960316D01*
X130476339Y-108927162D01*
X130473433Y-108922599D01*
X130453196Y-108887548D01*
X130453195Y-108887547D01*
X130453194Y-108887545D01*
X130422177Y-108861518D01*
X130418193Y-108857867D01*
X130034688Y-108474362D01*
X129642119Y-108081793D01*
X129638474Y-108077814D01*
X129612456Y-108046807D01*
X129612455Y-108046806D01*
X129601058Y-108040226D01*
X129577392Y-108026561D01*
X129572831Y-108023655D01*
X129559687Y-108014452D01*
X129539684Y-108000446D01*
X129539681Y-108000445D01*
X129534861Y-107998197D01*
X129518055Y-107991235D01*
X129513043Y-107989411D01*
X129473190Y-107982383D01*
X129467910Y-107981212D01*
X129428808Y-107970735D01*
X129393892Y-107973790D01*
X129388481Y-107974264D01*
X129383078Y-107974500D01*
X127386188Y-107974500D01*
X127319149Y-107954815D01*
X127298507Y-107938181D01*
X127032011Y-107671685D01*
X126998526Y-107610362D01*
X126996753Y-107567818D01*
X127005682Y-107500000D01*
X127005682Y-107499998D01*
X126985044Y-107343239D01*
X126985044Y-107343238D01*
X126924536Y-107197159D01*
X126828282Y-107071718D01*
X126702841Y-106975464D01*
X126690917Y-106970525D01*
X126556762Y-106914956D01*
X126556760Y-106914955D01*
X126400001Y-106894318D01*
X126399999Y-106894318D01*
X126243239Y-106914955D01*
X126243237Y-106914956D01*
X126097160Y-106975463D01*
X125971718Y-107071718D01*
X125875463Y-107197160D01*
X125814956Y-107343237D01*
X125814955Y-107343239D01*
X125794318Y-107499998D01*
X125794318Y-107500001D01*
X125814955Y-107656760D01*
X125814956Y-107656762D01*
X125875464Y-107802841D01*
X125971718Y-107928282D01*
X126097159Y-108024536D01*
X126243238Y-108085044D01*
X126271548Y-108088771D01*
X126399999Y-108105682D01*
X126400000Y-108105682D01*
X126400001Y-108105682D01*
X126435708Y-108100980D01*
X126467818Y-108096753D01*
X126536853Y-108107518D01*
X126571685Y-108132011D01*
X126957863Y-108518189D01*
X126961518Y-108522178D01*
X126987541Y-108553190D01*
X126987543Y-108553191D01*
X126987545Y-108553194D01*
X126987547Y-108553195D01*
X126987548Y-108553196D01*
X127022599Y-108573433D01*
X127027162Y-108576339D01*
X127060316Y-108599554D01*
X127060319Y-108599554D01*
X127065176Y-108601820D01*
X127081933Y-108608760D01*
X127086953Y-108610587D01*
X127086955Y-108610588D01*
X127122806Y-108616909D01*
X127126808Y-108617615D01*
X127132080Y-108618783D01*
X127171193Y-108629264D01*
X127211522Y-108625735D01*
X127216924Y-108625500D01*
X127517247Y-108625500D01*
X127584286Y-108645185D01*
X127630041Y-108697989D01*
X127639985Y-108767147D01*
X127610960Y-108830703D01*
X127580702Y-108852521D01*
X127581923Y-108854348D01*
X127505447Y-108905447D01*
X127461132Y-108971769D01*
X127461131Y-108971770D01*
X127449500Y-109030247D01*
X127449500Y-110070500D01*
X127429815Y-110137539D01*
X127377011Y-110183294D01*
X127325500Y-110194500D01*
X126958216Y-110194500D01*
X126958212Y-110194500D01*
X126958202Y-110194501D01*
X126906511Y-110201111D01*
X126906495Y-110201114D01*
X126846130Y-110216808D01*
X126846100Y-110216817D01*
X126828223Y-110222345D01*
X126751222Y-110271690D01*
X126751216Y-110271695D01*
X126702262Y-110321530D01*
X126667610Y-110368690D01*
X126666787Y-110369997D01*
X126662265Y-110376266D01*
X126568144Y-110490954D01*
X126550954Y-110508144D01*
X126441167Y-110598243D01*
X126420957Y-110611747D01*
X126295703Y-110678698D01*
X126273244Y-110688001D01*
X126137335Y-110729228D01*
X126113494Y-110733970D01*
X125972153Y-110747891D01*
X125947845Y-110747891D01*
X125806504Y-110733970D01*
X125782664Y-110729228D01*
X125729350Y-110713055D01*
X125646752Y-110688000D01*
X125624296Y-110678698D01*
X125499042Y-110611748D01*
X125478832Y-110598244D01*
X125369046Y-110508147D01*
X125351856Y-110490957D01*
X125257680Y-110376201D01*
X125252889Y-110369501D01*
X125252379Y-110368677D01*
X125222162Y-110326178D01*
X125222158Y-110326174D01*
X125179856Y-110280332D01*
X125179849Y-110280324D01*
X125166538Y-110267157D01*
X125086721Y-110222510D01*
X125086719Y-110222509D01*
X125019687Y-110202826D01*
X125019683Y-110202825D01*
X125019682Y-110202825D01*
X124961784Y-110194500D01*
X123924500Y-110194500D01*
X123857461Y-110174815D01*
X123811706Y-110122011D01*
X123800500Y-110070500D01*
X123800500Y-105644752D01*
X125349500Y-105644752D01*
X125361131Y-105703229D01*
X125361132Y-105703230D01*
X125405447Y-105769552D01*
X125471769Y-105813867D01*
X125471770Y-105813868D01*
X125530247Y-105825499D01*
X125530250Y-105825500D01*
X125530252Y-105825500D01*
X127269750Y-105825500D01*
X127269751Y-105825499D01*
X127284568Y-105822552D01*
X127328229Y-105813868D01*
X127328229Y-105813867D01*
X127328231Y-105813867D01*
X127394552Y-105769552D01*
X127438867Y-105703231D01*
X127438867Y-105703229D01*
X127438868Y-105703229D01*
X127450499Y-105644752D01*
X127450500Y-105644750D01*
X127450500Y-103905249D01*
X127450499Y-103905247D01*
X127438868Y-103846770D01*
X127438867Y-103846769D01*
X127394552Y-103780447D01*
X127328230Y-103736132D01*
X127328229Y-103736131D01*
X127269752Y-103724500D01*
X127269748Y-103724500D01*
X125530252Y-103724500D01*
X125530247Y-103724500D01*
X125471770Y-103736131D01*
X125471769Y-103736132D01*
X125405447Y-103780447D01*
X125361132Y-103846769D01*
X125361131Y-103846770D01*
X125349500Y-103905247D01*
X125349500Y-105644752D01*
X123800500Y-105644752D01*
X123800500Y-96459180D01*
X145849257Y-96459180D01*
X145859490Y-96621823D01*
X145909848Y-96776811D01*
X145909849Y-96776814D01*
X145997169Y-96914409D01*
X146115962Y-97025962D01*
X146115970Y-97025968D01*
X146258769Y-97104472D01*
X146258773Y-97104474D01*
X146416618Y-97145002D01*
X146416622Y-97145002D01*
X146538674Y-97145002D01*
X146538676Y-97145002D01*
X146538681Y-97145001D01*
X146538685Y-97145001D01*
X146551813Y-97143342D01*
X146659780Y-97129703D01*
X146811301Y-97069712D01*
X146943142Y-96973923D01*
X147047020Y-96848357D01*
X147116407Y-96700902D01*
X147146943Y-96540824D01*
X147136710Y-96378181D01*
X147086352Y-96223192D01*
X147063373Y-96186983D01*
X146999030Y-96085594D01*
X146880237Y-95974041D01*
X146880229Y-95974035D01*
X146737430Y-95895531D01*
X146737422Y-95895528D01*
X146579583Y-95855002D01*
X146579582Y-95855002D01*
X146457524Y-95855002D01*
X146457514Y-95855002D01*
X146336420Y-95870301D01*
X146336414Y-95870302D01*
X146184902Y-95930290D01*
X146184899Y-95930291D01*
X146184899Y-95930292D01*
X146124685Y-95974041D01*
X146053057Y-96026082D01*
X145949178Y-96151649D01*
X145879793Y-96299101D01*
X145879793Y-96299102D01*
X145849257Y-96459177D01*
X145849257Y-96459180D01*
X123800500Y-96459180D01*
X123800500Y-93300000D01*
X143794357Y-93300000D01*
X143814884Y-93521535D01*
X143814885Y-93521537D01*
X143875769Y-93735523D01*
X143875775Y-93735538D01*
X143974938Y-93934683D01*
X143974943Y-93934691D01*
X144109020Y-94112238D01*
X144273437Y-94262123D01*
X144273439Y-94262125D01*
X144462595Y-94379245D01*
X144462596Y-94379245D01*
X144462599Y-94379247D01*
X144670060Y-94459618D01*
X144888757Y-94500500D01*
X144888759Y-94500500D01*
X145111241Y-94500500D01*
X145111243Y-94500500D01*
X145329940Y-94459618D01*
X145537401Y-94379247D01*
X145726562Y-94262124D01*
X145890981Y-94112236D01*
X146025058Y-93934689D01*
X146124229Y-93735528D01*
X146185115Y-93521536D01*
X146205643Y-93300000D01*
X146185115Y-93078464D01*
X146124229Y-92864472D01*
X146124224Y-92864461D01*
X146025061Y-92665316D01*
X146025056Y-92665308D01*
X145890979Y-92487761D01*
X145726562Y-92337876D01*
X145726560Y-92337874D01*
X145537404Y-92220754D01*
X145537398Y-92220752D01*
X145329940Y-92140382D01*
X145111243Y-92099500D01*
X144888757Y-92099500D01*
X144670060Y-92140382D01*
X144538864Y-92191207D01*
X144462601Y-92220752D01*
X144462595Y-92220754D01*
X144273439Y-92337874D01*
X144273437Y-92337876D01*
X144109020Y-92487761D01*
X143974943Y-92665308D01*
X143974938Y-92665316D01*
X143875775Y-92864461D01*
X143875769Y-92864476D01*
X143814885Y-93078462D01*
X143814884Y-93078464D01*
X143794357Y-93299999D01*
X143794357Y-93300000D01*
X123800500Y-93300000D01*
X123800500Y-89701876D01*
X123800557Y-89700001D01*
X124994532Y-89700001D01*
X125014364Y-89926686D01*
X125014366Y-89926697D01*
X125073258Y-90146488D01*
X125073261Y-90146497D01*
X125169431Y-90352732D01*
X125169432Y-90352734D01*
X125299954Y-90539141D01*
X125460858Y-90700045D01*
X125460861Y-90700047D01*
X125647266Y-90830568D01*
X125853504Y-90926739D01*
X126073308Y-90985635D01*
X126243214Y-91000499D01*
X126243215Y-91000500D01*
X126243216Y-91000500D01*
X126356785Y-91000500D01*
X126356785Y-91000499D01*
X126526692Y-90985635D01*
X126746496Y-90926739D01*
X126952734Y-90830568D01*
X127139139Y-90700047D01*
X127300047Y-90539139D01*
X127430568Y-90352734D01*
X127526739Y-90146496D01*
X127585635Y-89926692D01*
X127605468Y-89700001D01*
X146894532Y-89700001D01*
X146914364Y-89926686D01*
X146914366Y-89926697D01*
X146973258Y-90146488D01*
X146973261Y-90146497D01*
X147069431Y-90352732D01*
X147069432Y-90352734D01*
X147199954Y-90539141D01*
X147360858Y-90700045D01*
X147360861Y-90700047D01*
X147547266Y-90830568D01*
X147753504Y-90926739D01*
X147973308Y-90985635D01*
X148143214Y-91000499D01*
X148143215Y-91000500D01*
X148143216Y-91000500D01*
X148256785Y-91000500D01*
X148256785Y-91000499D01*
X148426692Y-90985635D01*
X148646496Y-90926739D01*
X148852734Y-90830568D01*
X149039139Y-90700047D01*
X149200047Y-90539139D01*
X149330568Y-90352734D01*
X149426739Y-90146496D01*
X149485635Y-89926692D01*
X149505468Y-89700000D01*
X149505466Y-89699982D01*
X149485635Y-89473313D01*
X149485635Y-89473308D01*
X149426739Y-89253504D01*
X149330568Y-89047266D01*
X149200047Y-88860861D01*
X149200045Y-88860858D01*
X149039141Y-88699954D01*
X148852734Y-88569432D01*
X148852732Y-88569431D01*
X148646497Y-88473261D01*
X148646488Y-88473258D01*
X148426697Y-88414366D01*
X148426687Y-88414364D01*
X148256785Y-88399500D01*
X148256784Y-88399500D01*
X148143216Y-88399500D01*
X148143215Y-88399500D01*
X147973312Y-88414364D01*
X147973302Y-88414366D01*
X147753511Y-88473258D01*
X147753502Y-88473261D01*
X147547267Y-88569431D01*
X147547265Y-88569432D01*
X147360858Y-88699954D01*
X147199954Y-88860858D01*
X147069432Y-89047265D01*
X147069431Y-89047267D01*
X146973261Y-89253502D01*
X146973258Y-89253511D01*
X146914366Y-89473302D01*
X146914364Y-89473313D01*
X146894532Y-89699998D01*
X146894532Y-89700001D01*
X127605468Y-89700001D01*
X127605468Y-89700000D01*
X127605466Y-89699982D01*
X127585635Y-89473313D01*
X127585635Y-89473308D01*
X127526739Y-89253504D01*
X127430568Y-89047266D01*
X127300047Y-88860861D01*
X127300045Y-88860858D01*
X127139141Y-88699954D01*
X126952734Y-88569432D01*
X126952732Y-88569431D01*
X126746497Y-88473261D01*
X126746488Y-88473258D01*
X126526697Y-88414366D01*
X126526687Y-88414364D01*
X126356785Y-88399500D01*
X126356784Y-88399500D01*
X126243216Y-88399500D01*
X126243215Y-88399500D01*
X126073312Y-88414364D01*
X126073302Y-88414366D01*
X125853511Y-88473258D01*
X125853502Y-88473261D01*
X125647267Y-88569431D01*
X125647265Y-88569432D01*
X125460858Y-88699954D01*
X125299954Y-88860858D01*
X125169432Y-89047265D01*
X125169431Y-89047267D01*
X125073261Y-89253502D01*
X125073258Y-89253511D01*
X125014366Y-89473302D01*
X125014364Y-89473313D01*
X124994532Y-89699998D01*
X124994532Y-89700001D01*
X123800557Y-89700001D01*
X123800613Y-89698132D01*
X123814212Y-89473308D01*
X123818497Y-89402458D01*
X123819401Y-89395026D01*
X123872456Y-89105516D01*
X123874246Y-89098250D01*
X123961816Y-88817230D01*
X123964465Y-88810248D01*
X124014104Y-88699954D01*
X124085268Y-88541834D01*
X124088745Y-88535211D01*
X124161799Y-88414366D01*
X124241012Y-88283330D01*
X124245252Y-88277186D01*
X124426793Y-88045465D01*
X124431737Y-88039884D01*
X124639884Y-87831737D01*
X124645465Y-87826793D01*
X124877186Y-87645252D01*
X124883334Y-87641010D01*
X125135215Y-87488742D01*
X125141834Y-87485268D01*
X125375272Y-87380205D01*
X125410248Y-87364465D01*
X125417230Y-87361816D01*
X125698250Y-87274246D01*
X125705516Y-87272456D01*
X125995026Y-87219401D01*
X126002458Y-87218497D01*
X126227572Y-87204880D01*
X126298134Y-87200613D01*
X126301878Y-87200500D01*
X126347595Y-87200500D01*
X148198140Y-87200500D01*
X148201884Y-87200613D01*
G37*
%TD.AperFunction*%
%TD*%
%TA.AperFunction,Conductor*%
%TO.N,+BATT*%
G36*
X150642539Y-104519685D02*
G01*
X150688294Y-104572489D01*
X150699500Y-104624000D01*
X150699500Y-115476000D01*
X150679815Y-115543039D01*
X150627011Y-115588794D01*
X150575500Y-115600000D01*
X133139464Y-115600000D01*
X133072425Y-115580315D01*
X133026670Y-115527511D01*
X133016726Y-115458353D01*
X133045751Y-115394797D01*
X133063978Y-115377624D01*
X133128282Y-115328282D01*
X133224536Y-115202841D01*
X133285044Y-115056762D01*
X133305682Y-114900000D01*
X133285044Y-114743238D01*
X133224536Y-114597159D01*
X133149984Y-114500001D01*
X139794318Y-114500001D01*
X139814955Y-114656760D01*
X139814956Y-114656762D01*
X139850775Y-114743238D01*
X139875464Y-114802841D01*
X139971718Y-114928282D01*
X140097159Y-115024536D01*
X140243238Y-115085044D01*
X140321618Y-115095362D01*
X140399999Y-115105682D01*
X140400000Y-115105682D01*
X140400001Y-115105682D01*
X140452254Y-115098802D01*
X140556762Y-115085044D01*
X140702841Y-115024536D01*
X140828282Y-114928282D01*
X140924536Y-114802841D01*
X140985044Y-114656762D01*
X141005682Y-114500000D01*
X141000695Y-114462123D01*
X140985044Y-114343239D01*
X140985044Y-114343238D01*
X140924536Y-114197159D01*
X140828282Y-114071718D01*
X140702841Y-113975464D01*
X140556762Y-113914956D01*
X140556760Y-113914955D01*
X140400001Y-113894318D01*
X140399999Y-113894318D01*
X140243239Y-113914955D01*
X140243237Y-113914956D01*
X140097160Y-113975463D01*
X139971718Y-114071718D01*
X139875463Y-114197160D01*
X139814956Y-114343237D01*
X139814955Y-114343239D01*
X139794318Y-114499998D01*
X139794318Y-114500001D01*
X133149984Y-114500001D01*
X133128282Y-114471718D01*
X133002841Y-114375464D01*
X132856762Y-114314956D01*
X132856760Y-114314955D01*
X132700001Y-114294318D01*
X132699999Y-114294318D01*
X132543239Y-114314955D01*
X132543237Y-114314956D01*
X132397160Y-114375463D01*
X132271718Y-114471718D01*
X132175463Y-114597160D01*
X132114956Y-114743237D01*
X132114955Y-114743239D01*
X132094318Y-114899998D01*
X132094318Y-114900001D01*
X132114955Y-115056760D01*
X132114956Y-115056762D01*
X132175464Y-115202841D01*
X132271718Y-115328282D01*
X132336022Y-115377624D01*
X132377225Y-115434052D01*
X132381380Y-115503798D01*
X132347168Y-115564718D01*
X132285450Y-115597471D01*
X132260536Y-115600000D01*
X123924500Y-115600000D01*
X123857461Y-115580315D01*
X123811706Y-115527511D01*
X123800500Y-115476000D01*
X123800500Y-113500000D01*
X124194357Y-113500000D01*
X124214884Y-113721535D01*
X124214885Y-113721537D01*
X124275769Y-113935523D01*
X124275775Y-113935538D01*
X124374938Y-114134683D01*
X124374943Y-114134691D01*
X124509020Y-114312238D01*
X124673437Y-114462123D01*
X124673439Y-114462125D01*
X124862595Y-114579245D01*
X124862596Y-114579245D01*
X124862599Y-114579247D01*
X125070060Y-114659618D01*
X125288757Y-114700500D01*
X125288759Y-114700500D01*
X125511241Y-114700500D01*
X125511243Y-114700500D01*
X125729940Y-114659618D01*
X125937401Y-114579247D01*
X126126562Y-114462124D01*
X126287997Y-114314956D01*
X126290979Y-114312238D01*
X126348901Y-114235538D01*
X126425058Y-114134689D01*
X126524229Y-113935528D01*
X126585115Y-113721536D01*
X126605643Y-113500000D01*
X127594357Y-113500000D01*
X127614884Y-113721535D01*
X127614885Y-113721537D01*
X127675769Y-113935523D01*
X127675775Y-113935538D01*
X127774938Y-114134683D01*
X127774943Y-114134691D01*
X127909020Y-114312238D01*
X128073437Y-114462123D01*
X128073439Y-114462125D01*
X128262595Y-114579245D01*
X128262596Y-114579245D01*
X128262599Y-114579247D01*
X128470060Y-114659618D01*
X128688757Y-114700500D01*
X128688759Y-114700500D01*
X128911241Y-114700500D01*
X128911243Y-114700500D01*
X129129940Y-114659618D01*
X129337401Y-114579247D01*
X129526562Y-114462124D01*
X129687997Y-114314956D01*
X129690979Y-114312238D01*
X129748901Y-114235538D01*
X129825058Y-114134689D01*
X129924229Y-113935528D01*
X129985115Y-113721536D01*
X130005643Y-113500000D01*
X130001636Y-113456762D01*
X129987111Y-113300001D01*
X140994318Y-113300001D01*
X141014955Y-113456760D01*
X141014956Y-113456762D01*
X141075464Y-113602841D01*
X141171718Y-113728282D01*
X141297159Y-113824536D01*
X141443238Y-113885044D01*
X141513681Y-113894318D01*
X141599999Y-113905682D01*
X141600000Y-113905682D01*
X141600001Y-113905682D01*
X141652254Y-113898802D01*
X141756762Y-113885044D01*
X141902841Y-113824536D01*
X142028282Y-113728282D01*
X142124536Y-113602841D01*
X142176641Y-113477047D01*
X142220482Y-113422644D01*
X142286776Y-113400579D01*
X142291202Y-113400500D01*
X146201318Y-113400500D01*
X146268357Y-113420185D01*
X146314112Y-113472989D01*
X146324056Y-113542147D01*
X146320584Y-113558435D01*
X146314884Y-113578464D01*
X146294356Y-113799999D01*
X146294356Y-113800000D01*
X146314884Y-114021535D01*
X146314885Y-114021537D01*
X146375769Y-114235523D01*
X146375775Y-114235538D01*
X146474938Y-114434683D01*
X146474943Y-114434691D01*
X146609020Y-114612238D01*
X146773437Y-114762123D01*
X146773439Y-114762125D01*
X146962595Y-114879245D01*
X146962596Y-114879245D01*
X146962599Y-114879247D01*
X147170060Y-114959618D01*
X147388757Y-115000500D01*
X147388759Y-115000500D01*
X147611241Y-115000500D01*
X147611243Y-115000500D01*
X147829940Y-114959618D01*
X148037401Y-114879247D01*
X148226562Y-114762124D01*
X148390981Y-114612236D01*
X148525058Y-114434689D01*
X148624229Y-114235528D01*
X148685115Y-114021536D01*
X148705643Y-113800000D01*
X148698997Y-113728282D01*
X148685115Y-113578464D01*
X148685114Y-113578462D01*
X148662789Y-113499999D01*
X148624229Y-113364472D01*
X148624224Y-113364461D01*
X148525061Y-113165316D01*
X148525056Y-113165308D01*
X148390979Y-112987761D01*
X148226562Y-112837876D01*
X148226560Y-112837874D01*
X148037404Y-112720754D01*
X148037398Y-112720752D01*
X147829940Y-112640382D01*
X147611243Y-112599500D01*
X147388757Y-112599500D01*
X147170060Y-112640382D01*
X147090835Y-112671074D01*
X146962601Y-112720752D01*
X146962595Y-112720755D01*
X146873916Y-112775662D01*
X146824956Y-112789148D01*
X146825498Y-112793034D01*
X146814119Y-112794621D01*
X146786985Y-112798406D01*
X146783409Y-112798905D01*
X146774834Y-112799500D01*
X143862409Y-112799500D01*
X143795370Y-112779815D01*
X143749615Y-112727011D01*
X143739671Y-112657853D01*
X143768696Y-112594297D01*
X143814955Y-112560939D01*
X143902841Y-112524536D01*
X144028282Y-112428282D01*
X144124536Y-112302841D01*
X144185044Y-112156762D01*
X144205682Y-112000000D01*
X144185044Y-111843238D01*
X144124536Y-111697159D01*
X144028282Y-111571718D01*
X143902841Y-111475464D01*
X143870635Y-111462124D01*
X143756762Y-111414956D01*
X143756760Y-111414955D01*
X143600001Y-111394318D01*
X143599999Y-111394318D01*
X143443239Y-111414955D01*
X143443237Y-111414956D01*
X143297160Y-111475463D01*
X143171718Y-111571718D01*
X143075463Y-111697160D01*
X143014956Y-111843237D01*
X143014955Y-111843239D01*
X142994318Y-111999998D01*
X142994318Y-112000001D01*
X143014955Y-112156760D01*
X143014956Y-112156762D01*
X143075464Y-112302841D01*
X143171718Y-112428282D01*
X143297159Y-112524536D01*
X143385044Y-112560939D01*
X143439447Y-112604780D01*
X143461512Y-112671074D01*
X143444233Y-112738773D01*
X143393096Y-112786384D01*
X143337591Y-112799500D01*
X141976257Y-112799500D01*
X141909218Y-112779815D01*
X141903900Y-112776075D01*
X141902836Y-112775461D01*
X141756765Y-112714957D01*
X141756760Y-112714955D01*
X141600001Y-112694318D01*
X141599999Y-112694318D01*
X141443239Y-112714955D01*
X141443237Y-112714956D01*
X141297160Y-112775463D01*
X141171718Y-112871718D01*
X141075463Y-112997160D01*
X141014956Y-113143237D01*
X141014955Y-113143239D01*
X140994318Y-113299998D01*
X140994318Y-113300001D01*
X129987111Y-113300001D01*
X129985115Y-113278464D01*
X129985114Y-113278462D01*
X129952921Y-113165316D01*
X129924229Y-113064472D01*
X129924224Y-113064461D01*
X129825061Y-112865316D01*
X129825056Y-112865308D01*
X129690979Y-112687761D01*
X129526562Y-112537876D01*
X129526560Y-112537874D01*
X129337404Y-112420754D01*
X129337398Y-112420752D01*
X129129940Y-112340382D01*
X128911243Y-112299500D01*
X128688757Y-112299500D01*
X128470060Y-112340382D01*
X128338864Y-112391207D01*
X128262601Y-112420752D01*
X128262595Y-112420754D01*
X128073439Y-112537874D01*
X128073437Y-112537876D01*
X127909020Y-112687761D01*
X127774943Y-112865308D01*
X127774938Y-112865316D01*
X127675775Y-113064461D01*
X127675769Y-113064476D01*
X127614885Y-113278462D01*
X127614884Y-113278464D01*
X127594357Y-113499999D01*
X127594357Y-113500000D01*
X126605643Y-113500000D01*
X126601636Y-113456762D01*
X126585115Y-113278464D01*
X126585114Y-113278462D01*
X126552921Y-113165316D01*
X126524229Y-113064472D01*
X126524224Y-113064461D01*
X126425061Y-112865316D01*
X126425056Y-112865308D01*
X126290979Y-112687761D01*
X126126562Y-112537876D01*
X126126560Y-112537874D01*
X125937404Y-112420754D01*
X125937398Y-112420752D01*
X125729940Y-112340382D01*
X125511243Y-112299500D01*
X125288757Y-112299500D01*
X125070060Y-112340382D01*
X124938864Y-112391207D01*
X124862601Y-112420752D01*
X124862595Y-112420754D01*
X124673439Y-112537874D01*
X124673437Y-112537876D01*
X124509020Y-112687761D01*
X124374943Y-112865308D01*
X124374938Y-112865316D01*
X124275775Y-113064461D01*
X124275769Y-113064476D01*
X124214885Y-113278462D01*
X124214884Y-113278464D01*
X124194357Y-113499999D01*
X124194357Y-113500000D01*
X123800500Y-113500000D01*
X123800500Y-111500001D01*
X135394318Y-111500001D01*
X135414955Y-111656760D01*
X135414956Y-111656762D01*
X135475464Y-111802841D01*
X135571718Y-111928282D01*
X135697159Y-112024536D01*
X135843238Y-112085044D01*
X135921618Y-112095362D01*
X135999999Y-112105682D01*
X136000000Y-112105682D01*
X136000001Y-112105682D01*
X136052253Y-112098802D01*
X136156762Y-112085044D01*
X136302841Y-112024536D01*
X136428282Y-111928282D01*
X136524536Y-111802841D01*
X136585044Y-111656762D01*
X136605682Y-111500000D01*
X136600695Y-111462123D01*
X136585044Y-111343239D01*
X136585044Y-111343238D01*
X136524536Y-111197159D01*
X136428282Y-111071718D01*
X136302841Y-110975464D01*
X136297930Y-110973430D01*
X136156762Y-110914956D01*
X136156760Y-110914955D01*
X136000001Y-110894318D01*
X135999999Y-110894318D01*
X135843239Y-110914955D01*
X135843237Y-110914956D01*
X135697160Y-110975463D01*
X135571718Y-111071718D01*
X135475463Y-111197160D01*
X135414956Y-111343237D01*
X135414955Y-111343239D01*
X135394318Y-111499998D01*
X135394318Y-111500001D01*
X123800500Y-111500001D01*
X123800500Y-110524000D01*
X123820185Y-110456961D01*
X123872989Y-110411206D01*
X123924500Y-110400000D01*
X124961784Y-110400000D01*
X125028823Y-110419685D01*
X125071140Y-110465544D01*
X125082315Y-110486450D01*
X125093435Y-110500000D01*
X125213589Y-110646410D01*
X125278890Y-110700000D01*
X125373550Y-110777685D01*
X125556046Y-110875232D01*
X125754066Y-110935300D01*
X125754065Y-110935300D01*
X125756482Y-110935538D01*
X125960000Y-110955583D01*
X126165934Y-110935300D01*
X126363954Y-110875232D01*
X126546450Y-110777685D01*
X126706410Y-110646410D01*
X126837685Y-110486450D01*
X126848859Y-110465544D01*
X126897821Y-110415702D01*
X126958216Y-110400000D01*
X130288312Y-110400000D01*
X130355351Y-110419685D01*
X130375990Y-110436317D01*
X130639671Y-110699998D01*
X130857868Y-110918195D01*
X130861523Y-110922184D01*
X130887541Y-110953190D01*
X130887543Y-110953191D01*
X130887545Y-110953194D01*
X130922605Y-110973435D01*
X130927159Y-110976337D01*
X130960316Y-110999554D01*
X130960319Y-110999554D01*
X130965176Y-111001820D01*
X130981933Y-111008760D01*
X130986953Y-111010587D01*
X130986955Y-111010588D01*
X131026830Y-111017618D01*
X131032087Y-111018784D01*
X131071193Y-111029263D01*
X131111510Y-111025735D01*
X131116912Y-111025500D01*
X132831701Y-111025500D01*
X132898740Y-111045185D01*
X132930077Y-111074014D01*
X132968843Y-111124536D01*
X132971718Y-111128282D01*
X133097159Y-111224536D01*
X133243238Y-111285044D01*
X133321619Y-111295362D01*
X133399999Y-111305682D01*
X133400000Y-111305682D01*
X133400001Y-111305682D01*
X133452254Y-111298802D01*
X133556762Y-111285044D01*
X133702841Y-111224536D01*
X133828282Y-111128282D01*
X133924536Y-111002841D01*
X133985044Y-110856762D01*
X134005682Y-110700000D01*
X133985044Y-110543238D01*
X133985043Y-110543237D01*
X133984642Y-110540185D01*
X133995408Y-110471150D01*
X134041788Y-110418894D01*
X134107581Y-110400000D01*
X136688312Y-110400000D01*
X136755351Y-110419685D01*
X136775993Y-110436319D01*
X137257863Y-110918189D01*
X137261518Y-110922178D01*
X137287541Y-110953190D01*
X137287543Y-110953191D01*
X137287545Y-110953194D01*
X137287547Y-110953195D01*
X137287548Y-110953196D01*
X137322599Y-110973433D01*
X137327160Y-110976338D01*
X137360316Y-110999554D01*
X137360319Y-110999554D01*
X137365176Y-111001820D01*
X137381933Y-111008760D01*
X137386953Y-111010587D01*
X137386955Y-111010588D01*
X137422806Y-111016909D01*
X137426808Y-111017615D01*
X137432080Y-111018783D01*
X137471193Y-111029264D01*
X137511522Y-111025735D01*
X137516924Y-111025500D01*
X138925999Y-111025500D01*
X138993038Y-111045185D01*
X139001485Y-111051124D01*
X139097157Y-111124535D01*
X139097158Y-111124535D01*
X139097159Y-111124536D01*
X139243238Y-111185044D01*
X139321619Y-111195362D01*
X139399999Y-111205682D01*
X139400000Y-111205682D01*
X139400001Y-111205682D01*
X139464739Y-111197159D01*
X139556762Y-111185044D01*
X139702841Y-111124536D01*
X139828282Y-111028282D01*
X139924536Y-110902841D01*
X139985044Y-110756762D01*
X140005682Y-110600000D01*
X139997807Y-110540184D01*
X140004073Y-110500000D01*
X147394356Y-110500000D01*
X147414884Y-110721535D01*
X147414885Y-110721537D01*
X147475769Y-110935523D01*
X147475775Y-110935538D01*
X147574938Y-111134683D01*
X147574943Y-111134691D01*
X147709020Y-111312238D01*
X147873437Y-111462123D01*
X147873439Y-111462125D01*
X148062595Y-111579245D01*
X148062596Y-111579245D01*
X148062599Y-111579247D01*
X148270060Y-111659618D01*
X148488757Y-111700500D01*
X148488759Y-111700500D01*
X148711241Y-111700500D01*
X148711243Y-111700500D01*
X148929940Y-111659618D01*
X149137401Y-111579247D01*
X149326562Y-111462124D01*
X149490981Y-111312236D01*
X149625058Y-111134689D01*
X149724229Y-110935528D01*
X149785115Y-110721536D01*
X149805643Y-110500000D01*
X149804387Y-110486450D01*
X149785115Y-110278464D01*
X149785114Y-110278462D01*
X149783195Y-110271718D01*
X149724229Y-110064472D01*
X149724224Y-110064461D01*
X149625061Y-109865316D01*
X149625056Y-109865308D01*
X149490979Y-109687761D01*
X149326562Y-109537876D01*
X149326560Y-109537874D01*
X149137404Y-109420754D01*
X149137398Y-109420752D01*
X148929940Y-109340382D01*
X148711243Y-109299500D01*
X148488757Y-109299500D01*
X148270060Y-109340382D01*
X148189173Y-109371718D01*
X148062601Y-109420752D01*
X148062595Y-109420754D01*
X147873439Y-109537874D01*
X147873437Y-109537876D01*
X147709020Y-109687761D01*
X147574943Y-109865308D01*
X147574938Y-109865316D01*
X147475775Y-110064461D01*
X147475769Y-110064476D01*
X147414885Y-110278462D01*
X147414884Y-110278464D01*
X147394356Y-110499999D01*
X147394356Y-110500000D01*
X140004073Y-110500000D01*
X140008572Y-110471151D01*
X140054952Y-110418895D01*
X140120746Y-110400000D01*
X140300000Y-110400000D01*
X144900000Y-105800000D01*
X144900000Y-104751362D01*
X144919685Y-104684323D01*
X144936319Y-104663681D01*
X145063681Y-104536319D01*
X145125004Y-104502834D01*
X145151362Y-104500000D01*
X150575500Y-104500000D01*
X150642539Y-104519685D01*
G37*
%TD.AperFunction*%
%TD*%
M02*
