%TF.GenerationSoftware,KiCad,Pcbnew,7.0.5-0*%
%TF.CreationDate,2024-02-04T17:49:50-05:00*%
%TF.ProjectId,Cutdown_Test,43757464-6f77-46e5-9f54-6573742e6b69,rev?*%
%TF.SameCoordinates,Original*%
%TF.FileFunction,Copper,L2,Inr*%
%TF.FilePolarity,Positive*%
%FSLAX46Y46*%
G04 Gerber Fmt 4.6, Leading zero omitted, Abs format (unit mm)*
G04 Created by KiCad (PCBNEW 7.0.5-0) date 2024-02-04 17:49:50*
%MOMM*%
%LPD*%
G01*
G04 APERTURE LIST*
%TA.AperFunction,ComponentPad*%
%ADD10C,2.000000*%
%TD*%
%TA.AperFunction,ComponentPad*%
%ADD11C,0.900000*%
%TD*%
%TA.AperFunction,ComponentPad*%
%ADD12R,1.700000X1.700000*%
%TD*%
%TA.AperFunction,ComponentPad*%
%ADD13O,1.700000X1.700000*%
%TD*%
%TA.AperFunction,ViaPad*%
%ADD14C,1.000000*%
%TD*%
%TA.AperFunction,ViaPad*%
%ADD15C,0.800000*%
%TD*%
G04 APERTURE END LIST*
D10*
%TO.N,Net-(U1-VC)*%
%TO.C,TP8*%
X147500000Y-113800000D03*
%TD*%
D11*
%TO.N,GND*%
%TO.C,U1*%
X135050000Y-106650000D03*
X135050000Y-107850000D03*
X135050000Y-109050000D03*
X136450000Y-106650000D03*
X136450000Y-107850000D03*
X136450000Y-109050000D03*
%TD*%
D12*
%TO.N,+BATT*%
%TO.C,J2*%
X128500000Y-109900000D03*
D13*
%TO.N,GND*%
X125960000Y-109900000D03*
%TD*%
D10*
%TO.N,Net-(U1-FB)*%
%TO.C,TP6*%
X128800000Y-113500000D03*
%TD*%
%TO.N,+3V3*%
%TO.C,TP5*%
X148600000Y-110500000D03*
%TD*%
D12*
%TO.N,/POWR_OUT*%
%TO.C,J1*%
X126400000Y-104775000D03*
D13*
%TO.N,GND*%
X126400000Y-102235000D03*
%TD*%
D10*
%TO.N,GND*%
%TO.C,TP2*%
X126300000Y-97000000D03*
%TD*%
%TO.N,/EN*%
%TO.C,TP3*%
X145000000Y-93300000D03*
%TD*%
%TO.N,Net-(U1-PGOOD)*%
%TO.C,TP1*%
X125400000Y-113500000D03*
%TD*%
D14*
%TO.N,GND*%
X127800000Y-107200000D03*
D15*
X143600000Y-112000000D03*
X140400000Y-114500000D03*
X132700000Y-114900000D03*
X141800000Y-102500000D03*
X148600000Y-101000000D03*
X136000000Y-111500000D03*
%TO.N,Net-(U1-ISN)*%
X131400000Y-109800000D03*
X139400000Y-110600000D03*
X141100000Y-106500000D03*
%TO.N,+BATT*%
X147100000Y-105300000D03*
X149900000Y-108000000D03*
X148500000Y-105300000D03*
X147100000Y-108000000D03*
X148500000Y-108000000D03*
X148500000Y-106650000D03*
X149900000Y-106650000D03*
X149900000Y-105300000D03*
X147100000Y-106650000D03*
%TO.N,Net-(U1-VC)*%
X141600000Y-113300000D03*
%TO.N,/EN*%
X142800000Y-100700000D03*
X139900000Y-109600000D03*
%TO.N,/POWR_OUT*%
X133400000Y-110700000D03*
X126400000Y-107500000D03*
%TD*%
%TA.AperFunction,Conductor*%
%TO.N,GND*%
G36*
X148201884Y-87200613D02*
G01*
X148281335Y-87205418D01*
X148497540Y-87218496D01*
X148504974Y-87219400D01*
X148794483Y-87272455D01*
X148801753Y-87274246D01*
X149082775Y-87361816D01*
X149089745Y-87364460D01*
X149358156Y-87485263D01*
X149364782Y-87488741D01*
X149509021Y-87575935D01*
X149616673Y-87641013D01*
X149622832Y-87645265D01*
X149751556Y-87746114D01*
X149854524Y-87826784D01*
X149860124Y-87831745D01*
X150068253Y-88039874D01*
X150073215Y-88045475D01*
X150254733Y-88277165D01*
X150258988Y-88283329D01*
X150263305Y-88290470D01*
X150411258Y-88535217D01*
X150414741Y-88541852D01*
X150535533Y-88810239D01*
X150538186Y-88817234D01*
X150562865Y-88896429D01*
X150625751Y-89098240D01*
X150627544Y-89105516D01*
X150680599Y-89395025D01*
X150681503Y-89402464D01*
X150699387Y-89698114D01*
X150699500Y-89701859D01*
X150699500Y-105037591D01*
X150679815Y-105104630D01*
X150627011Y-105150385D01*
X150557853Y-105160329D01*
X150494297Y-105131304D01*
X150460939Y-105085044D01*
X150424536Y-104997159D01*
X150328282Y-104871718D01*
X150202841Y-104775464D01*
X150056762Y-104714956D01*
X150056760Y-104714955D01*
X149900001Y-104694318D01*
X149899999Y-104694318D01*
X149743239Y-104714955D01*
X149743237Y-104714956D01*
X149597160Y-104775463D01*
X149471718Y-104871718D01*
X149375463Y-104997160D01*
X149358716Y-105037591D01*
X149314957Y-105143237D01*
X149314561Y-105144192D01*
X149270720Y-105198595D01*
X149204426Y-105220660D01*
X149136727Y-105203381D01*
X149089116Y-105152244D01*
X149085439Y-105144192D01*
X149085044Y-105143238D01*
X149024536Y-104997159D01*
X148928282Y-104871718D01*
X148802841Y-104775464D01*
X148656762Y-104714956D01*
X148656760Y-104714955D01*
X148500001Y-104694318D01*
X148499999Y-104694318D01*
X148343239Y-104714955D01*
X148343237Y-104714956D01*
X148197160Y-104775463D01*
X148071718Y-104871718D01*
X147975463Y-104997160D01*
X147958716Y-105037591D01*
X147914957Y-105143237D01*
X147914561Y-105144192D01*
X147870720Y-105198595D01*
X147804426Y-105220660D01*
X147736727Y-105203381D01*
X147689116Y-105152244D01*
X147685439Y-105144192D01*
X147685044Y-105143238D01*
X147624536Y-104997159D01*
X147528282Y-104871718D01*
X147402841Y-104775464D01*
X147256762Y-104714956D01*
X147256760Y-104714955D01*
X147100001Y-104694318D01*
X147099999Y-104694318D01*
X146943239Y-104714955D01*
X146943237Y-104714956D01*
X146797160Y-104775463D01*
X146671718Y-104871718D01*
X146575463Y-104997160D01*
X146514956Y-105143237D01*
X146514955Y-105143239D01*
X146494318Y-105299998D01*
X146494318Y-105300001D01*
X146514955Y-105456760D01*
X146514956Y-105456762D01*
X146575464Y-105602841D01*
X146671718Y-105728282D01*
X146797159Y-105824536D01*
X146860401Y-105850732D01*
X146883836Y-105860439D01*
X146938239Y-105904280D01*
X146960304Y-105970574D01*
X146943025Y-106038274D01*
X146891887Y-106085884D01*
X146883836Y-106089561D01*
X146797160Y-106125463D01*
X146671718Y-106221718D01*
X146575463Y-106347160D01*
X146514956Y-106493237D01*
X146514955Y-106493239D01*
X146494318Y-106649998D01*
X146494318Y-106650001D01*
X146514955Y-106806760D01*
X146514956Y-106806762D01*
X146575464Y-106952841D01*
X146671718Y-107078282D01*
X146797159Y-107174536D01*
X146851776Y-107197159D01*
X146883836Y-107210439D01*
X146938239Y-107254280D01*
X146960304Y-107320574D01*
X146943025Y-107388274D01*
X146891887Y-107435884D01*
X146883836Y-107439561D01*
X146797160Y-107475463D01*
X146671718Y-107571718D01*
X146575463Y-107697160D01*
X146514956Y-107843237D01*
X146514955Y-107843239D01*
X146494318Y-107999998D01*
X146494318Y-108000001D01*
X146514955Y-108156760D01*
X146514956Y-108156762D01*
X146575464Y-108302841D01*
X146671718Y-108428282D01*
X146797159Y-108524536D01*
X146943238Y-108585044D01*
X147021619Y-108595362D01*
X147099999Y-108605682D01*
X147100000Y-108605682D01*
X147100001Y-108605682D01*
X147152254Y-108598802D01*
X147256762Y-108585044D01*
X147402841Y-108524536D01*
X147528282Y-108428282D01*
X147624536Y-108302841D01*
X147685044Y-108156762D01*
X147685044Y-108156761D01*
X147685439Y-108155808D01*
X147729280Y-108101404D01*
X147795574Y-108079339D01*
X147863273Y-108096618D01*
X147910884Y-108147755D01*
X147914561Y-108155808D01*
X147975462Y-108302838D01*
X147975463Y-108302839D01*
X147975464Y-108302841D01*
X148071718Y-108428282D01*
X148197159Y-108524536D01*
X148343238Y-108585044D01*
X148421619Y-108595363D01*
X148499999Y-108605682D01*
X148500000Y-108605682D01*
X148500001Y-108605682D01*
X148552253Y-108598802D01*
X148656762Y-108585044D01*
X148802841Y-108524536D01*
X148928282Y-108428282D01*
X149024536Y-108302841D01*
X149085044Y-108156762D01*
X149085044Y-108156761D01*
X149085439Y-108155808D01*
X149129280Y-108101404D01*
X149195574Y-108079339D01*
X149263273Y-108096618D01*
X149310884Y-108147755D01*
X149314561Y-108155808D01*
X149375462Y-108302838D01*
X149375463Y-108302839D01*
X149375464Y-108302841D01*
X149471718Y-108428282D01*
X149597159Y-108524536D01*
X149743238Y-108585044D01*
X149821619Y-108595363D01*
X149899999Y-108605682D01*
X149900000Y-108605682D01*
X149900001Y-108605682D01*
X149952253Y-108598802D01*
X150056762Y-108585044D01*
X150202841Y-108524536D01*
X150328282Y-108428282D01*
X150424536Y-108302841D01*
X150460939Y-108214955D01*
X150504780Y-108160552D01*
X150571074Y-108138487D01*
X150638773Y-108155766D01*
X150686384Y-108206903D01*
X150699500Y-108262408D01*
X150699500Y-118198139D01*
X150699387Y-118201884D01*
X150681503Y-118497535D01*
X150680599Y-118504974D01*
X150627544Y-118794483D01*
X150625751Y-118801759D01*
X150538191Y-119082753D01*
X150535533Y-119089760D01*
X150414741Y-119358147D01*
X150411258Y-119364782D01*
X150258991Y-119616666D01*
X150254733Y-119622834D01*
X150073215Y-119854524D01*
X150068246Y-119860133D01*
X149860133Y-120068246D01*
X149854524Y-120073215D01*
X149622834Y-120254733D01*
X149616666Y-120258991D01*
X149364782Y-120411258D01*
X149358147Y-120414741D01*
X149089760Y-120535533D01*
X149082760Y-120538188D01*
X148958629Y-120576868D01*
X148801759Y-120625751D01*
X148794483Y-120627544D01*
X148504974Y-120680599D01*
X148497535Y-120681503D01*
X148201885Y-120699387D01*
X148198140Y-120699500D01*
X126301860Y-120699500D01*
X126298115Y-120699387D01*
X126002464Y-120681503D01*
X125995025Y-120680599D01*
X125705516Y-120627544D01*
X125698240Y-120625751D01*
X125619666Y-120601266D01*
X125417234Y-120538186D01*
X125410245Y-120535535D01*
X125141849Y-120414739D01*
X125135217Y-120411258D01*
X124883333Y-120258991D01*
X124877165Y-120254733D01*
X124645475Y-120073215D01*
X124639874Y-120068253D01*
X124431745Y-119860124D01*
X124426784Y-119854524D01*
X124245266Y-119622834D01*
X124241013Y-119616673D01*
X124161797Y-119485633D01*
X124088741Y-119364782D01*
X124085263Y-119358156D01*
X123964460Y-119089745D01*
X123961816Y-119082775D01*
X123874246Y-118801753D01*
X123872455Y-118794483D01*
X123819400Y-118504974D01*
X123818496Y-118497535D01*
X123814211Y-118426692D01*
X123800611Y-118201853D01*
X123800555Y-118200001D01*
X124994532Y-118200001D01*
X125014364Y-118426686D01*
X125014366Y-118426697D01*
X125073258Y-118646488D01*
X125073261Y-118646497D01*
X125169431Y-118852732D01*
X125169432Y-118852734D01*
X125299954Y-119039141D01*
X125460858Y-119200045D01*
X125460861Y-119200047D01*
X125647266Y-119330568D01*
X125853504Y-119426739D01*
X126073308Y-119485635D01*
X126243214Y-119500499D01*
X126243215Y-119500500D01*
X126243216Y-119500500D01*
X126356785Y-119500500D01*
X126356785Y-119500499D01*
X126526692Y-119485635D01*
X126746496Y-119426739D01*
X126952734Y-119330568D01*
X127139139Y-119200047D01*
X127300047Y-119039139D01*
X127430568Y-118852734D01*
X127526739Y-118646496D01*
X127585635Y-118426692D01*
X127605468Y-118200001D01*
X146894532Y-118200001D01*
X146914364Y-118426686D01*
X146914366Y-118426697D01*
X146973258Y-118646488D01*
X146973261Y-118646497D01*
X147069431Y-118852732D01*
X147069432Y-118852734D01*
X147199954Y-119039141D01*
X147360858Y-119200045D01*
X147360861Y-119200047D01*
X147547266Y-119330568D01*
X147753504Y-119426739D01*
X147973308Y-119485635D01*
X148143214Y-119500499D01*
X148143215Y-119500500D01*
X148143216Y-119500500D01*
X148256785Y-119500500D01*
X148256785Y-119500499D01*
X148426692Y-119485635D01*
X148646496Y-119426739D01*
X148852734Y-119330568D01*
X149039139Y-119200047D01*
X149200047Y-119039139D01*
X149330568Y-118852734D01*
X149426739Y-118646496D01*
X149485635Y-118426692D01*
X149505468Y-118200000D01*
X149485635Y-117973308D01*
X149426739Y-117753504D01*
X149330568Y-117547266D01*
X149200047Y-117360861D01*
X149200045Y-117360858D01*
X149039141Y-117199954D01*
X148852734Y-117069432D01*
X148852732Y-117069431D01*
X148646497Y-116973261D01*
X148646488Y-116973258D01*
X148426697Y-116914366D01*
X148426687Y-116914364D01*
X148256785Y-116899500D01*
X148256784Y-116899500D01*
X148143216Y-116899500D01*
X148143215Y-116899500D01*
X147973312Y-116914364D01*
X147973302Y-116914366D01*
X147753511Y-116973258D01*
X147753502Y-116973261D01*
X147547267Y-117069431D01*
X147547265Y-117069432D01*
X147360858Y-117199954D01*
X147199954Y-117360858D01*
X147069432Y-117547265D01*
X147069431Y-117547267D01*
X146973261Y-117753502D01*
X146973258Y-117753511D01*
X146914366Y-117973302D01*
X146914364Y-117973313D01*
X146894532Y-118199998D01*
X146894532Y-118200001D01*
X127605468Y-118200001D01*
X127605468Y-118200000D01*
X127585635Y-117973308D01*
X127526739Y-117753504D01*
X127430568Y-117547266D01*
X127300047Y-117360861D01*
X127300045Y-117360858D01*
X127139141Y-117199954D01*
X126952734Y-117069432D01*
X126952732Y-117069431D01*
X126746497Y-116973261D01*
X126746488Y-116973258D01*
X126526697Y-116914366D01*
X126526687Y-116914364D01*
X126356785Y-116899500D01*
X126356784Y-116899500D01*
X126243216Y-116899500D01*
X126243215Y-116899500D01*
X126073312Y-116914364D01*
X126073302Y-116914366D01*
X125853511Y-116973258D01*
X125853502Y-116973261D01*
X125647267Y-117069431D01*
X125647265Y-117069432D01*
X125460858Y-117199954D01*
X125299954Y-117360858D01*
X125169432Y-117547265D01*
X125169431Y-117547267D01*
X125073261Y-117753502D01*
X125073258Y-117753511D01*
X125014366Y-117973302D01*
X125014364Y-117973313D01*
X124994532Y-118199998D01*
X124994532Y-118200001D01*
X123800555Y-118200001D01*
X123800500Y-118198172D01*
X123800500Y-113500000D01*
X124194357Y-113500000D01*
X124214884Y-113721535D01*
X124214885Y-113721537D01*
X124275769Y-113935523D01*
X124275775Y-113935538D01*
X124374938Y-114134683D01*
X124374943Y-114134691D01*
X124509020Y-114312238D01*
X124673437Y-114462123D01*
X124673439Y-114462125D01*
X124862595Y-114579245D01*
X124862596Y-114579245D01*
X124862599Y-114579247D01*
X125070060Y-114659618D01*
X125288757Y-114700500D01*
X125288759Y-114700500D01*
X125511241Y-114700500D01*
X125511243Y-114700500D01*
X125729940Y-114659618D01*
X125937401Y-114579247D01*
X126126562Y-114462124D01*
X126290981Y-114312236D01*
X126425058Y-114134689D01*
X126524229Y-113935528D01*
X126585115Y-113721536D01*
X126605643Y-113500000D01*
X127594357Y-113500000D01*
X127614884Y-113721535D01*
X127614885Y-113721537D01*
X127675769Y-113935523D01*
X127675775Y-113935538D01*
X127774938Y-114134683D01*
X127774943Y-114134691D01*
X127909020Y-114312238D01*
X128073437Y-114462123D01*
X128073439Y-114462125D01*
X128262595Y-114579245D01*
X128262596Y-114579245D01*
X128262599Y-114579247D01*
X128470060Y-114659618D01*
X128688757Y-114700500D01*
X128688759Y-114700500D01*
X128911241Y-114700500D01*
X128911243Y-114700500D01*
X129129940Y-114659618D01*
X129337401Y-114579247D01*
X129526562Y-114462124D01*
X129690981Y-114312236D01*
X129825058Y-114134689D01*
X129924229Y-113935528D01*
X129985115Y-113721536D01*
X130005643Y-113500000D01*
X130001636Y-113456762D01*
X129987111Y-113300001D01*
X140994318Y-113300001D01*
X141014955Y-113456760D01*
X141014956Y-113456762D01*
X141075464Y-113602841D01*
X141171718Y-113728282D01*
X141297159Y-113824536D01*
X141443238Y-113885044D01*
X141521618Y-113895362D01*
X141599999Y-113905682D01*
X141600000Y-113905682D01*
X141600001Y-113905682D01*
X141652254Y-113898802D01*
X141756762Y-113885044D01*
X141902841Y-113824536D01*
X141934817Y-113800000D01*
X146294356Y-113800000D01*
X146314884Y-114021535D01*
X146314885Y-114021537D01*
X146375769Y-114235523D01*
X146375775Y-114235538D01*
X146474938Y-114434683D01*
X146474943Y-114434691D01*
X146609020Y-114612238D01*
X146773437Y-114762123D01*
X146773439Y-114762125D01*
X146962595Y-114879245D01*
X146962596Y-114879245D01*
X146962599Y-114879247D01*
X147170060Y-114959618D01*
X147388757Y-115000500D01*
X147388759Y-115000500D01*
X147611241Y-115000500D01*
X147611243Y-115000500D01*
X147829940Y-114959618D01*
X148037401Y-114879247D01*
X148226562Y-114762124D01*
X148390981Y-114612236D01*
X148525058Y-114434689D01*
X148624229Y-114235528D01*
X148685115Y-114021536D01*
X148705643Y-113800000D01*
X148698997Y-113728282D01*
X148685115Y-113578464D01*
X148685114Y-113578462D01*
X148662789Y-113499999D01*
X148624229Y-113364472D01*
X148624224Y-113364461D01*
X148525061Y-113165316D01*
X148525056Y-113165308D01*
X148390979Y-112987761D01*
X148226562Y-112837876D01*
X148226560Y-112837874D01*
X148037404Y-112720754D01*
X148037398Y-112720752D01*
X148022437Y-112714956D01*
X147829940Y-112640382D01*
X147611243Y-112599500D01*
X147388757Y-112599500D01*
X147170060Y-112640382D01*
X147047761Y-112687761D01*
X146962601Y-112720752D01*
X146962595Y-112720754D01*
X146773439Y-112837874D01*
X146773437Y-112837876D01*
X146609020Y-112987761D01*
X146474943Y-113165308D01*
X146474938Y-113165316D01*
X146375775Y-113364461D01*
X146375769Y-113364476D01*
X146314885Y-113578462D01*
X146314884Y-113578464D01*
X146294356Y-113799999D01*
X146294356Y-113800000D01*
X141934817Y-113800000D01*
X142028282Y-113728282D01*
X142124536Y-113602841D01*
X142185044Y-113456762D01*
X142205682Y-113300000D01*
X142202846Y-113278462D01*
X142187950Y-113165311D01*
X142185044Y-113143238D01*
X142124536Y-112997159D01*
X142028282Y-112871718D01*
X141902841Y-112775464D01*
X141756762Y-112714956D01*
X141756760Y-112714955D01*
X141600001Y-112694318D01*
X141599999Y-112694318D01*
X141443239Y-112714955D01*
X141443237Y-112714956D01*
X141297160Y-112775463D01*
X141171718Y-112871718D01*
X141075463Y-112997160D01*
X141014956Y-113143237D01*
X141014955Y-113143239D01*
X140994318Y-113299998D01*
X140994318Y-113300001D01*
X129987111Y-113300001D01*
X129985115Y-113278464D01*
X129985114Y-113278462D01*
X129952921Y-113165316D01*
X129924229Y-113064472D01*
X129924224Y-113064461D01*
X129825061Y-112865316D01*
X129825056Y-112865308D01*
X129690979Y-112687761D01*
X129526562Y-112537876D01*
X129526560Y-112537874D01*
X129337404Y-112420754D01*
X129337398Y-112420752D01*
X129129940Y-112340382D01*
X128911243Y-112299500D01*
X128688757Y-112299500D01*
X128470060Y-112340382D01*
X128338864Y-112391207D01*
X128262601Y-112420752D01*
X128262595Y-112420754D01*
X128073439Y-112537874D01*
X128073437Y-112537876D01*
X127909020Y-112687761D01*
X127774943Y-112865308D01*
X127774938Y-112865316D01*
X127675775Y-113064461D01*
X127675769Y-113064476D01*
X127614885Y-113278462D01*
X127614884Y-113278464D01*
X127594357Y-113499999D01*
X127594357Y-113500000D01*
X126605643Y-113500000D01*
X126601636Y-113456762D01*
X126585115Y-113278464D01*
X126585114Y-113278462D01*
X126552921Y-113165316D01*
X126524229Y-113064472D01*
X126524224Y-113064461D01*
X126425061Y-112865316D01*
X126425056Y-112865308D01*
X126290979Y-112687761D01*
X126126562Y-112537876D01*
X126126560Y-112537874D01*
X125937404Y-112420754D01*
X125937398Y-112420752D01*
X125729940Y-112340382D01*
X125511243Y-112299500D01*
X125288757Y-112299500D01*
X125070060Y-112340382D01*
X124938864Y-112391207D01*
X124862601Y-112420752D01*
X124862595Y-112420754D01*
X124673439Y-112537874D01*
X124673437Y-112537876D01*
X124509020Y-112687761D01*
X124374943Y-112865308D01*
X124374938Y-112865316D01*
X124275775Y-113064461D01*
X124275769Y-113064476D01*
X124214885Y-113278462D01*
X124214884Y-113278464D01*
X124194357Y-113499999D01*
X124194357Y-113500000D01*
X123800500Y-113500000D01*
X123800500Y-110769752D01*
X127449500Y-110769752D01*
X127461131Y-110828229D01*
X127461132Y-110828230D01*
X127505447Y-110894552D01*
X127571769Y-110938867D01*
X127571770Y-110938868D01*
X127630247Y-110950499D01*
X127630250Y-110950500D01*
X127630252Y-110950500D01*
X129369750Y-110950500D01*
X129369751Y-110950499D01*
X129384568Y-110947552D01*
X129428229Y-110938868D01*
X129428229Y-110938867D01*
X129428231Y-110938867D01*
X129494552Y-110894552D01*
X129538867Y-110828231D01*
X129538867Y-110828229D01*
X129538868Y-110828229D01*
X129550499Y-110769752D01*
X129550500Y-110769750D01*
X129550500Y-110700001D01*
X132794318Y-110700001D01*
X132814955Y-110856760D01*
X132814956Y-110856762D01*
X132875464Y-111002841D01*
X132971718Y-111128282D01*
X133097159Y-111224536D01*
X133243238Y-111285044D01*
X133321619Y-111295362D01*
X133399999Y-111305682D01*
X133400000Y-111305682D01*
X133400001Y-111305682D01*
X133452254Y-111298802D01*
X133556762Y-111285044D01*
X133702841Y-111224536D01*
X133828282Y-111128282D01*
X133924536Y-111002841D01*
X133985044Y-110856762D01*
X134005682Y-110700000D01*
X133992517Y-110600001D01*
X138794318Y-110600001D01*
X138814955Y-110756760D01*
X138814956Y-110756762D01*
X138872030Y-110894552D01*
X138875464Y-110902841D01*
X138971718Y-111028282D01*
X139097159Y-111124536D01*
X139243238Y-111185044D01*
X139321619Y-111195362D01*
X139399999Y-111205682D01*
X139400000Y-111205682D01*
X139400001Y-111205682D01*
X139452253Y-111198802D01*
X139556762Y-111185044D01*
X139702841Y-111124536D01*
X139828282Y-111028282D01*
X139924536Y-110902841D01*
X139985044Y-110756762D01*
X140005682Y-110600000D01*
X139992517Y-110500000D01*
X147394356Y-110500000D01*
X147414884Y-110721535D01*
X147414885Y-110721537D01*
X147475769Y-110935523D01*
X147475775Y-110935538D01*
X147574938Y-111134683D01*
X147574943Y-111134691D01*
X147709020Y-111312238D01*
X147873437Y-111462123D01*
X147873439Y-111462125D01*
X148062595Y-111579245D01*
X148062596Y-111579245D01*
X148062599Y-111579247D01*
X148270060Y-111659618D01*
X148488757Y-111700500D01*
X148488759Y-111700500D01*
X148711241Y-111700500D01*
X148711243Y-111700500D01*
X148929940Y-111659618D01*
X149137401Y-111579247D01*
X149326562Y-111462124D01*
X149490981Y-111312236D01*
X149625058Y-111134689D01*
X149724229Y-110935528D01*
X149785115Y-110721536D01*
X149805643Y-110500000D01*
X149785115Y-110278464D01*
X149724229Y-110064472D01*
X149724224Y-110064461D01*
X149625061Y-109865316D01*
X149625056Y-109865308D01*
X149490979Y-109687761D01*
X149326562Y-109537876D01*
X149326560Y-109537874D01*
X149137404Y-109420754D01*
X149137398Y-109420752D01*
X148929940Y-109340382D01*
X148711243Y-109299500D01*
X148488757Y-109299500D01*
X148270060Y-109340382D01*
X148189173Y-109371718D01*
X148062601Y-109420752D01*
X148062595Y-109420754D01*
X147873439Y-109537874D01*
X147873437Y-109537876D01*
X147709020Y-109687761D01*
X147574943Y-109865308D01*
X147574938Y-109865316D01*
X147475775Y-110064461D01*
X147475769Y-110064476D01*
X147414885Y-110278462D01*
X147414884Y-110278464D01*
X147394356Y-110499999D01*
X147394356Y-110500000D01*
X139992517Y-110500000D01*
X139985044Y-110443238D01*
X139949176Y-110356647D01*
X139941708Y-110287178D01*
X139972983Y-110224699D01*
X140033072Y-110189047D01*
X140047549Y-110186256D01*
X140056762Y-110185044D01*
X140202841Y-110124536D01*
X140328282Y-110028282D01*
X140424536Y-109902841D01*
X140485044Y-109756762D01*
X140505682Y-109600000D01*
X140485044Y-109443238D01*
X140424536Y-109297159D01*
X140328282Y-109171718D01*
X140202841Y-109075464D01*
X140056762Y-109014956D01*
X140056760Y-109014955D01*
X139900001Y-108994318D01*
X139899999Y-108994318D01*
X139743239Y-109014955D01*
X139743237Y-109014956D01*
X139597160Y-109075463D01*
X139471718Y-109171718D01*
X139375463Y-109297160D01*
X139314956Y-109443237D01*
X139314955Y-109443239D01*
X139294318Y-109599998D01*
X139294318Y-109600001D01*
X139314955Y-109756760D01*
X139314957Y-109756765D01*
X139350822Y-109843352D01*
X139358291Y-109912821D01*
X139327015Y-109975300D01*
X139266926Y-110010952D01*
X139252452Y-110013742D01*
X139243244Y-110014954D01*
X139243237Y-110014956D01*
X139097160Y-110075463D01*
X138971718Y-110171718D01*
X138875463Y-110297160D01*
X138814956Y-110443237D01*
X138814955Y-110443239D01*
X138794318Y-110599998D01*
X138794318Y-110600001D01*
X133992517Y-110600001D01*
X133985044Y-110543238D01*
X133924536Y-110397159D01*
X133828282Y-110271718D01*
X133702841Y-110175464D01*
X133693797Y-110171718D01*
X133556762Y-110114956D01*
X133556760Y-110114955D01*
X133400001Y-110094318D01*
X133399999Y-110094318D01*
X133243239Y-110114955D01*
X133243237Y-110114956D01*
X133097160Y-110175463D01*
X132971718Y-110271718D01*
X132875463Y-110397160D01*
X132814956Y-110543237D01*
X132814955Y-110543239D01*
X132794318Y-110699998D01*
X132794318Y-110700001D01*
X129550500Y-110700001D01*
X129550500Y-109800001D01*
X130794318Y-109800001D01*
X130814955Y-109956760D01*
X130814956Y-109956762D01*
X130871933Y-110094318D01*
X130875464Y-110102841D01*
X130971718Y-110228282D01*
X131097159Y-110324536D01*
X131243238Y-110385044D01*
X131321619Y-110395362D01*
X131399999Y-110405682D01*
X131400000Y-110405682D01*
X131400001Y-110405682D01*
X131464739Y-110397159D01*
X131556762Y-110385044D01*
X131702841Y-110324536D01*
X131828282Y-110228282D01*
X131924536Y-110102841D01*
X131985044Y-109956762D01*
X132005682Y-109800000D01*
X131999989Y-109756760D01*
X131985044Y-109643239D01*
X131985044Y-109643238D01*
X131924536Y-109497159D01*
X131828282Y-109371718D01*
X131702841Y-109275464D01*
X131556762Y-109214956D01*
X131556760Y-109214955D01*
X131400001Y-109194318D01*
X131399999Y-109194318D01*
X131243239Y-109214955D01*
X131243237Y-109214956D01*
X131097160Y-109275463D01*
X130971718Y-109371718D01*
X130875463Y-109497160D01*
X130814956Y-109643237D01*
X130814955Y-109643239D01*
X130794318Y-109799998D01*
X130794318Y-109800001D01*
X129550500Y-109800001D01*
X129550500Y-109030249D01*
X129550499Y-109030247D01*
X129538868Y-108971770D01*
X129538867Y-108971769D01*
X129494552Y-108905447D01*
X129428230Y-108861132D01*
X129428229Y-108861131D01*
X129369752Y-108849500D01*
X129369748Y-108849500D01*
X127630252Y-108849500D01*
X127630247Y-108849500D01*
X127571770Y-108861131D01*
X127571769Y-108861132D01*
X127505447Y-108905447D01*
X127461132Y-108971769D01*
X127461131Y-108971770D01*
X127449500Y-109030247D01*
X127449500Y-110769752D01*
X123800500Y-110769752D01*
X123800500Y-107500001D01*
X125794318Y-107500001D01*
X125814955Y-107656760D01*
X125814956Y-107656762D01*
X125848436Y-107737591D01*
X125875464Y-107802841D01*
X125971718Y-107928282D01*
X126097159Y-108024536D01*
X126243238Y-108085044D01*
X126321619Y-108095362D01*
X126399999Y-108105682D01*
X126400000Y-108105682D01*
X126400001Y-108105682D01*
X126468848Y-108096618D01*
X126556762Y-108085044D01*
X126702841Y-108024536D01*
X126828282Y-107928282D01*
X126924536Y-107802841D01*
X126985044Y-107656762D01*
X127005682Y-107500000D01*
X126985044Y-107343238D01*
X126924536Y-107197159D01*
X126828282Y-107071718D01*
X126702841Y-106975464D01*
X126648224Y-106952841D01*
X126556762Y-106914956D01*
X126556760Y-106914955D01*
X126400001Y-106894318D01*
X126399999Y-106894318D01*
X126243239Y-106914955D01*
X126243237Y-106914956D01*
X126097160Y-106975463D01*
X125971718Y-107071718D01*
X125875463Y-107197160D01*
X125814956Y-107343237D01*
X125814955Y-107343239D01*
X125794318Y-107499998D01*
X125794318Y-107500001D01*
X123800500Y-107500001D01*
X123800500Y-106500001D01*
X140494318Y-106500001D01*
X140514955Y-106656760D01*
X140514956Y-106656762D01*
X140575464Y-106802841D01*
X140671718Y-106928282D01*
X140797159Y-107024536D01*
X140943238Y-107085044D01*
X141021619Y-107095363D01*
X141099999Y-107105682D01*
X141100000Y-107105682D01*
X141100001Y-107105682D01*
X141152253Y-107098802D01*
X141256762Y-107085044D01*
X141402841Y-107024536D01*
X141528282Y-106928282D01*
X141624536Y-106802841D01*
X141685044Y-106656762D01*
X141705682Y-106500000D01*
X141704917Y-106494192D01*
X141685044Y-106343239D01*
X141685044Y-106343238D01*
X141624536Y-106197159D01*
X141528282Y-106071718D01*
X141402841Y-105975464D01*
X141256762Y-105914956D01*
X141256760Y-105914955D01*
X141100001Y-105894318D01*
X141099999Y-105894318D01*
X140943239Y-105914955D01*
X140943237Y-105914956D01*
X140797160Y-105975463D01*
X140671718Y-106071718D01*
X140575463Y-106197160D01*
X140514956Y-106343237D01*
X140514955Y-106343239D01*
X140494318Y-106499998D01*
X140494318Y-106500001D01*
X123800500Y-106500001D01*
X123800500Y-105644752D01*
X125349500Y-105644752D01*
X125361131Y-105703229D01*
X125361132Y-105703230D01*
X125405447Y-105769552D01*
X125471769Y-105813867D01*
X125471770Y-105813868D01*
X125530247Y-105825499D01*
X125530250Y-105825500D01*
X125530252Y-105825500D01*
X127269750Y-105825500D01*
X127269751Y-105825499D01*
X127284568Y-105822552D01*
X127328229Y-105813868D01*
X127328229Y-105813867D01*
X127328231Y-105813867D01*
X127394552Y-105769552D01*
X127438867Y-105703231D01*
X127438867Y-105703229D01*
X127438868Y-105703229D01*
X127450499Y-105644752D01*
X127450500Y-105644750D01*
X127450500Y-103905249D01*
X127450499Y-103905247D01*
X127438868Y-103846770D01*
X127438867Y-103846769D01*
X127394552Y-103780447D01*
X127328230Y-103736132D01*
X127328229Y-103736131D01*
X127269752Y-103724500D01*
X127269748Y-103724500D01*
X125530252Y-103724500D01*
X125530247Y-103724500D01*
X125471770Y-103736131D01*
X125471769Y-103736132D01*
X125405447Y-103780447D01*
X125361132Y-103846769D01*
X125361131Y-103846770D01*
X125349500Y-103905247D01*
X125349500Y-105644752D01*
X123800500Y-105644752D01*
X123800500Y-103259176D01*
X145849257Y-103259176D01*
X145859490Y-103421819D01*
X145909848Y-103576807D01*
X145909849Y-103576810D01*
X145997169Y-103714405D01*
X146115962Y-103825958D01*
X146115970Y-103825964D01*
X146258769Y-103904468D01*
X146258773Y-103904470D01*
X146416618Y-103944998D01*
X146416622Y-103944998D01*
X146538674Y-103944998D01*
X146538676Y-103944998D01*
X146538681Y-103944997D01*
X146538685Y-103944997D01*
X146551813Y-103943338D01*
X146659780Y-103929699D01*
X146811301Y-103869708D01*
X146943142Y-103773919D01*
X147047020Y-103648353D01*
X147116407Y-103500898D01*
X147146943Y-103340820D01*
X147136710Y-103178177D01*
X147086352Y-103023188D01*
X147063373Y-102986979D01*
X146999030Y-102885590D01*
X146880237Y-102774037D01*
X146880229Y-102774031D01*
X146737430Y-102695527D01*
X146737422Y-102695524D01*
X146579583Y-102654998D01*
X146579582Y-102654998D01*
X146457524Y-102654998D01*
X146457514Y-102654998D01*
X146336420Y-102670297D01*
X146336414Y-102670298D01*
X146184902Y-102730286D01*
X146184899Y-102730287D01*
X146184899Y-102730288D01*
X146124685Y-102774037D01*
X146053057Y-102826078D01*
X145949178Y-102951645D01*
X145879793Y-103099097D01*
X145879793Y-103099098D01*
X145849257Y-103259173D01*
X145849257Y-103259176D01*
X123800500Y-103259176D01*
X123800500Y-100700001D01*
X142194318Y-100700001D01*
X142214955Y-100856760D01*
X142214956Y-100856762D01*
X142275464Y-101002841D01*
X142371718Y-101128282D01*
X142497159Y-101224536D01*
X142643238Y-101285044D01*
X142721619Y-101295363D01*
X142799999Y-101305682D01*
X142800000Y-101305682D01*
X142800001Y-101305682D01*
X142852253Y-101298802D01*
X142956762Y-101285044D01*
X143102841Y-101224536D01*
X143228282Y-101128282D01*
X143324536Y-101002841D01*
X143385044Y-100856762D01*
X143405682Y-100700000D01*
X143385044Y-100543238D01*
X143324536Y-100397159D01*
X143228282Y-100271718D01*
X143102841Y-100175464D01*
X142956762Y-100114956D01*
X142956760Y-100114955D01*
X142800001Y-100094318D01*
X142799999Y-100094318D01*
X142643239Y-100114955D01*
X142643237Y-100114956D01*
X142497160Y-100175463D01*
X142371718Y-100271718D01*
X142275463Y-100397160D01*
X142214956Y-100543237D01*
X142214955Y-100543239D01*
X142194318Y-100699998D01*
X142194318Y-100700001D01*
X123800500Y-100700001D01*
X123800500Y-96459180D01*
X145849257Y-96459180D01*
X145859490Y-96621823D01*
X145909848Y-96776811D01*
X145909849Y-96776814D01*
X145997169Y-96914409D01*
X146115962Y-97025962D01*
X146115970Y-97025968D01*
X146258769Y-97104472D01*
X146258773Y-97104474D01*
X146416618Y-97145002D01*
X146416622Y-97145002D01*
X146538674Y-97145002D01*
X146538676Y-97145002D01*
X146538681Y-97145001D01*
X146538685Y-97145001D01*
X146551813Y-97143342D01*
X146659780Y-97129703D01*
X146811301Y-97069712D01*
X146943142Y-96973923D01*
X147047020Y-96848357D01*
X147116407Y-96700902D01*
X147146943Y-96540824D01*
X147136710Y-96378181D01*
X147086352Y-96223192D01*
X147063373Y-96186983D01*
X146999030Y-96085594D01*
X146880237Y-95974041D01*
X146880229Y-95974035D01*
X146737430Y-95895531D01*
X146737422Y-95895528D01*
X146579583Y-95855002D01*
X146579582Y-95855002D01*
X146457524Y-95855002D01*
X146457514Y-95855002D01*
X146336420Y-95870301D01*
X146336414Y-95870302D01*
X146184902Y-95930290D01*
X146184899Y-95930291D01*
X146184899Y-95930292D01*
X146124685Y-95974041D01*
X146053057Y-96026082D01*
X145949178Y-96151649D01*
X145879793Y-96299101D01*
X145879793Y-96299102D01*
X145849257Y-96459177D01*
X145849257Y-96459180D01*
X123800500Y-96459180D01*
X123800500Y-93300000D01*
X143794357Y-93300000D01*
X143814884Y-93521535D01*
X143814885Y-93521537D01*
X143875769Y-93735523D01*
X143875775Y-93735538D01*
X143974938Y-93934683D01*
X143974943Y-93934691D01*
X144109020Y-94112238D01*
X144273437Y-94262123D01*
X144273439Y-94262125D01*
X144462595Y-94379245D01*
X144462596Y-94379245D01*
X144462599Y-94379247D01*
X144670060Y-94459618D01*
X144888757Y-94500500D01*
X144888759Y-94500500D01*
X145111241Y-94500500D01*
X145111243Y-94500500D01*
X145329940Y-94459618D01*
X145537401Y-94379247D01*
X145726562Y-94262124D01*
X145890981Y-94112236D01*
X146025058Y-93934689D01*
X146124229Y-93735528D01*
X146185115Y-93521536D01*
X146205643Y-93300000D01*
X146185115Y-93078464D01*
X146124229Y-92864472D01*
X146124224Y-92864461D01*
X146025061Y-92665316D01*
X146025056Y-92665308D01*
X145890979Y-92487761D01*
X145726562Y-92337876D01*
X145726560Y-92337874D01*
X145537404Y-92220754D01*
X145537398Y-92220752D01*
X145329940Y-92140382D01*
X145111243Y-92099500D01*
X144888757Y-92099500D01*
X144670060Y-92140382D01*
X144538864Y-92191207D01*
X144462601Y-92220752D01*
X144462595Y-92220754D01*
X144273439Y-92337874D01*
X144273437Y-92337876D01*
X144109020Y-92487761D01*
X143974943Y-92665308D01*
X143974938Y-92665316D01*
X143875775Y-92864461D01*
X143875769Y-92864476D01*
X143814885Y-93078462D01*
X143814884Y-93078464D01*
X143794357Y-93299999D01*
X143794357Y-93300000D01*
X123800500Y-93300000D01*
X123800500Y-89701876D01*
X123800557Y-89700001D01*
X124994532Y-89700001D01*
X125014364Y-89926686D01*
X125014366Y-89926697D01*
X125073258Y-90146488D01*
X125073261Y-90146497D01*
X125169431Y-90352732D01*
X125169432Y-90352734D01*
X125299954Y-90539141D01*
X125460858Y-90700045D01*
X125460861Y-90700047D01*
X125647266Y-90830568D01*
X125853504Y-90926739D01*
X126073308Y-90985635D01*
X126243214Y-91000499D01*
X126243215Y-91000500D01*
X126243216Y-91000500D01*
X126356785Y-91000500D01*
X126356785Y-91000499D01*
X126526692Y-90985635D01*
X126746496Y-90926739D01*
X126952734Y-90830568D01*
X127139139Y-90700047D01*
X127300047Y-90539139D01*
X127430568Y-90352734D01*
X127526739Y-90146496D01*
X127585635Y-89926692D01*
X127605468Y-89700001D01*
X146894532Y-89700001D01*
X146914364Y-89926686D01*
X146914366Y-89926697D01*
X146973258Y-90146488D01*
X146973261Y-90146497D01*
X147069431Y-90352732D01*
X147069432Y-90352734D01*
X147199954Y-90539141D01*
X147360858Y-90700045D01*
X147360861Y-90700047D01*
X147547266Y-90830568D01*
X147753504Y-90926739D01*
X147973308Y-90985635D01*
X148143214Y-91000499D01*
X148143215Y-91000500D01*
X148143216Y-91000500D01*
X148256785Y-91000500D01*
X148256785Y-91000499D01*
X148426692Y-90985635D01*
X148646496Y-90926739D01*
X148852734Y-90830568D01*
X149039139Y-90700047D01*
X149200047Y-90539139D01*
X149330568Y-90352734D01*
X149426739Y-90146496D01*
X149485635Y-89926692D01*
X149505468Y-89700000D01*
X149505466Y-89699982D01*
X149485635Y-89473313D01*
X149485635Y-89473308D01*
X149426739Y-89253504D01*
X149330568Y-89047266D01*
X149200047Y-88860861D01*
X149200045Y-88860858D01*
X149039141Y-88699954D01*
X148852734Y-88569432D01*
X148852732Y-88569431D01*
X148646497Y-88473261D01*
X148646488Y-88473258D01*
X148426697Y-88414366D01*
X148426687Y-88414364D01*
X148256785Y-88399500D01*
X148256784Y-88399500D01*
X148143216Y-88399500D01*
X148143215Y-88399500D01*
X147973312Y-88414364D01*
X147973302Y-88414366D01*
X147753511Y-88473258D01*
X147753502Y-88473261D01*
X147547267Y-88569431D01*
X147547265Y-88569432D01*
X147360858Y-88699954D01*
X147199954Y-88860858D01*
X147069432Y-89047265D01*
X147069431Y-89047267D01*
X146973261Y-89253502D01*
X146973258Y-89253511D01*
X146914366Y-89473302D01*
X146914364Y-89473313D01*
X146894532Y-89699998D01*
X146894532Y-89700001D01*
X127605468Y-89700001D01*
X127605468Y-89700000D01*
X127605466Y-89699982D01*
X127585635Y-89473313D01*
X127585635Y-89473308D01*
X127526739Y-89253504D01*
X127430568Y-89047266D01*
X127300047Y-88860861D01*
X127300045Y-88860858D01*
X127139141Y-88699954D01*
X126952734Y-88569432D01*
X126952732Y-88569431D01*
X126746497Y-88473261D01*
X126746488Y-88473258D01*
X126526697Y-88414366D01*
X126526687Y-88414364D01*
X126356785Y-88399500D01*
X126356784Y-88399500D01*
X126243216Y-88399500D01*
X126243215Y-88399500D01*
X126073312Y-88414364D01*
X126073302Y-88414366D01*
X125853511Y-88473258D01*
X125853502Y-88473261D01*
X125647267Y-88569431D01*
X125647265Y-88569432D01*
X125460858Y-88699954D01*
X125299954Y-88860858D01*
X125169432Y-89047265D01*
X125169431Y-89047267D01*
X125073261Y-89253502D01*
X125073258Y-89253511D01*
X125014366Y-89473302D01*
X125014364Y-89473313D01*
X124994532Y-89699998D01*
X124994532Y-89700001D01*
X123800557Y-89700001D01*
X123800613Y-89698132D01*
X123814212Y-89473308D01*
X123818497Y-89402458D01*
X123819401Y-89395026D01*
X123872456Y-89105516D01*
X123874246Y-89098250D01*
X123961816Y-88817230D01*
X123964465Y-88810248D01*
X124014104Y-88699954D01*
X124085268Y-88541834D01*
X124088745Y-88535211D01*
X124161799Y-88414366D01*
X124241012Y-88283330D01*
X124245252Y-88277186D01*
X124426793Y-88045465D01*
X124431737Y-88039884D01*
X124639884Y-87831737D01*
X124645465Y-87826793D01*
X124877186Y-87645252D01*
X124883334Y-87641010D01*
X125135215Y-87488742D01*
X125141834Y-87485268D01*
X125375272Y-87380205D01*
X125410248Y-87364465D01*
X125417230Y-87361816D01*
X125698250Y-87274246D01*
X125705516Y-87272456D01*
X125995026Y-87219401D01*
X126002458Y-87218497D01*
X126227572Y-87204880D01*
X126298134Y-87200613D01*
X126301878Y-87200500D01*
X126347595Y-87200500D01*
X148198140Y-87200500D01*
X148201884Y-87200613D01*
G37*
%TD.AperFunction*%
%TD*%
M02*
