%TF.GenerationSoftware,KiCad,Pcbnew,7.0.5-0*%
%TF.CreationDate,2024-02-02T21:32:52-05:00*%
%TF.ProjectId,Cutdown_Test,43757464-6f77-46e5-9f54-6573742e6b69,rev?*%
%TF.SameCoordinates,Original*%
%TF.FileFunction,Copper,L1,Top*%
%TF.FilePolarity,Positive*%
%FSLAX46Y46*%
G04 Gerber Fmt 4.6, Leading zero omitted, Abs format (unit mm)*
G04 Created by KiCad (PCBNEW 7.0.5-0) date 2024-02-02 21:32:52*
%MOMM*%
%LPD*%
G01*
G04 APERTURE LIST*
G04 Aperture macros list*
%AMRoundRect*
0 Rectangle with rounded corners*
0 $1 Rounding radius*
0 $2 $3 $4 $5 $6 $7 $8 $9 X,Y pos of 4 corners*
0 Add a 4 corners polygon primitive as box body*
4,1,4,$2,$3,$4,$5,$6,$7,$8,$9,$2,$3,0*
0 Add four circle primitives for the rounded corners*
1,1,$1+$1,$2,$3*
1,1,$1+$1,$4,$5*
1,1,$1+$1,$6,$7*
1,1,$1+$1,$8,$9*
0 Add four rect primitives between the rounded corners*
20,1,$1+$1,$2,$3,$4,$5,0*
20,1,$1+$1,$4,$5,$6,$7,0*
20,1,$1+$1,$6,$7,$8,$9,0*
20,1,$1+$1,$8,$9,$2,$3,0*%
%AMFreePoly0*
4,1,6,1.000000,0.000000,0.500000,-0.750000,-0.500000,-0.750000,-0.500000,0.750000,0.500000,0.750000,1.000000,0.000000,1.000000,0.000000,$1*%
%AMFreePoly1*
4,1,6,0.500000,-0.750000,-0.650000,-0.750000,-0.150000,0.000000,-0.650000,0.750000,0.500000,0.750000,0.500000,-0.750000,0.500000,-0.750000,$1*%
G04 Aperture macros list end*
%TA.AperFunction,SMDPad,CuDef*%
%ADD10RoundRect,0.237500X-0.237500X0.300000X-0.237500X-0.300000X0.237500X-0.300000X0.237500X0.300000X0*%
%TD*%
%TA.AperFunction,SMDPad,CuDef*%
%ADD11RoundRect,0.237500X-0.250000X-0.237500X0.250000X-0.237500X0.250000X0.237500X-0.250000X0.237500X0*%
%TD*%
%TA.AperFunction,ComponentPad*%
%ADD12C,2.000000*%
%TD*%
%TA.AperFunction,SMDPad,CuDef*%
%ADD13RoundRect,0.237500X0.237500X-0.300000X0.237500X0.300000X-0.237500X0.300000X-0.237500X-0.300000X0*%
%TD*%
%TA.AperFunction,SMDPad,CuDef*%
%ADD14R,0.699999X0.230000*%
%TD*%
%TA.AperFunction,SMDPad,CuDef*%
%ADD15R,0.230000X0.699999*%
%TD*%
%TA.AperFunction,ComponentPad*%
%ADD16C,0.900000*%
%TD*%
%TA.AperFunction,SMDPad,CuDef*%
%ADD17R,2.650000X3.650001*%
%TD*%
%TA.AperFunction,SMDPad,CuDef*%
%ADD18RoundRect,0.250000X0.362500X1.425000X-0.362500X1.425000X-0.362500X-1.425000X0.362500X-1.425000X0*%
%TD*%
%TA.AperFunction,SMDPad,CuDef*%
%ADD19RoundRect,0.250000X0.475000X-0.337500X0.475000X0.337500X-0.475000X0.337500X-0.475000X-0.337500X0*%
%TD*%
%TA.AperFunction,SMDPad,CuDef*%
%ADD20RoundRect,0.250000X0.337500X0.475000X-0.337500X0.475000X-0.337500X-0.475000X0.337500X-0.475000X0*%
%TD*%
%TA.AperFunction,ComponentPad*%
%ADD21R,1.700000X1.700000*%
%TD*%
%TA.AperFunction,ComponentPad*%
%ADD22O,1.700000X1.700000*%
%TD*%
%TA.AperFunction,SMDPad,CuDef*%
%ADD23RoundRect,0.237500X-0.237500X0.250000X-0.237500X-0.250000X0.237500X-0.250000X0.237500X0.250000X0*%
%TD*%
%TA.AperFunction,SMDPad,CuDef*%
%ADD24RoundRect,0.237500X-0.300000X-0.237500X0.300000X-0.237500X0.300000X0.237500X-0.300000X0.237500X0*%
%TD*%
%TA.AperFunction,SMDPad,CuDef*%
%ADD25R,1.397000X1.193800*%
%TD*%
%TA.AperFunction,SMDPad,CuDef*%
%ADD26FreePoly0,90.000000*%
%TD*%
%TA.AperFunction,SMDPad,CuDef*%
%ADD27FreePoly1,90.000000*%
%TD*%
%TA.AperFunction,SMDPad,CuDef*%
%ADD28FreePoly0,0.000000*%
%TD*%
%TA.AperFunction,SMDPad,CuDef*%
%ADD29FreePoly1,0.000000*%
%TD*%
%TA.AperFunction,SMDPad,CuDef*%
%ADD30R,3.100000X5.000000*%
%TD*%
%TA.AperFunction,ViaPad*%
%ADD31C,1.000000*%
%TD*%
%TA.AperFunction,ViaPad*%
%ADD32C,0.800000*%
%TD*%
%TA.AperFunction,Conductor*%
%ADD33C,0.250000*%
%TD*%
%TA.AperFunction,Conductor*%
%ADD34C,1.000000*%
%TD*%
%TA.AperFunction,Conductor*%
%ADD35C,0.500000*%
%TD*%
%TA.AperFunction,Conductor*%
%ADD36C,0.230000*%
%TD*%
%TA.AperFunction,Conductor*%
%ADD37C,0.700000*%
%TD*%
%TA.AperFunction,Conductor*%
%ADD38C,0.200000*%
%TD*%
G04 APERTURE END LIST*
D10*
%TO.P,C1,1*%
%TO.N,Net-(U1-MPCC)*%
X139100000Y-112737500D03*
%TO.P,C1,2*%
%TO.N,GND*%
X139100000Y-114462500D03*
%TD*%
D11*
%TO.P,R3,1*%
%TO.N,Net-(U1-RT)*%
X140687500Y-112100000D03*
%TO.P,R3,2*%
%TO.N,GND*%
X142512500Y-112100000D03*
%TD*%
D12*
%TO.P,TP8,1,1*%
%TO.N,Net-(U1-VC)*%
X147500000Y-113800000D03*
%TD*%
D13*
%TO.P,C4,1*%
%TO.N,Net-(U1-BST2)*%
X132900000Y-103862500D03*
%TO.P,C4,2*%
%TO.N,Net-(C4-Pad2)*%
X132900000Y-102137500D03*
%TD*%
D14*
%TO.P,U1,1,BST3*%
%TO.N,Net-(U1-BST3)*%
X133700002Y-106100001D03*
%TO.P,U1,2,PVOUT*%
%TO.N,/POWR_OUT*%
X133700002Y-106600000D03*
%TO.P,U1,3,GND*%
%TO.N,GND*%
X133700002Y-107099999D03*
%TO.P,U1,4,PVOUT*%
%TO.N,/POWR_OUT*%
X133700002Y-107600000D03*
%TO.P,U1,5,ISP*%
%TO.N,+BATT*%
X133700002Y-108100000D03*
%TO.P,U1,6,ISN*%
%TO.N,Net-(U1-ISN)*%
X133700002Y-108600001D03*
%TO.P,U1,7,PGOOD*%
%TO.N,Net-(U1-PGOOD)*%
X133700002Y-109100000D03*
%TO.P,U1,8,PROG*%
%TO.N,Net-(U1-PROG)*%
X133700002Y-109599999D03*
D15*
%TO.P,U1,9,FB*%
%TO.N,Net-(U1-FB)*%
X134500000Y-110400000D03*
%TO.P,U1,10,VC*%
%TO.N,Net-(U1-VC)*%
X134999999Y-110400000D03*
%TO.P,U1,11,GND*%
%TO.N,GND*%
X135500000Y-110400000D03*
%TO.P,U1,12,MPCC*%
%TO.N,Net-(U1-MPCC)*%
X136000000Y-110400000D03*
%TO.P,U1,13,VCC*%
X136500001Y-110400000D03*
%TO.P,U1,14,RT*%
%TO.N,Net-(U1-RT)*%
X137000000Y-110400000D03*
D14*
%TO.P,U1,15,SYNC/MODE*%
%TO.N,Net-(U1-ISN)*%
X137799998Y-109599999D03*
%TO.P,U1,16,EN/UVLO*%
%TO.N,/EN*%
X137799998Y-109100000D03*
%TO.P,U1,17,VIN*%
%TO.N,Net-(JP1-B)*%
X137799998Y-108600001D03*
%TO.P,U1,18,GND*%
%TO.N,GND*%
X137799998Y-108100000D03*
%TO.P,U1,19,PVIN*%
%TO.N,Net-(U1-ISN)*%
X137799998Y-107600000D03*
%TO.P,U1,20,PVIN*%
X137799998Y-107099999D03*
%TO.P,U1,21,PVIN*%
X137799998Y-106600000D03*
%TO.P,U1,22,GND*%
%TO.N,GND*%
X137799998Y-106100001D03*
D15*
%TO.P,U1,23,BST1*%
%TO.N,Net-(U1-BST1)*%
X137000000Y-105300000D03*
%TO.P,U1,24,SW1*%
%TO.N,Net-(C3-Pad2)*%
X136500001Y-105300000D03*
%TO.P,U1,25,SW1*%
X136000000Y-105300000D03*
%TO.P,U1,26,SW2*%
%TO.N,Net-(C4-Pad2)*%
X135500000Y-105300000D03*
%TO.P,U1,27,SW2*%
X134999999Y-105300000D03*
%TO.P,U1,28,BST2*%
%TO.N,Net-(U1-BST2)*%
X134500000Y-105300000D03*
D16*
%TO.P,U1,29,PGND*%
%TO.N,GND*%
X135050000Y-106650000D03*
X135050000Y-107850000D03*
X135050000Y-109050000D03*
D17*
X135750000Y-107850000D03*
D16*
X136450000Y-106650000D03*
X136450000Y-107850000D03*
X136450000Y-109050000D03*
%TD*%
D18*
%TO.P,R2,1*%
%TO.N,+BATT*%
X145662500Y-106700000D03*
%TO.P,R2,2*%
%TO.N,Net-(U1-ISN)*%
X139737500Y-106700000D03*
%TD*%
D19*
%TO.P,C8,1*%
%TO.N,/POWR_OUT*%
X129300000Y-103637500D03*
%TO.P,C8,2*%
%TO.N,GND*%
X129300000Y-101562500D03*
%TD*%
D20*
%TO.P,C6,1*%
%TO.N,/POWR_OUT*%
X131337500Y-106700000D03*
%TO.P,C6,2*%
%TO.N,GND*%
X129262500Y-106700000D03*
%TD*%
D21*
%TO.P,J2,1,Pin_1*%
%TO.N,+BATT*%
X128500000Y-109900000D03*
D22*
%TO.P,J2,2,Pin_2*%
%TO.N,GND*%
X125960000Y-109900000D03*
%TD*%
D13*
%TO.P,C3,1*%
%TO.N,Net-(U1-BST1)*%
X138600000Y-103862500D03*
%TO.P,C3,2*%
%TO.N,Net-(C3-Pad2)*%
X138600000Y-102137500D03*
%TD*%
D12*
%TO.P,TP6,1,1*%
%TO.N,Net-(U1-FB)*%
X128800000Y-113500000D03*
%TD*%
D13*
%TO.P,C7,1*%
%TO.N,Net-(C7-Pad1)*%
X137500000Y-114462500D03*
%TO.P,C7,2*%
%TO.N,GND*%
X137500000Y-112737500D03*
%TD*%
D23*
%TO.P,R5,1*%
%TO.N,/POWR_OUT*%
X132700000Y-111887500D03*
%TO.P,R5,2*%
%TO.N,Net-(U1-FB)*%
X132700000Y-113712500D03*
%TD*%
D13*
%TO.P,C5,1*%
%TO.N,Net-(U1-BST3)*%
X131200000Y-103362500D03*
%TO.P,C5,2*%
%TO.N,/POWR_OUT*%
X131200000Y-101637500D03*
%TD*%
D23*
%TO.P,R1,1*%
%TO.N,Net-(U1-PROG)*%
X131100000Y-112687500D03*
%TO.P,R1,2*%
%TO.N,GND*%
X131100000Y-114512500D03*
%TD*%
D24*
%TO.P,C2,1*%
%TO.N,Net-(U1-ISN)*%
X140275000Y-103900000D03*
%TO.P,C2,2*%
%TO.N,GND*%
X142000000Y-103900000D03*
%TD*%
D23*
%TO.P,R6,1*%
%TO.N,Net-(U1-FB)*%
X134300000Y-112687500D03*
%TO.P,R6,2*%
%TO.N,GND*%
X134300000Y-114512500D03*
%TD*%
D25*
%TO.P,SW1,1,A*%
%TO.N,GND*%
X148698101Y-102440000D03*
%TO.P,SW1,2,B*%
%TO.N,/EN*%
X144298102Y-99900000D03*
%TO.P,SW1,3,C*%
%TO.N,+BATT*%
X148698101Y-97360000D03*
%TD*%
D26*
%TO.P,JP1,1,A*%
%TO.N,+3V3*%
X145600000Y-111125000D03*
D27*
%TO.P,JP1,2,B*%
%TO.N,Net-(JP1-B)*%
X145600000Y-109675000D03*
%TD*%
D12*
%TO.P,TP5,1,1*%
%TO.N,+3V3*%
X148600000Y-110500000D03*
%TD*%
D28*
%TO.P,JP2,1,A*%
%TO.N,+BATT*%
X141875000Y-110000000D03*
D29*
%TO.P,JP2,2,B*%
%TO.N,Net-(JP1-B)*%
X143325000Y-110000000D03*
%TD*%
D21*
%TO.P,J1,1,Pin_1*%
%TO.N,/POWR_OUT*%
X126400000Y-104775000D03*
D22*
%TO.P,J1,2,Pin_2*%
%TO.N,GND*%
X126400000Y-102235000D03*
%TD*%
D12*
%TO.P,TP2,1,1*%
%TO.N,GND*%
X126300000Y-97000000D03*
%TD*%
%TO.P,TP3,1,1*%
%TO.N,/EN*%
X145000000Y-93300000D03*
%TD*%
%TO.P,TP1,1,1*%
%TO.N,Net-(U1-PGOOD)*%
X125400000Y-113500000D03*
%TD*%
D30*
%TO.P,L1,1,1*%
%TO.N,Net-(C3-Pad2)*%
X141300000Y-94100000D03*
%TO.P,L1,2,2*%
%TO.N,Net-(C4-Pad2)*%
X130200000Y-94100000D03*
%TD*%
D23*
%TO.P,R4,1*%
%TO.N,Net-(U1-VC)*%
X135900000Y-112687500D03*
%TO.P,R4,2*%
%TO.N,Net-(C7-Pad1)*%
X135900000Y-114512500D03*
%TD*%
D31*
%TO.N,GND*%
X127800000Y-107200000D03*
D32*
X143600000Y-112000000D03*
X140400000Y-114500000D03*
X132700000Y-114900000D03*
X148600000Y-101000000D03*
X136000000Y-111500000D03*
%TO.N,Net-(U1-ISN)*%
X131400000Y-109800000D03*
X139400000Y-110600000D03*
X141100000Y-106500000D03*
%TO.N,+BATT*%
X147100000Y-105300000D03*
X149900000Y-108000000D03*
X148500000Y-105300000D03*
X147100000Y-108000000D03*
X148500000Y-108000000D03*
X148500000Y-106650000D03*
X149900000Y-106650000D03*
X149900000Y-105300000D03*
X147100000Y-106650000D03*
%TO.N,Net-(U1-VC)*%
X141600000Y-113300000D03*
%TO.N,/EN*%
X142800000Y-100700000D03*
X139900000Y-109600000D03*
%TO.N,/POWR_OUT*%
X133400000Y-110700000D03*
X126400000Y-107500000D03*
%TD*%
D33*
%TO.N,Net-(U1-MPCC)*%
X136500001Y-110900001D02*
X136900000Y-111300000D01*
X136900000Y-111300000D02*
X137662500Y-111300000D01*
X136500001Y-110400000D02*
X136500001Y-110900001D01*
X137662500Y-111300000D02*
X139100000Y-112737500D01*
X136000000Y-110400000D02*
X136500001Y-110400000D01*
D34*
%TO.N,GND*%
X128300000Y-106700000D02*
X127800000Y-107200000D01*
D33*
X137500000Y-112737500D02*
X137237500Y-112737500D01*
D34*
X148698101Y-102440000D02*
X148698101Y-101098101D01*
D33*
X135500000Y-109500000D02*
X135050000Y-109050000D01*
X135500000Y-110400000D02*
X135500000Y-111000000D01*
X136700000Y-106100000D02*
X137799998Y-106100001D01*
D34*
X129262500Y-106700000D02*
X128300000Y-106700000D01*
D33*
X135750000Y-107850000D02*
X135750000Y-107050000D01*
X134600001Y-107099999D02*
X135050000Y-106650000D01*
D34*
X129300000Y-101562500D02*
X127072500Y-101562500D01*
D33*
X142512500Y-112100000D02*
X143500000Y-112100000D01*
D35*
X133600000Y-114900000D02*
X131487500Y-114900000D01*
X134300000Y-114512500D02*
X133987500Y-114512500D01*
D34*
X148698101Y-101098101D02*
X148600000Y-101000000D01*
D35*
X133987500Y-114512500D02*
X133600000Y-114900000D01*
D33*
X135500000Y-110400000D02*
X135500000Y-109500000D01*
X135750000Y-107050000D02*
X136700000Y-106100000D01*
X140362500Y-114462500D02*
X140400000Y-114500000D01*
X133700002Y-107099999D02*
X134600001Y-107099999D01*
X135500000Y-111000000D02*
X136000000Y-111500000D01*
D35*
X131487500Y-114900000D02*
X131100000Y-114512500D01*
D33*
X137237500Y-112737500D02*
X136000000Y-111500000D01*
D34*
X127072500Y-101562500D02*
X126400000Y-102235000D01*
D33*
X137799998Y-108100000D02*
X136000000Y-108100000D01*
X139100000Y-114462500D02*
X140362500Y-114462500D01*
X143500000Y-112100000D02*
X143600000Y-112000000D01*
X136000000Y-108100000D02*
X135750000Y-107850000D01*
%TO.N,Net-(U1-ISN)*%
X139737500Y-106700000D02*
X140900000Y-106700000D01*
X131400000Y-109800000D02*
X132599999Y-108600001D01*
X140900000Y-106700000D02*
X141100000Y-106500000D01*
X137799998Y-109599999D02*
X138399999Y-109599999D01*
X138399999Y-109599999D02*
X139400000Y-110600000D01*
X132599999Y-108600001D02*
X133700002Y-108600001D01*
D36*
%TO.N,Net-(U1-BST3)*%
X131200000Y-103599999D02*
X131200000Y-103362500D01*
X133700002Y-106100001D02*
X131200000Y-103599999D01*
D35*
%TO.N,Net-(C7-Pad1)*%
X135950000Y-114462500D02*
X135900000Y-114512500D01*
X137500000Y-114462500D02*
X135950000Y-114462500D01*
D33*
%TO.N,+BATT*%
X145300000Y-106337500D02*
X145300000Y-102200000D01*
X145300000Y-102200000D02*
X148698101Y-98801899D01*
D34*
X143900000Y-106700000D02*
X141875000Y-108725000D01*
D33*
X145662500Y-106700000D02*
X145300000Y-106337500D01*
D34*
X145662500Y-106700000D02*
X143900000Y-106700000D01*
X141875000Y-108725000D02*
X141875000Y-110000000D01*
D33*
X148698101Y-98801899D02*
X148698101Y-97360000D01*
D37*
%TO.N,+3V3*%
X148600000Y-110500000D02*
X147975000Y-111125000D01*
X147975000Y-111125000D02*
X145600000Y-111125000D01*
D33*
%TO.N,Net-(JP1-B)*%
X140400000Y-108800000D02*
X139100000Y-108800000D01*
X142700000Y-111200000D02*
X141300000Y-111200000D01*
X141000000Y-109400000D02*
X140400000Y-108800000D01*
X143325000Y-110000000D02*
X143325000Y-110575000D01*
X143650000Y-109675000D02*
X143325000Y-110000000D01*
X143325000Y-110575000D02*
X142700000Y-111200000D01*
X145600000Y-109675000D02*
X143650000Y-109675000D01*
X141300000Y-111200000D02*
X141000000Y-110900000D01*
X138900001Y-108600001D02*
X137799998Y-108600001D01*
X141000000Y-110900000D02*
X141000000Y-109400000D01*
X139100000Y-108800000D02*
X138900001Y-108600001D01*
%TO.N,Net-(U1-PROG)*%
X133700002Y-109599999D02*
X133400001Y-109599999D01*
X131100000Y-111900000D02*
X131100000Y-112687500D01*
X133400001Y-109599999D02*
X131100000Y-111900000D01*
%TO.N,Net-(U1-RT)*%
X138100000Y-110400000D02*
X137000000Y-110400000D01*
X139800000Y-112100000D02*
X138100000Y-110400000D01*
X140687500Y-112100000D02*
X139800000Y-112100000D01*
D38*
%TO.N,Net-(U1-VC)*%
X141600000Y-113300000D02*
X141300000Y-113600000D01*
X136812500Y-113600000D02*
X135900000Y-112687500D01*
D33*
X134999999Y-111787499D02*
X135900000Y-112687500D01*
X134999999Y-110400000D02*
X134999999Y-111787499D01*
D38*
X141300000Y-113600000D02*
X136812500Y-113600000D01*
D33*
%TO.N,Net-(U1-FB)*%
X132487500Y-113500000D02*
X128800000Y-113500000D01*
X134300000Y-112687500D02*
X134300000Y-110600000D01*
X132700000Y-113712500D02*
X132487500Y-113500000D01*
X133275000Y-113712500D02*
X132700000Y-113712500D01*
X134300000Y-110600000D02*
X134500000Y-110400000D01*
X134300000Y-112687500D02*
X133275000Y-113712500D01*
%TO.N,/EN*%
X139900000Y-109600000D02*
X139100000Y-109600000D01*
X139100000Y-109600000D02*
X138600000Y-109100000D01*
X143498102Y-100700000D02*
X144298102Y-99900000D01*
X142800000Y-100700000D02*
X143498102Y-100700000D01*
X138600000Y-109100000D02*
X137799998Y-109100000D01*
X144298102Y-94001898D02*
X145000000Y-93300000D01*
X144298102Y-99900000D02*
X144298102Y-94001898D01*
%TO.N,Net-(U1-PGOOD)*%
X127600000Y-111300000D02*
X125400000Y-113500000D01*
X133200000Y-109100000D02*
X131000000Y-111300000D01*
X131000000Y-111300000D02*
X127600000Y-111300000D01*
X133700002Y-109100000D02*
X133200000Y-109100000D01*
%TO.N,/POWR_OUT*%
X132700000Y-111400000D02*
X132700000Y-111887500D01*
X131200000Y-101700000D02*
X129300000Y-103600000D01*
X133400000Y-110700000D02*
X132700000Y-111400000D01*
X131200000Y-101637500D02*
X131200000Y-101700000D01*
X129300000Y-103600000D02*
X129300000Y-103637500D01*
X126400000Y-107500000D02*
X126400000Y-104775000D01*
%TD*%
%TA.AperFunction,Conductor*%
%TO.N,Net-(U1-BST1)*%
G36*
X139251376Y-103125185D02*
G01*
X139297131Y-103177989D01*
X139307075Y-103247147D01*
X139303313Y-103264439D01*
X139302826Y-103266094D01*
X139294500Y-103324003D01*
X139294500Y-104470500D01*
X139274815Y-104537539D01*
X139222011Y-104583294D01*
X139170500Y-104594500D01*
X138945858Y-104594500D01*
X138934863Y-104595089D01*
X138934847Y-104595090D01*
X138903038Y-104598511D01*
X138903032Y-104598512D01*
X138826524Y-104622468D01*
X138765196Y-104655954D01*
X138718372Y-104691007D01*
X138718360Y-104691017D01*
X137976409Y-105432969D01*
X137976404Y-105432974D01*
X137947857Y-105468723D01*
X137947855Y-105468727D01*
X137918612Y-105515136D01*
X137918609Y-105515142D01*
X137912356Y-105525756D01*
X137912355Y-105525757D01*
X137912356Y-105525757D01*
X137888309Y-105610027D01*
X137850986Y-105669090D01*
X137787654Y-105698599D01*
X137769070Y-105700000D01*
X137014000Y-105700000D01*
X136946961Y-105680315D01*
X136901206Y-105627511D01*
X136890000Y-105576000D01*
X136890000Y-104962700D01*
X136892383Y-104938507D01*
X136900152Y-104899450D01*
X136901633Y-104889472D01*
X136905005Y-104855239D01*
X136905500Y-104845160D01*
X136905500Y-104445860D01*
X136925185Y-104378822D01*
X136941814Y-104358185D01*
X138158180Y-103141818D01*
X138219504Y-103108334D01*
X138245862Y-103105500D01*
X139184337Y-103105500D01*
X139251376Y-103125185D01*
G37*
%TD.AperFunction*%
%TD*%
%TA.AperFunction,Conductor*%
%TO.N,+BATT*%
G36*
X127714546Y-107900452D02*
G01*
X127714942Y-107900500D01*
X127714944Y-107900500D01*
X127776952Y-107900500D01*
X127780697Y-107900613D01*
X127788516Y-107901085D01*
X127842606Y-107904358D01*
X127852575Y-107902531D01*
X127874927Y-107900500D01*
X127885058Y-107900500D01*
X127885454Y-107900452D01*
X127892930Y-107900000D01*
X130334962Y-107900000D01*
X130402001Y-107919685D01*
X130411949Y-107927786D01*
X130412202Y-107927456D01*
X130419249Y-107932845D01*
X130496317Y-107975954D01*
X130499063Y-107977490D01*
X130566102Y-107997175D01*
X130624000Y-108005500D01*
X130624004Y-108005500D01*
X133245152Y-108005500D01*
X133245162Y-108005500D01*
X133255241Y-108005005D01*
X133289472Y-108001633D01*
X133299451Y-108000152D01*
X133338510Y-107992382D01*
X133362700Y-107990000D01*
X134076000Y-107990000D01*
X134143039Y-108009685D01*
X134188794Y-108062489D01*
X134200000Y-108114000D01*
X134200000Y-108160516D01*
X134180315Y-108227555D01*
X134127511Y-108273310D01*
X134075842Y-108282013D01*
X134075842Y-108284501D01*
X133796037Y-108284501D01*
X133774505Y-108282617D01*
X133728479Y-108274501D01*
X133728477Y-108274501D01*
X132616921Y-108274501D01*
X132611517Y-108274265D01*
X132606106Y-108273791D01*
X132571191Y-108270736D01*
X132571190Y-108270736D01*
X132532090Y-108281213D01*
X132526810Y-108282384D01*
X132486958Y-108289411D01*
X132481960Y-108291230D01*
X132465116Y-108298207D01*
X132460312Y-108300447D01*
X132427165Y-108323657D01*
X132422605Y-108326563D01*
X132387547Y-108346805D01*
X132387539Y-108346811D01*
X132361522Y-108377816D01*
X132357868Y-108381805D01*
X131571684Y-109167988D01*
X131510361Y-109201473D01*
X131467818Y-109203246D01*
X131400001Y-109194318D01*
X131399999Y-109194318D01*
X131243239Y-109214955D01*
X131243237Y-109214956D01*
X131097160Y-109275463D01*
X130971718Y-109371718D01*
X130875463Y-109497160D01*
X130814956Y-109643237D01*
X130814955Y-109643239D01*
X130794318Y-109799998D01*
X130794318Y-109800001D01*
X130814955Y-109956760D01*
X130814956Y-109956762D01*
X130871933Y-110094318D01*
X130875464Y-110102841D01*
X130971718Y-110228282D01*
X131097159Y-110324536D01*
X131221262Y-110375941D01*
X131275665Y-110419782D01*
X131297730Y-110486076D01*
X131280451Y-110553775D01*
X131261490Y-110578183D01*
X130901493Y-110938181D01*
X130840170Y-110971666D01*
X130813812Y-110974500D01*
X127616922Y-110974500D01*
X127611518Y-110974264D01*
X127606107Y-110973790D01*
X127571192Y-110970735D01*
X127571191Y-110970735D01*
X127532091Y-110981212D01*
X127526811Y-110982383D01*
X127486959Y-110989410D01*
X127481961Y-110991229D01*
X127465117Y-110998206D01*
X127460313Y-111000446D01*
X127427166Y-111023656D01*
X127422604Y-111026563D01*
X127386002Y-111047696D01*
X127318102Y-111064170D01*
X127252075Y-111041319D01*
X127208883Y-110986399D01*
X127200000Y-110940310D01*
X127200000Y-108024000D01*
X127219685Y-107956961D01*
X127272489Y-107911206D01*
X127324000Y-107900000D01*
X127707070Y-107900000D01*
X127714546Y-107900452D01*
G37*
%TD.AperFunction*%
%TD*%
%TA.AperFunction,Conductor*%
%TO.N,+BATT*%
G36*
X150642539Y-104819685D02*
G01*
X150688294Y-104872489D01*
X150699500Y-104924000D01*
X150699500Y-108476000D01*
X150679815Y-108543039D01*
X150627011Y-108588794D01*
X150575500Y-108600000D01*
X144924000Y-108600000D01*
X144856961Y-108580315D01*
X144811206Y-108527511D01*
X144800000Y-108476000D01*
X144800000Y-104924000D01*
X144819685Y-104856961D01*
X144872489Y-104811206D01*
X144924000Y-104800000D01*
X150575500Y-104800000D01*
X150642539Y-104819685D01*
G37*
%TD.AperFunction*%
%TD*%
%TA.AperFunction,Conductor*%
%TO.N,Net-(U1-BST2)*%
G36*
X132251362Y-103105500D02*
G01*
X133254138Y-103105500D01*
X133321177Y-103125185D01*
X133341819Y-103141819D01*
X134558181Y-104358181D01*
X134591666Y-104419504D01*
X134594500Y-104445862D01*
X134594500Y-104845150D01*
X134594995Y-104855234D01*
X134598368Y-104889482D01*
X134599847Y-104899450D01*
X134607617Y-104938507D01*
X134610000Y-104962700D01*
X134610000Y-105576000D01*
X134590315Y-105643039D01*
X134537511Y-105688794D01*
X134486000Y-105700000D01*
X133797548Y-105700000D01*
X133730509Y-105680315D01*
X133709867Y-105663681D01*
X132136318Y-104090132D01*
X132102833Y-104028809D01*
X132100000Y-104002460D01*
X132100000Y-103226836D01*
X132119684Y-103159801D01*
X132172488Y-103114046D01*
X132241642Y-103104102D01*
X132251362Y-103105500D01*
G37*
%TD.AperFunction*%
%TD*%
%TA.AperFunction,Conductor*%
%TO.N,/POWR_OUT*%
G36*
X125450115Y-102719685D02*
G01*
X125492432Y-102765544D01*
X125522315Y-102821450D01*
X125556969Y-102863677D01*
X125653589Y-102981410D01*
X125688109Y-103009739D01*
X125813550Y-103112685D01*
X125996046Y-103210232D01*
X126194066Y-103270300D01*
X126194065Y-103270300D01*
X126212529Y-103272118D01*
X126400000Y-103290583D01*
X126605934Y-103270300D01*
X126803954Y-103210232D01*
X126986450Y-103112685D01*
X127146410Y-102981410D01*
X127277685Y-102821450D01*
X127307567Y-102765544D01*
X127356529Y-102715702D01*
X127416924Y-102700000D01*
X130348638Y-102700000D01*
X130415677Y-102719685D01*
X130436319Y-102736319D01*
X130511808Y-102811808D01*
X130545293Y-102873131D01*
X130541169Y-102940442D01*
X130527274Y-102980150D01*
X130527274Y-102980151D01*
X130524500Y-103009739D01*
X130524500Y-103715260D01*
X130527274Y-103744849D01*
X130570884Y-103869476D01*
X130649288Y-103975710D01*
X130649289Y-103975711D01*
X130755523Y-104054115D01*
X130755524Y-104054115D01*
X130755525Y-104054116D01*
X130880151Y-104097725D01*
X130880150Y-104097725D01*
X130909740Y-104100500D01*
X130909744Y-104100500D01*
X131202955Y-104100500D01*
X131269994Y-104120185D01*
X131290636Y-104136819D01*
X133113183Y-105959366D01*
X133146668Y-106020689D01*
X133149502Y-106047047D01*
X133149502Y-106234753D01*
X133161133Y-106293230D01*
X133161134Y-106293231D01*
X133205449Y-106359553D01*
X133271771Y-106403868D01*
X133271772Y-106403869D01*
X133330249Y-106415500D01*
X133330252Y-106415501D01*
X133330254Y-106415501D01*
X133642141Y-106415501D01*
X133665446Y-106418569D01*
X133672079Y-106419149D01*
X133672080Y-106419148D01*
X133672081Y-106419149D01*
X133711082Y-106415736D01*
X133716485Y-106415501D01*
X134064139Y-106415501D01*
X134131178Y-106435186D01*
X134151820Y-106451820D01*
X134163681Y-106463681D01*
X134197166Y-106525004D01*
X134200000Y-106551362D01*
X134200000Y-106650499D01*
X134180315Y-106717538D01*
X134127511Y-106763293D01*
X134076000Y-106774499D01*
X133671524Y-106774499D01*
X133625499Y-106782615D01*
X133603967Y-106784499D01*
X133330249Y-106784499D01*
X133271772Y-106796130D01*
X133271771Y-106796131D01*
X133205449Y-106840446D01*
X133161134Y-106906768D01*
X133161133Y-106906769D01*
X133149502Y-106965246D01*
X133149502Y-107234751D01*
X133161133Y-107293228D01*
X133161134Y-107293229D01*
X133205449Y-107359551D01*
X133271771Y-107403866D01*
X133271772Y-107403867D01*
X133330249Y-107415498D01*
X133330252Y-107415499D01*
X133330254Y-107415499D01*
X133603967Y-107415499D01*
X133625498Y-107417382D01*
X133671527Y-107425499D01*
X134076000Y-107425499D01*
X134143039Y-107445184D01*
X134188794Y-107497988D01*
X134200000Y-107549499D01*
X134200000Y-107660515D01*
X134180315Y-107727554D01*
X134127511Y-107773309D01*
X134075842Y-107782012D01*
X134075842Y-107784500D01*
X133330251Y-107784500D01*
X133264307Y-107797617D01*
X133240116Y-107800000D01*
X130624000Y-107800000D01*
X130556961Y-107780315D01*
X130511206Y-107727511D01*
X130500000Y-107676000D01*
X130500000Y-105996072D01*
X130500000Y-105996071D01*
X130499999Y-105996071D01*
X130499998Y-105996070D01*
X130054910Y-105997411D01*
X129987812Y-105977929D01*
X129954769Y-105947048D01*
X129922150Y-105902850D01*
X129812882Y-105822207D01*
X129812880Y-105822206D01*
X129684700Y-105777353D01*
X129654270Y-105774500D01*
X129654266Y-105774500D01*
X128870734Y-105774500D01*
X128870730Y-105774500D01*
X128840300Y-105777353D01*
X128840298Y-105777353D01*
X128712119Y-105822206D01*
X128712117Y-105822207D01*
X128602850Y-105902850D01*
X128602848Y-105902851D01*
X128568692Y-105949133D01*
X128513044Y-105991384D01*
X128468921Y-105999500D01*
X128323048Y-105999500D01*
X128319303Y-105999387D01*
X128257396Y-105995642D01*
X128257389Y-105995642D01*
X128228418Y-106000951D01*
X128206443Y-106002981D01*
X125224374Y-106011966D01*
X125157275Y-105992484D01*
X125111361Y-105939818D01*
X125100000Y-105887967D01*
X125100000Y-102824000D01*
X125119685Y-102756961D01*
X125172489Y-102711206D01*
X125224000Y-102700000D01*
X125383076Y-102700000D01*
X125450115Y-102719685D01*
G37*
%TD.AperFunction*%
%TD*%
%TA.AperFunction,Conductor*%
%TO.N,Net-(C3-Pad2)*%
G36*
X142943039Y-91419685D02*
G01*
X142988794Y-91472489D01*
X143000000Y-91524000D01*
X143000000Y-99148638D01*
X142980315Y-99215677D01*
X142963681Y-99236319D01*
X139336319Y-102863681D01*
X139274996Y-102897166D01*
X139248638Y-102900000D01*
X138099999Y-102900000D01*
X136700000Y-104299999D01*
X136700000Y-104840115D01*
X136697617Y-104864307D01*
X136684500Y-104930249D01*
X136684500Y-105576000D01*
X136664815Y-105643039D01*
X136612011Y-105688794D01*
X136560500Y-105700000D01*
X136024000Y-105700000D01*
X135956961Y-105680315D01*
X135911206Y-105627511D01*
X135900000Y-105576000D01*
X135900000Y-95051362D01*
X135919685Y-94984323D01*
X135936319Y-94963681D01*
X139463681Y-91436319D01*
X139525004Y-91402834D01*
X139551362Y-91400000D01*
X142876000Y-91400000D01*
X142943039Y-91419685D01*
G37*
%TD.AperFunction*%
%TD*%
%TA.AperFunction,Conductor*%
%TO.N,Net-(U1-ISN)*%
G36*
X140543039Y-103219685D02*
G01*
X140588794Y-103272489D01*
X140600000Y-103324000D01*
X140600000Y-108348636D01*
X140580315Y-108415675D01*
X140563673Y-108436326D01*
X140558648Y-108441350D01*
X140497321Y-108474829D01*
X140438884Y-108473435D01*
X140428808Y-108470735D01*
X140393892Y-108473790D01*
X140388481Y-108474264D01*
X140383078Y-108474500D01*
X139286189Y-108474500D01*
X139219150Y-108454815D01*
X139198508Y-108438181D01*
X139142135Y-108381808D01*
X139138479Y-108377819D01*
X139112458Y-108346809D01*
X139112457Y-108346808D01*
X139112456Y-108346807D01*
X139101059Y-108340227D01*
X139077393Y-108326562D01*
X139072832Y-108323656D01*
X139059688Y-108314453D01*
X139039685Y-108300447D01*
X139039682Y-108300446D01*
X139034862Y-108298198D01*
X139018056Y-108291236D01*
X139013044Y-108289412D01*
X138973191Y-108282384D01*
X138967911Y-108281213D01*
X138928809Y-108270736D01*
X138893893Y-108273791D01*
X138888482Y-108274265D01*
X138883079Y-108274501D01*
X138825863Y-108274501D01*
X138758824Y-108254816D01*
X138738182Y-108238182D01*
X138300000Y-107800000D01*
X138259884Y-107800000D01*
X138235693Y-107797617D01*
X138169749Y-107784500D01*
X138169746Y-107784500D01*
X137896033Y-107784500D01*
X137874501Y-107782616D01*
X137828475Y-107774500D01*
X137828473Y-107774500D01*
X137424000Y-107774500D01*
X137356961Y-107754815D01*
X137311206Y-107702011D01*
X137300000Y-107650500D01*
X137300000Y-106549500D01*
X137319685Y-106482461D01*
X137372489Y-106436706D01*
X137423998Y-106425500D01*
X137828473Y-106425501D01*
X137874501Y-106417384D01*
X137896033Y-106415501D01*
X138169748Y-106415501D01*
X138169749Y-106415500D01*
X138184566Y-106412553D01*
X138228227Y-106403869D01*
X138228227Y-106403868D01*
X138228229Y-106403868D01*
X138294550Y-106359553D01*
X138338865Y-106293232D01*
X138338865Y-106293230D01*
X138338866Y-106293230D01*
X138350497Y-106234753D01*
X138350498Y-106234751D01*
X138350498Y-105965250D01*
X138350497Y-105965248D01*
X138338866Y-105906771D01*
X138338865Y-105906770D01*
X138294550Y-105840448D01*
X138228228Y-105796133D01*
X138185210Y-105787576D01*
X138123299Y-105755191D01*
X138088725Y-105694475D01*
X138092466Y-105624705D01*
X138121719Y-105578280D01*
X138863681Y-104836318D01*
X138925004Y-104802834D01*
X138951362Y-104800000D01*
X139500000Y-104800000D01*
X139500000Y-103324000D01*
X139519685Y-103256961D01*
X139572489Y-103211206D01*
X139624000Y-103200000D01*
X140476000Y-103200000D01*
X140543039Y-103219685D01*
G37*
%TD.AperFunction*%
%TD*%
%TA.AperFunction,Conductor*%
%TO.N,Net-(C4-Pad2)*%
G36*
X132015677Y-91419685D02*
G01*
X132036319Y-91436319D01*
X135563682Y-94963682D01*
X135597166Y-95025003D01*
X135600000Y-95051361D01*
X135600000Y-105576000D01*
X135580315Y-105643039D01*
X135527511Y-105688794D01*
X135476000Y-105700000D01*
X134939500Y-105700000D01*
X134872461Y-105680315D01*
X134826706Y-105627511D01*
X134815500Y-105576000D01*
X134815500Y-104930249D01*
X134802383Y-104864307D01*
X134800000Y-104840115D01*
X134800000Y-104300000D01*
X133400000Y-102900000D01*
X132251362Y-102900000D01*
X132184323Y-102880315D01*
X132163681Y-102863681D01*
X131737525Y-102437525D01*
X131704040Y-102376202D01*
X131709024Y-102306510D01*
X131745133Y-102258275D01*
X131744140Y-102257282D01*
X131750707Y-102250713D01*
X131750711Y-102250711D01*
X131829116Y-102144475D01*
X131872725Y-102019849D01*
X131875500Y-101990256D01*
X131875500Y-101284744D01*
X131872725Y-101255151D01*
X131829116Y-101130525D01*
X131813959Y-101109988D01*
X131750711Y-101024289D01*
X131750710Y-101024288D01*
X131644476Y-100945884D01*
X131519848Y-100902274D01*
X131519849Y-100902274D01*
X131490260Y-100899500D01*
X131490256Y-100899500D01*
X130909744Y-100899500D01*
X130909740Y-100899500D01*
X130880150Y-100902274D01*
X130755523Y-100945884D01*
X130649289Y-101024288D01*
X130596844Y-101095348D01*
X130541196Y-101137598D01*
X130471540Y-101143055D01*
X130409991Y-101109988D01*
X130409394Y-101109394D01*
X128536319Y-99236319D01*
X128502834Y-99174996D01*
X128500000Y-99148638D01*
X128500000Y-91524000D01*
X128519685Y-91456961D01*
X128572489Y-91411206D01*
X128624000Y-91400000D01*
X131948638Y-91400000D01*
X132015677Y-91419685D01*
G37*
%TD.AperFunction*%
%TD*%
M02*
